<svg xmlns="http://www.w3.org/2000/svg" xmlns:xlink="http://www.w3.org/1999/xlink" fill="none" version="1.1" width="24" height="24" viewBox="0 0 24 24"><defs><clipPath id="master_svg0_2231_13558"><rect x="0" y="0" width="24" height="24" rx="4"/></clipPath></defs><g clip-path="url(#master_svg0_2231_13558)"><rect x="0" y="0" width="24" height="24" rx="4" fill="#FFFFFF" fill-opacity="1"/><g><path d="M11,11L11,6C11,5.447715,11.44772,5,12,5C12.55228,5,13,5.447715,13,6L13,11L18,11C18.552300000000002,11,19,11.44772,19,12C19,12.55228,18.552300000000002,13,18,13L13,13L13,18C13,18.552300000000002,12.55228,19,12,19C11.44772,19,11,18.552300000000002,11,18L11,13L6,13C5.447715,13,5,12.55228,5,12C5,11.44772,5.447715,11,6,11L11,11Z" fill="#2D2E33" fill-opacity="1"/></g></g></svg>