<svg xmlns="http://www.w3.org/2000/svg" xmlns:xlink="http://www.w3.org/1999/xlink" fill="none" version="1.1" width="16" height="16" viewBox="0 0 16 16"><defs><clipPath id="master_svg0_4136_53767"><rect x="0" y="0" width="16" height="16" rx="0"/></clipPath></defs><g clip-path="url(#master_svg0_4136_53767)"><g><path d="M4.5304839999999995,5.469824L8,8.93934L11.46967,5.46967Q11.57516,5.364181,11.71299,5.30709Q11.850819999999999,5.25,12,5.25Q12.07387,5.25,12.14632,5.264411Q12.21877,5.278822,12.28701,5.30709Q12.35526,5.335359,12.41668,5.376398Q12.4781,5.417437,12.53033,5.46967Q12.58256,5.521903,12.6236,5.583322Q12.66464,5.644742,12.69291,5.712987Q12.72118,5.781233,12.73559,5.853682Q12.75,5.9261315,12.75,6Q12.75,6.149184,12.69291,6.287013Q12.63582,6.424841,12.53033,6.53033L12.52987,6.530792L8.53033,10.53033Q8.478100000000001,10.58256,8.41668,10.6236Q8.355260000000001,10.66464,8.28701,10.692910000000001Q8.21877,10.72118,8.14632,10.73559Q8.07387,10.75,8,10.75Q7.926130000000001,10.75,7.853680000000001,10.73559Q7.78123,10.72118,7.71299,10.692910000000001Q7.6447400000000005,10.66464,7.5833200000000005,10.6236Q7.5219000000000005,10.58256,7.46967,10.53033L3.469824,6.5304839999999995L3.46967,6.53033Q3.364181,6.424841,3.30709,6.287013Q3.25,6.149184,3.25,6Q3.25,5.9261315,3.264411,5.853682Q3.278822,5.781233,3.30709,5.712987Q3.335359,5.644742,3.376398,5.583322Q3.417437,5.521903,3.46967,5.46967Q3.521903,5.417437,3.583322,5.376398Q3.644742,5.335359,3.712987,5.30709Q3.781233,5.278822,3.853682,5.264411Q3.9261315,5.25,4,5.25Q4.149184,5.25,4.287013,5.30709Q4.424841,5.364181,4.53033,5.46967L4.5304839999999995,5.469824Z" fill-rule="evenodd" fill="#D1D4DC" fill-opacity="1"/></g></g></svg>