<svg xmlns="http://www.w3.org/2000/svg" xmlns:xlink="http://www.w3.org/1999/xlink" fill="none" version="1.1" width="16" height="16" viewBox="0 0 16 16"><defs><clipPath id="master_svg0_sa142_03276"><rect x="0" y="0" width="16" height="16" rx="0"/></clipPath></defs><g clip-path="url(#master_svg0_sa142_03276)"><g><path d="M4.5304839999999995,5.469824L4.53033,5.46967Q4.424841,5.364181,4.287013,5.30709Q4.149184,5.25,4,5.25Q3.850816,5.25,3.712987,5.30709Q3.575159,5.364181,3.46967,5.46967Q3.364181,5.575159,3.30709,5.712987Q3.25,5.850816,3.25,6Q3.25,6.149184,3.30709,6.287013Q3.364181,6.424841,3.46967,6.53033L3.469824,6.5304839999999995L7.46967,10.53033Q7.5219000000000005,10.58256,7.5833200000000005,10.6236Q7.6447400000000005,10.66464,7.71299,10.692910000000001Q7.78123,10.72118,7.853680000000001,10.73559Q7.926130000000001,10.75,8,10.75Q8.07387,10.75,8.14632,10.73559Q8.21877,10.72118,8.28701,10.692910000000001Q8.355260000000001,10.66464,8.41668,10.6236Q8.478100000000001,10.58256,8.53033,10.53033L12.52987,6.530792L12.53033,6.53033Q12.63582,6.424841,12.69291,6.287013Q12.75,6.149184,12.75,6Q12.75,5.850816,12.69291,5.712987Q12.63582,5.575159,12.53033,5.46967Q12.5269,5.466238,12.52342,5.4628499999999995Q12.41838,5.360495,12.28252,5.305247Q12.14666,5.25,12,5.25L11.99585,5.250011Q11.84775,5.250831,11.71107,5.307887Q11.5744,5.364943,11.46967,5.46967L8,8.93934L4.5304839999999995,5.469824Z" fill-rule="evenodd" fill="#B3B8C3" fill-opacity="1"/></g></g></svg>