<svg xmlns="http://www.w3.org/2000/svg" xmlns:xlink="http://www.w3.org/1999/xlink" fill="none" version="1.1" width="48" height="48" viewBox="0 0 48 48"><defs><filter id="master_svg0_339_04064" filterUnits="objectBoundingBox" color-interpolation-filters="sRGB" x="0" y="0" width="48" height="48"><feFlood flood-opacity="0" result="BackgroundImageFix"/><feBlend mode="normal" in="SourceGraphic" in2="BackgroundImageFix" result="shape"/><feGaussianBlur in="BackgroundImage" stdDeviation="5"/><feComposite in2="SourceAlpha" operator="in" result="effect1_foregroundBlur"/><feBlend mode="normal" in="SourceGraphic" in2="effect1_foregroundBlur" result="shape"/></filter></defs><g transform="matrix(-1,0,0,1,96,0)"><g style="opacity:0.15000000596046448;" filter="url(#master_svg0_339_04064)"><rect x="48" y="0" width="48" height="48" rx="24" fill="#FFFFFF" fill-opacity="1"/></g><g style="opacity:0.800000011920929;"><path d="M67.58579,15.41421Q67.4465,15.27493,67.33706,15.11114Q67.22762,14.947355,67.15224,14.765367Q67.07686,14.583379,67.03843,14.390181Q67,14.196983,67,14Q67,13.9017463,67.00963,13.803966Q67.01926,13.706185,67.03843,13.609819Q67.0576,13.513454,67.08612,13.419431Q67.11464,13.325408,67.15224,13.234633Q67.18984,13.143858999999999,67.23616,13.057207Q67.28247,12.97055,67.33706,12.88886Q67.39165,12.80716,67.45398,12.73121Q67.51631,12.65526,67.58579,12.58579Q67.65526,12.51631,67.73121,12.45398Q67.80716,12.39165,67.88886,12.33706Q67.97055,12.28247,68.057207,12.23616Q68.143859,12.18984,68.234633,12.152239999999999Q68.325408,12.11464,68.419431,12.08612Q68.513454,12.0576,68.609819,12.03843Q68.706185,12.01926,68.803966,12.00963Q68.9017463,12,69,12Q69.196983,12,69.390181,12.03843Q69.583378,12.07686,69.765367,12.152239999999999Q69.947355,12.22762,70.11114,12.33706Q70.27493,12.4465,70.41421,12.58579L80.4142,22.58579Q80.5535,22.725070000000002,80.66290000000001,22.88886Q80.7724,23.05265,80.8478,23.23463Q80.9231,23.41662,80.9616,23.60982Q81,23.80302,81,24Q81,24.197,80.9616,24.3902Q80.9231,24.583399999999997,80.8478,24.7654Q80.7724,24.947400000000002,80.66290000000001,25.1111Q80.5535,25.274900000000002,80.4142,25.4142L70.41496,35.4135L70.41421,35.4142Q70.27493,35.5535,70.11114,35.6629Q69.947355,35.772400000000005,69.765367,35.8478Q69.583379,35.923100000000005,69.390181,35.961600000000004Q69.196983,36,69,36Q68.9017463,36,68.803966,35.9904Q68.706185,35.9807,68.609819,35.961600000000004Q68.513454,35.9424,68.419431,35.9139Q68.325408,35.885400000000004,68.234633,35.8478Q68.143859,35.810199999999995,68.057207,35.7638Q67.97055,35.7175,67.88886,35.6629Q67.80716,35.6084,67.73121,35.546Q67.65526,35.4837,67.58579,35.4142Q67.51631,35.3447,67.45398,35.2688Q67.39165,35.1928,67.33706,35.1111Q67.28247,35.029399999999995,67.23616,34.9428Q67.18984,34.8561,67.15224,34.7654Q67.11464,34.6746,67.08612,34.580600000000004Q67.0576,34.4865,67.03843,34.3902Q67.01926,34.293800000000005,67.00963,34.196Q67,34.098299999999995,67,34Q67,33.803,67.03843,33.6098Q67.07686,33.4166,67.15224,33.2346Q67.22762,33.0526,67.33706,32.8889Q67.4465,32.7251,67.58579,32.5858L67.58654,32.585L76.17157,24L67.58579,15.41421Z" fill-rule="evenodd" fill="#FFFFFF" fill-opacity="1"/></g></g></svg>