<svg xmlns="http://www.w3.org/2000/svg" xmlns:xlink="http://www.w3.org/1999/xlink" fill="none" version="1.1" width="20" height="20" viewBox="0 0 20 20"><defs><clipPath id="master_svg0_347_10871/273_09748"><rect x="0" y="0" width="20" height="20" rx="0"/></clipPath></defs><g clip-path="url(#master_svg0_347_10871/273_09748)"><g><path d="M15,9.25341796875L5,9.25341796875Q4.9261315,9.25341796875,4.853682,9.267828968749999Q4.781233,9.28223996875,4.712987,9.31050796875Q4.644742,9.33877696875,4.583322,9.37981596875Q4.521903,9.42085496875,4.46967,9.47308796875Q4.417437,9.52532096875,4.376398,9.58673996875Q4.335359,9.64815996875,4.30709,9.71640496875Q4.278822,9.78465096875,4.264411,9.85709996875Q4.25,9.92954946875,4.25,10.00341796875Q4.25,10.07728646875,4.264411,10.14973596875Q4.278822,10.22218496875,4.30709,10.29043096875Q4.335359,10.35867596875,4.376398,10.42009596875Q4.417437,10.48151496875,4.46967,10.53374796875Q4.521903,10.58598096875,4.583322,10.62701996875Q4.644742,10.66805896875,4.712987,10.69632796875Q4.781233,10.72459596875,4.853682,10.739006968750001Q4.9261315,10.75341796875,5,10.75341796875L15,10.75341796875Q15.0739,10.75341796875,15.1463,10.739006968750001Q15.2188,10.72459596875,15.287,10.69632796875Q15.3553,10.66805896875,15.4167,10.62701996875Q15.4781,10.58598096875,15.5303,10.53374796875Q15.5826,10.48151496875,15.6236,10.42009596875Q15.6646,10.35867596875,15.6929,10.29043096875Q15.7212,10.22218496875,15.7356,10.14973596875Q15.75,10.07728646875,15.75,10.00341796875Q15.75,9.92954946875,15.7356,9.85709996875Q15.7212,9.78465096875,15.6929,9.71640496875Q15.6646,9.64815996875,15.6236,9.58673996875Q15.5826,9.52532096875,15.5303,9.47308796875Q15.4781,9.42085496875,15.4167,9.37981596875Q15.3553,9.33877696875,15.287,9.31050796875Q15.2188,9.28223996875,15.1463,9.267828968749999Q15.0739,9.25341796875,15,9.25341796875Z" fill-rule="evenodd" fill="#C0C4CC" fill-opacity="1"/></g><g><path d="M10.530484,4.469824L10.53033,4.46967Q10.424841,4.364181,10.287013,4.30709Q10.149184,4.25,10,4.25Q9.850816,4.25,9.712987,4.30709Q9.575159,4.364181,9.46967,4.46967Q9.364181,4.575159,9.30709,4.712987Q9.25,4.850816,9.25,5Q9.25,5.149184,9.30709,5.287013Q9.364181,5.424841,9.46967,5.53033L9.469824,5.5304839999999995L13.93934,10L9.470132,14.46921L9.46967,14.46967Q9.364181,14.57516,9.30709,14.71299Q9.25,14.85081,9.25,15Q9.25,15.1492,9.30709,15.287Q9.364181,15.4248,9.46967,15.5303Q9.575159,15.6358,9.712987,15.6929Q9.850816,15.75,10,15.75Q10.149184,15.75,10.287013,15.6929Q10.424841,15.6358,10.53033,15.5303L10.530792,15.5299L15.53033,10.53033Q15.58256,10.478100000000001,15.6236,10.41668Q15.66464,10.355260000000001,15.692910000000001,10.28701Q15.72118,10.21877,15.73559,10.14632Q15.75,10.07387,15.75,10Q15.75,9.92613,15.73559,9.85368Q15.72118,9.78123,15.692910000000001,9.71299Q15.66464,9.644739999999999,15.6236,9.58332Q15.58256,9.521899999999999,15.53033,9.46967L10.530484,4.469824Z" fill-rule="evenodd" fill="#C0C4CC" fill-opacity="1"/></g></g></svg>