<svg xmlns="http://www.w3.org/2000/svg" xmlns:xlink="http://www.w3.org/1999/xlink" fill="none" version="1.1" width="20" height="20" viewBox="0 0 20 20"><defs><clipPath id="master_svg0_4164_75785"><rect x="0" y="0" width="20" height="20" rx="0"/></clipPath></defs><g clip-path="url(#master_svg0_4164_75785)"><g><path d="M4.8544921875,9.3134765625L14.8544921875,9.3134765625Q14.9036921875,9.3134765625,14.9519921875,9.3230835625Q15.0002921875,9.332691562499999,15.0457921875,9.3515365625Q15.0912921875,9.3703825625,15.1322921875,9.3977415625Q15.1731921875,9.4251015625,15.2080921875,9.4599235625Q15.2428921875,9.4947455625,15.2701921875,9.5356915625Q15.2975921875,9.5766375625,15.3163921875,9.6221345625Q15.3352921875,9.6676315625,15.3448921875,9.7159314625Q15.3544921875,9.7642308625,15.3544921875,9.8134765625Q15.3544921875,9.8627222625,15.3448921875,9.9110216625Q15.3352921875,9.9593215625,15.3163921875,10.0048185625Q15.2975921875,10.0503155625,15.2701921875,10.0912615625Q15.2428921875,10.1322075625,15.2080921875,10.1670295625Q15.1731921875,10.2018515625,15.1322921875,10.2292115625Q15.0912921875,10.2565705625,15.0457921875,10.2754165625Q15.0002921875,10.294261562500001,14.9519921875,10.3038695625Q14.9036921875,10.3134765625,14.8544921875,10.3134765625L4.8544921875,10.3134765625Q4.8052464875,10.3134765625,4.7569470875,10.3038695625Q4.7086471875,10.294261562500001,4.6631501875,10.2754165625Q4.6176531875,10.2565705625,4.5767071875,10.2292115625Q4.5357611875,10.2018515625,4.5009391875,10.1670295625Q4.4661171875,10.1322075625,4.4387571875,10.0912615625Q4.4113981875,10.0503155625,4.3925521875,10.0048185625Q4.3737071875,9.9593215625,4.3640991875,9.9110216625Q4.3544921875,9.8627222625,4.3544921875,9.8134765625Q4.3544921875,9.7642308625,4.3640991875,9.7159314625Q4.3737071875,9.6676315625,4.3925521875,9.6221345625Q4.4113981875,9.5766375625,4.4387571875,9.5356915625Q4.4661171875,9.4947455625,4.5009391875,9.4599235625Q4.5357611875,9.4251015625,4.5767071875,9.3977415625Q4.6176531875,9.3703825625,4.6631501875,9.3515365625Q4.7086471875,9.332691562499999,4.7569470875,9.3230835625Q4.8052464875,9.3134765625,4.8544921875,9.3134765625Z" fill-rule="evenodd" fill="#949E9C" fill-opacity="1"/></g><g><path d="M9.5009391875,5.164099875Q9.4306121875,5.093773875,9.3925521875,5.001888875Q9.3544921875,4.910003075,9.3544921875,4.810546875Q9.3544921875,4.761301175,9.3640991875,4.713001775Q9.373707187499999,4.664701875,9.3925521875,4.619204875Q9.4113981875,4.573707875,9.4387571875,4.532761875Q9.4661171875,4.491815875,9.5009391875,4.456993875Q9.5357611875,4.422171875,9.5767071875,4.394811875Q9.6176531875,4.367452875,9.6631501875,4.348606875Q9.7086471875,4.329761875,9.7569470875,4.320153875Q9.8052464875,4.310546875,9.8544921875,4.310546875Q9.9539483875,4.310546875,10.0458341875,4.348606875Q10.1377191875,4.386666875,10.2080451875,4.456993875L15.2080421875,9.456996875Q15.2428621875,9.491816875,15.2702221875,9.532756875Q15.2975821875,9.573706875,15.3164321875,9.619206875Q15.3352721875,9.664696875,15.3448821875,9.712996875Q15.3544921875,9.761296875,15.3544921875,9.810546875Q15.3544921875,9.859786875000001,15.3448821875,9.908096875Q15.3352721875,9.956386875,15.3164321875,10.001886875Q15.2975821875,10.047386875,15.2702221875,10.088326875Q15.2428621875,10.129276875,15.2080421875,10.164096875L10.2080451875,15.164146875Q10.1377191875,15.234446875,10.0458341875,15.272446875Q9.9539482875,15.310546875,9.8544921875,15.310546875Q9.8052464875,15.310546875,9.7569470875,15.300946875Q9.7086471875,15.291346875,9.6631501875,15.272446875Q9.6176531875,15.253646875,9.5767071875,15.226246875Q9.5357611875,15.198946875,9.5009391875,15.164146875Q9.4661171875,15.129246875,9.4387571875,15.088346875Q9.4113981875,15.047346875,9.3925521875,15.001846875Q9.373707187499999,14.956346875,9.3640991875,14.908046875Q9.3544921875,14.859746875,9.3544921875,14.810546875Q9.3544921875,14.711086875,9.3925521875,14.619206875Q9.4306131875,14.527316875,9.5009391875,14.456996875L14.1473821875,9.810546875L9.5009391875,5.164099875L9.5009391875,5.164099875Z" fill-rule="evenodd" fill="#949E9C" fill-opacity="1"/></g></g></svg>