<svg xmlns="http://www.w3.org/2000/svg" xmlns:xlink="http://www.w3.org/1999/xlink" fill="none" version="1.1" width="16" height="16" viewBox="0 0 16 16"><defs><clipPath id="master_svg0_621_25432"><rect x="0" y="0" width="16" height="16" rx="0"/></clipPath></defs><g clip-path="url(#master_svg0_621_25432)"><g transform="matrix(1,-1.3409002974640316e-7,1.3409002974640316e-7,1,-8.045156256741848e-7,5.364255928341777e-7)"><path d="M4.5309722812499995,5.46964089453125L8.00048828125,8.93915689453125L11.47015828125,5.46948689453125Q11.57564828125,5.36399789453125,11.71347828125,5.30690689453125Q11.851308281249999,5.24981689453125,12.00048828125,5.24981689453125Q12.07435828125,5.24981689453125,12.14680828125,5.26422789453125Q12.21925828125,5.27863889453125,12.28749828125,5.30690689453125Q12.35574828125,5.33517589453125,12.41716828125,5.37621489453125Q12.47858828125,5.41725389453125,12.53081828125,5.46948689453125Q12.58304828125,5.52171989453125,12.62408828125,5.58313889453125Q12.66512828125,5.64455889453125,12.69339828125,5.71280389453125Q12.72166828125,5.78104989453125,12.73607828125,5.85349889453125Q12.75048828125,5.92594839453125,12.75048828125,5.99981689453125Q12.75048828125,6.14900089453125,12.69339828125,6.28682989453125Q12.63630828125,6.42465789453125,12.53081828125,6.53014689453125L12.53035828125,6.53060889453125L8.53081828125,10.53014689453125Q8.478588281250001,10.58237689453125,8.41716828125,10.62341689453125Q8.355748281250001,10.66445689453125,8.28749828125,10.692726894531251Q8.21925828125,10.72099689453125,8.14680828125,10.73540689453125Q8.07435828125,10.74981689453125,8.00048828125,10.74981689453125Q7.926618281250001,10.74981689453125,7.854168281250001,10.73540689453125Q7.78171828125,10.72099689453125,7.71347828125,10.692726894531251Q7.6452282812500005,10.66445689453125,7.5838082812500005,10.62341689453125Q7.5223882812500005,10.58237689453125,7.47015828125,10.53014689453125L3.47031228125,6.5303008945312495L3.47015828125,6.53014689453125Q3.36466928125,6.42465789453125,3.30757828125,6.28682989453125Q3.25048828125,6.14900089453125,3.25048828125,5.99981689453125Q3.25048828125,5.92594839453125,3.26489928125,5.85349889453125Q3.27931028125,5.78104989453125,3.30757828125,5.71280389453125Q3.33584728125,5.64455889453125,3.37688628125,5.58313889453125Q3.41792528125,5.52171989453125,3.47015828125,5.46948689453125Q3.52239128125,5.41725389453125,3.58381028125,5.37621489453125Q3.64523028125,5.33517589453125,3.71347528125,5.30690689453125Q3.78172128125,5.27863889453125,3.85417028125,5.26422789453125Q3.92661978125,5.24981689453125,4.00048828125,5.24981689453125Q4.14967228125,5.24981689453125,4.28750128125,5.30690689453125Q4.42532928125,5.36399789453125,4.53081828125,5.46948689453125L4.5309722812499995,5.46964089453125Z" fill-rule="evenodd" fill="#2D2E33" fill-opacity="1"/></g></g></svg>