<svg xmlns="http://www.w3.org/2000/svg" xmlns:xlink="http://www.w3.org/1999/xlink" fill="none" version="1.1" width="24" height="24" viewBox="0 0 24 24"><g><g><g><rect x="0" y="0" width="24" height="24" rx="0" fill="#FFFFFF" fill-opacity="0.009999999776482582"/></g><g><path d="M2.8994550704956055,11L20.899455070495605,11Q20.997955070495607,11,21.094555070495606,11.019214999999999Q21.191155070495604,11.03843,21.282155070495605,11.076121Q21.373155070495606,11.113812,21.455055070495604,11.16853Q21.536955070495605,11.223249,21.606555070495606,11.292893Q21.676155070495607,11.362537,21.730955070495604,11.44443Q21.785655070495604,11.526322,21.823355070495605,11.617317Q21.861055070495606,11.7083108,21.880255070495604,11.8049097Q21.899455070495605,11.901509,21.899455070495605,12Q21.899455070495605,12.098491,21.880255070495604,12.19509Q21.861055070495606,12.291689,21.823355070495605,12.382683Q21.785655070495604,12.473678,21.730955070495604,12.55557Q21.676155070495607,12.637463,21.606555070495606,12.707107Q21.536955070495605,12.77675,21.455055070495604,12.83147Q21.373155070495606,12.88619,21.282155070495605,12.92388Q21.191155070495604,12.96157,21.094555070495606,12.98079Q20.997955070495607,13,20.899455070495605,13L2.8994550704956055,13Q2.8009636704956056,13,2.7043650704956055,12.98079Q2.6077660704956056,12.96157,2.5167720704956054,12.92388Q2.4257770704956054,12.88619,2.3438850704956056,12.83147Q2.2619920704956056,12.77675,2.1923480704956053,12.707107Q2.1227040704956055,12.637463,2.0679850704956055,12.55557Q2.0132670704956057,12.473678,1.9755760704956056,12.382683Q1.9378850704956054,12.291689,1.9186700704956055,12.19509Q1.8994550704956055,12.098491,1.8994550704956055,12Q1.8994550704956055,11.901509,1.9186700704956055,11.8049097Q1.9378850704956054,11.7083108,1.9755760704956056,11.617317Q2.0132670704956057,11.526322,2.0679850704956055,11.44443Q2.1227040704956055,11.362537,2.1923480704956053,11.292893Q2.2619920704956056,11.223249,2.3438850704956056,11.16853Q2.4257770704956054,11.113812,2.5167720704956054,11.076121Q2.6077660704956056,11.03843,2.7043650704956055,11.019214999999999Q2.8009636704956056,11,2.8994550704956055,11Z" fill-rule="evenodd" fill="#2D2E33" fill-opacity="1"/></g><g><path d="M9.606505016174317,6.707106Q9.747155016174316,6.566454,9.823275016174318,6.382683Q9.899395016174317,6.198912,9.899405016174317,6Q9.899395016174317,5.9015086,9.880185016174316,5.80491Q9.860975016174317,5.708311,9.823275016174318,5.617317Q9.785585016174316,5.526322,9.730865016174317,5.44443Q9.676155016174317,5.362537,9.606505016174317,5.292893Q9.536865016174318,5.223249,9.454965016174317,5.16853Q9.373075016174315,5.113812,9.282085016174317,5.076121Q9.191085016174316,5.03843,9.094485016174318,5.019215Q8.997895016174317,5,8.899405016174317,5Q8.700485016174316,5,8.516715016174317,5.076121Q8.332945016174317,5.152241,8.192295016174317,5.292894L8.192055016174315,5.293131L2.1923070161743166,11.29289Q2.1226640161743164,11.36254,2.0679450161743165,11.44443Q2.0132260161743165,11.52632,1.9755350161743164,11.61732Q1.9378440161743165,11.70831,1.9186300161743164,11.80491Q1.8994150161743164,11.90151,1.8994150161743164,12Q1.8994150161743164,12.09849,1.9186300161743164,12.19509Q1.9378440161743165,12.29169,1.9755350161743164,12.38268Q2.0132260161743165,12.47368,2.0679450161743165,12.55557Q2.1226640161743164,12.63746,2.1923070161743166,12.70711L8.191325016174316,18.7061L8.192295016174317,18.7071Q8.332945016174317,18.8478,8.516715016174317,18.9239Q8.700485016174316,19,8.899405016174317,19Q8.997895016174317,19,9.094495016174317,18.980800000000002Q9.191085016174316,18.9616,9.282085016174317,18.9239Q9.373075016174315,18.886200000000002,9.454975016174316,18.8315Q9.536865016174318,18.776699999999998,9.606505016174317,18.7071Q9.676155016174317,18.6375,9.730865016174317,18.5556Q9.785585016174316,18.4737,9.823275016174318,18.3827Q9.860975016174317,18.2917,9.880185016174316,18.1951Q9.899395016174317,18.0985,9.899405016174317,18Q9.899395016174317,17.801099999999998,9.823275016174318,17.6173Q9.747155016174316,17.433500000000002,9.606505016174317,17.2929L4.313625016174316,12L9.605885016174316,6.707733L9.606505016174317,6.707106L9.606505016174317,6.707106Z" fill-rule="evenodd" fill="#2D2E33" fill-opacity="1"/></g></g></g></svg>