<svg xmlns="http://www.w3.org/2000/svg" xmlns:xlink="http://www.w3.org/1999/xlink" fill="none" version="1.1" width="24" height="24" viewBox="0 0 24 24"><defs><clipPath id="master_svg0_448_08023/448_07760"><rect x="0" y="0" width="24" height="24" rx="0"/></clipPath></defs><g clip-path="url(#master_svg0_448_08023/448_07760)"><g></g><g><path d="M19,19.75L2,19.75Q1.9261314999999999,19.75,1.853682,19.7356Q1.781233,19.7212,1.712987,19.6929Q1.644742,19.6646,1.583322,19.6236Q1.521903,19.5826,1.46967,19.5303Q1.417437,19.4781,1.376398,19.4167Q1.335359,19.3553,1.30709,19.287Q1.278822,19.2188,1.264411,19.1463Q1.25,19.0739,1.25,19Q1.25,18.9261,1.264411,18.8537Q1.278822,18.7812,1.30709,18.713Q1.335359,18.6447,1.376398,18.5833Q1.417437,18.5219,1.46967,18.4697Q1.521903,18.4174,1.583322,18.3764Q1.644742,18.3354,1.712987,18.3071Q1.781233,18.2788,1.853682,18.2644Q1.9261314999999999,18.25,2,18.25L4.25,18.25L4.25,9Q4.25,5.78984,6.51992,3.51992Q8.78984,1.25,12,1.25Q15.2102,1.25,17.4801,3.51992Q19.75,5.78984,19.75,9L19.75,18.25L22,18.25Q22.0739,18.25,22.1463,18.2644Q22.2188,18.2788,22.287,18.3071Q22.3553,18.3354,22.4167,18.3764Q22.4781,18.4174,22.5303,18.4697Q22.5826,18.5219,22.6236,18.5833Q22.6646,18.6447,22.6929,18.713Q22.7212,18.7812,22.7356,18.8537Q22.75,18.9261,22.75,19Q22.75,19.0739,22.7356,19.1463Q22.7212,19.2188,22.6929,19.287Q22.6646,19.3553,22.6236,19.4167Q22.5826,19.4781,22.5303,19.5303Q22.4781,19.5826,22.4167,19.6236Q22.3553,19.6646,22.287,19.6929Q22.2188,19.7212,22.1463,19.7356Q22.0739,19.75,22,19.75L19,19.75ZM18.25,18.25L18.25,9Q18.25,6.41116,16.4194,4.580579999999999Q14.5888,2.75,12,2.75Q9.411159999999999,2.75,7.58058,4.580579999999999Q5.75,6.41116,5.75,9L5.75,18.25L18.25,18.25Z" fill-rule="evenodd" fill="#2D2E33" fill-opacity="1"/></g><g><path d="M8.75,19L8.75,19.5Q8.75,20.84618,9.701907,21.798090000000002Q10.65381,22.75,12,22.75Q13.34618,22.75,14.29809,21.798090000000002Q15.25,20.84618,15.25,19.5L15.25,19Q15.25,18.9261315,15.23559,18.853682Q15.22118,18.781233,15.192910000000001,18.712987Q15.16464,18.644742,15.1236,18.583322Q15.08256,18.521903000000002,15.03033,18.46967Q14.978100000000001,18.417437,14.91668,18.376398000000002Q14.855260000000001,18.335359,14.78701,18.30709Q14.71877,18.278822,14.64632,18.264411Q14.57387,18.25,14.5,18.25L9.5,18.25Q9.4261315,18.25,9.353682,18.264411Q9.281233,18.278822,9.212987,18.30709Q9.144742,18.335359,9.083322,18.376398000000002Q9.021903,18.417437,8.96967,18.46967Q8.917437,18.521903000000002,8.876398,18.583322Q8.835359,18.644742,8.80709,18.712987Q8.778822,18.781233,8.764410999999999,18.853682Q8.75,18.9261315,8.75,19ZM10.266065,19.75Q10.340743,20.31561,10.76257,20.73743Q11.27513,21.25,12,21.25Q12.72486,21.25,13.23743,20.73743Q13.65926,20.31561,13.73394,19.75L10.266065,19.75Z" fill-rule="evenodd" fill="#2D2E33" fill-opacity="1"/></g></g></svg>