<svg xmlns="http://www.w3.org/2000/svg" xmlns:xlink="http://www.w3.org/1999/xlink" fill="none" version="1.1" width="16" height="16" viewBox="0 0 16 16"><defs><clipPath id="master_svg0_3868_30142"><rect x="0" y="0" width="16" height="16" rx="0"/></clipPath></defs><g clip-path="url(#master_svg0_3868_30142)"><g><g><path d="M7.99443,13.9999L3.33568,13.9999C2.928766,13.9999,2.582417,13.8532,2.311918,13.5245C2.0910641,13.2565,2.00036432,12.9409,2.00138353,12.5879C2.0041497,11.6338,2.00225701,10.67971,2.00225701,9.72578C2.00225701,8.84623,2.00749789,7.96667,2.0000733084,7.08712C1.99628793,6.63963,2.138817,6.26929,2.441927,5.95697C2.801816,5.58663,3.1519500000000003,5.20565,3.50805,4.8305299999999995C3.5544700000000002,4.786,3.5799399999999997,4.7219999999999995,3.5776399999999997,4.6556999999999995C3.5750200000000003,3.89697,3.5776399999999997,3.13839,3.57575,2.37981C3.5750200000000003,1.962411,3.71901,1.613367,4.01251,1.3373110000000001C4.25666,1.10801,4.54798,1.000920628,4.87147,1.00076617Q7.99764,0.99891455,11.1238,1.00153752C11.72333,1.00246333,12.1944,1.377585,12.3683,1.986637C12.4061,2.1193400000000002,12.4147,2.26516,12.4156,2.40512C12.42,3.15613,12.4185,3.90699,12.4156,4.65801C12.4133,4.721909999999999,12.4376,4.783659999999999,12.4821,4.82682C12.8694,5.23311,13.2577,5.63848,13.6401,6.05002C13.8927,6.32191,13.9993,6.65969,13.9994,7.03759Q14.0006,9.01272,13.9994,10.98786Q13.9994,11.794,13.9994,12.6002C13.9994,12.8894,13.9343,13.1602,13.7759,13.3995Q13.413,13.9479,12.7816,13.9966C12.7285,14.0007,12.6749,13.9999,12.6214,13.9999L7.99443,13.9999ZM9.93859,9.58582C9.95518,9.57039,9.96246,9.56345,9.96931,9.5562Q10.94619,8.52233,11.92176,7.48554C11.94635,7.45551,11.96021,7.41728,11.96092,7.37753Q11.96354,4.8701799999999995,11.9599,2.36253C11.9601,2.2523,11.94151,2.1429400000000003,11.90502,2.03972C11.77253,1.680336,11.48282,1.4842119999999999,11.10255,1.4842119999999999Q7.99836,1.4842119999999999,4.89374,1.485292C4.8091,1.486321,4.7247699999999995,1.49635,4.6420200000000005,1.515228C4.33935,1.580654,4.06099,1.900997,4.0395900000000005,2.22612C4.02314,2.47703,4.02503,2.7296300000000002,4.02503,2.98146Q4.02314,5.16476,4.026479999999999,7.34836C4.026479999999999,7.39682,4.0441,7.45854,4.0751100000000005,7.49156Q5.03292,8.51416,5.99685,9.53089C6.0133,9.54833,6.03193,9.56329,6.04897,9.57888C6.0591,9.57229,6.06882,9.56502,6.07808,9.55712C6.17577,9.46084,6.27273,9.36378,6.37071,9.2678C6.99862,8.653030000000001,7.7315,8.44487,8.56236,8.64547C8.96724,8.74361,9.3165,8.961649999999999,9.61742,9.26548C9.72239,9.37149,9.828669999999999,9.47611,9.93859,9.58582ZM13.092,13.4012C13.0594,13.3704,13.0317,13.3463,13.0055,13.3202Q12.619,12.9344,12.2329,12.5487Q10.77149,11.0835,9.30907,9.62131C8.78496,9.0996,8.16564,8.94143,7.47236,9.13339C7.17245,9.21641,6.91345,9.38723,6.68765,9.6136Q4.9808,11.3246,3.2732200000000002,13.0343L2.902997,13.4046C2.927447,13.4212,2.952718,13.4363,2.978702,13.45C3.09444,13.5021,3.21601,13.516,3.3412100000000002,13.516Q7.99618,13.5146,12.6511,13.5151C12.6972,13.5173,12.7433,13.5159,12.7892,13.5108C12.8911,13.4946,12.9939,13.4775,13.0923,13.4012L13.092,13.4012ZM13.4171,13.0721C13.4328,13.0496,13.4474,13.0263,13.4607,13.0022C13.5206,12.8787,13.5424,12.744,13.5426,12.607Q13.5442,9.81543,13.5404,7.02385C13.5404,6.90349,13.5063,6.78097,13.474,6.66385C13.4482,6.57019,13.4312,6.57127,13.3647,6.6421L10.34463,9.84321C10.27183,9.92036,10.27183,9.92036,10.34783,9.99751Q11.56042,11.2122,12.7733,12.4265C12.9845,12.6373,13.1953,12.8493,13.4181,13.0721L13.4171,13.0721ZM2.5546100000000003,6.58176C2.484246,6.71233,2.447917,6.86038,2.449351,7.01074Q2.448478,9.81373,2.452117,12.617C2.452117,12.7394,2.488951,12.8639,2.52491,12.9827C2.554901,13.0829,2.5662570000000002,13.0798,2.640215,13.0057L5.65166,9.9898C5.71907,9.92237,5.7195,9.91774,5.6564700000000006,9.85092Q4.14077,8.24427,2.624491,6.63947C2.602321,6.61876,2.578984,6.59948,2.5546100000000003,6.58176ZM12.4253,6.94747C12.4533,6.92216,12.4703,6.90843,12.4853,6.89269C12.6842,6.68268,12.8818,6.47112,13.0822,6.26312C13.1276,6.21605,13.1275,6.18596,13.0822,6.1389C12.8853,5.93429,12.6913,5.72628,12.496,5.51997C12.4778,5.50068,12.4566,5.48448,12.4252,5.4564L12.4253,6.94747ZM3.56818,6.94222L3.56818,5.45763C3.53819,5.48309,3.51854,5.49698,3.5020800000000003,5.51426C3.30321,5.72427,3.10565,5.93552,2.905182,6.14415C2.864709,6.18643,2.864418,6.21451,2.905182,6.2571C3.10187,6.46217,3.29579,6.67003,3.4911700000000003,6.87634C3.51096,6.89717,3.5343999999999998,6.91383,3.5676,6.94222L3.56818,6.94222Z" fill="#99A0AF" fill-opacity="1"/><path d="M7.99443,14.1999L12.6214,14.1999L12.6428,14.2Q12.7433,14.2002,12.7969,14.196Q13.5258,14.1399,13.9427,13.5099Q14.1994,13.1221,14.1994,12.6002L14.1994,10.98792L14.2,9.01267L14.1994,7.03751Q14.1992,6.35793,13.7866,5.91387Q13.4567,5.55889,12.7894,4.85927Q12.6818,4.74648,12.6269,4.688829999999999L12.6242,4.68597L12.6213,4.68322Q12.615,4.67711,12.6155,4.66528L12.6156,4.66189L12.6183,3.51905L12.6156,2.40387Q12.6138,2.1183,12.5606,1.931747Q12.2385,0.803259,11.12389,0.801538L7.45867,0.8L4.871370000000001,0.800766Q4.29136,0.801043,3.87548,1.191626Q3.3745000000000003,1.662833,3.37575,2.38026L3.37598,2.48467L3.37765,4.6592400000000005L3.3777600000000003,4.66262Q3.37829,4.67786,3.3696,4.6861999999999995L3.36622,4.689439999999999L3.363,4.69283Q3.23175,4.8311,2.97125,5.10879Q2.524919,5.58459,2.298406,5.81768Q1.793727,6.33769,1.800075,7.08782L1.804048,8.22818L1.803306,8.86618L1.802257,9.72572L1.801384,12.5873Q1.799566,13.2172,2.157492,13.6516Q2.608767,14.1999,3.33568,14.1999L7.99443,14.1999ZM12.6435,13.8L12.6214,13.7999L3.33568,13.7999Q2.7976140000000003,13.7999,2.466345,13.3974Q2.199981,13.0742,2.201383,12.5885L2.202257,9.72584L2.203306,8.86667L2.2040480000000002,8.22865L2.200072,7.08642Q2.195101,6.49847,2.585448,6.09626Q2.814234,5.86083,3.2629799999999998,5.38246Q3.51987,5.10861,3.65029,4.97119Q3.7828299999999997,4.841340000000001,3.77764,4.652559999999999L3.7759799999999997,2.48437L3.77575,2.3793699999999998Q3.7748,1.835455,4.14953,1.482996Q4.44982,1.200968,4.871560000000001,1.200766L7.45879,1.2L11.12372,1.201538Q11.93657,1.202793,12.176,2.04153Q12.2142,2.17545,12.2156,2.40637L12.2183,3.52003L12.2156,4.65454Q12.2102,4.83947,12.3397,4.9673Q12.3938,5.02403,12.5,5.13535Q13.1655,5.83313,13.4936,6.18617Q13.7992,6.51513,13.7994,7.03766L13.8,9.01278L13.7994,10.9878L13.7994,12.6002Q13.7994,12.8685,13.7145,13.0858L13.6646,13.0359Q13.7423,12.8457,13.7426,12.6072L13.7428,9.8533L13.7404,7.02368Q13.7404,6.87732,13.6675,6.61331L13.6668,6.61065Q13.6138,6.41794,13.4669,6.39392Q13.3425,6.37356,13.2189,6.50516L10.19915,9.70596Q9.99405,9.92335,10.20534,10.13786L12.6318,12.5678L13.1575,13.0941L13.1182,13.1501L12.3742,12.4072L9.45058,9.47998Q8.58456,8.61792,7.41899,8.94064Q6.94577,9.07164,6.54605,9.47235L3.1316699999999997,12.893L2.590323,13.4345L2.790898,13.5703Q2.836806,13.6013,2.885582,13.627L2.890976,13.6298L2.896533,13.6323Q3.08228,13.716,3.3412100000000002,13.716L12.6466,13.7151Q12.7291,13.7187,12.8112,13.7096L12.8159,13.7091L12.8206,13.7083Q13.0746,13.6679,13.2147,13.5593L13.5856,13.2721L13.6202,13.2721Q13.6148,13.2807,13.6092,13.2892Q13.3002,13.756,12.7662,13.7971Q12.728,13.8001,12.6435,13.8ZM13.3372,12.7081Q13.3425,12.6597,13.3426,12.6068L13.3428,9.85326L13.3404,7.02403Q13.3404,6.99853,13.3359,6.96398L10.55002,9.91695L12.9148,12.2852L13.3372,12.7081ZM12.7179,13.3156L12.0916,12.6902L9.167570000000001,9.76265Q8.467179999999999,9.06547,7.52573,9.32614Q7.15433,9.42895,6.82925,9.75484L3.41477,13.1756L3.2762000000000002,13.3142Q3.30746,13.316,3.3412100000000002,13.316L12.6559,13.3151L12.6607,13.3153Q12.6893,13.3167,12.7179,13.3156ZM8.515419999999999,8.83989Q9.04045,8.96715,9.47533,9.40622L9.47864,9.40957L9.933720000000001,9.86343L10.07477,9.7323Q10.10208,9.7069,10.11479,9.69343L12.0721,7.61765L12.0765,7.61224Q12.1585,7.51204,12.1609,7.38112L12.1599,2.36249Q12.1603,2.16169,12.0936,1.973063Q11.83966,1.2842120000000001,11.10255,1.2842120000000001L4.8937100000000004,1.285292Q4.7427399999999995,1.2871139999999999,4.59754,1.320237Q4.30532,1.38339,4.08325,1.643395Q3.8603300000000003,1.9043860000000001,3.84002,2.21299Q3.8246700000000002,2.44709,3.825,2.91094Q3.82503,2.958,3.82503,2.98146L3.82648,7.34843Q3.82648,7.51896,3.92931,7.62847L5.8512900000000005,9.66805Q5.86911,9.68694,5.9005600000000005,9.71454Q5.9101300000000005,9.72293,5.913959999999999,9.72644L6.02822,9.83098L6.15803,9.74653Q6.18413,9.72955,6.20788,9.70928L6.21352,9.70447L6.33812,9.58114L6.51127,9.41008Q7.37491,8.564530000000001,8.515419999999999,8.83989ZM9.76284,9.12809L9.75952,9.12474Q9.244869999999999,8.60511,8.609300000000001,8.45106Q7.2534,8.12369,6.23015,9.12552L6.05672,9.29686L6.05382,9.29973L4.22091,7.35466L4.2264800000000005,7.3483L4.22503,2.98146L4.225,2.91066Q4.22468,2.4600400000000002,4.23916,2.23926Q4.26802,1.800691,4.68651,1.710218Q4.790179999999999,1.686566,4.89377,1.685292L11.10255,1.684212Q11.5608,1.684212,11.71645,2.1063799999999997Q11.76014,2.22996,11.75991,2.36257L11.76095,7.36456L9.93561,9.3004L9.76284,9.12809ZM12.2252,5.00958L12.2252,5.45642L12.2254,7.39827L12.5596,7.09574Q12.5681,7.08805,12.5826,7.07525Q12.6142,7.04737,12.6301,7.03067Q12.6916,6.96579,12.8134,6.83656Q13.0879,6.54548,13.2262,6.40191Q13.4198,6.20133,13.2264,6.00024Q13.0947,5.86348,12.8336,5.58636Q12.7056,5.45047,12.6412,5.38245Q12.6224,5.36257,12.585,5.33044Q12.568,5.31575,12.5584,5.30723L12.2252,5.00958ZM3.4937300000000002,7.14222L3.76818,7.14222L3.76818,5.02549L3.43874,5.30517Q3.43002,5.31257,3.4143499999999998,5.3253Q3.3768000000000002,5.3558,3.35722,5.37637Q3.2941700000000003,5.44295,3.169,5.57565Q2.8976509999999998,5.86333,2.760971,6.00557Q2.574268,6.20061,2.760698,6.39539L3.0537,6.70405L3.3456799999999998,7.01357Q3.36787,7.03692,3.40999,7.0713Q3.42788,7.0859,3.4375999999999998,7.09421L3.4937300000000002,7.14222ZM12.6252,5.94843L12.6253,6.45312Q12.767,6.30315,12.8647,6.20096Q12.7675,6.09912,12.6252,5.94843ZM3.3681799999999997,6.45449L3.3681799999999997,5.94736Q3.22592,6.09791,3.12764,6.20095L3.3438,6.42865L3.3681799999999997,6.45449ZM2.76562,6.49762L2.761047,6.49335Q2.718772,6.45384,2.6722200000000003,6.42L2.487118,6.28542L2.378549,6.48688Q2.24668,6.73158,2.24936,7.01264L2.252117,12.6171Q2.252117,12.7718,2.333485,13.0407Q2.391558,13.2346,2.535024,13.2571Q2.653258,13.2757,2.7817410000000002,13.1471L5.79319,10.13111Q6.0003,9.92392,5.80194,9.71367L2.76562,6.49762ZM2.650585,6.95845L5.4427900000000005,9.91593L2.660656,12.7022Q2.652117,12.6518,2.652117,12.6169L2.649342,7.00883Q2.649099,6.98339,2.650585,6.95845Z" fill-rule="evenodd" fill="#99A0AF" fill-opacity="1"/></g><g><path d="M7.9941098828125,2.08740375648C9.4965598828125,2.08586058375,10.7213698828125,3.3797323437499998,10.723119882812501,4.97033234375C10.7248698828125,6.56093234375,9.501799882812499,7.85850234375,7.999639882812501,7.85850234375C6.4939898828125,7.85943234375,5.2697564018125,6.56232234375,5.2706298828125,4.96832234375C5.2715033638125,3.38359234375,6.4947198828125,2.08879246375,7.9941098828125,2.08740375648ZM7.994979882812499,7.37599234375C9.2470198828125,7.37599234375,10.2645198828125,6.30324234375,10.266999882812499,4.98098234375C10.269469882812501,3.65470234375,9.2506598828125,2.56807134375,8.0022598828125,2.56575734375C6.7538598828125,2.5634423437500002,5.7280608828125,3.64591234375,5.7270418828125,4.96894234375C5.7259958828125,6.29751234375,6.7415098828125,7.37530234375,7.994979882812499,7.37599234375Z" fill="#99A0AF" fill-opacity="1"/><path d="M5.9614118828125005,2.83107434375Q5.1213178828125,3.71992234375,5.1206298828125,4.96824234375Q5.1199418828125,6.22351234375,5.9611178828125,7.11448234375Q6.8058598828125,8.00924234375,7.999639882812501,8.00850234375Q9.1908998828125,8.008512343749999,10.0344798828125,7.11380234375Q10.8744998828125,6.22287234375,10.8731198828125,4.97017234375Q10.8717398828125,3.71758234375,10.0303098828125,2.8286953437499998Q9.1854398828125,1.93618034375,7.9939698828125,1.93740334375Q6.8050298828125,1.93850434375,5.9614118828125005,2.83107434375ZM6.1792588828125,6.90854234375Q5.4200068828125,6.10433234375,5.4206288828125,4.96841234375Q5.4212518828125,3.83932234375,6.1794388828125,3.03714334375Q6.9343898828125,2.23838534375,7.9942498828125,2.23740334375Q9.0564598828125,2.23631234375,9.8124398828125,3.03493234375Q10.5718798828125,3.83719234375,10.573119882812499,4.97049234375Q10.5743598828125,6.10388234375,9.8161998828125,6.90799234375Q9.0614398828125,7.70851234375,7.999639882812501,7.70850234375Q6.9351298828125,7.70916234375,6.1792588828125,6.90854234375ZM6.2879698828125,3.16720234375Q5.5778518828125,3.91704234375,5.5770418828125,4.96883234375Q5.5762108828125,6.02485234375,6.2813898828125,6.77329234375Q6.9900798828125,7.52544234375,7.994899882812501,7.52599234375Q8.9984498828125,7.52599234375,9.7083998828125,6.77756234375Q10.415029882812501,6.03265234375,10.416999882812501,4.98126234375Q10.4189598828125,3.92704234375,9.713129882812499,3.17428234375Q9.0036298828125,2.41761434375,8.0025398828125,2.41575734375Q7.0013698828125,2.41390134375,6.2879698828125,3.16720234375ZM6.4997398828125,6.56756234375Q5.8763038828125005,5.90588234375,5.8770418828125,4.96906234375Q5.8777598828125,4.03665234375,6.5057898828125005,3.37348234375Q7.1302198828125,2.71414034375,8.001979882812499,2.71575734375Q8.8734498828125,2.71737234375,9.4942798828125,3.37948234375Q10.1187398828125,4.04546234375,10.1169998828125,4.98070234375Q10.115249882812499,5.91275234375,9.4907498828125,6.57110234375Q8.8695198828125,7.22599234375,7.9950598828125,7.22599234375Q7.1196698828125005,7.22551234375,6.4997398828125,6.56756234375Z" fill-rule="evenodd" fill="#99A0AF" fill-opacity="1"/></g><g><path d="M7.974874,5.346159999999999C7.804165,5.31196,7.623301,5.30809,7.465024,5.2366399999999995C7.178058,5.1069700000000005,7.0273091,4.83847,7.0038471,4.47714C6.9837118,4.15429,7.0388643,3.863391,7.258947,3.639673C7.359797,3.53789,7.473954,3.4601290000000002,7.607018,3.441808C7.696838,3.429595,7.731679,3.391731,7.735706,3.284453C7.737121,3.150184,7.818957,3.0352772,7.932152,3.00862269C8.06469,2.9774766,8.17867,3.0312181,8.236979999999999,3.1615C8.25664,3.206821,8.26729,3.256703,8.26814,3.307455C8.26919,3.391731,8.29896,3.425522,8.37074,3.437329C8.72949,3.495752,9.00613,3.87764,8.99773,4.29617C8.99475,4.4519,8.89985,4.5832,8.77607,4.60315C8.62724,4.62696,8.51571,4.5483899999999995,8.47019,4.38757C8.4635,4.36515,8.458120000000001,4.34223,8.45409,4.31897C8.42064,4.10991,8.35971,4.04945,8.17938,4.04884Q8.00429,4.04884,7.829204,4.04884C7.625754,4.04884,7.555369,4.13617,7.552042,4.37454C7.550292,4.50523,7.57813,4.61088,7.690361,4.66116C7.726084,4.6753,7.7636330000000005,4.68218,7.801365,4.68152C7.955967,4.6837599999999995,8.11074,4.68152,8.26534,4.6831499999999995C8.65894,4.68905,8.9853,5.06748,8.9986,5.52489C9.00578,5.766719999999999,8.98897,5.9979700000000005,8.86064,6.20256C8.73948,6.39574,8.57857,6.51828,8.37915,6.559C8.29528,6.5761,8.26919,6.60846,8.26604,6.704750000000001C8.26248,6.8457799999999995,8.1759,6.96541,8.05699,6.99361C7.938385,7.02186,7.818154,6.954549999999999,7.763195,6.82913C7.743288,6.7803,7.732716,6.72703,7.732204,6.673C7.730803,6.60134,7.709268,6.575889999999999,7.646762,6.5649C7.271378,6.49793,6.99526699,6.12133,7.00402129,5.696899999999999C7.00463683,5.53759,7.10687,5.403560000000001,7.24284,5.38382C7.36435,5.36143,7.489011,5.4573,7.531206,5.606310000000001C7.539442,5.63521,7.545705,5.664820000000001,7.54994,5.69486C7.573227,5.87197,7.634157,5.93629,7.787181,5.93914C7.933028,5.94097,8.07887,5.94159,8.2249,5.93914C8.37092,5.9367,8.44498,5.84652,8.44796,5.68061C8.45039,5.62308,8.44869,5.5654,8.44288,5.5082C8.4308,5.411709999999999,8.35534,5.33639,8.26779,5.32336C8.2562,5.321289999999999,8.2445,5.32013,8.23278,5.3199000000000005L7.979251,5.3199000000000005C7.97785,5.32784,7.976274,5.337,7.974874,5.346159999999999Z" fill="#99A0AF" fill-opacity="1"/><path d="M8.02183,5.3698999999999995L8.01639,5.40547L7.965052,5.39518Q7.913544,5.384869999999999,7.8072099999999995,5.3697Q7.560171,5.33445,7.444452,5.28221Q6.99276428,5.078110000000001,6.9539522,4.48038Q6.9186472,3.914297,7.223304,3.604608Q7.407387,3.418821,7.600199,3.392276Q7.681784,3.381182,7.685717,3.283197Q7.687137,3.167247,7.751285,3.0771768Q7.817458,2.9842628,7.920692,2.9599538Q8.17483,2.9002321,8.28261,3.141076Q8.31668,3.219575,8.31814,3.306617Q8.31903,3.378151,8.37886,3.387992Q8.6677,3.435031,8.86233,3.702274Q9.05437,3.965947,9.04772,4.2971699999999995Q9.04519,4.42954,8.97273,4.52985Q8.89733,4.63425,8.78402,4.6525099999999995Q8.50583,4.69703,8.42208,4.40119Q8.41138,4.36537,8.40482,4.3275Q8.382200000000001,4.18615,8.33673,4.14136Q8.29396,4.09923,8.17921,4.09884L7.829204,4.09884Q7.700664,4.09884,7.653835,4.15449Q7.604296,4.21336,7.602037,4.37524Q7.599498,4.56481,7.7098130000000005,4.61508Q7.754007,4.63235,7.800483,4.63153L7.801286,4.6315100000000005L7.8020890000000005,4.63152Q7.884649,4.63272,8.05026,4.6325400000000005Q8.19393,4.63239,8.26587,4.6331500000000005Q8.58306,4.63791,8.81233,4.9019200000000005Q9.03806,5.161849999999999,9.04858,5.523429999999999Q9.062,5.97565,8.902989999999999,6.22913Q8.70594,6.54331,8.38915,6.60799Q8.31877,6.6223399999999994,8.31602,6.70639Q8.31296,6.82728,8.24527,6.9208099999999995Q8.17578,7.01683,8.068529999999999,7.04226Q7.9606390000000005,7.06796,7.8618,7.01263Q7.765351,6.958629999999999,7.717399,6.8492L7.7171389999999995,6.848599999999999L7.716894,6.848Q7.6830739999999995,6.76504,7.682206,6.67347Q7.681192,6.62172,7.638102,6.61415Q7.337384,6.5605,7.141114,6.29465Q6.9471018,6.03185,6.9540318,5.69587Q6.9545482,5.56044,7.0329184,5.4577Q7.113177,5.35248,7.234723,5.33447Q7.347315,5.31412,7.447291,5.39119Q7.543187,5.46511,7.579314,5.59269Q7.592606,5.63933,7.599451,5.6878899999999994Q7.614876,5.80518,7.655867,5.8476099999999995Q7.69432,5.8873999999999995,7.788113,5.88915Q8.03703,5.8922799999999995,8.22406,5.88915Q8.39426,5.8863,8.39796,5.67972L8.39797,5.67911L8.398,5.6785Q8.401489999999999,5.595940000000001,8.39319,5.51384Q8.37746,5.39023,8.26043,5.372809999999999L8.25971,5.37271L8.259,5.37258Q8.24546,5.37016,8.23178,5.36989L8.02183,5.3698999999999995ZM7.9341159999999995,5.28795L7.937302,5.2699L8.23377,5.269909999999999Q8.254950000000001,5.2703299999999995,8.27587,5.2740100000000005Q8.46757,5.3029,8.49249,5.50198L8.492560000000001,5.50256L8.49262,5.50314Q8.50169,5.59238,8.49794,5.682119999999999Q8.49224,5.98468,8.22573,5.98914Q8.03724,5.992290000000001,7.78625,5.989129999999999Q7.537594,5.984500000000001,7.50043,5.70184Q7.494547,5.6601099999999995,7.483098,5.61994Q7.455971,5.52414,7.38624,5.47039Q7.321162,5.42023,7.251901,5.43299L7.250966,5.43316L7.250026,5.4333Q7.168242,5.445180000000001,7.112427,5.51835Q7.0544177,5.594390000000001,7.0540106,5.6979299999999995Q7.047783,5.99986,7.221565,6.235250000000001Q7.39417,6.46905,7.655422,6.5156600000000005Q7.779565,6.53749,7.782202,6.6725200000000005Q7.782885,6.74466,7.809253,6.80966Q7.885536,6.98305,8.04545,6.94496Q8.21095,6.9057200000000005,8.21607,6.703110000000001Q8.2214,6.5401299999999996,8.36915,6.510009999999999Q8.643979999999999,6.4539,8.81828,6.17598Q8.96115,5.94824,8.94862,5.526339999999999Q8.93914,5.20046,8.73683,4.96749Q8.53686,4.73722,8.26482,4.73314Q8.19346,4.7323900000000005,8.050370000000001,4.73254Q7.884747,4.7327200000000005,7.801416,4.73152Q7.734845,4.73254,7.671963,4.70765L7.670931,4.70725L7.669918,4.70679Q7.498616,4.63005,7.502047,4.3738399999999995Q7.504804,4.17629,7.577319,4.09011Q7.654117,3.998838,7.829204,3.998838L8.17955,3.9988390000000003Q8.33508,3.999366,8.4069,4.07011Q8.47576,4.13794,8.50335,4.31044Q8.5089,4.34244,8.5183,4.37395Q8.57783,4.58424,8.76811,4.55378Q8.84052,4.54211,8.89167,4.4713Q8.9458,4.39635,8.94774,4.29517Q8.953710000000001,3.997602,8.7815,3.761145Q8.61106,3.527125,8.36263,3.486666Q8.22008,3.46322,8.21815,3.308293Q8.21702,3.241135,8.19134,3.181924Q8.1173,3.0164766,7.943612,3.0572916Q7.787716,3.0940015,7.785703,3.28498L7.785696,3.285654L7.785671,3.286329Q7.778818,3.468908,7.613838,3.4913410000000002Q7.454582,3.513267,7.294591,3.674738Q7.0212311,3.9526120000000002,7.0537421,4.4739Q7.0886635,5.01171,7.485596,5.19107Q7.588364,5.2374600000000004,7.821334,5.2707Q7.887951,5.2802,7.9341159999999995,5.28795Z" fill-rule="evenodd" fill="#99A0AF" fill-opacity="1"/></g></g></g></svg>