<svg xmlns="http://www.w3.org/2000/svg" xmlns:xlink="http://www.w3.org/1999/xlink" fill="none" version="1.1" width="862" height="190" viewBox="0 0 862 190"><g><path d="M0,6.12903L0,150.075L7.83602,150.075L7.83602,76.6992L108.279,76.6992L108.279,150.075L116.828,150.075L116.828,6.12903L108.279,6.12903L108.279,69.3617L7.83602,69.3617L7.83602,6.12903L0,6.12903ZM133.212,46.0541L125.376,46.0541L169.78,148.348L160.282,170.793C156.72,180.073,152.208,183.31,143.897,183.31C142.235,183.31,140.573,183.31,136.774,182.662L136.774,188.921C140.811,189.784,142.71,190,145.322,190C155.533,190,161.944,184.389,167.405,170.577L217.746,46.0541L210.147,46.0541L173.342,139.284L133.212,46.0541ZM233.655,190L233.655,127.415C240.541,143.816,254.789,152.881,273.785,152.881C302.28,152.881,321.513,131.299,321.513,98.4961C321.513,64.6138,302.755,43.2485,273.785,43.2485C254.789,43.2485,240.541,52.3126,233.655,68.7142L233.655,46.0541L226.532,46.0541L226.532,190L233.655,190ZM274.26,49.9387C297.768,49.9387,313.677,69.3617,313.677,97.8487C313.677,126.336,297.768,146.19,274.26,146.19C249.802,146.19,233.418,126.336,233.418,97.8487C233.418,69.3617,249.802,49.9387,274.26,49.9387ZM424.569,119.861L417.208,119.861C415.071,125.904,414.358,128.494,411.746,131.731C405.335,140.579,392.75,146.19,378.503,146.19C362.593,146.19,350.483,139.069,344.072,126.767C340.51,120.077,338.848,113.387,338.135,99.1436L426.706,99.1436C426.468,83.821,425.044,75.836,420.295,66.5561C412.696,51.2335,398.686,43.2485,380.402,43.2485C349.058,43.2485,330.299,64.8296,330.299,99.3594C330.299,112.955,333.624,125.473,339.085,133.889C346.921,145.759,362.118,152.881,379.452,152.881C403.435,152.881,421.482,139.284,424.569,119.861ZM418.157,92.4534L338.135,92.4534C339.797,65.4771,354.52,49.9387,379.927,49.9387C391.088,49.9387,401.773,54.4707,408.184,62.0241C414.833,69.5775,417.445,77.1309,418.157,92.4534ZM440.241,119.43L432.405,119.43C434.067,140.363,449.501,153.312,475.147,153.312C500.079,153.312,516.938,141.443,516.938,123.53C516.938,114.682,512.902,107.56,505.066,102.597C499.367,99.1436,494.618,97.6329,477.759,93.7483C460.662,89.6479,457.1,88.7847,451.876,85.7633C446.414,82.3103,443.565,77.5625,443.565,71.5198C443.565,59.4344,456.388,49.7229,474.197,49.7229C492.956,49.7229,503.404,57.9237,505.541,74.5411L514.089,74.5411C512.902,66.1245,511.002,61.3766,507.203,56.413C500.317,47.9964,488.444,43.0327,474.197,43.0327C451.639,43.0327,435.017,55.1181,435.017,72.1672C435.017,80.5838,438.816,87.0582,446.177,91.5902C451.639,94.8274,456.388,96.338,474.672,100.438C490.818,104.539,495.33,105.834,500.554,108.855C506.253,112.308,509.103,117.272,509.103,123.53C509.103,137.342,496.043,145.975,476.096,145.975C454.251,145.975,442.14,136.695,440.241,119.43ZM537.131,149.773L568.052,7.63459L610.45,7.63459L612.111,0L520.653,0L518.992,7.63459L561.39,7.63459L530.468,149.773L537.131,149.773ZM583.692,41.5412L560.147,149.773L566.204,149.773L579.588,88.247C584.962,63.5468,599.521,45.8076,614.663,45.8076C616.076,45.8076,616.682,45.8076,618.047,46.0321L619.61,38.8466L615.976,38.8466C603.458,38.8466,593.269,46.7058,585.206,62.4241L589.749,41.5412L583.692,41.5412ZM675.937,150.222L677.402,143.486C675.035,144.159,674.074,143.935,672.661,143.935C667.613,143.935,666.015,139.219,668.017,130.013L681.158,69.6096C682.867,61.7504,682.78,56.5858,681.334,52.0949C678.247,44.0112,668.67,38.8466,655.749,38.8466C634.55,38.8466,617.786,51.8703,612.435,72.7532L619.098,72.7532C623.618,55.6876,636.266,45.8076,653.831,45.8076C670.588,45.8076,678.423,54.3404,675.101,69.6096L674.173,73.876C672.952,79.4896,671.001,81.9596,666.774,83.756C662.346,85.5524,661.19,86.2261,643.693,88.6961C628.619,91.1661,620.661,93.4115,613.278,98.5761C604.942,104.414,599.598,112.274,597.449,122.154C593.492,140.342,603.072,152.917,621.445,152.917C631.741,152.917,642.715,148.875,651.7,141.914C656.268,138.545,657.62,136.974,662.163,130.013C659.043,145.282,661.254,150.896,670.743,150.896C672.358,150.896,673.367,150.896,675.937,150.222ZM671.047,88.247L664.989,116.091C663.67,122.154,658.675,129.339,652.003,134.953C643.422,141.914,633.255,145.956,622.959,145.956C608.422,145.956,600.936,136.749,603.916,123.052C607.433,106.884,619.084,98.8007,643.892,95.2079L648.682,94.5343L653.472,93.8606L657.858,93.187L661.437,92.5134C665.921,91.3906,667.23,90.9415,671.047,88.247ZM781.097,0L766.931,65.1186C764.788,48.0531,754.726,38.6221,738.575,38.6221C713.742,38.6221,692.907,61.0768,685.482,95.2079C677.861,130.237,688.724,152.692,713.759,152.692C729.911,152.692,744.076,143.261,753.644,126.195L748.515,149.773L754.571,149.773L787.154,0L781.097,0ZM736.455,45.583C757.654,45.583,766.986,65.7923,760.489,95.657C753.992,125.522,735.867,145.731,714.668,145.731C694.68,145.731,685.55,125.522,692.047,95.657C698.544,65.7923,716.467,45.583,736.455,45.583ZM852.465,118.336L846.206,118.336C843.021,124.624,841.829,127.318,838.876,130.686C831.422,139.893,819.451,145.731,807.338,145.731C793.811,145.731,785.126,138.321,782.459,125.522C780.945,118.561,781.046,111.6,783.665,96.7797L858.971,96.7797C862.238,80.8369,862.834,72.5287,860.896,62.8732C857.904,46.9303,847.8,38.6221,832.254,38.6221C805.604,38.6221,784.769,61.0768,776.953,97.0043C773.876,111.151,773.869,124.174,776.608,132.932C780.583,145.282,791.893,152.692,806.631,152.692C827.022,152.692,845.444,138.545,852.465,118.336ZM853.217,89.8188L785.179,89.8188C792.698,61.7504,808.733,45.583,830.336,45.583C839.825,45.583,847.884,50.2985,851.626,58.1577C855.569,66.0168,856.08,73.876,853.217,89.8188Z" fill="#072722" fill-opacity="1"/></g></svg>