<svg xmlns="http://www.w3.org/2000/svg" xmlns:xlink="http://www.w3.org/1999/xlink" fill="none" version="1.1" width="772.0000610351562" height="190" viewBox="0 0 772.0000610351562 190"><g><path d="M0,6.12903L0,150.075L7.83602,150.075L7.83602,76.6992L108.279,76.6992L108.279,150.075L116.828,150.075L116.828,6.12903L108.279,6.12903L108.279,69.3617L7.83602,69.3617L7.83602,6.12903L0,6.12903ZM133.212,46.0541L125.376,46.0541L169.78,148.348L160.282,170.793C156.72,180.073,152.208,183.31,143.897,183.31C142.235,183.31,140.573,183.31,136.774,182.662L136.774,188.921C140.811,189.784,142.71,190,145.322,190C155.533,190,161.944,184.389,167.405,170.577L217.746,46.0541L210.147,46.0541L173.342,139.284L133.212,46.0541ZM233.655,190L233.655,127.415C240.541,143.816,254.789,152.881,273.785,152.881C302.28,152.881,321.513,131.299,321.513,98.4961C321.513,64.6138,302.755,43.2485,273.785,43.2485C254.789,43.2485,240.541,52.3126,233.655,68.7142L233.655,46.0541L226.532,46.0541L226.532,190L233.655,190ZM274.26,49.9387C297.768,49.9387,313.677,69.3617,313.677,97.8487C313.677,126.336,297.768,146.19,274.26,146.19C249.802,146.19,233.418,126.336,233.418,97.8487C233.418,69.3617,249.802,49.9387,274.26,49.9387ZM424.569,119.861L417.208,119.861C415.071,125.904,414.358,128.494,411.746,131.731C405.335,140.579,392.75,146.19,378.503,146.19C362.593,146.19,350.483,139.069,344.072,126.767C340.51,120.077,338.848,113.387,338.135,99.1436L426.706,99.1436C426.468,83.821,425.044,75.836,420.295,66.5561C412.696,51.2335,398.686,43.2485,380.402,43.2485C349.058,43.2485,330.299,64.8296,330.299,99.3594C330.299,112.955,333.624,125.473,339.085,133.889C346.921,145.759,362.118,152.881,379.452,152.881C403.435,152.881,421.482,139.284,424.569,119.861ZM418.157,92.4534L338.135,92.4534C339.797,65.4771,354.52,49.9387,379.927,49.9387C391.088,49.9387,401.773,54.4707,408.184,62.0241C414.833,69.5775,417.445,77.1309,418.157,92.4534ZM447.131,149.773L478.052,7.63458L520.45,7.63458L522.111,0L430.653,0L428.992,7.63458L471.39,7.63458L440.468,149.773L447.131,149.773ZM493.692,41.5412L470.147,149.773L476.204,149.773L489.588,88.247C494.962,63.5468,509.521,45.8076,524.663,45.8076C526.076,45.8076,526.682,45.8076,528.047,46.0321L529.61,38.8466L525.976,38.8466C513.458,38.8466,503.269,46.7058,495.206,62.4241L499.749,41.5412L493.692,41.5412ZM585.937,150.222L587.402,143.486C585.035,144.159,584.074,143.935,582.661,143.935C577.613,143.935,576.015,139.219,578.017,130.013L591.158,69.6096C592.867,61.7504,592.78,56.5858,591.334,52.0949C588.247,44.0112,578.67,38.8466,565.749,38.8466C544.55,38.8466,527.786,51.8703,522.435,72.7532L529.098,72.7532C533.618,55.6876,546.266,45.8076,563.831,45.8076C580.588,45.8076,588.423,54.3404,585.101,69.6096L584.173,73.876C582.952,79.4896,581.001,81.9596,576.774,83.756C572.346,85.5524,571.19,86.2261,553.693,88.6961C538.619,91.1661,530.661,93.4115,523.278,98.5761C514.942,104.414,509.598,112.274,507.449,122.154C503.492,140.342,513.072,152.917,531.445,152.917C541.741,152.917,552.715,148.875,561.7,141.914C566.268,138.545,567.62,136.974,572.163,130.013C569.043,145.282,571.254,150.896,580.743,150.896C582.358,150.896,583.367,150.896,585.937,150.222ZM581.047,88.247L574.989,116.091C573.67,122.154,568.675,129.339,562.003,134.953C553.422,141.914,543.255,145.956,532.959,145.956C518.422,145.956,510.936,136.749,513.916,123.052C517.433,106.884,529.084,98.8007,553.892,95.2079L558.682,94.5343L563.472,93.8606L567.858,93.187L571.437,92.5134C575.921,91.3906,577.23,90.9415,581.047,88.247ZM691.097,0L676.931,65.1186C674.788,48.0531,664.726,38.6221,648.575,38.6221C623.742,38.6221,602.907,61.0768,595.482,95.2079C587.861,130.237,598.724,152.692,623.759,152.692C639.911,152.692,654.076,143.261,663.644,126.195L658.515,149.773L664.571,149.773L697.154,0L691.097,0ZM646.455,45.583C667.654,45.583,676.986,65.7923,670.489,95.657C663.992,125.522,645.867,145.731,624.668,145.731C604.68,145.731,595.55,125.522,602.047,95.657C608.544,65.7923,626.467,45.583,646.455,45.583ZM762.465,118.336L756.206,118.336C753.021,124.624,751.829,127.318,748.876,130.686C741.422,139.893,729.451,145.731,717.338,145.731C703.811,145.731,695.126,138.321,692.459,125.522C690.945,118.561,691.046,111.6,693.665,96.7797L768.971,96.7797C772.238,80.8369,772.834,72.5287,770.896,62.8732C767.904,46.9303,757.8,38.6221,742.254,38.6221C715.604,38.6221,694.769,61.0768,686.953,97.0043C683.876,111.151,683.869,124.174,686.608,132.932C690.583,145.282,701.893,152.692,716.631,152.692C737.022,152.692,755.444,138.545,762.465,118.336ZM763.217,89.8188L695.179,89.8188C702.698,61.7504,718.733,45.583,740.336,45.583C749.825,45.583,757.884,50.2985,761.626,58.1577C765.569,66.0168,766.08,73.876,763.217,89.8188Z" fill="#072722" fill-opacity="1" style="mix-blend-mode:passthrough"/></g></svg>