<svg xmlns="http://www.w3.org/2000/svg" xmlns:xlink="http://www.w3.org/1999/xlink" fill="none" version="1.1" width="100" height="100" viewBox="0 0 100 100"><defs><mask id="master_svg0_3847_31460" style="mask-type:alpha" maskUnits="userSpaceOnUse"><g><rect x="0" y="0" width="100" height="100" rx="0" fill="#FFFFFF" fill-opacity="1"/></g></mask></defs><g mask="url(#master_svg0_3847_31460)"><g><g><path d="M51.28327815734863,52.22153689686584Q52.54349815734863,51.41018366686585,54.57278815734863,51.41183662686584L73.03885815734863,51.407718896865845L91.50435815734863,51.407718896865845Q93.90875815734864,51.407718896865845,95.40675815734863,52.63007889686585Q97.22245815734863,54.103948896865845,97.48405815734864,56.62000889686585Q97.50585815734863,56.90828889686584,97.49865815734864,57.197188896865846L97.49845815734864,57.203478896865846L97.49845815734864,90.66701889686584Q97.49845815734864,93.70261889686584,95.16715815734864,95.44171889686584Q94.00725815734863,96.31171889686584,92.28295815734863,96.48911889686585Q92.08885815734862,96.50931889686584,91.67125815734863,96.50901889686585Q91.57585815734863,96.50891889686585,91.52815815734863,96.50911889686584L54.59989815734863,96.50911889686584Q51.916168157348636,96.50911889686584,50.27342815734863,94.86111889686585Q48.74645355734863,93.32671889686584,48.680510657348634,91.32421889686584Q48.660242557548635,90.75971889686585,48.660242557548635,90.19771889686584L48.660242557548635,57.671868896865845Q48.660242557548635,57.62896889686584,48.66016578673863,57.54336889686584Q48.658781167348636,55.99935889686584,48.89787215734863,55.275918896865846Q49.53277015734863,53.31082889686584,51.28327815734863,52.22153689686584ZM54.52390815734863,92.74431889686585L73.03445815734864,92.75351889686584L91.42015815734862,92.75351889686584Q91.87065815734863,92.76171889686584,92.32655815734864,92.70441889686585L92.33755815734864,92.70311889686585L92.34845815734863,92.70121889686584Q92.87035815734863,92.61211889686584,93.24385815734863,92.23691889686584Q93.61745815734864,91.86171889686585,93.70435815734862,91.33951889686585L93.70555815734863,91.33201889686585L93.70655815734864,91.32451889686584Q93.76555815734864,90.88891889686585,93.76035815734863,90.44951889686584L93.76035815734863,65.12711889686585L93.76035815734863,57.11734889686584Q93.76035815734863,55.10254889686585,91.72155815734862,55.096518896865845L88.16185815734863,55.096518896865845L84.66245815734862,55.098598896865845L81.59805815734863,55.091388896865844Q81.08515815734863,55.091388896865844,80.81845815734863,55.32975889686585Q80.50495815734863,55.60995889686585,80.52955815734863,56.16694889686585Q80.55175815734863,56.64819889686584,80.54165815734864,57.625578896865846Q80.53755815734863,58.02019889686584,80.53725815734863,58.21845889686585L80.52575815734863,64.15761889686584L80.52805815734862,66.52111889686584Q80.52805815734862,67.49311889686584,79.58785815734863,68.02291889686585Q78.62815815734864,68.56371889686585,77.72475815734863,67.97051889686584Q75.67935815734863,66.63391889686585,73.65235815734863,65.26521889686585Q73.06575815734863,64.86781889686584,72.48845815734863,65.26901889686584Q71.81135815734864,65.73131889686584,70.43575815734863,66.64181889686584Q69.27955815734863,67.40701889686585,68.70345815734863,67.79671889686584Q67.39005815734863,68.67731889686584,66.30235815734864,67.87521889686585Q65.55195815734864,67.32221889686585,65.55055815734863,66.16671889686585L65.55055815734863,56.12844889686585Q65.55055815734863,55.703768896865846,65.41035815734864,55.47752889686585Q65.17015815734864,55.08999889686584,64.60475815734863,55.091388896865844L58.74505815734863,55.100478896865845L54.18649815734863,55.10576889686585Q53.771288157348636,55.11409889686585,53.40533815734863,55.28930889686585Q52.31902815734863,55.80332889686584,52.321318157348635,57.287558896865846L52.321318157348635,83.46231889686584L52.321318157348635,90.74711889686584Q52.321318157348635,92.00941889686584,53.24010815734863,92.48331889686585Q53.74852815734863,92.74431889686585,54.52390815734863,92.74431889686585ZM76.18845815734863,62.47971889686585L76.81435815734864,62.47971889686585L76.83955815734863,62.00631889686584Q76.84535815734863,61.89771889686585,76.85565815734863,61.729818896865844Q76.87135815734864,61.47671889686585,76.87205815734863,61.366978896865845L76.87205815734863,56.199308896865844Q76.87205815734863,55.55650889686584,76.64955815734864,55.330978896865844Q76.42445815734862,55.10279889686584,75.78255815734863,55.101648896865846L75.74865815734863,55.101648896865846L70.32135815734864,55.09343889686585Q69.81635815734863,55.09343889686585,69.55685815734863,55.33763889686585Q69.27735815734863,55.600638896865846,69.28255815734863,56.123178896865845L69.29285815734863,61.42621889686585L69.29375815734863,61.44161889686585Q69.31335815734863,61.74791889686584,69.36735815734863,62.05011889686585L69.50025815734864,62.79501889686584L70.13335815734862,62.380518896865844Q70.24995815734863,62.304318896865844,70.46285815734863,62.162618896865844Q70.88775815734863,61.879918896865846,71.09025815734863,61.75781889686584Q71.24425815734864,61.665418896865845,71.54265815734863,61.470418896865844Q72.21945815734864,61.02842889686585,72.55875815734863,60.91070889686584Q73.45395815734864,60.60192889686584,74.58285815734862,61.431718896865846Q74.88955815734863,61.65781889686585,75.55925815734864,62.078718896865844Q75.88825815734863,62.28541889686585,76.06455815734863,62.39951889686584L76.18845815734863,62.47971889686585Z" fill-rule="evenodd" fill="#2D2E33" fill-opacity="1"/></g><g><path d="M50.40750190734863,17.437904053115844Q52.32830190734863,21.979804053115846,52.330101907348634,26.943504053115845Q52.33150190734863,31.863304053115844,50.405501907348636,36.39590405311584Q48.54360190734863,40.777404053115845,45.15850190734863,44.16920405311584Q41.767201907348635,47.567204053115844,37.39460190734863,49.42260405311585Q32.85640190734863,51.34830405311585,27.920501907348633,51.319804053115845Q22.96710190734863,51.331604053115846,18.435001907348635,49.42130405311585Q14.056301907348633,47.575604053115846,10.672551907348634,44.201604053115844Q7.287231907348633,40.826004053115845,5.428111907348633,36.449304053115846Q3.502287867348633,31.915604053115846,3.5000658035486327,26.953304053115843Q3.4891772073486327,21.975204053115846,5.405831907348633,17.428704053115844Q7.256981907348633,13.037604053115844,10.641361907348632,9.651304053115844Q14.025701907348633,6.264974053115845,18.415801907348634,4.411294053115845Q22.961201907348634,2.492019653115845,27.938401907348634,2.5000374317158447Q32.89020190734863,2.4952154131158446,37.42010190734863,4.4184140531158445Q41.79410190734863,6.275414053115845,45.17350190734863,9.663464053115845Q48.55220190734863,13.050804053115845,50.40750190734863,17.437904053115844ZM27.913401907348632,6.2257740531158445Q23.724001907348633,6.197904053115845,19.869301907348632,7.837124053115844Q16.158001907348634,9.415344053115845,13.280801907348632,12.306634053115845Q10.411061907348632,15.190404053115845,8.835481907348633,18.913104053115845Q7.204451907348632,22.766704053115845,7.214541907348632,26.940404053115845Q7.2250019073486325,31.154304053115844,8.861591907348632,35.006404053115844Q10.443421907348633,38.729504053115846,13.316271907348632,41.597004053115846Q16.192701907348635,44.468104053115844,19.91510190734863,46.033604053115845Q23.774401907348633,47.65660405311584,27.994001907348633,47.636104053115844Q32.206001907348636,47.629704053115844,36.05110190734863,45.99330405311584Q39.764201907348635,44.413104053115845,42.62220190734863,41.53880405311585Q45.480201907348636,38.66450405311584,47.03930190734863,34.942404053115844Q48.65370190734863,31.088104053115845,48.63610190734863,26.874404053115846Q48.629601907348636,22.654504053115843,46.99140190734863,18.804804053115845Q45.41090190734863,15.090504053115845,42.537101907348635,12.231914053115844Q39.66610190734863,9.376064053115844,35.95120190734863,7.818554053115845Q32.10970190734864,6.207994053115845,27.917001907348634,6.225784053115845L27.913401907348632,6.2257740531158445Z" fill-rule="evenodd" fill="#2D2E33" fill-opacity="1"/></g><g><path d="M66.1266582220459,13.708805888271332L66.1078482220459,13.710205888271332Q65.8725782220459,13.728105888271331,65.64040822204589,13.770205888271331L64.8914982220459,13.906305888271332L65.3137682220459,14.539605888271332Q65.4959582220459,14.812805888271331,65.7102182220459,15.061805888271332L65.72175822204589,15.075205888271332L65.7342082220459,15.087705888271332L65.8164382220459,15.170605888271332Q67.5124882220459,16.88050588827133,68.3888682220459,17.734605888271332Q67.0628182220459,19.03820588827133,65.7637582220459,20.36660588827133L62.2414782220459,16.84630588827133L58.6290322220459,13.214395888271332Q58.0332646920459,12.608745888271331,58.039129853245896,11.868495888271331Q58.0450091320459,11.126465888271332,58.6528322220459,10.511145888271333L62.225528222045895,6.920745888271332L65.7597382220459,3.385772168671332Q67.0670082220459,4.715475888271332,68.3930682220459,6.018815888271332Q67.4629682220459,6.932385888271332,65.7491982220459,8.664095888271332L65.7371482220459,8.67627588827133L65.7259482220459,8.689255888271333Q65.4922282220459,8.96024588827133,65.2908082220459,9.25604588827133L64.7587182220459,10.037465888271331L80.19976822204589,10.037465888271331Q82.1568682220459,10.037465888271331,83.2364682220459,10.368715888271332Q85.8015682220459,11.156245888271332,87.4792682220459,12.999845888271333Q89.8911682220459,15.649005888271331,89.9255682220459,19.09970588827133Q89.9255682220459,19.252905888271332,89.9317682220459,19.565005888271333Q89.93786822204589,19.87250588827133,89.93786822204589,20.02620588827133L89.93786822204589,43.36690588827133Q88.1101682220459,43.349805888271334,86.2808682220459,43.36670588827133L86.2808682220459,19.58250588827133Q86.2808682220459,16.385105888271333,83.7843682220459,14.660005888271332Q82.4640682220459,13.729905888271333,80.8445682220459,13.720105888271332L73.4953682220459,13.706705888271332L66.1266582220459,13.708805888271332Z" fill-rule="evenodd" fill="#2D2E33" fill-opacity="1"/></g><g><path d="M27.517495657348633,85.26886737098694L34.849795657348636,85.26576737098694Q34.94489565734863,85.26576737098694,35.13629565734863,85.23906737098693Q35.24809565734863,85.22356737098694,35.31999565734863,85.21506737098694L36.15919565734863,85.11636737098694L35.668695657348636,84.42826737098693Q35.467895657348635,84.14656737098694,35.23879565734863,83.88736737098694L35.229495657348636,83.87676737098694L35.219595657348634,83.86676737098693Q33.52249565734863,82.15146737098694,32.60889565734863,81.25606737098694Q32.601495657348636,81.24896737098695,32.59469565734864,81.24206737098694Q33.63459565734863,80.23786737098693,35.22869565734864,78.60606737098693L42.30619565734863,85.70616737098695Q42.94339565734863,86.35076737098694,42.94319565734863,87.10366737098694Q42.94299565734863,87.85666737098694,42.30419565734863,88.50486737098694L41.34519565734863,89.47356737098694L35.23939565734864,95.59836737098694Q33.751495657348634,94.08016737098694,32.62529565734863,92.98936737098694Q32.611295657348634,92.97586737098695,32.59949565734863,92.96376737098694Q32.60669565734864,92.95666737098693,32.61459565734863,92.94906737098694Q33.46099565734863,92.12936737098694,35.108495657348634,90.46196737098694L35.23209565734864,90.33686737098694Q35.33529565734864,90.23286737098694,35.516295657348635,89.99746737098694Q35.612595657348635,89.87206737098694,35.670995657348634,89.79936737098694L36.267995657348635,89.05556737098694L35.31669565734863,88.98766737098694Q35.22339565734863,88.98096737098695,35.06689565734863,88.96716737098694Q34.797295657348634,88.94326737098694,34.66489565734864,88.94326737098694L30.467295657348632,88.94596737098693L27.95259565734863,88.94736737098694L21.154295657348634,88.92986737098694Q19.632855657348635,88.92836737098693,18.13614565734863,88.65946737098693Q15.542335657348634,88.17466737098694,13.522745657348633,85.99026737098694Q11.057146967348633,83.32556737098693,11.058595657348633,79.73416737098694L11.058595657348633,55.67488077098694Q11.058595657348633,55.64113137098694,11.058863163348633,55.611700770986936Q11.097579457348633,55.61120236098694,11.143829557348633,55.611116290986935Q11.473749657348632,55.61111700098694,12.136755657348633,55.61391437098694Q13.823865657348634,55.621032670986935,14.670375657348632,55.60174250598694Q14.697535657348633,55.60110342498694,14.719915657348633,55.60155928138694Q14.720945657348633,55.627177970986935,14.720705657348633,55.65879007098694L14.717955657348632,59.16406737098694L14.720695657348633,60.915907370986936L14.720695657348633,79.42586737098694Q14.720695657348633,82.57416737098694,17.208195657348632,84.30916737098694Q18.550055657348633,85.25356737098694,20.193045657348634,85.25646737098694L27.517495657348633,85.26886737098694Z" fill-rule="evenodd" fill="#2D2E33" fill-opacity="1"/></g><g><path d="M66.94789104553223,87.09333157997132Q66.92740104553222,87.09402157997131,66.90276104553223,87.09376157997131L66.89821104553222,87.09374157997131L62.70026104553223,87.08860157997131Q62.31988104553223,87.08860157997131,61.558931045532226,87.08690157997131Q59.54541104553223,87.08238157997131,58.54224276553223,87.0958415799713L58.53520250323223,87.09581157997131L58.535379409532226,87.08618157997131Q58.55092414553223,85.23291157997132,58.535483360532226,83.38648177997132Q58.53548884353223,83.36282277997131,58.53646004553222,83.34320020697132Q58.55835374553223,83.34215670797131,58.58546284553223,83.34229266647131L66.49588104553223,83.34957360997132L66.84696104553223,83.35051404997131Q66.89913104553223,83.35051464997132,66.93975104553223,83.35201215997131Q66.94163104553223,83.39516747997132,66.94185104553223,83.4512315799713Q66.94185104553223,83.7760355799713,66.94048104553222,84.43044157997132Q66.93680104553222,86.18007157997131,66.94805104553222,87.05590157997132Q66.94831104553222,87.07613157997132,66.94789104553223,87.09333157997132Z" fill-rule="evenodd" fill="#2D2E33" fill-opacity="1"/></g><g><path d="M27.077530510864257,28.779683057022094L27.079920510864255,28.758883057022096L27.52605051086426,28.758883057022096Q27.720530510864258,28.758883057022096,28.11521051086426,28.750983057022093Q29.072070510864258,28.731883057022095,29.559370510864255,28.775183057022094Q30.751170510864256,28.880983057022096,31.39577051086426,29.169783057022094Q32.688470510864256,29.753483057022095,33.224570510864254,30.915383057022094Q33.74787051086426,32.0497830570221,33.44267051086426,33.51578305702209Q33.218570510864254,34.590583057022094,32.305070510864255,35.398583057022094Q31.305070510864258,36.28318305702209,30.029470510864257,36.301183057022094Q28.99677051086426,36.315783057022095,26.935760510864256,36.3117830570221Q26.226340510864258,36.3104830570221,25.874090510864256,36.3104830570221Q24.529570510864257,36.314083057022096,23.461480510864256,35.30648305702209Q22.43579051086426,34.3387830570221,22.29567051086426,33.04188305702209L18.558307910864258,33.04188305702209Q18.774580510864258,35.355783057022094,20.016330510864258,36.992183057022096Q21.967570510864256,39.56498305702209,25.189020510864257,40.00168305702209Q26.106630510864257,40.125683057022094,26.081950510864257,41.0604830570221Q26.07017051086426,41.48418305702209,26.074140510864257,42.34108305702209Q26.07730051086426,43.022783057022096,26.07201051086426,43.371183057022094Q27.758920510864257,43.3434830570221,29.74557051086426,43.37158305702209L29.762970510864257,43.371683057022096Q29.762870510864257,43.363283057022095,29.762770510864257,43.354083057022095Q29.75897051086426,43.0467830570221,29.762970510864257,42.43618305702209Q29.768670510864258,41.5553830570221,29.75387051086426,41.1247830570221Q29.71297051086426,40.133883057022096,30.693970510864258,39.9932830570221Q32.68757051086426,39.699083057022094,34.132970510864254,38.6542830570221Q36.84307051086426,36.69608305702209,37.24767051086425,33.343383057022095Q37.54797051086426,30.985183057022095,36.34087051086426,28.933883057022094Q34.25827051086426,25.346883057022097,30.20077051086426,25.093783057022094Q29.462070510864258,25.047683057022095,27.959740510864258,25.064083057022096Q26.55437051086426,25.079383057022095,25.84623051086426,25.043783057022097Q24.507590510864258,24.975383057022093,23.557140510864258,24.158583057022092Q22.619580510864257,23.352883057022094,22.335220510864257,22.057283057022097Q21.95812051086426,20.314613057022093,23.07308051086426,18.917133057022095Q24.184130510864257,17.524543057022093,25.97164051086426,17.483693057022094Q27.122170510864258,17.460743057022093,29.410670510864257,17.480053057022094Q29.69797051086426,17.482483057022094,29.84007051086426,17.483613057022094Q31.209470510864257,17.496123057022096,32.29087051086426,18.440593057022095Q33.387670510864254,19.398493057022094,33.50957051086426,20.724683057022094Q33.51237051086426,20.755083057022095,33.51617051086426,20.778083057022094Q33.53937051086426,20.779383057022095,33.56977051086426,20.778883057022092Q35.42217051086426,20.757783057022095,37.27447051086426,20.778083057022094Q37.17317051086425,19.099543057022096,36.33147051086426,17.639873057022093Q34.43527051086426,14.370373057022094,30.77227051086426,13.872363057022095Q30.230470510864258,13.798433057022095,30.006570510864258,13.565563057022095Q29.75557051086426,13.304363057022094,29.75557051086426,12.739253057022095L29.75557051086426,11.661013057022094L29.75557051086426,10.585801757022095Q29.755270510864257,10.545185357022095,29.75447051086426,10.511120437022095Q29.729170510864257,10.510790347022095,29.700070510864258,10.510788677022095Q29.194070510864258,10.507794257022095,28.18049051086426,10.510038617022095Q26.777270510864255,10.513145927022094,26.06706051086426,10.503738761022095Q26.079880510864257,11.075167057022094,26.074910510864257,12.192093057022095Q26.072900510864258,12.642823057022095,26.07289051086426,12.864113057022095Q26.07962051086426,13.824983057022095,25.174350510864258,13.866133057022095Q23.99546051086426,13.921613057022094,22.68237051086426,14.594093057022095Q19.55382051086426,16.198333057022094,18.73908451086426,19.596793057022097Q18.070677510864257,22.250083057022096,19.37465651086426,24.660183057022095Q21.253010510864257,28.199183057022093,25.13254051086426,28.680583057022094Q25.662660510864256,28.746583057022093,26.762300510864257,28.771883057022094Q26.93396051086426,28.775883057022096,27.077530510864257,28.779683057022094Z" fill-rule="evenodd" fill="#2D2E33" fill-opacity="1"/></g></g></g></svg>