<svg xmlns="http://www.w3.org/2000/svg" xmlns:xlink="http://www.w3.org/1999/xlink" fill="none" version="1.1" width="20" height="20" viewBox="0 0 20 20"><defs><clipPath id="master_svg0_560_10422"><rect x="0" y="0" width="20" height="20" rx="0"/></clipPath></defs><g clip-path="url(#master_svg0_560_10422)"><g><g><path d="M1,9.988430000000001C1.0158105,7.69517,1.976744,5.84862,3.82659,4.43686C4.80509,3.690053,5.92764,3.246746,7.16087,3.0745377C8.05504,2.9500705,8.94219,2.980761,9.8188,3.18707C9.98745,3.226285,10.12799,3.18707,10.27731,3.156379C14.0209,2.375475,17.7592,4.59201,18.7518,8.1811C19.7848,11.91341,17.4992,15.7583,13.6485,16.7625C12.7016,17.009700000000002,11.7389,17.0643,10.76744,16.924500000000002C10.53379,16.8904,10.30191,16.8375,10.07002,16.798299999999998C10.0138,16.7881,9.95407,16.7864,9.89961,16.798299999999998C7.64748,17.2877,5.58683,16.880200000000002,3.75983,15.511C2.28417,14.4045,1.398778,12.93302,1.0737825,11.14615C1.00526999,10.76422,1.00526999,10.37889,1,9.988430000000001ZM18.1018,10.003779999999999C18.1036,6.62441,15.277,3.879312,11.7916,3.875902C8.313279999999999,3.870787,5.4744,6.6227,5.47616,10.00037C5.47616,13.378,8.30977,16.1248,11.7916,16.1248C15.2682,16.1231,18.1,13.3763,18.1018,10.003779999999999ZM8.2518,3.8724920000000003C5.95926,3.9185280000000002,4.1305,4.83413,2.87092,6.71819C1.497155,8.77104,1.535804,11.40191,2.957,13.4121C4.22888,15.2092,6.0225,16.0873,8.25355,16.1265C5.92061,14.7114,4.59252,12.70284,4.5907599999999995,10.00719C4.58725,7.30642,5.91358,5.2927800000000005,8.2518,3.8724920000000003Z" fill="#99A0AF" fill-opacity="1"/><path d="M0.751083,10.074169999999999Q0.760384,10.81498,0.82771,11.19029L0.827817,11.19088Q1.34042,14.0092,3.60991,15.7111Q6.41302,17.811700000000002,9.95313,17.0425Q9.98147,17.0363,10.02833,17.044800000000002Q10.12204,17.0607,10.31248,17.0975Q10.5893,17.1511,10.73183,17.1719Q12.2391,17.3889,13.7116,17.0044Q16.6988,16.2254,18.2464,13.6226Q19.796,11.01664,18.9928,8.11447Q18.2215,5.3256,15.6737,3.814952Q13.129,2.306143,10.22698,2.9114979Q10.2097,2.9150501,10.17634,2.9221615Q9.97132,2.9658645,9.87608,2.9437183Q8.542349999999999,2.629828,7.12629,2.82694Q5.16509,3.100803,3.67491,4.23812Q0.774377,6.45176,0.750023,9.991810000000001Q0.750393,10.01923,0.751083,10.074169999999999ZM1.319855,11.10201L1.319747,11.10141Q1.259818,10.76675,1.2510430000000001,10.06789Q1.250351,10.01274,1.249977,9.98506Q1.272674,6.70045,3.97826,4.6355900000000005Q5.36416,3.577856,7.19544,3.322135Q8.51875,3.137934,9.76153,3.430421Q9.96659,3.478106,10.28058,3.411175Q10.31216,3.404442,10.32764,3.40126Q13.041,2.835259,15.4187,4.2450399999999995Q17.7933,5.6529799999999994,18.5108,8.24774Q19.2572,10.94444,17.8167,13.3671Q16.3739,15.7934,13.5854,16.5206Q12.2105,16.8796,10.80305,16.677Q10.67297,16.658099999999997,10.40753,16.6067Q10.21127,16.5687,10.1117,16.5518Q9.97235,16.526400000000002,9.84609,16.5541Q6.53008,17.2746,3.90975,15.311Q1.797501,13.727,1.319855,11.10201ZM8.38321,15.9128Q4.8432200000000005,13.7654,4.8407599999999995,10.00703L4.8407599999999995,10.00686Q4.83587,6.23992,8.38159,4.08616L9.17554,3.603892L8.246780000000001,3.622543Q4.59069,3.695959,2.66309,6.57924Q1.590427,8.18215,1.615872,10.084489999999999Q1.641283,11.98417,2.7528699999999997,13.5565Q4.70463,16.3142,8.24916,16.3765L9.17446,16.3928L8.38321,15.9128ZM7.15416,14.5087Q9.07872,16.3748,11.7916,16.3748L11.7917,16.3748Q14.5005,16.3735,16.4238,14.5078Q18.3504,12.639,18.3518,10.003910000000001Q18.3532,7.36356,16.4285,5.49451Q14.5071,3.628557,11.7919,3.625903Q9.08152,3.621917,7.15482,5.49011Q5.22478,7.36155,5.22616,10.000499999999999Q5.22616,12.63924,7.15416,14.5087ZM4.3407599999999995,10.007349999999999L4.3407599999999995,10.00751Q4.343170000000001,13.5959,7.3266,15.8063Q4.7023600000000005,15.4455,3.16114,13.2678Q2.13916,11.82227,2.11583,10.0778Q2.09246,8.33097,3.07875,6.85713Q4.60785,4.56993,7.32348,4.1944099999999995Q4.33615,6.41099,4.3407599999999995,10.007349999999999ZM16.075699999999998,14.1489Q14.2977,15.8736,11.7916,15.8748L11.7915,15.8748Q9.28129,15.8748,7.50223,14.1497Q5.72616,12.4276,5.72616,10.00024Q5.7249,7.57308,7.50288,5.84907Q9.28382,4.12222,11.7914,4.1259Q14.3041,4.12836,16.080199999999998,5.8532Q17.8531,7.57487,17.8518,10.00365Q17.8505,12.42731,16.075699999999998,14.1489Z" fill-rule="evenodd" fill="#99A0AF" fill-opacity="1"/></g><g><path d="M12.312565689086913,6.688613952316285C12.423105689086913,6.709486952316285,12.530395689086914,6.725887952316285,12.634425689086914,6.749742952316284C13.073325689086914,6.851129952316284,13.456965689086914,7.038989952316284,13.752815689086914,7.359539952316284C14.030785689086915,7.660709952316284,14.154325689086914,8.014059952316284,14.155955689086914,8.404689952316284C14.155955689086914,8.613419952316285,13.985275689086915,8.780409952316283,13.765825689086913,8.792339952316285C13.541495689086915,8.804269952316284,13.354555689086915,8.658149952316284,13.326915689086913,8.444949952316284C13.315545689086914,8.356979952316284,13.315545689086914,8.266029952316284,13.294405689086915,8.179559952316284C13.214755689086914,7.873919952316284,12.995305689086914,7.677109952316284,12.684825689086914,7.566779952316284C12.120755689086915,7.365499952316284,11.569685689086914,7.386379952316284,11.054385689086914,7.694999952316284C10.708135689086914,7.902239952316284,10.543955689086914,8.297339952316284,10.633365689086915,8.637279952316284C10.678875689086913,8.810229952316284,10.794295689086914,8.938449952316285,10.942215689086915,9.044309952316285C11.216935689086913,9.239619952316284,11.537175689086915,9.357409952316285,11.854155689086914,9.479659952316284C12.242665689086914,9.628759952316283,12.636055689086914,9.771889952316284,13.019685689086915,9.931419952316284C13.309035689086913,10.052189952316283,13.572375689086915,10.214699952316284,13.798335689086915,10.423429952316283C14.168965689086914,10.766349952316284,14.302255689086914,11.183819952316284,14.253485689086915,11.656449952316283C14.167335689086915,12.482429952316284,13.533365689086914,13.031099952316284,12.701075689086913,13.233869952316283C12.593795689086914,13.259209952316283,12.484875689086914,13.278589952316285,12.374335689086914,13.293499952316285C12.320695689086914,13.300959952316283,12.309315689086914,13.320339952316285,12.309315689086914,13.365069952316285C12.312565689086913,13.511179952316283,12.310945689086914,13.658779952316284,12.309315689086914,13.804899952316283C12.307695689086914,14.030029952316283,12.128885689086914,14.198509952316284,11.894795689086914,14.199999952316285C11.660715689086913,14.199999952316285,11.480285689086914,14.030029952316283,11.478655689086914,13.806389952316284C11.477035689086915,13.657299952316285,11.477035689086915,13.508199952316284,11.478655689086914,13.359099952316285C11.480285689086914,13.309899952316284,11.468905689086913,13.287539952316283,11.407135689086914,13.277099952316284C10.932465689086914,13.196589952316284,10.500067689086913,13.029609952316285,10.140817689086914,12.725449952316284C9.719796689086914,12.369119952316284,9.523104049086914,11.924809952316284,9.526355375686913,11.402979952316283C9.527980539086913,11.200219952316285,9.711669689086914,11.037699952316284,9.934370689086913,11.031739952316284C10.145694689086914,11.027269952316285,10.352140689086914,11.182319952316284,10.352140689086914,11.374659952316284C10.348889689086914,11.991909952316284,10.810545689086915,12.322899952316284,11.311225689086914,12.466029952316283C11.834655689086913,12.613629952316284,12.348335689086914,12.601699952316284,12.840875689086914,12.367629952316285C13.274895689086915,12.160379952316283,13.494345689086915,11.751869952316284,13.413075689086915,11.323959952316283C13.365935689086914,11.077959952316284,13.187115689086914,10.916939952316284,12.974175689086914,10.784239952316284C12.697825689086914,10.614269952316285,12.392215689086914,10.500959952316284,12.086615689086914,10.386159952316284C11.650965689086913,10.223649952316284,11.205555689086914,10.082009952316284,10.794295689086914,9.868799952316284C10.478933689086913,9.704799952316284,10.184706689086914,9.515449952316285,10.002643689086915,9.221729952316284C9.643394689086914,8.637279952316284,9.710042689086913,8.057299952316285,10.093674689086914,7.510119952316284C10.399280689086915,7.076259952316284,10.870695689086913,6.852619952316284,11.407125689086914,6.737814952316284C11.464025689086913,6.7258869523162845,11.480275689086914,6.706504952316284,11.478655689086914,6.654321952316284C11.475405689086914,6.500753952316284,11.477025689086915,6.345695952316284,11.477025689086915,6.192128952316284C11.478655689086914,5.969977952316285,11.660715689086913,5.798518922316284,11.893175689086913,5.8000097348262845C12.124005689086914,5.801500772316285,12.304435689086914,5.968486952316284,12.306065689086914,6.187654952316284C12.314195689086914,6.3546419523162845,12.312565689086913,6.520136952316284,12.312565689086913,6.688613952316285Z" fill="#99A0AF" fill-opacity="1"/><path d="M12.555995689086913,6.180232952316284Q12.552015689086915,5.912527952316284,12.356295689086913,5.729570852316284Q12.166085689086914,5.551766952316284,11.894775689086913,5.5500149523162845Q11.620275689086913,5.548253952316284,11.427105689086915,5.7302383523162845Q11.229035689086913,5.916843952316285,11.227025689086915,6.192128952316284Q11.227025689086915,6.230121952316284,11.226825689086914,6.306731952316284Q11.226495689086914,6.430827952316284,11.227065689086913,6.523045952316284Q10.322952689086915,6.750488952316284,9.888973689086914,7.366609952316284Q9.185572689086914,8.369869952316284,9.790155689086914,9.353439952316284Q10.041650689086914,9.759169952316284,10.679235689086914,10.090749952316283Q11.012545689086913,10.263539952316284,11.706435689086915,10.513639952316284Q11.902365689086913,10.584249952316284,11.998695689086913,10.620189952316284Q12.005325689086915,10.622679952316284,12.018505689086915,10.627629952316283Q12.593335689086913,10.843509952316285,12.841955689086914,10.996419952316284Q13.130175689086915,11.176019952316285,13.167465689086914,11.370619952316284Q13.265685689086915,11.887739952316284,12.733565689086914,12.141829952316284Q12.118775689086913,12.433999952316285,11.379935689086913,12.225659952316285Q10.598835689086915,12.002359952316283,10.602145689086914,11.374659952316284Q10.602145689086914,11.112449952316284,10.378408689086914,10.933959952316284Q10.180978689086913,10.776459952316284,9.927678689086914,10.781829952316285Q9.667499689086915,10.788789952316284,9.480006389086913,10.957929952316285Q9.278457689086913,11.139739952316283,9.276359689086915,11.401429952316285Q9.270658689086915,12.316499952316285,9.979278689086915,12.916249952316285Q10.483115689086913,13.342819952316283,11.227605689086914,13.497619952316285Q11.226975689086913,13.653129952316284,11.228665689086913,13.808209952316284Q11.230655689086914,14.082479952316284,11.427875689086914,14.268789952316284Q11.619695689086914,14.449999952316285,11.896395689086914,14.449989952316285Q12.171195689086915,14.448249952316285,12.361405689086915,14.267579952316284Q12.557325689086914,14.081479952316284,12.559305689086914,13.807679952316285Q12.561175689086914,13.639059952316284,12.560915689086915,13.517579952316284Q12.663615689086914,13.499599952316284,12.760255689086915,13.476759952316284Q13.473965689086913,13.302879952316285,13.931375689086913,12.858089952316284Q14.430095689086915,12.373119952316284,14.502165689086915,11.682109952316285Q14.591465689086913,10.816669952316285,13.967975689086913,10.239799952316284Q13.605645689086913,9.905079952316285,13.115675689086913,9.700579952316284Q12.835665689086914,9.584139952316285,12.269615689086914,9.370099952316284Q12.051905689086913,9.287779952316285,11.944125689086913,9.246409952316284Q11.925835689086913,9.239359952316285,11.889865689086914,9.225519952316285Q11.320505689086914,9.006509952316284,11.087705689086913,8.840999952316285Q10.912495689086914,8.715619952316285,10.875135689086914,8.573689952316284Q10.766055689086913,8.158939952316285,11.182835689086914,7.909479952316284Q11.824435689086915,7.525209952316284,12.601115689086914,7.802349952316284Q12.972115689086914,7.934189952316284,13.051555689086914,8.238909952316284Q13.060605689086914,8.275949952316285,13.068595689086914,8.372239952316285Q13.074255689086915,8.440469952316285,13.078995689086915,8.477079952316284Q13.112775689086915,8.737689952316284,13.317815689086913,8.899379952316284Q13.516375689086914,9.055959952316284,13.779385689086915,9.041969952316284Q14.039215689086914,9.027849952316284,14.218975689086914,8.850069952316284Q14.405955689086914,8.665149952316284,14.405955689086914,8.403649952316284Q14.403005689086914,7.695389952316284,13.936525689086913,7.189979952316284Q13.471955689086915,6.6866239523162845,12.690305689086914,6.506066952316284Q12.641585689086915,6.494896952316284,12.562355689086914,6.479935952316284Q12.561245689086913,6.291591952316284,12.555995689086913,6.180232952316284ZM12.056115689086914,6.1946619523162845L12.056365689086913,6.1998089523162845Q12.063025689086913,6.336630952316284,12.062635689086914,6.616043952316284Q12.062565689086913,6.6643589523162845,12.062565689086913,6.688613952316285L12.062565689086913,6.895819952316284L12.266175689086914,6.934269952316284Q12.303655689086915,6.941349952316284,12.376205689086914,6.954209952316284Q12.514585689086914,6.978749952316284,12.578555689086913,6.993419952316284Q13.209135689086914,7.139079952316284,13.569105689086914,7.529099952316284Q13.903815689086915,7.891749952316284,13.905955689086914,8.405729952316284Q13.905955689086914,8.534349952316283,13.752255689086914,8.542709952316285Q13.592775689086913,8.551189952316284,13.574845689086914,8.412809952316284Q13.571595689086914,8.387699952316284,13.566885689086913,8.330889952316284Q13.555645689086914,8.195429952316285,13.537255689086914,8.120209952316284Q13.389145689086915,7.551749952316284,12.768535689086914,7.331209952316284Q11.770095689086915,6.9749399523162845,10.925925689086913,7.480529952316284Q10.600665689086913,7.675209952316284,10.451471689086913,8.016159952316285Q10.301589689086914,8.358689952316285,10.391585689086915,8.700869952316284Q10.474854689086914,9.017279952316285,10.796735689086914,9.247609952316285Q11.082165689086914,9.450539952316284,11.710355689086914,9.692189952316284Q11.746255689086913,9.705999952316285,11.764195689086915,9.712919952316284Q11.873985689086915,9.755049952316284,12.092775689086913,9.837779952316284Q12.651185689086914,10.048939952316285,12.923695689086914,10.162259952316283Q13.331375689086915,10.332409952316283,13.628695689086914,10.607069952316284Q14.068455689086914,11.013949952316285,14.004805689086915,11.630789952316285Q13.894765689086913,12.685739952316284,12.641905689086915,12.990969952316284Q12.501965689086914,13.024019952316284,12.340915689086914,13.045749952316285Q12.059315689086914,13.084869952316284,12.059315689086914,13.365069952316285L12.059315689086914,13.367849952316284L12.059375689086913,13.370629952316285Q12.062545689086914,13.513079952316284,12.059335689086915,13.802119952316284Q12.058275689086914,13.948949952316283,11.893205689086914,13.949999952316285Q11.729705689086915,13.949999952316285,11.728645689086914,13.804569952316283Q11.726245689086914,13.583929952316284,11.728615689086915,13.364189952316284Q11.736435689086914,13.079199952316284,11.448785689086915,13.030599952316283Q10.747685689086914,12.911679952316284,10.302356689086913,12.534649952316284Q9.772105689086914,12.085869952316283,9.776350689086915,11.404539952316284Q9.777300689086914,11.286029952316284,9.941063689086914,11.281649952316284Q10.010632689086915,11.280179952316285,10.066595689086913,11.324829952316284Q10.102140689086914,11.353179952316285,10.102140689086914,11.374659952316284Q10.096847689086914,12.378879952316284,11.242505689086915,12.706399952316284Q12.163795689086914,12.966199952316284,12.948185689086914,12.593429952316285Q13.346055689086914,12.403449952316283,13.539715689086915,12.048199952316285Q13.736535689086914,11.687169952316285,13.658685689086914,11.277309952316283Q13.580105689086913,10.867249952316284,13.106385689086913,10.572059952316284Q12.814235689086914,10.392369952316283,12.194285689086914,10.159549952316283L12.174535689086914,10.152129952316283Q12.074565689086914,10.114829952316285,11.875965689086915,10.043259952316284Q11.213255689086914,9.804399952316285,10.909355689086913,9.646849952316284Q10.394241689086915,9.378969952316284,10.215132689086914,9.090019952316284Q9.783568689086914,8.387919952316285,10.298375689086914,7.653639952316285Q10.649115689086914,7.155699952316284,11.459445689086914,6.982279952316285Q11.737175689086914,6.924059952316284,11.728535689086915,6.646540952316284Q11.726225689086913,6.536777952316284,11.726825689086914,6.308049952316284Q11.727025689086915,6.230806952316284,11.727025689086915,6.192128952316284Q11.728085689086914,6.048955952316284,11.891565689086914,6.050004952316284Q12.055045689086914,6.051060952316284,12.056075689086914,6.1895089523162845L12.056115689086914,6.1946619523162845ZM11.352585689086915,6.493826952316284L11.354815689086914,6.493349952316284L11.352585689086915,6.493826952316284ZM11.228645689086914,6.655846952316284L11.228775689086914,6.662101952316284L11.228645689086914,6.655846952316284Z" fill-rule="evenodd" fill="#99A0AF" fill-opacity="1"/></g></g></g></svg>