<svg xmlns="http://www.w3.org/2000/svg" xmlns:xlink="http://www.w3.org/1999/xlink" fill="none" version="1.1" width="24" height="24" viewBox="0 0 24 24"><defs><clipPath id="master_svg0_337_06674"><rect x="0" y="0" width="24" height="24" rx="0"/></clipPath></defs><g clip-path="url(#master_svg0_337_06674)"><g><path d="M1.25,22L1.25,4Q1.25,3.9261315,1.264411,3.853682Q1.278822,3.781233,1.30709,3.712987Q1.335359,3.644742,1.376398,3.583322Q1.417437,3.521903,1.46967,3.46967Q1.521903,3.417437,1.583322,3.376398Q1.644742,3.335359,1.712987,3.30709Q1.781233,3.278822,1.853682,3.264411Q1.9261314999999999,3.25,2,3.25L22,3.25Q22.0739,3.25,22.1463,3.264411Q22.2188,3.278822,22.287,3.30709Q22.3553,3.335359,22.4167,3.376398Q22.4781,3.417437,22.5303,3.46967Q22.5826,3.521903,22.6236,3.583322Q22.6646,3.644742,22.6929,3.712987Q22.7212,3.781233,22.7356,3.853682Q22.75,3.9261315,22.75,4L22.75,22Q22.75,22.0739,22.7356,22.1463Q22.7212,22.2188,22.6929,22.287Q22.6646,22.3553,22.6236,22.4167Q22.5826,22.4781,22.5303,22.5303Q22.4781,22.5826,22.4167,22.6236Q22.3553,22.6646,22.287,22.6929Q22.2188,22.7212,22.1463,22.7356Q22.0739,22.75,22,22.75L2,22.75Q1.9261314999999999,22.75,1.853682,22.7356Q1.781233,22.7212,1.712987,22.6929Q1.644742,22.6646,1.583322,22.6236Q1.521903,22.5826,1.46967,22.5303Q1.417437,22.4781,1.376398,22.4167Q1.335359,22.3553,1.30709,22.287Q1.278822,22.2188,1.264411,22.1463Q1.25,22.0739,1.25,22ZM2.75,4.75L2.75,21.25L21.25,21.25L21.25,4.75L2.75,4.75Z" fill="#2D2E33" fill-opacity="1"/></g><g><path d="M13.25,17L13.25,10Q13.25,9.9261315,13.264410999999999,9.853682Q13.278822,9.781233,13.30709,9.712987Q13.335359,9.644742,13.376398,9.583322Q13.417437,9.521903,13.46967,9.46967Q13.521903,9.417437,13.583322,9.376398Q13.644742,9.335359,13.712987,9.30709Q13.781233,9.278822,13.853682,9.264410999999999Q13.9261315,9.25,14,9.25L18,9.25Q18.07387,9.25,18.14632,9.264410999999999Q18.21877,9.278822,18.287010000000002,9.30709Q18.35526,9.335359,18.41668,9.376398Q18.4781,9.417437,18.53033,9.46967Q18.58256,9.521903,18.6236,9.583322Q18.66464,9.644742,18.69291,9.712987Q18.72118,9.781233,18.735590000000002,9.853682Q18.75,9.9261315,18.75,10L18.75,17Q18.75,17.07387,18.735590000000002,17.14632Q18.72118,17.21877,18.69291,17.287010000000002Q18.66464,17.35526,18.6236,17.41668Q18.58256,17.4781,18.53033,17.53033Q18.4781,17.58256,18.41668,17.6236Q18.35526,17.66464,18.287010000000002,17.69291Q18.21877,17.72118,18.14632,17.735590000000002Q18.07387,17.75,18,17.75L14,17.75Q13.9261315,17.75,13.853682,17.735590000000002Q13.781233,17.72118,13.712987,17.69291Q13.644742,17.66464,13.583322,17.6236Q13.521903,17.58256,13.46967,17.53033Q13.417437,17.4781,13.376398,17.41668Q13.335359,17.35526,13.30709,17.287010000000002Q13.278822,17.21877,13.264410999999999,17.14632Q13.25,17.07387,13.25,17ZM17.25,10.75L14.75,10.75L14.75,16.25L17.25,16.25L17.25,10.75Z" fill-rule="evenodd" fill="#2D2E33" fill-opacity="1"/></g><g><path d="M7.75,2L7.75,6Q7.75,6.06881,7.762521,6.13647Q7.774388,6.2006,7.797146,6.26172Q7.819905,6.32284,7.85287,6.37911Q7.885836,6.43538,7.928021,6.48512Q7.970205,6.53486,8.020341,6.57656Q8.070477,6.61827,8.12706,6.6507Q8.183643,6.68313,8.244974,6.70531Q8.306306,6.72749,8.370544,6.73874Q8.4347826,6.75,8.5,6.75Q8.5738685,6.75,8.646318,6.73559Q8.718767,6.72118,8.787013,6.69291Q8.855258,6.66464,8.916678,6.6236Q8.978097,6.58256,9.03033,6.53033Q9.082563,6.4781,9.123602,6.41668Q9.164641,6.35526,9.19291,6.28701Q9.221178,6.21877,9.235589000000001,6.14632Q9.25,6.07387,9.25,6L9.25,2Q9.25,1.9261314999999999,9.235589000000001,1.853682Q9.221178,1.781233,9.19291,1.712987Q9.164641,1.644742,9.123602,1.583322Q9.082563,1.521903,9.03033,1.46967Q8.978097,1.417437,8.916678,1.376398Q8.855258,1.335359,8.787013,1.30709Q8.718767,1.278822,8.646318,1.264411Q8.5738685,1.25,8.5,1.25Q8.4261315,1.25,8.353682,1.264411Q8.281233,1.278822,8.212987,1.30709Q8.144742,1.335359,8.083322,1.376398Q8.021903,1.417437,7.96967,1.46967Q7.917437,1.521903,7.876398,1.583322Q7.835359,1.644742,7.80709,1.712987Q7.778822,1.781233,7.764411,1.853682Q7.75,1.9261314999999999,7.75,2Z" fill-rule="evenodd" fill="#2D2E33" fill-opacity="1"/></g><g><path d="M14.75,2L14.75,6Q14.75,6.06881,14.762521,6.13647Q14.774388,6.2006,14.797146,6.26172Q14.819905,6.32284,14.85287,6.37911Q14.885836,6.43538,14.928021,6.48512Q14.970205,6.53486,15.020341,6.57656Q15.070477,6.61827,15.12706,6.6507Q15.183643,6.68313,15.244974,6.70531Q15.306306,6.72749,15.370544,6.73874Q15.4347826,6.75,15.5,6.75Q15.5738685,6.75,15.646318,6.73559Q15.718767,6.72118,15.787013,6.69291Q15.855258,6.66464,15.916678,6.6236Q15.978097,6.58256,16.03033,6.53033Q16.082563,6.4781,16.123601999999998,6.41668Q16.164641,6.35526,16.19291,6.28701Q16.221178,6.21877,16.235589,6.14632Q16.25,6.07387,16.25,6L16.25,2Q16.25,1.9261314999999999,16.235589,1.853682Q16.221178,1.781233,16.19291,1.712987Q16.164641,1.644742,16.123601999999998,1.583322Q16.082563,1.521903,16.03033,1.46967Q15.978097,1.417437,15.916678,1.376398Q15.855258,1.335359,15.787013,1.30709Q15.718767,1.278822,15.646318,1.264411Q15.5738685,1.25,15.5,1.25Q15.4261315,1.25,15.353682,1.264411Q15.281233,1.278822,15.212987,1.30709Q15.144742,1.335359,15.083322,1.376398Q15.021903,1.417437,14.96967,1.46967Q14.917437,1.521903,14.876398,1.583322Q14.835359,1.644742,14.80709,1.712987Q14.778822,1.781233,14.764410999999999,1.853682Q14.75,1.9261314999999999,14.75,2Z" fill-rule="evenodd" fill="#2D2E33" fill-opacity="1"/></g><g><path d="M9.25,16.25L6,16.25Q5.9261315,16.25,5.853682,16.264409999999998Q5.781233,16.27882,5.712987,16.30709Q5.644742,16.33536,5.583322,16.3764Q5.521903,16.41744,5.46967,16.46967Q5.417437,16.5219,5.376398,16.58332Q5.335359,16.64474,5.30709,16.712989999999998Q5.278822,16.78123,5.264411,16.85368Q5.25,16.92613,5.25,17Q5.25,17.07387,5.264411,17.14632Q5.278822,17.21877,5.30709,17.287010000000002Q5.335359,17.35526,5.376398,17.41668Q5.417437,17.4781,5.46967,17.53033Q5.521903,17.58256,5.583322,17.6236Q5.644742,17.66464,5.712987,17.69291Q5.781233,17.72118,5.853682,17.735590000000002Q5.9261315,17.75,6,17.75L10,17.75Q10.07387,17.75,10.14632,17.735590000000002Q10.21877,17.72118,10.28701,17.69291Q10.355260000000001,17.66464,10.41668,17.6236Q10.478100000000001,17.58256,10.53033,17.53033Q10.58256,17.4781,10.6236,17.41668Q10.66464,17.35526,10.692910000000001,17.287010000000002Q10.72118,17.21877,10.73559,17.14632Q10.75,17.07387,10.75,17L10.75,10Q10.75,9.9261315,10.73559,9.853682Q10.72118,9.781233,10.692910000000001,9.712987Q10.66464,9.644742,10.6236,9.583322Q10.58256,9.521903,10.53033,9.46967Q10.478100000000001,9.417437,10.41668,9.376398Q10.355260000000001,9.335359,10.28701,9.30709Q10.21877,9.278822,10.14632,9.264410999999999Q10.07387,9.25,10,9.25L6,9.25Q5.9261315,9.25,5.853682,9.264410999999999Q5.781233,9.278822,5.712987,9.30709Q5.644742,9.335359,5.583322,9.376398Q5.521903,9.417437,5.46967,9.46967Q5.417437,9.521903,5.376398,9.583322Q5.335359,9.644742,5.30709,9.712987Q5.278822,9.781233,5.264411,9.853682Q5.25,9.9261315,5.25,10Q5.25,10.0738685,5.264411,10.146318Q5.278822,10.218767,5.30709,10.287013Q5.335359,10.355258,5.376398,10.416678Q5.417437,10.478097,5.46967,10.53033Q5.521903,10.582563,5.583322,10.623602Q5.644742,10.664641,5.712987,10.69291Q5.781233,10.721178,5.853682,10.735589000000001Q5.9261315,10.75,6,10.75L9.25,10.75L9.25,16.25Z" fill-rule="evenodd" fill="#2D2E33" fill-opacity="1"/></g><g><path d="M10,12.75L7,12.75Q6.9261315,12.75,6.853682,12.764410999999999Q6.781233,12.778822,6.712987,12.80709Q6.644742,12.835359,6.583322,12.876398Q6.521903,12.917437,6.46967,12.96967Q6.417437,13.021903,6.376398,13.083322Q6.335359,13.144742,6.30709,13.212987Q6.278822,13.281233,6.264411,13.353682Q6.25,13.4261315,6.25,13.5Q6.25,13.5738685,6.264411,13.646318Q6.278822,13.718767,6.30709,13.787013Q6.335359,13.855258,6.376398,13.916678Q6.417437,13.978097,6.46967,14.03033Q6.521903,14.082563,6.583322,14.123602Q6.644742,14.164641,6.712987,14.19291Q6.781233,14.221178,6.853682,14.235589000000001Q6.9261315,14.25,7,14.25L10,14.25Q10.07387,14.25,10.14632,14.235589000000001Q10.21877,14.221178,10.28701,14.19291Q10.35526,14.164641,10.41668,14.123602Q10.4781,14.082563,10.53033,14.03033Q10.58256,13.978097,10.6236,13.916678Q10.66464,13.855258,10.69291,13.787013Q10.72118,13.718767,10.73559,13.646318Q10.75,13.5738685,10.75,13.5Q10.75,13.4261315,10.73559,13.353682Q10.72118,13.281233,10.69291,13.212987Q10.66464,13.144742,10.6236,13.083322Q10.58256,13.021903,10.53033,12.96967Q10.4781,12.917437,10.41668,12.876398Q10.35526,12.835359,10.28701,12.80709Q10.21877,12.778822,10.14632,12.764410999999999Q10.07387,12.75,10,12.75Z" fill-rule="evenodd" fill="#2D2E33" fill-opacity="1"/></g></g></svg>