<svg xmlns="http://www.w3.org/2000/svg" xmlns:xlink="http://www.w3.org/1999/xlink" fill="none" version="1.1" width="20" height="20" viewBox="0 0 20 20"><defs><clipPath id="master_svg0_4019_53327"><rect x="0" y="0" width="20" height="20" rx="0"/></clipPath></defs><g clip-path="url(#master_svg0_4019_53327)"><g><path d="M1.75,2.5Q1.75,2.4261315,1.764411,2.353682Q1.778822,2.281233,1.80709,2.212987Q1.835359,2.144742,1.876398,2.083322Q1.917437,2.021903,1.96967,1.96967Q2.021903,1.917437,2.083322,1.876398Q2.144742,1.835359,2.212987,1.80709Q2.281233,1.778822,2.353682,1.764411Q2.4261315,1.75,2.5,1.75Q2.5738685,1.75,2.646318,1.764411Q2.718767,1.778822,2.787013,1.80709Q2.855258,1.835359,2.916678,1.876398Q2.978097,1.917437,3.03033,1.96967Q3.082563,2.021903,3.123602,2.083322Q3.164641,2.144742,3.19291,2.212987Q3.221178,2.281233,3.235589,2.353682Q3.25,2.4261315,3.25,2.5L3.25,16.75L17.5,16.75Q17.573900000000002,16.75,17.6463,16.764400000000002Q17.7188,16.7788,17.787,16.8071Q17.8553,16.8354,17.9167,16.8764Q17.978099999999998,16.9174,18.0303,16.9697Q18.0826,17.021900000000002,18.1236,17.0833Q18.1646,17.1447,18.1929,17.213Q18.2212,17.2812,18.235599999999998,17.3537Q18.25,17.426099999999998,18.25,17.5Q18.25,17.573900000000002,18.235599999999998,17.6463Q18.2212,17.7188,18.1929,17.787Q18.1646,17.8553,18.1236,17.9167Q18.0826,17.978099999999998,18.0303,18.0303Q17.978099999999998,18.0826,17.9167,18.1236Q17.8553,18.1646,17.787,18.1929Q17.7188,18.2212,17.6463,18.235599999999998Q17.573900000000002,18.25,17.5,18.25L17.4983,18.25L2.5,18.25Q2.4261315,18.25,2.353682,18.235599999999998Q2.281233,18.2212,2.212987,18.1929Q2.144742,18.1646,2.083322,18.1236Q2.021903,18.0826,1.96967,18.0303Q1.917437,17.978099999999998,1.876398,17.9167Q1.835359,17.8553,1.80709,17.787Q1.778822,17.7188,1.764411,17.6463Q1.75,17.573900000000002,1.75,17.5L1.75,2.5Z" fill-rule="evenodd" fill="#333333" fill-opacity="1"/></g><g><path d="M18.1768078125,2.822451Q18.2497078125,2.669456,18.2497078125,2.5Q18.2497078125,2.4261315,18.2353078125,2.353682Q18.2208078125,2.281233,18.1926078125,2.212987Q18.1643078125,2.144742,18.123307812500002,2.083322Q18.082207812500002,2.021903,18.0300078125,1.96967Q17.9778078125,1.917437,17.9163078125,1.876398Q17.854907812500002,1.835359,17.786707812499998,1.80709Q17.7184078125,1.778822,17.646007812500002,1.764411Q17.5735078125,1.75,17.4997078125,1.75Q17.3934078125,1.75,17.2913078125,1.77954Q17.189107812499998,1.80908,17.0993078125,1.8658320000000002Q17.0094078125,1.922585,16.938807812500002,2.00208Q16.8682078125,2.081575,16.8225078125,2.17755L13.0878678125,10.02035L9.6680678125,6.94253Q9.5571778125,6.84273,9.4165378125,6.79296Q9.2758978125,6.7432,9.1269178125,6.75104Q8.9779478125,6.75888,8.8433078125,6.82313Q8.7086678125,6.88739,8.6088678125,6.99828Q8.540937812500001,7.07376,8.495517812500001,7.16459L5.1622528125,13.8311L5.1621878125,13.8313Q5.0830078125,13.9896,5.0830078125,14.1667Q5.0830078125,14.2405,5.0974188125,14.313Q5.1118298125,14.3854,5.1400978125,14.4537Q5.1683668125,14.5219,5.2094058125,14.5833Q5.2504448125,14.6448,5.3026778125,14.697Q5.3549108125,14.7492,5.4163298125,14.7903Q5.4777498125,14.8313,5.5459948125,14.8596Q5.6142408125,14.8878,5.6866898125,14.9023Q5.7591393125,14.9167,5.8330078125,14.9167Q5.9374708125,14.9167,6.0379578125,14.8881Q6.1384448125,14.8596,6.2273058125,14.8047Q6.3161678125,14.7497,6.3866388125,14.6726Q6.4571108125,14.5955,6.5038278125,14.5021L6.5038938125,14.5019L9.3966978125,8.716339999999999L12.831287812500001,11.80747Q12.9122278125,11.88032,13.0105578125,11.92715Q13.1452478125,11.99128,13.2942378125,11.999Q13.4432178125,12.00671,13.583817812500001,11.95682Q13.7244078125,11.90693,13.8352078125,11.80704Q13.9460178125,11.70714,14.0101578125,11.57245L18.1762078125,2.823657L18.1768078125,2.82245L18.1768078125,2.822451Z" fill-rule="evenodd" fill="#333333" fill-opacity="1"/></g></g></svg>