<svg xmlns="http://www.w3.org/2000/svg" xmlns:xlink="http://www.w3.org/1999/xlink" fill="none" version="1.1" width="16" height="16" viewBox="0 0 16 16"><defs><clipPath id="master_svg0_4158_45421"><rect x="0" y="0" width="16" height="16" rx="0"/></clipPath></defs><g clip-path="url(#master_svg0_4158_45421)"><g><path d="M1.5259535625,6.427788125C2.1610525625,3.802938125,4.3171115625,1.820630125,6.9859515625,1.407785225C9.6542215625,0.997132125,12.3063015625,2.2386391249999997,13.7000015625,4.550788125C15.8741015625,8.156798125,14.2035015625,12.850378125,10.2399515625,14.271778125C8.9970315625,14.716478125,7.6499615625,14.781578125,6.3699515625,14.458778125C3.7633215625,13.818878125,1.8012935625,11.668078125,1.4029536625,9.013788125C1.2732405625,8.152148125,1.3146979625,7.273388125,1.5249535625,6.427788125L1.5259535625,6.427788125Z" fill="#949E9C" fill-opacity="1"/></g><g><path d="M6.49111,6.17204L6.86038,7.25764L8.02751,7.26651C8.17862,7.26762,8.24128,7.4567499999999995,8.1197,7.5447299999999995L7.18081,8.22451L7.53284,9.31562C7.57838,9.45691,7.41437,9.57371,7.29143,9.487580000000001L6.34193,8.82208L5.392425,9.48754C5.269481,9.57371,5.105468,9.45682,5.151013,9.31558L5.50304,8.22447L4.5641557,7.5447299999999995C4.4425721,7.4567,4.50522872,7.26762,4.656342,7.26651L5.82347,7.25764L6.19274,6.17204C6.24057,6.03144,6.44333,6.03144,6.49111,6.17204ZM10.729289999999999,6.4395500000000006L10.99409,6.79361L11.42141,6.6625700000000005C11.47674,6.64562,11.52224,6.70748,11.48837,6.75356L11.22677,7.10982L11.48591,7.4678C11.51947,7.514139999999999,11.47354,7.575699999999999,11.41834,7.55837L10.991900000000001,7.42453L10.724730000000001,7.77683C10.69015,7.822430000000001,10.61622,7.7986,10.616,7.74181L10.61403,7.302770000000001L10.18973,7.16248C10.13484,7.14428,10.13506,7.0680499999999995,10.19013,7.0502400000000005L10.615300000000001,6.91274L10.6203,6.47375C10.62092,6.417,10.69502,6.39373,10.729289999999999,6.4395500000000006ZM9.11716,5.384227L9.56229,5.431636L9.752189999999999,5.0340737C9.776810000000001,4.98262,9.85403,4.99143947,9.86588,5.0470664L9.9574,5.476766L10.4017,5.530973C10.45923,5.537986,10.474540000000001,5.612757,10.42421,5.641023L10.03568,5.8591429999999995L10.12041,6.29022C10.13138,6.34606,10.06359,6.3834,10.02063,6.34524L9.68896,6.05033L9.297049999999999,6.26251C9.24633,6.29,9.189070000000001,6.23829,9.21285,6.18645L9.39639,5.786007L9.069420000000001,5.48606C9.02712,5.447427,9.05955,5.378119,9.11716,5.384227ZM9.82086,9.638760000000001L9.55606,9.99283L9.12874,9.86178C9.073409999999999,9.84483,9.02791,9.9067,9.061779999999999,9.95278L9.32338,10.30904L9.06424,10.66702C9.03067,10.71335,9.076609999999999,10.77492,9.13181,10.75758L9.558250000000001,10.62374L9.825420000000001,10.976040000000001C9.86,11.021650000000001,9.93393,10.997810000000001,9.934149999999999,10.94102L9.936119999999999,10.50199L10.36041,10.36169C10.41535,10.343499999999999,10.41508,10.26726,10.360019999999999,10.24945L9.93485,10.11195L9.92985,9.67296C9.92915,9.61626,9.85512,9.5929,9.82086,9.638760000000001ZM11.4329,8.64707L10.987770000000001,8.69448L10.79787,8.29692C10.77325,8.24546,10.69603,8.25428,10.68418,8.30991L10.59261,8.739609999999999L10.14831,8.79382C10.09079,8.80083,10.075479999999999,8.8756,10.1258,8.90387L10.51434,9.12199L10.42961,9.55306C10.41864,9.6089,10.48643,9.64625,10.52939,9.60809L10.861049999999999,9.31317L11.25296,9.52536C11.30369,9.55285,11.360949999999999,9.50114,11.33716,9.449300000000001L11.15363,9.04885L11.480599999999999,8.748899999999999C11.52303,8.71027,11.4906,8.64096,11.4329,8.64707Z" fill="#F7F8F8" fill-opacity="1"/></g></g></svg>