<svg xmlns="http://www.w3.org/2000/svg" xmlns:xlink="http://www.w3.org/1999/xlink" fill="none" version="1.1" width="20" height="20" viewBox="0 0 20 20"><defs><clipPath id="master_svg0_sa4143_45016"><rect x="0" y="0" width="20" height="20" rx="0"/></clipPath></defs><g clip-path="url(#master_svg0_sa4143_45016)"><g><path d="M4.9320778125,4.93110125Q2.8330078125,7.03016125,2.8330078125,9.99870125Q2.8330078125,12.96723125,4.9320778125,15.06633125Q7.0311478125,17.16533125,9.9996778125,17.16533125Q12.9682078125,17.16533125,15.0673078125,15.06633125Q17.1663078125,12.96723125,17.1663078125,9.99870125Q17.1663078125,7.03017125,15.0673078125,4.93110125Q12.9682078125,2.83203125,9.9996778125,2.83203125Q7.0311378125,2.83203125,4.9320778125,4.93110125ZM5.6391778125,14.35923125Q3.8330078125,12.55301125,3.8330078125,9.99870125Q3.8330078125,7.44438125,5.6391778125,5.63820125Q7.4453578125,3.83203125,9.9996778125,3.83203125Q12.5539878125,3.83203125,14.3602078125,5.63820125Q16.1663078125,7.44438125,16.1663078125,9.99870125Q16.1663078125,12.55301125,14.3602078125,14.35923125Q12.5539878125,16.16533125,9.9996778125,16.16533125Q7.4453578125,16.16533125,5.6391778125,14.35923125Z" fill-rule="evenodd" fill="#949E9C" fill-opacity="1"/></g><g><path d="M9.5,7.33203125Q9.5,7.28278555,9.509607,7.23448615Q9.519214999999999,7.18618625,9.53806,7.14068925Q9.556906,7.09519225,9.584265,7.05424625Q9.611625,7.01330025,9.646447,6.97847825Q9.681269,6.94365625,9.722215,6.91629625Q9.763161,6.88893725,9.808658,6.87009125Q9.854155,6.85124625,9.9024549,6.84163825Q9.9507543,6.83203125,10,6.83203125Q10.0492457,6.83203125,10.0975451,6.84163825Q10.145845,6.85124625,10.191342,6.87009125Q10.236839,6.88893725,10.277785,6.91629625Q10.318731,6.94365625,10.353553,6.97847825Q10.388375,7.01330025,10.415735,7.05424625Q10.443094,7.09519225,10.46194,7.14068925Q10.480785000000001,7.18618625,10.490393,7.23448615Q10.5,7.28278555,10.5,7.33203125L10.5,12.66536125Q10.5,12.71461125,10.490393,12.76291125Q10.480785000000001,12.81121125,10.46194,12.85670125Q10.443094,12.902201250000001,10.415735,12.94315125Q10.388375,12.984091249999999,10.353553,13.01892125Q10.318731,13.05374125,10.277785,13.08110125Q10.236839,13.108461250000001,10.191342,13.12730125Q10.145845,13.146151249999999,10.0975451,13.155761250000001Q10.0492457,13.16536125,10,13.16536125Q9.9507543,13.16536125,9.9024549,13.155761250000001Q9.854155,13.146151249999999,9.808658,13.12730125Q9.763161,13.108461250000001,9.722215,13.08110125Q9.681269,13.05374125,9.646447,13.01892125Q9.611625,12.984091249999999,9.584265,12.94315125Q9.556906,12.902201250000001,9.53806,12.85670125Q9.519214999999999,12.81121125,9.509607,12.76291125Q9.5,12.71461125,9.5,12.66536125L9.5,7.33203125Z" fill-rule="evenodd" fill="#949E9C" fill-opacity="1"/></g><g><path d="M7.3330078125,9.5L12.6663378125,9.5Q12.7155878125,9.5,12.7638878125,9.509607Q12.8121878125,9.519214999999999,12.8576778125,9.53806Q12.903177812500001,9.556906,12.9441278125,9.584265Q12.985067812499999,9.611625,13.0198978125,9.646447Q13.0547178125,9.681269,13.0820778125,9.722215Q13.109437812500001,9.763161,13.1282778125,9.808658Q13.147127812499999,9.854155,13.156737812500001,9.9024549Q13.1663378125,9.9507543,13.1663378125,10Q13.1663378125,10.0492457,13.156737812500001,10.0975451Q13.147127812499999,10.145845,13.1282778125,10.191342Q13.109437812500001,10.236839,13.0820778125,10.277785Q13.0547178125,10.318731,13.0198978125,10.353553Q12.985067812499999,10.388375,12.9441278125,10.415735Q12.903177812500001,10.443094,12.8576778125,10.46194Q12.8121878125,10.480785000000001,12.7638878125,10.490393Q12.7155878125,10.5,12.6663378125,10.5L7.3330078125,10.5Q7.2837621125,10.5,7.2354627125,10.490393Q7.1871628125,10.480785000000001,7.1416658125,10.46194Q7.0961688125,10.443094,7.0552228125,10.415735Q7.0142768125,10.388375,6.9794548125,10.353553Q6.9446328125,10.318731,6.9172728125,10.277785Q6.8899138125,10.236839,6.8710678125,10.191342Q6.8522228125,10.145845,6.8426148125,10.0975451Q6.8330078125,10.0492457,6.8330078125,10Q6.8330078125,9.9507543,6.8426148125,9.9024549Q6.8522228125,9.854155,6.8710678125,9.808658Q6.8899138125,9.763161,6.9172728125,9.722215Q6.9446328125,9.681269,6.9794548125,9.646447Q7.0142768125,9.611625,7.0552228125,9.584265Q7.0961688125,9.556906,7.1416658125,9.53806Q7.1871628125,9.519214999999999,7.2354627125,9.509607Q7.2837621125,9.5,7.3330078125,9.5Z" fill-rule="evenodd" fill="#949E9C" fill-opacity="1"/></g></g></svg>