<svg xmlns="http://www.w3.org/2000/svg" xmlns:xlink="http://www.w3.org/1999/xlink" fill="none" version="1.1" width="20" height="20" viewBox="0 0 20 20"><defs><clipPath id="master_svg0_3853_35416"><rect x="0" y="0" width="20" height="20" rx="0"/></clipPath></defs><g clip-path="url(#master_svg0_3853_35416)"><g><path d="M19.082715625,10.00001701171875Q19.082715625,10.22300701171875,19.071715625,10.44571701171875Q19.060815625,10.66843701171875,19.038915625,10.89034701171875Q19.017115625,11.11225701171875,18.984315625,11.33281701171875Q18.951615625,11.55338701171875,18.908115625,11.77208701171875Q18.864615625,11.99078701171875,18.810415625,12.20708701171875Q18.756315625,12.42338701171875,18.691515625,12.63678701171875Q18.626815625,12.85018701171875,18.551715625,13.06008701171875Q18.476615625,13.27008701171875,18.391215625,13.47608701171875Q18.305915625,13.68208701171875,18.210615625,13.88368701171875Q18.115215625,14.08518701171875,18.010115625,14.28188701171875Q17.905015625,14.47848701171875,17.790415625,14.66978701171875Q17.675715625,14.86108701171875,17.551815625,15.04648701171875Q17.428015625,15.23188701171875,17.295115625,15.41098701171875Q17.162315624999998,15.59008701171875,17.020815624999997,15.76238701171875Q16.879415625,15.93478701171875,16.729615625,16.09998701171875Q16.579915624999998,16.26518701171875,16.422215625,16.42288701171875Q16.264515625,16.580587011718748,16.099315625,16.73028701171875Q15.934115625,16.88008701171875,15.761715625,17.021487011718747Q15.589415625,17.162987011718748,15.410315625,17.29578701171875Q15.231215625,17.42868701171875,15.045815625,17.55248701171875Q14.860415625,17.67638701171875,14.669115625,17.79108701171875Q14.477815625,17.90568701171875,14.281215625,18.01078701171875Q14.084515625,18.11588701171875,13.883015625,18.21128701171875Q13.681415625,18.30658701171875,13.475415625,18.39188701171875Q13.269415625,18.47728701171875,13.059415625,18.55238701171875Q12.849515625,18.62748701171875,12.636115625,18.69218701171875Q12.422715625,18.75698701171875,12.206415625,18.81108701171875Q11.990115625,18.86528701171875,11.771415625,18.90878701171875Q11.552715625,18.95228701171875,11.332145625,18.98498701171875Q11.111585625,19.01778701171875,10.889675625,19.03958701171875Q10.667765625,19.06148701171875,10.445045625,19.07238701171875Q10.222335625,19.08338701171875,9.999345625,19.08338701171875Q9.776365625,19.08338701171875,9.553645625,19.07238701171875Q9.330935625,19.06148701171875,9.109025625000001,19.03958701171875Q8.887115625,19.01778701171875,8.666545625000001,18.98498701171875Q8.445975624999999,18.95228701171875,8.227275625,18.90878701171875Q8.008575624999999,18.86528701171875,7.792275625,18.81108701171875Q7.575975625,18.75698701171875,7.362595625,18.69218701171875Q7.149215625,18.62748701171875,6.939265625,18.55238701171875Q6.729315625,18.47728701171875,6.523305625,18.39188701171875Q6.317295625,18.30658701171875,6.115725625,18.21128701171875Q5.914145625,18.11588701171875,5.717495625,18.01078701171875Q5.520845625,17.90568701171875,5.329585625,17.79108701171875Q5.138325625,17.67638701171875,4.952915625,17.55248701171875Q4.767515625,17.42868701171875,4.588415625,17.29578701171875Q4.409315625,17.162987011718748,4.236945625000001,17.021487011718747Q4.064575625,16.88008701171875,3.899355625,16.73028701171875Q3.734135625,16.580587011718748,3.576465625,16.42288701171875Q3.418785625,16.26518701171875,3.269045625,16.09998701171875Q3.119295625,15.93478701171875,2.977835625,15.76238701171875Q2.836375625,15.59008701171875,2.7035456250000003,15.41098701171875Q2.570715625,15.23188701171875,2.446833625,15.04648701171875Q2.322950625,14.86108701171875,2.2083136249999997,14.66978701171875Q2.0936776249999998,14.47848701171875,1.988563625,14.28188701171875Q1.883450625,14.08518701171875,1.788112625,13.88368701171875Q1.692775225,13.68208701171875,1.607443225,13.47608701171875Q1.522111625,13.27008701171875,1.446990625,13.06008701171875Q1.371869625,12.85018701171875,1.307140625,12.63678701171875Q1.242412625,12.42338701171875,1.188231625,12.20708701171875Q1.1340516250000001,11.99078701171875,1.090549625,11.77208701171875Q1.047047625,11.55338701171875,1.014328625,11.33281701171875Q0.981610625,11.11225701171875,0.959754625,10.89034701171875Q0.937898625,10.66843701171875,0.926956625,10.44571701171875Q0.916015625,10.22300701171875,0.916015625,10.00001701171875Q0.916015625,9.77703701171875,0.926956625,9.55431701171875Q0.937898625,9.33160701171875,0.959754625,9.109697011718751Q0.981610625,8.88778701171875,1.014328625,8.667217011718751Q1.047047625,8.446647011718749,1.090549625,8.22794701171875Q1.1340516250000001,8.009247011718749,1.188231625,7.79294701171875Q1.242412625,7.57664701171875,1.307140625,7.36326701171875Q1.371869625,7.14988701171875,1.446990625,6.93993701171875Q1.522111625,6.72998701171875,1.607443225,6.52397701171875Q1.692775225,6.31796701171875,1.788112625,6.11639701171875Q1.883450625,5.91481701171875,1.988563625,5.71816701171875Q2.0936776249999998,5.52151701171875,2.2083136249999997,5.33025701171875Q2.322950625,5.13899701171875,2.446833625,4.95358701171875Q2.570715625,4.76818701171875,2.7035456250000003,4.58908701171875Q2.836375625,4.40998701171875,2.977835625,4.237617011718751Q3.119295625,4.06524701171875,3.269045625,3.90002701171875Q3.418785625,3.73480701171875,3.576465625,3.57713701171875Q3.734135625,3.41945701171875,3.899355625,3.26971701171875Q4.064575625,3.11996701171875,4.236945625000001,2.97850701171875Q4.409315625,2.83704701171875,4.588415625,2.7042170117187503Q4.767515625,2.57138701171875,4.952915625,2.44750501171875Q5.138325625,2.32362201171875,5.329585625,2.2089850117187497Q5.520845625,2.0943490117187498,5.717495625,1.98923501171875Q5.914145625,1.88412201171875,6.115725625,1.78878401171875Q6.317295625,1.69344661171875,6.523305625,1.60811461171875Q6.729315625,1.52278301171875,6.939265625,1.44766201171875Q7.149215625,1.37254101171875,7.362595625,1.30781201171875Q7.575975625,1.24308401171875,7.792275625,1.18890301171875Q8.008575624999999,1.1347230117187501,8.227275625,1.09122101171875Q8.445975624999999,1.04771901171875,8.666545625000001,1.01500001171875Q8.887115625,0.98228201171875,9.109025625000001,0.96042601171875Q9.330935625,0.93857001171875,9.553645625,0.92762801171875Q9.776365625,0.91668701171875,9.999345625,0.91668701171875Q10.222335625,0.91668701171875,10.445045625,0.92762801171875Q10.667765625,0.93857001171875,10.889675625,0.96042601171875Q11.111585625,0.98228201171875,11.332145625,1.01500001171875Q11.552715625,1.04771901171875,11.771415625,1.09122101171875Q11.990115625,1.1347230117187501,12.206415625,1.18890301171875Q12.422715625,1.24308401171875,12.636115625,1.30781201171875Q12.849515625,1.37254101171875,13.059415625,1.44766201171875Q13.269415625,1.52278301171875,13.475415625,1.60811461171875Q13.681415625,1.69344661171875,13.883015625,1.78878401171875Q14.084515625,1.88412201171875,14.281215625,1.98923501171875Q14.477815625,2.0943490117187498,14.669115625,2.2089850117187497Q14.860415625,2.32362201171875,15.045815625,2.44750501171875Q15.231215625,2.57138701171875,15.410315625,2.7042170117187503Q15.589415625,2.83704701171875,15.761715625,2.97850701171875Q15.934115625,3.11996701171875,16.099315625,3.26971701171875Q16.264515625,3.41945701171875,16.422215625,3.57713701171875Q16.579915624999998,3.73480701171875,16.729615625,3.90002701171875Q16.879415625,4.06524701171875,17.020815624999997,4.237617011718751Q17.162315624999998,4.40998701171875,17.295115625,4.58908701171875Q17.428015625,4.76818701171875,17.551815625,4.95358701171875Q17.675715625,5.13899701171875,17.790415625,5.33025701171875Q17.905015625,5.52151701171875,18.010115625,5.71816701171875Q18.115215625,5.91481701171875,18.210615625,6.11639701171875Q18.305915625,6.31796701171875,18.391215625,6.52397701171875Q18.476615625,6.72998701171875,18.551715625,6.93993701171875Q18.626815625,7.14988701171875,18.691515625,7.36326701171875Q18.756315625,7.57664701171875,18.810415625,7.79294701171875Q18.864615625,8.009247011718749,18.908115625,8.22794701171875Q18.951615625,8.446647011718749,18.984315625,8.667217011718751Q19.017115625,8.88778701171875,19.038915625,9.109697011718751Q19.060815625,9.33160701171875,19.071715625,9.55431701171875Q19.082715625,9.77703701171875,19.082715625,10.00001701171875ZM17.582715625,10.00001701171875Q17.582715625,9.81385701171875,17.573515625,9.62792701171875Q17.564415625000002,9.44198701171875,17.546215625000002,9.25672701171875Q17.527915625,9.07145701171875,17.500615625000002,8.88731701171875Q17.473315624999998,8.703167011718751,17.437015625,8.52058701171875Q17.400615625,8.33799701171875,17.355415625,8.15741701171875Q17.310215624999998,7.97683701171875,17.256115625,7.79869701171875Q17.202115624999998,7.62054701171875,17.139415624999998,7.44526701171875Q17.076715625,7.26999701171875,17.005415624999998,7.09800701171875Q16.934215625,6.92601701171875,16.854615625,6.75772701171875Q16.775015625,6.58943701171875,16.687215625,6.42525701171875Q16.599515625000002,6.26108701171875,16.503815625,6.10140701171875Q16.408115625,5.94172701171875,16.304615625,5.78694701171875Q16.201215625,5.63215701171875,16.090315625000002,5.48263701171875Q15.979415625,5.3331070117187505,15.861315625,5.18920701171875Q15.743215625,5.04529701171875,15.618215625,4.907367011718749Q15.493215625,4.76942701171875,15.361615625,4.6377970117187495Q15.229915625,4.50615701171875,15.092015625,4.381137011718749Q14.954115625,4.25612701171875,14.810115625,4.13802701171875Q14.666215625,4.0199270117187496,14.516715625,3.90902701171875Q14.367215625,3.79813701171875,14.212415625,3.69470701171875Q14.057615625,3.59128701171875,13.897915625,3.49557701171875Q13.738315625,3.39987701171875,13.574115625,3.31211701171875Q13.409915625,3.22435701171875,13.241615625,3.1447670117187503Q13.073315625,3.06517701171875,12.901315625,2.9939370117187503Q12.729415625,2.92269701171875,12.554115625,2.85997701171875Q12.378815625,2.79726701171875,12.200715625,2.74322701171875Q12.022515625,2.68918701171875,11.841915625,2.6439500117187498Q11.661365625,2.59871701171875,11.478785625,2.56239901171875Q11.296195625,2.52608001171875,11.112055625,2.49876501171875Q10.927905625,2.47145001171875,10.742645625,2.4532030117187498Q10.557385625,2.43495601171875,10.371445625,2.42582101171875Q10.185505625,2.41668701171875,9.999345625,2.41668701171875Q9.813185625,2.41668701171875,9.627255625,2.42582101171875Q9.441315625,2.43495601171875,9.256055625,2.4532030117187498Q9.070785625,2.47145001171875,8.886645625,2.49876501171875Q8.702495625000001,2.52608001171875,8.519915625,2.56239901171875Q8.337325625,2.59871701171875,8.156745625,2.6439500117187498Q7.976165625,2.68918701171875,7.798025625,2.74322701171875Q7.619875625,2.79726701171875,7.444595625,2.85997701171875Q7.269325625,2.92269701171875,7.097335625,2.9939370117187503Q6.925345625,3.06517701171875,6.757055625,3.1447670117187503Q6.588765625,3.22435701171875,6.424585625,3.31211701171875Q6.260415625,3.39987701171875,6.100735625,3.49557701171875Q5.941055625,3.59128701171875,5.786275625,3.69470701171875Q5.631485625,3.79813701171875,5.481965625,3.90902701171875Q5.3324356250000005,4.0199270117187496,5.188535625,4.13802701171875Q5.044625625,4.25612701171875,4.906695624999999,4.381137011718749Q4.768755625,4.50615701171875,4.6371256249999995,4.6377970117187495Q4.505485625,4.76942701171875,4.380465624999999,4.907367011718749Q4.255455625,5.04529701171875,4.137355625,5.18920701171875Q4.0192556249999996,5.3331070117187505,3.908355625,5.48263701171875Q3.797465625,5.63215701171875,3.694035625,5.78694701171875Q3.590615625,5.94172701171875,3.494905625,6.10140701171875Q3.399205625,6.26108701171875,3.311445625,6.42525701171875Q3.223685625,6.58943701171875,3.1440956250000003,6.75772701171875Q3.064505625,6.92601701171875,2.9932656250000003,7.09800701171875Q2.922025625,7.26999701171875,2.859305625,7.44526701171875Q2.796595625,7.62054701171875,2.742555625,7.79869701171875Q2.688515625,7.97683701171875,2.6432786249999998,8.15741701171875Q2.598045625,8.33799701171875,2.561726625,8.52058701171875Q2.525408625,8.703167011718751,2.498093625,8.88731701171875Q2.470778625,9.07145701171875,2.4525316249999998,9.25672701171875Q2.434284625,9.44198701171875,2.425149625,9.62792701171875Q2.416015625,9.81385701171875,2.416015625,10.00001701171875Q2.416015625,10.18617701171875,2.425149625,10.37211701171875Q2.434284625,10.55805701171875,2.4525316249999998,10.74331701171875Q2.470778625,10.92857701171875,2.498093625,11.11272701171875Q2.525408625,11.29686701171875,2.561726625,11.47945701171875Q2.598045625,11.66203701171875,2.6432786249999998,11.84258701171875Q2.688515625,12.02318701171875,2.742555625,12.20138701171875Q2.796595625,12.37948701171875,2.859305625,12.55478701171875Q2.922025625,12.73008701171875,2.9932656250000003,12.90198701171875Q3.064505625,13.07398701171875,3.1440956250000003,13.24228701171875Q3.223685625,13.41058701171875,3.311445625,13.57478701171875Q3.399205625,13.73898701171875,3.494905625,13.89858701171875Q3.590615625,14.05828701171875,3.694035625,14.21308701171875Q3.797465625,14.36788701171875,3.908355625,14.51738701171875Q4.0192556249999996,14.66688701171875,4.137355625,14.81078701171875Q4.255455625,14.95478701171875,4.380465624999999,15.09268701171875Q4.505485625,15.23058701171875,4.6371256249999995,15.36228701171875Q4.768755625,15.49388701171875,4.906695624999999,15.61888701171875Q5.044625625,15.74388701171875,5.188535625,15.86198701171875Q5.3324356250000005,15.98008701171875,5.481965625,16.090987011718752Q5.631485625,16.20188701171875,5.786275625,16.30528701171875Q5.941055625,16.40878701171875,6.100735625,16.50448701171875Q6.260415625,16.600187011718752,6.424585625,16.68788701171875Q6.588765625,16.77568701171875,6.757055625,16.85528701171875Q6.925345625,16.93488701171875,7.097335625,17.006087011718748Q7.269325625,17.07738701171875,7.444595625,17.140087011718748Q7.619875625,17.202787011718748,7.798025625,17.25678701171875Q7.976165625,17.310887011718748,8.156745625,17.35608701171875Q8.337325625,17.40128701171875,8.519915625,17.43768701171875Q8.702495625000001,17.473987011718748,8.886645625,17.501287011718752Q9.070785625,17.52858701171875,9.256055625,17.54678701171875Q9.441315625,17.565087011718752,9.627255625,17.57418701171875Q9.813185625,17.58338701171875,9.999345625,17.58338701171875Q10.185505625,17.58338701171875,10.371445625,17.57418701171875Q10.557385625,17.565087011718752,10.742645625,17.546887011718752Q10.927905625,17.52858701171875,11.112055625,17.501287011718752Q11.296195625,17.473987011718748,11.478785625,17.43768701171875Q11.661365625,17.40128701171875,11.841915625,17.35608701171875Q12.022515625,17.310887011718748,12.200715625,17.25678701171875Q12.378815625,17.202787011718748,12.554115625,17.140087011718748Q12.729415625,17.07738701171875,12.901315625,17.006087011718748Q13.073315625,16.93488701171875,13.241615625,16.85528701171875Q13.409915625,16.77568701171875,13.574115625,16.68788701171875Q13.738315625,16.600187011718752,13.897915625,16.50448701171875Q14.057615625,16.40878701171875,14.212415625,16.30528701171875Q14.367215625,16.20188701171875,14.516715625,16.090987011718752Q14.666215625,15.98008701171875,14.810115625,15.86198701171875Q14.954115625,15.74388701171875,15.092015625,15.61888701171875Q15.229915625,15.49388701171875,15.361615625,15.36228701171875Q15.493215625,15.23058701171875,15.618215625,15.09268701171875Q15.743215625,14.95478701171875,15.861315625,14.81078701171875Q15.979415625,14.66688701171875,16.090315625000002,14.51738701171875Q16.201215625,14.36788701171875,16.304615625,14.21308701171875Q16.408115625,14.05828701171875,16.503815625,13.89858701171875Q16.599515625000002,13.73898701171875,16.687215625,13.57478701171875Q16.775015625,13.41058701171875,16.854615625,13.24228701171875Q16.934215625,13.07398701171875,17.005415624999998,12.90198701171875Q17.076715625,12.73008701171875,17.139415624999998,12.55478701171875Q17.202115624999998,12.37948701171875,17.256115625,12.20138701171875Q17.310215624999998,12.02318701171875,17.355415625,11.84258701171875Q17.400615625,11.66203701171875,17.437015625,11.47945701171875Q17.473315624999998,11.29686701171875,17.500615625000002,11.11272701171875Q17.527915625,10.92857701171875,17.546115625,10.74331701171875Q17.564415625000002,10.55805701171875,17.573515625,10.37211701171875Q17.582715625,10.18617701171875,17.582715625,10.00001701171875Z" fill="#2D2E33" fill-opacity="1"/></g><g><path d="M9.25,6.66668701171875Q9.25,6.59281851171875,9.264410999999999,6.52036901171875Q9.278822,6.44792001171875,9.30709,6.37967401171875Q9.335359,6.31142901171875,9.376398,6.25000901171875Q9.417437,6.18859001171875,9.46967,6.13635701171875Q9.521903,6.08412401171875,9.583322,6.04308501171875Q9.644742,6.00204601171875,9.712987,5.97377701171875Q9.781233,5.94550901171875,9.853682,5.93109801171875Q9.9261315,5.91668701171875,10,5.91668701171875Q10.0738685,5.91668701171875,10.146318,5.93109801171875Q10.218767,5.94550901171875,10.287013,5.97377701171875Q10.355258,6.00204601171875,10.416678,6.04308501171875Q10.478097,6.08412401171875,10.53033,6.13635701171875Q10.582563,6.18859001171875,10.623602,6.25000901171875Q10.664641,6.31142901171875,10.69291,6.37967401171875Q10.721178,6.44792001171875,10.735589000000001,6.52036901171875Q10.75,6.59281851171875,10.75,6.66668701171875L10.75,13.33335701171875Q10.75,13.40721701171875,10.735589000000001,13.47966701171875Q10.721178,13.55211701171875,10.69291,13.62036701171875Q10.664641,13.68860701171875,10.623602,13.75002701171875Q10.582563,13.81144701171875,10.53033,13.86368701171875Q10.478097,13.91591701171875,10.416678,13.95695701171875Q10.355258,13.99799701171875,10.287013,14.02625701171875Q10.218767,14.05452701171875,10.146318,14.06893701171875Q10.0738685,14.08335701171875,10,14.08335701171875Q9.9261315,14.08335701171875,9.853682,14.06893701171875Q9.781233,14.05452701171875,9.712987,14.026267011718751Q9.644742,13.99799701171875,9.583322,13.95695701171875Q9.521903,13.91591701171875,9.46967,13.86368701171875Q9.417437,13.81144701171875,9.376398,13.75002701171875Q9.335359,13.68860701171875,9.30709,13.62036701171875Q9.278822,13.55211701171875,9.264410999999999,13.47966701171875Q9.25,13.40721701171875,9.25,13.33335701171875L9.25,6.66668701171875Z" fill-rule="evenodd" fill="#2D2E33" fill-opacity="1"/></g><g><path d="M6.666015625,9.25L13.332685625,9.25Q13.406545625,9.25,13.478995625,9.264410999999999Q13.551445625,9.278822,13.619695625,9.30709Q13.687935625,9.335359,13.749355625,9.376398Q13.810775625,9.417437,13.863015625,9.46967Q13.915245625,9.521903,13.956285625,9.583322Q13.997325625,9.644742,14.025585625,9.712987Q14.053855625,9.781233,14.068265625,9.853682Q14.082685625,9.9261315,14.082685625,10Q14.082685625,10.0738685,14.068265625,10.146318Q14.053855625,10.218767,14.025595625000001,10.287013Q13.997325625,10.355258,13.956285625,10.416678Q13.915245625,10.478097,13.863015625,10.53033Q13.810775625,10.582563,13.749355625,10.623602Q13.687935625,10.664641,13.619695625,10.69291Q13.551445625,10.721178,13.478995625,10.735589000000001Q13.406545625,10.75,13.332685625,10.75L6.666015625,10.75Q6.592147125,10.75,6.519697625,10.735589000000001Q6.447248625,10.721178,6.379002625,10.69291Q6.310757625,10.664641,6.249337625,10.623602Q6.187918625,10.582563,6.135685625,10.53033Q6.083452625,10.478097,6.042413625,10.416678Q6.001374625,10.355258,5.973105625,10.287013Q5.944837625,10.218767,5.930426625,10.146318Q5.916015625,10.0738685,5.916015625,10Q5.916015625,9.9261315,5.930426625,9.853682Q5.944837625,9.781233,5.973105625,9.712987Q6.001374625,9.644742,6.042413625,9.583322Q6.083452625,9.521903,6.135685625,9.46967Q6.187918625,9.417437,6.249337625,9.376398Q6.310757625,9.335359,6.379002625,9.30709Q6.447248625,9.278822,6.519697625,9.264410999999999Q6.592147125,9.25,6.666015625,9.25Z" fill-rule="evenodd" fill="#2D2E33" fill-opacity="1"/></g></g></svg>