<svg xmlns="http://www.w3.org/2000/svg" xmlns:xlink="http://www.w3.org/1999/xlink" fill="none" version="1.1" width="20" height="20" viewBox="0 0 20 20"><defs><clipPath id="master_svg0_4202_55182"><rect x="0" y="0" width="20" height="20" rx="0"/></clipPath></defs><g clip-path="url(#master_svg0_4202_55182)"><g><g><path d="M16.088390625000002,4.5001091957092285L13.175790625,4.5001091957092285Q13.126490625,4.5001091957092285,13.078190625,4.509716195709228Q13.029890625,4.5193241957092285,12.984390625,4.538169195709228Q12.938990625,4.557015195709228,12.897990625,4.584374195709229Q12.857090625,4.611734195709229,12.822190625,4.646556195709229Q12.787390625,4.681378195709229,12.760090625,4.722324195709229Q12.732690625,4.763270195709229,12.713890625,4.808767195709229Q12.694990625,4.854264195709229,12.685390625,4.902564095709229Q12.675790625,4.950863495709228,12.675790625,5.0001091957092285Q12.675790625,5.049354895709229,12.685390625,5.097654295709228Q12.694990625,5.145954195709228,12.713890625,5.191451195709228Q12.732690625,5.236948195709228,12.760090625,5.277894195709228Q12.787390625,5.318840195709228,12.822190625,5.353662195709228Q12.857090625,5.388484195709228,12.897990625,5.415844195709228Q12.938990625,5.443203195709229,12.984390625,5.462049195709229Q13.029890625,5.4808941957092285,13.078190625,5.490502195709229Q13.126490625,5.5001091957092285,13.175790625,5.5001091957092285L15.806590625,5.5001091957092285L17.388290625,8.112969195709228L2.188456625,8.112969195709228L3.858760625,5.5001091957092285L6.390620625,5.5001091957092285Q6.439870625,5.5001091957092285,6.488170625,5.490502195709229Q6.536470625,5.4808941957092285,6.581970625,5.462049195709229Q6.627460625,5.443203195709229,6.668410625,5.415844195709228Q6.709360625,5.388484195709228,6.744180625,5.353662195709228Q6.779000625,5.318840195709228,6.806360625,5.277894195709228Q6.833720625,5.236948195709228,6.852560625,5.191451195709228Q6.871410625,5.145954195709228,6.881020625,5.097654295709228Q6.890620625,5.049354895709229,6.890620625,5.0001091957092285Q6.890620625,4.950863495709228,6.881020625,4.902564095709229Q6.871410625,4.854264195709229,6.852560625,4.808767195709229Q6.833720625,4.763270195709229,6.806360625,4.722324195709229Q6.779000625,4.681378195709229,6.744180625,4.646556195709229Q6.709360625,4.611734195709229,6.668410625,4.584374195709229Q6.627460625,4.557015195709228,6.581970625,4.538169195709228Q6.536470625,4.5193241957092285,6.488170625,4.509716195709228Q6.439870625,4.5001091957092285,6.390620625,4.5001091957092285L3.584960625,4.5001091957092285Q3.522010625,4.5001091957092285,3.461020625,4.5157151957092285Q3.400030625,4.5313211957092285,3.344810625,4.561558195709228Q3.289590625,4.591796195709229,3.243590625,4.634778195709228Q3.197590625,4.6777601957092285,3.163680625,4.730802195709228L0.854113625,8.343669195709229Q0.775390625,8.466819195709228,0.775390625,8.612969195709228L0.775390625,17.00000919570923Q0.775390625,17.049209195709228,0.7849976249999999,17.09750919570923Q0.794605625,17.145809195709226,0.813450625,17.19130919570923Q0.832296625,17.236809195709228,0.859655625,17.277809195709228Q0.887015625,17.31870919570923,0.921837625,17.35350919570923Q0.956659625,17.38840919570923,0.997605625,17.415709195709226Q1.038551625,17.443109195709226,1.0840486249999999,17.46190919570923Q1.129545625,17.480809195709227,1.177845525,17.490409195709226Q1.226144925,17.50000919570923,1.275390625,17.50000919570923L18.275390625,17.50000919570923Q18.324590625,17.50000919570923,18.372890625,17.490409195709226Q18.421190625,17.480809195709227,18.466690625,17.46190919570923Q18.512190625,17.443109195709226,18.553190625,17.415709195709226Q18.594090625,17.38840919570923,18.628990625,17.35350919570923Q18.663790625,17.31870919570923,18.691090625,17.277809195709228Q18.718490625,17.236809195709228,18.737290625,17.19130919570923Q18.756190625,17.145809195709226,18.765790625,17.09750919570923Q18.775390625,17.049209195709228,18.775390625,17.00000919570923L18.775390625,8.612969195709228Q18.775390625,8.47342919570923,18.703090625,8.354049195709228L16.516090625,4.741184195709229Q16.482690625,4.685999195709228,16.436390625,4.641100195709228Q16.390090625,4.596200195709229,16.333890625000002,4.564527195709228Q16.277690624999998,4.532854195709229,16.215290625,4.516482195709228Q16.152890624999998,4.5001091957092285,16.088390625000002,4.5001091957092285ZM1.775390625,9.11296919570923L1.775390625,16.50000919570923L17.775390625,16.50000919570923L17.775390625,9.11296919570923L1.775390625,9.11296919570923Z" fill-rule="evenodd" fill="#949E9C" fill-opacity="1" style="mix-blend-mode:passthrough"/></g><g><g><path d="M9.424214978179931,1.6440890000000001L7.397574978179931,3.64379Q7.3261609781799315,3.71425,7.287457978179932,3.80681Q7.248754978179932,3.8993700000000002,7.248754978179932,3.9997Q7.248754978179932,4.04895,7.258361978179932,4.09724Q7.267969978179932,4.1455400000000004,7.286814978179931,4.19104Q7.305660978179931,4.23654,7.333019978179932,4.277480000000001Q7.360379978179932,4.31843,7.395201978179932,4.35325Q7.430023978179932,4.38807,7.470969978179932,4.415430000000001Q7.511915978179932,4.4427900000000005,7.557412978179932,4.46164Q7.602909978179932,4.48048,7.651209878179932,4.49009Q7.6995092781799315,4.4997,7.748754978179932,4.4997Q7.847342078179931,4.4997,7.938549978179932,4.46228Q8.029758978179931,4.42485,8.099934978179931,4.35561L9.775394978179932,2.702423L11.450844978179932,4.35561Q11.52102497817993,4.42485,11.61223497817993,4.46228Q11.703434978179931,4.4997,11.802024978179933,4.4997Q11.851274978179932,4.4997,11.899574978179931,4.49009Q11.947874978179932,4.48048,11.993364978179931,4.46164Q12.038864978179932,4.4427900000000005,12.079814978179932,4.415430000000001Q12.120754978179932,4.38807,12.155584978179931,4.35325Q12.19040497817993,4.31843,12.217764978179932,4.277480000000001Q12.24512497817993,4.23654,12.263964978179931,4.19104Q12.282814978179932,4.1455400000000004,12.29241497817993,4.09724Q12.302024978179933,4.04895,12.302024978179933,3.9997Q12.302024978179933,3.8993700000000002,12.26332497817993,3.80681Q12.224624978179932,3.71425,12.153204978179932,3.64379L12.152984978179932,3.64357L10.126574978179931,1.6440890000000001Q10.091814978179931,1.609798,10.051084978179931,1.5828769999999999Q10.010354978179931,1.5559560000000001,9.96518497817993,1.537423Q9.920014978179932,1.51889,9.872114978179932,1.509445Q9.824214978179931,1.5,9.775394978179932,1.5Q9.726564978179931,1.5,9.678664978179931,1.509445Q9.630764978179931,1.51889,9.585594978179932,1.537423Q9.540424978179932,1.5559560000000001,9.499694978179932,1.5828769999999999Q9.458964978179932,1.609798,9.424214978179931,1.6440890000000001Z" fill-rule="evenodd" fill="#949E9C" fill-opacity="1" style="mix-blend-mode:passthrough"/></g><g><path d="M9.275390863418579,2Q9.275390863418579,1.9507543,9.28499786341858,1.9024549Q9.294605863418578,1.854155,9.313450863418579,1.8086579999999999Q9.332296863418579,1.763161,9.35965586341858,1.722215Q9.38701586341858,1.681269,9.42183786341858,1.646447Q9.45665986341858,1.611625,9.49760586341858,1.584265Q9.53855186341858,1.5569060000000001,9.584048863418579,1.53806Q9.62954586341858,1.519215,9.67784576341858,1.509607Q9.726145163418579,1.5,9.775390863418579,1.5Q9.82463656341858,1.5,9.872935963418579,1.509607Q9.921235863418579,1.519215,9.96673286341858,1.53806Q10.012229863418579,1.5569060000000001,10.053175863418579,1.584265Q10.094121863418579,1.611625,10.128943863418579,1.646447Q10.163765863418579,1.681269,10.191125863418579,1.722215Q10.21848486341858,1.763161,10.23733086341858,1.8086579999999999Q10.25617586341858,1.854155,10.265783863418578,1.9024549Q10.275390863418579,1.9507543,10.275390863418579,2L10.275390863418579,6.61286Q10.275390863418579,6.66211,10.265783863418578,6.71041Q10.25617586341858,6.75871,10.23733086341858,6.80421Q10.21848486341858,6.8497,10.191125863418579,6.89065Q10.163765863418579,6.9316,10.128943863418579,6.96642Q10.094121863418579,7.00124,10.053175863418579,7.0286Q10.012229863418579,7.05596,9.96673286341858,7.0748Q9.921235863418579,7.09365,9.872935963418579,7.10326Q9.82463656341858,7.11286,9.775390863418579,7.11286Q9.726145163418579,7.11286,9.67784576341858,7.10326Q9.62954586341858,7.09365,9.584048863418579,7.0748Q9.53855186341858,7.05596,9.49760586341858,7.0286Q9.45665986341858,7.00124,9.42183786341858,6.96642Q9.38701586341858,6.9316,9.35965586341858,6.89065Q9.332296863418579,6.8497,9.313450863418579,6.80421Q9.294605863418578,6.75871,9.28499786341858,6.71041Q9.275390863418579,6.66211,9.275390863418579,6.61286L9.275390863418579,2Z" fill-rule="evenodd" fill="#949E9C" fill-opacity="1" style="mix-blend-mode:passthrough"/></g></g><g transform="matrix(0,-1,1,0,-5.1085920333862305,20.40937328338623)"><path d="M7.150390625,12.75898265838623Q7.150390625,12.70973695838623,7.159997625,12.66143755838623Q7.169605625,12.613137658386231,7.188450625,12.56764065838623Q7.207296625,12.52214365838623,7.234655625,12.48119765838623Q7.262015625,12.44025165838623,7.296837625,12.40542965838623Q7.331659625,12.37060765838623,7.372605625,12.34324765838623Q7.413551625,12.31588865838623,7.459048625,12.29704265838623Q7.504545625,12.27819765838623,7.552845525,12.268589658386231Q7.601144925,12.25898265838623,7.650390625,12.25898265838623Q7.699636325,12.25898265838623,7.747935725,12.268589658386231Q7.796235625,12.27819765838623,7.841732625,12.29704265838623Q7.887229625,12.31588865838623,7.928175625,12.34324765838623Q7.969121625,12.37060765838623,8.003943625,12.40542965838623Q8.038765625,12.44025165838623,8.066125625,12.48119765838623Q8.093484625,12.52214365838623,8.112330625,12.56764065838623Q8.131175625000001,12.613137658386231,8.140783625,12.66143755838623Q8.150390625,12.70973695838623,8.150390625,12.75898265838623L8.150390625,17.00898265838623Q8.150390625,17.05823265838623,8.140783625,17.10653265838623Q8.131175625000001,17.15482265838623,8.112330625,17.20032265838623Q8.093484625,17.24582265838623,8.066125625,17.28676265838623Q8.038765625,17.327712658386233,8.003943625,17.36253265838623Q7.969121625,17.397352658386232,7.928175625,17.42471265838623Q7.887229625,17.45207265838623,7.841732625,17.47092265838623Q7.796235625,17.48976265838623,7.747935725,17.49937265838623Q7.699636325,17.50898265838623,7.650390625,17.50898265838623Q7.601144925,17.50898265838623,7.552845525,17.49937265838623Q7.504545625,17.48976265838623,7.459048625,17.47092265838623Q7.413551625,17.45207265838623,7.372605625,17.42471265838623Q7.331659625,17.397352658386232,7.296837625,17.36253265838623Q7.262015625,17.327712658386233,7.234655625,17.28676265838623Q7.207296625,17.24582265838623,7.188450625,17.20032265838623Q7.169605625,17.15482265838623,7.159997625,17.10653265838623Q7.150390625,17.05823265838623,7.150390625,17.00898265838623L7.150390625,12.75898265838623Z" fill-rule="evenodd" fill="#949E9C" fill-opacity="1" style="mix-blend-mode:passthrough"/></g></g></g></svg>