<svg xmlns="http://www.w3.org/2000/svg" xmlns:xlink="http://www.w3.org/1999/xlink" fill="none" version="1.1" width="20" height="20" viewBox="0 0 20 20"><defs><clipPath id="master_svg0_4191_46399"><rect x="0" y="0" width="20" height="20" rx="0"/></clipPath><mask id="master_svg1_4191_46401" style="mask-type:alpha" maskUnits="objectBoundingBox"><g><g><path d="M20,0L0,0L0,20L20,20L20,0Z" fill="#F6FEFD" fill-opacity="1" style="mix-blend-mode:passthrough"/></g></g></mask></defs><g clip-path="url(#master_svg0_4191_46399)"><g mask="url(#master_svg1_4191_46401)"><g><g><path d="M18,10.00138107L18,17.5Q18,17.54925,17.9904,17.597540000000002Q17.980800000000002,17.64584,17.9619,17.69134Q17.9431,17.73684,17.9157,17.77778Q17.8884,17.818730000000002,17.8536,17.85355Q17.8187,17.888370000000002,17.7778,17.91573Q17.736800000000002,17.943089999999998,17.6913,17.96194Q17.6458,17.98078,17.5975,17.990389999999998Q17.5492,18,17.5,18L2.5,18Q2.4507543,18,2.4024549,17.990389999999998Q2.354155,17.98078,2.308658,17.96194Q2.263161,17.943089999999998,2.222215,17.91573Q2.181269,17.888370000000002,2.146447,17.85355Q2.111625,17.818730000000002,2.084265,17.77778Q2.056906,17.73684,2.0380599999999998,17.69134Q2.019215,17.64584,2.009607,17.597540000000002Q2,17.54925,2,17.5L2,10.00345843Q2,9.9542127,2.009607,9.9059133Q2.019215,9.857614,2.0380599999999998,9.812117Q2.056906,9.76662,2.084265,9.725673Q2.111625,9.684727,2.146447,9.649905Q2.181269,9.615083,2.222215,9.587724Q2.263161,9.560364,2.308658,9.541519Q2.354155,9.522673,2.4024549,9.513066Q2.4507543,9.503458,2.5,9.503458Q2.5492457,9.503458,2.5975451,9.513066Q2.645845,9.522673,2.691342,9.541519Q2.736839,9.560364,2.777785,9.587724Q2.818731,9.615083,2.853553,9.649905Q2.888375,9.684727,2.915735,9.725673Q2.943094,9.76662,2.9619400000000002,9.812117Q2.980785,9.857614,2.990393,9.9059133Q3,9.9542127,3,10.00345844L3,17L17,17L17,10Q17,9.9507543,17.0096,9.9024549Q17.019199999999998,9.854155,17.0381,9.808658Q17.0569,9.763161,17.0843,9.722215Q17.1116,9.681269,17.1464,9.646447Q17.1813,9.611625,17.2222,9.584265Q17.263199999999998,9.556906,17.3087,9.53806Q17.3542,9.519214999999999,17.4025,9.509607Q17.4508,9.5,17.5,9.5Q17.5492,9.5,17.5975,9.509607Q17.6458,9.519214999999999,17.6913,9.53806Q17.736800000000002,9.556906,17.7778,9.584265Q17.8187,9.611625,17.8536,9.646447Q17.8884,9.681269,17.9157,9.722215Q17.9431,9.763161,17.9619,9.808658Q17.980800000000002,9.854155,17.9904,9.9024549Q18,9.9507543,18,10L18,10.00138107Z" fill-rule="evenodd" fill="#F6FEFD" fill-opacity="1" style="mix-blend-mode:passthrough"/></g><g><path d="M9.64645,2.146447L5.896447,5.89645Q5.82612,5.96677,5.78806,6.05866Q5.75,6.1505399999999995,5.75,6.25Q5.75,6.29925,5.759607,6.34754Q5.769215,6.39584,5.78806,6.44134Q5.806906,6.48684,5.834265,6.52778Q5.861625,6.56873,5.896447,6.60355Q5.931269,6.63837,5.972215,6.66573Q6.013161,6.69309,6.058658,6.71194Q6.104155,6.73078,6.1524549,6.74039Q6.2007543,6.75,6.25,6.75Q6.3494562,6.75,6.441342,6.71194Q6.533227,6.67388,6.603553,6.60355L6.603741,6.60337L10,3.207107L13.39645,6.60355Q13.46677,6.67388,13.55866,6.71194Q13.65054,6.75,13.75,6.75Q13.79925,6.75,13.84754,6.74039Q13.89584,6.73078,13.94134,6.71194Q13.98684,6.69309,14.02778,6.66573Q14.06873,6.63837,14.10355,6.60355Q14.13837,6.56873,14.16573,6.52778Q14.19309,6.48684,14.21194,6.44134Q14.23078,6.39584,14.24039,6.34754Q14.25,6.29925,14.25,6.25Q14.25,6.1505399999999995,14.21194,6.05866Q14.17388,5.96677,14.10355,5.89645L10.35355,2.146447Q10.31873,2.111625,10.27778,2.084265Q10.23684,2.056906,10.19134,2.0380599999999998Q10.14584,2.019215,10.09754,2.009607Q10.04925,2,10,2Q9.95075,2,9.90245,2.009607Q9.85415,2.019215,9.80866,2.0380599999999998Q9.76316,2.056906,9.72221,2.084265Q9.68127,2.111625,9.64645,2.146447Z" fill-rule="evenodd" fill="#F6FEFD" fill-opacity="1" style="mix-blend-mode:passthrough"/></g><g><path d="M9.49658203125,2.5Q9.49658203125,2.4507543,9.50618903125,2.4024549Q9.515797031249999,2.354155,9.53464203125,2.308658Q9.55348803125,2.263161,9.58084703125,2.222215Q9.60820703125,2.181269,9.64302903125,2.146447Q9.67785103125,2.111625,9.71879703125,2.084265Q9.75974303125,2.056906,9.80524003125,2.0380599999999998Q9.85073703125,2.019215,9.89903693125,2.009607Q9.94733633125,2,9.99658203125,2Q10.04582773125,2,10.09412713125,2.009607Q10.14242703125,2.019215,10.18792403125,2.0380599999999998Q10.23342103125,2.056906,10.27436703125,2.084265Q10.31531303125,2.111625,10.35013503125,2.146447Q10.38495703125,2.181269,10.41231703125,2.222215Q10.43967603125,2.263161,10.45852203125,2.308658Q10.477367031250001,2.354155,10.48697503125,2.4024549Q10.49658203125,2.4507543,10.49658203125,2.5L10.49658203125,13.3333Q10.49658203125,13.3826,10.48697503125,13.4309Q10.477367031250001,13.4792,10.45852203125,13.5247Q10.43967603125,13.5702,10.41231703125,13.6111Q10.38495703125,13.6521,10.35013503125,13.6869Q10.31531303125,13.7217,10.27436703125,13.7491Q10.23342103125,13.7764,10.18792403125,13.7953Q10.14242703125,13.8141,10.09412713125,13.8237Q10.04582773125,13.8333,9.99658203125,13.8333Q9.94733633125,13.8333,9.89903693125,13.8237Q9.85073703125,13.8141,9.80524003125,13.7953Q9.75974303125,13.7764,9.71879703125,13.7491Q9.67785103125,13.7217,9.64302903125,13.6869Q9.60820703125,13.6521,9.58084703125,13.6111Q9.55348803125,13.5702,9.53464203125,13.5247Q9.515797031249999,13.4792,9.50618903125,13.4309Q9.49658203125,13.3826,9.49658203125,13.3333L9.49658203125,2.5Z" fill-rule="evenodd" fill="#F6FEFD" fill-opacity="1" style="mix-blend-mode:passthrough"/></g></g></g></g></svg>