<svg xmlns="http://www.w3.org/2000/svg" xmlns:xlink="http://www.w3.org/1999/xlink" fill="none" version="1.1" width="24" height="24" viewBox="0 0 24 24"><defs><clipPath id="master_svg0_142_09080"><rect x="0" y="0" width="24" height="24" rx="0"/></clipPath></defs><g clip-path="url(#master_svg0_142_09080)"><g transform="matrix(0.7071067690849304,0.7071067690849304,-0.7071067690849304,0.7071067690849304,9.9583092595567,-9.923808911611559)"><path d="M15.976549953125,7.05883788948263L15.958252953125,21.057537890625L15.958251953125,21.058837890625Q15.958251953125,21.149937890625,15.974709953125,21.239537890625Q15.990420953125,21.325037890624998,16.020657953125,21.406537890625Q16.050895953125,21.488137890624998,16.094752953125,21.563237890625Q16.138608953125,21.638237890625,16.194767953125,21.704637890625Q16.250926953125,21.771037890625,16.317701953125,21.826737890624997Q16.384477953125,21.882437890625,16.459864953125,21.925837890625Q16.535251953125,21.969137890625,16.616988953125,21.998837890624998Q16.698724953125,22.028437890625,16.784356953125,22.043637890625Q16.869988453125,22.058737890625,16.956944873125,22.058837890625L16.958251953125,22.058837890625Q16.981630053125,22.058837890625,17.004982653125,22.057737890625Q17.191231953125,22.049037890625,17.361825953125,21.973737890625Q17.532419953125,21.898537890625,17.664433953125,21.766837890625Q17.805269953125,21.626437890625,17.881630953125,21.442737890625Q17.957990953125,21.259037890625002,17.958250953125,21.060137890625L17.958251953125,21.058837890625L17.976551953125,7.060144970625L17.976551953125,7.058837890625Q17.976551953125,7.035459790625,17.975461953125,7.012107190625Q17.966741953125002,6.825857890625,17.891497953125,6.655263890625Q17.816250953125,6.484669890625,17.684581953125,6.352655890625Q17.544112953125,6.211819890625,17.360441953125,6.135458890625Q17.176769953125,6.059098890625,16.977858153125,6.058838890625L16.976551053125,6.058837890625Q16.953172913125,6.058837890625,16.929820353125,6.059929890625Q16.743571953125,6.068643890625,16.572976953125,6.143890890625Q16.402382953125,6.219137890625,16.270368953125,6.350807890625Q16.129532953125,6.491275890625,16.053172953125,6.674946890625Q15.976811953125,6.858618890625,15.976551953125,7.057530810625L15.976549953125,7.05883788948263Z" fill-rule="evenodd" fill="#C0C4CC" fill-opacity="1"/></g><g transform="matrix(0.7071067690849304,0.7071067690849304,-0.7071067690849304,0.7071067690849304,7.05029296875,-2.9203267957200296)"><path d="M7.05029296875,8.05029296875L21.05029296875,8.05029296875Q21.14879296875,8.05029296875,21.24539296875,8.031077968750001Q21.34199296875,8.01186296875,21.43299296875,7.97417196875Q21.52399296875,7.93648096875,21.60589296875,7.88176296875Q21.68779296875,7.82704396875,21.75739296875,7.75739996875Q21.826992968749998,7.68775596875,21.88179296875,7.60586296875Q21.936492968750002,7.52397096875,21.97419296875,7.43297596875Q22.01189296875,7.34198196875,22.031092968750002,7.24538296875Q22.05029296875,7.14878436875,22.05029296875,7.05029296875Q22.05029296875,6.95180156875,22.031092968750002,6.85520296875Q22.01189296875,6.75860396875,21.97419296875,6.66760996875Q21.936492968750002,6.57661496875,21.88179296875,6.49472296875Q21.826992968749998,6.41282996875,21.75739296875,6.34318596875Q21.68779296875,6.27354196875,21.60589296875,6.21882296875Q21.52399296875,6.16410496875,21.43299296875,6.12641396875Q21.34199296875,6.08872296875,21.24539296875,6.06950796875Q21.14879296875,6.05029296875,21.05029296875,6.05029296875L7.05029296875,6.05029296875Q6.95180156875,6.05029296875,6.85520296875,6.06950796875Q6.75860396875,6.08872296875,6.66760996875,6.12641396875Q6.57661496875,6.16410496875,6.49472296875,6.21882296875Q6.41282996875,6.27354196875,6.34318596875,6.34318596875Q6.27354196875,6.41282996875,6.21882296875,6.49472296875Q6.16410496875,6.57661496875,6.12641396875,6.66760996875Q6.08872296875,6.75860396875,6.06950796875,6.85520296875Q6.05029296875,6.95180156875,6.05029296875,7.05029296875Q6.05029296875,7.14878436875,6.06950796875,7.24538296875Q6.08872296875,7.34198196875,6.12641396875,7.43297596875Q6.16410496875,7.52397096875,6.21882296875,7.60586296875Q6.27354196875,7.68775596875,6.34318596875,7.75739996875Q6.41282996875,7.82704396875,6.49472296875,7.88176296875Q6.57661496875,7.93648096875,6.66760996875,7.97417196875Q6.75860396875,8.01186296875,6.85520296875,8.031077968750001Q6.95180156875,8.05029296875,7.05029296875,8.05029296875Z" fill-rule="evenodd" fill="#C0C4CC" fill-opacity="1"/></g></g></svg>