<svg xmlns="http://www.w3.org/2000/svg" xmlns:xlink="http://www.w3.org/1999/xlink" fill="none" version="1.1" width="24" height="24" viewBox="0 0 24 24"><defs><clipPath id="master_svg0_2231_13739/2594_11389/2594_11178"><rect x="0" y="0" width="24" height="24" rx="0"/></clipPath></defs><g clip-path="url(#master_svg0_2231_13739/2594_11389/2594_11178)"><g><g><path d="M11.8578,23.5Q11.7318,23.4771,11.606,23.4527C10.74525,23.2889,10.0663,22.5472,10.0107,21.7092C9.94899,20.7883,10.49516,19.9711,11.367,19.6958C11.4831,19.6591,11.5124,19.61,11.5112,19.4962C11.5049,18.919,11.5084,18.3415,11.5084,17.7643L11.5084,17.6037C10.82079,17.5368,10.16601,17.3794,9.54195,17.1045C8.92323,16.8301,8.35518,16.4576,7.86076,16.0019C7.8312,16.0276,7.80445,16.047800000000002,7.78052,16.0721Q7.0333,16.801,6.28585,17.5306C6.22649,17.5879,6.21711,17.6283,6.25652,17.7051C6.87025,18.9048,6.1791,20.2716,4.8322199999999995,20.527C3.7596,20.7309,2.6724300000000003,19.9642,2.52135,18.897C2.37542,17.8646,3.01402,16.9414,4.05004,16.7053C4.5067900000000005,16.5959,4.9887999999999995,16.6558,5.40302,16.8735C5.49053,16.9194,5.53557,16.9049,5.60009,16.8412C6.10074,16.3468,6.60515,15.8558,7.10814,15.3635C7.13559,15.3366,7.16187,15.3086,7.19776,15.2717C6.51459,14.371,6.12373,13.3595,6.01746,12.2326L5.41123,12.2326C5.28595,12.2326,5.16067,12.2381,5.03586,12.2308C4.9488199999999996,12.2255,4.915979999999999,12.2601,4.8887599999999996,12.3375C4.6398399999999995,13.0487,4.1413,13.4967,3.39009,13.6617C2.29425,13.9023,1.173294,13.134,1.0205651,12.0475C0.873232,11,1.530366,10.07196,2.5802300000000002,9.84507C3.56394,9.6324,4.566409999999999,10.19768,4.88383,11.1495C4.9162099999999995,11.2468,4.96008,11.2782,5.06378,11.2759C5.37581,11.2686,5.6883,11.2732,6.01699,11.2732C6.1242,10.1518,6.51083,9.13961,7.19002,8.24649L5.51563,6.61487C5.28478,6.68369,5.05956,6.77661,4.824949999999999,6.81928C3.73309,7.01819,2.6754800000000003,6.26386,2.52064,5.18835C2.3756500000000003,4.181900000000001,3.00768,3.25803,4.01063,3.01072C5.15058,2.72899,6.29171,3.47781,6.4618,4.61894C6.52698,5.03003,6.45282,5.45069,6.25065,5.81672C6.22227,5.86926,6.21171,5.90551,6.26309,5.95552Q7.04175,6.71077,7.81572,7.46968C7.82996,7.48189,7.84484,7.49337,7.86029,7.50409C8.355550000000001,7.0478,8.92476,6.67499,9.54477,6.40082C10.16601,6.12827,10.81751,5.96975,11.5021,5.90482C11.5042,5.85894,11.5075,5.822,11.5075,5.78461C11.5075,5.34504,11.5056,4.90525,11.5096,4.46568C11.5096,4.3805700000000005,11.4882,4.33996,11.3986,4.31198C10.50317,4.03686,9.92512,3.18834,10.01046,2.2742899999999997C10.08718,1.386901,10.79968,0.656665,11.721,0.5208503C12.7891,0.36324,13.8191,1.1173359999999999,13.9685,2.16853C14.1067,3.13896,13.5432,4.0119,12.5796,4.31817C12.5219,4.33652,12.487,4.3574,12.4874,4.4269099999999995C12.4905,4.89722,12.4891,5.36753,12.4896,5.8376C12.4912,5.86009,12.4942,5.88245,12.4985,5.90459Q14.594,6.09868,16.1396,7.50753C16.1724,7.47679,16.2008,7.45132,16.2282,7.42471C16.7209,6.94294,17.2113,6.46116,17.7063,5.98259C17.7691,5.92157,17.7795,5.87821,17.7375,5.79906C17.1135,4.62315,17.8446,3.19415,19.181,2.97722C20.2677,2.79369,21.3209,3.54549,21.4762,4.61504C21.6338,5.69972,20.8744,6.69379,19.7703,6.8358C19.3497,6.88994,18.9443,6.82364,18.5685,6.62221C18.5117,6.59193,18.477,6.58963,18.4277,6.63781Q17.6345,7.41783,16.8366,8.19533C16.8258,8.20588,16.8173,8.21827,16.8019,8.238C17.1347,8.67665,17.4051,9.15746,17.6056,9.66727C17.8029,10.18185,17.9284,10.7201,17.9786,11.2675C18.0225,11.27,18.0603,11.2736,18.0981,11.2736C18.3836,11.2736,18.6691,11.27,18.9544,11.2762C19.0459,11.278,19.0799,11.245,19.109,11.164C19.3929,10.37548,19.9632,9.91756,20.8085,9.81432C21.7837,9.69526,22.7323,10.36745,22.949,11.3055C23.2153,12.4643,22.4094,13.5692,21.204,13.6961C20.2914,13.7922,19.4018,13.2274,19.116,12.3618C19.0815,12.2576,19.0356,12.2273,18.9283,12.2306C18.6588,12.2381,18.3887,12.2328,18.1192,12.2328L17.9784,12.2328C17.8731,13.3554,17.4857,14.3644,16.8007,15.268C16.8263,15.2965,16.8476,15.3226,16.8711,15.346C17.3823,15.8464,17.8954,16.3452,18.4035,16.8485C18.4685,16.9127,18.5133,16.9134,18.5912,16.8742C19.8149,16.2603,21.2784,16.9981,21.4769,18.3257C21.6523,19.4839,20.7518,20.5311,19.5549,20.5608C18.358,20.5906,17.4043,19.5895,17.5193,18.4241C17.5415,18.1688,17.6177,17.9207,17.7431,17.6957C17.7708,17.6462,17.79,17.6067,17.7361,17.5551Q16.948700000000002,16.7911,16.167,16.0233C16.1567,16.0163,16.145699999999998,16.010199999999998,16.1342,16.005200000000002C15.1134,16.9366,13.9021,17.4734,12.4952,17.6019C12.4931,17.6489,12.4893,17.6898,12.4893,17.7306C12.4893,18.3308,12.4907,18.9311,12.4872,19.5313C12.4872,19.6171,12.5107,19.6563,12.5984,19.6843C13.5002,19.9718,14.0553,20.7855,13.9868,21.7108C13.9207,22.6055,13.1685,23.3701,12.2507,23.4752C12.2208,23.4811,12.1913,23.4894,12.1627,23.5L11.8578,23.5ZM15.4923,15.2465C16.697699999999998,14.1634,17.401,12.2182,16.781,10.28348C16.1276,8.24488,14.1083,6.70251,11.6431,6.86516C9.49204,7.01134,7.67881,8.48888,7.1438,10.5315C6.62884,12.4756,7.43612,14.3116,8.50452,15.2394C8.50452,15.0368,8.51531,14.8468,8.502410000000001,14.6585C8.472850000000001,14.2285,8.641300000000001,13.8766,8.927050000000001,13.5665C9.23743,13.2294,9.61327,12.9782,10.02055,12.7683C10.11627,12.719,10.21387,12.6733,10.31099,12.6258C10.30623,12.6157,10.30041,12.6061,10.29363,12.5972C10.26571,12.5705,10.23662,12.5449,10.20871,12.5182C9.77234,12.1037,9.51685,11.6077,9.5077,11.0041Q9.50043,10.49363,9.51075,9.98318C9.51779,9.65213,9.61984,9.34494,9.7897,9.05954C10.56836,7.75186,12.4347,7.44284,13.6504,8.42337C14.2031,8.8689,14.4985,9.44083,14.4926,10.15042C14.4905,10.40278,14.4893,10.6551,14.4926,10.9075C14.5006,11.5625,14.2402,12.1016,13.7569,12.5444C13.7297,12.5694,13.6884,12.5797,13.6537,12.5969C13.6939,12.6338,13.7394,12.6647,13.7888,12.6887C14.2972,12.9351,14.7671,13.2329,15.1366,13.6628C15.3769,13.9422,15.5176,14.2545,15.4942,14.6291C15.4827,14.8264,15.4923,15.0251,15.4923,15.2465ZM9.48635,15.2166C9.48635,15.4268,9.4955,15.6376,9.48283,15.8471C9.47556,15.9682,9.52811,16.0231,9.62805,16.0744C10.3266,16.4389,11.1033,16.6369,11.8948,16.6523C12.7929,16.6702,13.6342,16.4651,14.4229,16.046C14.4903,16.010199999999998,14.5135,15.9662,14.5128,15.8918C14.5095,15.4676,14.5076,15.043,14.5128,14.619C14.5158,14.5079,14.4777,14.3994,14.4054,14.3137C14.2287,14.0943,14.0065,13.9253,13.7668,13.7805C13.2311,13.4575,12.6606,13.2267,12.0206,13.2191C11.4017,13.2115,10.84191,13.4171,10.31287,13.7135C10.04354,13.8642,9.79509,14.0418,9.60014,14.2827C9.52113,14.3735,9.4797,14.49,9.484,14.6092C9.49175,14.8113,9.48635,15.0141,9.48612,15.2166L9.48635,15.2166ZM13.4953,10.5365L13.5054,10.5365C13.5054,10.39888,13.5026,10.26123,13.5054,10.12358C13.5136,9.81708,13.3994,9.55623,13.1955,9.33071C12.609,8.67963,11.5417,8.63558,10.89446,9.23573C10.62654,9.48396,10.47944,9.7829,10.48976,10.15157C10.49727,10.42274,10.49305,10.6941,10.48976,10.9653C10.48847,11.1689,10.5464,11.3686,10.6568,11.5412C11.012,12.1135,11.79,12.3921,12.4717,12.1766C12.9998,12.0099,13.385,11.6889,13.488,11.1305C13.5249,10.938,13.4951,10.7343,13.4951,10.5358L13.4953,10.5365ZM1.979169,11.7456C1.979277,12.2926,2.43025,12.7373,2.98962,12.7419C3.53649,12.7435,3.99984,12.2911,3.99843,11.7554C3.99503,11.2127,3.54812,10.7724,2.99314,10.765C2.44651,10.7614,1.980811,11.2099,1.979169,11.7456ZM21.0124,10.7655C20.4572,10.767,20.0057,11.203,19.997,11.7458C19.9916,12.287,20.454,12.7426,21.0079,12.7422C21.5576,12.7422,22.0167,12.2934,22.0179,11.7557C22.019,11.2179,21.5611,10.7673,21.0124,10.7655ZM12.0034,3.43996C12.5571,3.43629,13.0108,2.99007,13.008,2.45186C13.005,1.90126,12.5466,1.46651,11.9744,1.470869C11.4355,1.475916,10.9815,1.92993,10.98807,2.46241C10.99565,3.00546,11.4488,3.44139,12.0042,3.43996L12.0034,3.43996ZM4.49533,3.91623C3.93557,3.91534,3.48117,4.358560000000001,3.48065,4.90594C3.48065,5.43933,3.93438,5.88349,4.48078,5.88578C5.0422,5.89713,5.50468,5.45732,5.50874,4.90821C5.51279,4.359109999999999,5.05685,3.91281,4.49533,3.91623ZM19.4956,3.91623C18.936,3.92328,18.4882,4.37268,18.4955,4.91993C18.5042,5.47053,18.975,5.89863,19.5568,5.88509C20.0857,5.87293,20.5309,5.40515,20.5162,4.87726C20.5014,4.34157,20.038,3.90522,19.4956,3.91646L19.4956,3.91623ZM12.0004,22.528C12.5557,22.5251,13.0054,22.0861,13.0092,21.5431C13.0092,20.9991,12.5522,20.5566,11.9908,20.5584C11.4288,20.5531,10.97118,20.9985,10.97393,21.5481C10.97668,22.0976,11.4388,22.5386,12.0006,22.528L12.0004,22.528ZM4.49298,19.5914C5.04642,19.5891,5.50179,19.1436,5.50038,18.6049C5.50125,18.0586,5.0486,17.6152,4.48993,17.6152C3.93131,17.6152,3.47866,18.0585,3.47948,18.6048C3.4803,19.1511,3.93432,19.5931,4.49298,19.5914ZM19.5045,19.5914C20.0563,19.5914,20.5133,19.1466,20.5152,18.6084C20.5181,18.0618,20.0667,17.6169,19.5078,17.6152C18.949,17.6136,18.4948,18.0559,18.4943,18.6024C18.4938,19.1489,18.9471,19.592,19.5059,19.5914L19.5045,19.5914Z" fill="#2D2E33" fill-opacity="1"/><path d="M11.8442,23.65L12.1897,23.65L12.2149,23.6406Q12.244,23.6299,12.2743,23.6235Q13.0111,23.537,13.5451,22.9943Q14.0827,22.4478,14.1364,21.7218Q14.1917,20.9749,13.7803,20.3737Q13.3689,19.7725,12.644,19.5414Q12.6372,19.5393,12.6372,19.5317L12.6396,18.6058L12.6393,17.7382Q14.6403,17.5184,16.1372,16.2038L17.6046,17.6363Q17.4056,17.9996,17.37,18.4094Q17.277,19.3519,17.9366,20.0441Q18.5945,20.7348,19.5587,20.7108Q20.5229,20.6868,21.1442,19.9642Q21.767,19.24,21.6252,18.3035Q21.4648,17.2307,20.4859,16.7379Q19.5088,16.246000000000002,18.5237,16.7402Q18.5129,16.7457,18.5086,16.7415L17.5853,15.8344L16.9952,15.2577Q17.9311,13.9719,18.1136,12.3828L18.1192,12.3828Q18.1971,12.3828,18.3538,12.3837Q18.7389,12.3859,18.9328,12.3805Q18.9639,12.3796,18.9736,12.4088Q19.2044,13.1079,19.8443,13.516Q20.4822,13.9229,21.2197,13.8452Q22.1899,13.7431,22.7496,12.9762Q23.3103,12.2079,23.0952,11.2718Q22.9191,10.5098,22.2492,10.04063Q21.5764,9.56945,20.7903,9.66543Q19.4292,9.83166,18.9678,11.1133Q18.9631,11.1263,18.9576,11.1262Q18.7478,11.1217,18.3298,11.1231Q18.191,11.1236,18.1147,11.1236Q18.0269,10.34693,17.7452,9.61236Q17.4585,8.88332,16.9966,8.24859L18.5141,6.76316Q19.1036,7.07285,19.7895,6.98457Q20.6786,6.87021,21.2154,6.1702Q21.7521,5.47039,21.6246,4.59348Q21.4989,3.72792,20.765,3.20413Q20.0324,2.6813,19.157,2.82916Q18.0797,3.00402,17.5906,3.96021Q17.1004,4.9184,17.605,5.86937Q17.6058,5.87103,17.6017,5.87503L17.021,6.43942L16.137,7.30411Q14.6357,5.9892,12.6394,5.76815L12.6375,4.45715Q13.4023,4.2099899999999995,13.8132,3.5738Q14.2286,2.93079,14.117,2.14741Q13.9961,1.2966630000000001,13.2779,0.770398Q12.5613,0.245236,11.6991,0.372454Q10.95798,0.4817073,10.44163,1.010983Q9.92317,1.54242,9.86111,2.2603400000000002Q9.79209,2.99965,10.21278,3.61718Q10.63269,4.23357,11.3539,4.45515Q11.3596,4.45693,11.3596,4.46514L11.357,5.16749L11.3575,5.76904Q10.35299,5.88244,9.48411,6.26364Q8.58754,6.66009,7.85948,7.30284L6.3917,5.87142Q6.71689,5.26999,6.61016,4.59682Q6.47269,3.67451,5.6822,3.15585Q4.89313,2.63811,3.97472,2.86508Q3.16696,3.06426,2.71136,3.73016Q2.2551,4.39703,2.3721699999999997,5.20973Q2.49763,6.08118,3.23462,6.60406Q3.9719,7.12715,4.851789999999999,6.96686Q5.0202,6.93623,5.33788,6.82982Q5.41718,6.80326,5.47496,6.78468L6.99131,8.26229Q6.06691,9.53241,5.88206,11.123Q5.82086,11.1228,5.74436,11.1225Q5.28679,11.1207,5.06046,11.126Q5.03428,11.1266,5.02613,11.1021Q4.76999,10.33398,4.0557300000000005,9.93004Q3.34267,9.52677,2.54855,9.69845Q1.704137,9.88094,1.229035,10.5519Q0.753231,11.2237,0.872026,12.0684Q0.99592352,12.9498,1.767096,13.4762Q2.53801,14.0024,3.42226,13.8082Q4.6254,13.544,5.03025,12.3873L5.02705,12.3805Q5.1198,12.386,5.30044,12.3836Q5.37471,12.3826,5.41123,12.3826L5.88235,12.3826Q6.06553,13.9724,7.00103,15.2584L6.64633,15.6053L5.49464,16.7345Q5.48294,16.746,5.47281,16.7407Q4.77943,16.3763,4.016719999999999,16.5591Q3.18419,16.7488,2.71934,17.4169Q2.2549799999999998,18.0842,2.37283,18.918Q2.4952199999999998,19.7826,3.24475,20.3113Q3.99326,20.8392,4.8601600000000005,20.6744Q5.94318,20.469,6.41349,19.5378Q6.88468,18.6048,6.39061,17.6379L7.86046,16.203699999999998Q8.58694,16.8451,9.48149,17.2418Q10.34325,17.6213,11.3584,17.7386L11.3584,17.7642L11.3575,18.7318L11.3612,19.4978Q11.3617,19.5401,11.3218,19.5528Q10.61887,19.7747,10.21427,20.3767Q9.81126,20.9763,9.86103,21.7191Q9.90621,22.4001,10.39576,22.9351Q10.88337,23.4679,11.5775,23.6Q11.7042,23.6245,11.8309,23.6476L11.8442,23.65ZM12.1374,23.35Q12.1789,23.3365,12.2218,23.328L12.2277,23.3269L12.2337,23.3262Q12.8693,23.2534,13.3312,22.7839Q13.7917,22.3159,13.8372,21.6997Q13.8848,21.0576,13.5327,20.5431Q13.1795,20.027,12.5528,19.8272Q12.3372,19.7585,12.3372,19.5309L12.3396,18.6059L12.3393,17.7306Q12.3393,17.6995,12.3429,17.6402Q12.3446,17.6105,12.3453,17.5952L12.3512,17.4644L12.4815,17.4525Q14.5304,17.2654,16.033099999999997,15.8944L16.1052,15.8286L16.194499999999998,15.8678Q16.2242,15.8809,16.2511,15.899L16.2622,15.9066L17.8398,17.4467Q17.9794,17.5803,17.8741,17.7688Q17.6996,18.0819,17.6686,18.4389Q17.5891,19.2445,18.1538,19.8372Q18.72,20.4315,19.5512,20.4109Q20.3823,20.3902,20.9168,19.7686Q21.4498,19.1488,21.3285,18.3479Q21.1911,17.4287,20.3511,17.0059Q19.5086,16.5818,18.6587,17.0082Q18.4553,17.1106,18.2984,16.9555L17.3756,16.0489L16.7651,15.4522Q16.7457,15.4329,16.7118,15.3941Q16.6968,15.3769,16.6891,15.3683L16.606299999999997,15.2762L16.6812,15.1774Q17.6744,13.8672,17.8291,12.2188L17.8418,12.0828L18.1192,12.0828Q18.1982,12.0828,18.3555,12.0837Q18.7356,12.0859,18.9238,12.0806Q19.1784,12.073,19.2585,12.3148Q19.4558,12.9124,20.0056,13.2631Q20.5551,13.6136,21.1883,13.5469Q22.026,13.4587,22.5072,12.7994Q22.9872,12.1416,22.8029,11.3393Q22.6527,10.6895,22.0771,10.28636Q21.4986,9.88119,20.8267,9.96322Q19.6489,10.10706,19.2502,11.2147Q19.1726,11.4306,18.9511,11.4261Q18.7451,11.4217,18.3309,11.4231Q18.1757,11.4236,18.0981,11.4236Q18.0665,11.4236,18.0063,11.4195Q17.9824,11.4179,17.97,11.4172L17.8411,11.4098L17.8293,11.2812Q17.7554,10.47702,17.466,9.72218Q17.1714,8.97319,16.6824,8.328669999999999L16.6124,8.23645L16.6839,8.145389999999999Q16.6875,8.14069,16.6941,8.13213Q16.7162,8.10327,16.7317,8.08814L18.3228,6.53057Q18.4614,6.39508,18.6393,6.49Q19.1511,6.76427,19.7512,6.68702Q20.5165,6.58858,20.9774,5.98764Q21.437,5.38828,21.3277,4.63659Q21.2204,3.89774,20.5907,3.44832Q19.9595,2.99786,19.205,3.12529Q18.2776,3.27582,17.8576,4.09684Q17.4387,4.91587,17.87,5.72875Q17.9764,5.9294,17.8108,6.09016L17.2308,6.65388L16.332700000000003,7.53241Q16.3139,7.55057,16.2757,7.58583Q16.253700000000002,7.60618,16.2421,7.61705L16.140900000000002,7.71172L16.0385,7.61839Q14.5301,6.2434,12.4846,6.05395L12.3728,6.04359L12.3512,5.93331Q12.343,5.89119,12.3399,5.84839L12.3396,5.84312L12.3374,4.42793Q12.3362,4.2382,12.5342,4.1752199999999995Q13.2054,3.96186,13.5612,3.41102Q13.9158,2.86214,13.82,2.18964Q13.7168,1.463968,13.1006,1.0123790000000001Q12.4833,0.5599957,11.7429,0.669246Q11.102,0.7637240000000001,10.65637,1.220477Q10.21282,1.67513,10.15981,2.28823Q10.10083,2.92001,10.46071,3.44828Q10.82138,3.9777,11.4433,4.1688Q11.6596,4.236330000000001,11.6596,4.4662299999999995L11.657,5.16727L11.6575,5.78461Q11.6575,5.81373,11.6542,5.8697Q11.6526,5.89709,11.6519,5.91172L11.6459,6.04185L11.5163,6.05415Q10.48551,6.1519,9.60543,6.53801Q8.6917,6.94206,7.96193,7.61441L7.87356,7.69582L7.77482,7.62735Q7.74529,7.60688,7.71808,7.58355L7.71443,7.58042L6.15846,6.06301Q6.01994,5.92817,6.11935,5.7442Q6.40604,5.22515,6.31344,4.64105Q6.19577,3.85163,5.51763,3.40667Q4.838010000000001,2.96076,4.04654,3.15636Q3.34992,3.32813,2.9589600000000003,3.89956Q2.5686999999999998,4.46995,2.66911,5.16698Q2.77623,5.911,3.40821,6.35938Q4.04244,6.80936,4.798109999999999,6.6717Q4.94533,6.64492,5.24259,6.54535Q5.3948,6.49437,5.47278,6.47112L5.55721,6.44595L7.38974,8.23166L7.30942,8.33728Q6.32455,9.63237,6.1663,11.2875L6.15333,11.4232L6.01699,11.4232Q5.92437,11.4232,5.74317,11.4225Q5.28974,11.4207,5.0671,11.4259Q4.81955,11.4314,4.7415400000000005,11.197Q4.52189,10.5383,3.90805,10.19117Q3.29442,9.84413,2.61192,9.99168Q1.881542,10.14953,1.473863,10.7252Q1.0668973,11.2999,1.169105,12.0266Q1.274549,12.7767,1.936224,13.2284Q2.6001700000000003,13.6816,3.35792,13.5151Q4.39755,13.2869,4.74727,12.2877Q4.8247,12.0677,5.04467,12.081Q5.12663,12.0859,5.29648,12.0836Q5.37263,12.0826,5.41123,12.0826L6.15398,12.0826L6.16679,12.2185Q6.3225,13.8696,7.31727,15.1811L7.39519,15.2838L7.30533,15.3762Q7.29458,15.3873,7.27535,15.4073Q7.23369,15.4505,7.21301,15.4707L6.85636,15.8195L5.70554,16.9478Q5.53787,17.1136,5.33323,17.0063Q4.73968,16.6943,4.08337,16.8516Q3.3641,17.0155,2.9655899999999997,17.5882Q2.56851,18.1589,2.66986,18.8759Q2.77409,19.6122,3.41766,20.0661Q4.0622,20.5207,4.80428,20.3796Q5.74204,20.2018,6.14571,19.4025Q6.54844,18.6051,6.12305,17.7736Q6.02212,17.5768,6.18109,17.4232L7.67361,15.9669Q7.69487,15.9453,7.7365,15.9106Q7.7538,15.8962,7.76235,15.8887L7.86368,15.8007L7.96241,15.8916Q8.69092,16.563,9.60241,16.9673Q10.47737,17.3526,11.523,17.4544L11.6584,17.4676L11.6584,17.7645L11.6575,18.7303L11.6612,19.4947Q11.664,19.7592,11.4121,19.8388Q10.8093,20.0292,10.46326,20.5441Q10.11744,21.0586,10.16037,21.6992Q10.19858,22.2752,10.61708,22.7325Q11.0374,23.1918,11.6345,23.3055Q11.7528,23.3283,11.8713,23.35L12.1374,23.35ZM12.0042,3.28995Q12.3575,3.28702,12.6092,3.03942Q12.8598,2.79297,12.858,2.4526399999999997Q12.8561,2.10375,12.6014,1.86207Q12.3442,1.61806,11.9755,1.62087Q11.6327,1.62408,11.3829,1.87472Q11.1339,2.12465,11.1381,2.46056Q11.1429,2.80501,11.3947,3.04727Q11.6474,3.29043,12.0025,3.28996L12.0034,3.28996L12.0038,3.28996L12.0042,3.28996L12.0042,3.28995ZM12.0044,3.58996L12.0045,3.58996Q12.4806,3.58677,12.8196,3.2533Q13.1605,2.91805,13.158,2.45107Q13.1554,1.97417,12.8079,1.64444Q12.4629,1.317143,11.9732,1.3208739999999999Q11.5069,1.32524,11.1704,1.66298Q10.83238,2.00225,10.83808,2.46426Q10.84464,2.93439,11.1867,3.26346Q11.5269,3.59082,12.0034,3.58996L12.0042,3.58996L12.0044,3.58996ZM5.30714,5.71586Q5.65522,5.38484,5.65873,4.90932Q5.66224,4.43377,5.31905,4.09783Q4.97729,3.76329,4.49441,3.76623Q4.01457,3.76547,3.67354,4.09811Q3.3311,4.432119999999999,3.33065,4.9058Q3.33065,5.36897,3.67086,5.70218Q4.00943,6.0338,4.48015,6.03578Q4.9605,6.04551,5.30714,5.71586ZM19.4956,3.91681L19.4975,4.0662199999999995Q19.139,4.07073,18.8892,4.3213799999999996Q18.6408,4.57064,18.6455,4.91757Q18.6509,5.26557,18.9122,5.50308Q19.177,5.74389,19.5534,5.73513Q19.8877,5.72744,20.1317,5.47116Q20.3756,5.21497,20.3662,4.8814Q20.3568,4.54194,20.1009,4.3009699999999995Q19.8442,4.05927,19.4987,4.06643L19.4956,3.91681ZM20.3066,4.0825499999999995Q19.961,3.75722,19.4937,3.76647L19.4937,3.76624Q19.0128,3.7723,18.6767,4.10963Q18.3392,4.44835,18.3455,4.9223Q18.353,5.40016,18.7103,5.72504Q19.064,6.0466,19.5603,6.03505Q20.0192,6.0245,20.349,5.67799Q20.6789,5.33138,20.6661,4.87312Q20.6533,4.40901,20.3066,4.0825499999999995ZM5.1092,4.31222Q5.36131,4.559,5.35874,4.90711Q5.35617,5.25524,5.1004,5.49847Q4.84319,5.74308,4.48141,5.73578Q4.1324000000000005,5.73432,3.88078,5.48786Q3.63065,5.24288,3.63065,4.90608Q3.63098,4.55869,3.88301,4.312860000000001Q4.13645,4.065659999999999,4.49624,4.06623Q4.85566,4.06404,5.1092,4.31222ZM15.0229,13.7606Q15.3728,14.1676,15.3445,14.6197L15.3444,14.6204Q15.3363,14.7599,15.3403,15.0421Q15.3423,15.1767,15.3423,15.2465L15.3423,15.5829L15.5925,15.3581Q16.5766,14.4738,16.9653,13.1259Q17.3841,11.6737,16.9238,10.2377Q16.4035,8.61435,14.9769,7.62557Q13.4874,6.59315,11.6332,6.71549Q9.97203,6.82838,8.69268,7.87088Q7.41236,8.91417,6.9987,10.49348Q6.62325,11.9109,7.08801,13.3137Q7.50394,14.5692,8.40617,15.3526L8.65452,15.5683L8.65452,15.2394Q8.65452,15.1764,8.656659999999999,15.0525Q8.66131,14.7832,8.652059999999999,14.6482Q8.616109999999999,14.1253,9.03737,13.6681Q9.43059,13.2411,10.08927,12.9016Q10.15348,12.8686,10.28559,12.8048Q10.34641,12.7755,10.37688,12.7606L10.5097,12.6957L10.44669,12.5619Q10.43286,12.5326,10.41324,12.5066L10.40591,12.497L10.39712,12.4886Q10.38212,12.4743,10.35262,12.4472Q10.32511,12.422,10.3122,12.4097Q9.66977,11.7993,9.65768,11.0018Q9.65045,10.49409,9.66072,9.98621Q9.66991,9.55411,9.9186,9.13626Q10.46708,8.215150000000001,11.5806,8.031369999999999Q12.697,7.84712,13.5562,8.54012Q14.3506,9.18047,14.3426,10.14918Q14.3388,10.6115,14.3426,10.9095Q14.3534,11.7944,13.6556,12.4338L13.657,12.432Q13.6509,12.4351,13.6316,12.443Q13.6031,12.4546,13.5871,12.4625L13.3911,12.5596L13.5523,12.7075Q13.6291,12.778,13.7234,12.8237Q14.5705,13.2342,15.0229,13.7606ZM15.6439,14.6385L15.6439,14.6378Q15.6796,14.0643,15.2504,13.565Q14.7775,13.0149,13.9273,12.5897Q14.6545,11.8798,14.6426,10.9055Q14.6388,10.6109,14.6426,10.15166Q14.6518,9.03791,13.7446,8.30661Q12.7807,7.52924,11.5317,7.73538Q10.28065,7.94186,9.6608,8.98283Q9.37166,9.46865,9.36078,9.98014Q9.35041,10.49318,9.35772,11.0064Q9.37127,11.9002,10.0586,12.5816Q9.99277,12.6139,9.95183,12.635Q9.24591,12.9988,8.81673,13.4648Q8.30795,14.0171,8.35276,14.6687Q8.3584,14.751,8.358229999999999,14.8943Q7.70362,14.2179,7.37279,13.2194Q6.93612,11.9013,7.28891,10.5695Q7.67776,9.08488,8.88219,8.103439999999999Q10.08757,7.12122,11.653,7.01484Q13.4026,6.8994,14.806,7.87213Q16.148899999999998,8.8029,16.6381,10.32926Q17.0705,11.6783,16.6771,13.0428Q16.363300000000002,14.1308,15.639,14.8946Q15.6386,14.7303,15.6439,14.6385ZM13.6494,10.6865Q13.65,10.6999,13.6506,10.7139Q13.6642,11.0083,13.6355,11.1577Q13.4772,12.0164,12.5169,12.3197Q11.9594,12.4958,11.3919,12.2958Q10.82442,12.0957,10.53045,11.622Q10.33751,11.3204,10.33977,10.9635Q10.33998,10.9463,10.34051,10.9033Q10.34669,10.40386,10.33982,10.15577Q10.32316,9.56057,10.79247,9.12574Q11.3237,8.63317,12.0739,8.66413Q12.8248,8.69513,13.3068,9.23012Q13.6687,9.63045,13.6554,10.12665Q13.6535,10.21637,13.6548,10.39786Q13.6554,10.49007,13.6554,10.5365L13.6554,10.6865L13.6494,10.6865ZM13.3451,9.95279Q13.3019,9.67206,13.0842,9.4313Q12.6864,8.98967,12.0616,8.96388Q11.4361,8.93806,10.99645,9.34573Q10.62685,9.68816,10.6397,10.14737Q10.64674,10.40155,10.64049,10.907Q10.64001,10.9461,10.63975,10.9671Q10.63807,11.2335,10.78316,11.4603Q11.0237,11.8479,11.4917,12.0129Q11.9646,12.1796,12.4265,12.0336Q13.2149,11.7846,13.3405,11.1033Q13.3628,10.9867,13.3509,10.7277Q13.3451,10.6006,13.3451,10.5358L13.3451,9.95279ZM3.8079,10.9526Q3.47167,10.6214,2.99513,10.615L2.9941500000000003,10.615Q2.52266,10.6119,2.17758,10.9451Q1.830594,11.2803,1.829169,11.7451Q1.829262,12.2186,2.1693499999999997,12.5539Q2.50806,12.8879,2.9883699999999997,12.8919Q3.46084,12.8933,3.80448,12.5574Q4.149649999999999,12.2201,4.148429999999999,11.755Q4.145490000000001,11.2852,3.8079,10.9526ZM21.8234,12.5579Q22.1669,12.2223,22.1679,11.756Q22.1689,11.2897,21.8266,10.9527Q21.4856,10.6171,21.0129,10.6155Q20.5353,10.6168,20.1956,10.9448Q19.8545,11.2741,19.847,11.7434Q19.8423,12.2138,20.1874,12.5539Q20.531,12.8925,21.008,12.8922Q21.4812,12.8922,21.8234,12.5579ZM2.99115,10.915L2.99213,10.915Q3.34742,10.9201,3.59736,11.1663Q3.84627,11.4115,3.84843,11.7558Q3.84932,12.0941,3.59478,12.3429Q3.33894,12.593,2.99087,12.5919Q2.63213,12.5889,2.3799900000000003,12.3403Q2.1292400000000002,12.0931,2.1291700000000002,11.746Q2.1302000000000003,11.408,2.38599,11.1609Q2.64267,10.913,2.99115,10.915ZM21.6161,11.1665Q21.8686,11.4151,21.8679,11.7553Q21.8671,12.0957,21.6138,12.3433Q21.359,12.5922,21.0078,12.5922Q20.6539,12.5924,20.398,12.3403Q20.1436,12.0895,20.147,11.7482Q20.1525,11.4034,20.4039,11.1606Q20.6568,10.9165,21.0118,10.9155Q21.3623,10.9167,21.6161,11.1665ZM9.33714,15.0439Q9.33618,15.1587,9.33612,15.2165L9.48612,15.2166L9.33635,15.2166Q9.33635,15.2797,9.33796,15.405Q9.3417,15.6959,9.3331,15.8381Q9.31835,16.0839,9.55867,16.2074Q10.65252,16.7781,11.8918,16.8023Q13.2678,16.8297,14.4934,16.1784Q14.6647,16.087400000000002,14.6628,15.8907Q14.6568,15.1141,14.6627,14.6231Q14.6689,14.3946,14.5212,14.2183Q14.2732,13.9111,13.8442,13.652Q12.8948,13.0794,12.0224,13.0691Q11.1746,13.0588,10.23962,13.5826Q9.75511,13.8538,9.48516,14.1863Q9.32533,14.3715,9.33412,14.6149Q9.33954,14.7565,9.33714,15.0439ZM9.63612,15.2166Q9.63618,15.1601,9.63713,15.0464Q9.63959,14.752,9.63389,14.6034Q9.62936,14.4777,9.71331,14.3811L9.71506,14.3791L9.71673,14.3771Q9.95054,14.0882,10.38613,13.8444Q11.2512,13.3597,12.0187,13.3691Q12.8097,13.3785,13.6893,13.9089Q14.0737,14.141,14.2885,14.4078L14.2896,14.4091L14.2907,14.4103Q14.366,14.4997,14.3629,14.615Q14.3568,15.1134,14.3628,15.893Q14.3629,15.908,14.3525,15.9135Q13.1958,16.5282,11.8978,16.5024Q10.72884,16.4795,9.69743,15.9415Q9.62953,15.9065,9.63256,15.8561Q9.64182,15.7031,9.63794,15.4011Q9.63635,15.2778,9.63635,15.2166L9.63612,15.2166ZM19.5059,19.4414Q19.8579,19.4409,20.1115,19.1942Q20.364,18.9485,20.3652,18.6078Q20.367,18.2609,20.1169,18.0143Q19.8653,17.7663,19.5074,17.7652Q19.1495,17.7642,18.8964,18.0107Q18.6447,18.2558,18.6443,18.6025Q18.644,18.9492,18.8952,19.1948Q19.1474,19.4414,19.5045,19.4414L19.5059,19.4414L19.5059,19.4414ZM19.5059,19.7414L19.5061,19.7414Q19.9798,19.7409,20.3207,19.4092Q20.6636,19.0756,20.6652,18.6089Q20.6677,18.136,20.3275,17.8006Q19.9887,17.4666,19.5083,17.4652Q19.0279,17.4638,18.687,17.7958Q18.3448,18.1292,18.3443,18.6022Q18.3439,19.0753,18.6855,19.4093Q19.0251,19.7414,19.5045,19.7414L19.5059,19.7414ZM3.66996,17.7979Q3.32877,18.1321,3.32948,18.605Q3.33019,19.0779,3.67241,19.4111Q4.01321,19.7428,4.49342,19.7414Q4.9695800000000006,19.7394,5.30968,19.4065Q5.6516,19.0718,5.65038,18.6045Q5.65113,18.1322,5.30994,17.798Q4.97015,17.4652,4.48993,17.4652Q4.00976,17.4652,3.66996,17.7979ZM3.88167,19.1961Q3.63,18.9511,3.62948,18.6045Q3.62896,18.258,3.87987,18.0123Q4.13218,17.7652,4.48993,17.7652Q4.84771,17.7652,5.10002,18.0123Q5.35093,18.2581,5.35038,18.6053Q5.35127,18.946,5.09981,19.1921Q4.84667,19.4399,4.49254,19.4414Q4.13475,19.4425,3.88167,19.1961ZM12.0026,22.6779L12.0035,22.6779Q12.4791,22.6747,12.8164,22.3454Q13.1559,22.0139,13.1592,21.5431Q13.1592,21.0714,12.8148,20.7383Q12.4722,20.4068,11.9922,20.4084Q11.509,20.4039,11.166,20.7377Q10.82155,21.0729,10.82393,21.5488Q10.82632,22.0247,11.1741,22.3566Q11.52,22.6868,12.0026,22.6779ZM12.0003,22.5109L11.9978,22.378Q11.6381,22.3848,11.3812,22.1396Q11.1257,21.8957,11.1239,21.5473Q11.1222,21.1989,11.3752,20.9527Q11.6297,20.705,11.9894,20.7084Q12.3513,20.7072,12.6062,20.9539Q12.8592,21.1986,12.8592,21.5431Q12.8568,21.8867,12.6068,22.1307Q12.3555,22.3761,11.9996,22.378L12.0003,22.5109Z" fill-rule="evenodd" fill="#2D2E33" fill-opacity="1"/></g></g></g></svg>