<svg xmlns="http://www.w3.org/2000/svg" xmlns:xlink="http://www.w3.org/1999/xlink" fill="none" version="1.1" width="20" height="20" viewBox="0 0 20 20"><defs><clipPath id="master_svg0_sa200_4862"><rect x="0" y="0" width="20" height="20" rx="0"/></clipPath></defs><g clip-path="url(#master_svg0_sa200_4862)"><g><path d="M15.96875,13.5L14.25598,13.5Q14.20673,13.5,14.15843,13.5096Q14.11013,13.5192,14.06463,13.5381Q14.01914,13.5569,13.97819,13.5843Q13.93724,13.6116,13.90242,13.6464Q13.8676,13.6813,13.84024,13.7222Q13.81288,13.7632,13.794039999999999,13.8087Q13.77519,13.8542,13.76558,13.9025Q13.755980000000001,13.9508,13.755980000000001,14Q13.755980000000001,14.0492,13.76558,14.0975Q13.77519,14.1458,13.794039999999999,14.1913Q13.81288,14.2368,13.84024,14.2778Q13.8676,14.3187,13.90242,14.3536Q13.93724,14.3884,13.97819,14.4157Q14.01914,14.4431,14.06463,14.4619Q14.11013,14.4808,14.15843,14.4904Q14.20673,14.5,14.25598,14.5L15.96875,14.5Q16.603,14.5,17.0515,14.0515Q17.5,13.603,17.5,12.96875L17.5,4.03125Q17.5,3.396985,17.0515,2.948493Q16.603,2.5,15.96875,2.5L7.03125,2.5Q6.396986,2.5,5.9484926,2.948493Q5.5,3.396986,5.5,4.03125L5.5,5.72492Q5.5,5.77417,5.509607,5.8224599999999995Q5.519215,5.870760000000001,5.53806,5.916259999999999Q5.556906,5.96176,5.584265,6.0027Q5.611625,6.0436499999999995,5.646447,6.078469999999999Q5.681269,6.11329,5.722215,6.14065Q5.763161,6.168010000000001,5.808658,6.186859999999999Q5.854155,6.2057,5.9024549,6.215310000000001Q5.9507543,6.22492,6,6.22492Q6.0492457,6.22492,6.0975451,6.215310000000001Q6.145845,6.2057,6.191342,6.186859999999999Q6.236839,6.168010000000001,6.277785,6.14065Q6.318731,6.11329,6.353553,6.078469999999999Q6.388375,6.0436499999999995,6.415735,6.0027Q6.443094,5.96176,6.46194,5.916259999999999Q6.480785,5.870760000000001,6.490393,5.8224599999999995Q6.5,5.77417,6.5,5.72492L6.5,4.03125Q6.5,3.8111990000000002,6.6555990000000005,3.6555999999999997Q6.811199,3.5,7.03125,3.5L15.96875,3.5Q16.1888,3.5,16.3444,3.6555999999999997Q16.5,3.8111990000000002,16.5,4.03125L16.5,12.96875Q16.5,13.1888,16.3444,13.3444Q16.1888,13.5,15.96875,13.5Z" fill-rule="evenodd" fill="#99A0AF" fill-opacity="1"/></g><g><path d="M14.5,15.96875L14.5,7.03125Q14.5,6.396986,14.0515,5.9484925Q13.603,5.5,12.96875,5.5L4.03125,5.5Q3.396986,5.5,2.948493,5.9484927Q2.5,6.396986,2.5,7.03125L2.5,15.96875Q2.5,16.603,2.948493,17.0515Q3.396985,17.5,4.03125,17.5L12.96875,17.5Q13.603,17.5,14.0515,17.0515Q14.5,16.603,14.5,15.96875ZM13.3444,6.6556Q13.5,6.811199,13.5,7.03125L13.5,15.96875Q13.5,16.1888,13.3444,16.3444Q13.1888,16.5,12.96875,16.5L4.03125,16.5Q3.8111990000000002,16.5,3.6555999999999997,16.3444Q3.5,16.1888,3.5,15.96875L3.5,7.03125Q3.5,6.811199,3.6555999999999997,6.6556Q3.8111990000000002,6.5,4.03125,6.5L12.96875,6.5Q13.1888,6.5,13.3444,6.6556Z" fill-rule="evenodd" fill="#99A0AF" fill-opacity="1"/></g></g></svg>