<svg xmlns="http://www.w3.org/2000/svg" xmlns:xlink="http://www.w3.org/1999/xlink" fill="none" version="1.1" width="19.810546875" height="19.810546875" viewBox="0 0 19.810546875 19.810546875"><g><g><ellipse cx="16.060546875" cy="16.060545444488525" rx="3" ry="3.000000476837158" fill-opacity="0" stroke-opacity="1" stroke="#111A1E" fill="none" stroke-width="1.5" stroke-linejoin="round"/></g><g transform="matrix(0.7071067690849304,-0.7071067690849304,0.7071067690849304,0.7071067690849304,-3.2083340297685936,2.2075213437201455)"><path d="M0.310546875,10.514822500000001L0.310546875,4.9765625Q0.310546875,4.902694,0.32495787499999995,4.8302445Q0.339368875,4.7577955,0.367636875,4.6895495Q0.39590587499999996,4.6213045,0.436944875,4.5598845Q0.47798387499999995,4.4984655,0.530216875,4.4462325Q0.582449875,4.3939995,0.643868875,4.3529605Q0.7052888749999999,4.3119215,0.773533875,4.2836525Q0.8417798750000001,4.2553845,0.914228875,4.2409735Q0.986678375,4.2265625,1.060546875,4.2265625L6.599006875,4.2265625Q6.672876875,4.2265625,6.745326875,4.2409735Q6.817776875,4.2553845,6.886016875,4.2836525Q6.954266875,4.3119215,7.015686875,4.3529605Q7.077106875,4.3939995,7.129336875,4.4462325Q7.181566875,4.4984655,7.222606875,4.5598845Q7.263646875,4.6213045,7.291916875,4.6895495Q7.320186875,4.7577955,7.334596875,4.8302445Q7.349006875,4.902694,7.349006875,4.9765625L7.349006875,10.514822500000001Q7.349006875,10.5886925,7.334596875,10.6611425Q7.320186875,10.7335925,7.291916875,10.8018425Q7.263646875,10.870082499999999,7.222606875,10.9315025Q7.181566875,10.992922499999999,7.129336875,11.0451525Q7.077106875,11.0973925,7.015686875,11.1384325Q6.954266875,11.1794625,6.886016875,11.207732499999999Q6.817776875,11.2360025,6.745326875,11.2504125Q6.672876875,11.264822500000001,6.599006875,11.264822500000001L1.060546875,11.264822500000001Q0.986678375,11.264822500000001,0.914228875,11.2504125Q0.8417798750000001,11.2360025,0.773533875,11.207732499999999Q0.7052888749999999,11.1794625,0.643868875,11.1384325Q0.582449875,11.0973925,0.530216875,11.0451525Q0.47798387499999995,10.992922499999999,0.436944875,10.9315025Q0.39590587499999996,10.870082499999999,0.367636875,10.8018425Q0.339368875,10.7335925,0.32495787499999995,10.6611425Q0.310546875,10.5886925,0.310546875,10.514822500000001ZM1.810546875,5.7265625L1.810546875,9.764822500000001L5.849006875,9.764822500000001L5.849006875,5.7265625L1.810546875,5.7265625Z" fill="#111A1E" fill-opacity="1"/></g><g><path d="M9.369439635,1.232421875L16.599910625,1.232421875Q17.739000625,1.232421875,18.544450625,2.037878275Q19.349910625,2.843335875,19.349910625,3.982421875L19.349910625,10.290111875Q19.349910625,10.363981875,19.335500625,10.436431875Q19.321090625,10.508881875,19.292820624999997,10.577131875Q19.264550625,10.645371875,19.223510625,10.706791875Q19.182470625,10.768211875,19.130240625,10.820441875Q19.078010624999997,10.872681875,19.016590625,10.913721875Q18.955170625,10.954751875,18.886920625000002,10.983021875Q18.818680625,11.011291875,18.746230625000003,11.025701875Q18.673780625,11.040111875,18.599910625,11.040111875Q18.526040625,11.040111875,18.453590625,11.025701875Q18.381140625,11.011291875,18.312900624999997,10.983021875Q18.244650625,10.954751875,18.183230625,10.913721875Q18.121810625000002,10.872681875,18.069580625,10.820441875Q18.017340625,10.768211875,17.976310625,10.706791875Q17.935270625,10.645371875,17.907000625000002,10.577131875Q17.878730625,10.508881875,17.864320624999998,10.436431875Q17.849910625,10.363981875,17.849910625,10.290111875L17.849910625,3.982421875Q17.849910625,3.464651875,17.483790624999997,3.098541875Q17.117680625,2.732421875,16.599910625,2.732421875L9.369140625,2.732421875Q9.295272125,2.732421875,9.222822625,2.718010875Q9.150373625,2.703599875,9.082127625,2.675331875Q9.013882625,2.647062875,8.952462625,2.606023875Q8.891043625,2.564984875,8.838810625,2.512751875Q8.786577625,2.460518875,8.745538625,2.399099875Q8.704499625,2.337679875,8.676230625,2.269434875Q8.647962625,2.201188875,8.633551624999999,2.128739875Q8.619140625,2.056290375,8.619140625,1.982421875Q8.619140625,1.9085533749999999,8.633551624999999,1.836103875Q8.647962625,1.763654875,8.676230625,1.695408875Q8.704499625,1.627163875,8.745538625,1.565743875Q8.786577625,1.504324875,8.838810625,1.452091875Q8.891043625,1.399858875,8.952462625,1.358819875Q9.013882625,1.317780875,9.082127625,1.289511875Q9.150373625,1.261243875,9.222822625,1.246832875Q9.295272125,1.232421875,9.369140625,1.232421875L9.369439635,1.232421875Z" fill-rule="evenodd" fill="#111A1E" fill-opacity="1"/></g><g><path d="M2.734375,10.291314635L2.734375,16.598705625Q2.734375,17.116475625,3.100495,17.482595625000002Q3.466605,17.848705625,3.984375,17.848705625L10.292065,17.848705625Q10.365935,17.848705625,10.438385,17.863115625Q10.510835,17.877535625,10.579075,17.905795625Q10.647325,17.934065625,10.708745,17.975105625Q10.770165,18.016145625,10.822395,18.068375625Q10.874625,18.120615625,10.915665,18.182035625Q10.956705,18.243445625,10.984975,18.311695625Q11.013245,18.379945624999998,11.027655,18.452395625Q11.042065,18.524835625,11.042065,18.598705625Q11.042065,18.672575625,11.027655,18.745025625Q11.013245,18.817475625,10.984975,18.885725625Q10.956705,18.953965625000002,10.915665,19.015385625Q10.874625,19.076805625,10.822395,19.129035625Q10.770165,19.181275624999998,10.708745,19.222315625Q10.647325,19.263345625,10.579075,19.291615625Q10.510835,19.319885624999998,10.438385,19.334295625Q10.365935,19.348705625,10.292065,19.348705625L3.984375,19.348705625Q2.845288,19.348705625,2.0398314,18.543255625Q1.234375,17.737795625,1.234375,16.598705625L1.234375,10.291015625Q1.234375,10.217147125,1.248786,10.144697625Q1.263197,10.072248625,1.291465,10.004002625Q1.319734,9.935757625,1.360773,9.874337625Q1.401812,9.812918625,1.454045,9.760685625Q1.506278,9.708452625,1.567697,9.667413625Q1.629117,9.626374625,1.697362,9.598105625Q1.765608,9.569837625,1.838057,9.555426624999999Q1.9105064999999999,9.541015625,1.984375,9.541015625Q2.0582435,9.541015625,2.130693,9.555426624999999Q2.203142,9.569837625,2.271388,9.598105625Q2.339633,9.626374625,2.401053,9.667413625Q2.462472,9.708452625,2.514705,9.760685625Q2.566938,9.812918625,2.607977,9.874337625Q2.649016,9.935757625,2.677285,10.004002625Q2.705553,10.072248625,2.719964,10.144697625Q2.734375,10.217147125,2.734375,10.291015625L2.734375,10.291314635Z" fill-rule="evenodd" fill="#111A1E" fill-opacity="1"/></g></g></svg>