<svg xmlns="http://www.w3.org/2000/svg" xmlns:xlink="http://www.w3.org/1999/xlink" fill="none" version="1.1" width="24" height="24" viewBox="0 0 24 24"><g><g></g><g><g><ellipse cx="18" cy="17.999998569488525" rx="3" ry="3.000000476837158" fill-opacity="0" stroke-opacity="1" stroke="#D1D4DC" fill="none" stroke-width="1.5" stroke-linejoin="round"/></g><g transform="matrix(0.7071067690849304,-0.7071067690849304,0.7071067690849304,0.7071067690849304,-4.011681770789437,4.1469744687201455)"><path d="M2.25,12.454275625000001L2.25,6.916015625Q2.25,6.842147125,2.264411,6.769697625Q2.278822,6.697248625,2.30709,6.629002625Q2.335359,6.560757625,2.376398,6.499337625Q2.417437,6.437918625,2.46967,6.385685625Q2.521903,6.333452625,2.583322,6.292413625Q2.644742,6.251374625,2.712987,6.223105625Q2.781233,6.194837625,2.853682,6.180426625Q2.9261315,6.166015625,3,6.166015625L8.53846,6.166015625Q8.61233,6.166015625,8.68478,6.180426625Q8.75723,6.194837625,8.82547,6.223105625Q8.89372,6.251374625,8.95514,6.292413625Q9.01656,6.333452625,9.06879,6.385685625Q9.12102,6.437918625,9.16206,6.499337625Q9.2031,6.560757625,9.23137,6.629002625Q9.259640000000001,6.697248625,9.274049999999999,6.769697625Q9.28846,6.842147125,9.28846,6.916015625L9.28846,12.454275625000001Q9.28846,12.528145625,9.274049999999999,12.600595625Q9.259640000000001,12.673045625,9.23137,12.741295625Q9.2031,12.809535624999999,9.16206,12.870955625Q9.12102,12.932375624999999,9.06879,12.984605625Q9.01656,13.036845625,8.95514,13.077885625Q8.89372,13.118915625,8.82547,13.147185624999999Q8.75723,13.175455625,8.68478,13.189865625Q8.61233,13.204275625000001,8.53846,13.204275625000001L3,13.204275625000001Q2.9261315,13.204275625000001,2.853682,13.189865625Q2.781233,13.175455625,2.712987,13.147185624999999Q2.644742,13.118915625,2.583322,13.077885625Q2.521903,13.036845625,2.46967,12.984605625Q2.417437,12.932375624999999,2.376398,12.870955625Q2.335359,12.809535624999999,2.30709,12.741295625Q2.278822,12.673045625,2.264411,12.600595625Q2.25,12.528145625,2.25,12.454275625000001ZM3.75,7.666015625L3.75,11.704275625000001L7.78846,11.704275625000001L7.78846,7.666015625L3.75,7.666015625Z" fill="#D1D4DC" fill-opacity="1"/></g><g><path d="M11.30889276,3.171875L18.53936375,3.171875Q19.67845375,3.171875,20.48390375,3.9773314Q21.28936375,4.782789,21.28936375,5.921875L21.28936375,12.229565Q21.28936375,12.303435,21.27495375,12.375885Q21.26054375,12.448335,21.232273749999997,12.516585Q21.20400375,12.584825,21.16296375,12.646245Q21.12192375,12.707665,21.06969375,12.759895Q21.017463749999997,12.812135,20.95604375,12.853175Q20.89462375,12.894205,20.826373750000002,12.922475Q20.75813375,12.950745,20.685683750000003,12.965155Q20.61323375,12.979565,20.53936375,12.979565Q20.46549375,12.979565,20.39304375,12.965155Q20.32059375,12.950745,20.252353749999997,12.922475Q20.18410375,12.894205,20.12268375,12.853175Q20.061263750000002,12.812135,20.00903375,12.759895Q19.95679375,12.707665,19.91576375,12.646245Q19.87472375,12.584825,19.846453750000002,12.516585Q19.81818375,12.448335,19.803773749999998,12.375885Q19.78936375,12.303435,19.78936375,12.229565L19.78936375,5.921875Q19.78936375,5.4041049999999995,19.423243749999997,5.0379950000000004Q19.05713375,4.671875,18.53936375,4.671875L11.30859375,4.671875Q11.23472525,4.671875,11.16227575,4.657464Q11.08982675,4.643053,11.02158075,4.614785Q10.95333575,4.586516,10.89191575,4.545477Q10.83049675,4.504438,10.77826375,4.452205Q10.72603075,4.399972,10.68499175,4.338553Q10.64395275,4.277133,10.61568375,4.208888Q10.58741575,4.140642,10.573004749999999,4.068193Q10.55859375,3.9957435,10.55859375,3.921875Q10.55859375,3.8480065,10.573004749999999,3.775557Q10.58741575,3.703108,10.61568375,3.634862Q10.64395275,3.566617,10.68499175,3.505197Q10.72603075,3.443778,10.77826375,3.391545Q10.83049675,3.339312,10.89191575,3.298273Q10.95333575,3.257234,11.02158075,3.228965Q11.08982675,3.200697,11.16227575,3.186286Q11.23472525,3.171875,11.30859375,3.171875L11.30889276,3.171875Z" fill-rule="evenodd" fill="#D1D4DC" fill-opacity="1"/></g><g><path d="M4.673828125,12.23076776L4.673828125,18.53815875Q4.673828125,19.05592875,5.0399481250000004,19.422048750000002Q5.4060581249999995,19.78815875,5.923828125,19.78815875L12.231518125,19.78815875Q12.305388125,19.78815875,12.377838125,19.80256875Q12.450288125,19.81698875,12.518528125,19.84524875Q12.586778125,19.87351875,12.648198125,19.91455875Q12.709618125,19.95559875,12.761848125,20.00782875Q12.814078125,20.06006875,12.855118125,20.12148875Q12.896158125,20.18289875,12.924428125,20.25114875Q12.952698125,20.319398749999998,12.967108125,20.39184875Q12.981518125,20.46428875,12.981518125,20.53815875Q12.981518125,20.61202875,12.967108125,20.68447875Q12.952698125,20.75692875,12.924428125,20.82517875Q12.896158125,20.893418750000002,12.855118125,20.95483875Q12.814078125,21.01625875,12.761848125,21.06848875Q12.709618125,21.120728749999998,12.648198125,21.16176875Q12.586778125,21.20279875,12.518528125,21.23106875Q12.450288125,21.259338749999998,12.377838125,21.27374875Q12.305388125,21.28815875,12.231518125,21.28815875L5.923828125,21.28815875Q4.784741125,21.28815875,3.979284525,20.48270875Q3.173828125,19.67724875,3.173828125,18.53815875L3.173828125,12.23046875Q3.173828125,12.15660025,3.188239125,12.08415075Q3.202650125,12.01170175,3.230918125,11.94345575Q3.259187125,11.87521075,3.300226125,11.81379075Q3.341265125,11.75237175,3.393498125,11.70013875Q3.445731125,11.64790575,3.507150125,11.60686675Q3.568570125,11.56582775,3.636815125,11.53755875Q3.705061125,11.50929075,3.777510125,11.494879749999999Q3.849959625,11.48046875,3.923828125,11.48046875Q3.997696625,11.48046875,4.070146125,11.494879749999999Q4.142595125,11.50929075,4.210841125,11.53755875Q4.279086125,11.56582775,4.340506125,11.60686675Q4.401925125,11.64790575,4.454158125,11.70013875Q4.506391125,11.75237175,4.547430125,11.81379075Q4.588469125,11.87521075,4.616738125,11.94345575Q4.645006125,12.01170175,4.659417125,12.08415075Q4.673828125,12.15660025,4.673828125,12.23046875L4.673828125,12.23076776Z" fill-rule="evenodd" fill="#D1D4DC" fill-opacity="1"/></g></g></g></svg>