<svg xmlns="http://www.w3.org/2000/svg" xmlns:xlink="http://www.w3.org/1999/xlink" fill="none" version="1.1" width="24" height="24" viewBox="0 0 24 24"><g><g></g><g><g><ellipse cx="18" cy="17.999998569488525" rx="3" ry="3.000000476837158" fill-opacity="0" stroke-opacity="1" stroke="#2D2E33" fill="none" stroke-width="1.5" stroke-linejoin="round"/></g><g transform="matrix(0.7071067690849304,-0.7071067690849304,0.7071067690849304,0.7071067690849304,-4.011871768779272,4.1470531684689576)"><path d="M2.25,12.454544322738649L2.25,6.9162843227386475Q2.25,6.842415822738648,2.264411,6.7699663227386475Q2.278822,6.697517322738648,2.30709,6.6292713227386475Q2.335359,6.561026322738647,2.376398,6.499606322738647Q2.417437,6.4381873227386475,2.46967,6.385954322738647Q2.521903,6.333721322738647,2.583322,6.2926823227386475Q2.644742,6.251643322738648,2.712987,6.223374322738647Q2.781233,6.195106322738647,2.853682,6.180695322738647Q2.9261315,6.1662843227386475,3,6.1662843227386475L8.53846,6.1662843227386475Q8.61233,6.1662843227386475,8.68478,6.180695322738647Q8.75723,6.195106322738647,8.82547,6.223374322738647Q8.89372,6.251643322738648,8.95514,6.2926823227386475Q9.01656,6.333721322738647,9.06879,6.385954322738647Q9.12102,6.4381873227386475,9.16206,6.499606322738647Q9.2031,6.561026322738647,9.23137,6.6292713227386475Q9.259640000000001,6.697517322738648,9.274049999999999,6.7699663227386475Q9.28846,6.842415822738648,9.28846,6.9162843227386475L9.28846,12.454544322738649Q9.28846,12.528414322738648,9.274049999999999,12.600864322738648Q9.259640000000001,12.673314322738648,9.23137,12.741564322738647Q9.2031,12.809804322738646,9.16206,12.871224322738648Q9.12102,12.932644322738646,9.06879,12.984874322738648Q9.01656,13.037114322738647,8.95514,13.078154322738648Q8.89372,13.119184322738647,8.82547,13.147454322738646Q8.75723,13.175724322738647,8.68478,13.190134322738647Q8.61233,13.204544322738649,8.53846,13.204544322738649L3,13.204544322738649Q2.9261315,13.204544322738649,2.853682,13.190134322738647Q2.781233,13.175724322738647,2.712987,13.147454322738646Q2.644742,13.119184322738647,2.583322,13.078154322738648Q2.521903,13.037114322738647,2.46967,12.984874322738648Q2.417437,12.932644322738646,2.376398,12.871224322738648Q2.335359,12.809804322738646,2.30709,12.741564322738647Q2.278822,12.673314322738648,2.264411,12.600864322738648Q2.25,12.528414322738648,2.25,12.454544322738649ZM3.75,7.6662843227386475L3.75,11.704544322738649L7.78846,11.704544322738649L7.78846,7.6662843227386475L3.75,7.6662843227386475Z" fill="#2D2E33" fill-opacity="1"/></g><g><path d="M18.538462527770996,3.1730726957321167L11.307692527770996,3.1730726957321167Q11.233824027770996,3.1730726957321167,11.161374527770995,3.1874836957321167Q11.088925527770996,3.2018946957321166,11.020679527770996,3.230162695732117Q10.952434527770997,3.2584316957321167,10.891014527770997,3.2994706957321167Q10.829595527770996,3.3405096957321168,10.777362527770997,3.3927426957321165Q10.725129527770996,3.4449756957321167,10.684090527770996,3.5063946957321166Q10.643051527770997,3.5678146957321166,10.614782527770997,3.6360596957321167Q10.586514527770996,3.7043056957321165,10.572103527770995,3.7767546957321168Q10.557692527770996,3.8492041957321166,10.557692527770996,3.9230726957321167Q10.557692527770996,3.996941195732117,10.572103527770995,4.069390695732117Q10.586514527770996,4.141839695732116,10.614782527770997,4.210085695732117Q10.643051527770997,4.278330695732117,10.684090527770996,4.339750695732117Q10.725129527770996,4.401169695732117,10.777362527770997,4.453402695732117Q10.829595527770996,4.505635695732117,10.891014527770997,4.546674695732117Q10.952434527770997,4.587713695732116,11.020679527770996,4.615982695732117Q11.088925527770996,4.644250695732117,11.161374527770995,4.658661695732117Q11.233824027770996,4.673072695732117,11.307692527770996,4.673072695732117L18.538462527770996,4.673072695732117Q19.056232527770995,4.673072695732117,19.422342527770994,5.039192695732117Q19.788462527770996,5.405302695732116,19.788462527770996,5.923072695732117L19.788462527770996,12.230762695732116Q19.788462527770996,12.304632695732117,19.802872527770994,12.377082695732117Q19.817282527770995,12.449532695732117,19.845552527770998,12.517782695732116Q19.873822527770997,12.586022695732117,19.914862527770996,12.647442695732117Q19.955892527770995,12.708862695732117,20.008132527770996,12.761092695732117Q20.060362527770998,12.813332695732116,20.121782527770996,12.854372695732117Q20.183202527770995,12.895402695732116,20.251452527770994,12.923672695732117Q20.319692527770997,12.951942695732116,20.392142527770996,12.966352695732116Q20.464592527770996,12.980762695732116,20.538462527770996,12.980762695732116Q20.612332527770995,12.980762695732116,20.684782527771,12.966352695732116Q20.757232527770995,12.951942695732116,20.825472527770998,12.923672695732117Q20.893722527770997,12.895402695732116,20.955142527770995,12.854372695732117Q21.016562527770994,12.813332695732116,21.068792527770995,12.761092695732117Q21.121022527770997,12.708862695732117,21.162062527770996,12.647442695732117Q21.203102527770994,12.586022695732117,21.231372527770993,12.517782695732116Q21.259642527770996,12.449532695732117,21.274052527770998,12.377082695732117Q21.288462527770996,12.304632695732117,21.288462527770996,12.230762695732116L21.288462527770996,5.923072695732117Q21.288462527770996,4.783986695732117,20.483002527770996,3.9785289957321166Q19.677552527770995,3.1730726957321167,18.538462527770996,3.1730726957321167Z" fill-rule="evenodd" fill="#2D2E33" fill-opacity="1"/></g><g><path d="M4.673076927661896,18.53845629638672L4.673076927661896,12.230766296386719Q4.673076927661896,12.156897796386719,4.658665927661896,12.084448296386718Q4.644254927661896,12.011999296386719,4.615986927661896,11.943753296386719Q4.587717927661895,11.87550829638672,4.546678927661896,11.81408829638672Q4.505639927661896,11.752669296386719,4.453406927661896,11.70043629638672Q4.401173927661896,11.648203296386718,4.339754927661896,11.607164296386719Q4.278334927661896,11.56612529638672,4.210089927661896,11.53785629638672Q4.1418439276618955,11.509588296386719,4.069394927661896,11.495177296386718Q3.996945427661896,11.480766296386719,3.9230769276618958,11.480766296386719Q3.8492084276618956,11.480766296386719,3.776758927661896,11.495177296386718Q3.7043099276618956,11.509588296386719,3.636063927661896,11.53785629638672Q3.5678189276618957,11.56612529638672,3.5063989276618956,11.607164296386719Q3.4449799276618958,11.648203296386718,3.3927469276618956,11.70043629638672Q3.340513927661896,11.752669296386719,3.2994749276618958,11.81408829638672Q3.2584359276618957,11.87550829638672,3.230166927661896,11.943753296386719Q3.2018989276618957,12.011999296386719,3.1874879276618957,12.084448296386718Q3.1730769276618958,12.156897796386719,3.1730769276618958,12.230766296386719L3.1730769276618958,18.53845629638672Q3.1730769276618958,19.67754629638672,3.978533327661896,20.48300629638672Q4.783989927661896,21.28845629638672,5.923076927661896,21.28845629638672L12.230766927661895,21.28845629638672Q12.304636927661896,21.28845629638672,12.377086927661896,21.274046296386718Q12.449536927661896,21.259636296386716,12.517776927661895,21.231366296386717Q12.586026927661896,21.203096296386718,12.647446927661896,21.16206629638672Q12.708866927661896,21.121026296386717,12.761096927661896,21.06878629638672Q12.813326927661896,21.016556296386717,12.854366927661896,20.95513629638672Q12.895406927661895,20.89371629638672,12.923676927661896,20.825476296386718Q12.951946927661895,20.75722629638672,12.966356927661895,20.68477629638672Q12.980766927661895,20.61232629638672,12.980766927661895,20.53845629638672Q12.980766927661895,20.46458629638672,12.966356927661895,20.39214629638672Q12.951946927661895,20.319696296386716,12.923676927661896,20.251446296386717Q12.895406927661895,20.18319629638672,12.854366927661896,20.12178629638672Q12.813326927661896,20.060366296386718,12.761096927661896,20.00812629638672Q12.708866927661896,19.95589629638672,12.647446927661896,19.91485629638672Q12.586026927661896,19.873816296386718,12.517776927661895,19.84554629638672Q12.449536927661896,19.81728629638672,12.377086927661896,19.802866296386718Q12.304636927661896,19.78845629638672,12.230766927661895,19.78845629638672L5.923076927661896,19.78845629638672Q5.405306927661895,19.78845629638672,5.039196927661896,19.42234629638672Q4.673076927661896,19.05622629638672,4.673076927661896,18.53845629638672Z" fill-rule="evenodd" fill="#2D2E33" fill-opacity="1"/></g></g></g></svg>