<svg xmlns="http://www.w3.org/2000/svg" xmlns:xlink="http://www.w3.org/1999/xlink" fill="none" version="1.1" width="24" height="24" viewBox="0 0 24 24"><defs><mask id="master_svg0_4081_38904" style="mask-type:alpha" maskUnits="objectBoundingBox"><g><rect x="0" y="0" width="24" height="24" rx="0" fill="#FFFFFF" fill-opacity="1"/></g></mask></defs><g mask="url(#master_svg0_4081_38904)"><g><g><path d="M18.74999988079071,6.400390625Q18.74999988079071,6.326522125,18.73559988079071,6.254072625Q18.72119988079071,6.181623625,18.692899880790712,6.113377625Q18.66459988079071,6.045132625,18.62359988079071,5.983712625Q18.58259988079071,5.922293625,18.53029988079071,5.870060625Q18.478099880790708,5.817827625,18.41669988079071,5.776788625Q18.35529988079071,5.735749625,18.28699988079071,5.707480625Q18.218799880790712,5.679212625,18.14629988079071,5.664801625Q18.073899880790712,5.650390625,17.99999988079071,5.650390625L5.9999998807907104,5.650390625Q5.926131380790711,5.650390625,5.8536818807907105,5.664801625Q5.781232880790711,5.679212625,5.7129868807907105,5.707480625Q5.64474188079071,5.735749625,5.58332188079071,5.776788625Q5.5219028807907105,5.817827625,5.46966988079071,5.870060625Q5.41743688079071,5.922293625,5.3763978807907105,5.983712625Q5.335358880790711,6.045132625,5.30708988079071,6.113377625Q5.27882188079071,6.181623625,5.26441088079071,6.254072625Q5.2499998807907104,6.326522125,5.2499998807907104,6.400390625L5.2499998807907104,18.000390625Q5.2499998807907104,19.139490625,6.055456180790711,19.944890625Q6.8609128807907105,20.750390625,7.9999998807907104,20.750390625L15.99999988079071,20.750390625Q17.13909988079071,20.750390625,17.94449988079071,19.944890625Q18.74999988079071,19.139490625,18.74999988079071,18.000390625L18.74999988079071,6.400390625ZM17.24999988079071,7.150390625L6.7499998807907104,7.150390625L6.7499998807907104,18.000390625Q6.7499998807907104,18.518190625000003,7.116119880790711,18.884290625Q7.48222988079071,19.250390625,7.9999998807907104,19.250390625L15.99999988079071,19.250390625Q16.51779988079071,19.250390625,16.88389988079071,18.884290625Q17.24999988079071,18.518190625000003,17.24999988079071,18.000390625L17.24999988079071,7.150390625Z" fill-rule="evenodd" fill="#EF5350" fill-opacity="1"/></g><g><path d="M9.649999618530273,10.400390625Q9.649999618530273,10.326522125,9.664410618530273,10.254072625Q9.678821618530273,10.181623625,9.707089618530274,10.113377625Q9.735358618530274,10.045132625,9.776397618530273,9.983712625Q9.817436618530273,9.922293625,9.869669618530274,9.870060625Q9.921902618530273,9.817827625,9.983321618530274,9.776788625Q10.044741618530274,9.735749625,10.112986618530273,9.707480625Q10.181232618530274,9.679212625,10.253681618530273,9.664801624999999Q10.326131118530274,9.650390625,10.399999618530273,9.650390625Q10.473868118530273,9.650390625,10.546317618530274,9.664801624999999Q10.618766618530273,9.679212625,10.687012618530273,9.707480625Q10.755257618530273,9.735749625,10.816677618530273,9.776788625Q10.878096618530273,9.817827625,10.930329618530273,9.870060625Q10.982562618530274,9.922293625,11.023601618530273,9.983712625Q11.064640618530273,10.045132625,11.092909618530273,10.113377625Q11.121177618530274,10.181623625,11.135588618530274,10.254072625Q11.149999618530273,10.326522125,11.149999618530273,10.400390625L11.149999618530273,15.600390625Q11.149999618530273,15.674260624999999,11.135588618530274,15.746710625Q11.121177618530274,15.819160625,11.092909618530273,15.887400625Q11.064640618530273,15.955650625,11.023601618530273,16.017070625Q10.982562618530274,16.078490625,10.930329618530273,16.130720625000002Q10.878096618530273,16.182950625,10.816677618530273,16.223990625Q10.755257618530273,16.265030625,10.687012618530273,16.293300625Q10.618766618530273,16.321570625,10.546317618530274,16.335980625Q10.473868118530273,16.350390625,10.399999618530273,16.350390625Q10.326131118530274,16.350390625,10.253681618530273,16.335980625Q10.181232618530274,16.321570625,10.112986618530273,16.293300625Q10.044741618530274,16.265030625,9.983321618530274,16.223990625Q9.921902618530273,16.182950625,9.869669618530274,16.130720625000002Q9.817436618530273,16.078490625,9.776397618530273,16.017070625Q9.735358618530274,15.955650625,9.707089618530274,15.887400625Q9.678821618530273,15.819160625,9.664410618530273,15.746710625Q9.649999618530273,15.674260624999999,9.649999618530273,15.600390625L9.649999618530273,10.400390625Z" fill-rule="evenodd" fill="#EF5350" fill-opacity="1"/></g><g><path d="M12.84999942779541,10.400390625Q12.84999942779541,10.326522125,12.86441042779541,10.254072625Q12.87882142779541,10.181623625,12.90708942779541,10.113377625Q12.93535842779541,10.045132625,12.97639742779541,9.983712625Q13.01743642779541,9.922293625,13.06966942779541,9.870060625Q13.12190242779541,9.817827625,13.183321427795411,9.776788625Q13.244741427795411,9.735749625,13.31298642779541,9.707480625Q13.38123242779541,9.679212625,13.45368142779541,9.664801624999999Q13.52613092779541,9.650390625,13.59999942779541,9.650390625Q13.67386792779541,9.650390625,13.746317427795411,9.664801624999999Q13.81876642779541,9.679212625,13.88701242779541,9.707480625Q13.95525742779541,9.735749625,14.01667742779541,9.776788625Q14.07809642779541,9.817827625,14.13032942779541,9.870060625Q14.18256242779541,9.922293625,14.22360142779541,9.983712625Q14.26464042779541,10.045132625,14.29290942779541,10.113377625Q14.32117742779541,10.181623625,14.335588427795411,10.254072625Q14.34999942779541,10.326522125,14.34999942779541,10.400390625L14.34999942779541,15.600390625Q14.34999942779541,15.674260624999999,14.335588427795411,15.746710625Q14.32117742779541,15.819160625,14.29290942779541,15.887400625Q14.26464042779541,15.955650625,14.22360142779541,16.017070625Q14.18256242779541,16.078490625,14.13032942779541,16.130720625000002Q14.07809642779541,16.182950625,14.01667742779541,16.223990625Q13.95525742779541,16.265030625,13.88701242779541,16.293300625Q13.81876642779541,16.321570625,13.746317427795411,16.335980625Q13.67386792779541,16.350390625,13.59999942779541,16.350390625Q13.52613092779541,16.350390625,13.45368142779541,16.335980625Q13.38123242779541,16.321570625,13.31298642779541,16.293300625Q13.244741427795411,16.265030625,13.183321427795411,16.223990625Q13.12190242779541,16.182950625,13.06966942779541,16.130720625000002Q13.01743642779541,16.078490625,12.97639742779541,16.017070625Q12.93535842779541,15.955650625,12.90708942779541,15.887400625Q12.87882142779541,15.819160625,12.86441042779541,15.746710625Q12.84999942779541,15.674260624999999,12.84999942779541,15.600390625L12.84999942779541,10.400390625Z" fill-rule="evenodd" fill="#EF5350" fill-opacity="1"/></g><g><path d="M4,5.650390625L20,5.650390625Q20.0739,5.650390625,20.1463,5.664801625Q20.2188,5.679212625,20.287,5.707480625Q20.3553,5.735749625,20.4167,5.776788625Q20.4781,5.817827625,20.5303,5.870060625Q20.5826,5.922293625,20.6236,5.983712625Q20.6646,6.045132625,20.6929,6.113377625Q20.7212,6.181623625,20.7356,6.254072625Q20.75,6.326522125,20.75,6.400390625Q20.75,6.474259125,20.7356,6.546708625Q20.7212,6.619157625,20.6929,6.687403625Q20.6646,6.755648625,20.6236,6.817068625Q20.5826,6.878487625,20.5303,6.930720625Q20.4781,6.982953625,20.4167,7.023992625Q20.3553,7.065031625,20.287,7.093300625Q20.2188,7.121568625,20.1463,7.135979625Q20.0739,7.150390625,20,7.150390625L4,7.150390625Q3.9261315,7.150390625,3.853682,7.135979625Q3.781233,7.121568625,3.712987,7.093300625Q3.644742,7.065031625,3.583322,7.023992625Q3.521903,6.982953625,3.46967,6.930720625Q3.417437,6.878487625,3.376398,6.817068625Q3.335359,6.755648625,3.30709,6.687403625Q3.278822,6.619157625,3.264411,6.546708625Q3.25,6.474259125,3.25,6.400390625Q3.25,6.326522125,3.264411,6.254072625Q3.278822,6.181623625,3.30709,6.113377625Q3.335359,6.045132625,3.376398,5.983712625Q3.417437,5.922293625,3.46967,5.870060625Q3.521903,5.817827625,3.583322,5.776788625Q3.644742,5.735749625,3.712987,5.707480625Q3.781233,5.679212625,3.853682,5.664801625Q3.9261315,5.650390625,4,5.650390625Z" fill-rule="evenodd" fill="#EF5350" fill-opacity="1"/></g><g><path d="M8.7998046875,7.15L15.1998046875,7.15Q15.3884846875,7.15,15.5547046875,7.06071Q15.619784687500001,7.02576,15.6767846875,6.97878Q15.7337946875,6.9318,15.780534687500001,6.8746Q15.8272846875,6.817410000000001,15.8619646875,6.752190000000001Q15.8966546875,6.6869700000000005,15.9179546875,6.6162399999999995Q15.9392546875,6.54551,15.9463446875,6.47198Q15.9534346875,6.39845,15.946044687499999,6.32496Q15.9386446875,6.25146,15.9170646875,6.18081Q15.8954746875,6.11017,15.8605146875,6.0451L14.571354687500001,3.645097Q14.5232546875,3.5555339999999998,14.4530346875,3.48201Q14.3828146875,3.408486,14.2955646875,3.356309Q14.2083046875,3.304131,14.110304687500001,3.277066Q14.0123146875,3.25,13.9106446875,3.25L10.1154046875,3.25Q10.0145546875,3.25,9.9172746875,3.276642Q9.820004687499999,3.303285,9.7332306875,3.354677Q9.6464526875,3.406068,9.5763326875,3.4785589999999997Q9.5062136875,3.551049,9.4577346875,3.639487L8.1421346875,6.03949Q8.0498046875,6.20792,8.0498046875,6.4Q8.0498046875,6.47387,8.064215687499999,6.54632Q8.0786266875,6.61877,8.1068946875,6.68701Q8.1351636875,6.75526,8.1762026875,6.81668Q8.2172416875,6.8781,8.2694746875,6.93033Q8.3217076875,6.982559999999999,8.3831266875,7.0236Q8.4445466875,7.06464,8.5127916875,7.09291Q8.5810376875,7.12118,8.6534866875,7.1355900000000005Q8.7259361875,7.15,8.7998046875,7.15ZM13.9455946875,5.65L10.0662246875,5.65L10.5595746875,4.75L13.4621546875,4.75L13.9455946875,5.65Z" fill-rule="evenodd" fill="#EF5350" fill-opacity="1"/></g></g></g></svg>