<svg xmlns="http://www.w3.org/2000/svg" xmlns:xlink="http://www.w3.org/1999/xlink" fill="none" version="1.1" width="20" height="20" viewBox="0 0 20 20"><defs><clipPath id="master_svg0_sa4143_51198"><rect x="0" y="0" width="20" height="20" rx="0"/></clipPath></defs><g clip-path="url(#master_svg0_sa4143_51198)"><g><path d="M4.169890328125,7.0514496L5.169890328125,16.71812Q5.174623328125,16.76387,5.187623328125,16.80799Q5.200623328125,16.85211,5.221454328125,16.89312Q5.242285328125,16.93412,5.270248328125,16.97064Q5.298211328125,17.007199999999997,5.3323663281249996,17.038Q5.366522328125,17.0688,5.4057253281249995,17.0928Q5.444928328125,17.1169,5.487861328125,17.1334Q5.530794328125,17.149900000000002,5.576018328125,17.1583Q5.621241328125,17.1667,5.667236328125,17.1667L14.333906328125,17.1667Q14.379896328125,17.1667,14.425116328125,17.1583Q14.470346328125,17.149900000000002,14.513276328125,17.1334Q14.556206328125,17.1169,14.595416328125,17.0928Q14.634616328125,17.0688,14.668736328125,17.038Q14.702936328125,17.007199999999997,14.730936328125,16.97064Q14.758836328125,16.93412,14.779636328125,16.89312Q14.800536328125,16.85211,14.813536328125,16.80799Q14.826536328125,16.76387,14.831236328125,16.71812L15.831236328125,7.0514496Q15.833936328125,7.0257932,15.833936328125,7Q15.833936328125,6.9507543,15.824336328125,6.9024549Q15.814636328125,6.854155,15.795836328125,6.808658Q15.777036328125,6.763161,15.749636328125,6.722215Q15.722236328125,6.681269,15.687436328125,6.646447Q15.652636328125,6.611625,15.611736328125,6.584265Q15.570736328125,6.556906,15.525236328125,6.53806Q15.479736328125,6.519215,15.431436328125,6.509607Q15.383136328125,6.5,15.333936328125,6.5L4.667236328125,6.5Q4.641443128125,6.5,4.615786728125,6.502654Q4.566802328125,6.507722,4.519748328125,6.522248Q4.472693328125,6.536774,4.429377328125,6.560201Q4.386060328125,6.583628,4.348147328125,6.615056Q4.310233328125,6.646483,4.279179328125,6.684704Q4.248125328125,6.722924,4.225124328125,6.766468Q4.202123328125,6.810012,4.188059328125,6.857207Q4.173996328125,6.904402,4.169409328125,6.9534336Q4.164823328125,7.00246528,4.169890328125,7.0514496ZM6.118176328125,16.16667L5.221628328125,7.5L14.779536328125,7.5L13.882956328125,16.16667L6.118176328125,16.16667Z" fill-rule="evenodd" fill="#ED7088" fill-opacity="1"/></g><g><path d="M8.167236328125,10.333984375Q8.167236328125,10.284738675,8.176843328125,10.236439275Q8.186451328124999,10.188139375,8.205296328125,10.142642375Q8.224142328125,10.097145375,8.251501328125,10.056199375Q8.278861328125,10.015253375,8.313683328125,9.980431375Q8.348505328125,9.945609375,8.389451328125,9.918249375Q8.430397328125,9.890890375,8.475894328125,9.872044375Q8.521391328125,9.853199374999999,8.569691228125,9.843591375Q8.617990628125,9.833984375,8.667236328125,9.833984375Q8.716482028125,9.833984375,8.764781428125,9.843591375Q8.813081328125,9.853199374999999,8.858578328125,9.872044375Q8.904075328125,9.890890375,8.945021328125,9.918249375Q8.985967328125,9.945609375,9.020789328125,9.980431375Q9.055611328125,10.015253375,9.082971328125,10.056199375Q9.110330328125,10.097145375,9.129176328125,10.142642375Q9.148021328125001,10.188139375,9.157629328125,10.236439275Q9.167236328125,10.284738675,9.167236328125,10.333984375L9.167236328125,13.667384375000001Q9.167236328125,13.716634375,9.157629328125,13.764924375Q9.148021328125001,13.813224375,9.129176328125,13.858724375Q9.110330328125,13.904224375,9.082971328125,13.945164375000001Q9.055611328125,13.986114375,9.020789328125,14.020934375Q8.985967328125,14.055754375,8.945021328125,14.083114375000001Q8.904075328125,14.110474374999999,8.858578328125,14.129324375Q8.813081328125,14.148164375,8.764781428125,14.157774374999999Q8.716482028125,14.167384375000001,8.667236328125,14.167384375000001Q8.617990628125,14.167384375000001,8.569691228125,14.157774374999999Q8.521391328125,14.148164375,8.475894328125,14.129324375Q8.430397328125,14.110474374999999,8.389451328125,14.083114375000001Q8.348505328125,14.055754375,8.313683328125,14.020934375Q8.278861328125,13.986114375,8.251501328125,13.945164375000001Q8.224142328125,13.904224375,8.205296328125,13.858724375Q8.186451328124999,13.813224375,8.176843328125,13.764924375Q8.167236328125,13.716634375,8.167236328125,13.667384375000001L8.167236328125,10.333984375Z" fill-rule="evenodd" fill="#ED7088" fill-opacity="1"/></g><g><path d="M10.83447265625,10.33203125Q10.83447265625,10.28278555,10.84407965625,10.23448615Q10.853687656249999,10.18618625,10.87253265625,10.14068925Q10.89137865625,10.09519225,10.91873765625,10.05424625Q10.94609765625,10.01330025,10.98091965625,9.97847825Q11.01574165625,9.94365625,11.05668765625,9.91629625Q11.09763365625,9.88893725,11.14313065625,9.87009125Q11.18862765625,9.851246249999999,11.23692755625,9.84163825Q11.28522695625,9.83203125,11.33447265625,9.83203125Q11.38371835625,9.83203125,11.43201775625,9.84163825Q11.48031765625,9.851246249999999,11.52581465625,9.87009125Q11.57131165625,9.88893725,11.61225765625,9.91629625Q11.65320365625,9.94365625,11.68802565625,9.97847825Q11.72284765625,10.01330025,11.75020765625,10.05424625Q11.77756665625,10.09519225,11.79641265625,10.14068925Q11.815257656250001,10.18618625,11.82486565625,10.23448615Q11.83447265625,10.28278555,11.83447265625,10.33203125L11.83447265625,13.66460125Q11.83447265625,13.71384125,11.82486565625,13.762141249999999Q11.815257656250001,13.81044125,11.79641265625,13.85594125Q11.77756665625,13.90143125,11.75020765625,13.94238125Q11.72284765625,13.983331249999999,11.68802565625,14.018151249999999Q11.65320365625,14.05297125,11.61225765625,14.08033125Q11.57131165625,14.10769125,11.52581465625,14.126541249999999Q11.48031765625,14.14538125,11.43201775625,14.15499125Q11.38371835625,14.16460125,11.33447265625,14.16460125Q11.28522695625,14.16460125,11.23692755625,14.15499125Q11.18862765625,14.14538125,11.14313065625,14.126541249999999Q11.09763365625,14.10769125,11.05668765625,14.08033125Q11.01574165625,14.05297125,10.98091965625,14.018151249999999Q10.94609765625,13.983331249999999,10.91873765625,13.94238125Q10.89137865625,13.90143125,10.87253265625,13.85594125Q10.853687656249999,13.81044125,10.84407965625,13.762141249999999Q10.83447265625,13.71384125,10.83447265625,13.66460125L10.83447265625,10.33203125Z" fill-rule="evenodd" fill="#ED7088" fill-opacity="1"/></g><g><path d="M11.307680000000001,3.718857L13.578800000000001,7.26942Q13.61271,7.32244,13.65871,7.3654Q13.704699999999999,7.40836,13.75991,7.43858Q13.81511,7.46881,13.87609,7.4844Q13.937059999999999,7.5,14,7.5Q14.04924,7.5,14.09754,7.49039Q14.14584,7.48078,14.19134,7.46194Q14.23684,7.44309,14.27778,7.41573Q14.31873,7.38837,14.35355,7.35355Q14.38837,7.31873,14.41573,7.27778Q14.44309,7.23684,14.46194,7.19134Q14.48078,7.14584,14.49039,7.09755Q14.5,7.04925,14.5,7Q14.5,6.85377,14.4212,6.73058L11.8626,2.730578Q11.83607,2.689093,11.80195,2.653582Q11.76783,2.618071,11.72744,2.589899Q11.68704,2.561727,11.64193,2.541976Q11.596820000000001,2.522225,11.54872,2.511654Q11.500630000000001,2.501084,11.45139,2.5000999999999998Q11.402149999999999,2.499116,11.353670000000001,2.507756Q11.30519,2.516396,11.25933,2.534329Q11.213460000000001,2.552262,11.17198,2.578797Q11.15832,2.587534,11.14526,2.597137L5.703856,6.5971Q5.607731,6.6677599999999995,5.553865,6.77421Q5.5,6.880660000000001,5.5,6.999969999999999Q5.5,7.04921,5.509607,7.09751Q5.519215,7.14581,5.53806,7.19131Q5.556906,7.2368,5.584265,7.27775Q5.611625,7.3187,5.646447,7.35352Q5.681269,7.38834,5.722215,7.4157Q5.763161,7.44306,5.808658,7.46191Q5.854155,7.48075,5.9024549,7.49036Q5.9507543,7.49997,6,7.49997Q6.164003,7.49997,6.296144,7.40283L6.296255,7.40275L11.307680000000001,3.718857Z" fill-rule="evenodd" fill="#ED7088" fill-opacity="1"/></g></g></svg>