<svg xmlns="http://www.w3.org/2000/svg" xmlns:xlink="http://www.w3.org/1999/xlink" fill="none" version="1.1" width="20" height="20" viewBox="0 0 20 20"><defs><clipPath id="master_svg0_3258_23468"><rect x="0" y="0" width="20" height="20" rx="0"/></clipPath></defs><g clip-path="url(#master_svg0_3258_23468)"><g><path d="M2.587965375,6.3271744L3.837965375,18.4105Q3.845065375,18.479100000000003,3.8645653749999997,18.545299999999997Q3.884065375,18.6115,3.915311375,18.673000000000002Q3.946558375,18.7345,3.988502375,18.7893Q4.030446375,18.844099999999997,4.081680375,18.8903Q4.132914375,18.936500000000002,4.191717375,18.9726Q4.250521375,19.008699999999997,4.314921375,19.0334Q4.3793243749999995,19.0582,4.447154375,19.070700000000002Q4.514994375,19.0833,4.583984375,19.0833L15.417284375,19.0833Q15.486284375,19.0833,15.554184375,19.070700000000002Q15.621984375,19.0582,15.686384375,19.0334Q15.750784375,19.008699999999997,15.809584375,18.9726Q15.868384375,18.936500000000002,15.919584375,18.8903Q15.970884375,18.844099999999997,16.012784375000003,18.7893Q16.054784375,18.7345,16.085984375000002,18.673000000000002Q16.117284375,18.6115,16.136784374999998,18.545299999999997Q16.156284375,18.479100000000003,16.163384375,18.4105L17.413384375,6.3271744Q17.417284375,6.2886899,17.417284375,6.25Q17.417284375,6.1761315,17.402884375,6.103682Q17.388484375,6.031233,17.360184375,5.962987Q17.331984374999998,5.894742,17.290884374999997,5.833322Q17.249884375,5.771903,17.197684375,5.71967Q17.145384375,5.667437,17.083984375,5.626398Q17.022584375,5.585359,16.954284375,5.55709Q16.886084375,5.528822,16.813584374999998,5.514411Q16.741184375,5.5,16.667284375,5.5L3.333984375,5.5Q3.295294475,5.5,3.256809975,5.503981Q3.183333375,5.511582,3.112751375,5.533372Q3.042170375,5.555161,2.977195375,5.590302Q2.912221375,5.625443,2.855350375,5.672584Q2.798480375,5.719725,2.751899375,5.777056Q2.705318375,5.834386,2.6708163750000002,5.899702Q2.636315375,5.965019,2.615219375,6.035811Q2.594123375,6.106603,2.587244375,6.1801505Q2.5803643750000003,6.25369793,2.587965375,6.3271744ZM5.260404375,17.5833L4.165573375,7L15.835684375,7L14.740884375,17.5833L5.260404375,17.5833Z" fill-rule="evenodd" fill="#2D2E33" fill-opacity="1"/></g><g><path d="M7.583984375,10.41796875Q7.583984375,10.34410025,7.598395375,10.27165075Q7.612806375,10.19920175,7.641074375,10.13095575Q7.669343375,10.06271075,7.710382375,10.00129075Q7.751421375,9.93987175,7.803654375,9.88763875Q7.855887375,9.83540575,7.917306375,9.79436675Q7.978726375,9.75332775,8.046971375,9.72505875Q8.115217375,9.69679075,8.187666375,9.682379749999999Q8.260115875,9.66796875,8.333984375,9.66796875Q8.407852875,9.66796875,8.480302375,9.682379749999999Q8.552751375,9.69679075,8.620997375,9.72505875Q8.689242375,9.75332775,8.750662375,9.79436675Q8.812081375,9.83540575,8.864314375,9.88763875Q8.916547375,9.93987175,8.957586375,10.00129075Q8.998625375,10.06271075,9.026894375,10.13095575Q9.055162375,10.19920175,9.069573375000001,10.27165075Q9.083984375,10.34410025,9.083984375,10.41796875L9.083984375,14.58471875Q9.083984375,14.65858875,9.069573375000001,14.73103875Q9.055162375,14.80348875,9.026894375,14.871728749999999Q8.998625375,14.93997875,8.957586375,15.00139875Q8.916547375,15.06281875,8.864314375,15.11504875Q8.812081375,15.167278750000001,8.750662375,15.20831875Q8.689242375,15.249358749999999,8.620997375,15.27762875Q8.552751375,15.30589875,8.480302375,15.320308749999999Q8.407852875,15.33471875,8.333984375,15.33471875Q8.260115875,15.33471875,8.187666375,15.320308749999999Q8.115217375,15.30589875,8.046971375,15.27762875Q7.978726375,15.249358749999999,7.917306375,15.20831875Q7.855887375,15.167278750000001,7.803654375,15.11504875Q7.751421375,15.06281875,7.710382375,15.00139875Q7.669343375,14.93997875,7.641074375,14.871728749999999Q7.612806375,14.80348875,7.598395375,14.73103875Q7.583984375,14.65858875,7.583984375,14.58471875L7.583984375,10.41796875Z" fill-rule="evenodd" fill="#2D2E33" fill-opacity="1"/></g><g><path d="M10.91796875,10.416015625Q10.91796875,10.342147125,10.932379749999999,10.269697625Q10.94679075,10.197248625,10.97505875,10.129002625Q11.00332775,10.060757625,11.04436675,9.999337625Q11.08540575,9.937918625,11.13763875,9.885685625Q11.18987175,9.833452625,11.25129075,9.792413625Q11.31271075,9.751374625,11.38095575,9.723105625Q11.44920175,9.694837625,11.52165075,9.680426624999999Q11.59410025,9.666015625,11.66796875,9.666015625Q11.74183725,9.666015625,11.81428675,9.680426624999999Q11.88673575,9.694837625,11.95498175,9.723105625Q12.02322675,9.751374625,12.08464675,9.792413625Q12.14606575,9.833452625,12.19829875,9.885685625Q12.25053175,9.937918625,12.29157075,9.999337625Q12.33260975,10.060757625,12.36087875,10.129002625Q12.38914675,10.197248625,12.403557750000001,10.269697625Q12.41796875,10.342147125,12.41796875,10.416015625L12.41796875,14.581725625Q12.41796875,14.655595625,12.403557750000001,14.728045625Q12.38914675,14.800485625,12.36087875,14.868735625Q12.33260975,14.936985625,12.29157075,14.998395625Q12.25053175,15.059815624999999,12.19829875,15.112055625Q12.14606575,15.164285625,12.08464675,15.205325625Q12.02322675,15.246365625,11.95498175,15.274635625Q11.88673575,15.302905625000001,11.81428675,15.317315624999999Q11.74183725,15.331725625,11.66796875,15.331725625Q11.59410025,15.331725625,11.52165075,15.317315624999999Q11.44920175,15.302905625000001,11.38095575,15.274635625Q11.31271075,15.246365625,11.25129075,15.205325625Q11.18987175,15.164285625,11.13763875,15.112055625Q11.08540575,15.059815624999999,11.04436675,14.998395625Q11.00332775,14.936985625,10.97505875,14.868735625Q10.94679075,14.800485625,10.932379749999999,14.728045625Q10.91796875,14.655595625,10.91796875,14.581725625L10.91796875,10.416015625Z" fill-rule="evenodd" fill="#2D2E33" fill-opacity="1"/></g><g><path d="M14.36779,6.65349L14.3682,6.65413Q14.41907,6.73366,14.48806,6.7981Q14.55705,6.86254,14.63986,6.90788Q14.72267,6.95321,14.81413,6.9766Q14.90559,7,15,7Q15.0739,7,15.1463,6.98559Q15.2188,6.97118,15.287,6.94291Q15.3553,6.91464,15.4167,6.8736Q15.4781,6.83256,15.5303,6.78033Q15.5826,6.7281,15.6236,6.66668Q15.6646,6.60526,15.6929,6.53701Q15.7212,6.46877,15.7356,6.39632Q15.75,6.32387,15.75,6.25Q15.75,6.03065,15.6318,5.84587L15.6314,5.84523L12.43355,0.8458669999999999Q12.35317,0.720193,12.2308,0.634849Q12.10844,0.549504,11.96274,0.517482Q11.817029999999999,0.485459,11.67016,0.511634Q11.52329,0.537809,11.39762,0.618196Q11.377130000000001,0.631301,11.35753,0.645705L4.555784,5.64566Q4.484688,5.69793,4.427663,5.76526Q4.370638,5.8326,4.330798,5.91133Q4.290958,5.99006,4.270479,6.07589Q4.25,6.16172,4.25,6.24996Q4.25,6.32383,4.264411,6.39628Q4.278822,6.46872,4.30709,6.53697Q4.335359,6.60522,4.376398,6.66664Q4.417437,6.72805,4.46967,6.78029Q4.521903,6.83252,4.583322,6.87356Q4.644742,6.9146,4.712987,6.94287Q4.781233,6.97114,4.853682,6.98555Q4.9261315,6.99996,5,6.99996Q5.119861,6.99996,5.233751,6.9626Q5.347641,6.92525,5.444216,6.85425L11.60117,2.32829L14.36779,6.65349Z" fill-rule="evenodd" fill="#2D2E33" fill-opacity="1"/></g></g></svg>