<svg xmlns="http://www.w3.org/2000/svg" xmlns:xlink="http://www.w3.org/1999/xlink" fill="none" version="1.1" width="20" height="20" viewBox="0 0 20 20"><defs><clipPath id="master_svg0_sa200_4407"><rect x="0" y="0" width="20" height="20" rx="0"/></clipPath></defs><g><g clip-path="url(#master_svg0_sa200_4407)"><g><path d="M9.7643321875,9.9641L7.7374921875,9.28849Q7.6793521875,9.26911,7.6188421875,9.25942Q7.5583221875,9.24974,7.4970321875,9.25001Q7.4357521875,9.25028,7.3753221875,9.26049Q7.3148921875,9.27071,7.2569221875,9.2906Q7.1989521875,9.31048,7.1449821875,9.33952Q7.0910121875,9.36856,7.0424721875,9.40597Q6.9939321875,9.44339,6.9521021875,9.48818Q6.9102821875,9.53298,6.8762821875,9.58397L4.761992187500001,12.75542L2.0346881875,11.22132Q1.9703061874999999,11.1851,1.9000961875,11.16214Q1.8298861875,11.13919,1.7565457875,11.13037Q1.6832057875,11.12154,1.6095541875,11.1272Q1.5359021875,11.13286,1.4647701875,11.15278Q1.3936371875,11.17269,1.3277571875,11.206109999999999Q1.2618761875,11.239519999999999,1.2037801875,11.28514Q1.1456841875000001,11.33076,1.0976051875000001,11.38684Q1.0495251875,11.44292,1.0133101875000001,11.5073Q0.9169921875,11.67854,0.9169921875,11.875L0.9169921875,17.5Q0.9169921875,17.573900000000002,0.9314031875,17.6463Q0.9458141875,17.7188,0.9740821875,17.787Q1.0023511875,17.8553,1.0433901875,17.9167Q1.0844291875,17.978099999999998,1.1366621875,18.0303Q1.1888951875,18.0826,1.2503141875,18.1236Q1.3117341875,18.1646,1.3799791875,18.1929Q1.4482251875,18.2212,1.5206741875,18.235599999999998Q1.5931236874999999,18.25,1.6669921875,18.25L18.3336921875,18.25Q18.4074921875,18.25,18.4799921875,18.235599999999998Q18.5523921875,18.2212,18.6206921875,18.1929Q18.6888921875,18.1646,18.7502921875,18.1236Q18.8117921875,18.0826,18.8639921875,18.0303Q18.9161921875,17.978099999999998,18.9572921875,17.9167Q18.9982921875,17.8553,19.0265921875,17.787Q19.0547921875,17.7188,19.0692921875,17.6463Q19.0836921875,17.573900000000002,19.0836921875,17.5L19.0836921875,6.25Q19.0836921875,6.1761315,19.0692921875,6.103682Q19.0547921875,6.031233,19.0265921875,5.962987Q18.9982921875,5.894742,18.9572921875,5.833322Q18.9161921875,5.771903,18.8639921875,5.71967Q18.8117921875,5.667437,18.7502921875,5.626398Q18.6888921875,5.585359,18.6206921875,5.55709Q18.5523921875,5.528822,18.4799921875,5.514411Q18.4074921875,5.5,18.3336921875,5.5Q18.1714921875,5.5,18.0237921875,5.567025Q17.8759921875,5.634051,17.7691921875,5.756121L15.3346921875,8.53846L13.3970921875,6.923834Q13.3412921875,6.877274,13.2774921875,6.8423169999999995Q13.2136921875,6.80736,13.1443921875,6.785308Q13.0750921875,6.763256,13.0028921875,6.75493Q12.9305921875,6.746605,12.8580921875,6.752316Q12.7855921875,6.758028,12.7154921875,6.777564Q12.6454921875,6.7971,12.5804921875,6.829731Q12.5154921875,6.862363,12.4579921875,6.9068760000000005Q12.4004921875,6.951388,12.3525921875,7.0061219999999995L9.7643321875,9.9641ZM7.8066021875,10.89266L9.7631521875,11.54485Q9.8683021875,11.579889999999999,9.9790821875,11.58303Q10.0898721875,11.58617,10.1968321875,11.55713Q10.3037921875,11.528089999999999,10.3977821875,11.46936Q10.4917721875,11.41062,10.5647521875,11.327210000000001L12.9992921875,8.54487L14.9368921875,10.1595Q14.9926921875,10.20606,15.0564921875,10.241019999999999Q15.1202921875,10.275970000000001,15.1895921875,10.298020000000001Q15.2588921875,10.32008,15.3310921875,10.3284Q15.4033921875,10.33673,15.4758921875,10.331019999999999Q15.5483921875,10.3253,15.6184921875,10.305769999999999Q15.6884921875,10.28623,15.7534921875,10.253599999999999Q15.8184921875,10.22097,15.8759921875,10.17646Q15.9334921875,10.13195,15.9813921875,10.077210000000001L17.5836921875,8.24609L17.5836921875,16.75L2.4169921875,16.75L2.4169921875,13.15739L4.6326321875000005,14.40368Q4.6938921874999995,14.43814,4.760492187500001,14.46062Q4.8270921875,14.4831,4.8967121875,14.49281Q4.9663321875,14.50252,5.0365421875,14.49913Q5.1067521875,14.49573,5.1751021875,14.47935Q5.2434621875000005,14.46297,5.3075821874999995,14.43417Q5.3717021875,14.40538,5.429362187500001,14.36517Q5.4870121874999995,14.32496,5.5361921875,14.27473Q5.5853721875,14.22451,5.6243621875,14.16603L7.8066021875,10.89266Z" fill-rule="evenodd" fill="#2D2E33" fill-opacity="1"/></g><g><path d="M17.5836921875,4.31066L17.5836921875,6.45833Q17.5836921875,6.5322,17.5980921875,6.60465Q17.6124921875,6.6771,17.6407921875,6.74535Q17.6689921875,6.81359,17.7100921875,6.87501Q17.7510921875,6.93643,17.8032921875,6.98866Q17.8555921875,7.0409,17.9169921875,7.08193Q17.9783921875,7.12297,18.0466921875,7.15124Q18.1148921875,7.17951,18.1872921875,7.19392Q18.2597921875,7.20833,18.3336921875,7.20833Q18.4074921875,7.20833,18.4799921875,7.19392Q18.5523921875,7.17951,18.6206921875,7.15124Q18.6888921875,7.12297,18.7502921875,7.08193Q18.8117921875,7.0409,18.8639921875,6.98866Q18.9161921875,6.93643,18.9572921875,6.87501Q18.9982921875,6.81359,19.0265921875,6.74535Q19.0547921875,6.6771,19.0692921875,6.60465Q19.0836921875,6.5322,19.0836921875,6.45833L19.0836921875,2.5Q19.0836921875,2.4261315,19.0692921875,2.353682Q19.0547921875,2.281233,19.0265921875,2.212987Q18.9982921875,2.144742,18.9572921875,2.083322Q18.9161921875,2.021903,18.8639921875,1.96967Q18.8117921875,1.917437,18.7502921875,1.876398Q18.6888921875,1.835359,18.6206921875,1.80709Q18.5523921875,1.778822,18.4799921875,1.764411Q18.4074921875,1.75,18.3336921875,1.75Q18.1844921875,1.75,18.0466921875,1.80709Q17.9087921875,1.8641809999999999,17.8032921875,1.96967L15.1582921875,4.61473L13.3918921875,3.1695320000000002Q13.3373921875,3.124886,13.2753921875,3.0911910000000002Q13.2134921875,3.057497,13.1463921875,3.0359350000000003Q13.0791921875,3.014372,13.0092921875,3.0056979999999998Q12.9392921875,2.997024,12.8688921875,3.001541Q12.7985921875,3.006058,12.7302921875,3.023609Q12.6619921875,3.04116,12.5981921875,3.07113Q12.5343921875,3.101099,12.4772921875,3.142437Q12.4200921875,3.183774,12.3716921875,3.235032L9.2125221875,6.58007L7.2107321875,5.57918Q7.1505321875,5.54908,7.0859221875,5.53017Q7.0213221875,5.51127,6.9543821875,5.50418Q6.8874521875,5.49708,6.8203121875,5.50202Q6.7531821875,5.506959999999999,6.6880021875,5.52377Q6.6228221875,5.54058,6.5616821875,5.56873Q6.5005421875,5.5968800000000005,6.4453821875,5.63547Q6.3902321875,5.674049999999999,6.3428321875,5.72184Q6.2954321875,5.76964,6.2572921875,5.8251L4.4382921875,8.47092L2.1550861875,6.51389Q2.0418161875,6.4168,1.9000151875,6.37045Q1.7582146875,6.3241,1.6094697875,6.33554Q1.4607251875,6.34698,1.3276811875,6.41448Q1.1946371875,6.4819700000000005,1.0975501875,6.59524Q1.0101641875,6.69719,0.9635781875,6.82312Q0.9169921875,6.94906,0.9169921875,7.08333L0.9169921875,11.875Q0.9169921875,11.94887,0.9314031875,12.02132Q0.9458141875,12.09377,0.9740821875,12.16201Q1.0023511875,12.23026,1.0433901875,12.29168Q1.0844291875,12.3531,1.1366621875,12.40533Q1.1888951875,12.45756,1.2503141875,12.4986Q1.3117341875,12.5396,1.3799791875,12.5679Q1.4482251875,12.5962,1.5206741875,12.6106Q1.5931236874999999,12.625,1.6669921875,12.625Q1.7408606875000001,12.625,1.8133101875,12.6106Q1.8857591875,12.5962,1.9540051875,12.5679Q2.0222501875,12.5396,2.0836701875,12.4986Q2.1450891875,12.45756,2.1973221875,12.40533Q2.2495551875,12.3531,2.2905941875,12.29168Q2.3316331875,12.23026,2.3599021875,12.16201Q2.3881701875,12.09377,2.4025811875,12.02132Q2.4169921875,11.94887,2.4169921875,11.875L2.4169921875,8.714L4.095562187500001,10.15278Q4.125872187500001,10.17875,4.1587621875,10.201360000000001Q4.2196321875,10.243210000000001,4.2875021874999995,10.27238Q4.3553621875,10.301549999999999,4.427612187499999,10.31692Q4.499872187499999,10.33229,4.5737321875,10.333269999999999Q4.6475921875,10.334240000000001,4.7202221875,10.320789999999999Q4.7928621875,10.30734,4.8614721875,10.27998Q4.9300821875,10.25262,4.9920421875,10.212399999999999Q5.0540021875,10.172170000000001,5.1069221875,10.12064Q5.1598421875,10.069099999999999,5.2016921875,10.008230000000001L7.1236321875,7.21268L9.0399121875,8.170819999999999Q9.0935921875,8.197659999999999,9.1508621875,8.215620000000001Q9.208122187499999,8.23358,9.2675121875,8.24221Q9.3269121875,8.25084,9.3869121875,8.24991Q9.4469221875,8.24898,9.506022187500001,8.238520000000001Q9.5651221875,8.228069999999999,9.6218021875,8.20834Q9.6784821875,8.18862,9.7313121875,8.160129999999999Q9.7841321875,8.13165,9.8317521875,8.09512Q9.8793821875,8.0586,9.9205821875,8.01497L12.9826921875,4.7727699999999995L14.7336921875,6.20547Q14.7872921875,6.24926,14.8478921875,6.2825299999999995Q14.9084921875,6.31579,14.9741921875,6.33741Q15.0398921875,6.359030000000001,15.1083921875,6.36827Q15.1769921875,6.37751,15.2459921875,6.37407Q15.3150921875,6.370620000000001,15.3823921875,6.35461Q15.4495921875,6.33859,15.5128921875,6.31054Q15.5760921875,6.282500000000001,15.6330921875,6.24336Q15.6900921875,6.20423,15.7389921875,6.15533L17.5836921875,4.31066Z" fill-rule="evenodd" fill="#2D2E33" fill-opacity="1"/></g></g></g></svg>