<svg xmlns="http://www.w3.org/2000/svg" xmlns:xlink="http://www.w3.org/1999/xlink" fill="none" version="1.1" width="20" height="20" viewBox="0 0 20 20"><defs><clipPath id="master_svg0_sa200_4874"><rect x="0" y="0" width="20" height="20" rx="0"/></clipPath></defs><g clip-path="url(#master_svg0_sa200_4874)"><g><path d="M7.812627727775574,3.228971123681128L7.945967727775574,3.570139953781128Q8.122287727775575,4.015530953781128,8.232187727775575,4.524098953781128L8.261467727775575,4.659598953781128L8.398857727775574,4.641068953781128Q9.259757727775574,4.524908953781128,9.998907727775574,4.524908953781128Q10.803617727775574,4.531018953781128,11.600797727775573,4.641008953781128L11.738697727775573,4.6600289537811275L11.767997727775574,4.5239289537811285Q11.877197727775574,4.015461953781128,12.053397727775574,3.570307953781128L12.187297727775574,3.228951871381128L12.561897727775573,3.274025653781128Q14.708997727775573,3.508644953781128,16.272997727775575,4.764978953781128L16.314097727775575,4.798038953781128L16.325497727775574,4.798038953781128Q16.633297727775574,5.098108953781128,16.993097727775574,5.965748953781128Q17.017497727775574,6.024588953781128,17.029297727775575,6.052808953781128Q17.462797727775573,7.115798953781129,17.765497727775575,8.223648953781128Q18.600097727775573,11.241428953781128,18.600097727775573,13.749938953781127L18.600097727775573,13.870738953781128L18.539597727775575,13.991638953781129Q17.855597727775574,15.188638953781128,16.049397727775574,16.03603895378113Q14.645797727775573,16.694938953781126,13.761597727775573,16.725138953781126L13.481797727775573,16.739738953781128L13.333797727775574,16.488638953781127L12.595197727775574,15.180238953781128L12.486397727775573,15.204838953781127Q11.290657727775574,15.474938953781129,10.000047727775573,15.474938953781129Q8.709437727775573,15.474938953781129,7.513717727775574,15.204838953781127L7.404897727775574,15.180238953781128L6.667597727775574,16.48643895378113L6.518747727775573,16.739738953781128L6.235777727775574,16.72503895378113Q5.354297727775574,16.694938953781126,3.9506377277755735,16.03603895378113Q2.144532727775574,15.188638953781128,1.4604968277755737,13.991638953781129L1.4000489413755737,13.870738953781128L1.4000490307755737,13.749938953781127Q1.4000504314755737,11.241378953781128,2.2347447277755736,8.223198953781129Q2.537317727775574,7.115808953781128,2.970407727775574,6.053798953781127Q2.9832577277755736,6.022928953781128,3.008177727775574,5.962898953781128Q3.3661277277755737,5.100608953781128,3.6734577277755736,4.798658953781128L3.6853177277755735,4.798658953781128L3.7264677277755736,4.765618953781128Q5.291717727775573,3.508644953781128,7.4398477277755735,3.273838353781128L7.812627727775574,3.228971123681128ZM7.021197727775574,4.345338953781128Q5.366117727775574,4.677058953781128,4.340757727775573,5.487878953781128L4.155717727775574,5.634208953781128L4.224047727775574,5.668368953781128Q4.001287727775574,6.054538953781128,3.8453677277755736,6.428058953781128Q3.439577727775574,7.431558953781128,3.156757727775574,8.475448953781129Q2.4078977277755738,11.175548953781128,2.370068727775574,13.532538953781128L2.3693307277755737,13.578438953781127L2.3944827277755736,13.616938953781128Q2.998607727775574,14.541438953781128,4.349617727775573,15.174238953781128Q5.097077727775574,15.528038953781127,5.910897727775573,15.675038953781128L6.013477727775574,15.693538953781127L6.471017727775574,14.921238953781128L6.301727727775574,14.859138953781128Q6.040827727775573,14.763338953781128,5.782877727775574,14.647538953781128Q4.944787727775574,14.279438953781128,4.452377727775573,13.889238953781128L5.074617727775573,13.178328953781127Q5.449307727775574,13.472338953781128,6.170197727775574,13.789638953781129Q7.839087727775574,14.524938953781128,10.000047727775573,14.524938953781128Q12.162297727775574,14.524938953781128,13.829897727775574,13.789738953781129Q14.550797727775574,13.472338953781128,14.925497727775573,13.178328953781127L15.547697727775574,13.889238953781128Q15.055197727775573,14.279538953781127,14.216097727775574,14.648038953781128Q13.970497727775573,14.758338953781127,13.697997727775574,14.859238953781128L13.529297727775575,14.921738953781128L13.986597727775573,15.692838953781129L14.089097727775574,15.674438953781127Q14.902497727775573,15.528038953781127,15.649297727775574,15.175138953781127Q16.999897727775576,14.541938953781129,17.606097727775573,13.617138953781128L17.631397727775575,13.578538953781129L17.630697727775573,13.532438953781128Q17.591897727775574,11.17635895378113,16.843997727775573,8.475558953781128Q16.523397727775574,7.316288953781128,16.15409772777557,6.4264989537811275Q15.998697727775573,6.054388953781128,15.775997727775573,5.668368953781128L15.844397727775574,5.634198953781128L15.659297727775574,5.487878953781128Q14.635897727775573,4.6786089537811275,12.979097727775574,4.344748953781128L12.845597727775573,4.317858953781128L12.805897727775573,4.448038953781128Q12.783897727775575,4.520208953781128,12.740697727775574,4.644818953781128Q12.733197727775574,4.666398953781128,12.729497727775573,4.677228953781128L12.675997727775574,4.832238953781128L12.835197727775574,4.871748953781128Q14.149497727775573,5.198048953781128,15.123697727775573,5.7717689537811285L14.619497727775574,6.573108953781128Q13.575297727775574,5.964528953781128,12.022597727775574,5.676338953781128Q10.937327727775573,5.474908953781128,10.000047727775573,5.474908953781128Q9.062437727775574,5.474908953781128,7.977287727775574,5.676338953781128Q6.424827727775574,5.964498953781128,5.380607727775574,6.573108953781128L4.876447727775574,5.7717689537811285Q5.851597727775574,5.197408953781128,7.1648377277755735,4.872398953781127L7.323697727775574,4.833078953781127L7.270727727775574,4.678238953781128Q7.265937727775574,4.664238953781128,7.256087727775574,4.635678953781127Q7.214947727775574,4.516378953781128,7.194057727775574,4.448368953781128L7.154227727775574,4.318678953781128L7.021197727775574,4.345338953781128ZM7.8125477277755735,8.899908953781129Q8.441937727775574,8.899908953781129,8.864297727775574,9.464738953781128Q9.225047727775575,9.947178953781128,9.225047727775575,10.624908953781128Q9.225047727775575,11.302638953781129,8.864297727775574,11.785088953781129Q8.441937727775574,12.349908953781128,7.8125477277755735,12.349908953781128Q7.183157727775574,12.349918953781128,6.760797727775573,11.785088953781129Q6.400047727775574,11.302638953781129,6.400047727775574,10.624908953781128Q6.400047727775574,9.947188953781128,6.760797727775573,9.464738953781128Q7.183157727775574,8.899908953781129,7.8125477277755735,8.899908953781129ZM12.187597727775573,8.899908953781129Q12.816897727775574,8.899908953781129,13.239297727775574,9.464738953781128Q13.600097727775573,9.947178953781128,13.600097727775573,10.624908953781128Q13.599997727775573,11.302638953781129,13.239297727775574,11.785088953781129Q12.816897727775574,12.349908953781128,12.187597727775573,12.349908953781128Q11.558197727775573,12.349908953781128,11.135797727775573,11.785088953781129Q10.775047727775574,11.302648953781128,10.775047727775574,10.624908953781128Q10.775047727775574,9.947178953781128,11.135797727775573,9.464738953781128Q11.558197727775573,8.899918953781128,12.187597727775573,8.899908953781129ZM7.8125477277755735,9.849908953781128Q7.668687727775573,9.849908953781128,7.536217727775574,10.026898953781128Q7.350047727775574,10.277108953781127,7.350057727775574,10.623498953781127Q7.3469877277755735,10.949838953781128,7.533067727775574,11.217938953781129L7.534477727775574,11.219968953781127L7.535957727775574,11.221948953781128Q7.668367727775574,11.399908953781129,7.8125477277755735,11.399908953781129Q7.956407727775574,11.399908953781129,8.089137727775574,11.222578953781127Q8.275047727775574,10.97271895378113,8.275047727775574,10.624908953781128Q8.275047727775574,10.276238953781128,8.089137727775574,10.027868953781127Q7.956727727775574,9.849908953781128,7.8125477277755735,9.849908953781128ZM12.187597727775573,9.849908953781128Q12.043697727775573,9.849908953781128,11.911197727775575,10.026898953781128Q11.725097727775573,10.277108953781127,11.725097727775573,10.623498953781127Q11.721997727775573,10.949838953781128,11.908097727775573,11.217938953781129L11.909497727775573,11.219968953781127L11.910997727775573,11.221948953781128Q12.043397727775574,11.399908953781129,12.187597727775573,11.399908953781129Q12.331397727775574,11.399908953781129,12.464097727775574,11.222578953781127Q12.650097727775574,10.97271895378113,12.650097727775574,10.624908953781128Q12.650097727775574,10.276238953781128,12.464097727775574,10.027868953781127Q12.331697727775573,9.849908953781128,12.187597727775573,9.849908953781128Z" fill-rule="evenodd" fill="#2D2E33" fill-opacity="1"/></g></g></svg>