<svg xmlns="http://www.w3.org/2000/svg" xmlns:xlink="http://www.w3.org/1999/xlink" fill="none" version="1.1" width="24" height="24" viewBox="0 0 24 24"><g><g></g><g><path d="M20.53033,16.53052645690918Q20.63582,16.42503745690918,20.69291,16.28720945690918Q20.75,16.14938045690918,20.75,16.00019645690918Q20.75,15.92632795690918,20.735590000000002,15.853878456909179Q20.72118,15.78142945690918,20.69291,15.71318345690918Q20.66464,15.64493845690918,20.6236,15.58351845690918Q20.58256,15.52209945690918,20.53033,15.46986645690918Q20.4781,15.41763345690918,20.41668,15.37659445690918Q20.35526,15.33555545690918,20.287010000000002,15.30728645690918Q20.21877,15.27901845690918,20.14632,15.264607456909179Q20.07387,15.25019645690918,20,15.25019645690918Q19.85082,15.25019645690918,19.71299,15.30728645690918Q19.57516,15.36437745690918,19.46967,15.46986645690918L15.46967,19.46986645690918Q15.364181,19.57535645690918,15.30709,19.71318645690918Q15.25,19.85101645690918,15.25,20.00019645690918Q15.25,20.07406645690918,15.264410999999999,20.14651645690918Q15.278822,20.21896645690918,15.30709,20.287206456909182Q15.335359,20.35545645690918,15.376398,20.41687645690918Q15.417437,20.47829645690918,15.46967,20.53052645690918Q15.521903,20.58275645690918,15.583322,20.62379645690918Q15.644742,20.66483645690918,15.712987,20.69310645690918Q15.781233,20.72137645690918,15.853682,20.73578645690918Q15.9261315,20.75019645690918,16,20.75019645690918Q16.149184,20.75019645690918,16.287013,20.69310645690918Q16.424841,20.63601645690918,16.53033,20.53052645690918L20.53033,16.53052645690918L20.53033,16.53052645690918Z" fill-rule="evenodd" fill="#2D2E33" fill-opacity="1"/></g><g><path d="M4.973819322998047,12.96552L6.469672322998047,11.46967Q6.521902322998047,11.417437,6.583322322998047,11.376398Q6.644742322998047,11.335359,6.712982322998046,11.30709Q6.781232322998047,11.278822,6.853682322998047,11.264410999999999Q6.926132322998047,11.25,7.000002322998046,11.25Q7.073872322998047,11.25,7.146312322998047,11.264410999999999Q7.218762322998047,11.278822,7.287012322998047,11.30709Q7.355262322998047,11.335359,7.416682322998047,11.376398Q7.478092322998046,11.417437,7.5303323229980474,11.46967L12.530332322998047,16.46967Q12.582562322998047,16.5219,12.623602322998046,16.58332Q12.664642322998047,16.64474,12.692912322998048,16.712989999999998Q12.721172322998047,16.78123,12.735592322998047,16.85368Q12.750002322998046,16.92613,12.750002322998046,17Q12.750002322998046,17.07387,12.735592322998047,17.14632Q12.721172322998047,17.21877,12.692912322998048,17.287010000000002Q12.664642322998047,17.35526,12.623602322998046,17.41668Q12.582562322998047,17.4781,12.530332322998047,17.53033L11.030332322998046,19.03033Q9.789872322998047,20.31187,7.9942023229980474,20.32645Q6.198532322998047,20.34103,4.928754322998047,19.07125Q3.658978322998047,17.801470000000002,3.6735543229980467,16.0058Q3.688104322998047,14.213280000000001,4.973819322998047,12.96552ZM5.173504322998047,16.01798Q5.1829793229980465,14.85075,6.021652322998047,14.03887L6.030332322998047,14.03033L7.000002322998046,13.06066L10.939342322998048,17L9.969672322998047,17.96967Q9.149252322998047,18.81702,7.982022322998047,18.8265Q6.814792322998047,18.83597,5.989412322998047,18.01059Q5.164030322998046,17.185200000000002,5.173504322998047,16.01798Z" fill-rule="evenodd" fill="#2D2E33" fill-opacity="1"/></g><g><path d="M19.026229999999998,11.034262568969726L17.53033,12.530162568969727Q17.42484,12.635652568969727,17.287010000000002,12.692742568969727Q17.14918,12.749832568969726,17,12.749832568969726Q16.85081,12.749832568969726,16.712989999999998,12.692742568969727Q16.57516,12.635652568969727,16.46967,12.530162568969727L11.46967,7.530162568969727Q11.417437,7.477922568969726,11.376398,7.416502568969726Q11.335359,7.355092568969726,11.30709,7.2868425689697265Q11.278822,7.218592568969727,11.264410999999999,7.146152568969727Q11.25,7.073702568969726,11.25,6.999832568969726Q11.25,6.925962568969727,11.264410999999999,6.853512568969727Q11.278822,6.781062568969727,11.30709,6.712812568969726Q11.335359,6.644572568969727,11.376398,6.583152568969727Q11.417437,6.5217325689697265,11.46967,6.469502568969727L12.96967,4.9695005689697265Q14.21013,3.6879595689697267,16.0058,3.6733845689697264Q17.801470000000002,3.6588085689697265,19.07125,4.928583568969726Q20.34102,6.198362568969727,20.32645,7.994032568969727Q20.31189,9.786512568969727,19.026229999999998,11.034262568969726ZM18.8265,7.981852568969726Q18.81702,9.149082568969726,17.97835,9.960962568969727L17.96967,9.969502568969727L17,10.939172568969727L13.06066,6.999832568969726L14.03033,6.030162568969726Q14.85075,5.182809568969726,16.01798,5.173334568969727Q17.185200000000002,5.163860568969726,18.01059,5.989242568969726Q18.83597,6.814622568969726,18.8265,7.981852568969726Z" fill-rule="evenodd" fill="#2D2E33" fill-opacity="1"/></g><g><path d="M6.03033,19.030135450439452Q6.13582,18.924646450439454,6.1929099999999995,18.786818450439455Q6.25,18.648989450439455,6.25,18.499805450439453Q6.25,18.425936950439453,6.23559,18.353487450439452Q6.22118,18.281038450439453,6.1929099999999995,18.21279245043945Q6.16464,18.144547450439454,6.1236,18.083127450439452Q6.08256,18.021708450439455,6.03033,17.969475450439454Q5.9780999999999995,17.917242450439453,5.9166799999999995,17.876203450439455Q5.8552599999999995,17.835164450439454,5.78701,17.806895450439452Q5.71877,17.778627450439455,5.646319999999999,17.764216450439452Q5.573869999999999,17.749805450439453,5.5,17.749805450439453Q5.350820000000001,17.749805450439453,5.21299,17.806895450439452Q5.07516,17.86398645043945,4.96967,17.969475450439454L2.46967,20.469475450439454Q2.364181,20.574965450439453,2.30709,20.712795450439454Q2.25,20.850625450439452,2.25,20.999805450439453Q2.25,21.073675450439453,2.264411,21.146125450439452Q2.278822,21.218575450439452,2.30709,21.286815450439452Q2.335359,21.355065450439454,2.376398,21.416485450439453Q2.417437,21.477905450439454,2.46967,21.530135450439452Q2.521903,21.582365450439454,2.583322,21.623405450439453Q2.644742,21.66444545043945,2.712987,21.692715450439454Q2.781233,21.720985450439454,2.853682,21.735395450439455Q2.9261315,21.749805450439453,3,21.749805450439453Q3.149184,21.749805450439453,3.287013,21.692715450439454Q3.424841,21.635625450439452,3.53033,21.530135450439452L3.530484,21.529985450439455L6.03004,19.030430450439454L6.03033,19.030135450439452L6.03033,19.030135450439452Z" fill-rule="evenodd" fill="#2D2E33" fill-opacity="1"/></g><g><path d="M21.53033,3.53033Q21.63582,3.424841,21.69291,3.287013Q21.75,3.149184,21.75,3Q21.75,2.9261315,21.735590000000002,2.853682Q21.72118,2.781233,21.69291,2.712987Q21.66464,2.644742,21.6236,2.583322Q21.58256,2.521903,21.53033,2.46967Q21.4781,2.417437,21.41668,2.376398Q21.35526,2.335359,21.28701,2.30709Q21.21877,2.278822,21.14632,2.264411Q21.07387,2.25,21,2.25Q20.85082,2.25,20.71299,2.30709Q20.57516,2.364181,20.46967,2.46967L17.96967,4.96967Q17.864181,5.07516,17.80709,5.21299Q17.75,5.350820000000001,17.75,5.5Q17.75,5.573869999999999,17.764411,5.646319999999999Q17.778822,5.71877,17.80709,5.78701Q17.835359,5.8552599999999995,17.876398000000002,5.9166799999999995Q17.917437,5.9780999999999995,17.96967,6.03033Q18.021903000000002,6.08256,18.083322,6.1236Q18.144742,6.16464,18.212987,6.1929099999999995Q18.281233,6.22118,18.353682,6.23559Q18.4261315,6.25,18.5,6.25Q18.649184,6.25,18.787013,6.1929099999999995Q18.924841,6.13582,19.03033,6.03033L19.030484,6.03018L21.53004,3.530625L21.53033,3.53033L21.53033,3.53033Z" fill-rule="evenodd" fill="#2D2E33" fill-opacity="1"/></g><g><path d="M10.53033,11.530135450439452Q10.635819999999999,11.424646450439454,10.69291,11.286818450439453Q10.75,11.148989450439453,10.75,10.999805450439453Q10.75,10.925936950439453,10.73559,10.853487450439452Q10.72118,10.781038450439453,10.69291,10.712792450439453Q10.66464,10.644547450439454,10.6236,10.583127450439454Q10.58256,10.521708450439453,10.53033,10.469475450439454Q10.4781,10.417242450439453,10.41668,10.376203450439453Q10.35526,10.335164450439454,10.28701,10.306895450439454Q10.21877,10.278627450439453,10.14632,10.264216450439452Q10.07387,10.249805450439453,10,10.249805450439453Q9.85082,10.249805450439453,9.71299,10.306895450439454Q9.57516,10.363986450439453,9.46967,10.469475450439454L9.46952,10.469629450439452L7.469824,12.469325450439452L7.46967,12.469475450439454Q7.364181,12.574965450439453,7.30709,12.712795450439453Q7.25,12.850625450439454,7.25,12.999805450439453Q7.25,13.073675450439453,7.264411,13.146125450439452Q7.278822,13.218575450439452,7.30709,13.286815450439454Q7.335359,13.355065450439453,7.376398,13.416485450439453Q7.417437,13.477905450439453,7.46967,13.530135450439452Q7.521903,13.582365450439454,7.583322,13.623405450439453Q7.644742,13.664445450439453,7.712987,13.692715450439453Q7.781233,13.720985450439454,7.853682,13.735395450439453Q7.9261315,13.749805450439453,8,13.749805450439453Q8.149184,13.749805450439453,8.287013,13.692715450439453Q8.424841,13.635625450439452,8.53033,13.530135450439452L10.53033,11.530135450439452Z" fill-rule="evenodd" fill="#2D2E33" fill-opacity="1"/></g><g><path d="M13.53033,14.530135450439452Q13.635819999999999,14.424646450439454,13.69291,14.286818450439453Q13.75,14.148989450439453,13.75,13.999805450439453Q13.75,13.925936950439453,13.73559,13.853487450439452Q13.72118,13.781038450439453,13.69291,13.712792450439453Q13.66464,13.644547450439454,13.6236,13.583127450439454Q13.58256,13.521708450439453,13.53033,13.469475450439454Q13.4781,13.417242450439453,13.41668,13.376203450439453Q13.35526,13.335164450439454,13.28701,13.306895450439454Q13.21877,13.278627450439453,13.14632,13.264216450439452Q13.07387,13.249805450439453,13,13.249805450439453Q12.85082,13.249805450439453,12.71299,13.306895450439454Q12.57516,13.363986450439453,12.46967,13.469475450439454L12.46952,13.469629450439452L10.469824,15.469325450439452L10.46967,15.469475450439454Q10.364181,15.574965450439453,10.30709,15.712795450439453Q10.25,15.850625450439454,10.25,15.999805450439453Q10.25,16.073675450439453,10.264410999999999,16.146125450439452Q10.278822,16.218575450439452,10.30709,16.286815450439452Q10.335359,16.355065450439454,10.376398,16.416485450439453Q10.417437,16.477905450439454,10.46967,16.530135450439452Q10.521903,16.582365450439454,10.583322,16.623405450439453Q10.644742,16.66444545043945,10.712987,16.692715450439454Q10.781233,16.720985450439454,10.853682,16.735395450439455Q10.9261315,16.749805450439453,11,16.749805450439453Q11.149184,16.749805450439453,11.287013,16.692715450439454Q11.424841,16.635625450439452,11.53033,16.530135450439452L13.53033,14.530135450439452Z" fill-rule="evenodd" fill="#2D2E33" fill-opacity="1"/></g><g><path d="M16.530484,15.470020456909179L20.53033,19.46986645690918Q20.63582,19.57535645690918,20.69291,19.71318645690918Q20.75,19.85101645690918,20.75,20.00019645690918Q20.75,20.07406645690918,20.735590000000002,20.14651645690918Q20.72118,20.21896645690918,20.69291,20.287206456909182Q20.66464,20.35545645690918,20.6236,20.41687645690918Q20.58256,20.47829645690918,20.53033,20.53052645690918Q20.4781,20.58275645690918,20.41668,20.62379645690918Q20.35526,20.66483645690918,20.287010000000002,20.69310645690918Q20.21877,20.72137645690918,20.14632,20.73578645690918Q20.07387,20.75019645690918,20,20.75019645690918Q19.85082,20.75019645690918,19.71299,20.69310645690918Q19.57516,20.63601645690918,19.46967,20.53052645690918L15.469824,16.53068045690918L15.46967,16.53052645690918Q15.364181,16.42503745690918,15.30709,16.28720945690918Q15.25,16.14938045690918,15.25,16.00019645690918Q15.25,15.92632795690918,15.264410999999999,15.853878456909179Q15.278822,15.78142945690918,15.30709,15.71318345690918Q15.335359,15.64493845690918,15.376398,15.58351845690918Q15.417437,15.52209945690918,15.46967,15.46986645690918Q15.521903,15.41763345690918,15.583322,15.37659445690918Q15.644742,15.33555545690918,15.712987,15.30728645690918Q15.781233,15.27901845690918,15.853682,15.264607456909179Q15.9261315,15.25019645690918,16,15.25019645690918Q16.149184,15.25019645690918,16.287013,15.30728645690918Q16.424841,15.36437745690918,16.53033,15.46986645690918L16.530484,15.470020456909179Z" fill-rule="evenodd" fill="#2D2E33" fill-opacity="1"/></g></g></svg>