<svg xmlns="http://www.w3.org/2000/svg" xmlns:xlink="http://www.w3.org/1999/xlink" fill="none" version="1.1" width="20" height="20" viewBox="0 0 20 20"><defs><clipPath id="master_svg0_4019_71360"><rect x="20" y="20" width="20" height="20" rx="0"/></clipPath></defs><g transform="matrix(-1,0,0,-1,40,40)" clip-path="url(#master_svg0_4019_71360)"><g transform="matrix(-1,0,0,-1,70,65)"><path d="M35.530484,31.969824L40,36.43934L44.469210000000004,31.970132L44.46967,31.96967Q44.57516,31.864181,44.71299,31.80709Q44.850809999999996,31.75,45,31.75Q45.0739,31.75,45.1463,31.764411Q45.2188,31.778822,45.287,31.80709Q45.3553,31.835359,45.4167,31.876398000000002Q45.4781,31.917437,45.5303,31.96967Q45.5826,32.021903,45.623599999999996,32.083322Q45.6646,32.144742,45.6929,32.212987Q45.721199999999996,32.281233,45.7356,32.353682Q45.75,32.4261315,45.75,32.5Q45.75,32.649184,45.6929,32.787013Q45.6358,32.924841,45.5303,33.03033L45.5299,33.030792L40.53033,38.03033Q40.42484,38.13582,40.28701,38.19291Q40.14918,38.25,40,38.25Q39.85082,38.25,39.71299,38.19291Q39.57516,38.13582,39.46967,38.03033L34.469824,33.030484L34.46967,33.03033Q34.364181,32.924841,34.30709,32.787013Q34.25,32.649184,34.25,32.5Q34.25,32.4261315,34.264411,32.353682Q34.278822,32.281233,34.30709,32.212987Q34.335359,32.144742,34.376398,32.083322Q34.417437,32.021903,34.46967,31.96967Q34.521903,31.917437,34.583322,31.876398000000002Q34.644742,31.835359,34.712987,31.80709Q34.781233,31.778822,34.853682,31.764411Q34.9261315,31.75,35,31.75Q35.149184,31.75,35.287013,31.80709Q35.424841,31.864181,35.53033,31.96967L35.530484,31.969824Z" fill-rule="evenodd" fill="#2D2E33" fill-opacity="1"/></g></g></svg>