<svg xmlns="http://www.w3.org/2000/svg" xmlns:xlink="http://www.w3.org/1999/xlink" fill="none" version="1.1" width="20" height="20" viewBox="0 0 20 20"><defs><clipPath id="master_svg0_103_24823"><rect x="0" y="0" width="20" height="20" rx="0"/></clipPath></defs><g clip-path="url(#master_svg0_103_24823)"><g><path d="M5.5304839999999995,6.969824L5.53033,6.96967Q5.424841,6.864181,5.287013,6.80709Q5.149184,6.75,5,6.75Q4.850816,6.75,4.712987,6.80709Q4.575159,6.864181,4.46967,6.96967Q4.364181,7.075159,4.30709,7.212987Q4.25,7.350816,4.25,7.5Q4.25,7.649184,4.30709,7.787013Q4.364181,7.924841,4.46967,8.03033L4.469824,8.030484L9.46967,13.03033Q9.521899999999999,13.08256,9.58332,13.1236Q9.644739999999999,13.16464,9.71299,13.192910000000001Q9.78123,13.22118,9.85368,13.23559Q9.92613,13.25,10,13.25Q10.07387,13.25,10.14632,13.23559Q10.21877,13.22118,10.28701,13.192910000000001Q10.355260000000001,13.16464,10.41668,13.1236Q10.478100000000001,13.08256,10.53033,13.03033L15.5299,8.030792L15.5303,8.03033Q15.6358,7.924841,15.6929,7.787013Q15.75,7.649184,15.75,7.5Q15.75,7.350816,15.6929,7.212987Q15.6358,7.075159,15.5303,6.96967Q15.5269,6.966237,15.5234,6.9628499999999995Q15.4184,6.860495,15.2825,6.805247Q15.1467,6.75,15,6.75Q14.85081,6.75,14.71299,6.80709Q14.57516,6.864181,14.46967,6.96967L14.46921,6.9701319999999996L10,11.43934L5.5304839999999995,6.969824Z" fill-rule="evenodd" fill="#2D2E33" fill-opacity="1"/></g></g></svg>