<svg xmlns="http://www.w3.org/2000/svg" xmlns:xlink="http://www.w3.org/1999/xlink" fill="none" version="1.1" width="20" height="20" viewBox="0 0 20 20"><defs><clipPath id="master_svg0_4158_59731"><rect x="0" y="0" width="20" height="20" rx="4"/></clipPath></defs><g clip-path="url(#master_svg0_4158_59731)"><g><path d="M6.353613,7.6465060000000005L10,11.29289L13.64626,7.646634L13.64645,7.646447Q13.71677,7.57612,13.80866,7.53806Q13.90054,7.5,14,7.5Q14.04924,7.5,14.09754,7.509607Q14.14584,7.519215,14.19134,7.53806Q14.23684,7.556906,14.27778,7.584265Q14.31873,7.611625,14.35355,7.646447Q14.38837,7.681269,14.41573,7.722215Q14.44309,7.763161,14.46194,7.808658Q14.48078,7.854155,14.49039,7.9024549Q14.5,7.9507543,14.5,8Q14.5,8.0994561,14.46194,8.191342Q14.42388,8.283227,14.35355,8.353553L10.35355,12.35355Q10.31873,12.38837,10.27778,12.41573Q10.23684,12.44309,10.19134,12.46194Q10.14584,12.48078,10.09754,12.49039Q10.049240000000001,12.5,10,12.5Q9.95075,12.5,9.90245,12.49039Q9.85415,12.48078,9.80866,12.46194Q9.76316,12.44309,9.72221,12.41573Q9.68127,12.38837,9.64645,12.35355L5.6465060000000005,8.353613L5.646447,8.353553Q5.57612,8.283227,5.53806,8.191342Q5.5,8.0994562,5.5,8Q5.5,7.9507543,5.509607,7.9024549Q5.519215,7.854155,5.53806,7.808658Q5.556906,7.763161,5.584265,7.722215Q5.611625,7.681269,5.646447,7.646447Q5.681269,7.611625,5.722215,7.584265Q5.763161,7.556906,5.808658,7.53806Q5.854155,7.519215,5.9024549,7.509607Q5.9507543,7.5,6,7.5Q6.0994562,7.5,6.191342,7.53806Q6.283227,7.57612,6.353553,7.646447L6.353613,7.6465060000000005Z" fill-rule="evenodd" fill="#949E9C" fill-opacity="1"/></g></g></svg>