<svg xmlns="http://www.w3.org/2000/svg" xmlns:xlink="http://www.w3.org/1999/xlink" fill="none" version="1.1" width="20" height="20" viewBox="0 0 20 20"><defs><clipPath id="master_svg0_sa4143_47501"><rect x="0" y="0" width="20" height="20" rx="0"/></clipPath></defs><g clip-path="url(#master_svg0_sa4143_47501)"><g><path d="M4.333984375,15.5L16.333984375,15.5Q16.383184375,15.5,16.431484375,15.509607Q16.479784375,15.519214999999999,16.525284375,15.53806Q16.570784375000002,15.556906,16.611784375,15.584265Q16.652684375,15.611625,16.687584375,15.646447Q16.722384375,15.681269,16.749684375,15.722215Q16.777084375,15.763161,16.795884375,15.808658Q16.814784375000002,15.854155,16.824384375,15.9024549Q16.833984375,15.9507543,16.833984375,16Q16.833984375,16.0492457,16.824384375,16.0975451Q16.814784375000002,16.145845,16.795884375,16.191342Q16.777084375,16.236839,16.749684375,16.277785Q16.722384375,16.318731,16.687584375,16.353553Q16.652684375,16.388375,16.611784375,16.415735Q16.570784375000002,16.443094,16.525284375,16.46194Q16.479784375,16.480785,16.431484375,16.490393Q16.383184375,16.5,16.333984375,16.5L4.333984375,16.5Q4.284738675,16.5,4.236439275,16.490393Q4.188139375,16.480785,4.142642375,16.46194Q4.097145375,16.443094,4.056199375,16.415735Q4.015253375,16.388375,3.980431375,16.353553Q3.945609375,16.318731,3.918249375,16.277785Q3.890890375,16.236839,3.8720443749999998,16.191342Q3.853199375,16.145845,3.843591375,16.0975451Q3.833984375,16.0492457,3.833984375,16Q3.833984375,15.9507543,3.843591375,15.9024549Q3.853199375,15.854155,3.8720443749999998,15.808658Q3.890890375,15.763161,3.918249375,15.722215Q3.945609375,15.681269,3.980431375,15.646447Q4.015253375,15.611625,4.056199375,15.584265Q4.097145375,15.556906,4.142642375,15.53806Q4.188139375,15.519214999999999,4.236439275,15.509607Q4.284738675,15.5,4.333984375,15.5Z" fill-rule="evenodd" fill="#949E9C" fill-opacity="1"/></g><g><path d="M12.210905624999999,3.646369L12.210615624999999,3.646658L5.312250625,10.55329Q5.242021625,10.62361,5.204018625,10.71543Q5.166015625,10.80726,5.166015625,10.90663L5.166015625,13.33333Q5.166015625,13.38258,5.175622625,13.43088Q5.185230625,13.47918,5.204075625,13.52468Q5.222921625,13.57017,5.250280625,13.61112Q5.277640625,13.65207,5.312462625,13.68689Q5.347284625,13.72171,5.388230625,13.74907Q5.429176625,13.77643,5.474673625,13.79527Q5.520170625,13.81412,5.568470525,13.82372Q5.616769925,13.83333,5.666015625,13.83333L8.105085625000001,13.83333Q8.204565625,13.83333,8.296475625,13.79525Q8.388385625,13.75717,8.458715625,13.68681L15.352975625,6.78951Q15.387785625,6.75469,15.415125625,6.71375Q15.442475625,6.67281,15.461305625,6.62732Q15.480145625,6.58184,15.489745625,6.53355Q15.499345625,6.48526,15.499345625,6.436030000000001Q15.499345625,6.3868,15.489745625,6.338509999999999Q15.480145625,6.29023,15.461305625,6.24474Q15.442475625,6.199260000000001,15.415125625,6.15832Q15.387785625,6.11738,15.352975625,6.08256L12.918015624999999,3.646524Q12.883195624999999,3.611694,12.842255625,3.584326Q12.801315625,3.556958,12.755825625,3.538102Q12.710325625,3.519247,12.662035625,3.509629Q12.613735625,3.5000109999999998,12.564485625,3.5Q12.515245625,3.4999890000000002,12.466945625000001,3.509586Q12.418645625,3.519183,12.373145625,3.538018Q12.327635625,3.556854,12.286685625,3.584204Q12.245735625,3.611555,12.210905624999999,3.646369ZM12.564515625,4.707396L6.166015625,11.11356L6.166015625,12.83333L7.8979156249999996,12.83333L14.292395625,6.436030000000001L12.564515625,4.707396Z" fill-rule="evenodd" fill="#949E9C" fill-opacity="1"/></g></g></svg>