<svg xmlns="http://www.w3.org/2000/svg" xmlns:xlink="http://www.w3.org/1999/xlink" fill="none" version="1.1" width="20" height="20" viewBox="0 0 20 20"><defs><clipPath id="master_svg0_1339_07966"><rect x="0" y="0" width="20" height="20" rx="0"/></clipPath></defs><g clip-path="url(#master_svg0_1339_07966)"><g><path d="M12.7466834375,2.849688C13.9626234375,1.633438,15.9342234375,1.633438,17.150423437500002,2.849688C18.3667234375,4.0656300000000005,18.3667234375,6.03719,17.150423437500002,7.25344L9.3323134375,15.0716C9.272733437500001,15.1311,9.200533437499999,15.1765,9.1210634375,15.2044L4.7345034375,16.7456C3.8157504375,17.0688,2.9313754375,16.1844,3.2545002375,15.2656L4.7954334375,10.87906C4.8235634375,10.79938,4.8688734375,10.72719,4.9285634375,10.66781L12.7466834375,2.849688ZM16.355123437499998,3.645C15.5783234375,2.868112,14.3188234375,2.868112,13.5420234375,3.645L5.8145034375,11.3725L4.3157534375,15.6381C4.3139934375,15.6427,4.3129434374999995,15.6476,4.3126234375,15.6525C4.3126234375,15.6544,4.3126234375,15.6563,4.3132534375,15.6578C4.3152534375,15.6647,4.3190234375,15.671,4.3241834375,15.6759C4.3291634375,15.6811,4.3354134375,15.6849,4.3423134375,15.6869C4.3438734375,15.6875,4.3454334375000006,15.6875,4.3476234375,15.6875C4.3495034375,15.6875,4.3538734375,15.6869,4.3616834375,15.6844L8.6273134375,14.1856L16.355123437499998,6.45781C17.1316234375,5.68109,17.1316234375,4.42204,16.355123437499998,3.6453100000000003L16.355123437499998,3.645Z" fill="#99A0AF" fill-opacity="1"/></g><g><path d="M11.9268059375,3.890648078125C12.1464959375,3.670890778125,12.5027459375,3.670890778125,12.7224359375,3.890648078125L16.1155859375,7.283770078125C16.3352859375,7.5034800781249995,16.3352859375,7.859690078125,16.1155859375,8.079400078125001C15.8958859375,8.299100078125,15.5396859375,8.299100078125,15.3198859375,8.079400078125001L11.9268059375,4.686273078125C11.7072659375,4.466623078125,11.7072659375,4.110609078125,11.9268059375,3.890960078125L11.9268059375,3.890648078125ZM5.2027469375,10.615020078125C5.4224319375,10.395270078125,5.7786869375,10.395270078125,5.9983719375,10.615020078125L9.3914959375,14.008130078125C9.6109159375,14.227930078125,9.6107759375,14.583930078125,9.391185937500001,14.803430078125C9.1716059375,15.023030078125,8.8156259375,15.023230078125,8.5958759375,14.803730078125L5.2027469375,11.410340078125C4.9831989375,11.190690078125,4.9831989375,10.834670078125,5.2027469375,10.615020078125Z" fill="#99A0AF" fill-opacity="1"/></g></g></svg>