<svg xmlns="http://www.w3.org/2000/svg" xmlns:xlink="http://www.w3.org/1999/xlink" fill="none" version="1.1" width="20" height="20" viewBox="0 0 20 20"><defs><clipPath id="master_svg0_3258_23458"><rect x="0" y="0" width="20" height="20" rx="0"/></clipPath></defs><g clip-path="url(#master_svg0_3258_23458)"><g><path d="M2.916015625,16.75L17.916015625,16.75Q17.989915625000002,16.75,18.062315625,16.764411Q18.134815625,16.778822,18.203015625,16.80709Q18.271315625,16.835359,18.332715625,16.876398000000002Q18.394115624999998,16.917437,18.446315625,16.96967Q18.498615625,17.021903000000002,18.539615625,17.083322Q18.580615625,17.144742,18.608915625,17.212987Q18.637215625,17.281233,18.651615624999998,17.353682Q18.666015625,17.4261315,18.666015625,17.5Q18.666015625,17.5738685,18.651615624999998,17.646318Q18.637215625,17.718767,18.608915625,17.787013Q18.580615625,17.855258,18.539615625,17.916678Q18.498615625,17.978096999999998,18.446315625,18.03033Q18.394115624999998,18.082563,18.332715625,18.123601999999998Q18.271315625,18.164641,18.203015625,18.19291Q18.134815625,18.221178,18.062315625,18.235589Q17.989915625000002,18.25,17.916015625,18.25L2.916015625,18.25Q2.842147125,18.25,2.769697625,18.235589Q2.697248625,18.221178,2.629002625,18.19291Q2.560757625,18.164641,2.499337625,18.123601999999998Q2.437918625,18.082563,2.385685625,18.03033Q2.333452625,17.978096999999998,2.292413625,17.916678Q2.251374625,17.855258,2.223105625,17.787013Q2.194837625,17.718767,2.180426625,17.646318Q2.166015625,17.5738685,2.166015625,17.5Q2.166015625,17.4261315,2.180426625,17.353682Q2.194837625,17.281233,2.223105625,17.212987Q2.251374625,17.144742,2.292413625,17.083322Q2.333452625,17.021903000000002,2.385685625,16.96967Q2.437918625,16.917437,2.499337625,16.876398000000002Q2.560757625,16.835359,2.629002625,16.80709Q2.697248625,16.778822,2.769697625,16.764411Q2.842147125,16.75,2.916015625,16.75Z" fill-rule="evenodd" fill="#2D2E33" fill-opacity="1"/></g><g><path d="M12.676724375,1.969554L12.676294375,1.9699879999999999L4.053336375,10.60328Q3.9479933750000002,10.70875,3.890988375,10.84649Q3.833984375,10.98422,3.833984375,11.13329L3.833984375,14.1667Q3.833984375,14.2405,3.848395375,14.313Q3.862806375,14.3854,3.891074375,14.4537Q3.919343375,14.5219,3.960382375,14.5833Q4.001421375,14.6448,4.053654375,14.697Q4.105887375,14.7492,4.167306375,14.7903Q4.228726375,14.8313,4.296971375,14.8596Q4.365217375,14.8878,4.437666375,14.9023Q4.510115875,14.9167,4.583984375,14.9167L7.632814375000001,14.9167Q7.782044375,14.9167,7.919904375,14.8595Q8.057764375,14.8024,8.163264375,14.6969L16.781084375,6.0752500000000005Q16.833284374999998,6.02302,16.874284375000002,5.96162Q16.915384375000002,5.9002099999999995,16.943584375,5.83198Q16.971884375000002,5.76375,16.986284375,5.69132Q17.000684375,5.61889,17.000684375,5.54504Q17.000684375,5.47119,16.986284375,5.398759999999999Q16.971884375000002,5.3263300000000005,16.943584375,5.258100000000001Q16.915384375000002,5.1898800000000005,16.874284375000002,5.12847Q16.833284374999998,5.06706,16.781084375,5.01483L13.737384375,1.969786Q13.685164375,1.917542,13.623754375,1.8764889999999999Q13.562344375,1.835437,13.494104375,1.807153Q13.425864375,1.77887,13.353414375,1.764443Q13.280974375,1.750016,13.207104375,1.75Q13.133234375,1.749984,13.060784375,1.764379Q12.988334375,1.7787739999999999,12.920074375,1.8070279999999999Q12.851824375,1.8352810000000002,12.790404375,1.876307Q12.728974375,1.917332,12.676724375,1.969554ZM13.207144375,3.56109L5.333984375,11.44369L5.333984375,13.4167L7.322064375,13.4167L15.190184375,5.54504L13.207144375,3.56109Z" fill-rule="evenodd" fill="#2D2E33" fill-opacity="1"/></g></g></svg>