<svg xmlns="http://www.w3.org/2000/svg" xmlns:xlink="http://www.w3.org/1999/xlink" fill="none" version="1.1" width="16" height="16" viewBox="0 0 16 16"><defs><clipPath id="master_svg0_2764_17720"><rect x="0" y="0" width="16" height="16" rx="0"/></clipPath></defs><g style="opacity:0.800000011920929;" clip-path="url(#master_svg0_2764_17720)"><g><path d="M2.333984375,14.75L14.333984375,14.75Q14.407884375,14.75,14.480284375,14.735589000000001Q14.552784375,14.721178,14.620984375,14.69291Q14.689284375,14.664641,14.750684375,14.623602Q14.812084375,14.582563,14.864284375,14.53033Q14.916584375,14.478097,14.957584375,14.416678Q14.998584375,14.355258,15.026884375,14.287013Q15.055184375,14.218767,15.069584375,14.146318Q15.083984375,14.0738685,15.083984375,14Q15.083984375,13.9261315,15.069584375,13.853682Q15.055184375,13.781233,15.026884375,13.712987Q14.998584375,13.644742,14.957584375,13.583322Q14.916584375,13.521903,14.864284375,13.46967Q14.812084375,13.417437,14.750684375,13.376398Q14.689284375,13.335359,14.620984375,13.30709Q14.552784375,13.278822,14.480284375,13.264410999999999Q14.407884375,13.25,14.333984375,13.25L2.333984375,13.25Q2.260115875,13.25,2.187666375,13.264410999999999Q2.115217375,13.278822,2.046971375,13.30709Q1.978726375,13.335359,1.917306375,13.376398Q1.855887375,13.417437,1.803654375,13.46967Q1.751421375,13.521903,1.710382375,13.583322Q1.669343375,13.644742,1.641074375,13.712987Q1.612806375,13.781233,1.598395375,13.853682Q1.583984375,13.9261315,1.583984375,14Q1.583984375,14.0738685,1.598395375,14.146318Q1.612806375,14.218767,1.641074375,14.287013Q1.669343375,14.355258,1.710382375,14.416678Q1.751421375,14.478097,1.803654375,14.53033Q1.855887375,14.582563,1.917306375,14.623602Q1.978726375,14.664641,2.046971375,14.69291Q2.115217375,14.721178,2.187666375,14.735589000000001Q2.260115875,14.75,2.333984375,14.75Z" fill-rule="evenodd" fill="#99A0AF" fill-opacity="1"/></g><g><path d="M10.034165625,1.469554L10.033735625,1.4699879999999999L3.1353676249999998,8.376619999999999Q3.0300246250000002,8.48209,2.973019625,8.61983Q2.916015625,8.757570000000001,2.916015625,8.90663L2.916015625,11.33333Q2.916015625,11.4072,2.930426625,11.47965Q2.944837625,11.5521,2.973105625,11.62035Q3.001374625,11.68859,3.042413625,11.75001Q3.083452625,11.81143,3.135685625,11.86366Q3.187918625,11.9159,3.249337625,11.95694Q3.310757625,11.99797,3.379002625,12.0262Q3.447248625,12.0545,3.519697625,12.0689Q3.592147125,12.0833,3.666015625,12.0833L6.105085625,12.0833Q6.254305625000001,12.0833,6.392175625,12.0262Q6.530035625,11.96909,6.635525625,11.86355L13.529795625,4.9662500000000005Q13.582005625,4.91402,13.623015625,4.85261Q13.664035625,4.7912,13.692315625,4.72297Q13.720515625,4.65474,13.734915625,4.58231Q13.749315625,4.50988,13.749315625,4.436030000000001Q13.749315625,4.36219,13.734915625,4.289759999999999Q13.720515625,4.2173300000000005,13.692315625,4.1491Q13.664035625,4.08087,13.623015625,4.0194600000000005Q13.582005625,3.95805,13.529795625,3.9058200000000003L11.094825625,1.469786Q10.989365625,1.364274,10.851545625,1.307153Q10.713735625,1.250033,10.564545625000001,1.25Q10.415365625,1.249967,10.277525624999999,1.3070279999999999Q10.139685625,1.364088,10.034165625,1.469554ZM10.564585625,3.06109L4.416015625,9.217030000000001L4.416015625,10.58333L5.794325625,10.58333L11.938925625,4.436030000000001L10.564585625,3.06109Z" fill-rule="evenodd" fill="#99A0AF" fill-opacity="1"/></g></g></svg>