<svg xmlns="http://www.w3.org/2000/svg" xmlns:xlink="http://www.w3.org/1999/xlink" fill="none" version="1.1" width="24" height="24" viewBox="0 0 24 24"><defs><clipPath id="master_svg0_273_36388"><rect x="0" y="0" width="24" height="24" rx="0"/></clipPath></defs><g clip-path="url(#master_svg0_273_36388)"><g><path d="M2.0950962,7.81538Q1.25,9.81342,1.25,12Q1.25,14.1866,2.0950957,16.1846Q2.9111219999999998,18.1139,4.3986,19.6014Q5.88608,21.0889,7.81538,21.9049Q9.81342,22.75,12,22.75Q14.1866,22.75,16.1846,21.9049Q18.1139,21.0889,19.6014,19.6014Q21.0889,18.1139,21.9049,16.1846Q22.75,14.1866,22.75,12Q22.75,9.813410000000001,21.9049,7.81538Q21.0889,5.88608,19.6014,4.3986Q18.1139,2.911123,16.1846,2.0950962Q14.1866,1.25,12,1.25Q9.813410000000001,1.25,7.81538,2.0950957Q5.88608,2.9111219999999998,4.3986,4.3986Q2.9111219999999998,5.88608,2.0950962,7.81538ZM3.4766,15.6003Q2.75,13.8824,2.75,12Q2.75,10.11759,3.4766,8.399709999999999Q4.17866,6.73986,5.4592600000000004,5.4592600000000004Q6.73986,4.17866,8.399709999999999,3.4766Q10.11759,2.75,12,2.75Q13.8824,2.75,15.6003,3.4766Q17.2601,4.17866,18.5407,5.4592600000000004Q19.8213,6.73986,20.5234,8.399709999999999Q21.25,10.11759,21.25,12Q21.25,13.8824,20.5234,15.6003Q19.8213,17.2601,18.5407,18.5407Q17.2601,19.8213,15.6003,20.5234Q13.8824,21.25,12,21.25Q10.1176,21.25,8.399709999999999,20.5234Q6.73986,19.8213,5.4592600000000004,18.5407Q4.17866,17.2601,3.4766,15.6003Z" fill-rule="evenodd" fill="#99A0AF" fill-opacity="1"/></g><g><path d="M2,12.75L22,12.75Q22.0739,12.75,22.1463,12.735589000000001Q22.2188,12.721178,22.287,12.69291Q22.3553,12.664641,22.4167,12.623602Q22.4781,12.582563,22.5303,12.53033Q22.5826,12.478097,22.6236,12.416678Q22.6646,12.355258,22.6929,12.287013Q22.7212,12.218767,22.7356,12.146318Q22.75,12.0738685,22.75,12Q22.75,11.9261315,22.7356,11.853682Q22.7212,11.781233,22.6929,11.712987Q22.6646,11.644742,22.6236,11.583322Q22.5826,11.521903,22.5303,11.46967Q22.4781,11.417437,22.4167,11.376398Q22.3553,11.335359,22.287,11.30709Q22.2188,11.278822,22.1463,11.264410999999999Q22.0739,11.25,22,11.25L2,11.25Q1.9261314999999999,11.25,1.853682,11.264410999999999Q1.781233,11.278822,1.712987,11.30709Q1.644742,11.335359,1.583322,11.376398Q1.521903,11.417437,1.46967,11.46967Q1.417437,11.521903,1.376398,11.583322Q1.335359,11.644742,1.30709,11.712987Q1.278822,11.781233,1.264411,11.853682Q1.25,11.9261315,1.25,12Q1.25,12.0738685,1.264411,12.146318Q1.278822,12.218767,1.30709,12.287013Q1.335359,12.355258,1.376398,12.416678Q1.417437,12.478097,1.46967,12.53033Q1.521903,12.582563,1.583322,12.623602Q1.644742,12.664641,1.712987,12.69291Q1.781233,12.721178,1.853682,12.735589000000001Q1.9261314999999999,12.75,2,12.75Z" fill-rule="evenodd" fill="#99A0AF" fill-opacity="1"/></g><g><path d="M8.475211,4.65039Q7.25,7.71342,7.25,12Q7.25,16.2866,8.475211,19.3496Q9.83536,22.75,12,22.75Q14.16464,22.75,15.52479,19.3496Q16.75,16.2866,16.75,12Q16.75,7.71342,15.52479,4.65039Q14.164629999999999,1.2500010000000001,12,1.25Q9.83536,1.25,8.475211,4.65039ZM9.86793,18.7925Q8.75,15.9977,8.75,12Q8.75,8.00229,9.86793,5.20747Q10.36841,3.95627,10.98793,3.30118Q11.50919,2.75,12,2.75Q12.49081,2.75,13.01207,3.30118Q13.63159,3.95627,14.132069999999999,5.20747Q15.25,8.0023,15.25,12Q15.25,15.9977,14.132069999999999,18.7925Q13.63159,20.0437,13.01207,20.6988Q12.49081,21.25,12,21.25Q11.50919,21.25,10.98793,20.6988Q10.36841,20.0437,9.86793,18.7925Z" fill-rule="evenodd" fill="#99A0AF" fill-opacity="1"/></g><g><path d="M19.600955078125,5.601815921875L19.601455078125,5.601374921875Q19.706955078125,5.495885921875,19.764055078125,5.358057921875Q19.821055078125,5.220228921875,19.821055078125,5.0710449393328Q19.821055078125,4.921860921875,19.764055078125,4.784031921875Q19.706955078125,4.646203921875,19.601455078125,4.540714921875Q19.495955078125,4.435225921875,19.358155078125,4.378134921875Q19.220255078125,4.321044921875,19.071055078125,4.321044921875Q18.921955078125002,4.321044921875,18.784055078125,4.378134921875Q18.646255078125,4.435225921875,18.540755078125002,4.540714921875L18.540355078125,4.541125921875Q17.259855078125,5.821437921875,15.600355078125,6.5233849218749995Q13.882415078125,7.249994921875,11.999995078125,7.249994921875Q10.117615078124999,7.249994921875,8.399735078125,6.5233849218749995Q6.739895078125,5.821324921875,5.459286078125,4.540715921875Q5.353796078125,4.435225921875,5.215968078125,4.378135921875Q5.078140078125,4.321044921875,4.928955479654,4.321044921875Q4.909538978125,4.321044921875,4.890148978125,4.322049921875Q4.751216078125,4.329247921875,4.624107078125,4.385794921875Q4.496998078125,4.442341921875,4.398626078125,4.540713921875Q4.293136078125,4.646202921875,4.236046078125,4.784031921875Q4.178955078125,4.921859921875,4.178955078125,5.071044921875Q4.178955078125,5.090460821875,4.179960078125,5.109851021875Q4.187158078125,5.248783921875,4.243705078125,5.375892921875Q4.300252078125,5.503001921875,4.398624078125,5.601373921875Q5.886104078125,7.088854921875,7.815405078125,7.904894921875Q9.813435078125,8.749994921875,11.999995078125,8.749994921875Q14.186595078125,8.749994921875,16.184655078124997,7.904894921875Q18.113655078125,7.088984921874999,19.600955078125,5.601815921875Z" fill-rule="evenodd" fill="#99A0AF" fill-opacity="1"/></g><g><path d="M7.815405078125,16.0951037Q5.886104078125,16.911136,4.398624078125,18.39862Q4.293135078125,18.50411,4.236045078125,18.641939999999998Q4.178955078125,18.77977,4.178955078125,18.92895Q4.178955078125,19.07813,4.236046078125,19.21596Q4.293136078125,19.35379,4.398626078125,19.45928Q4.504115078125,19.56477,4.641943078125,19.621859999999998Q4.779771078125,19.67895,4.928955078125,19.67895Q5.078139078125,19.67895,5.215968078125,19.621859999999998Q5.353796078125,19.56477,5.459286078125,19.45928Q6.739895078125,18.17867,8.399735078125,17.47661Q10.117615078124999,16.75,11.999995078125,16.75Q13.882415078125,16.75,15.600355078125,17.47661Q17.259955078125,18.17857,18.540355078125,19.45891L18.540755078125002,19.45928Q18.646255078125,19.56477,18.784055078125,19.621859999999998Q18.921955078125002,19.67895,19.071055078125,19.67895Q19.220255078125,19.67895,19.358155078125,19.621859999999998Q19.495955078125,19.56477,19.601455078125,19.45928Q19.706955078125,19.35379,19.764055078125,19.21596Q19.821055078125,19.07813,19.821055078125,18.92895Q19.821055078125,18.77976,19.764055078125,18.641939999999998Q19.706955078125,18.50411,19.601455078125,18.39862L19.601055078125,18.39822Q18.113655078125,16.911023,16.184655078124997,16.095103Q14.186595078125,15.25,11.999995078125,15.25Q9.813435078125,15.25,7.815405078125,16.0951037Z" fill-rule="evenodd" fill="#99A0AF" fill-opacity="1"/></g><g><rect x="1" y="6" width="23" height="12" rx="2" fill="#FFFFFF" fill-opacity="1"/></g><g><path d="M7.135,15.26220703125L7.135,8.26220703125L11.775,8.26220703125L11.775,9.24220703125L8.135,9.24220703125L8.135,11.27220703125L10.775,11.27220703125L10.775,12.25220703125L8.135,12.25220703125L8.135,14.28220703125L11.775,14.28220703125L11.775,15.26220703125L7.135,15.26220703125ZM16.865000000000002,15.26220703125L16.865000000000002,12.69220703125L13.825,9.65220703125L13.825,15.26220703125L12.825,15.26220703125L12.825,8.26220703125L13.825,8.26220703125L16.865000000000002,11.30220703125L16.865000000000002,8.26220703125L17.865000000000002,8.26220703125L17.865000000000002,15.26220703125L16.865000000000002,15.26220703125Z" fill="#99A0AF" fill-opacity="1"/></g></g></svg>