<svg xmlns="http://www.w3.org/2000/svg" xmlns:xlink="http://www.w3.org/1999/xlink" fill="none" version="1.1" width="24" height="24" viewBox="0 0 24 24"><defs><clipPath id="master_svg0_4138_38458"><rect x="0" y="0" width="24" height="24" rx="0"/></clipPath></defs><g clip-path="url(#master_svg0_4138_38458)"><g><path d="M4.3986,4.3986Q1.2500010000000001,7.5472,1.25,12Q1.25,16.4528,4.3986,19.6014Q7.5472,22.75,12,22.75Q16.4528,22.75,19.6014,19.6014Q22.75,16.4528,22.75,12Q22.75,7.5472,19.6014,4.3986Q16.4528,1.25,12,1.25Q7.5472,1.25,4.3986,4.3986ZM5.4592600000000004,18.5407Q2.75,15.8315,2.75,12Q2.75,8.168520000000001,5.4592600000000004,5.4592600000000004Q8.168520000000001,2.75,12,2.75Q15.8315,2.75,18.5407,5.4592600000000004Q21.25,8.168520000000001,21.25,12Q21.25,15.8315,18.5407,18.5407Q15.8315,21.25,12,21.25Q8.168520000000001,21.25,5.4592600000000004,18.5407Z" fill-rule="evenodd" fill="#50D2C1" fill-opacity="1"/></g><g><path d="M2,11.25L22,11.25Q22.0739,11.25,22.1463,11.264410999999999Q22.2188,11.278822,22.287,11.30709Q22.3553,11.335359,22.4167,11.376398Q22.4781,11.417437,22.5303,11.46967Q22.5826,11.521903,22.6236,11.583322Q22.6646,11.644742,22.6929,11.712987Q22.7212,11.781233,22.7356,11.853682Q22.75,11.9261315,22.75,12Q22.75,12.0738685,22.7356,12.146318Q22.7212,12.218767,22.6929,12.287013Q22.6646,12.355258,22.6236,12.416678Q22.5826,12.478097,22.5303,12.53033Q22.4781,12.582563,22.4167,12.623602Q22.3553,12.664641,22.287,12.69291Q22.2188,12.721178,22.1463,12.735589000000001Q22.0739,12.75,22,12.75L2,12.75Q1.9261314999999999,12.75,1.853682,12.735589000000001Q1.781233,12.721178,1.712987,12.69291Q1.644742,12.664641,1.583322,12.623602Q1.521903,12.582563,1.46967,12.53033Q1.417437,12.478097,1.376398,12.416678Q1.335359,12.355258,1.30709,12.287013Q1.278822,12.218767,1.264411,12.146318Q1.25,12.0738685,1.25,12Q1.25,11.9261315,1.264411,11.853682Q1.278822,11.781233,1.30709,11.712987Q1.335359,11.644742,1.376398,11.583322Q1.417437,11.521903,1.46967,11.46967Q1.521903,11.417437,1.583322,11.376398Q1.644742,11.335359,1.712987,11.30709Q1.781233,11.278822,1.853682,11.264410999999999Q1.9261314999999999,11.25,2,11.25Z" fill-rule="evenodd" fill="#50D2C1" fill-opacity="1"/></g><g><path d="M8.475211,4.65039Q7.25,7.71342,7.25,12Q7.25,16.2866,8.475211,19.3496Q9.83536,22.75,12,22.75Q14.16464,22.75,15.52479,19.3496Q16.75,16.2866,16.75,12Q16.75,7.71342,15.52479,4.65039Q14.164629999999999,1.2500010000000001,12,1.25Q9.83536,1.25,8.475211,4.65039ZM9.86793,18.7925Q8.75,15.9977,8.75,12Q8.75,8.00229,9.86793,5.20747Q10.850909999999999,2.75,12,2.75Q13.149090000000001,2.75,14.132069999999999,5.20747Q15.25,8.0023,15.25,12Q15.25,15.9977,14.132069999999999,18.7925Q13.149090000000001,21.25,12,21.25Q10.850909999999999,21.25,9.86793,18.7925Z" fill-rule="evenodd" fill="#50D2C1" fill-opacity="1"/></g><g><path d="M4.399694078125,5.602441921875Q4.293714078125,5.496888921875,4.236335078125,5.358754921875Q4.178955078125,5.220621921875,4.178955078125,5.071044921875Q4.178955078125,4.997176421875,4.193366078125,4.924726921875Q4.207777078125,4.852277921875,4.236045078125,4.784031921875Q4.264314078125,4.715786921875,4.305353078125,4.654366921875Q4.346392078125,4.592947921875,4.398625078125,4.540714921875Q4.450858078125,4.488481921875,4.512277078125,4.447442921875Q4.573697078125,4.406403921875,4.641942078125,4.378134921875Q4.710188078125,4.349866921875,4.782637078125,4.335455921875Q4.855086578125,4.321044921875,4.928955078125,4.321044921875Q5.078140078125,4.321044921875,5.215968078125,4.378135921875Q5.353797078125,4.435225921875,5.459286078125,4.540715921875L5.459287078125,4.540714921875Q6.739895078125,5.821323921875,8.399735078125,6.5233849218749995Q10.117615078124999,7.249994921875,12.000005078125,7.249994921875Q13.882415078125,7.249994921875,15.600355078125,6.5233849218749995Q17.259955078125,5.821404921875,18.540455078125,4.5409989218749995L18.540755078125002,4.540714921875Q18.646255078125,4.435225921875,18.784055078125,4.378134921875Q18.921955078125002,4.321044921875,19.071055078125,4.321044921875Q19.144955078125,4.321044921875,19.217455078125,4.335455921875Q19.289855078125,4.349866921875,19.358155078125,4.378134921875Q19.426355078125,4.406403921875,19.487755078124998,4.447442921875Q19.549155078125,4.488481921875,19.601455078125,4.540714921875Q19.653655078125,4.592947921875,19.694655078125002,4.654366921875Q19.735755078125003,4.715786921875,19.764055078125,4.784031921875Q19.792255078125002,4.852277921875,19.806655078125,4.924726921875Q19.821055078125,4.997176421875,19.821055078125,5.071044921875Q19.821055078125,5.220228921875,19.764055078125,5.358056921875Q19.706955078125,5.495884921875,19.601455078125,5.601373921875Q18.113955078125002,7.088864921875,16.184655078124997,7.904894921875Q14.186605078125,8.749994921875,12.000005078125,8.749994921875Q9.813435078125,8.749994921875,7.815405078125,7.904894921875Q5.886798078125,7.089154921875,4.399694078125,5.602441921875Z" fill-rule="evenodd" fill="#50D2C1" fill-opacity="1"/></g><g><path d="M7.815405078125,16.0951037Q5.886105078125,16.911135,4.398624078125,18.39862Q4.293135078125,18.50411,4.236045078125,18.641939999999998Q4.178955078125,18.77977,4.178955078125,18.92895Q4.178955078125,19.00282,4.193366078125,19.07527Q4.207777078125,19.14772,4.236045078125,19.21596Q4.264314078125,19.28421,4.305353078125,19.34563Q4.346392078125,19.407049999999998,4.398625078125,19.45928Q4.450858078125,19.51151,4.512277078125,19.55255Q4.573697078125,19.59359,4.641942078125,19.621859999999998Q4.710188078125,19.65013,4.782637078125,19.66454Q4.855086578125,19.67895,4.928955078125,19.67895Q5.078140078125,19.67895,5.215968078125,19.621859999999998Q5.353797078125,19.56477,5.459286078125,19.45928L5.459570078125,19.45899Q6.740075078125,18.17859,8.399735078125,17.47661Q10.117615078124999,16.75,12.000005078125,16.75Q13.882415078125,16.75,15.600355078125,17.47661Q17.260155078125003,18.17867,18.540755078125002,19.45928Q18.646255078125,19.56477,18.784055078125,19.621859999999998Q18.921955078125002,19.67895,19.071055078125,19.67895Q19.144955078125,19.67895,19.217455078125,19.66454Q19.289855078125,19.65013,19.358155078125,19.621859999999998Q19.426355078125,19.59359,19.487755078124998,19.55255Q19.549155078125,19.51151,19.601455078125,19.45928Q19.653655078125,19.407049999999998,19.694655078125002,19.34563Q19.735755078125003,19.28421,19.764055078125,19.21596Q19.792255078125002,19.14772,19.806655078125,19.07527Q19.821055078125,19.00282,19.821055078125,18.92895Q19.821055078125,18.77977,19.764055078125,18.641939999999998Q19.706955078125,18.50411,19.601455078125,18.39862L19.600655078125,18.39787Q18.113455078125,16.910925,16.184655078124997,16.0951029Q14.186595078125,15.25,12.000005078125,15.25Q9.813435078125,15.25,7.815405078125,16.0951037Z" fill-rule="evenodd" fill="#50D2C1" fill-opacity="1"/></g><g><rect x="1" y="6" width="23" height="12" rx="2" fill="#111A1E" fill-opacity="1"/></g><g><path d="M7.135,15.26220703125L7.135,8.26220703125L11.775,8.26220703125L11.775,9.24220703125L8.135,9.24220703125L8.135,11.27220703125L10.775,11.27220703125L10.775,12.25220703125L8.135,12.25220703125L8.135,14.28220703125L11.775,14.28220703125L11.775,15.26220703125L7.135,15.26220703125ZM16.865000000000002,15.26220703125L16.865000000000002,12.69220703125L13.825,9.65220703125L13.825,15.26220703125L12.825,15.26220703125L12.825,8.26220703125L13.825,8.26220703125L16.865000000000002,11.30220703125L16.865000000000002,8.26220703125L17.865000000000002,8.26220703125L17.865000000000002,15.26220703125L16.865000000000002,15.26220703125Z" fill="#50D2C1" fill-opacity="1"/></g></g></svg>