<svg xmlns="http://www.w3.org/2000/svg" xmlns:xlink="http://www.w3.org/1999/xlink" fill="none" version="1.1" width="19" height="19" viewBox="0 0 19 19"><g><g><path d="M2.78248,2.78248Q0,5.56497,0,9.5Q0,13.435,2.78248,16.2175Q5.56497,19,9.5,19Q13.435,19,16.2175,16.2175Q19,13.435,19,9.5Q19,5.56497,16.2175,2.78248Q13.435,0,9.5,0Q5.56497,0,2.78248,2.78248ZM3.48959,15.5104Q1,13.0208,1,9.5Q1,5.97918,3.48959,3.48959Q5.97918,1,9.5,1Q13.0208,1,15.5104,3.48959Q18,5.97918,18,9.5Q18,13.0208,15.5104,15.5104Q13.0208,18,9.5,18Q5.97918,18,3.48959,15.5104Z" fill-rule="evenodd" fill="#F6FEFD" fill-opacity="1"/></g><g><path d="M0.5,9L18.5,9Q18.5492,9,18.5975,9.009607Q18.6458,9.019214999999999,18.6913,9.03806Q18.7368,9.056906,18.7778,9.084265Q18.8187,9.111625,18.8536,9.146447Q18.8884,9.181269,18.9157,9.222215Q18.9431,9.263161,18.9619,9.308658Q18.9808,9.354155,18.9904,9.4024549Q19,9.4507543,19,9.5Q19,9.5492457,18.9904,9.5975451Q18.9808,9.645845,18.9619,9.691342Q18.9431,9.736839,18.9157,9.777785Q18.8884,9.818731,18.8536,9.853553Q18.8187,9.888375,18.7778,9.915735Q18.7368,9.943094,18.6913,9.96194Q18.6458,9.980785000000001,18.5975,9.990393Q18.5492,10,18.5,10L0.5,10Q0.4507543,10,0.4024549,9.990393Q0.354155,9.980785000000001,0.308658,9.96194Q0.263161,9.943094,0.222215,9.915735Q0.181269,9.888375,0.146447,9.853553Q0.11162499999999997,9.818731,0.08426499999999998,9.777785Q0.05690600000000001,9.736839,0.03805999999999998,9.691342Q0.019214999999999982,9.645845,0.009606999999999977,9.5975451Q0,9.5492457,0,9.5Q0,9.4507543,0.009606999999999977,9.4024549Q0.019214999999999982,9.354155,0.03805999999999998,9.308658Q0.05690600000000001,9.263161,0.08426499999999998,9.222215Q0.11162499999999997,9.181269,0.146447,9.146447Q0.181269,9.111625,0.222215,9.084265Q0.263161,9.056906,0.308658,9.03806Q0.354155,9.019214999999999,0.4024549,9.009607Q0.4507543,9,0.5,9Z" fill-rule="evenodd" fill="#F6FEFD" fill-opacity="1"/></g><g><path d="M6.4901726185302735,2.95034Q5.399999618530273,5.67578,5.399999618530273,9.5Q5.399999618530273,13.3242,6.4901726185302735,16.0497Q7.670309618530274,19,9.499999618530273,19Q11.329689618530274,19,12.509829618530272,16.0497Q13.599999618530273,13.3242,13.599999618530273,9.5Q13.599999618530273,5.67578,12.509829618530272,2.95034Q11.329689618530274,0,9.499999618530273,0Q7.670309618530274,0,6.4901726185302735,2.95034ZM7.4186496185302735,15.6783Q6.399999618530273,13.1316,6.399999618530273,9.5Q6.399998618530273,5.86836,7.4186496185302735,3.32173Q8.347339618530274,1,9.499999618530273,1Q10.652659618530272,1,11.581349618530274,3.32173Q12.599999618530273,5.86836,12.599999618530273,9.5Q12.599999618530273,13.1316,11.581349618530274,15.6783Q10.652659618530272,18,9.499999618530273,18Q8.347339618530274,18,7.4186496185302735,15.6783Z" fill-rule="evenodd" fill="#F6FEFD" fill-opacity="1"/></g><g><path d="M2.7825055226287843,3.6168341069488523Q2.712179522628784,3.5465081069488527,2.674119522628784,3.4546221069488525Q2.636059522628784,3.3627371069488525,2.636059522628784,3.2632811069488525Q2.636059522628784,3.2140354069488524,2.645666522628784,3.1657360069488525Q2.655274522628784,3.1174361069488525,2.674119522628784,3.0719391069488524Q2.6929655226287843,3.0264421069488527,2.720324522628784,2.9854961069488524Q2.7476845226287843,2.9445501069488524,2.7825065226287844,2.9097281069488528Q2.817328522628784,2.8749061069488526,2.858274522628784,2.8475461069488524Q2.8992205226287844,2.8201871069488527,2.944717522628784,2.8013411069488523Q2.990214522628784,2.7824961069488525,3.038514422628784,2.7728881069488525Q3.086813822628784,2.7632811069488525,3.136059522628784,2.7632811069488525Q3.235515822628784,2.7632811069488525,3.3274015226287843,2.8013411069488523Q3.419287522628784,2.8394021069488526,3.489613522628784,2.9097281069488528Q4.666289522628784,4.086412106948853,6.191589522628784,4.731561106948853Q7.770369522628784,5.3993311069488525,9.499999522628784,5.3993311069488525Q11.229669522628784,5.399341106948853,12.808449522628784,4.731561106948853Q14.333759522628784,4.086414106948853,15.510459522628784,2.9097281069488528Q15.580759522628783,2.8394011069488525,15.672659522628784,2.8013411069488523Q15.764559522628785,2.7632811069488525,15.863959522628784,2.7632811069488525Q15.913259522628785,2.7632811069488525,15.961559522628784,2.7728881069488525Q16.009859522628783,2.7824961069488525,16.055359522628784,2.8013411069488523Q16.100859522628785,2.8201871069488527,16.14175952262878,2.8475461069488524Q16.182759522628785,2.8749061069488526,16.217559522628783,2.9097281069488528Q16.252359522628787,2.9445501069488524,16.279759522628787,2.9854961069488524Q16.307059522628784,3.0264421069488527,16.325959522628786,3.0719391069488524Q16.344759522628785,3.1174361069488525,16.354359522628783,3.1657360069488525Q16.363959522628782,3.2140354069488524,16.363959522628782,3.2632811069488525Q16.363959522628782,3.3627372069488524,16.325959522628786,3.4546231069488527Q16.287859522628786,3.5465081069488527,16.217559522628783,3.6168341069488523Q14.902959522628784,4.931441106948853,13.197959522628784,5.6525711069488525Q11.432449522628785,6.399341106948853,9.499999522628784,6.3993311069488525Q7.567579522628784,6.399341106948853,5.8020395226287835,5.6525711069488525Q4.097103522628784,4.931431106948852,2.7825055226287843,3.6168341069488523Z" fill-rule="evenodd" fill="#F6FEFD" fill-opacity="1"/></g><g><path d="M2.782698522628784,15.382309427795409L2.7825055226287843,15.38249942779541Q2.712179522628784,15.452829427795411,2.674119522628784,15.54470942779541Q2.636059522628784,15.63659942779541,2.636059522628784,15.736049427795411Q2.636059522628784,15.78529942779541,2.645666522628784,15.83359942779541Q2.655274522628784,15.88189942779541,2.674119522628784,15.927399427795411Q2.6929655226287843,15.97288942779541,2.720324522628784,16.01383942779541Q2.7476845226287843,16.05478942779541,2.7825065226287844,16.08960942779541Q2.817328522628784,16.12442942779541,2.858274522628784,16.15178942779541Q2.8992205226287844,16.17914942779541,2.944717522628784,16.19798942779541Q2.990214522628784,16.21683942779541,3.038514422628784,16.22644942779541Q3.086813822628784,16.23604942779541,3.136059522628784,16.23604942779541Q3.2355159226287844,16.23604942779541,3.3274015226287843,16.19798942779541Q3.419287522628784,16.15992942779541,3.489613522628784,16.08960942779541L3.4897955226287842,16.08941942779541Q4.6664095226287845,14.91286942779541,6.191589522628784,14.267769427795411Q7.770369522628784,13.59999942779541,9.499999522628784,13.59999942779541Q11.229669522628784,13.59999942779541,12.808449522628784,14.267769427795411Q14.333759522628784,14.91291942779541,15.510459522628784,16.08960942779541Q15.580759522628783,16.15992942779541,15.672659522628784,16.19798942779541Q15.764559522628785,16.23604942779541,15.863959522628784,16.23604942779541Q15.913259522628785,16.23604942779541,15.961559522628784,16.22644942779541Q16.009859522628783,16.21683942779541,16.055359522628784,16.19798942779541Q16.100859522628785,16.17914942779541,16.14175952262878,16.15178942779541Q16.182759522628785,16.12442942779541,16.217559522628783,16.08960942779541Q16.252359522628787,16.05478942779541,16.279759522628787,16.01383942779541Q16.307059522628784,15.97288942779541,16.325959522628786,15.927399427795411Q16.344759522628785,15.88189942779541,16.354359522628783,15.83359942779541Q16.363959522628782,15.78529942779541,16.363959522628782,15.736049427795411Q16.363959522628782,15.63659942779541,16.325959522628786,15.54470942779541Q16.287859522628786,15.452829427795411,16.217559522628783,15.38249942779541Q14.902959522628784,14.06789742779541,13.197959522628784,13.34676742779541Q11.432449522628785,12.59999942779541,9.499999522628784,12.59999942779541Q7.567579522628784,12.59999942779541,5.8020395226287835,13.34676842779541Q4.097226522628784,14.06784842779541,2.782698522628784,15.382309427795409Z" fill-rule="evenodd" fill="#F6FEFD" fill-opacity="1"/></g></g></svg>