<svg xmlns="http://www.w3.org/2000/svg" xmlns:xlink="http://www.w3.org/1999/xlink" fill="none" version="1.1" width="20" height="20" viewBox="0 0 20 20"><defs><mask id="master_svg0_4177_45766" style="mask-type:alpha" maskUnits="objectBoundingBox"><g><rect x="0" y="0" width="19.999998092651367" height="20" rx="0" fill="#FFFFFF" fill-opacity="1"/></g></mask></defs><g mask="url(#master_svg0_4177_45766)"><g><g><path d="M6.3944,8.832208752120971Q6.47292,8.761118752120971,6.51587,8.664293752120972Q6.55882,8.567468752120972,6.55882,8.461544752120972Q6.55882,8.412299052120972,6.54922,8.363999652120972Q6.53961,8.315699752120972,6.52076,8.270202752120971Q6.50192,8.224705752120972,6.47456,8.183759752120972Q6.4472000000000005,8.142813752120972,6.412380000000001,8.107991752120972Q6.377549999999999,8.073169752120972,6.33661,8.045809752120972Q6.29566,8.018450752120971,6.25017,7.999604752120971Q6.20467,7.980759752120972,6.15637,7.971151752120972Q6.10807,7.961544752120972,6.05882,7.961544752120972Q5.9658,7.961544752120972,5.87901,7.994997752120971Q5.79221,8.028450752120971,5.72325,8.090880752120972L5.7231000000000005,8.091016752120971L2.664429,10.860104752120971Q2.64601,10.876784752120972,2.629336,10.895204752120971Q2.562587,10.968934752120973,2.529133,11.062594752120972Q2.49568,11.156254752120972,2.500616,11.25558475212097Q2.505552,11.354924752120972,2.548126,11.444804752120971Q2.590699,11.534684752120972,2.664429,11.601434752120971L5.7229399999999995,14.370384752120971L5.72325,14.370664752120971Q5.79221,14.433094752120972,5.87901,14.46654475212097Q5.9658,14.500004752120972,6.05882,14.500004752120972Q6.10807,14.500004752120972,6.15637,14.490394752120972Q6.20467,14.480784752120972,6.25017,14.461934752120971Q6.29566,14.443094752120972,6.33661,14.415734752120972Q6.377549999999999,14.38837475212097,6.412380000000001,14.35355475212097Q6.4472000000000005,14.318734752120971,6.47456,14.277784752120972Q6.50192,14.236834752120972,6.52076,14.191344752120973Q6.53961,14.145844752120972,6.54922,14.097544752120971Q6.55882,14.049244752120972,6.55882,14.000004752120972Q6.55882,13.894074752120972,6.51587,13.79725475212097Q6.47292,13.700424752120972,6.3944,13.629334752120972L6.394080000000001,13.629054752120972L3.744998,11.230774752120972L6.3944,8.832208752120971L6.3944,8.832208752120971Z" fill-rule="evenodd" fill="#F6FEFD" fill-opacity="1"/></g><g><path d="M16.5,5.000976562L16.5,11.23076Q16.5,11.28001,16.4904,11.32831Q16.480800000000002,11.37661,16.4619,11.4221Q16.4431,11.467600000000001,16.4157,11.50855Q16.3884,11.549489999999999,16.3536,11.58432Q16.3187,11.61914,16.2778,11.6465Q16.236800000000002,11.673860000000001,16.1913,11.6927Q16.1458,11.711549999999999,16.0975,11.72115Q16.0492,11.73076,16,11.73076L3,11.73076Q2.9507543,11.73076,2.9024549,11.721160000000001Q2.854155,11.711549999999999,2.808658,11.6927Q2.763161,11.673860000000001,2.722215,11.6465Q2.681269,11.61914,2.646447,11.58432Q2.611625,11.549489999999999,2.584265,11.50855Q2.556906,11.467600000000001,2.5380599999999998,11.4221Q2.519215,11.37661,2.509607,11.32831Q2.5,11.28001,2.5,11.23076Q2.5,11.181519999999999,2.509607,11.13322Q2.519215,11.08492,2.5380599999999998,11.03942Q2.556906,10.99392,2.584265,10.95298Q2.611625,10.91203,2.646447,10.87721Q2.681269,10.84239,2.722215,10.81503Q2.763161,10.78767,2.808658,10.76882Q2.854155,10.74998,2.9024549,10.74037Q2.9507543,10.73076,3,10.73076L15.5,10.73076L15.5,5Q15.5,4.9507543,15.5096,4.9024549Q15.5192,4.854155,15.5381,4.808658Q15.5569,4.763161,15.5843,4.722215Q15.6116,4.681269,15.6464,4.646447Q15.6813,4.611625,15.7222,4.584265Q15.7632,4.556906,15.8087,4.53806Q15.8542,4.519215,15.9025,4.509607Q15.9508,4.5,16,4.5Q16.0492,4.5,16.0975,4.509607Q16.1458,4.519215,16.1913,4.53806Q16.236800000000002,4.556906,16.2778,4.584265Q16.3187,4.611625,16.3536,4.646447Q16.3884,4.681269,16.4157,4.722215Q16.4431,4.763161,16.4619,4.808658Q16.480800000000002,4.854155,16.4904,4.9024549Q16.5,4.9507543,16.5,5L16.5,5.000976562Z" fill-rule="evenodd" fill="#F6FEFD" fill-opacity="1"/></g></g></g></svg>