<svg xmlns="http://www.w3.org/2000/svg" xmlns:xlink="http://www.w3.org/1999/xlink" fill="none" version="1.1" width="20" height="20" viewBox="0 0 20 20"><defs><mask id="master_svg0_3875_80716" style="mask-type:alpha" maskUnits="userSpaceOnUse"><g><rect x="0" y="0" width="19.999998092651367" height="20" rx="0" fill="#FFFFFF" fill-opacity="1"/></g></mask></defs><g mask="url(#master_svg0_3875_80716)"><g><g><path d="M6.56218,9.017540752120972Q6.67997,8.910905752120971,6.744400000000001,8.765667752120972Q6.80882,8.620430752120972,6.80882,8.461544752120972Q6.80882,8.387676252120972,6.79441,8.31522675212097Q6.779999999999999,8.242777752120972,6.75173,8.174531752120972Q6.72346,8.106286752120972,6.68243,8.044866752120972Q6.6413899999999995,7.983447752120972,6.58915,7.9312147521209715Q6.53692,7.878981752120971,6.4755,7.837942752120972Q6.41408,7.796903752120972,6.34584,7.768634752120971Q6.27759,7.740366752120972,6.20514,7.725955752120972Q6.13269,7.711544752120972,6.05882,7.711544752120972Q5.91929,7.711544752120972,5.7890999999999995,7.761724752120972Q5.6589,7.811903752120972,5.55547,7.905548752120971L2.4966429999999997,10.674774752120971Q2.469016,10.699784752120971,2.444004,10.727414752120971Q2.34388,10.838014752120971,2.2937,10.978504752120973Q2.24352,11.118994752120972,2.250924,11.267994752120972Q2.258328,11.41699475212097,2.322188,11.551824752120972Q2.386049,11.686644752120971,2.4966429999999997,11.786764752120972L5.55537,14.555904752120972L5.55547,14.555994752120972Q5.6589,14.649644752120972,5.7890999999999995,14.699824752120971Q5.91929,14.750004752120972,6.05882,14.750004752120972Q6.13269,14.750004752120972,6.20514,14.735584752120971Q6.27759,14.721174752120971,6.34584,14.69290475212097Q6.41408,14.66464475212097,6.4755,14.623604752120972Q6.53692,14.582564752120971,6.58915,14.530334752120972Q6.6413899999999995,14.47809475212097,6.68243,14.416674752120972Q6.72346,14.35525475212097,6.75173,14.287014752120971Q6.779999999999999,14.218764752120972,6.79441,14.146314752120972Q6.80882,14.073864752120972,6.80882,14.000004752120972Q6.80882,13.841114752120973,6.744400000000001,13.695874752120972Q6.67997,13.55063475212097,6.56218,13.444004752120971L6.56208,13.443914752120971L4.1175,11.230774752120972L6.56218,9.017540752120972L6.56218,9.017540752120972Z" fill-rule="evenodd" fill="#C0C4CC" fill-opacity="1"/></g><g><path d="M15.25,5Q15.25,4.9261315,15.2644,4.853682Q15.2788,4.781233,15.3071,4.712987Q15.3354,4.644742,15.3764,4.583322Q15.4174,4.521903,15.4697,4.46967Q15.5219,4.417437,15.5833,4.376398Q15.6447,4.335359,15.713,4.30709Q15.7812,4.278822,15.8537,4.264411Q15.9261,4.25,16,4.25Q16.073900000000002,4.25,16.1463,4.264411Q16.2188,4.278822,16.287,4.30709Q16.3553,4.335359,16.4167,4.376398Q16.478099999999998,4.417437,16.5303,4.46967Q16.5826,4.521903,16.6236,4.583322Q16.6646,4.644742,16.6929,4.712987Q16.7212,4.781233,16.735599999999998,4.853682Q16.75,4.9261315,16.75,5L16.75,11.23076Q16.75,11.30463,16.735599999999998,11.37708Q16.7212,11.44953,16.6929,11.517769999999999Q16.6646,11.586020000000001,16.6236,11.64744Q16.5826,11.70886,16.5303,11.76109Q16.478099999999998,11.813320000000001,16.4167,11.85436Q16.3553,11.8954,16.287,11.923670000000001Q16.2188,11.95194,16.1463,11.96635Q16.073900000000002,11.98076,16,11.98076L3,11.98076Q2.9261315,11.98076,2.853682,11.96635Q2.781233,11.95194,2.712987,11.923670000000001Q2.644742,11.8954,2.583322,11.85436Q2.521903,11.813320000000001,2.46967,11.76109Q2.417437,11.70886,2.376398,11.64744Q2.335359,11.586020000000001,2.30709,11.517769999999999Q2.278822,11.44953,2.264411,11.37708Q2.25,11.30463,2.25,11.23076Q2.25,11.15689,2.264411,11.08444Q2.278822,11.012,2.30709,10.94375Q2.335359,10.875499999999999,2.376398,10.81408Q2.417437,10.75267,2.46967,10.70043Q2.521903,10.6482,2.583322,10.60716Q2.644742,10.56612,2.712987,10.537849999999999Q2.781233,10.50958,2.853682,10.49517Q2.9261315,10.48076,3,10.48076L15.25,10.48076L15.25,5Z" fill-rule="evenodd" fill="#C0C4CC" fill-opacity="1"/></g></g></g></svg>