<svg xmlns="http://www.w3.org/2000/svg" xmlns:xlink="http://www.w3.org/1999/xlink" fill="none" version="1.1" width="24" height="24" viewBox="0 0 24 24"><defs><clipPath id="master_svg0_4164_76822"><rect x="0" y="0" width="24" height="24" rx="0"/></clipPath></defs><g clip-path="url(#master_svg0_4164_76822)"><g><path d="M4.57538,4.57538Q1.4999989999999999,7.65076,1.5,12Q1.5,16.3492,4.57538,19.4246Q7.65075,22.5,12,22.5Q16.3492,22.5,19.4246,19.4246Q22.5,16.3492,22.5,12Q22.5,7.65075,19.4246,4.57538Q16.3492,1.4999989999999999,12,1.5Q7.65076,1.5,4.57538,4.57538ZM5.28249,18.7175Q2.5,15.935,2.5,12Q2.499997,8.064969999999999,5.28249,5.28249Q8.064969999999999,2.5,12,2.5Q15.935,2.5,18.7175,5.28248Q21.5,8.06496,21.5,12Q21.5,15.935,18.7175,18.7175Q15.935,21.5,12,21.5Q8.064969999999999,21.5,5.28249,18.7175Z" fill-rule="evenodd" fill="#ED7088" fill-opacity="1" style="mix-blend-mode:passthrough"/></g><g><path d="M15.182030859375,9.525428Q15.252360859374999,9.455102,15.290420859375,9.363217Q15.328480859375,9.2713312,15.328480859375,9.171875Q15.328480859375,9.1226293,15.318870859375,9.0743299Q15.309260859375,9.02603,15.290420859375,8.980533Q15.271570859375,8.935036,15.244210859375,8.89409Q15.216860859375,8.853144,15.182030859375,8.818322Q15.147210859375,8.7835,15.106260859375,8.75614Q15.065320859375,8.728781,15.019820859374999,8.709935Q14.974320859375,8.691089999999999,14.926020859375,8.681482Q14.877730859375,8.671875,14.828480859375,8.671875Q14.729020859375,8.671875,14.637140859375,8.709935Q14.545250859374999,8.747996,14.474930859375,8.818322L8.818077859375,14.475175Q8.747750859375,14.545494999999999,8.709690859375,14.637385Q8.671630859375,14.729265,8.671630859375,14.828725Q8.671630859375,14.877975,8.681237859375,14.926265Q8.690845859374999,14.974565,8.709690859375,15.020064999999999Q8.728536859375,15.065565,8.755895859375,15.106505Q8.783255859375,15.147455,8.818077859375,15.182275Q8.852899859375,15.217105,8.893845859375,15.244455Q8.934791859375,15.271815,8.980288859375,15.290665Q9.025785859375,15.309505,9.074085759375,15.319115Q9.122385159375,15.328725,9.171630859375,15.328725Q9.271087059375,15.328725,9.362972859375,15.290665Q9.454857859375,15.252604999999999,9.525183859375,15.182275L9.525397859375,15.182065L15.181820859375,9.525642L15.182030859375,9.525428L15.182030859375,9.525428Z" fill-rule="evenodd" fill="#ED7088" fill-opacity="1" style="mix-blend-mode:passthrough"/></g><g><path d="M9.525302859375,8.81844L15.181780859375,14.474915L15.182030859375,14.475175Q15.252360859374999,14.545494999999999,15.290420859375,14.637385Q15.328480859375,14.729265,15.328480859375,14.828725Q15.328480859375,14.877975,15.318870859375,14.926265Q15.309260859375,14.974565,15.290420859375,15.020064999999999Q15.271570859375,15.065565,15.244210859375,15.106505Q15.216860859375,15.147455,15.182030859375,15.182275Q15.147210859375,15.217105,15.106270859375,15.244455Q15.065320859375,15.271815,15.019820859374999,15.290665Q14.974320859375,15.309505,14.926030859375,15.319115Q14.877730859375,15.328725,14.828480859375,15.328725Q14.729020859375,15.328725,14.637140859375,15.290665Q14.545250859374999,15.252604999999999,14.474930859375,15.182275L8.818195859375,9.525547L8.818077859375,9.525428Q8.747750859375,9.455102,8.709690859375,9.363217Q8.671630859375,9.2713312,8.671630859375,9.171875Q8.671630859375,9.1226293,8.681237859375,9.0743299Q8.690845859374999,9.02603,8.709690859375,8.980533Q8.728536859375,8.935036,8.755895859375,8.89409Q8.783255859375,8.853144,8.818077859375,8.818322Q8.852899859375,8.7835,8.893845859375,8.75614Q8.934791859375,8.728781,8.980288859375,8.709935Q9.025785859375,8.691089999999999,9.074085759375,8.681482Q9.122385159375,8.671875,9.171630859375,8.671875Q9.271087059375,8.671875,9.362972859375,8.709935Q9.454857859375,8.747995,9.525183859375,8.818322L9.525302859375,8.81844Z" fill-rule="evenodd" fill="#ED7088" fill-opacity="1" style="mix-blend-mode:passthrough"/></g></g></svg>