<svg xmlns="http://www.w3.org/2000/svg" xmlns:xlink="http://www.w3.org/1999/xlink" fill="none" version="1.1" width="20" height="20" viewBox="0 0 20 20"><defs><clipPath id="master_svg0_sa200_4339"><rect x="0" y="0" width="20" height="20" rx="0"/></clipPath></defs><g clip-path="url(#master_svg0_sa200_4339)"><g><path d="M3.25,16.7500440234375L3.25,10.8333740234375Q3.25,10.7595055234375,3.235589,10.6870560234375Q3.221178,10.6146070234375,3.19291,10.5463610234375Q3.164641,10.4781160234375,3.123602,10.4166960234375Q3.082563,10.3552770234375,3.03033,10.3030440234375Q2.978097,10.2508110234375,2.916678,10.2097720234375Q2.855258,10.1687330234375,2.787013,10.1404640234375Q2.718767,10.1121960234375,2.646318,10.097785023437499Q2.5738685,10.0833740234375,2.5,10.0833740234375Q2.4261315,10.0833740234375,2.353682,10.097785023437499Q2.281233,10.1121960234375,2.212987,10.1404640234375Q2.144742,10.1687330234375,2.083322,10.2097720234375Q2.021903,10.2508110234375,1.96967,10.3030440234375Q1.917437,10.3552770234375,1.876398,10.4166960234375Q1.835359,10.4781160234375,1.80709,10.5463610234375Q1.778822,10.6146070234375,1.764411,10.6870560234375Q1.75,10.7595055234375,1.75,10.8333740234375L1.75,17.5000440234375Q1.75,17.5739040234375,1.764411,17.6463540234375Q1.778822,17.7188040234375,1.80709,17.7870540234375Q1.835359,17.8552940234375,1.876398,17.9167140234375Q1.917437,17.978134023437498,1.96967,18.0303740234375Q2.021903,18.0826040234375,2.083322,18.1236440234375Q2.144742,18.164684023437502,2.212987,18.192944023437498Q2.281233,18.2212140234375,2.353682,18.235624023437502Q2.4261315,18.2500440234375,2.5,18.2500440234375L9.16667,18.2500440234375Q9.24053,18.2500440234375,9.31298,18.235624023437502Q9.38543,18.2212140234375,9.45368,18.192944023437498Q9.52192,18.164684023437502,9.58334,18.1236440234375Q9.64476,18.0826040234375,9.697,18.0303740234375Q9.74923,17.978134023437498,9.79027,17.9167140234375Q9.83131,17.8552940234375,9.85957,17.7870540234375Q9.88784,17.7188040234375,9.90225,17.6463540234375Q9.91667,17.5739040234375,9.91667,17.5000440234375Q9.91667,17.4261740234375,9.90225,17.3537240234375Q9.88784,17.2812740234375,9.859580000000001,17.213024023437498Q9.83131,17.144784023437502,9.79027,17.0833640234375Q9.74923,17.0219440234375,9.697,16.9697040234375Q9.64476,16.9174740234375,9.58334,16.8764340234375Q9.52192,16.8353940234375,9.45368,16.8071340234375Q9.38543,16.7788640234375,9.31298,16.7644540234375Q9.24053,16.7500440234375,9.16667,16.7500440234375L3.25,16.7500440234375Z" fill-rule="evenodd" fill="#99A0AF" fill-opacity="1"/></g><g><path d="M16.7496778125,3.25L16.7496778125,9.16667Q16.7496778125,9.24053,16.7640878125,9.31298Q16.7784978125,9.38543,16.8067678125,9.45368Q16.8350278125,9.52192,16.8760678125,9.58334Q16.9171078125,9.64476,16.9693378125,9.697Q17.0215778125,9.74923,17.0829978125,9.79027Q17.144417812500002,9.83131,17.212657812499998,9.85957Q17.2809078125,9.88784,17.3533578125,9.90225Q17.4258078125,9.91667,17.4996778125,9.91667Q17.5735378125,9.91667,17.6459878125,9.90225Q17.7184378125,9.88784,17.7866878125,9.859580000000001Q17.8549278125,9.83131,17.9163478125,9.79027Q17.977767812499998,9.74923,18.0300078125,9.697Q18.0822378125,9.64476,18.1232778125,9.58334Q18.164317812500002,9.52192,18.192577812499998,9.45368Q18.2208478125,9.38543,18.235257812500002,9.31298Q18.2496778125,9.24053,18.2496778125,9.16667L18.2496778125,2.5Q18.2496778125,2.4261315,18.235257812500002,2.353682Q18.2208478125,2.281233,18.192577812499998,2.212987Q18.164317812500002,2.144742,18.1232778125,2.083322Q18.0822378125,2.021903,18.0300078125,1.96967Q17.977767812499998,1.917437,17.9163478125,1.876398Q17.8549278125,1.835359,17.7866878125,1.80709Q17.7184378125,1.778822,17.6459878125,1.764411Q17.5735378125,1.75,17.4996778125,1.75L10.8330078125,1.75Q10.7591393125,1.75,10.6866898125,1.764411Q10.6142408125,1.778822,10.5459948125,1.80709Q10.4777498125,1.835359,10.4163298125,1.876398Q10.3549108125,1.917437,10.3026778125,1.96967Q10.2504448125,2.021903,10.2094058125,2.083322Q10.1683668125,2.144742,10.1400978125,2.212987Q10.1118298125,2.281233,10.097418812499999,2.353682Q10.0830078125,2.4261315,10.0830078125,2.5Q10.0830078125,2.5738685,10.097418812499999,2.646318Q10.1118298125,2.718767,10.1400978125,2.787013Q10.1683668125,2.855258,10.2094058125,2.916678Q10.2504448125,2.978097,10.3026778125,3.03033Q10.3549108125,3.082563,10.4163298125,3.123602Q10.4777498125,3.164641,10.5459948125,3.19291Q10.6142408125,3.221178,10.6866898125,3.235589Q10.7591393125,3.25,10.8330078125,3.25L16.7496778125,3.25Z" fill-rule="evenodd" fill="#99A0AF" fill-opacity="1"/></g></g></svg>