<svg xmlns="http://www.w3.org/2000/svg" xmlns:xlink="http://www.w3.org/1999/xlink" fill="none" version="1.1" width="20" height="20" viewBox="0 0 20 20"><defs><clipPath id="master_svg0_728_08795"><rect x="0" y="0" width="20" height="20" rx="0"/></clipPath></defs><g clip-path="url(#master_svg0_728_08795)"><g><path d="M17.9878,3.180302Q17.8859,3.093036,17.759999999999998,3.046518Q17.6342,3,17.5,3L2.5,3Q2.4261315,3,2.353682,3.014411Q2.281233,3.028822,2.212987,3.05709Q2.144742,3.085359,2.083322,3.126398Q2.021903,3.167437,1.96967,3.21967Q1.917437,3.271903,1.876398,3.333322Q1.835359,3.394742,1.80709,3.462987Q1.778822,3.531233,1.764411,3.603682Q1.75,3.6761315,1.75,3.75Q1.75,3.884174,1.7965179999999998,4.010026Q1.8430360000000001,4.135877,1.930302,4.237796L7.75,11.03464L7.75,16.0185Q7.75,16.1234,7.7788,16.2243Q7.8076,16.325200000000002,7.86299,16.4144Q7.91838,16.503500000000003,7.9961,16.573999999999998Q8.073820000000001,16.6445,8.16791,16.691000000000003L11.16791,18.1725Q11.23414,18.205199999999998,11.30548,18.2243Q11.37682,18.243499999999997,11.45053,18.2484Q11.52424,18.2532,11.59748,18.2436Q11.67072,18.234,11.74069,18.2103Q11.81065,18.1866,11.87464,18.1497Q11.93863,18.1128,11.9942,18.0642Q12.04976,18.0155,12.09476,17.956899999999997Q12.13976,17.8983,12.17247,17.8321Q12.25,17.6751,12.25,17.5L12.25,11.03464L18.069699999999997,4.237796Q18.1177,4.181685,18.1539,4.11728Q18.1901,4.052875,18.213,3.98265Q18.2359,3.912426,18.2447,3.8390801Q18.253500000000003,3.7657344,18.247799999999998,3.6920864Q18.2421,3.618438,18.222099999999998,3.547318Q18.2021,3.476198,18.1687,3.410339Q18.135199999999998,3.34448,18.0896,3.286413Q18.0439,3.228346,17.9878,3.180302ZM15.8705,4.5L4.12954,4.5L9.069700000000001,10.26962Q9.15696,10.37154,9.203479999999999,10.49739Q9.25,10.62324,9.25,10.75742L9.25,15.5524L10.75,16.2932L10.75,10.75742Q10.75,10.62324,10.79652,10.49739Q10.84304,10.37154,10.9303,10.26962L15.8705,4.5Z" fill-rule="evenodd" fill="#333333" fill-opacity="1"/></g></g></svg>