<svg xmlns="http://www.w3.org/2000/svg" xmlns:xlink="http://www.w3.org/1999/xlink" fill="none" version="1.1" width="20" height="20" viewBox="0 0 20 20"><defs><clipPath id="master_svg0_sa4143_51235"><rect x="0" y="0" width="20" height="20" rx="0"/></clipPath></defs><g clip-path="url(#master_svg0_sa4143_51235)"><g><path d="M5.167236328125,4Q5.167236328125,3.9507543,5.176843328125,3.9024549Q5.186451328125,3.854155,5.205296328125,3.808658Q5.224142328125,3.763161,5.251501328125,3.722215Q5.278861328125,3.681269,5.313683328125,3.646447Q5.348505328125,3.611625,5.389451328125,3.584265Q5.430397328125,3.556906,5.475894328125,3.5380599999999998Q5.521391328125,3.519215,5.569691228125,3.509607Q5.617990628125,3.5,5.667236328125,3.5Q5.716482028125,3.5,5.764781428125,3.509607Q5.813081328125,3.519215,5.858578328125,3.5380599999999998Q5.904075328125,3.556906,5.945021328125,3.584265Q5.985967328125,3.611625,6.020789328125,3.646447Q6.055611328125,3.681269,6.082971328125,3.722215Q6.110330328125,3.763161,6.129176328125,3.808658Q6.148021328125,3.854155,6.157629328125,3.9024549Q6.167236328125,3.9507543,6.167236328125,4L6.167236328125,16Q6.167236328125,16.0492,6.157629328125,16.0975Q6.148021328125,16.1458,6.129176328125,16.1913Q6.110330328125,16.236800000000002,6.082971328125,16.2778Q6.055611328125,16.3187,6.020789328125,16.3536Q5.985967328125,16.3884,5.945021328125,16.4157Q5.904075328125,16.4431,5.858578328125,16.4619Q5.813081328125,16.480800000000002,5.764781428125,16.4904Q5.716482028125,16.5,5.667236328125,16.5Q5.617990628125,16.5,5.569691228125,16.4904Q5.521391328125,16.480800000000002,5.475894328125,16.4619Q5.430397328125,16.4431,5.389451328125,16.4157Q5.348505328125,16.3884,5.313683328125,16.3536Q5.278861328125,16.3187,5.251501328125,16.2778Q5.224142328125,16.236800000000002,5.205296328125,16.1913Q5.186451328125,16.1458,5.176843328125,16.0975Q5.167236328125,16.0492,5.167236328125,16L5.167236328125,4Z" fill-rule="evenodd" fill="#949E9C" fill-opacity="1"/></g><g><path d="M5.167236328125,5L5.167236328125,12Q5.167236328125,12.04925,5.176843328125,12.09754Q5.186451328125,12.14584,5.205296328125,12.19134Q5.224142328125,12.23684,5.251501328125,12.27778Q5.278861328125,12.31873,5.313683328125,12.35355Q5.348505328125,12.38837,5.389451328125,12.41573Q5.430397328125,12.44309,5.475894328125,12.46194Q5.521391328125,12.48078,5.569691228125,12.49039Q5.617990628125,12.5,5.667236328125,12.5L10.231276328125,12.5L12.470276328125,13.45957Q12.564606328124999,13.5,12.667236328125,13.5L15.000566328125,13.5Q15.483826328125,13.5,15.825536328125,13.1583Q16.167236328125,12.81659,16.167236328125,12.33333L16.167236328125,6.66667Q16.167236328125,6.18341,15.825536328125,5.841705Q15.483826328125,5.5,15.000566328125,5.5L12.769866328125001,5.5L10.530866328125,4.540427Q10.436526328125,4.5,10.333906328125,4.5L5.667236328125,4.5Q5.617990628125,4.5,5.569691228125,4.509607Q5.521391328125,4.519215,5.475894328125,4.53806Q5.430397328125,4.556906,5.389451328125,4.584265Q5.348505328125,4.611625,5.313683328125,4.646447Q5.278861328125,4.681269,5.251501328125,4.722215Q5.224142328125,4.763161,5.205296328125,4.808658Q5.186451328125,4.854155,5.176843328125,4.9024549Q5.167236328125,4.9507543,5.167236328125,5ZM6.167236328125,11.5L10.333906328125,11.5Q10.436526328125,11.5,10.530866328125,11.54043L12.769866328125001,12.5L15.000566328125,12.5Q15.167236328125,12.5,15.167236328125,12.33333L15.167236328125,6.66667Q15.167236328125,6.5,15.000566328125,6.5L12.667236328125,6.5Q12.564606328124999,6.5,12.470276328125,6.45957L10.231276328125,5.5L6.167236328125,5.5L6.167236328125,11.5Z" fill-rule="evenodd" fill="#949E9C" fill-opacity="1"/></g><g><path d="M4.332763671875,15.5L6.999433671875,15.5Q7.048673671875,15.5,7.096973671875,15.509607Q7.145273671875,15.519214999999999,7.190773671875,15.53806Q7.236273671875,15.556906,7.277213671875,15.584265Q7.318163671875,15.611625,7.352983671875,15.646447Q7.387803671875,15.681269,7.415163671875,15.722215Q7.442523671875,15.763161,7.461373671875,15.808658Q7.480213671875,15.854155,7.4898236718749995,15.9024549Q7.499433671875,15.9507543,7.499433671875,16Q7.499433671875,16.0492457,7.4898236718749995,16.0975451Q7.480213671875,16.145845,7.461373671875,16.191342Q7.442523671875,16.236839,7.415163671875,16.277785Q7.387803671875,16.318731,7.352983671875,16.353553Q7.318163671875,16.388375,7.277213671875,16.415735Q7.236273671875,16.443094,7.190773671875,16.46194Q7.145273671875,16.480785,7.096973671875,16.490393Q7.048673671875,16.5,6.999433671875,16.5L4.332763671875,16.5Q4.283517971875,16.5,4.235218571875,16.490393Q4.186918671875,16.480785,4.141421671875,16.46194Q4.095924671875,16.443094,4.054978671875,16.415735Q4.014032671875,16.388375,3.979210671875,16.353553Q3.944388671875,16.318731,3.917028671875,16.277785Q3.889669671875,16.236839,3.8708236718749998,16.191342Q3.851978671875,16.145845,3.842370671875,16.0975451Q3.832763671875,16.0492457,3.832763671875,16Q3.832763671875,15.9507543,3.842370671875,15.9024549Q3.851978671875,15.854155,3.8708236718749998,15.808658Q3.889669671875,15.763161,3.917028671875,15.722215Q3.944388671875,15.681269,3.979210671875,15.646447Q4.014032671875,15.611625,4.054978671875,15.584265Q4.095924671875,15.556906,4.141421671875,15.53806Q4.186918671875,15.519214999999999,4.235218571875,15.509607Q4.283517971875,15.5,4.332763671875,15.5Z" fill-rule="evenodd" fill="#949E9C" fill-opacity="1"/></g></g></svg>