<svg xmlns="http://www.w3.org/2000/svg" xmlns:xlink="http://www.w3.org/1999/xlink" fill="none" version="1.1" width="20" height="20" viewBox="0 0 20 20"><defs><clipPath id="master_svg0_3853_35442"><rect x="0" y="0" width="20" height="20" rx="0"/></clipPath></defs><g clip-path="url(#master_svg0_3853_35442)"><g><path d="M3.833984375,2.5Q3.833984375,2.4261315,3.848395375,2.353682Q3.862806375,2.281233,3.891074375,2.212987Q3.919343375,2.144742,3.960382375,2.083322Q4.001421375,2.021903,4.053654375,1.96967Q4.105887375,1.917437,4.167306375,1.876398Q4.228726375,1.835359,4.296971375,1.80709Q4.365217375,1.778822,4.437666375,1.764411Q4.510115875,1.75,4.583984375,1.75Q4.657852875,1.75,4.730302375,1.764411Q4.802751375,1.778822,4.870997375,1.80709Q4.939242375,1.835359,5.000662375,1.876398Q5.062081375,1.917437,5.114314375,1.96967Q5.166547375,2.021903,5.207586375,2.083322Q5.248625375,2.144742,5.276894375,2.212987Q5.305162375,2.281233,5.319573375,2.353682Q5.333984375,2.4261315,5.333984375,2.5L5.333984375,17.5Q5.333984375,17.573900000000002,5.319573375,17.6463Q5.305162375,17.7188,5.276894375,17.787Q5.248625375,17.8553,5.207586375,17.9167Q5.166547375,17.978099999999998,5.114314375,18.0303Q5.062081375,18.0826,5.000662375,18.1236Q4.939242375,18.1646,4.870997375,18.1929Q4.802751375,18.2212,4.730302375,18.235599999999998Q4.657852875,18.25,4.583984375,18.25Q4.510115875,18.25,4.437666375,18.235599999999998Q4.365217375,18.2212,4.296971375,18.1929Q4.228726375,18.1646,4.167306375,18.1236Q4.105887375,18.0826,4.053654375,18.0303Q4.001421375,17.978099999999998,3.960382375,17.9167Q3.919343375,17.8553,3.891074375,17.787Q3.862806375,17.7188,3.848395375,17.6463Q3.833984375,17.573900000000002,3.833984375,17.5L3.833984375,2.5Z" fill-rule="evenodd" fill="#C0C4CC" fill-opacity="1"/></g><g><path d="M4.583984375,3.75L10.417314375,3.75L13.333984375,5L16.250684375,5C16.710884375,5,17.083984375,5.37308,17.083984375,5.83333L17.083984375,12.91667C17.083984375,13.37692,16.710884375,13.75,16.250684375,13.75L13.333984375,13.75L10.417314375,12.5L4.583984375,12.5L4.583984375,3.75Z" fill="#C0C4CC" fill-opacity="1"/><path d="M3.833984375,3.75L3.833984375,12.5Q3.833984375,12.57387,3.848395375,12.64632Q3.862806375,12.71877,3.891074375,12.78701Q3.919343375,12.85526,3.960382375,12.91668Q4.001421375,12.9781,4.053654375,13.03033Q4.105887375,13.08256,4.167306375,13.1236Q4.228726375,13.16464,4.296971375,13.19291Q4.365217375,13.22118,4.437666375,13.23559Q4.510115875,13.25,4.583984375,13.25L10.263374375,13.25L13.038544375,14.4394Q13.180044375,14.5,13.333984375,14.5L16.250684375,14.5Q16.906484374999998,14.5,17.370284375,14.0363Q17.833984375,13.57251,17.833984375,12.91667L17.833984375,5.83333Q17.833984375,5.17749,17.370284375,4.713743Q16.906484374999998,4.25,16.250684375,4.25L13.487924375,4.25L10.712754375,3.060641Q10.571264375,3,10.417314375,3L4.583984375,3Q4.510115875,3,4.437666375,3.014411Q4.365217375,3.028822,4.296971375,3.05709Q4.228726375,3.085359,4.167306375,3.126398Q4.105887375,3.167437,4.053654375,3.21967Q4.001421375,3.271903,3.960382375,3.333322Q3.919343375,3.394742,3.891074375,3.462987Q3.862806375,3.531233,3.848395375,3.603682Q3.833984375,3.6761315,3.833984375,3.75ZM5.333984375,11.75L10.417314375,11.75Q10.571264375,11.75,10.712754375,11.81064L13.487924375,13L16.250684375,13Q16.285184375,13,16.309584375,12.9756Q16.333984375,12.95119,16.333984375,12.91667L16.333984375,5.83333Q16.333984375,5.75,16.250684375,5.75L13.333984375,5.75Q13.180044375,5.75,13.038544375,5.68936L10.263374375,4.5L5.333984375,4.5L5.333984375,11.75Z" fill-rule="evenodd" fill="#C0C4CC" fill-opacity="1"/></g><g><path d="M2.916015625,16.75L6.249345625,16.75Q6.323215625,16.75,6.3956656249999995,16.764411Q6.468115624999999,16.778822,6.536365625,16.80709Q6.604605625,16.835359,6.666025625,16.876398000000002Q6.727445625,16.917437,6.779675624999999,16.96967Q6.831915625000001,17.021903000000002,6.872945625,17.083322Q6.9139856250000005,17.144742,6.942255625,17.212987Q6.970525625,17.281233,6.984935625,17.353682Q6.999345625,17.4261315,6.999345625,17.5Q6.999345625,17.5738685,6.984935625,17.646318Q6.970525625,17.718767,6.942255625,17.787013Q6.9139856250000005,17.855258,6.8729556249999995,17.916678Q6.831915625000001,17.978096999999998,6.779675624999999,18.03033Q6.727445625,18.082563,6.666025625,18.123601999999998Q6.604605625,18.164641,6.536365625,18.19291Q6.468115624999999,18.221178,6.3956656249999995,18.235589Q6.323215625,18.25,6.249345625,18.25L2.916015625,18.25Q2.842147125,18.25,2.769697625,18.235589Q2.697248625,18.221178,2.629002625,18.19291Q2.560757625,18.164641,2.499337625,18.123601999999998Q2.437918625,18.082563,2.385685625,18.03033Q2.333452625,17.978096999999998,2.292413625,17.916678Q2.251374625,17.855258,2.223105625,17.787013Q2.194837625,17.718767,2.180426625,17.646318Q2.166015625,17.5738685,2.166015625,17.5Q2.166015625,17.4261315,2.180426625,17.353682Q2.194837625,17.281233,2.223105625,17.212987Q2.251374625,17.144742,2.292413625,17.083322Q2.333452625,17.021903000000002,2.385685625,16.96967Q2.437918625,16.917437,2.499337625,16.876398000000002Q2.560757625,16.835359,2.629002625,16.80709Q2.697248625,16.778822,2.769697625,16.764411Q2.842147125,16.75,2.916015625,16.75Z" fill-rule="evenodd" fill="#C0C4CC" fill-opacity="1"/></g></g></svg>