<svg xmlns="http://www.w3.org/2000/svg" xmlns:xlink="http://www.w3.org/1999/xlink" fill="none" version="1.1" width="36" height="20" viewBox="0 0 36 20"><g><g></g><g><g><path d="M30,6Q30,6.19651,29.98074,6.39207Q29.96148,6.58763,29.92314,6.78036Q29.8848,6.97309,29.827759999999998,7.16114Q29.77072,7.34918,29.695520000000002,7.53073Q29.62032,7.71228,29.52768,7.88559Q29.43505,8.05889,29.325879999999998,8.22228Q29.2167,8.385670000000001,29.09204,8.537569999999999Q28.96738,8.68948,28.82843,8.82843Q28.68948,8.96738,28.53757,9.09204Q28.38567,9.2167,28.222279999999998,9.32588Q28.058889999999998,9.43505,27.88559,9.52768Q27.71228,9.62032,27.53073,9.69552Q27.34918,9.77072,27.16114,9.82776Q26.97309,9.8848,26.78036,9.92314Q26.58763,9.96148,26.39207,9.98074Q26.19651,10,26,10Q25.80349,10,25.60793,9.98074Q25.41237,9.96148,25.21964,9.92314Q25.02691,9.8848,24.83886,9.82776Q24.65082,9.77072,24.46927,9.69552Q24.28772,9.62032,24.11441,9.52768Q23.94111,9.43505,23.77772,9.32588Q23.61433,9.2167,23.46243,9.09204Q23.31052,8.96738,23.17157,8.82843Q23.03262,8.68948,22.907958,8.537569999999999Q22.783295,8.385670000000001,22.674121,8.22228Q22.564948,8.05889,22.472315,7.88559Q22.379682,7.71228,22.304482,7.53073Q22.229282,7.34918,22.172239,7.16114Q22.115196,6.97309,22.0768589,6.78036Q22.0385222,6.58763,22.0192611,6.39207Q22,6.19651,22,6Q22,5.80349,22.0192611,5.60793Q22.0385222,5.41237,22.0768589,5.21964Q22.115196,5.02691,22.172239,4.83886Q22.229282,4.6508199999999995,22.304482,4.46927Q22.379682,4.28772,22.472315,4.1144099999999995Q22.564948,3.94111,22.674121,3.77772Q22.783295,3.61433,22.907958,3.46243Q23.03262,3.31052,23.17157,3.17157Q23.31052,3.03262,23.46243,2.907958Q23.61433,2.783295,23.77772,2.674121Q23.94111,2.5649480000000002,24.11441,2.472315Q24.28772,2.379682,24.46927,2.304482Q24.65082,2.229282,24.83886,2.172239Q25.02691,2.115196,25.21964,2.0768589Q25.41237,2.0385222,25.60793,2.0192611Q25.80349,2,26,2Q26.19651,2,26.39207,2.0192611Q26.58763,2.0385222,26.78036,2.0768589Q26.97309,2.115196,27.16114,2.172239Q27.34918,2.229282,27.53073,2.304482Q27.71228,2.379682,27.88559,2.472315Q28.058889999999998,2.5649480000000002,28.222279999999998,2.674121Q28.38567,2.783295,28.53757,2.907958Q28.68948,3.03262,28.82843,3.17157Q28.96738,3.31052,29.09204,3.46243Q29.2167,3.61433,29.325879999999998,3.77772Q29.43505,3.94111,29.52768,4.1144099999999995Q29.62032,4.28772,29.695520000000002,4.46927Q29.77072,4.6508199999999995,29.827759999999998,4.83886Q29.8848,5.02691,29.92314,5.21964Q29.96148,5.41237,29.98074,5.60793Q30,5.80349,30,6Z" fill="#C0C4CC" fill-opacity="1"/></g><g><path d="M19,16.999986494140625L19,17.499986494140625L34,17.499986494140625L34,16.999986494140625C34,15.133156494140625,34,14.199736494140625,33.6367,13.486696494140626C33.317099999999996,12.859486494140626,32.8072,12.349531494140624,32.18,12.029948494140625C31.466900000000003,11.666656494140625,30.5335,11.666656494140625,28.66667,11.666656494140625L24.33333,11.666656494140625C22.4665,11.666656494140625,21.533079999999998,11.666656494140625,20.82004,12.029948494140625C20.19283,12.349531494140624,19.682887,12.859486494140626,19.363312,13.486696494140626C19,14.199736494140625,19,15.133156494140625,19,16.999986494140625Z" fill="#C0C4CC" fill-opacity="1"/></g><g><path d="M22.46447,9.53553Q21,8.071069999999999,21,6Q21,3.9539999999999997,22.42923,2.5Q22.44674,2.48219,22.46447,2.464466Q22.48735,2.441585,22.510379999999998,2.419059Q22.55468,2.375735,22.59952,2.333731C22.09499,2.113614,21.55046,2,21,2C18.79086,2,17,3.79086,17,6C17,8.20914,18.79086,10,21,10C21.55046,10,22.09499,9.886389999999999,22.59952,9.66627Q22.53136,9.60243,22.46447,9.53553Z" fill-rule="evenodd" fill="#E6E7EB" fill-opacity="1"/></g><g><path d="M17.2877121875,9.53553Q15.8232421875,8.071069999999999,15.8232421875,6Q15.8232421875,3.9539999999999997,17.2524721875,2.5Q17.2699821875,2.48219,17.2877121875,2.464466Q17.3105921875,2.441585,17.333622187499998,2.419059Q17.3779221875,2.375735,17.4227621875,2.333731C16.9182321875,2.113614,16.3737021875,2,15.8232421875,2C13.6141021875,2,11.8232421875,3.79086,11.8232421875,6C11.8232421875,8.20914,13.6141021875,10,15.8232421875,10C16.3737021875,10,16.9182321875,9.886389999999999,17.4227621875,9.66627Q17.3546021875,9.60243,17.2877121875,9.53553Z" fill-rule="evenodd" fill="#E6E7EB" fill-opacity="1"/></g><g><path d="M18,17.499986494140625L18,16.999986494140625Q18,15.325726494140625,18.04874,14.729236494140626Q18.13293,13.698776494140624,18.4723,13.032716494140626Q18.88597,12.220836494140626,19.55733,11.666656494140625L18.83333,11.666656494140625C16.9665,11.666656494140625,16.033079999999998,11.666656494140625,15.32004,12.029948494140625C14.69283,12.349531494140624,14.182887000000001,12.859486494140626,13.863312,13.486696494140626C13.5,14.199736494140625,13.5,15.133156494140625,13.5,16.999986494140625L13.5,17.499986494140625L18,17.499986494140625Z" fill-rule="evenodd" fill="#E6E7EB" fill-opacity="1"/></g><g><path d="M12.5,17.53334220703125L12.5,17.03334220703125Q12.5,15.35908220703125,12.548739999999999,14.76259220703125Q12.63293,13.732132207031249,12.9723,13.066072207031251Q13.38597,12.25419220703125,14.05733,11.70001220703125L13.33333,11.70001220703125C11.4665,11.70001220703125,10.53308,11.70001220703125,9.82004,12.06330420703125C9.19283,12.38288720703125,8.682887000000001,12.89284220703125,8.363312,13.52005220703125C8,14.23309220703125,8,15.16651220703125,8,17.03334220703125L8,17.53334220703125L12.5,17.53334220703125Z" fill-rule="evenodd" fill="#E6E7EB" fill-opacity="1"/></g><g><path d="M11.68446979019165,9.53553Q10.21999979019165,8.071069999999999,10.21999979019165,6Q10.21999979019165,3.9539999999999997,11.64922979019165,2.5Q11.66673979019165,2.48219,11.68446979019165,2.464466Q11.70734979019165,2.441585,11.73037979019165,2.419059Q11.774679790191652,2.375735,11.81951979019165,2.333731C11.31498979019165,2.113614,10.770459790191651,2,10.21999979019165,2C8.01085979019165,2,6.21999979019165,3.79086,6.21999979019165,6C6.21999979019165,8.20914,8.01085979019165,10,10.21999979019165,10C10.770459790191651,10,11.31498979019165,9.886389999999999,11.81951979019165,9.66627Q11.75135979019165,9.60243,11.68446979019165,9.53553Z" fill-rule="evenodd" fill="#E6E7EB" fill-opacity="1"/></g><g><path d="M6.87343,17.533281171875L6.87343,17.033281171875Q6.87343,15.359021171875,6.92621,14.762531171875Q7.01739,13.732071171874999,7.38493,13.066011171875001Q7.83293,12.254131171875,8.559999999999999,11.699951171875L7.77592,11.699951171875C5.75417,11.699951171875,4.74329,11.699951171875,3.9710799999999997,12.063243171875C3.29181,12.382826171875,2.739557,12.892781171875,2.393462,13.519991171875C2,14.233031171875,2,15.166451171875,2,17.033281171875L2,17.533281171875L6.87343,17.533281171875Z" fill-rule="evenodd" fill="#E6E7EB" fill-opacity="1"/></g></g></g></svg>