<svg xmlns="http://www.w3.org/2000/svg" xmlns:xlink="http://www.w3.org/1999/xlink" fill="none" version="1.1" width="32.666664123535156" height="32.666664123535156" viewBox="0 0 32.666664123535156 32.666664123535156"><defs><clipPath id="master_svg0_3847_31503"><rect x="0" y="0" width="32.666664123535156" height="32.666664123535156" rx="0"/></clipPath></defs><g clip-path="url(#master_svg0_3847_31503)"><g><path d="M13.3078725,21.60621015625L13.3105925,21.60671015625L13.3109325,21.60681015625L13.5592725,20.12751015625Q10.853412500000001,19.67261015625,9.084602499999999,18.34601015625Q7.7379725,17.33611015625,6.9633625,15.87791015625Q6.1953125,14.43211015625,6.1953125,12.93048015625Q6.1953125,10.913780156249999,7.5959825,9.17833015625Q7.8549325,8.85757015625,7.9019224999999995,8.062430156249999Q7.9233125,7.70049015625,7.9231425,6.7876801562499995Q7.9228325,5.06212015625,8.0349725,4.44524015625Q8.060152500000001,4.30676315625,8.0850825,4.21125715625Q8.4947625,4.41401015625,9.1881025,4.83086015625Q10.3162825,5.50913015625,10.9199325,5.73967015625Q12.0456825,6.16959015625,13.0162025,5.92243015625Q14.6206325,5.51381015625,16.3342125,5.51381015625Q18.3050125,5.513800156249999,20.1179125,6.05059015625Q20.9355125,6.29266015625,22.2329125,5.76986015625Q22.8986125,5.501570156250001,24.2637125,4.75497015625Q24.7524125,4.48770015625,25.0840125,4.31568715625Q25.0869125,4.20001315625,25.0827125,4.11553615625Q25.0758125,3.97427515625,25.0563125,3.89723715625Q25.0526125,3.88291915625,25.0524125,3.88249315625Q25.0655125,3.91139915625,25.0932125,3.94464015625Q25.2102125,4.08527015625,25.3977125,4.1054861562500005Q25.4595125,4.11215915625,25.5090125,4.10133915625L25.5117125,4.10248515625Q25.3475125,4.17900515625,25.0840125,4.31568715625Q25.0702125,4.86390015625,24.8978125,6.1127301562500005Q24.7460125,7.21250015625,24.7194125,7.67279015625Q24.6610125,8.681640156250001,25.0078125,9.09946015625Q26.4731125,10.86474015625,26.4731125,12.93048015625Q26.4731125,14.49741015625,25.7971125,15.90511015625Q25.0919125,17.373810156250002,23.7955125,18.34601015625Q22.2578125,19.49931015625,19.821312499999998,20.00611015625L20.1239125,21.47521015625L20.1242125,21.47521015625L20.1253125,21.47501015625Q22.8900125,20.90021015625,24.6954125,19.54601015625Q26.2853125,18.35371015625,27.1493125,16.55441015625Q27.9731125,14.83891015625,27.9731125,12.93048015625Q27.9731125,10.36580015625,26.2206125,8.21268015625Q26.2193125,8.20317015625,26.2180125,8.19176015625Q26.2007125,8.039090156250001,26.2169125,7.75946015625Q26.2401125,7.35861015625,26.3837125,6.31785015625Q26.6117125,4.66666015625,26.5809125,4.04178215625Q26.5467125,3.34634925625,26.2463125,2.98530515625Q25.7188125,2.3512401562500003,24.8783125,2.74278415625Q24.4635125,2.93604515625,23.5440125,3.43894265625Q21.0983125,4.77652015625,20.5438125,4.61231015625Q18.5224125,4.01380515625,16.3342125,4.01380515625Q14.4326125,4.01380515625,12.646012500000001,4.4688201562500005Q12.1364625,4.59859015625,11.4550825,4.33837715625Q10.9754225,4.1551951562500005,9.9609925,3.54530715625Q8.9794925,2.95521315625,8.4636225,2.73355215625Q7.6035725,2.36400715625,7.0225925,3.04263415625Q6.6960325,3.42407385625,6.5591625,4.17694715625Q6.4228075,4.92702015625,6.4231455,6.78795015625Q6.4233035,7.65634015625,6.4045335,7.97393015625Q6.3915155,8.194220156250001,6.3690515,8.31065015625L6.3689685,8.31107015625Q4.6953125,10.428260156250001,4.6953125,12.93048015625Q4.6953125,14.80571015625,5.6386685,16.58161015625Q6.5702725,18.33531015625,8.1846025,19.54601015625Q10.245202500000001,21.09151015625,13.3078725,21.60621015625Z" fill-rule="evenodd" fill="#99A0AF" fill-opacity="1"/></g><g><path d="M13.9877,21.3715295Q14.08176,21.2680035,14.13218,21.1375325Q14.1826,21.0070615,14.1826,20.8671875Q14.1826,20.793319,14.16819,20.7208695Q14.15378,20.6484205,14.12551,20.5801745Q14.09724,20.5119295,14.0562,20.4505095Q14.01516,20.389090500000002,13.96293,20.3368575Q13.9107,20.2846245,13.84928,20.243585500000002Q13.78786,20.2025465,13.71961,20.1742775Q13.65137,20.1460095,13.57892,20.1315985Q13.50647,20.1171875,13.4326,20.1171875Q13.27406,20.1171875,13.129085,20.1813465Q12.984109,20.2455045,12.877498,20.3628455L12.877474,20.3628725L12.877168,20.3632095Q11.5,21.8791575,11.5,23.3393075L11.5,29.2711575Q11.5,29.3450275,11.514410999999999,29.4174775Q11.528822,29.4899275,11.55709,29.5581775Q11.585359,29.626417500000002,11.626398,29.6878375Q11.667437,29.7492575,11.71967,29.8014875Q11.771903,29.853727499999998,11.833322,29.8947675Q11.894742,29.9357975,11.962987,29.9640675Q12.031233,29.992337499999998,12.103682,30.0067475Q12.1761315,30.0211575,12.25,30.0211575Q12.3238685,30.0211575,12.396318,30.0067475Q12.468767,29.992337499999998,12.537013,29.9640675Q12.605258,29.9357975,12.666678,29.8947675Q12.728097,29.853727499999998,12.78033,29.8014875Q12.832563,29.7492575,12.873602,29.6878375Q12.914641,29.626417500000002,12.94291,29.5581775Q12.971178,29.4899275,12.985589000000001,29.4174775Q13,29.3450275,13,29.2711575L13,23.3393075Q13,22.4586475,13.9877,21.3715295Z" fill-rule="evenodd" fill="#99A0AF" fill-opacity="1"/></g><g><path d="M19.372166,21.1957289375Q19.297526,21.0977609375,19.258138,20.9810669375Q19.21875,20.8643729375,19.21875,20.7412109375Q19.21875,20.6673424375,19.233161,20.5948929375Q19.247572,20.5224439375,19.27584,20.4541979375Q19.304109,20.3859529375,19.345148000000002,20.3245329375Q19.386187,20.263113937500002,19.43842,20.2108809375Q19.490653000000002,20.1586479375,19.552072,20.117608937500002Q19.613492,20.0765699375,19.681737,20.0483009375Q19.749983,20.0200329375,19.822432,20.0056219375Q19.8948815,19.9912109375,19.96875,19.9912109375Q20.0553578,19.9912109375,20.139686,20.0109499375Q20.224015,20.0306889375,20.301625,20.0691289375Q20.379235,20.1075679375,20.446041,20.1626839375Q20.512847999999998,20.2178009375,20.565334,20.2866919375Q21.83935,21.9589209375,21.83935,23.3824509375L21.83935,29.2713609375Q21.83935,29.3452309375,21.82494,29.417680937500002Q21.81053,29.4901309375,21.78226,29.5583709375Q21.754,29.6266209375,21.71296,29.6880409375Q21.67192,29.7494609375,21.61968,29.8016909375Q21.56745,29.8539209375,21.50603,29.894960937500002Q21.44461,29.936000937499998,21.37637,29.9642709375Q21.30812,29.9925409375,21.23567,30.0069509375Q21.16322,30.0213609375,21.08935,30.0213609375Q21.01549,30.0213609375,20.943036,30.0069509375Q20.870587,29.9925409375,20.802341,29.9642709375Q20.734096,29.936000937499998,20.672676,29.894960937500002Q20.611257,29.8539209375,20.559024,29.8016909375Q20.506791,29.7494609375,20.465752,29.6880409375Q20.424712,29.6266209375,20.396444,29.5583709375Q20.368176,29.4901309375,20.353765,29.417680937500002Q20.339354,29.3452309375,20.339354,29.2713609375L20.339354,23.3824509375Q20.339354,22.4652209375,19.372166,21.1957289375Z" fill-rule="evenodd" fill="#99A0AF" fill-opacity="1"/></g><g><path d="M4.1773724,20.49924634375Q5.4561875,20.65575834375,6.0883875,21.69864434375Q7.9582774999999994,24.78285234375,9.4113475,24.78285234375L12.2542375,24.78285234375Q12.3281075,24.78285234375,12.4005575,24.79726234375Q12.4730075,24.81167234375,12.5412475,24.83994234375Q12.6094975,24.86821234375,12.6709175,24.90925234375Q12.7323275,24.95029234375,12.7845675,25.00252234375Q12.8367975,25.05475234375,12.8778375,25.11617234375Q12.9188775,25.17759234375,12.9471475,25.24584234375Q12.9754175,25.31408234375,12.9898275,25.386532343749998Q13.0042375,25.45898234375,13.0042375,25.53285234375Q13.0042375,25.60672234375,12.9898275,25.67917234375Q12.9754175,25.75162234375,12.9471475,25.81986234375Q12.9188775,25.88811234375,12.8778375,25.94953234375Q12.8367975,26.01095234375,12.7845675,26.06318234375Q12.7323275,26.115412343750002,12.6709175,26.15645234375Q12.6094975,26.19749234375,12.5412475,26.22576234375Q12.4730075,26.254032343749998,12.4005575,26.26844234375Q12.3281075,26.28285234375,12.2542375,26.28285234375L9.4113475,26.28285234375Q7.1135475,26.28285234375,4.8057134999999995,22.47630234375Q4.5509855,22.05609634375,3.9949167,21.98810834375Q3.9273055,21.97984234375,3.8622895,21.95953034375Q3.7972745,21.93921934375,3.7369815,21.90752734375Q3.6766885,21.87583534375,3.6230915,21.83380034375Q3.5694955,21.79176434375,3.5243475,21.740761343750002Q3.4792005,21.68975834375,3.4439805,21.63145534375Q3.4087605,21.57315334375,3.3846205,21.50946034375Q3.3604795,21.44576734375,3.3482085,21.37876734375Q3.3359375,21.31176694375,3.3359375,21.24365234375Q3.3359375,21.16978384375,3.3503485,21.09733434375Q3.3647595,21.02488534375,3.3930275,20.95663934375Q3.4212965,20.88839434375,3.4623355,20.82697434375Q3.5033745,20.765555343750002,3.5556075,20.71332234375Q3.6078405,20.66108934375,3.6692595,20.620050343750002Q3.7306795,20.57901134375,3.7989245,20.55074234375Q3.8671705,20.52247434375,3.9396195,20.50806334375Q4.012069,20.49365234375,4.0859375,20.49365234375Q4.131617,20.49365234375,4.1769588,20.49919634375L4.1773724,20.49924634375Z" fill-rule="evenodd" fill="#99A0AF" fill-opacity="1"/></g></g></svg>