<svg xmlns="http://www.w3.org/2000/svg" xmlns:xlink="http://www.w3.org/1999/xlink" fill="none" version="1.1" width="10" height="16" viewBox="0 0 10 16"><g><g><path d="M4,1Q4,0.9015086,4.019215,0.80491Q4.03843,0.708311,4.076121,0.617317Q4.113812,0.526322,4.16853,0.44443Q4.223249,0.362537,4.292893,0.29289299999999996Q4.362537,0.22324900000000003,4.44443,0.16852999999999996Q4.526322,0.11381200000000002,4.617317,0.076121Q4.708311,0.038429999999999964,4.80491,0.019214999999999982Q4.9015086,0,5,0Q5.0984914,0,5.19509,0.019214999999999982Q5.291689,0.038429999999999964,5.382683,0.076121Q5.473678,0.11381200000000002,5.55557,0.16852999999999996Q5.637463,0.22324900000000003,5.707107,0.29289299999999996Q5.776751,0.362537,5.83147,0.44443Q5.886188,0.526322,5.923879,0.617317Q5.96157,0.708311,5.980785,0.80491Q6,0.9015086,6,1L6,15Q6,15.0985,5.980785,15.1951Q5.96157,15.2917,5.923879,15.3827Q5.886188,15.4737,5.83147,15.5556Q5.776751,15.6375,5.707107,15.7071Q5.637463,15.7767,5.55557,15.8315Q5.473678,15.8862,5.382683,15.9239Q5.291689,15.9616,5.19509,15.9808Q5.0984914,16,5,16Q4.9015086,16,4.80491,15.9808Q4.708311,15.9616,4.617317,15.9239Q4.526322,15.8862,4.44443,15.8315Q4.362537,15.7767,4.292893,15.7071Q4.223249,15.6375,4.16853,15.5556Q4.113812,15.4737,4.076121,15.3827Q4.03843,15.2917,4.019215,15.1951Q4,15.0985,4,15L4,1Z" fill-rule="evenodd" fill="#99A0AF" fill-opacity="1"/></g><g><path d="M5,2.53659L8.2407,6.31741L8.240739999999999,6.31746Q8.31115,6.3996,8.3975,6.46479Q8.48385,6.52997,8.582139999999999,6.57518Q8.68044,6.62039,8.78612,6.64353Q8.89181,6.66667,9,6.66667Q9.09849,6.66667,9.19509,6.64745Q9.29169,6.62824,9.38268,6.59055Q9.47368,6.55285,9.55557,6.49814Q9.63746,6.44342,9.70711,6.37377Q9.77675,6.30413,9.83147,6.22224Q9.88619,6.14034,9.92388,6.04935Q9.96157,5.95836,9.98078,5.86176Q10,5.76516,10,5.66667Q10,5.48763,9.93789,5.31972Q9.87577,5.15181,9.75926,5.01588L9.75874,5.01528L5.75926,0.349209Q5.62981,0.198183,5.45241,0.10819199999999995Q5.27502,0.01820200000000005,5.0767,0.002946000000000004Q4.87837,-0.012310000000000043,4.689299999999999,0.04949099999999995Q4.50023,0.11129299999999998,4.349209999999999,0.24074300000000004Q4.2908,0.29080399999999995,4.240740000000001,0.349209L0.24107699999999999,5.01549L0.24074300000000004,5.01588Q0.12422999999999995,5.15181,0.06211500000000003,5.31972Q0,5.48763,0,5.66667Q0,5.76516,0.019214999999999982,5.86176Q0.038429999999999964,5.95836,0.076121,6.04935Q0.11381200000000002,6.14034,0.16852999999999996,6.22224Q0.22324900000000003,6.30413,0.29289299999999996,6.37377Q0.362537,6.44342,0.44443,6.49814Q0.526322,6.55285,0.617317,6.59055Q0.708311,6.62824,0.80491,6.64745Q0.9015086,6.66667,1,6.66667Q1.10819,6.66667,1.213877,6.64353Q1.319564,6.62039,1.417857,6.57518Q1.516149,6.52997,1.602498,6.46479Q1.688847,6.3996,1.7592560000000002,6.31746L5,2.53659Z" fill-rule="evenodd" fill="#99A0AF" fill-opacity="1"/></g></g></svg>