<svg xmlns="http://www.w3.org/2000/svg" xmlns:xlink="http://www.w3.org/1999/xlink" fill="none" version="1.1" width="22.121337890625" height="22.12109375" viewBox="0 0 22.121337890625 22.12109375"><g><g transform="matrix(0.7071176171302795,0.7070959210395813,-0.7071176171302795,0.7070959210395813,5.3995771884784745,-10.914842364461379)"><path d="M15.345141115112305,5.257376875L19.011641115112305,8.923876875000001Q19.117131115112304,9.029366875000001,19.254961115112305,9.086456875Q19.392791115112303,9.143546875,19.541971115112304,9.143546875Q19.691151115112305,9.143546875,19.828981115112306,9.086456875Q19.966811115112304,9.029366875000001,20.072301115112303,8.923876875000001L23.738801115112306,5.257376875Q23.844291115112306,5.151886875,23.901381115112304,5.014056875Q23.958471115112303,4.876226875,23.958471115112303,4.727046875Q23.958471115112303,4.577866875,23.901381115112304,4.4400368750000005Q23.844291115112306,4.3022068749999995,23.738801115112306,4.196716875L20.072301115112303,0.530216875Q19.966811115112304,0.424727875,19.828981115112306,0.367636875Q19.691151115112305,0.310546875,19.541971115112304,0.310546875Q19.392791115112303,0.310546875,19.254961115112305,0.367636875Q19.117131115112304,0.424727875,19.011641115112305,0.530216875L15.345141115112305,4.196716875Q15.292908115112304,4.248946875,15.251869115112305,4.310366875Q15.210830115112305,4.371786875,15.182561115112305,4.4400368750000005Q15.154293115112305,4.508276875,15.139882115112304,4.580726875Q15.125471115112305,4.653176875,15.125471115112305,4.727046875Q15.125471115112305,4.800916875,15.139882115112304,4.873366875Q15.154293115112305,4.945816875,15.182562115112304,5.014056875Q15.210830115112305,5.082306875,15.251869115112305,5.143726875Q15.292908115112304,5.205146875,15.345141115112305,5.257376875ZM19.541971115112304,7.332886875L16.936131115112303,4.727046875L19.541971115112304,2.121206875L22.147811115112304,4.727046875L19.541971115112304,7.332886875Z" fill-rule="evenodd" fill="#99A0AF" fill-opacity="1"/></g><g transform="matrix(0.7071176171302795,0.7070959210395813,-0.7071175575256348,0.7070959806442261,9.388649384573,-1.2851617182091104)"><path d="M5.715519609375,14.887202467041016L9.382019609375,18.553702467041017Q9.487509609375,18.659192467041017,9.625339609375,18.716282467041015Q9.763169609375,18.773372467041014,9.912349609375,18.773372467041014Q10.061529609375,18.773372467041014,10.199359609375,18.716282467041015Q10.337189609374999,18.659192467041017,10.442679609375,18.553702467041017L14.109179609375001,14.887202467041016Q14.214669609375001,14.781712467041014,14.271759609375,14.643882467041015Q14.328849609375,14.506052467041016,14.328849609375,14.356872467041015Q14.328849609375,14.207692467041015,14.271759609375,14.069862467041016Q14.214669609375001,13.932032467041015,14.109179609375001,13.826542467041016L10.442679609375,10.160042467041016Q10.337189609374999,10.054553467041016,10.199359609375,9.997462467041016Q10.061529609375,9.940372467041016,9.912349609375,9.940372467041016Q9.763169609375,9.940372467041016,9.625339609375,9.997462467041016Q9.487509609375,10.054553467041016,9.382019609375,10.160042467041016L5.715519609375,13.826542467041016Q5.663286609375,13.878772467041015,5.622247609375,13.940192467041015Q5.581208609375,14.001612467041015,5.552939609375,14.069862467041016Q5.524671609375,14.138102467041016,5.510260609375,14.210552467041015Q5.495849609375,14.283002467041015,5.495849609375,14.356872467041015Q5.495849609375,14.430742467041016,5.510260609375,14.503192467041016Q5.524671609375,14.575642467041016,5.552940609375,14.643882467041015Q5.581208609375,14.712132467041016,5.622247609375,14.773552467041014Q5.663286609375,14.834972467041016,5.715519609375,14.887202467041016ZM9.912349609375,16.962712467041015L7.306509609375,14.356872467041015L9.912349609375,11.751032467041016L12.518189609375,14.356872467041015L9.912349609375,16.962712467041015Z" fill-rule="evenodd" fill="#99A0AF" fill-opacity="1"/></g><g transform="matrix(0.7071176171302795,0.7070959210395813,-0.7071175575256348,0.7070959806442261,12.208954259460313,-8.094127329527339)"><path d="M15.34499901763916,14.887202467041016L19.01149901763916,18.553702467041017Q19.11698901763916,18.659192467041017,19.25481901763916,18.716282467041015Q19.392649017639158,18.773372467041014,19.54182901763916,18.773372467041014Q19.69100901763916,18.773372467041014,19.82883901763916,18.716282467041015Q19.96666901763916,18.659192467041017,20.07215901763916,18.553702467041017L23.73865901763916,14.887202467041016Q23.84414901763916,14.781712467041014,23.90123901763916,14.643882467041015Q23.95832901763916,14.506052467041016,23.95832901763916,14.356872467041015Q23.95832901763916,14.207692467041015,23.90123901763916,14.069862467041016Q23.84414901763916,13.932032467041015,23.73865901763916,13.826542467041016L20.07215901763916,10.160042467041016Q19.96666901763916,10.054553467041016,19.82883901763916,9.997462467041016Q19.69100901763916,9.940372467041016,19.54182901763916,9.940372467041016Q19.392649017639158,9.940372467041016,19.25481901763916,9.997462467041016Q19.11698901763916,10.054553467041016,19.01149901763916,10.160042467041016L15.34499901763916,13.826542467041016Q15.29276601763916,13.878772467041015,15.25172701763916,13.940192467041015Q15.21068801763916,14.001612467041015,15.18241901763916,14.069862467041016Q15.15415101763916,14.138102467041016,15.13974001763916,14.210552467041015Q15.12532901763916,14.283002467041015,15.12532901763916,14.356872467041015Q15.12532901763916,14.430742467041016,15.13974001763916,14.503192467041016Q15.15415101763916,14.575642467041016,15.18242001763916,14.643882467041015Q15.21068801763916,14.712132467041016,15.25172701763916,14.773552467041014Q15.29276601763916,14.834972467041016,15.34499901763916,14.887202467041016ZM19.54182901763916,16.962712467041015L16.93598901763916,14.356872467041015L19.54182901763916,11.751032467041016L22.14766901763916,14.356872467041015L19.54182901763916,16.962712467041015Z" fill-rule="evenodd" fill="#99A0AF" fill-opacity="1"/></g><g transform="matrix(0.7071176171302795,0.7070959210395813,-0.7071176171302795,0.7070959210395813,2.579230695744627,-4.105776276599499)"><path d="M5.715519609375,5.257376875L9.382019609375,8.923876875000001Q9.487509609375,9.029366875000001,9.625339609375,9.086456875Q9.763169609375,9.143546875,9.912349609375,9.143546875Q10.061529609375,9.143546875,10.199359609375,9.086456875Q10.337189609374999,9.029366875000001,10.442679609375,8.923876875000001L14.109179609375001,5.257376875Q14.214669609375001,5.151886875,14.271759609375,5.014056875Q14.328849609375,4.876226875,14.328849609375,4.727046875Q14.328849609375,4.577866875,14.271759609375,4.4400368750000005Q14.214669609375001,4.3022068749999995,14.109179609375001,4.196716875L10.442679609375,0.530216875Q10.337189609374999,0.424727875,10.199359609375,0.367636875Q10.061529609375,0.310546875,9.912349609375,0.310546875Q9.763169609375,0.310546875,9.625339609375,0.367636875Q9.487509609375,0.424727875,9.382019609375,0.530216875L5.715519609375,4.196716875Q5.663286609375,4.248946875,5.622247609375,4.310366875Q5.581208609375,4.371786875,5.552939609375,4.4400368750000005Q5.524671609375,4.508276875,5.510260609375,4.580726875Q5.495849609375,4.653176875,5.495849609375,4.727046875Q5.495849609375,4.800916875,5.510260609375,4.873366875Q5.524671609375,4.945816875,5.552940609375,5.014056875Q5.581208609375,5.082306875,5.622247609375,5.143726875Q5.663286609375,5.205146875,5.715519609375,5.257376875ZM9.912349609375,7.332886875L7.306509609375,4.727046875L9.912349609375,2.121206875L12.518189609375,4.727046875L9.912349609375,7.332886875Z" fill-rule="evenodd" fill="#99A0AF" fill-opacity="1"/></g></g></svg>