<svg xmlns="http://www.w3.org/2000/svg" xmlns:xlink="http://www.w3.org/1999/xlink" fill="none" version="1.1" width="22.121337890625" height="22.12109375" viewBox="0 0 22.121337890625 22.12109375"><g><g transform="matrix(0.7071114778518677,0.7071021199226379,-0.7071114778518677,0.7071021199226379,5.399668141423035,-10.914947348856344)"><path d="M15.345141115112305,5.257376875L19.011641115112305,8.923876875000001Q19.117131115112304,9.029366875000001,19.254961115112305,9.086456875Q19.392791115112303,9.143546875,19.541971115112304,9.143546875Q19.691151115112305,9.143546875,19.828981115112306,9.086456875Q19.966811115112304,9.029366875000001,20.072301115112303,8.923876875000001L23.738801115112306,5.257376875Q23.844291115112306,5.151886875,23.901381115112304,5.014056875Q23.958471115112303,4.876226875,23.958471115112303,4.727046875Q23.958471115112303,4.577866875,23.901381115112304,4.4400368750000005Q23.844291115112306,4.3022068749999995,23.738801115112306,4.196716875L20.072301115112303,0.530216875Q19.966811115112304,0.424727875,19.828981115112306,0.367636875Q19.691151115112305,0.310546875,19.541971115112304,0.310546875Q19.392791115112303,0.310546875,19.254961115112305,0.367636875Q19.117131115112304,0.424727875,19.011641115112305,0.530216875L15.345141115112305,4.196716875Q15.292908115112304,4.248946875,15.251869115112305,4.310366875Q15.210830115112305,4.371786875,15.182561115112305,4.4400368750000005Q15.154293115112305,4.508276875,15.139882115112304,4.580726875Q15.125471115112305,4.653176875,15.125471115112305,4.727046875Q15.125471115112305,4.800916875,15.139882115112304,4.873366875Q15.154293115112305,4.945816875,15.182562115112304,5.014056875Q15.210830115112305,5.082306875,15.251869115112305,5.143726875Q15.292908115112304,5.205146875,15.345141115112305,5.257376875ZM19.541971115112304,7.332886875L16.936131115112303,4.727046875L19.541971115112304,2.121206875L22.147811115112304,4.727046875L19.541971115112304,7.332886875Z" fill-rule="evenodd" fill="#2D2E33" fill-opacity="1"/></g><g transform="matrix(0.7071114778518677,0.7071021199226379,-0.7071114182472229,0.7071021199226379,9.38849329679607,-1.2853194185477719)"><path d="M5.715519609375,14.887020315246582L9.382019609375,18.553520315246583Q9.487509609375,18.659010315246583,9.625339609375,18.71610031524658Q9.763169609375,18.77319031524658,9.912349609375,18.77319031524658Q10.061529609375,18.77319031524658,10.199359609375,18.71610031524658Q10.337189609374999,18.659010315246583,10.442679609375,18.553520315246583L14.109179609375001,14.887020315246582Q14.214669609375001,14.781530315246581,14.271759609375,14.643700315246582Q14.328849609375,14.505870315246582,14.328849609375,14.356690315246581Q14.328849609375,14.207510315246582,14.271759609375,14.069680315246583Q14.214669609375001,13.931850315246582,14.109179609375001,13.826360315246582L10.442679609375,10.159860315246583Q10.337189609374999,10.054371315246582,10.199359609375,9.997280315246583Q10.061529609375,9.940190315246582,9.912349609375,9.940190315246582Q9.763169609375,9.940190315246582,9.625339609375,9.997280315246583Q9.487509609375,10.054371315246582,9.382019609375,10.159860315246583L5.715519609375,13.826360315246582Q5.663286609375,13.878590315246582,5.622247609375,13.940010315246582Q5.581208609375,14.001430315246582,5.552939609375,14.069680315246583Q5.524671609375,14.137920315246582,5.510260609375,14.210370315246582Q5.495849609375,14.282820315246582,5.495849609375,14.356690315246581Q5.495849609375,14.430560315246582,5.510260609375,14.503010315246582Q5.524671609375,14.575460315246582,5.552940609375,14.643700315246582Q5.581208609375,14.711950315246582,5.622247609375,14.77337031524658Q5.663286609375,14.834790315246583,5.715519609375,14.887020315246582ZM9.912349609375,16.962530315246582L7.306509609375,14.356690315246581L9.912349609375,11.750850315246582L12.518189609375,14.356690315246581L9.912349609375,16.962530315246582Z" fill-rule="evenodd" fill="#2D2E33" fill-opacity="1"/></g><g transform="matrix(0.7071114778518677,0.7071021199226379,-0.7071114182472229,0.7071021199226379,12.208857289738432,-8.094344721882749)"><path d="M15.34499901763916,14.887020315246582L19.01149901763916,18.553520315246583Q19.11698901763916,18.659010315246583,19.25481901763916,18.71610031524658Q19.392649017639158,18.77319031524658,19.54182901763916,18.77319031524658Q19.69100901763916,18.77319031524658,19.82883901763916,18.71610031524658Q19.96666901763916,18.659010315246583,20.07215901763916,18.553520315246583L23.73865901763916,14.887020315246582Q23.84414901763916,14.781530315246581,23.90123901763916,14.643700315246582Q23.95832901763916,14.505870315246582,23.95832901763916,14.356690315246581Q23.95832901763916,14.207510315246582,23.90123901763916,14.069680315246583Q23.84414901763916,13.931850315246582,23.73865901763916,13.826360315246582L20.07215901763916,10.159860315246583Q19.96666901763916,10.054371315246582,19.82883901763916,9.997280315246583Q19.69100901763916,9.940190315246582,19.54182901763916,9.940190315246582Q19.392649017639158,9.940190315246582,19.25481901763916,9.997280315246583Q19.11698901763916,10.054371315246582,19.01149901763916,10.159860315246583L15.34499901763916,13.826360315246582Q15.29276601763916,13.878590315246582,15.25172701763916,13.940010315246582Q15.21068801763916,14.001430315246582,15.18241901763916,14.069680315246583Q15.15415101763916,14.137920315246582,15.13974001763916,14.210370315246582Q15.12532901763916,14.282820315246582,15.12532901763916,14.356690315246581Q15.12532901763916,14.430560315246582,15.13974001763916,14.503010315246582Q15.15415101763916,14.575460315246582,15.18242001763916,14.643700315246582Q15.21068801763916,14.711950315246582,15.25172701763916,14.77337031524658Q15.29276601763916,14.834790315246583,15.34499901763916,14.887020315246582ZM19.54182901763916,16.962530315246582L16.93598901763916,14.356690315246581L19.54182901763916,11.750850315246582L22.14766901763916,14.356690315246581L19.54182901763916,16.962530315246582Z" fill-rule="evenodd" fill="#2D2E33" fill-opacity="1"/></g><g transform="matrix(0.7071114778518677,0.7071021199226379,-0.7071114778518677,0.7071021199226379,2.5792625297617633,-4.1058215680968715)"><path d="M5.715519609375,5.257376875L9.382019609375,8.923876875000001Q9.487509609375,9.029366875000001,9.625339609375,9.086456875Q9.763169609375,9.143546875,9.912349609375,9.143546875Q10.061529609375,9.143546875,10.199359609375,9.086456875Q10.337189609374999,9.029366875000001,10.442679609375,8.923876875000001L14.109179609375001,5.257376875Q14.214669609375001,5.151886875,14.271759609375,5.014056875Q14.328849609375,4.876226875,14.328849609375,4.727046875Q14.328849609375,4.577866875,14.271759609375,4.4400368750000005Q14.214669609375001,4.3022068749999995,14.109179609375001,4.196716875L10.442679609375,0.530216875Q10.337189609374999,0.424727875,10.199359609375,0.367636875Q10.061529609375,0.310546875,9.912349609375,0.310546875Q9.763169609375,0.310546875,9.625339609375,0.367636875Q9.487509609375,0.424727875,9.382019609375,0.530216875L5.715519609375,4.196716875Q5.663286609375,4.248946875,5.622247609375,4.310366875Q5.581208609375,4.371786875,5.552939609375,4.4400368750000005Q5.524671609375,4.508276875,5.510260609375,4.580726875Q5.495849609375,4.653176875,5.495849609375,4.727046875Q5.495849609375,4.800916875,5.510260609375,4.873366875Q5.524671609375,4.945816875,5.552940609375,5.014056875Q5.581208609375,5.082306875,5.622247609375,5.143726875Q5.663286609375,5.205146875,5.715519609375,5.257376875ZM9.912349609375,7.332886875L7.306509609375,4.727046875L9.912349609375,2.121206875L12.518189609375,4.727046875L9.912349609375,7.332886875Z" fill-rule="evenodd" fill="#2D2E33" fill-opacity="1"/></g></g></svg>