<svg xmlns="http://www.w3.org/2000/svg" xmlns:xlink="http://www.w3.org/1999/xlink" fill="none" version="1.1" width="16" height="16" viewBox="0 0 16 16"><defs><clipPath id="master_svg0_sa142_8915"><rect x="0" y="0" width="16" height="16" rx="0"/></clipPath></defs><g clip-path="url(#master_svg0_sa142_8915)"><g><path d="M0.5830078125,8.0000440234375Q0.5830078125,11.0721040234375,2.7552978125000003,13.2443740234375Q4.9276278125,15.4166740234375,7.9996778125,15.4166740234375Q11.0717378125,15.4166740234375,13.2440078125,13.2443740234375Q15.4163078125,11.0721040234375,15.4163078125,8.0000440234375Q15.4163078125,4.9279940234375,13.2440078125,2.7556640234375003Q11.0717378125,0.5833740234375,7.9996778125,0.5833740234375Q4.9276278125,0.5833740234375,2.7553078125,2.7556640234375003Q0.5830078125,4.9279940234375,0.5830078125,8.0000440234375ZM7.9996778125,13.9166740234375Q5.5489378125,13.9166740234375,3.8159578125,12.1837740234375Q2.0830078125,10.4507840234375,2.0830078125,8.0000440234375Q2.0830078125,5.5493040234375,3.8159578125,3.8163240234375Q5.5489378125,2.0833740234375,7.9996778125,2.0833740234375Q10.4504178125,2.0833740234375,12.1834078125,3.8163240234375Q13.9163078125,5.5493040234375,13.9163078125,8.0000440234375Q13.9163078125,10.4507840234375,12.1834078125,12.1837740234375Q10.4504178125,13.9166740234375,7.9996778125,13.9166740234375Z" fill-rule="evenodd" fill="#C0C4CC" fill-opacity="1"/></g><g><path d="M6.0554575,4.263709453125Q5.25,5.069166953125,5.25,6.208251953125Q5.25,6.282121953124999,5.264411,6.354571953124999Q5.278822,6.427021953125,5.30709,6.495261953125Q5.335359,6.5635119531249995,5.376398,6.6249319531249995Q5.417437,6.6863519531249995,5.46967,6.738581953125Q5.521903,6.790811953125,5.583322,6.831851953125Q5.644742,6.872891953125,5.712987,6.9011619531249995Q5.781233,6.929431953125,5.853682,6.943841953125Q5.9261315,6.958251953125,6,6.958251953125Q6.0738685,6.958251953125,6.146318,6.943841953125Q6.218767,6.929431953125,6.287013,6.9011619531249995Q6.355258,6.872891953125,6.416678,6.831851953125Q6.478097,6.790811953125,6.53033,6.738581953125Q6.582563,6.6863519531249995,6.623602,6.6249319531249995Q6.664641,6.5635119531249995,6.69291,6.495261953125Q6.721178,6.427021953125,6.735589,6.354571953124999Q6.75,6.282121953124999,6.75,6.208251953125Q6.75,5.690491953125,7.1161200000000004,5.3243719531250004Q7.48224,4.958251953125,8,4.958251953125Q8.517759999999999,4.958251953125,8.88388,5.3243719531250004Q9.25,5.6904819531249995,9.25,6.208251953125Q9.25,6.726011953125,8.88388,7.0921319531249996Q8.517759999999999,7.458251953125,8,7.458251953125Q7.92613,7.458251953125,7.85368,7.472661953125Q7.78123,7.487071953125,7.71299,7.5153419531250005Q7.6447400000000005,7.543611953125,7.5833200000000005,7.584651953125Q7.5219000000000005,7.625691953125,7.46967,7.677921953125Q7.41744,7.7301519531250005,7.3764,7.7915719531250005Q7.33536,7.8529919531250005,7.3070900000000005,7.921241953125Q7.27882,7.989481953125,7.26441,8.061931953125Q7.25,8.134381953125,7.25,8.208251953125L7.25,9.541581953125Q7.25,9.615451953125,7.26441,9.687901953125Q7.27882,9.760351953125,7.3070900000000005,9.828601953125Q7.33536,9.896841953125,7.3764,9.958261953125Q7.41744,10.019681953125,7.46967,10.071911953125Q7.5219000000000005,10.124151953125,7.5833200000000005,10.165181953125Q7.6447400000000005,10.206221953124999,7.71299,10.234491953125Q7.78123,10.262761953125,7.85368,10.277171953125Q7.92613,10.291581953125,8,10.291581953125Q8.07387,10.291581953125,8.14632,10.277171953125Q8.21877,10.262761953125,8.28701,10.234491953125Q8.35526,10.206221953124999,8.41668,10.165181953125Q8.4781,10.124151953125,8.53033,10.071911953125Q8.58256,10.019681953125,8.6236,9.958261953125Q8.66464,9.896841953125,8.69291,9.828601953125Q8.72118,9.760351953125,8.73559,9.687901953125Q8.75,9.615451953125,8.75,9.541581953125L8.75,8.861361953125Q9.41844,8.678891953125,9.94454,8.152791953125Q10.75,7.347331953125,10.75,6.208251953125Q10.75,5.069166953125,9.94454,4.263709453125Q9.13908,3.458251953125,8,3.458251953125Q6.860915,3.458251953125,6.0554575,4.263709453125Z" fill-rule="evenodd" fill="#C0C4CC" fill-opacity="1"/></g><g><path d="M8.8336621875,11.70827196484375Q8.8336621875,11.79034796484375,8.8176421875,11.87084696484375Q8.801632187500001,11.95134896484375,8.7702221875,12.027178964843749Q8.7388121875,12.10299896484375,8.6932121875,12.17124896484375Q8.6476221875,12.23948896484375,8.5895821875,12.29752896484375Q8.5315421875,12.35556896484375,8.4633021875,12.40115896484375Q8.3950521875,12.44675896484375,8.319232187499999,12.47816896484375Q8.2434021875,12.509578964843751,8.1629001875,12.52558896484375Q8.0824011875,12.54160896484375,8.0003251875,12.54160896484375Q7.9182491875,12.54160896484375,7.8377501875,12.52558896484375Q7.7572511875,12.509578964843751,7.6814221875,12.47816896484375Q7.6055941875,12.44675896484375,7.5373501875,12.40115896484375Q7.4691061874999995,12.35556896484375,7.4110701875,12.29752896484375Q7.3530331875,12.23948896484375,7.3074341875,12.17124896484375Q7.2618350875,12.10299896484375,7.2304258875,12.027178964843749Q7.1990166875,11.95134896484375,7.1830044875,11.87084696484375Q7.1669921875,11.79034796484375,7.1669921875,11.70827196484375Q7.1669921875,11.62619596484375,7.1830044875,11.54569696484375Q7.1990166875,11.46519796484375,7.2304258875,11.38936896484375Q7.2618350875,11.31354096484375,7.3074341875,11.24529696484375Q7.3530331875,11.17705296484375,7.4110701875,11.11901696484375Q7.4691061874999995,11.06097996484375,7.5373501875,11.01538096484375Q7.6055941875,10.96978186484375,7.6814221875,10.93837266484375Q7.7572511875,10.90696346484375,7.8377501875,10.89095126484375Q7.9182491875,10.87493896484375,8.0003251875,10.87493896484375Q8.0824011875,10.87493896484375,8.1629001875,10.89095126484375Q8.2434021875,10.90696346484375,8.319232187499999,10.93837266484375Q8.3950521875,10.96978186484375,8.4633021875,11.01538096484375Q8.5315421875,11.06097996484375,8.5895821875,11.11901696484375Q8.6476221875,11.17705296484375,8.6932121875,11.24529696484375Q8.7388121875,11.31354096484375,8.7702221875,11.38936896484375Q8.801632187500001,11.46519796484375,8.8176421875,11.54569696484375Q8.8336621875,11.62619596484375,8.8336621875,11.70827196484375Z" fill="#C0C4CC" fill-opacity="1"/></g></g></svg>