<svg xmlns="http://www.w3.org/2000/svg" xmlns:xlink="http://www.w3.org/1999/xlink" fill="none" version="1.1" width="24" height="24" viewBox="0 0 24 24"><defs><clipPath id="master_svg0_347_14953/347_14926/347_10453"><rect x="0" y="0" width="24" height="24" rx="0"/></clipPath></defs><g clip-path="url(#master_svg0_347_14953/347_14926/347_10453)"><g><g><g><path d="M0.25,21.000033015441893L0.25,8.333333015441895Q0.25,8.259464515441895,0.26441099999999995,8.187015015441894Q0.278822,8.114566015441895,0.30709,8.046320015441895Q0.33535899999999996,7.9780750154418945,0.376398,7.916655015441894Q0.41743699999999995,7.8552360154418945,0.46967000000000003,7.803003015441894Q0.521903,7.750770015441894,0.583322,7.7097310154418945Q0.6447419999999999,7.668692015441895,0.712987,7.640423015441894Q0.7812330000000001,7.612155015441894,0.853682,7.5977440154418945Q0.9261315,7.5833330154418945,1,7.5833330154418945L13.7742,7.5833330154418945Q13.8481,7.5833330154418945,13.9205,7.5977440154418945Q13.993,7.612155015441894,14.0612,7.640423015441894Q14.1294,7.668692015441895,14.1909,7.7097310154418945Q14.2523,7.750770015441894,14.3045,7.803003015441894Q14.3568,7.8552360154418945,14.3978,7.916655015441894Q14.4388,7.9780750154418945,14.4671,8.046320015441895Q14.4954,8.114566015441895,14.5098,8.187015015441894Q14.5242,8.259464515441895,14.5242,8.333333015441895L14.5242,21.000033015441893Q14.5242,21.073833015441895,14.5098,21.146333015441897Q14.4954,21.218733015441895,14.4671,21.287033015441892Q14.4388,21.355233015441897,14.3978,21.416633015441896Q14.3568,21.478133015441895,14.3045,21.530333015441894Q14.2523,21.582533015441896,14.1909,21.623633015441897Q14.1294,21.664633015441893,14.0612,21.692933015441895Q13.993,21.721133015441893,13.9205,21.735633015441895Q13.8481,21.750033015441893,13.7742,21.750033015441893L1,21.750033015441893Q0.9261315,21.750033015441893,0.853682,21.735633015441895Q0.7812330000000001,21.721133015441893,0.712987,21.692933015441895Q0.6447419999999999,21.664633015441893,0.583322,21.623633015441897Q0.521903,21.582533015441896,0.46967000000000003,21.530333015441894Q0.41743699999999995,21.478133015441895,0.376398,21.416633015441896Q0.33535899999999996,21.355233015441897,0.30709,21.287033015441892Q0.278822,21.218733015441895,0.26441099999999995,21.146333015441897Q0.25,21.073833015441895,0.25,21.000033015441893ZM1.75,9.083333015441895L1.75,20.250033015441893L13.0242,20.250033015441893L13.0242,9.083333015441895L1.75,9.083333015441895Z" fill="#333333" fill-opacity="1"/></g><g><path d="M9.16090875,13.629633015441893L7.81892175,14.575903015441895Q7.62455075,14.712963015441893,7.38671875,14.712963015441893Q7.31285025,14.712963015441893,7.24040075,14.698553015441895Q7.16795175,14.684143015441894,7.09970575,14.655873015441895Q7.03146075,14.627603015441895,6.97004075,14.586563015441895Q6.90862175,14.545523015441894,6.85638875,14.493293015441894Q6.80415575,14.441063015441895,6.76311675,14.379643015441895Q6.72207775,14.318223015441895,6.69380875,14.249973015441896Q6.66554075,14.181733015441894,6.65112975,14.109283015441894Q6.63671875,14.036833015441895,6.63671875,13.962963015441893L6.63671875,8.333333015441895Q6.63671875,8.259464515441895,6.65112975,8.187015015441894Q6.66554075,8.114566015441895,6.69380875,8.046320015441895Q6.72207775,7.9780750154418945,6.76311675,7.916655015441894Q6.80415575,7.8552360154418945,6.85638875,7.803003015441894Q6.90862175,7.750770015441894,6.97004075,7.7097310154418945Q7.03146075,7.668692015441895,7.09970575,7.640423015441894Q7.16795175,7.612155015441894,7.24040075,7.5977440154418945Q7.31285025,7.5833330154418945,7.38671875,7.5833330154418945L10.93510875,7.5833330154418945Q11.00897875,7.5833330154418945,11.081418750000001,7.5977440154418945Q11.15386875,7.612155015441894,11.22211875,7.640423015441894Q11.29035875,7.668692015441895,11.35177875,7.7097310154418945Q11.41319875,7.750770015441894,11.46543875,7.803003015441894Q11.51766875,7.8552360154418945,11.558708750000001,7.916655015441894Q11.59974875,7.9780750154418945,11.628018749999999,8.046320015441895Q11.65627875,8.114566015441895,11.67069875,8.187015015441894Q11.685108750000001,8.259464515441895,11.685108750000001,8.333333015441895L11.685108750000001,13.962963015441893Q11.685108750000001,14.200793015441896,11.54804875,14.395163015441895Q11.46207875,14.517083015441894,11.33599875,14.596833015441895Q11.20990875,14.676573015441894,11.06290875,14.701993015441895Q10.91590875,14.727413015441893,10.77036875,14.694643015441894Q10.624828749999999,14.661873015441895,10.50289875,14.575903015441895L9.16090875,13.629633015441893ZM10.18510875,12.516413015441895L9.59311875,12.098993015441895Q9.49825875,12.032103015441894,9.38761875,11.997023015441894Q9.27697875,11.961933015441895,9.16090875,11.961933015441895Q9.04484875,11.961933015441895,8.93420875,11.997023015441894Q8.82356875,12.032103015441894,8.72870875,12.098993015441895L8.13671875,12.516413015441895L8.13671875,9.083333015441895L10.18510875,9.083333015441895L10.18510875,12.516413015441895Z" fill-rule="evenodd" fill="#333333" fill-opacity="1"/></g></g><g><g><path d="M13.02419376373291,21.00000241699219L13.02419376373291,11.851852416992188Q13.02419376373291,11.777983916992188,13.03860476373291,11.705534416992187Q13.05301576373291,11.633085416992188,13.08128376373291,11.564839416992188Q13.10955276373291,11.496594416992188,13.15059176373291,11.435174416992188Q13.19163076373291,11.373755416992188,13.24386376373291,11.321522416992188Q13.29609676373291,11.269289416992187,13.357515763732911,11.228250416992188Q13.418935763732911,11.187211416992188,13.48718076373291,11.158942416992188Q13.55542676373291,11.130674416992187,13.62787576373291,11.116263416992187Q13.70032526373291,11.101852416992188,13.77419376373291,11.101852416992188L23.00000376373291,11.101852416992188Q23.07386376373291,11.101852416992188,23.146313763732913,11.116263416992187Q23.21876376373291,11.130674416992187,23.287013763732908,11.158942416992188Q23.35525376373291,11.187211416992188,23.41667376373291,11.228250416992188Q23.47809376373291,11.269289416992187,23.530333763732912,11.321522416992188Q23.58256376373291,11.373755416992188,23.62360376373291,11.435174416992188Q23.66464376373291,11.496594416992188,23.69291376373291,11.564839416992188Q23.72117376373291,11.633085416992188,23.73558376373291,11.705534416992187Q23.75000376373291,11.777983916992188,23.75000376373291,11.851852416992188L23.75000376373291,21.00000241699219Q23.75000376373291,21.073872416992188,23.73558376373291,21.146322416992188Q23.72117376373291,21.21876241699219,23.69290376373291,21.287012416992187Q23.66464376373291,21.35526241699219,23.62360376373291,21.416672416992185Q23.58256376373291,21.478092416992187,23.530333763732912,21.530332416992188Q23.47809376373291,21.58256241699219,23.41667376373291,21.62360241699219Q23.35525376373291,21.664642416992187,23.287013763732908,21.692912416992186Q23.21876376373291,21.721182416992185,23.146313763732913,21.735592416992187Q23.07386376373291,21.75000241699219,23.00000376373291,21.75000241699219L13.77419376373291,21.75000241699219Q13.70032526373291,21.75000241699219,13.62787576373291,21.735592416992187Q13.55542676373291,21.721182416992185,13.48718076373291,21.692912416992186Q13.418935763732911,21.664642416992187,13.357515763732911,21.62360241699219Q13.29609676373291,21.58256241699219,13.24386376373291,21.530332416992188Q13.19163076373291,21.478092416992187,13.15059176373291,21.416672416992185Q13.10955276373291,21.355252416992187,13.08128376373291,21.287012416992187Q13.05301576373291,21.21876241699219,13.03860476373291,21.146322416992188Q13.02419376373291,21.073872416992188,13.02419376373291,21.00000241699219ZM14.52419376373291,12.601852416992188L14.52419376373291,20.25000241699219L22.25000376373291,20.25000241699219L22.25000376373291,12.601852416992188L14.52419376373291,12.601852416992188Z" fill="#333333" fill-opacity="1"/></g></g><g><path d="M8.056640625,2L8.056640625,7.98148Q8.056640625,8.05535,8.071051624999999,8.1278Q8.085462625,8.20025,8.113730625,8.26849Q8.141999625,8.336739999999999,8.183038625,8.39816Q8.224077625,8.459579999999999,8.276310625,8.51181Q8.328543625,8.56404,8.389962625,8.605080000000001Q8.451382625,8.64612,8.519627625,8.674389999999999Q8.587873625,8.70266,8.660322625,8.71707Q8.732772125,8.731480000000001,8.806640625,8.731480000000001Q8.880509125,8.731480000000001,8.952958625,8.71707Q9.025407625,8.70266,9.093653625,8.674389999999999Q9.161898625,8.64612,9.223318625,8.605080000000001Q9.284737625,8.56404,9.336970625,8.51181Q9.389203625,8.459579999999999,9.430242625,8.39816Q9.471281625,8.336739999999999,9.499550625,8.26849Q9.527818625,8.20025,9.542229625000001,8.1278Q9.556640625,8.05535,9.556640625,7.98148L9.556640625,2.75L20.121140625000002,2.75L20.121140625000002,11.85185Q20.121140625000002,11.92572,20.135540625,11.99817Q20.149940625,12.0706,20.178240625,12.1389Q20.206540625000002,12.2071,20.247540625,12.2685Q20.288640625,12.3299,20.340840625,12.3822Q20.393040624999998,12.4344,20.454440625,12.4755Q20.515940625,12.5165,20.584140625,12.5448Q20.652340625,12.573,20.724840625,12.5874Q20.797240625,12.6019,20.871140625000002,12.6019Q20.945040625,12.6019,21.017440625,12.5874Q21.089940625,12.573,21.158140625,12.5448Q21.226440625000002,12.5165,21.287840625,12.4755Q21.349240625,12.4344,21.401440625,12.3822Q21.453740625000002,12.3299,21.494740625,12.2685Q21.535840625,12.2071,21.564040625,12.1389Q21.592340625,12.0706,21.606740625,11.99817Q21.621140625000002,11.92572,21.621140625000002,11.85185L21.621140625000002,2Q21.621140625000002,1.9261314999999999,21.606740625,1.853682Q21.592340625,1.781233,21.564040625,1.712987Q21.535840625,1.644742,21.494740625,1.583322Q21.453740625000002,1.521903,21.401440625,1.46967Q21.349240625,1.417437,21.287840625,1.376398Q21.226440625000002,1.335359,21.158140625,1.30709Q21.089940625,1.278822,21.017440625,1.264411Q20.945040625,1.25,20.871140625000002,1.25L8.806640625,1.25Q8.732772125,1.25,8.660322625,1.264411Q8.587873625,1.278822,8.519627625,1.30709Q8.451382625,1.335359,8.389962625,1.376398Q8.328543625,1.417437,8.276310625,1.46967Q8.224077625,1.521903,8.183038625,1.583322Q8.141999625,1.644742,8.113730625,1.712987Q8.085462625,1.781233,8.071051624999999,1.853682Q8.056640625,1.9261314999999999,8.056640625,2Z" fill-rule="evenodd" fill="#333333" fill-opacity="1"/></g><g><path d="M16.514497187499998,7.05305L15.2710701875,7.92982Q15.0766991875,8.06687,14.8388671875,8.06687Q14.7649986875,8.06687,14.6925491875,8.05246Q14.6201001875,8.03805,14.5518541875,8.00978Q14.4836091875,7.98151,14.4221891875,7.94047Q14.3607701875,7.89944,14.3085371875,7.8472Q14.2563041875,7.79497,14.2152651875,7.73355Q14.1742261875,7.67213,14.1459571875,7.60388Q14.1176891875,7.53564,14.103278187499999,7.46319Q14.0888671875,7.39074,14.0888671875,7.31687L14.0888671875,2Q14.0888671875,1.9261314999999999,14.103278187499999,1.853682Q14.1176891875,1.781233,14.1459571875,1.712987Q14.1742261875,1.644742,14.2152651875,1.583322Q14.2563041875,1.521903,14.3085371875,1.46967Q14.3607701875,1.417437,14.4221891875,1.376398Q14.4836091875,1.335359,14.5518541875,1.30709Q14.6201001875,1.278822,14.6925491875,1.264411Q14.7649986875,1.25,14.8388671875,1.25L18.1901171875,1.25Q18.2639871875,1.25,18.3364371875,1.264411Q18.4088871875,1.278822,18.4771371875,1.30709Q18.5453771875,1.335359,18.6067971875,1.376398Q18.668217187499998,1.417437,18.7204471875,1.46967Q18.7726871875,1.521903,18.8137271875,1.583322Q18.854767187500002,1.644742,18.883027187499998,1.712987Q18.9112971875,1.781233,18.9257071875,1.853682Q18.9401171875,1.9261314999999999,18.9401171875,2L18.9401171875,7.31687Q18.9401171875,7.5547,18.803067187499998,7.74908Q18.7604971875,7.80944,18.7069671875,7.86035Q18.6534371875,7.91125,18.5910071875,7.95074Q18.528577187499998,7.99022,18.4596471875,8.016770000000001Q18.3907171875,8.04331,18.3179271875,8.055900000000001Q18.2451371875,8.06849,18.1712871875,8.06664Q18.0974471875,8.064779999999999,18.0253771875,8.04856Q17.9533171875,8.03233,17.8858071875,8.00236Q17.8182871875,7.97239,17.7579171875,7.92982L16.514497187499998,7.05305ZM17.4401171875,5.87033L16.9466971875,5.5224Q16.8518371875,5.45551,16.7411971875,5.42043Q16.6305671875,5.38535,16.514497187499998,5.38535Q16.3984271875,5.38535,16.2877871875,5.42043Q16.1771471875,5.45551,16.0822871875,5.5224L15.5888671875,5.87033L15.5888671875,2.75L17.4401171875,2.75L17.4401171875,5.87033Z" fill-rule="evenodd" fill="#333333" fill-opacity="1"/></g></g></g></svg>