<svg xmlns="http://www.w3.org/2000/svg" xmlns:xlink="http://www.w3.org/1999/xlink" fill="none" version="1.1" width="100" height="100" viewBox="0 0 100 100"><defs><mask id="master_svg0_3847_31571" style="mask-type:alpha" maskUnits="userSpaceOnUse"><g><rect x="0" y="0" width="100" height="100" rx="0" fill="#FFFFFF" fill-opacity="1"/></g></mask></defs><g mask="url(#master_svg0_3847_31571)"><g><g><path d="M45.5114,89.9864C33.9578,89.9864,22.4035,89.9676,10.84703,90C8.110299999999999,90.0082,6.00058,88.2943,5.02109,85.9826C4.5302500000000006,84.8204,4.35548,83.6153,4.35766,82.3604Q4.3700399999999995,75.5678,4.35766,68.77510000000001C4.35766,68.1165,4.35766,68.1315,3.71608,68.1104C3.28933,68.0961,2.809416,68.261,2.458403,67.9125C2.257408,67.7107,2.153269,67.4036,2.0149027,67.1394C1.99862238,67.0789,1.99563655,67.0154,2.00616389,66.95349999999999Q2.00616389,59.2387,2.00616389,51.5224C2.00616389,50.8088,2.41398,50.3775,3.1029,50.3466C3.35705,50.3353,3.61267,50.3466,3.86755,50.3414C4.2994,50.3331,4.35402,50.2789,4.35548,49.8438C4.35548,49.2416,4.35548,48.6394,4.35548,48.0372C4.35548,44.0854,4.3634900000000005,40.1335,4.35111,36.1824C4.3467400000000005,34.8749,4.50185,33.6096,5.04803,32.4187C5.84255,30.6875,7.01793,29.3694,8.834900000000001,28.7838C9.194289999999999,28.6783,9.56129,28.6028,9.93236,28.558C10.34746,28.4977,10.4232,28.4353,10.42392,27.9836C10.42392,26.3652,10.42392,24.7469,10.42392,23.128500000000003C10.42392,22.200400000000002,10.4079,21.270699999999998,10.45451,20.34337C10.63002,16.81831,12.2504,14.176210000000001,15.1371,12.35308C16.6613,11.389582,18.3501,11.0026762,20.1299,11.0026762Q44.2515,11.0026762,68.3724,11.0026762C71.9408,11.0026762,75.5092,10.99665418,79.0776,11.0026762C82.1216,11.00945054,84.6756,12.16264,86.6302,14.59473C88.1355,16.46753,88.7901,18.652720000000002,88.7836,21.0916C88.7625,29.4206,88.7836,37.7504,88.7625,46.0824C88.7625,46.6605,88.9409,46.9187,89.4448,47.1641C91.7256,48.2612,93.7309,49.8871,95.305,51.9153C97.1941,54.3154,98.4093,57.2056,98.818,60.2707C98.9892,61.5089,99.0569,62.7464,98.9455,63.9839C98.4852,69.10249999999999,96.3049,73.2712,92.3425,76.3852C91.3798,77.138,90.2539,77.6785,89.1951,78.3017C88.9205,78.4628,88.7545,78.6284,88.7661,78.995C88.7968,79.6976,88.7859,80.4014,88.7333,81.1027C88.442,84.4087,87.0132,87.0387,84.2729,88.8227C82.986,89.6612,81.5361,89.9902,80.0126,89.9902Q62.77,89.9834,45.5114,89.9864ZM86.7562,27.0088L86.6535,26.9908C86.5479,27.1082,86.4416,27.2249,86.3374,27.343C85.1902,28.6456,83.7245,29.6046,82.0947,30.1191C81.0133,30.4676,79.8859,30.5655,78.752,30.5625C76.895,30.558,75.038,30.5625,73.181,30.5625L55.3754,30.5625C54.8416,30.5625,54.7739,30.6724,54.9618,31.1775C55.0851,31.4903,55.1899,31.8105,55.2757,32.1365C55.6704,33.7488,55.8889,35.3868,55.7935,37.051100000000005C55.7367,38.0372,55.6078,39.018699999999995,55.4978,40.001000000000005C55.4679,40.2652,55.5167,40.4399,55.7476,40.6032C56.923,41.4184,58.086,42.2532,59.2526,43.0812C59.8811,43.5268,60.5125,43.9679,61.1358,44.4218C61.7592,44.8757,61.8575,45.551,61.4038,46.0606C61.0477,46.461,60.5343,46.4715,59.9867,46.0824C58.1814,44.8027,56.3731,43.5231,54.5744,42.2329C53.3757,41.3718,52.0801,41.134699999999995,50.7577,41.7715C48.1236,43.0398,47.8228,46.5777,50.1634,48.3654C51.0373,49.0338,51.9578,49.6398,52.8579,50.2774C53.9044,51.0218,54.9552,51.7603,55.9894,52.5198C56.4263,52.8419,56.5151,53.3606,56.2573,53.8145C55.9092,54.428,55.3106,54.4919,54.6377,54.0155C53.0065,52.848,51.365,51.697,49.741,50.519C49.4119,50.2804,49.1737,50.2774,48.8467,50.5258C46.5542,52.2706,43.9675,53.2703,41.1543,53.6075C38.5669,53.9176,36.0187,53.6376,33.5638,52.7042C31.9033,52.0751,30.351,51.1752,28.9657,50.0388C26.344,47.8874,24.5183,45.1543,23.4624,41.8806C23.015,40.4876,22.7582,39.0369,22.6992,37.570499999999996C22.6045,35.3326,22.8172,33.1429,23.5731,31.0284C23.702,30.6694,23.6291,30.5678,23.2315,30.5678Q16.8412,30.5678,10.45086,30.5678C9.185179999999999,30.5678,8.228259999999999,31.1842,7.4789,32.180099999999996C6.64142,33.292699999999996,6.33629,34.574600000000004,6.34139,35.9747C6.35959,40.5663,6.3494,45.158,6.35085,49.7497C6.35085,50.3278,6.35085,50.3293,6.9218,50.3293Q13.658,50.3293,20.3943,50.3331C21.7488,50.3331,23.0684,50.5438,24.3173,51.1385C26.6856,52.2676,28.2666,54.1299,29.0429,56.6794C29.5075,58.2067,29.5134,59.7807,29.1449,61.3561C28.8477,62.6637,28.2536,63.8792,27.4116,64.9023C25.6726,67.0099,23.4449,68.09909999999999,20.7577,68.1074Q13.784,68.1277,6.81183,68.1074C6.47976,68.1074,6.33993,68.1827,6.34066,68.5643Q6.35741,75.6024,6.34649,82.6405C6.33784,83.4557,6.48458,84.2647,6.77834,85.0214C7.42574,86.6654,8.835619999999999,87.957,10.84412,87.957Q33.5471,87.9186,56.2501,87.9427Q68.1561,87.9427,80.0636,87.9427C81.5987,87.9427,82.9657,87.4633,84.1469,86.4373C85.213,85.5122,85.9165,84.3462,86.3818,82.9965C86.7525,81.9224,86.8275,80.8226,86.8188,79.7033C86.8188,79.2607,86.7722,79.2607,86.3578,79.3352C85.3914,79.5091,84.4236,79.7214,83.4448,79.7869C80.7387,79.9728,78.1418,79.4669,75.6592,78.3213C71.7459,76.5156,68.6626,73.2115,67.0579,69.104C66.5248,67.725,66.1199,66.31360000000001,65.9961,64.8315C65.9168,63.8838,65.88329999999999,62.9324,65.8447,61.9817C65.8352,61.746,65.8024,61.5947,65.5497,61.5037C65.19290000000001,61.3843,64.85220000000001,61.2184,64.536,61.0099C62.5195,59.606,60.5154,58.1841,58.5091,56.7637C58.0969,56.4716,57.9199,55.9952,58.0547,55.597C58.3074,54.8495,59.0087,54.6357,59.667,55.1047Q62.4343,57.0716,65.2016,59.0362C66.3574,59.8574,67.6136,60.0486,68.8931,59.4698C71.5148,58.2827,71.8461,54.6929,69.6636,52.9812C68.4416,52.0222,67.1439,51.1664,65.8767,50.2623C65.1485,49.7429,64.4159,49.2363,63.7051,48.6951C63.2798,48.3707,63.1953,47.7166,63.4808,47.3169C63.8056,46.8577,64.3074,46.7478,64.7916,47.0504C65.1128,47.2499,65.4208,47.4719,65.7303,47.691C67.2458,48.7636,68.7606,49.8385,70.2913,50.9232C74.9157,46.2231,80.3782,44.589,86.7496,46.0914L86.7562,27.0088ZM49.6049,13.0343Q34.9504,13.0343,20.2974,13.0343C18.3953,13.0343,16.6562,13.53562,15.1764,14.81076C13.6085,16.15815,12.5773,17.86084,12.49,19.980539999999998C12.3793,22.6859,12.4368,25.400199999999998,12.4215,28.1101C12.4215,28.4112,12.5708,28.5226,12.8584,28.5226Q18.5387,28.5151,24.219,28.5226C24.4674,28.5226,24.6502,28.4473,24.7842,28.2004C25.3895,27.0877,26.1127,26.048000000000002,26.9405,25.1006C29.6051,22.0709,32.912099999999995,20.24776,36.8147,19.62977C40.6131,19.060180000000003,44.4855,19.85746,47.7828,21.887999999999998C50.2333,23.415300000000002,52.1887,25.462,53.6029,28.0453C53.7653,28.3427,53.9583,28.5309,54.3413,28.5301Q66.7382,28.5128,79.1344,28.5158C80.6753,28.5158,82.1333,28.1394,83.431,27.2362C85.2516,25.970100000000002,86.3899,24.2147,86.7321,21.981299999999997C87.0234,20.077640000000002,86.6804,18.25904,85.6398,16.62936C84.7797,15.281220000000001,83.6429,14.26427,82.1784,13.65079C81.1268,13.21044,80.0359,13.03957,78.9108,13.04032L49.6049,13.0343ZM42.7113,40.2238C43.1191,40.299099999999996,43.449,40.3209,43.7556,40.4196C44.9754,40.814,46.1916,41.2355,47.4092,41.641999999999996C47.6073,41.708200000000005,47.7624,41.701499999999996,47.919,41.5095C49.3114,39.8339,51.0934,39.2016,53.1885,39.4643C53.4798,39.5005,53.5774,39.4071,53.6255,39.1301C54.0089,36.886700000000005,53.8898,34.582300000000004,53.2774,32.3939C52.7645,30.5372,51.9026,28.8032,50.7409,27.2911C48.3253,24.1334,45.1786,22.2267,41.3437,21.650100000000002C38.5101,21.224800000000002,35.7442,21.6095,33.1145,22.8853C31.1417,23.8294,29.397,25.215899999999998,28.0074,26.9441C26.4134,28.9084,25.3397,31.2665,24.8912,33.788C24.5978,35.4314,24.5624,37.113,24.7863,38.768100000000004C25.0223,40.5694,25.591,42.3071,26.4613,43.8867C26.6069,44.1561,26.7249,44.1877,26.966,44.0101C28.2685,43.0575,29.6677,42.254599999999996,31.1388,41.615700000000004C32.5072,41.03,33.906099999999995,40.555,35.3626,40.2984C35.4675,40.2803,35.5621,40.199,35.6619,40.147800000000004C35.5978,40.053,35.5527,39.929500000000004,35.4667,39.8678C32.9703,38.0898,31.9035,34.5791,33.209199999999996,31.6005C34.3321,29.0412,36.2984,27.6825,38.9914,27.4966C40.3409,27.4033,41.6015,27.7977,42.7485,28.5542C45.2245,30.1921,46.2484,33.0262,45.6418,35.8459C45.2776,37.5275,44.3739,38.8862,42.9866,39.8798C42.897,39.9461,42.8366,40.066500000000005,42.7113,40.2238ZM94.9656,70.2979C95.0705,70.1635,95.1677,70.023,95.257,69.8771C95.982,68.5019,96.4943,67.0178,96.7753,65.47890000000001C97.1503,63.4524,97.1102,61.3671,96.6574,59.3576C96.2648,57.6075,95.632,55.9703,94.6707,54.4814C91.9951,50.3278,88.225,48.047,83.4346,47.6074C81.2426,47.4057,79.1118,47.7866,77.0618,48.6334C75.2003,49.3947,73.51,50.5433,72.0959,52.0079C71.9087,52.2014,71.8658,52.3542,72.0187,52.5905C73.1722,54.3745,73.4024,56.2744,72.6013,58.2646C71.8061,60.2413,70.3066,61.3343,68.3163,61.7543C67.8153,61.8605,67.8065,61.8296,67.8,62.3565C67.7712,64.6311,68.2254,66.8845,69.1305,68.958C69.3264,69.4096,69.5754,69.83189999999999,69.7626,70.1947C71.2774,69.357,72.7105,68.5033,74.1961,67.7604C75.6818,67.01740000000001,77.3167,66.6245,79.0186,66.2512C74.9448,63.442,75.2594,58.4754,77.4281,55.9327C79.9325,52.997,84.1898,52.8773,86.778,55.2974C88.0619,56.5017,88.8324,57.9824,88.9584,59.7746C89.1513,62.5214,88.0692,64.64410000000001,85.7767,66.2594C89.1929,66.90379999999999,92.2151,68.2324,94.9656,70.2979ZM12.8541,66.0758L12.8541,66.0637C15.6214,66.0637,18.3887,66.07650000000001,21.156,66.057C22.1028,66.05019999999999,23.0029,65.76939999999999,23.8316,65.3095C25.5444,64.3603,26.7016,62.9309,27.1954,60.9655C27.6323,59.2297,27.4794,57.539,26.6244,55.9869C25.3194,53.6165,23.2927,52.4114,20.6528,52.4016C15.2908,52.382,9.927990000000001,52.3956,4.565939999999999,52.3963C4.0102899999999995,52.3963,3.98917,52.4204,3.98917,52.9865Q3.98917,59.2688,3.98917,65.55109999999999C3.98917,66.072,3.98917,66.078,4.48656,66.078Q8.668859999999999,66.0758,12.8541,66.0758ZM82.4341,68.08330000000001C82.4341,68.0472,82.429,68.0118,82.426,67.9764C81.1997,68.1195,79.9638,68.20230000000001,78.7491,68.42060000000001C77.4383,68.6524,76.1763,69.098,74.9477,69.6445C73.6514,70.22720000000001,72.4156,70.9442,71.2592,71.78450000000001C71.0188,71.9577,70.9846,72.13380000000001,71.2111,72.3574C71.9393,73.07249999999999,72.6108,73.85079999999999,73.3834,74.50489999999999C75.8245,76.5704,78.6683,77.6047,81.799,77.765C84.2234,77.8892,86.5377,77.3706,88.7326,76.2821C90.615,75.3493,92.2834,74.01230000000001,93.6264,72.3604C93.823,72.1202,93.823,71.9607,93.5791,71.7808C91.8074,70.46809999999999,89.8354,69.47149999999999,87.7451,68.8323C86.0177,68.3061,84.2481,68.0111,82.4341,68.08330000000001ZM39.558,51.6903C40.1472,51.621,41.1128,51.5352,42.069,51.3892C42.5911,51.3071,43.0995,51.1235,43.6114,50.9759C44.9994,50.5694,46.2542,49.8845,47.4514,49.0722C47.7245,48.8863,47.6932,48.723,47.5476,48.4279C47.2432,47.8088,46.9868,47.1657,46.7807,46.5047C46.5207,45.6767,46.5382,44.8268,46.7632,43.983C46.8317,43.7263,46.7895,43.5442,46.4829,43.4478C45.8486,43.2498,45.2303,42.9962,44.6018,42.774100000000004C43.1919,42.278099999999995,41.7245,42.066500000000005,40.2506,41.9815C37.6303,41.8256,35.0081,42.250299999999996,32.5596,43.2273C30.9977,43.8356,29.5183,44.6497,28.1581,45.6496C27.794,45.9175,27.7838,45.98,28.0853,46.336C31.0252,49.7941,34.7152,51.5894,39.558,51.6903ZM82.4421,55.6451C79.8743,55.551,77.8097,57.8672,77.8119,60.349C77.7993,62.9714,79.8359,65.1132,82.3729,65.1454C84.9217,65.1755,86.9929,63.0219,87.0191,60.4032C87.0438,57.8469,84.9327,55.5759,82.4421,55.6451ZM39.2114,39.0315C41.7551,39.0955,43.8379,36.9239,43.8364,34.2953C43.8478,31.668,41.7904,29.532,39.2485,29.532C36.6822,29.541,34.6606,31.5802,34.6351,34.2742C34.6057,36.9035,36.6676,39.046800000000005,39.2114,39.0315Z" fill="#2D2E33" fill-opacity="1"/><path d="M45.5113,90.7364L80.0126,90.7402Q82.7041,90.7402,84.682,89.4512Q88.9982,86.6414,89.4812,81.1587Q89.5629,80.0685,89.5163,78.9847Q89.5406,78.9685,89.5755,78.9481Q89.8681,78.7758,90.4722,78.4397Q92.0688,77.5513,92.806,76.9749Q98.9657,72.1339,99.6925,64.0512Q99.8523,62.2759,99.5615,60.1716Q98.9094,55.2821,95.8975,51.4555Q93.3962,48.2326,89.7732,46.4898Q89.5797,46.3955,89.5457,46.3426Q89.5125,46.2909,89.5125,46.083L89.5336,21.093600000000002Q89.5445,17.02344,87.2148,14.1249Q84.1118,10.263877,79.0781,10.252676L75.5089,10.25L68.3724,10.252676L20.1299,10.252676Q17.0562,10.252676,14.7366,11.718957Q9.98352,14.72077,9.70546,20.30572Q9.66733,21.0643,9.6726,22.5639Q9.673919999999999,22.9408,9.673919999999999,23.128500000000003L9.67393,27.8357Q9.14151,27.9122,8.623719999999999,28.0641L8.61423,28.0669L8.60482,28.0699Q5.804320000000001,28.9726,4.36632,32.1061Q3.5931100000000002,33.7919,3.6011100000000003,36.1827L3.60548,47.9137L3.60548,48.0373L3.60548,49.5925Q3.57747,49.5923,3.54887,49.5921Q3.23536,49.59,3.06934,49.5974Q2.246427,49.6342,1.7486760000000001,50.1659Q1.256164,50.692,1.256164,51.5224L1.256164,66.9049Q1.2334239999999999,67.1215,1.2906499999999999,67.33420000000001L1.312133,67.41409999999999L1.3504990000000001,67.4873Q1.380189,67.544,1.4431340000000001,67.6785Q1.688091,68.2019,1.9299761,68.4447Q2.432627,68.94380000000001,3.4324399999999997,68.87129999999999Q3.53884,68.86359999999999,3.60771,68.86099999999999L3.61275,78.4378L3.60766,82.3591Q3.60384,84.5546,4.33052,86.2752Q5.175879999999999,88.2703,6.83597,89.4693Q8.6186,90.7567,10.84733,90.75L45.5113,90.7364ZM83.8637,88.1942Q82.2585,89.2402,80.0126,89.2402L45.5115,89.2364L10.84674,89.25Q9.10158,89.2552,7.71421,88.2533Q6.39362,87.2995,5.711650000000001,85.69Q5.104369999999999,84.2521,5.10766,82.3617L5.1127400000000005,78.4397L5.10766,68.7747Q5.10766,68.0034,4.83913,67.7063Q4.550520000000001,67.387,3.78238,67.3622L3.74071,67.3608Q3.59136,67.3558,3.3239900000000002,67.3752Q3.00504,67.3983,2.98683,67.3802Q2.935619,67.3288,2.801703,67.0427Q2.777367,66.9907,2.756164,66.9464L2.756164,51.5224Q2.756164,51.1129,3.13646,51.0959Q3.2635899999999998,51.0902,3.53866,51.0921Q3.76492,51.0937,3.88306,51.0912Q5.10138,51.0679,5.10547,49.8463L5.10548,48.0372L5.10548,47.9137L5.10111,36.1821Q5.09421,34.1171,5.72975,32.7314Q6.88994,30.2033,9.05565,29.5006Q9.5314,29.3619,10.02234,29.3025L10.0312,29.3015L10.04004,29.3002Q11.17207,29.136,11.17392,27.9848L11.17392,23.128500000000003Q11.17392,22.938200000000002,11.17259,22.5586Q11.16746,21.0994,11.20356,20.38101Q11.44294,15.57318,15.5376,12.98721Q17.4906,11.752676,20.1299,11.752676L68.3724,11.752676L75.5095,11.75L79.077,11.752676Q83.3916,11.762279,86.0456,15.06456Q88.0431,17.54977,88.0336,21.0896L88.0125,46.0818Q88.0125,47.3008,89.1165,47.8384Q92.4277,49.4313,94.7125,52.3752Q97.4768,55.8873,98.0746,60.3698Q98.343,62.3118,98.1985,63.9167Q97.5297,71.35470000000001,91.8791,75.7956Q91.2371,76.2975,89.7429,77.1289Q89.123,77.4738,88.8146,77.6554Q87.9886,78.1401,88.0165,79.0188Q88.0609,80.0383,87.9854,81.0466Q87.5681,85.7826,83.8637,88.1942ZM78.911,12.29032L78.9107,12.29032L49.605,12.2843L20.2974,12.2843Q16.9595,12.2843,14.6869,14.24259Q11.8763,16.65787,11.74059,19.94965Q11.66266,21.854100000000003,11.67206,25.655Q11.67611,27.2903,11.67151,28.1058Q11.6715,28.666,12.0323,28.9885Q12.3502,29.2726,12.8584,29.2726L18.5392,29.2688L24.2185,29.2726Q25.0556,29.2726,25.4433,28.5582Q26.3142,26.9573,27.5053,25.594099999999997Q31.3174,21.2596,36.932,20.37054Q39.6429,19.96406,42.3354,20.51842Q45.0291,21.073,47.3895,22.526600000000002Q50.9371,24.7376,52.945,28.4055Q53.4237,29.2819,54.3428,29.2801L79.1348,29.2658Q81.8279,29.2658,83.8595,27.8517Q86.9171,25.7254,87.4735,22.094900000000003Q87.9657,18.87817,86.2719,16.22571Q84.815,13.94213,82.4682,12.95903Q80.8684,12.28913,78.911,12.29032ZM49.6047,13.7843L78.9107,13.79032L78.9113,13.79032Q80.5673,13.78922,81.8886,14.34255Q83.8028,15.14439,85.0077,17.03302Q86.3975,19.209519999999998,85.9908,21.8677Q85.532,24.8616,83.0025,26.6206Q81.3572,27.7658,79.1339,27.7658L54.3399,27.7801L54.3286,27.7916Q54.3125,27.78,54.2608,27.6852Q52.0641,23.6726,48.176,21.2494Q45.5905,19.65715,42.6379,19.049239999999998Q39.6841,18.4411,36.6974,18.889Q30.5484,19.86272,26.3757,24.6072Q25.1018,26.0651,24.1633,27.7725L18.5382,27.7688L13.1729,27.7724Q13.1754,26.980600000000003,13.1721,25.6513Q13.1627,21.883,13.2393,20.01143Q13.3482,17.37078,15.666,15.37892Q17.5166,13.7843,20.2974,13.7843L49.6047,13.7843ZM44.9085,35.688199999999995Q44.4235,37.928200000000004,42.5499,39.2701L42.5406,39.2768Q42.3867,39.390699999999995,42.2145,39.6345Q42.1569,39.7161,42.1246,39.756699999999995L41.346,40.7345L42.5752,40.9614Q42.7274,40.9895,42.9941,41.029399999999995Q43.3826,41.0874,43.526,41.1335Q44.3074,41.3862,45.8747,41.9165Q46.7384,42.2087,47.1717,42.3534Q47.9784,42.6232,48.5002,41.983599999999996Q50.2697,39.8542,53.0952,40.2085Q54.1763,40.342600000000004,54.3644,39.2583Q54.976,35.6804,53.9996,32.1918Q53.1845,29.2407,51.3357,26.8342Q47.4976,21.8169,41.4552,20.90844Q36.8848,20.22247,32.787099999999995,22.2106Q29.6404,23.7164,27.4229,26.4741Q24.871,29.6189,24.1528,33.6566Q23.6892,36.2532,24.0431,38.8686Q24.4184,41.7331,25.8044,44.2486Q26.0685,44.7372,26.4966,44.8438Q26.9468,44.9559,27.4109,44.6139Q29.301,43.2315,31.4376,42.3036Q33.629999999999995,41.365300000000005,35.4928,41.037Q35.705,41.0004,35.9618,40.840900000000005Q35.9993,40.8177,36.0043,40.8151L36.757,40.4289L36.2834,39.727900000000005Q36.2808,39.7241,36.2595,39.686Q36.0986,39.3983,35.9043,39.258700000000005Q34.2208,38.0596,33.634,35.980599999999995Q33.0362,33.863,33.896100000000004,31.9016Q35.3899,28.497,39.0431,28.2448Q40.7393,28.1275,42.3355,29.1803Q43.9679,30.2601,44.6516,32.0275Q45.3228,33.7625,44.9085,35.688199999999995ZM44.2661,39.797Q45.8849,38.2672,46.375,36.003699999999995Q46.8836,33.6396,46.0506,31.4863Q45.1943,29.2729,43.1614,27.9281Q41.1418,26.5961,38.9398,26.7484Q34.3811,27.0631,32.5223,31.2994Q31.4466,33.7532,32.1904,36.3881Q32.7637,38.4195,34.1869,39.7817Q32.604600000000005,40.1725,30.84,40.9277Q28.7675,41.8279,26.9084,43.1291Q25.8395,41.0328,25.5296,38.667500000000004Q25.2072,36.2852,25.6296,33.9193Q26.28,30.2631,28.5918,27.4141Q30.5956,24.9222,33.441900000000004,23.5601Q37.1216,21.7748,41.2322,22.3918Q46.6747,23.2101,50.1462,27.748Q51.8166,29.9224,52.5551,32.596000000000004Q53.3972,35.6048,52.9374,38.6839Q49.6376,38.4049,47.476,40.8735Q47.0601,40.734,46.3555,40.4957Q45.0369,40.049499999999995,44.2661,39.797ZM87.4993,47.0388L87.4996,46.0917L87.5064,26.3793L86.3738,26.18L86.0958,26.4893Q86.0675,26.5208,86.0057,26.589199999999998Q85.8521,26.7594,85.7747,26.8472Q84.1599,28.6807,81.8689,29.4039Q80.586,29.8174,78.754,29.8125L73.181,29.8125L55.3754,29.8125Q54.5741,29.8125,54.2732,30.2657Q53.9843,30.7008,54.2589,31.439Q54.4329,31.8809,54.5504,32.3273Q55.1683,34.852000000000004,55.0447,37.0082Q55.0009,37.767700000000005,54.8229,39.3031Q54.7753,39.713499999999996,54.7524,39.9176Q54.6582,40.7512,55.3144,41.2155Q56.1999,41.8297,57.9493,43.0747Q58.5294,43.4876,58.8185,43.6928Q58.9849,43.8108,59.3152,44.0441Q60.2389,44.6965,60.6944,45.0282Q60.9087,45.1842,60.933,45.3376Q60.9496,45.4428,60.8437,45.5619Q60.7295,45.6902,60.4211,45.471L57.1906,43.1793L55.0102,41.6225Q52.7341,39.9874,50.4323,41.0957Q49.2889,41.6463,48.6022,42.6667Q47.9517,43.6333,47.848,44.8077Q47.7447,45.977,48.2096,47.0561Q48.6983,48.1901,49.7082,48.9614Q50.3113,49.4228,51.548,50.2783Q52.1349,50.6843,52.4244,50.8894Q52.6496,51.0496,53.1045,51.3724Q54.7405,52.5331,55.5454,53.1243Q55.7156,53.2497,55.6052,53.4441Q55.5321,53.5728,55.4804,53.579Q55.3425,53.5955,55.0712,53.4034L52.7671,51.7636L50.1777,49.9092Q49.2775,49.2566,48.393,49.9286Q45.187,52.3687,41.065,52.8628Q37.2834,53.3161,33.8304,52.0032Q31.4376,51.0967,29.4414,49.4589Q25.7062,46.3939,24.1762,41.650400000000005Q23.5334,39.6488,23.4486,37.5403Q23.2997,34.021,24.2793,31.2809Q24.5109,30.6357,24.2035,30.2185Q23.9082,29.8178,23.2315,29.8178L10.45086,29.8178Q8.31789,29.8178,6.87961,31.7292Q5.5822,33.4527,5.5913900000000005,35.9774L5.6023499999999995,42.124300000000005L5.600849999999999,49.7496Q5.600849999999999,50.4905,5.887230000000001,50.7819Q6.17941,51.0793,6.9218,51.0793L20.3941,51.0831Q22.4563,51.0831,23.9949,51.8157Q27.2506,53.3679,28.3254,56.8979Q28.9428,58.9271,28.4146,61.1853Q28.0008,63.0062,26.8325,64.4257Q24.4229,67.3461,20.7554,67.3574L6.81183,67.3574Q6.26859,67.3574,5.95884,67.6272Q5.58948,67.94890000000001,5.59066,68.5658L5.6006599999999995,76.0982L5.59649,82.64Q5.58189,84.0119,6.07918,85.2928Q6.67059,86.7946,7.84249,87.6994Q9.14773,88.7071,10.84412,88.707L39.7479,88.6835L56.2496,88.6927L80.0636,88.6927Q82.6939,88.6927,84.6387,87.0035Q86.2866,85.5736,87.0909,83.241Q87.5852,81.8084,87.5688,79.6975Q87.5688,78.9972,87.184,78.7182Q86.8596,78.483,86.2251,78.5971Q86.0244,78.6332,85.6279,78.7077Q84.1294,78.9894,83.3948,79.0385Q79.5724,79.3011,75.9734,77.6403Q73.1721,76.3477,71.0411,74.0641Q68.9077,71.7779,67.7565,68.83109999999999Q66.8972,66.60810000000001,66.7435,64.76910000000001Q66.6735,63.9324,66.6056,62.2375Q66.5975,62.0352,66.5941,61.9512Q66.5586,61.0701,65.804,60.7981L65.7959,60.7952L65.7876,60.7924Q65.3485,60.6455,64.9582,60.3898L58.941,56.1506Q58.7136,55.9894,58.7651,55.8373Q58.8313,55.6414,58.9276,55.612Q59.0389,55.578,59.2318,55.7155L64.7673,59.6476Q66.9271,61.1824,69.2022,60.1531Q70.3444,59.636,71.0439,58.6216Q71.6976,57.6737,71.8255,56.5037Q71.9522,55.3451,71.5304,54.2752Q71.0835,53.1417,70.1264,52.3911Q69.2644,51.7146,67.4829,50.4737Q66.6996,49.9281,66.3123,49.6518Q66.1352,49.5255,65.78370000000001,49.2766Q64.6888,48.5015,64.15950000000001,48.0984Q64.0863,48.0426,64.06790000000001,47.9216Q64.05080000000001,47.8092,64.0911,47.7528Q64.2166,47.5754,64.3942,47.6864Q64.66149999999999,47.8525,65.19210000000001,48.2288Q65.263,48.2791,65.2971,48.3032L70.3784,51.9042L70.826,51.4492Q77.488,44.678,86.5775,46.8214L87.4993,47.0388ZM85.9999,45.164Q76.9762,43.428,70.2113,49.9473L66.1636,47.0788Q66.1293,47.0545,66.0599,47.0053Q65.4919,46.6025,65.1891,46.4144Q64.5723,46.029,63.9239,46.1636Q63.2839,46.2965,62.8705,46.881Q62.4764,47.4327,62.5849,48.1469Q62.6944,48.8674,63.2507,49.2918Q63.8008,49.7107,64.917,50.5009Q65.267,50.7487,65.4411,50.8729Q65.83529999999999,51.1541,66.6256,51.7046Q68.372,52.921,69.2007,53.5714Q69.8374,54.0707,70.1349,54.8253Q70.4208,55.5504,70.3344,56.3407Q70.1442,58.08,68.584,58.7865Q67.0938,59.4606,65.636,58.4248L60.1021,54.4938Q59.3075,53.9278,58.4898,54.1773Q57.657,54.4315,57.3442,55.3566Q57.1556,55.9139,57.3767,56.4891Q57.5833,57.0269,58.0771,57.3768L64.1135,61.6297L64.1232,61.636Q64.5868,61.9417,65.10040000000001,62.139Q65.1031,62.2054,65.10679999999999,62.2975Q65.176,64.02510000000001,65.2487,64.8939Q65.4203,66.9478,66.3593,69.3769Q67.6151,72.59129999999999,69.9445,75.0875Q72.2762,77.5863,75.3449,79.0023Q79.2923,80.8239,83.4949,80.5352Q84.3187,80.4801,85.905,80.1819Q85.9893,80.166,86.066,80.1517Q86.0332,81.7078,85.6728,82.7521Q84.9997,84.7043,83.655,85.871Q82.1334,87.1927,80.0636,87.1927L56.2505,87.1927L39.7467,87.1835L10.84412,87.207Q9.659379999999999,87.207,8.75914,86.512Q7.91468,85.8601,7.47749,84.7499Q7.08488,83.7387,7.09649,82.641L7.10066,76.0962L7.09105,68.8574L20.76,68.8574Q25.1317,68.84389999999999,27.9907,65.3789Q29.3847,63.6851,29.8752,61.5269Q30.4951,58.8762,29.7604,56.4609Q28.4929,52.2984,24.6398,50.4613Q22.7952,49.5831,20.3945,49.5831L7.10089,49.5794L7.10235,42.1216L7.09138,35.971900000000005Q7.08403,33.9518,8.07819,32.6311Q9.066410000000001,31.3178,10.45086,31.3178L22.6852,31.3178Q21.803,34.129999999999995,21.9498,37.6006Q22.0428,39.913,22.7486,42.1109Q24.414,47.2738,28.49,50.6186Q30.6763,52.4123,33.2973,53.4052Q37.0954,54.8493,41.2436,54.3521Q45.7694,53.8096,49.2984,51.1245Q49.3014,51.1266,49.3044,51.1288L51.8974,52.9857L54.2043,54.6275Q54.9469,55.1534,55.6583,55.0684Q56.4627,54.9723,56.9095,54.1849Q57.2428,53.5981,57.1198,52.9729Q56.9928,52.3278,56.4333,51.9153Q55.6186,51.3169,53.9725,50.149Q53.5175,49.8262,53.2914,49.6654Q52.9951,49.4554,52.4013,49.0447Q51.1942,48.2096,50.6187,47.7694Q49.1887,46.6771,49.3421,44.9397Q49.4948,43.212,51.083,42.447199999999995Q52.5823,41.725300000000004,54.1386,42.8433L56.3227,44.4027L59.5522,46.6937Q60.1631,47.1278,60.7797,47.1175Q61.478,47.1058,61.964,46.5593Q62.5422,45.9098,62.4145,45.103Q62.2932,44.3368,61.5773,43.8155Q61.1134,43.4778,60.1806,42.8189Q59.8521,42.5869,59.6867,42.4696Q59.3971,42.2641,58.819,41.8527Q57.1286,40.6496,56.2484,40.0379Q56.271,39.8375,56.3129,39.475899999999996Q56.496,37.8972,56.5422,37.094Q56.6787,34.713499999999996,56.001,31.9456Q55.916,31.6226,55.8103,31.3125L73.181,31.3125L78.7501,31.3125Q80.8198,31.318,82.3205,30.8343Q84.4023,30.1771,86.0056,28.7422L85.9999,45.164ZM33.8851,34.2659L33.8851,34.2671Q33.8601,36.5453,35.4178,38.164500000000004Q36.982,39.7907,39.2042,39.7816Q41.4264,39.8331,43.0164,38.1956Q44.5877,36.5775,44.5864,34.2949Q44.5962,32.023700000000005,43.0401,30.4081Q41.4738,28.782,39.2485,28.782Q37.0006,28.7899,35.4529,30.3717Q33.9075,31.9513,33.8851,34.2659ZM36.4988,37.1246Q35.3665,35.947500000000005,35.385,34.2826L35.3851,34.2813Q35.4013,32.5693,36.5251,31.4207Q37.6337,30.2877,39.2485,30.282Q40.836,30.282,41.9597,31.4487Q43.0936,32.6259,43.0864,34.2957Q43.0874,35.969300000000004,41.9403,37.1506Q40.8035,38.3213,39.2302,38.2817L39.2185,38.2815L39.2069,38.2815Q37.6209,38.2911,36.4988,37.1246ZM27.1266,45.8771Q27.0789,46.3082,27.5129,46.8207L27.5139,46.8218Q32.1596,52.2863,39.5424,52.4401L39.5942,52.4412L39.6456,52.4351Q39.8049,52.4164,40.2069,52.3736Q41.4746,52.2386,42.1822,52.1306Q42.6244,52.0611,43.4323,51.813Q43.6921,51.7332,43.8191,51.6966Q45.7543,51.1299,47.8725,49.6929Q48.7227,49.1141,48.2201,48.0959Q47.7891,47.219,47.4967,46.2814Q47.1884,45.2994,47.4879,44.1763Q47.6117,43.7122,47.4477,43.3477Q47.2472,42.9018,46.7077,42.732299999999995Q46.3231,42.612300000000005,45.5493,42.323Q45.0872,42.1502,44.8517,42.067Q42.9097,41.383700000000005,40.2938,41.2327Q36.1523,40.9863,32.2817,42.530699999999996Q29.8425,43.4806,27.7139,45.0452Q27.1749,45.4419,27.1266,45.8771ZM28.8507,46.0744Q30.7137,44.751,32.8375,43.9239Q36.3973,42.5035,40.2074,42.730199999999996Q42.6117,42.869,44.352,43.4813Q44.5746,43.5599,45.024,43.728Q45.5935,43.9409,45.9708,44.0692Q45.6667,45.4602,46.0647,46.7279Q46.3661,47.6943,46.8002,48.6053Q45.0047,49.7864,43.4037,50.2552Q43.2644,50.2954,42.9919,50.3791Q42.2861,50.5958,41.9558,50.6478Q41.2819,50.7507,40.0481,50.882Q39.6962,50.9195,39.523,50.9393Q33.0028,50.7856,28.8507,46.0744ZM83.8951,66.6678L85.6376,66.9964Q90.5555,67.924,94.5153,70.8976L95.104,71.3397L95.5569,70.7593Q95.7405,70.524,95.8969,70.26830000000001L95.9093,70.2479L95.9204,70.2269Q97.0683,68.0495,97.5131,65.61359999999999Q98.1096,62.3905,97.389,59.1928Q96.7416,56.3063,95.3008,54.0746Q91.1031,47.558,83.5032,46.8606Q80.1387,46.5509,76.7754,47.9402Q73.8097,49.153,71.5563,51.487Q70.8702,52.1962,71.389,52.998Q72.9445,55.4035,71.9055,57.9846Q70.9183,60.4387,68.1614,61.0205Q68.1332,61.0265,68.0807,61.0374Q67.4877,61.1606,67.2626,61.4597Q67.0577,61.7319,67.05,62.3472Q67.0043,65.9619,68.4431,69.2581Q68.5922,69.6017,68.92,70.2082Q69.0429,70.4356,69.0961,70.5386L69.45,71.2247L70.1256,70.851Q70.593,70.5925,71.5046,70.0769Q73.518,68.93809999999999,74.5316,68.43119999999999Q76.0558,67.66890000000001,79.1793,66.9837L80.8656,66.6138L79.4443,65.6337Q76.8745,63.8616,76.6298,60.9296Q76.5242,59.6645,76.9047,58.4462Q77.2714,57.2722,77.9987,56.4194Q79.6425,54.4925,82.1132,54.3555Q84.5292,54.2214,86.2658,55.8452Q88.0478,57.5169,88.2102,59.8272Q88.4646,63.4479,85.3447,65.6464L83.8951,66.6678ZM87.4348,65.8601Q89.9644,63.3921,89.7065,59.722Q89.5029,56.8251,87.2902,54.7495Q85.0857,52.6882,82.0301,52.8578Q78.9182,53.0304,76.8574,55.446Q75.931,56.5322,75.4729,57.999Q75.005,59.4971,75.135,61.0544Q75.3738,63.9152,77.3739,65.8711Q75.1489,66.4454,73.8607,67.08959999999999Q72.8129,67.61359999999999,70.7662,68.7713Q70.375,68.9925,70.0653,69.1666Q69.9022,68.8524,69.8179,68.658Q68.5293,65.706,68.5489,62.4714Q72.0253,61.7059,73.2971,58.5447Q74.5824,55.3513,72.7756,52.3857Q74.7614,50.3844,77.3481,49.3266Q80.3695,48.0785,83.3661,48.3543Q90.2379,48.9849,94.0406,54.8882Q95.3365,56.8954,95.9257,59.5225Q96.5786,62.4201,96.0375,65.3441Q95.6656,67.381,94.7522,69.2175Q91.4012,66.8791,87.4348,65.8601ZM3.50304,66.5216Q3.7889999999999997,66.828,4.48656,66.828L4.48676,66.828L13.6041,66.82560000000001L13.6041,66.8144L15.2665,66.8159L17.430300000000003,66.8178L21.1582,66.807Q22.6988,66.7959,24.1955,65.9653Q27.1197,64.34479999999999,27.9228,61.1482Q28.6758,58.1566,27.2813,55.625Q25.1029,51.6681,20.6556,51.6516L12.5771,51.6414L4.5654699999999995,51.6463Q3.83318,51.6463,3.5317499999999997,51.956Q3.23917,52.2566,3.23917,52.9865L3.23917,65.55109999999999Q3.23917,66.2389,3.50304,66.5216ZM12.1041,65.326L12.1041,65.3137L12.9212,65.3137L15.2678,65.3159L17.4317,65.3178L21.1539,65.307Q22.3054,65.2987,23.4677,64.6537Q25.8235,63.3482,26.468,60.7827Q27.077,58.3631,25.9675,56.3487Q24.2146,53.1648,20.65,53.1516L12.5752,53.1414L4.73917,53.1462L4.73917,65.328L12.1041,65.326ZM86.1792,64.2909Q87.7463,62.6822,87.769,60.4107L87.769,60.4104Q87.7907,58.1763,86.2172,56.5226Q84.6198,54.8438,82.4454,54.8948Q80.2325,54.8232,78.6205,56.5135Q77.06,58.1498,77.0619,60.3496Q77.051,62.6139,78.5928,64.2353Q80.1445,65.8671,82.3633,65.89529999999999Q84.5907,65.9217,86.1792,64.2909ZM85.1305,57.5566Q86.2848,58.7697,86.2691,60.3957L86.2691,60.3959Q86.2523,62.0662,85.1047,63.2443Q83.9651,64.4142,82.3824,64.3955Q80.7958,64.37530000000001,79.6798,63.2017Q78.5539,62.0176,78.5619,60.3483Q78.5605,58.7499,79.706,57.5487Q80.8609,56.3377,82.4146,56.3946L82.4387,56.3955L82.4629,56.3948Q83.9848,56.3525,85.1305,57.5566ZM94.0242,71.1772Q91.2455,69.11840000000001,87.9644,68.1151L87.9637,68.1148Q85.4466,67.34819999999999,83.1248,67.3235L83.1098,67.1416L82.3392,67.2315Q81.9674,67.2748,81.2166,67.3509Q79.4858,67.5261,78.6165,67.6824Q76.7853,68.00630000000001,74.6429,68.95920000000001Q72.62,69.8686,70.8183,71.17779999999999Q70.3658,71.5038,70.3146,71.9701Q70.2594,72.4718,70.6842,72.8911Q70.9313,73.13380000000001,71.416,73.638Q72.3654,74.6257,72.8988,75.0773Q76.6511,78.2523,81.7607,78.514Q85.5306,78.7072,89.0658,76.954Q92.0678,75.4664,94.2084,72.8335Q94.5436,72.42410000000001,94.5164,72.0001Q94.4855,71.5173,94.0242,71.1772ZM81.6841,68.8109Q81.5344,68.8264,81.3677,68.8432Q79.6943,69.0127,78.8818,69.15870000000001Q77.2272,69.4514,75.2525,70.3298Q73.5728,71.0848,72.0532,72.1403Q72.2446,72.3355,72.4974,72.5985Q73.3934,73.53059999999999,73.868,73.9325Q77.2336,76.7802,81.8374,77.016Q85.2155,77.1891,88.3994,75.6102Q90.9542,74.3441,92.8201,72.1567Q90.3763,70.4213,87.5266,69.5498L87.5258,69.5495Q84.859,68.7373,82.4639,68.8327L81.6841,68.8638L81.6841,68.8109Z" fill-rule="evenodd" fill="#2D2E33" fill-opacity="1"/></g><g><path d="M53.97136729408203,47.12566448364258C53.93451063408203,46.76543548364258,54.11759843408203,46.41933548364258,54.43088843408203,46.25700848364258C54.76620243408203,46.05309808364258,55.18585243408203,46.07045998364258,55.504322434082034,46.30142148364258Q58.38160243408203,48.32703448364258,61.24651243408203,50.37221448364258C62.57191243408203,51.31313448364258,63.90023243408203,52.24878448364258,65.22058243408203,53.19722448364258C65.86428243408203,53.659404483642575,65.92398243408203,54.39181448364258,65.37858243408203,54.876584483642574C65.06248243408203,55.158104483642575,64.52868243408203,55.166384483642574,64.12448243408203,54.88109448364258Q61.446052434082034,52.98796448364258,58.770482434082034,51.087304483642576Q56.60323243408203,49.54796448364258,54.437440434082035,48.00787448364258C54.13813343408203,47.79484448364258,53.95461473408203,47.52009448364258,53.97136729408203,47.12566448364258Z" fill="#2D2E33" fill-opacity="1"/><path d="M53.22047143408203,47.146714483642576Q53.20524343408203,48.05144448364258,54.00254653408203,48.61890448364258L54.00296963408203,48.61921448364258L58.33687243408203,51.69925448364258L63.69203243408203,55.49383448364258Q64.19048243408203,55.84566448364258,64.78998243408203,55.84137448364258Q65.42818243408203,55.83680448364258,65.87678243408203,55.43718448364258Q66.57008243408202,54.82099448364258,66.49248243408204,53.96099448364258Q66.41778243408203,53.13347448364258,65.65578243408203,52.58642448364258L63.42087243408203,50.99399448364258L61.68026243408203,49.760364483642576L55.94463243408203,45.694279483642575Q55.52258243408203,45.38819748364258,55.00492243408203,45.36677948364258Q54.49917743408203,45.345854483642576,54.06284403408203,45.60322948364258Q53.63648143408203,45.832371483642575,53.40686943408203,46.266418483642575Q53.18747043408203,46.68116048364258,53.22047143408203,47.146714483642576ZM54.87233343408203,47.39683448364258L54.87191043408203,47.396534483642576Q54.71528143408203,47.284874483642575,54.720691434082035,47.15748448364258L54.72299343408203,47.10329048364258L54.71747243408203,47.049325483642576Q54.70813343408203,46.95805348364258,54.77592543408203,46.92292848364258L54.79868043408203,46.91113848364258L54.82057743408203,46.89782248364258Q54.94492343408203,46.82220548364258,55.064002434082035,46.90856448364258L60.81276243408203,50.98406448364258L62.55352243408203,52.21779448364258L64.78528243408203,53.80803448364258Q64.98558243408203,53.95178448364258,64.99858243408204,54.095874483642575Q65.00818243408203,54.202384483642575,64.88038243408204,54.31598448364258Q64.76718243408203,54.41672448364258,64.55698243408203,54.26835448364258L59.20410243408203,50.47536448364258L54.87233343408203,47.39683448364258Z" fill-rule="evenodd" fill="#2D2E33" fill-opacity="1"/></g><g><path d="M24.090199781188964,59.13102403564453C24.090199781188964,60.94511403564453,23.083039781188965,62.41295403564453,21.473619781188965,62.84125403564453C20.282949781188965,63.15891403564453,19.019439781188964,62.81641403564453,18.055978781188966,61.57515403564453C16.569634781188967,59.65944403564453,17.310986881188963,56.62140403564453,19.524119781188965,55.746729035644535C21.136449781188965,55.10916503564453,22.815779781188965,55.85512303564453,23.623399781188965,57.36059403564453C23.932899781188965,57.93719403564453,24.137529781188967,58.548414035644534,24.090199781188964,59.13102403564453ZM22.108649781188966,59.246954035644535C22.108649781188966,59.15963403564453,22.115199781188963,59.07081403564453,22.108649781188966,58.98424403564453C22.028539781188964,58.09300403564453,21.104399781188967,57.29661403564453,20.197739781188965,57.68578403564453C19.469499781188965,57.99741403564453,19.018719781188963,59.09565403564453,19.360259781188965,59.86871403564453C19.593299781188964,60.39562403564453,19.936299781188964,60.80963403564453,20.525449781188964,60.87361403564453C21.410269781188966,60.970714035644534,22.108649781188966,60.23830403564453,22.108649781188966,59.246954035644535Z" fill="#2D2E33" fill-opacity="1"/><path d="M24.840129781188963,59.16004403564453Q24.909179781188964,58.17027403564453,24.284299781188963,57.00604403564453L24.284219781188966,57.005884035644534Q23.540619781188965,55.61987403564453,22.159069781188965,55.05568803564453Q20.719149781188964,54.46766403564453,19.248449781188963,55.04922803564453Q18.259091781188964,55.44024423564453,17.571141781188963,56.28262603564453Q16.929363781188965,57.068474035644535,16.675000781188963,58.08920403564453Q16.422433781188964,59.10273403564453,16.609588781188965,60.11555403564453Q16.808206781188964,61.19042403564453,17.463511781188966,62.03502403564453Q18.299009781188964,63.11143403564453,19.435859781188967,63.50209403564453Q20.515519781188964,63.87309403564453,21.666499781188964,63.566034035644535Q23.131999781188966,63.17602403564453,23.999919781188964,61.93583403564453Q24.832589781188965,60.74600403564453,24.840129781188963,59.16004403564453ZM21.591979781188964,56.444358035644534Q22.473999781188965,56.80455403564453,22.962489781188964,57.71514403564453L22.962579781188964,57.71530403564453Q23.388309781188966,58.508434035644534,23.342659781188964,59.07029403564453L23.340199781188964,59.10061403564453L23.340199781188964,59.13102403564453Q23.340199781188964,60.26239403564453,22.770969781188967,61.07578403564453Q22.217039781188966,61.86731403564453,21.280739781188963,62.11648403564453Q19.743829781188964,62.52650403564453,18.648449781188965,61.11528403564453Q17.754049781188964,59.962524035644535,18.130489781188963,58.45190403564453Q18.503089781188965,56.95671403564453,19.799779781188963,56.44423003564453Q20.710149781188964,56.08424403564453,21.591979781188964,56.444358035644534ZM20.443639781188963,61.619134035644535L20.444479781188964,61.61922403564453Q21.470669781188967,61.731504035644534,22.187969781188965,60.989854035644534Q22.858649781188966,60.29639403564453,22.858649781188966,59.246954035644535Q22.858649781188966,59.227184035644534,22.859869781188966,59.17799403564453Q22.863729781188965,59.02293403564453,22.856509781188965,58.927624035644534Q22.762649781188966,57.88254403564453,21.908859781188966,57.25166403564453Q20.953059781188966,56.545414035644534,19.901919781188965,56.99658403564453Q19.062199781188966,57.355924035644534,18.679709781188965,58.330114035644534Q18.294279781188965,59.31180403564453,18.674229781188966,60.171804035644534Q19.257159781188964,61.48984403564453,20.443639781188963,61.619134035644535ZM21.109749781188967,59.947054035644534Q20.903239781188965,60.16056403564453,20.607269781188965,60.128084035644534L20.606429781188965,60.127994035644534Q20.279299781188964,60.09247403564453,20.046289781188964,59.56561403564453Q19.919109781188965,59.27776403564453,20.075949781188964,58.87830403564453Q20.229149781188966,58.48812403564453,20.493559781188964,58.374974035644534Q20.753819781188966,58.26326403564453,21.017439781188965,58.45805403564453Q21.329019781188965,58.68828403564453,21.360789781188963,59.040874035644535Q21.362319781188965,59.06103403564453,21.360339781188966,59.14072403564453Q21.358649781188966,59.20856403564453,21.358649781188966,59.246954035644535Q21.358649781188966,59.68969403564453,21.109749781188967,59.947054035644534Z" fill-rule="evenodd" fill="#2D2E33" fill-opacity="1"/></g></g></g></svg>