<svg xmlns="http://www.w3.org/2000/svg" xmlns:xlink="http://www.w3.org/1999/xlink" fill="none" version="1.1" width="252.0001983642578" height="62" viewBox="0 0 252.0001983642578 62"><g><path d="M0,2L0,48.9718L2.54534,48.9718L2.54534,25.0282L35.1719,25.0282L35.1719,48.9718L37.9486,48.9718L37.9486,2L35.1719,2L35.1719,22.6338L2.54534,22.6338L2.54534,2L0,2ZM43.2707,15.0282L40.7254,15.0282L55.1489,48.4085L52.0637,55.7324C50.9067,58.7606,49.4412,59.8169,46.7416,59.8169C46.2017,59.8169,45.6618,59.8169,44.4277,59.6056L44.4277,61.6479C45.7389,61.9296,46.356,62,47.2044,62C50.5211,62,52.6036,60.169,54.3776,55.662L70.7295,15.0282L68.2613,15.0282L56.3059,45.4507L43.2707,15.0282ZM75.8973,62L75.8973,41.5775C78.1341,46.9296,82.762,49.8873,88.9325,49.8873C98.1883,49.8873,104.436,42.8451,104.436,32.1408C104.436,21.0845,98.3425,14.1127,88.9325,14.1127C82.762,14.1127,78.1341,17.0704,75.8973,22.4225L75.8973,15.0282L73.5833,15.0282L73.5833,62L75.8973,62ZM89.0868,16.2958C96.7228,16.2958,101.891,22.6338,101.891,31.9296C101.891,41.2254,96.7228,47.7042,89.0868,47.7042C81.1422,47.7042,75.8202,41.2254,75.8202,31.9296C75.8202,22.6338,81.1422,16.2958,89.0868,16.2958ZM137.911,39.1127L135.52,39.1127C134.826,41.0845,134.594,41.9296,133.746,42.9859C131.663,45.8732,127.575,47.7042,122.947,47.7042C117.78,47.7042,113.846,45.3803,111.763,41.3662C110.606,39.1831,110.066,37,109.835,32.3521L138.605,32.3521C138.528,27.3521,138.065,24.7465,136.523,21.7183C134.054,16.7183,129.504,14.1127,123.564,14.1127C113.383,14.1127,107.29,21.1549,107.29,32.4225C107.29,36.8592,108.37,40.9437,110.144,43.6901C112.689,47.5634,117.625,49.8873,123.256,49.8873C131.046,49.8873,136.908,45.4507,137.911,39.1127ZM135.828,30.169L109.835,30.169C110.375,21.3662,115.157,16.2958,123.41,16.2958C127.035,16.2958,130.506,17.7746,132.589,20.2394C134.749,22.7042,135.597,25.169,135.828,30.169ZM146.474,48.873L156.519,2.49219L170.29,2.49219L170.829,0L141.121,0L140.582,2.49219L154.354,2.49219L144.31,48.873L146.474,48.873ZM161.599,13.5547L153.95,48.873L155.918,48.873L160.266,28.7969C162.011,20.7368,166.74,14.9473,171.658,14.9473C172.117,14.9473,172.315,14.9482,172.758,15.0215L173.266,12.6758L172.085,12.6758C168.019,12.6758,164.709,15.24,162.09,20.3691L163.565,13.5547L161.599,13.5547ZM191.562,49.0195L192.038,46.8223C191.269,47.0421,190.957,46.9688,190.498,46.9688C188.859,46.9688,188.339,45.43,188.989,42.4258L193.258,22.7148C193.813,20.1503,193.785,18.4655,193.315,17C192.313,14.3622,189.201,12.6758,185.004,12.6758C178.118,12.6758,172.673,16.9258,170.935,23.7402L173.099,23.7402C174.567,18.1715,178.675,14.9473,184.381,14.9473C189.824,14.9473,192.369,17.7323,191.29,22.7148L190.989,24.1074C190.593,25.9393,189.959,26.7439,188.586,27.3301C187.147,27.9163,186.771,28.1374,181.088,28.9434C176.192,29.7494,173.607,30.4807,171.209,32.166C168.501,34.0711,166.765,36.6373,166.066,39.8613C164.781,45.7965,167.893,49.8984,173.861,49.8984C177.206,49.8984,180.771,48.5801,183.689,46.3086C185.173,45.2095,185.612,44.6973,187.088,42.4258C186.075,47.4084,186.793,49.2402,189.875,49.2402C190.4,49.2402,190.727,49.2393,191.562,49.0195ZM189.974,28.7969L188.006,37.8828C187.577,39.8612,185.954,42.2053,183.787,44.0371C181,46.3086,177.698,47.627,174.354,47.627C169.632,47.627,167.2,44.624,168.168,40.1543C169.31,34.8786,173.094,32.2407,181.152,31.0684L182.709,30.8477L184.265,30.6289L185.689,30.4082L186.852,30.1895C188.308,29.8231,188.734,29.6762,189.974,28.7969ZM225.721,0L221.119,21.25C220.423,15.6812,217.155,12.6035,211.908,12.6035C203.842,12.6035,197.074,19.9308,194.662,31.0684C192.187,42.499,195.716,49.8262,203.848,49.8262C209.094,49.8262,213.695,46.7485,216.803,41.1797L215.137,48.873L217.104,48.873L227.688,0L225.721,0ZM211.22,14.875C218.106,14.875,221.137,21.4695,219.026,31.2148C216.916,40.9602,211.029,47.5547,204.143,47.5547C197.65,47.5547,194.685,40.9602,196.795,31.2148C198.905,21.4695,204.727,14.875,211.22,14.875ZM248.902,38.6152L246.87,38.6152C245.836,40.6669,245.448,41.5454,244.488,42.6445C242.067,45.6487,238.179,47.5547,234.244,47.5547C229.85,47.5547,227.029,45.1356,226.163,40.959C225.671,38.6875,225.704,36.4161,226.555,31.5801L251.017,31.5801C252.078,26.3777,252.271,23.6664,251.642,20.5156C250.67,15.3132,247.388,12.6035,242.338,12.6035C233.681,12.6035,226.914,19.9306,224.375,31.6543C223.375,36.2705,223.373,40.5193,224.263,43.377C225.554,47.407,229.227,49.8262,234.015,49.8262C240.638,49.8262,246.622,45.2098,248.902,38.6152ZM249.147,29.3086L227.047,29.3086C229.489,20.1494,234.698,14.875,241.715,14.875C244.797,14.875,247.415,16.4139,248.63,18.9785C249.911,21.5431,250.077,24.1062,249.147,29.3086Z" fill="#111A1E" fill-opacity="1"/></g></svg>