<svg xmlns="http://www.w3.org/2000/svg" xmlns:xlink="http://www.w3.org/1999/xlink" fill="none" version="1.1" width="16" height="16" viewBox="0 0 16 16"><defs><clipPath id="master_svg0_4158_59736"><rect x="0" y="0" width="16" height="16" rx="0"/></clipPath></defs><g clip-path="url(#master_svg0_4158_59736)"><g><path d="M0.8330078125,8.0000440234375Q0.8330078125,10.9685540234375,2.9320778125,13.0676740234375Q5.0311778125,15.1666740234375,7.9996778125,15.1666740234375Q10.9681778125,15.1666740234375,13.0673078125,13.0676740234375Q15.1663078125,10.9685540234375,15.1663078125,8.0000440234375Q15.1663078125,5.0315440234375,13.0673078125,2.9324440234375Q10.9681878125,0.8333740234375,7.9996778125,0.8333740234375Q5.0311778125,0.8333740234375,2.9320778125,2.9324340234374997Q0.8330078125,5.0315440234375,0.8330078125,8.0000440234375ZM7.9996778125,14.1666740234375Q5.4453878125,14.1666740234375,3.6391778125,12.3604740234375Q1.8330078125,10.5543440234375,1.8330078125,8.0000440234375Q1.8330078125,5.4457540234375,3.6391778125,3.6395540234375Q5.4453878125,1.8333740234375,7.9996778125,1.8333740234375Q10.5539778125,1.8333740234375,12.3601078125,3.6395440234375Q14.1663078125,5.4457540234375,14.1663078125,8.0000440234375Q14.1663078125,10.5543340234375,12.3601078125,12.3604740234375Q10.5539678125,14.1666740234375,7.9996778125,14.1666740234375Z" fill-rule="evenodd" fill="#949E9C" fill-opacity="1"/></g><g><path d="M6.232234,4.440485953125Q5.5,5.172719953125,5.5,6.208251953125Q5.5,6.257501953125,5.509607,6.305791953125Q5.519215,6.354091953125,5.53806,6.399591953125Q5.556906,6.445091953125,5.584265,6.486031953125Q5.611625,6.526981953125,5.646447,6.561801953125Q5.681269,6.596631953125,5.722215,6.623981953125Q5.763161,6.651341953125,5.808658,6.670191953125Q5.854155,6.689031953125,5.9024549,6.698641953125Q5.9507543,6.708251953125,6,6.708251953125Q6.0492457,6.708251953125,6.0975451,6.698641953125Q6.145845,6.689031953125,6.191342,6.670191953125Q6.236839,6.651341953125,6.277785,6.623981953125Q6.318731,6.596631953125,6.353553,6.561801953125Q6.388375,6.526981953125,6.415735,6.4860419531249995Q6.443094,6.445091953125,6.46194,6.399591953125Q6.480785,6.354091953125,6.490393,6.305791953125Q6.5,6.257501953125,6.5,6.208251953125Q6.5,5.586931953125,6.939341,5.147592953125Q7.37868,4.708251953125,8,4.708251953125Q8.62132,4.708251953125,9.06066,5.147592953125Q9.5,5.586931953125,9.5,6.208251953125Q9.5,6.829571953125,9.06066,7.268911953125Q8.62132,7.708251953125,8,7.708251953125Q7.95075,7.708251953125,7.90245,7.717861953125Q7.85416,7.727461953125,7.80866,7.746311953125Q7.76316,7.765161953125,7.7222100000000005,7.7925119531250004Q7.68127,7.819871953125,7.64645,7.854701953125Q7.61162,7.889521953125,7.5842600000000004,7.9304619531250005Q7.55691,7.971411953125,7.53806,8.016911953125Q7.51921,8.062401953125,7.50961,8.110701953125Q7.5,8.159001953125,7.5,8.208251953125L7.5,9.541581953125Q7.5,9.590831953125,7.50961,9.639131953125Q7.51921,9.687431953125,7.53806,9.732921953125Q7.55691,9.778421953125001,7.5842600000000004,9.819371953125Q7.61162,9.860311953124999,7.64645,9.895141953125Q7.68127,9.929961953125,7.7222100000000005,9.957321953125Q7.76316,9.984681953125001,7.80866,10.003521953125Q7.85416,10.022371953124999,7.90245,10.031981953125001Q7.95075,10.041581953125,8,10.041581953125Q8.04925,10.041581953125,8.09754,10.031981953125001Q8.14584,10.022371953124999,8.19134,10.003521953125Q8.23684,9.984681953125001,8.27778,9.957321953125Q8.31873,9.929961953125,8.35355,9.895141953125Q8.38838,9.860311953124999,8.41573,9.819371953125Q8.44309,9.778421953125001,8.46194,9.732921953125Q8.48078,9.687431953125,8.49039,9.639131953125Q8.5,9.590831953125,8.5,9.541581953125L8.5,8.662261953125Q9.21904,8.524741953125,9.76777,7.9760219531250005Q10.5,7.243781953125,10.5,6.208251953125Q10.5,5.172719953125,9.76777,4.440485953125Q9.03553,3.708251953125,8,3.708251953125Q6.964468,3.708251953125,6.232234,4.440485953125Z" fill-rule="evenodd" fill="#949E9C" fill-opacity="1"/></g><g><path d="M8.8336621875,11.70827196484375Q8.8336621875,11.79034796484375,8.8176421875,11.87084696484375Q8.801632187500001,11.95134896484375,8.7702221875,12.027178964843749Q8.7388121875,12.10299896484375,8.6932121875,12.17124896484375Q8.6476221875,12.23948896484375,8.5895821875,12.29752896484375Q8.5315421875,12.35556896484375,8.4633021875,12.40115896484375Q8.3950521875,12.44675896484375,8.319232187499999,12.47816896484375Q8.2434021875,12.509578964843751,8.1629001875,12.52558896484375Q8.0824011875,12.54160896484375,8.0003251875,12.54160896484375Q7.9182491875,12.54160896484375,7.8377501875,12.52558896484375Q7.7572511875,12.509578964843751,7.6814221875,12.47816896484375Q7.6055941875,12.44675896484375,7.5373501875,12.40115896484375Q7.4691061874999995,12.35556896484375,7.4110701875,12.29752896484375Q7.3530331875,12.23948896484375,7.3074341875,12.17124896484375Q7.2618350875,12.10299896484375,7.2304258875,12.027178964843749Q7.1990166875,11.95134896484375,7.1830044875,11.87084696484375Q7.1669921875,11.79034796484375,7.1669921875,11.70827196484375Q7.1669921875,11.62619596484375,7.1830044875,11.54569696484375Q7.1990166875,11.46519796484375,7.2304258875,11.38936896484375Q7.2618350875,11.31354096484375,7.3074341875,11.24529696484375Q7.3530331875,11.17705296484375,7.4110701875,11.11901696484375Q7.4691061874999995,11.06097996484375,7.5373501875,11.01538096484375Q7.6055941875,10.96978186484375,7.6814221875,10.93837266484375Q7.7572511875,10.90696346484375,7.8377501875,10.89095126484375Q7.9182491875,10.87493896484375,8.0003251875,10.87493896484375Q8.0824011875,10.87493896484375,8.1629001875,10.89095126484375Q8.2434021875,10.90696346484375,8.319232187499999,10.93837266484375Q8.3950521875,10.96978186484375,8.4633021875,11.01538096484375Q8.5315421875,11.06097996484375,8.5895821875,11.11901696484375Q8.6476221875,11.17705296484375,8.6932121875,11.24529696484375Q8.7388121875,11.31354096484375,8.7702221875,11.38936896484375Q8.801632187500001,11.46519796484375,8.8176421875,11.54569696484375Q8.8336621875,11.62619596484375,8.8336621875,11.70827196484375Z" fill="#949E9C" fill-opacity="1"/></g></g></svg>