<svg xmlns="http://www.w3.org/2000/svg" xmlns:xlink="http://www.w3.org/1999/xlink" fill="none" version="1.1" width="20" height="20" viewBox="0 0 20 20"><defs><clipPath id="master_svg0_3113_42158"><rect x="0" y="0" width="20" height="20" rx="0"/></clipPath></defs><g clip-path="url(#master_svg0_3113_42158)"><g><path d="M1.630137425,13.5358259765625Q2.319656625,15.1660259765625,3.576455625,16.4228259765625Q4.833285625,17.6796259765625,6.463485625,18.3691259765625Q8.151865625,19.0833259765625,9.999345625,19.0833259765625Q11.846815625,19.0833259765625,13.535215625,18.3691259765625Q15.165415625,17.6796259765625,16.422215625,16.4228259765625Q17.679015625,15.1660259765625,18.368515625,13.5358259765625Q19.082715625,11.8474259765625,19.082715625,9.9999559765625Q19.082715625,8.1524759765625,18.368515625,6.4640959765625Q17.679015625,4.8338959765625,16.422215625,3.5770759765625Q15.165415625,2.3202669765625,13.535215625,1.6307478765625Q11.846815625,0.9166259765625,9.999345625,0.9166259765625Q8.151865625,0.9166259765625,6.463485625,1.6307475765625Q4.833285625,2.3202649765625,3.576465625,3.5770659765625Q2.319654625,4.8338959765625,1.630137225,6.4640959765625Q0.916015625,8.1524759765625,0.916015625,9.9999559765625Q0.916015625,11.8474259765625,1.630137425,13.5358259765625ZM9.999345625,17.5833259765625Q6.858265625,17.5833259765625,4.637115625,15.3621259765625Q2.416015625,13.1410259765625,2.416015625,9.9999559765625Q2.416015625,6.8588759765625,4.637115625,4.6377359765624995Q6.858265625,2.4166259765625,9.999345625,2.4166259765625Q13.140415625,2.4166259765625,15.361515625,4.6377259765625Q17.582715625,6.8588759765625,17.582715625,9.9999559765625Q17.582715625,13.1410259765625,15.361515625,15.3621259765625Q13.140415625,17.5833259765625,9.999345625,17.5833259765625Z" fill-rule="evenodd" fill="#2D2E33" fill-opacity="1"/></g><g><path d="M11.042314375,5.6250440234375Q11.042314375,5.6762140234375,11.037304375,5.7271440234375Q11.032284375,5.7780740234375,11.022304375000001,5.8282640234375Q11.012314374999999,5.8784540234375005,10.997464375,5.9274240234375Q10.982604375000001,5.9763940234375,10.963024375,6.0236740234375Q10.943444375,6.0709440234375,10.919314374999999,6.1160740234375Q10.895194374999999,6.1612140234375,10.866764375,6.2037640234375Q10.838334375,6.2463140234375,10.805874375,6.2858640234375Q10.773404375,6.3254240234375,10.737224375,6.3616140234375Q10.701034375,6.3977940234375,10.661474375000001,6.4302640234375Q10.621914375,6.4627240234375005,10.579374375,6.4911540234375Q10.536824375,6.5195840234375,10.491684375,6.5437040234375Q10.446554375,6.5678340234375,10.399274375000001,6.5874140234375Q10.352004375,6.6069940234375,10.303034375,6.6218540234375Q10.254064375,6.6367040234375,10.203874375,6.6466940234375Q10.153684375000001,6.6566740234375,10.102754375,6.6616940234375Q10.051824375,6.6667040234375,10.000654375,6.6667040234375Q9.949477375,6.6667040234375,9.898549375,6.6616940234375Q9.847622375,6.6566740234375,9.797431375,6.6466940234375Q9.747241375,6.6367040234375,9.698271375000001,6.6218540234375Q9.649300375,6.6069940234375,9.602022375,6.5874140234375Q9.554744375,6.5678340234375,9.509612375,6.5437040234375Q9.464481375,6.5195840234375,9.421932375,6.4911540234375Q9.379382375,6.4627240234375005,9.339824375,6.4302640234375Q9.300266375,6.3977940234375,9.264081375,6.3616140234375Q9.227896375,6.3254240234375,9.195431375,6.2858640234375Q9.162967375,6.2463140234375,9.134536375,6.2037640234375Q9.106106375,6.1612140234375,9.081983375,6.1160740234375Q9.057859875,6.0709440234375,9.038276475,6.0236740234375Q9.018693175,5.9763940234375,9.003838175,5.9274240234375Q8.988983175,5.8784540234375005,8.978999675,5.8282640234375Q8.969016175,5.7780740234375,8.964000285,5.7271440234375Q8.958984375,5.6762140234375,8.958984375,5.6250440234375Q8.958984375,5.5738670234375,8.964000285,5.5229400234375Q8.969016175,5.4720120234375,8.978999675,5.4218220234375Q8.988983175,5.3716310234375,9.003838175,5.3226610234375Q9.018693175,5.2736910234375,9.038276475,5.2264120234375Q9.057859875,5.1791340234375,9.081983375,5.1340020234375Q9.106106375,5.0888710234375,9.134536375,5.0463220234375Q9.162967375,5.0037720234375,9.195431375,4.9642140234375Q9.227896375,4.9246560234375,9.264081375,4.8884710234375Q9.300266375,4.8522860234375,9.339824375,4.8198210234375Q9.379382375,4.7873570234375,9.421932375,4.7589260234375Q9.464481375,4.7304960234375,9.509612375,4.7063730234375Q9.554744375,4.6822495234375,9.602022375,4.6626661234375Q9.649300375,4.6430828234375,9.698271375000001,4.6282278234375Q9.747241375,4.6133728234375,9.797431375,4.6033893234375Q9.847622375,4.5934058234375,9.898549375,4.5883899334375Q9.949477375,4.5833740234375,10.000654375,4.5833740234375Q10.051824375,4.5833740234375,10.102754375,4.5883899334375Q10.153684375000001,4.5934058234375,10.203874375,4.6033893234375Q10.254064375,4.6133728234375,10.303034375,4.6282278234375Q10.352004375,4.6430828234375,10.399274375000001,4.6626661234375Q10.446554375,4.6822495234375,10.491684375,4.7063730234375Q10.536824375,4.7304960234375,10.579374375,4.7589260234375Q10.621914375,4.7873570234375,10.661474375000001,4.8198210234375Q10.701034375,4.8522860234375,10.737224375,4.8884710234375Q10.773404375,4.9246560234375,10.805874375,4.9642140234375Q10.838334375,5.0037720234375,10.866764375,5.0463220234375Q10.895194374999999,5.0888710234375,10.919314374999999,5.1340020234375Q10.943444375,5.1791340234375,10.963024375,5.2264120234375Q10.982604375000001,5.2736910234375,10.997464375,5.3226610234375Q11.012314374999999,5.3716310234375,11.022304375000001,5.4218220234375Q11.032284375,5.4720120234375,11.037304375,5.5229400234375Q11.042314375,5.5738670234375,11.042314375,5.6250440234375Z" fill="#2D2E33" fill-opacity="1"/></g><g><path d="M9.791667,7.5833740234375L9.375,7.5833740234375Q9.3011315,7.5833740234375,9.228682,7.5977850234375Q9.156233,7.6121960234375,9.087987,7.6404640234375Q9.019742,7.6687330234375,8.958322,7.7097720234375Q8.896903,7.7508110234375,8.84467,7.8030440234375Q8.792437,7.8552770234375,8.751398,7.9166960234375Q8.710359,7.9781160234375,8.68209,8.0463610234375Q8.653822,8.1146070234375,8.639410999999999,8.1870560234375Q8.625,8.2595055234375,8.625,8.3333740234375Q8.625,8.4072425234375,8.639410999999999,8.4796920234375Q8.653822,8.5521410234375,8.68209,8.6203870234375Q8.710359,8.6886320234375,8.751398,8.7500520234375Q8.792437,8.8114710234375,8.84467,8.8637040234375Q8.896903,8.9159370234375,8.958322,8.9569760234375Q9.019742,8.9980150234375,9.087987,9.0262840234375Q9.156233,9.0545520234375,9.228682,9.068963023437501Q9.3011315,9.0833740234375,9.375,9.0833740234375L9.4583337,9.0833740234375L9.4583337,14.1667040234375Q9.4583337,14.2405740234375,9.4727448,14.3130240234375Q9.487156,14.3854740234375,9.515424,14.453714023437499Q9.543692,14.5219640234375,9.584732,14.5833840234375Q9.625771,14.6448040234375,9.678004,14.6970340234375Q9.730237,14.7492740234375,9.791656,14.7903040234375Q9.853076,14.831344023437499,9.921321,14.8596140234375Q9.989567,14.8878840234375,10.062016,14.9022940234375Q10.134465,14.9167040234375,10.208334,14.9167040234375Q10.282202,14.9167040234375,10.354651,14.9022940234375Q10.4271,14.8878840234375,10.49535,14.8596140234375Q10.56359,14.831344023437499,10.62501,14.7903040234375Q10.68643,14.7492740234375,10.73866,14.6970340234375Q10.7909,14.6448040234375,10.83194,14.5833840234375Q10.87297,14.5219640234375,10.90124,14.453714023437499Q10.92951,14.3854740234375,10.94392,14.3130240234375Q10.95833,14.2405740234375,10.95833,14.1667040234375L10.95833,8.3333740234375Q10.95833,8.2595055234375,10.94392,8.1870560234375Q10.92951,8.1146070234375,10.90124,8.0463610234375Q10.87297,7.9781160234375,10.83194,7.9166960234375Q10.7909,7.8552770234375,10.73866,7.8030440234375Q10.68643,7.7508110234375,10.62501,7.7097720234375Q10.56359,7.6687330234375,10.49535,7.6404640234375Q10.4271,7.6121960234375,10.354651,7.5977850234375Q10.282202,7.5833740234375,10.208334,7.5833740234375L9.791667,7.5833740234375Z" fill-rule="evenodd" fill="#2D2E33" fill-opacity="1"/></g><g><path d="M8.75,14.9166259765625L11.66667,14.9166259765625Q11.74053,14.9166259765625,11.81298,14.902214976562501Q11.88543,14.8878039765625,11.95368,14.8595359765625Q12.02192,14.8312669765625,12.08334,14.7902279765625Q12.14476,14.7491889765625,12.197,14.6969559765625Q12.24923,14.6447229765625,12.29027,14.5833039765625Q12.33131,14.5218839765625,12.35958,14.4536389765625Q12.38784,14.3853929765625,12.40225,14.3129439765625Q12.41667,14.2404944765625,12.41667,14.1666259765625Q12.41667,14.0927574765625,12.40226,14.0203079765625Q12.38784,13.9478589765625,12.35958,13.8796129765625Q12.33131,13.8113679765625,12.29027,13.7499479765625Q12.24923,13.6885289765625,12.197,13.6362959765625Q12.14476,13.5840629765625,12.08334,13.5430239765625Q12.02192,13.5019849765625,11.95368,13.4737159765625Q11.88543,13.4454479765625,11.81298,13.431036976562499Q11.74053,13.4166259765625,11.66667,13.4166259765625L8.75,13.4166259765625Q8.6761315,13.4166259765625,8.603682,13.431036976562499Q8.531233,13.4454479765625,8.462987,13.4737159765625Q8.394742,13.5019849765625,8.333322,13.5430239765625Q8.271903,13.5840629765625,8.21967,13.6362959765625Q8.167437,13.6885289765625,8.126398,13.7499479765625Q8.085359,13.8113679765625,8.05709,13.8796129765625Q8.028822,13.9478589765625,8.014410999999999,14.0203079765625Q8,14.0927574765625,8,14.1666259765625Q8,14.2404944765625,8.014410999999999,14.3129439765625Q8.028822,14.3853929765625,8.05709,14.4536389765625Q8.085359,14.5218839765625,8.126398,14.5833039765625Q8.167437,14.6447229765625,8.21967,14.6969559765625Q8.271903,14.7491889765625,8.333322,14.7902279765625Q8.394742,14.8312669765625,8.462987,14.8595359765625Q8.531233,14.8878039765625,8.603682,14.902214976562501Q8.6761315,14.9166259765625,8.75,14.9166259765625Z" fill-rule="evenodd" fill="#2D2E33" fill-opacity="1"/></g></g></svg>