<svg xmlns="http://www.w3.org/2000/svg" xmlns:xlink="http://www.w3.org/1999/xlink" fill="none" version="1.1" width="16" height="16" viewBox="0 0 16 16"><defs><clipPath id="master_svg0_4143_49247"><rect x="0" y="0" width="16" height="16" rx="0"/></clipPath></defs><g clip-path="url(#master_svg0_4143_49247)"><g><path d="M0.833251953125,8.000654375Q0.833251953125,10.969164375,2.932321953125,13.068284375Q5.031421953125,15.167284375,7.999921953125,15.167284375Q10.968421953125,15.167284375,13.067551953125,13.068284375Q15.166551953125,10.969164375,15.166551953125,8.000654375Q15.166551953125,5.032154375,13.067551953125,2.933054375Q10.968431953125,0.833984375,7.999921953125,0.833984375Q5.031421953125,0.833984375,2.932321953125,2.9330443749999997Q0.833251953125,5.032154375,0.833251953125,8.000654375ZM7.999921953125,14.167284375Q5.445631953125,14.167284375,3.639421953125,12.361084375Q1.833251953125,10.554954375,1.833251953125,8.000654375Q1.833251953125,5.446364375,3.639421953125,3.640164375Q5.445631953125,1.833984375,7.999921953125,1.833984375Q10.554221953125,1.833984375,12.360351953125,3.640154375Q14.166551953125,5.446364375,14.166551953125,8.000654375Q14.166551953125,10.554944375,12.360351953125,12.361084375Q10.554211953125,14.167284375,7.999921953125,14.167284375Z" fill-rule="evenodd" fill="#949E9C" fill-opacity="1" style="mix-blend-mode:passthrough"/></g><g><path d="M8.833418046875,4.499348625Q8.833418046875,4.581425625,8.817398046875,4.661924625Q8.801388046875001,4.742425625,8.769978046875,4.818255625Q8.738568046875,4.894075625,8.692968046875,4.962325625Q8.647378046875,5.0305656249999995,8.589338046875,5.088605625Q8.531298046875,5.146645625,8.463058046875,5.192235625Q8.394808046875,5.237835625,8.318988046874999,5.269245625Q8.243158046875,5.300655625,8.162656046875,5.316665625Q8.082157046875,5.332685625,8.000081046875,5.332685625Q7.918005046875,5.332685625,7.837506046875,5.316665625Q7.757007046875,5.300655625,7.681178046875,5.269245625Q7.605350046875,5.237835625,7.537106046875,5.192235625Q7.4688620468749995,5.146645625,7.410826046875,5.088605625Q7.352789046875,5.0305656249999995,7.307190046875,4.962325625Q7.261590946875,4.894075625,7.230181746875,4.818255625Q7.198772546875,4.742425625,7.182760346875,4.661924625Q7.166748046875,4.581425625,7.166748046875,4.499348625Q7.166748046875,4.417272625,7.182760346875,4.336773625Q7.198772546875,4.256274625,7.230181746875,4.180445625Q7.261590946875,4.104617625,7.307190046875,4.036373625Q7.352789046875,3.968129625,7.410826046875,3.910093625Q7.4688620468749995,3.852056625,7.537106046875,3.806457625Q7.605350046875,3.760858525,7.681178046875,3.729449325Q7.757007046875,3.698040125,7.837506046875,3.682027925Q7.918005046875,3.666015625,8.000081046875,3.666015625Q8.082157046875,3.666015625,8.162656046875,3.682027925Q8.243158046875,3.698040125,8.318988046874999,3.729449325Q8.394808046875,3.760858525,8.463058046875,3.806457625Q8.531298046875,3.852056625,8.589338046875,3.910093625Q8.647378046875,3.968129625,8.692968046875,4.036373625Q8.738568046875,4.104617625,8.769978046875,4.180445625Q8.801388046875001,4.256274625,8.817398046875,4.336773625Q8.833418046875,4.417272625,8.833418046875,4.499348625Z" fill="#949E9C" fill-opacity="1" style="mix-blend-mode:passthrough"/></g><g><path d="M7.666667,7.166015625L7.5,7.166015625Q7.4507543,7.166015625,7.4024549,7.156408625Q7.354155,7.146800625,7.308658,7.127955625Q7.263161,7.109109625,7.222215,7.081750625Q7.181269,7.054390625,7.146447,7.019568625Q7.111625,6.984746625,7.084265,6.943800625Q7.056906,6.902854625,7.03806,6.857357625Q7.019215,6.811860625,7.009607,6.763560725Q7,6.715261325,7,6.666015625Q7,6.616769925,7.009607,6.568470525Q7.019215,6.520170625,7.03806,6.474673625Q7.056906,6.429176625,7.084265,6.388230625Q7.111625,6.347284625,7.146447,6.312462625Q7.181269,6.277640625,7.222215,6.250280625Q7.263161,6.222921625,7.308658,6.204075625Q7.354155,6.185230625,7.4024549,6.175622625Q7.4507543,6.166015625,7.5,6.166015625L8.166667,6.166015625Q8.215913,6.166015625,8.264212,6.175622625Q8.312512,6.185230625,8.358009,6.204075625Q8.403506,6.222921625,8.444452,6.250280625Q8.485398,6.277640625,8.52022,6.312462625Q8.55504,6.347284625,8.5824,6.388230625Q8.60976,6.429176625,8.62861,6.474673625Q8.64745,6.520170625,8.65706,6.568470525Q8.66667,6.616769925,8.66667,6.666015625L8.66667,11.332685625Q8.66667,11.381925625000001,8.65706,11.430225625Q8.64745,11.478525625,8.62861,11.524025625Q8.60976,11.569515625000001,8.5824,11.610465625Q8.55504,11.651415625,8.52022,11.686235625Q8.485398,11.721055625,8.444452,11.748415625Q8.403506,11.775775625,8.358009,11.794625625Q8.312512,11.813465625,8.264212,11.823075625000001Q8.215913,11.832685625,8.166667,11.832685625Q8.117421,11.832685625,8.069122,11.823075625000001Q8.020822,11.813465625,7.975325,11.794625625Q7.929828,11.775775625,7.888882,11.748415625Q7.847936,11.721055625,7.813114,11.686235625Q7.778292,11.651415625,7.750932,11.610465625Q7.723573,11.569515625000001,7.704727,11.524025625Q7.685882,11.478525625,7.676274,11.430225625Q7.666667,11.381925625000001,7.666667,11.332685625L7.666667,7.166015625Z" fill-rule="evenodd" fill="#949E9C" fill-opacity="1" style="mix-blend-mode:passthrough"/></g><g><path d="M7,10.833984375L9.33333,10.833984375Q9.38258,10.833984375,9.43088,10.843591375Q9.47918,10.853199374999999,9.52467,10.872044375Q9.570170000000001,10.890890375,9.61112,10.918249375Q9.65206,10.945609375,9.68689,10.980431375Q9.72171,11.015253375,9.74907,11.056199375Q9.77643,11.097145375,9.79527,11.142642375Q9.814119999999999,11.188139375,9.82373,11.236439275Q9.83333,11.284738675,9.83333,11.333984375Q9.83333,11.383230075,9.82373,11.431529475Q9.814119999999999,11.479829375,9.79527,11.525326375Q9.77643,11.570823375,9.74907,11.611769375Q9.72171,11.652715375,9.68689,11.687537375Q9.65206,11.722359375,9.61112,11.749719375Q9.570170000000001,11.777078375,9.52467,11.795924375Q9.47918,11.814769375000001,9.43088,11.824377375Q9.38258,11.833984375,9.33333,11.833984375L7,11.833984375Q6.9507543,11.833984375,6.9024549,11.824377375Q6.854155,11.814769375000001,6.808658,11.795924375Q6.763161,11.777078375,6.722215,11.749719375Q6.681269,11.722359375,6.646447,11.687537375Q6.611625,11.652715375,6.584265,11.611769375Q6.556906,11.570823375,6.53806,11.525326375Q6.519215,11.479829375,6.509607,11.431529475Q6.5,11.383230075,6.5,11.333984375Q6.5,11.284738675,6.509607,11.236439275Q6.519215,11.188139375,6.53806,11.142642375Q6.556906,11.097145375,6.584265,11.056199375Q6.611625,11.015253375,6.646447,10.980431375Q6.681269,10.945609375,6.722215,10.918249375Q6.763161,10.890890375,6.808658,10.872044375Q6.854155,10.853199374999999,6.9024549,10.843591375Q6.9507543,10.833984375,7,10.833984375Z" fill-rule="evenodd" fill="#949E9C" fill-opacity="1" style="mix-blend-mode:passthrough"/></g></g></svg>