<svg xmlns="http://www.w3.org/2000/svg" xmlns:xlink="http://www.w3.org/1999/xlink" fill="none" version="1.1" width="36"
  height="36" viewBox="0 0 36 36">
  <g>
    <g>
      <g>
        <path
          d="M1.41524039375,25.0068740234375Q2.7816160937500003,28.2372740234375,5.27223609375,30.7279740234375Q7.76290609375,33.2185740234375,10.99336609375,34.5849740234375Q14.33899609375,36.0000740234375,18.00019609375,36.0000740234375Q21.66129609375,36.0000740234375,25.00699609375,34.5849740234375Q28.23739609375,33.2185740234375,30.72809609375,30.7279740234375Q33.21869609375,28.2372740234375,34.58509609375,25.0068740234375Q36.00019609375,21.6611740234375,36.00019609375,18.0000740234375Q36.00019609375,14.3388740234375,34.58509609375,10.9932440234375Q33.21869609375,7.7627740234375,30.72809609375,5.2721140234375Q28.23739609375,2.7814940234375003,25.00699609375,1.4151180234375Q21.66129609375,0.00004402343750009585,18.00019609375,0.00004402343750009585Q14.33899609375,0.00004402343750009585,10.99336609375,1.4151178234375Q7.76290609375,2.7814940234375003,5.272246093750001,5.2721040234375Q2.7816160937500003,7.7627840234375,1.41524019375,10.9932440234375Q0.00016609375000009585,14.3388740234375,0.00016609375000009585,18.0000740234375Q0.00016609375000009585,21.6611740234375,1.41524039375,25.0068740234375ZM12.03219609375,32.1289740234375Q9.28073609375,30.9651740234375,7.15784609375,28.8422740234375Q5.03501609375,26.7194740234375,3.87125609375,23.9679740234375Q2.66682609375,21.1204740234375,2.66682609375,18.0000740234375Q2.66682609375,14.8796740234375,3.87125609375,12.0320740234375Q5.03501609375,9.280604023437501,7.15784609375,7.1577440234375Q9.28073609375,5.0348940234375,12.03219609375,3.8711340234375Q14.87979609375,2.6667040234375,18.00019609375,2.6667040234375Q21.12059609375,2.6667040234375,23.96819609375,3.8711340234375Q26.71959609375,5.0348940234375,28.84239609375,7.1577240234375Q30.96529609375,9.2806140234375,32.12909609375,12.0320740234375Q33.33349609375,14.8796740234375,33.33349609375,18.0000740234375Q33.33349609375,21.1204740234375,32.12909609375,23.9679740234375Q30.96529609375,26.7194740234375,28.84239609375,28.8422740234375Q26.71959609375,30.9651740234375,23.96809609375,32.1289740234375Q21.12059609375,33.3333740234375,18.00019609375,33.3333740234375Q14.87979609375,33.3333740234375,12.03219609375,32.1289740234375Z"
          fill-rule="evenodd" fill="#474747" fill-opacity="1" />
      </g>
      <g>
        <path
          d="M20.083907281799316,9.249986494140625Q20.083907281799316,9.352336494140625,20.073867281799316,9.454196494140625Q20.063837281799316,9.556046494140626,20.04387728179932,9.656426494140625Q20.023907281799318,9.756806494140625,19.994197281799316,9.854746494140624Q19.964487281799315,9.952686494140625,19.925317281799316,10.047246494140625Q19.886157281799317,10.141806494140624,19.837907281799318,10.232066494140625Q19.789657281799315,10.322326494140626,19.732797281799318,10.407426494140624Q19.675937281799317,10.492526494140625,19.611007281799317,10.571646494140625Q19.546077281799317,10.650756494140625,19.473707281799317,10.723126494140626Q19.401337281799318,10.795496494140625,19.322227281799318,10.860426494140626Q19.24310728179932,10.925356494140626,19.158007281799318,10.982216494140625Q19.072907281799317,11.039076494140625,18.982647281799316,11.087326494140624Q18.892387281799316,11.135576494140626,18.797827281799318,11.174736494140625Q18.703267281799317,11.213906494140625,18.605327281799315,11.243616494140625Q18.507387281799318,11.273326494140626,18.407007281799316,11.293296494140625Q18.306627281799315,11.313256494140624,18.204777281799316,11.323296494140624Q18.102917281799318,11.333326494140625,18.000567281799317,11.333326494140625Q17.898227281799315,11.333326494140625,17.796367281799316,11.323296494140624Q17.694517281799317,11.313256494140624,17.594137281799316,11.293296494140625Q17.493747281799315,11.273326494140626,17.395807281799318,11.243616494140625Q17.297867281799316,11.213906494140625,17.203317281799315,11.174736494140625Q17.108757281799317,11.135576494140626,17.018497281799316,11.087326494140624Q16.928227281799316,11.039076494140625,16.843132281799317,10.982216494140625Q16.758033281799317,10.925356494140626,16.678918281799316,10.860426494140626Q16.599802281799317,10.795496494140625,16.527431281799316,10.723126494140626Q16.455060281799316,10.650756494140625,16.390132281799318,10.571646494140625Q16.325203281799315,10.492526494140625,16.268342281799317,10.407426494140624Q16.211481281799315,10.322326494140626,16.163234281799316,10.232066494140625Q16.114988281799317,10.141806494140624,16.075821281799318,10.047246494140625Q16.036655281799316,9.952686494140625,16.006944881799317,9.854746494140624Q15.977234981799317,9.756806494140625,15.957267981799317,9.656426494140625Q15.937300881799317,9.556046494140626,15.927269081799317,9.454196494140625Q15.917237281799316,9.352336494140625,15.917237281799316,9.249986494140625Q15.917237281799316,9.147646494140625,15.927269081799317,9.045786494140625Q15.937300881799317,8.943936494140624,15.957267981799317,8.843556494140625Q15.977234981799317,8.743166494140626,16.006944881799317,8.645226494140624Q16.036655281799316,8.547286494140625,16.075821281799318,8.452736494140625Q16.114988281799317,8.358176494140626,16.163234281799316,8.267916494140625Q16.211481281799315,8.177646494140625,16.268342281799317,8.092551494140626Q16.325203281799315,8.007452494140624,16.390132281799318,7.928337494140625Q16.455060281799316,7.849221494140625,16.527431281799316,7.776850494140625Q16.599802281799317,7.704480494140625,16.678918281799316,7.639551494140625Q16.758033281799317,7.574622494140625,16.843132281799317,7.5177614941406254Q16.928227281799316,7.460900494140625,17.018497281799316,7.412653494140625Q17.108757281799317,7.364407494140625,17.203317281799315,7.325240494140625Q17.297867281799316,7.286074494140625,17.395807281799318,7.256364094140625Q17.493747281799315,7.226654194140625,17.594137281799316,7.206687194140625Q17.694517281799317,7.186720094140625,17.796367281799316,7.176688294140625Q17.898227281799315,7.166656494140625,18.000567281799317,7.166656494140625Q18.102917281799318,7.166656494140625,18.204777281799316,7.176688294140625Q18.306627281799315,7.186720094140625,18.407007281799316,7.206687194140625Q18.507387281799318,7.226654194140625,18.605327281799315,7.256364094140625Q18.703267281799317,7.286074494140625,18.797827281799318,7.325240494140625Q18.892387281799316,7.364407494140625,18.982647281799316,7.412653494140625Q19.072907281799317,7.460900494140625,19.158007281799318,7.5177614941406254Q19.24310728179932,7.574622494140625,19.322227281799318,7.639551494140625Q19.401337281799318,7.704480494140625,19.473707281799317,7.776850494140625Q19.546077281799317,7.849221494140625,19.611007281799317,7.928337494140625Q19.675937281799317,8.007452494140624,19.732797281799318,8.092551494140626Q19.789657281799315,8.177646494140625,19.837907281799318,8.267916494140625Q19.886157281799317,8.358176494140626,19.925317281799316,8.452736494140625Q19.964487281799315,8.547286494140625,19.994197281799316,8.645226494140624Q20.023907281799318,8.743166494140626,20.04387728179932,8.843556494140625Q20.063837281799316,8.943936494140624,20.073867281799316,9.045786494140625Q20.083907281799316,9.147646494140625,20.083907281799316,9.249986494140625Z"
          fill="#474747" fill-opacity="1" />
      </g>
      <g>
        <path
          d="M16.817054664611817,13.333325540466308Q16.783731764611815,13.331655540466308,16.750367164611816,13.331655540466308Q16.684782864611815,13.331655540466308,16.619514164611818,13.33808554046631Q16.554246164611815,13.344515540466308,16.489921164611815,13.357305540466308Q16.425597164611816,13.370105540466309,16.362837164611815,13.38913554046631Q16.300077164611817,13.408175540466308,16.239485164611818,13.433275540466308Q16.178893164611818,13.458375540466308,16.121052164611818,13.489295540466308Q16.063212164611816,13.520205540466309,16.008681164611815,13.55664554046631Q15.954149164611817,13.593075540466309,15.903452164611817,13.63468554046631Q15.852755164611816,13.676292540466308,15.806379164611815,13.722667540466308Q15.760004164611816,13.769043540466308,15.718397164611817,13.81974054046631Q15.676787164611817,13.870437540466309,15.640357164611817,13.924969540466309Q15.603917164611817,13.979500540466308,15.573007164611816,14.037340540466309Q15.542087164611816,14.095181540466308,15.516987164611816,14.155773540466308Q15.491887164611816,14.216365540466308,15.472847164611817,14.279125540466309Q15.453817164611817,14.341885540466308,15.441017164611816,14.406209540466309Q15.428227164611815,14.470534540466309,15.421797164611817,14.535802540466308Q15.415367164611816,14.60107124046631,15.415367164611816,14.666655540466309Q15.415367164611816,14.732239840466308,15.421797164611817,14.797508540466309Q15.428227164611815,14.862776540466308,15.441017164611816,14.927101540466309Q15.453817164611817,14.99142554046631,15.472847164611817,15.054185540466309Q15.491887164611816,15.11694554046631,15.516987164611816,15.177537540466309Q15.542087164611816,15.238129540466309,15.573007164611816,15.295970540466309Q15.603917164611817,15.35381054046631,15.640357164611817,15.408341540466308Q15.676787164611817,15.462873540466308,15.718397164611817,15.513570540466308Q15.760004164611816,15.56426754046631,15.806379164611815,15.61064354046631Q15.852755164611816,15.657018540466309,15.903452164611817,15.698625540466308Q15.954149164611817,15.740235540466308,16.008681164611815,15.776665540466308Q16.063212164611816,15.813105540466308,16.121052164611818,15.844015540466309Q16.178893164611818,15.874935540466309,16.239485164611818,15.900035540466309Q16.300077164611817,15.925135540466309,16.362837164611815,15.944175540466308Q16.425597164611816,15.963205540466308,16.489921164611815,15.976005540466309Q16.554246164611815,15.98879554046631,16.619514164611818,15.995225540466308Q16.684782864611815,16.00165554046631,16.750367164611816,16.00165554046631Q16.783731764611815,16.00165554046631,16.817054664611817,15.999985540466309L17.083701164611817,15.999985540466309L17.083701164611817,26.26665554046631Q17.082035164611817,26.299955540466307,17.082035164611817,26.333355540466307Q17.082035164611817,26.39895554046631,17.088463164611817,26.464155540466308Q17.094891164611816,26.52945554046631,17.107686164611817,26.593755540466308Q17.120481164611817,26.658055540466307,17.139519164611816,26.72085554046631Q17.158557164611818,26.78365554046631,17.183655164611817,26.84415554046631Q17.208753164611817,26.904755540466308,17.239670164611816,26.962655540466308Q17.270586164611817,27.02045554046631,17.307023164611817,27.07495554046631Q17.343459164611815,27.129555540466306,17.385066164611818,27.18025554046631Q17.426672164611816,27.230955540466308,17.473047164611817,27.27735554046631Q17.519422164611818,27.32365554046631,17.570119164611818,27.365255540466308Q17.620817164611815,27.40685554046631,17.675348164611815,27.443355540466307Q17.729880164611817,27.479755540466307,17.787717164611816,27.51065554046631Q17.845557164611815,27.54155554046631,17.906147164611816,27.566655540466307Q17.966747164611817,27.59175554046631,18.029507164611815,27.61085554046631Q18.092267164611815,27.62985554046631,18.156587164611818,27.642655540466308Q18.220917164611816,27.655455540466306,18.286177164611818,27.66185554046631Q18.351447164611816,27.668355540466308,18.417037164611816,27.668355540466308Q18.482617164611817,27.668355540466308,18.547887164611815,27.66185554046631Q18.613157164611817,27.655455540466306,18.677477164611815,27.642655540466308Q18.741807164611817,27.62985554046631,18.804567164611818,27.61085554046631Q18.867327164611815,27.59175554046631,18.927917164611817,27.566655540466307Q18.988507164611818,27.54155554046631,19.046347164611817,27.51065554046631Q19.104187164611815,27.479755540466307,19.158717164611815,27.443355540466307Q19.213247164611815,27.40685554046631,19.263947164611817,27.365255540466308Q19.314647164611817,27.32365554046631,19.361017164611816,27.27735554046631Q19.407397164611815,27.230955540466308,19.449007164611817,27.18025554046631Q19.490607164611816,27.129555540466306,19.527047164611815,27.07495554046631Q19.563487164611818,27.02045554046631,19.594397164611816,26.962655540466308Q19.625317164611815,26.904755540466308,19.650417164611817,26.84415554046631Q19.675507164611815,26.78365554046631,19.694547164611816,26.72085554046631Q19.713587164611816,26.658055540466307,19.726387164611815,26.593755540466308Q19.739177164611817,26.52945554046631,19.745607164611815,26.464155540466308Q19.752037164611817,26.39895554046631,19.752037164611817,26.333355540466307Q19.752037164611817,26.299955540466307,19.750367164611816,26.26665554046631L19.750367164611816,14.666655540466309Q19.750367164611816,14.60115304046631,19.743947164611818,14.535965540466309Q19.737527164611816,14.47077854046631,19.724747164611816,14.406535540466308Q19.711967164611817,14.34229154046631,19.692957164611816,14.279609540466309Q19.673937164611814,14.216927540466308,19.648877164611818,14.156411540466308Q19.623807164611815,14.09589454046631,19.592927164611815,14.038126540466308Q19.562047164611815,13.980358540466309,19.525657164611815,13.925895540466309Q19.489267164611817,13.87143154046631,19.447717164611817,13.820797540466309Q19.406157164611816,13.770163540466308,19.359847164611818,13.723846540466308Q19.313527164611816,13.677529540466308,19.262887164611815,13.635975540466308Q19.212257164611817,13.59442554046631,19.157797164611818,13.558025540466309Q19.103327164611816,13.521635540466308,19.045567164611818,13.490765540466308Q18.987797164611816,13.459885540466308,18.927277164611816,13.434815540466309Q18.866767164611815,13.409745540466309,18.804077164611815,13.39073554046631Q18.741397164611815,13.371725540466308,18.677157164611817,13.358945540466308Q18.612907164611816,13.346165540466309,18.547727164611818,13.339745540466309Q18.482537164611816,13.333325540466308,18.417037164611816,13.333325540466308L16.817054664611817,13.333325540466308Z"
          fill-rule="evenodd" fill="#474747" fill-opacity="1" />
      </g>
      <g>
        <path
          d="M15.567054664611817,27.666702116088867Q15.533731764611817,27.668372116088868,15.500367164611816,27.668372116088868Q15.434782864611817,27.668372116088868,15.369514164611816,27.661942116088866Q15.304246164611817,27.655512116088868,15.239921164611816,27.642722116088866Q15.175597164611816,27.629922116088867,15.112837164611816,27.610892116088866Q15.050077164611816,27.591852116088866,14.989485164611816,27.566752116088868Q14.928893164611816,27.541652116088866,14.871052164611816,27.510732116088867Q14.813212164611816,27.47982211608887,14.758681164611817,27.443382116088866Q14.704149164611817,27.406952116088867,14.653452164611817,27.36534211608887Q14.602755164611816,27.323735116088866,14.556379164611815,27.277360116088868Q14.510004164611816,27.230984116088866,14.468397164611817,27.180287116088866Q14.426787164611817,27.129590116088867,14.390357164611817,27.07505811608887Q14.353917164611817,27.020527116088868,14.323007164611816,26.962687116088865Q14.292087164611816,26.904846116088866,14.266987164611816,26.844254116088866Q14.241887164611816,26.783662116088866,14.222847164611817,26.72090211608887Q14.203817164611817,26.658142116088868,14.191017164611816,26.59381811608887Q14.178227164611815,26.52949311608887,14.171797164611817,26.464225116088866Q14.165367164611816,26.39895641608887,14.165367164611816,26.333372116088867Q14.165367164611816,26.267787816088866,14.171797164611817,26.20251911608887Q14.178227164611815,26.137251116088866,14.191017164611816,26.072926116088865Q14.203817164611817,26.008602116088866,14.222847164611817,25.945842116088865Q14.241887164611816,25.883082116088868,14.266987164611816,25.82249011608887Q14.292087164611816,25.76189811608887,14.323007164611816,25.70405711608887Q14.353917164611817,25.646217116088867,14.390357164611817,25.591686116088866Q14.426787164611817,25.537154116088868,14.468397164611817,25.486457116088868Q14.510004164611816,25.43576011608887,14.556379164611815,25.389384116088866Q14.602755164611816,25.34300911608887,14.653452164611817,25.301402116088866Q14.704149164611817,25.259792116088867,14.758681164611817,25.223362116088868Q14.813212164611816,25.186922116088866,14.871052164611816,25.156012116088867Q14.928893164611816,25.12509211608887,14.989485164611816,25.099992116088867Q15.050077164611816,25.07489211608887,15.112837164611816,25.055852116088868Q15.175597164611816,25.036822116088867,15.239921164611816,25.02402211608887Q15.304246164611817,25.011232116088866,15.369514164611816,25.004802116088868Q15.434782864611817,24.998372116088866,15.500367164611816,24.998372116088866Q15.533731764611817,24.998372116088866,15.567054664611817,25.000042116088867L21.267017164611815,25.000042116088867Q21.30033716461182,24.998372116088866,21.333697164611817,24.998372116088866Q21.399287164611817,24.998372116088866,21.46455716461182,25.004802116088868Q21.529817164611817,25.011232116088866,21.594147164611815,25.02402211608887Q21.658467164611817,25.036822116088867,21.72122716461182,25.055852116088868Q21.783987164611816,25.07489211608887,21.844577164611817,25.099992116088867Q21.905177164611818,25.12509211608887,21.963017164611816,25.156012116088867Q22.020857164611815,25.186922116088866,22.07538716461182,25.223362116088868Q22.12991716461182,25.259792116088867,22.180617164611817,25.301402116088866Q22.231317164611816,25.34300911608887,22.277687164611816,25.389384116088866Q22.324067164611815,25.43576011608887,22.365667164611818,25.486457116088868Q22.407277164611816,25.537154116088868,22.443707164611816,25.591686116088866Q22.480147164611815,25.646217116088867,22.511067164611816,25.70405711608887Q22.541977164611815,25.76189811608887,22.567077164611817,25.82249011608887Q22.592177164611815,25.883082116088868,22.611217164611816,25.945842116088865Q22.630257164611816,26.008602116088866,22.643047164611815,26.072926116088865Q22.655847164611817,26.137251116088866,22.662267164611816,26.20251911608887Q22.668697164611817,26.267787816088866,22.668697164611817,26.333372116088867Q22.668697164611817,26.39895641608887,22.662267164611816,26.464225116088866Q22.655847164611817,26.52949311608887,22.643047164611815,26.59381811608887Q22.630257164611816,26.658142116088868,22.611217164611816,26.72090211608887Q22.592177164611815,26.783662116088866,22.567077164611817,26.844254116088866Q22.541977164611815,26.904846116088866,22.511067164611816,26.962687116088865Q22.480147164611815,27.020527116088868,22.443707164611816,27.07505811608887Q22.407277164611816,27.129590116088867,22.365667164611818,27.180287116088866Q22.324057164611816,27.230984116088866,22.277687164611816,27.277360116088868Q22.231317164611816,27.323735116088866,22.180617164611817,27.36534211608887Q22.12991716461182,27.406952116088867,22.07538716461182,27.443382116088866Q22.020857164611815,27.47982211608887,21.963017164611816,27.510732116088867Q21.905177164611818,27.541652116088866,21.844577164611817,27.566752116088868Q21.783987164611816,27.591852116088866,21.72122716461182,27.610892116088866Q21.658467164611817,27.629922116088867,21.594147164611815,27.642722116088866Q21.529817164611817,27.655512116088868,21.46455716461182,27.661942116088866Q21.399287164611817,27.668372116088868,21.333697164611817,27.668372116088868Q21.30033716461182,27.668372116088868,21.267017164611815,27.666702116088867L15.567054664611817,27.666702116088867Z"
          fill-rule="evenodd" fill="#474747" fill-opacity="1" />
      </g>
    </g>
  </g>
</svg>