<svg xmlns="http://www.w3.org/2000/svg" xmlns:xlink="http://www.w3.org/1999/xlink" fill="none" version="1.1" width="20" height="20" viewBox="0 0 20 20"><defs><clipPath id="master_svg0_4164_74237"><rect x="0" y="0" width="20" height="20" rx="0"/></clipPath></defs><g clip-path="url(#master_svg0_4164_74237)"><g><path d="M1.1640625,10.000078046875Q1.1640625,13.658948046875,3.7512825,16.246148046875Q6.3385525,18.833448046875,9.9973925,18.833448046875Q13.6562625,18.833448046875,16.2434625,16.246148046875Q18.8307625,13.658948046875,18.8307625,10.000078046875Q18.8307625,6.341238046875,16.2434625,3.753968046875Q13.6562625,1.166748046875,9.9973925,1.166748046875Q6.3385425,1.166748046875,3.7512825,3.753968046875Q1.1640625,6.341238046875,1.1640625,10.000078046875ZM9.9973925,17.833448046875Q6.7527625,17.833448046875,4.4583925,15.539048046875Q2.1640625,13.244748046875,2.1640625,10.000078046875Q2.1640625,6.755438046875,4.4583925,4.461078046875Q6.7527525,2.166748046875,9.9973925,2.166748046875Q13.2420625,2.166748046875,15.5363625,4.461078046875Q17.8307625,6.755448046875,17.8307625,10.000078046875Q17.8307625,13.244748046875,15.5363625,15.539048046875Q13.2420625,17.833448046875,9.9973925,17.833448046875Z" fill-rule="evenodd" fill="#50D2C1" fill-opacity="1"/></g><g><path d="M11.0442675,5.624921953125Q11.0442675,5.676091953125,11.0392575,5.727021953125Q11.0342375,5.777951953125,11.024257500000001,5.828141953125Q11.014267499999999,5.8783319531250005,10.9994175,5.927301953125Q10.984557500000001,5.976271953125,10.9649775,6.023551953125Q10.9453975,6.070821953125,10.921267499999999,6.115951953125Q10.897147499999999,6.161091953125,10.8687175,6.203641953125Q10.8402875,6.246191953125,10.8078275,6.285741953125Q10.7753575,6.325301953125,10.7391775,6.361491953125Q10.7029875,6.397671953125,10.663427500000001,6.430141953125Q10.6238675,6.4626019531250005,10.5813275,6.491031953125Q10.5387775,6.519461953125,10.4936375,6.543581953125Q10.4485075,6.567711953125,10.401227500000001,6.587291953125Q10.3539575,6.606871953125,10.3049875,6.621731953125Q10.2560175,6.636581953125,10.2058275,6.646571953125Q10.155637500000001,6.656551953125,10.1047075,6.661571953125Q10.0537775,6.666581953125,10.0026075,6.666581953125Q9.9514305,6.666581953125,9.9005025,6.661571953125Q9.8495755,6.656551953125,9.7993845,6.646571953125Q9.7491945,6.636581953125,9.700224500000001,6.621731953125Q9.6512535,6.606871953125,9.6039755,6.587291953125Q9.5566975,6.567711953125,9.5115655,6.543581953125Q9.4664345,6.519461953125,9.4238855,6.491031953125Q9.3813355,6.4626019531250005,9.3417775,6.430141953125Q9.3022195,6.397671953125,9.2660345,6.361491953125Q9.2298495,6.325301953125,9.1973845,6.285741953125Q9.1649205,6.246191953125,9.1364895,6.203641953125Q9.1080595,6.161091953125,9.0839365,6.115951953125Q9.059813,6.070821953125,9.0402296,6.023551953125Q9.0206463,5.976271953125,9.0057913,5.927301953125Q8.9909363,5.8783319531250005,8.9809528,5.828141953125Q8.9709693,5.777951953125,8.96595341,5.727021953125Q8.9609375,5.676091953125,8.9609375,5.624921953125Q8.9609375,5.573744953125,8.96595341,5.522817953125Q8.9709693,5.471889953125,8.9809528,5.421699953125Q8.9909363,5.371508953125,9.0057913,5.322538953125Q9.0206463,5.273568953125,9.0402296,5.226289953125Q9.059813,5.179011953125,9.0839365,5.133879953125Q9.1080595,5.088748953125,9.1364895,5.046199953125Q9.1649205,5.003649953125,9.1973845,4.964091953125Q9.2298495,4.924533953125,9.2660345,4.888348953125Q9.3022195,4.852163953125,9.3417775,4.819698953125Q9.3813355,4.787234953125,9.4238855,4.758803953125Q9.4664345,4.730373953125,9.5115655,4.706250953125Q9.5566975,4.682127453125,9.6039755,4.662544053125Q9.6512535,4.642960753125,9.700224500000001,4.628105753125Q9.7491945,4.613250753125,9.7993845,4.603267253125Q9.8495755,4.593283753125,9.9005025,4.588267863125Q9.9514305,4.583251953125,10.0026075,4.583251953125Q10.0537775,4.583251953125,10.1047075,4.588267863125Q10.155637500000001,4.593283753125,10.2058275,4.603267253125Q10.2560175,4.613250753125,10.3049875,4.628105753125Q10.3539575,4.642960753125,10.401227500000001,4.662544053125Q10.4485075,4.682127453125,10.4936375,4.706250953125Q10.5387775,4.730373953125,10.5813275,4.758803953125Q10.6238675,4.787234953125,10.663427500000001,4.819698953125Q10.7029875,4.852163953125,10.7391775,4.888348953125Q10.7753575,4.924533953125,10.8078275,4.964091953125Q10.8402875,5.003649953125,10.8687175,5.046199953125Q10.897147499999999,5.088748953125,10.921267499999999,5.133879953125Q10.9453975,5.179011953125,10.9649775,5.226289953125Q10.984557500000001,5.273568953125,10.9994175,5.322538953125Q11.014267499999999,5.371508953125,11.024257500000001,5.421699953125Q11.0342375,5.471889953125,11.0392575,5.522817953125Q11.0442675,5.573744953125,11.0442675,5.624921953125Z" fill="#50D2C1" fill-opacity="1"/></g><g><path d="M9.708334,8.833251953125L9.375,8.833251953125Q9.3257543,8.833251953125,9.2774549,8.823644953125Q9.229155,8.814036953125001,9.183658,8.795191953125Q9.138161,8.776345953125,9.097215,8.748986953125Q9.056269,8.721626953125,9.021447,8.686804953125Q8.986625,8.651982953125,8.959265,8.611036953125Q8.931906,8.570090953125,8.91306,8.524593953125Q8.894214999999999,8.479096953125,8.884607,8.430797053125Q8.875,8.382497653125,8.875,8.333251953125Q8.875,8.284006253125,8.884607,8.235706853125Q8.894214999999999,8.187406953125,8.91306,8.141909953125Q8.931906,8.096412953125,8.959265,8.055466953125Q8.986625,8.014520953125,9.021447,7.979698953125Q9.056269,7.944876953125,9.097215,7.917516953125Q9.138161,7.890157953125,9.183658,7.871311953125Q9.229155,7.852466953125,9.2774549,7.842858953125Q9.3257543,7.833251953125,9.375,7.833251953125L10.208334,7.833251953125Q10.257579,7.833251953125,10.305879000000001,7.842858953125Q10.354178,7.852466953125,10.39968,7.871311953125Q10.445170000000001,7.890157953125,10.48612,7.917516953125Q10.52706,7.944876953125,10.56189,7.979698953125Q10.59671,8.014520953125,10.62407,8.055466953125Q10.65143,8.096412953125,10.67027,8.141909953125Q10.689119999999999,8.187406953125,10.69873,8.235706853125Q10.70833,8.284006253125,10.70833,8.333251953125L10.70833,14.166581953125Q10.70833,14.215831953125,10.69873,14.264131953125Q10.689119999999999,14.312431953125,10.67027,14.357921953125Q10.65143,14.403421953125001,10.62407,14.444371953125Q10.59671,14.485311953124999,10.56189,14.520141953125Q10.52706,14.554961953125,10.48612,14.582321953125Q10.445170000000001,14.609681953125001,10.39968,14.628521953125Q10.354178,14.647371953124999,10.305879000000001,14.656981953125001Q10.257579,14.666581953125,10.208334,14.666581953125Q10.159088,14.666581953125,10.110789,14.656981953125001Q10.062489,14.647371953124999,10.016992,14.628521953125Q9.971495,14.609681953125001,9.930549,14.582321953125Q9.889602,14.554961953125,9.85478,14.520141953125Q9.819958,14.485311953124999,9.792599,14.444371953125Q9.765239,14.403421953125001,9.746394,14.357921953125Q9.727548,14.312431953125,9.717941,14.264131953125Q9.708334,14.215831953125,9.708334,14.166581953125L9.708334,8.833251953125Z" fill-rule="evenodd" fill="#50D2C1" fill-opacity="1"/></g><g><path d="M8.75,13.666748046875L11.66667,13.666748046875Q11.715910000000001,13.666748046875,11.76421,13.676355046875Q11.81251,13.685963046874999,11.85801,13.704808046875Q11.903500000000001,13.723654046875,11.94445,13.751013046875Q11.9854,13.778373046875,12.02022,13.813195046875Q12.05504,13.848017046875,12.0824,13.888963046875Q12.10976,13.929909046875,12.12861,13.975406046875Q12.14745,14.020903046875,12.15706,14.069202946875Q12.16667,14.117502346875,12.16667,14.166748046875Q12.16667,14.215993746875,12.15706,14.264293146875Q12.14745,14.312593046875,12.12861,14.358090046875Q12.10976,14.403587046875,12.0824,14.444533046875Q12.05504,14.485479046875,12.02022,14.520301046875Q11.9854,14.555123046875,11.94445,14.582483046875Q11.903500000000001,14.609842046875,11.85801,14.628688046875Q11.81251,14.647533046875001,11.76421,14.657141046875Q11.715910000000001,14.666748046875,11.66667,14.666748046875L8.75,14.666748046875Q8.7007543,14.666748046875,8.6524549,14.657141046875Q8.604155,14.647533046875001,8.558658,14.628688046875Q8.513161,14.609842046875,8.472215,14.582483046875Q8.431269,14.555123046875,8.396447,14.520301046875Q8.361625,14.485479046875,8.334265,14.444533046875Q8.306906,14.403587046875,8.28806,14.358090046875Q8.269214999999999,14.312593046875,8.259607,14.264293146875Q8.25,14.215993746875,8.25,14.166748046875Q8.25,14.117502346875,8.259607,14.069202946875Q8.269214999999999,14.020903046875,8.28806,13.975406046875Q8.306906,13.929909046875,8.334265,13.888963046875Q8.361625,13.848017046875,8.396447,13.813195046875Q8.431269,13.778373046875,8.472215,13.751013046875Q8.513161,13.723654046875,8.558658,13.704808046875Q8.604155,13.685963046874999,8.6524549,13.676355046875Q8.7007543,13.666748046875,8.75,13.666748046875Z" fill-rule="evenodd" fill="#50D2C1" fill-opacity="1"/></g></g></svg>