<svg xmlns="http://www.w3.org/2000/svg" xmlns:xlink="http://www.w3.org/1999/xlink" fill="none" version="1.1" width="20" height="20" viewBox="0 0 20 20"><defs><clipPath id="master_svg0_3875_28138"><rect x="0" y="0" width="20" height="20" rx="0"/></clipPath></defs><g clip-path="url(#master_svg0_3875_28138)"><g><path d="M1.6281843,13.535948046875Q2.3177035,15.166148046875,3.5745025,16.422948046875Q4.8313325,17.679748046875,6.4615325,18.369248046875Q8.1499125,19.083448046875,9.9973925,19.083448046875Q11.8448625,19.083448046875,13.5332625,18.369248046875Q15.1634625,17.679748046875,16.4202625,16.422948046875Q17.6770625,15.166148046875,18.3665625,13.535948046875Q19.0807625,11.847548046875,19.0807625,10.000078046875Q19.0807625,8.152598046875,18.3665625,6.464218046875Q17.6770625,4.834018046875,16.4202625,3.577198046875Q15.1634625,2.320389046875,13.5332625,1.630869946875Q11.8448625,0.916748046875,9.9973925,0.916748046875Q8.1499125,0.916748046875,6.4615325,1.630869646875Q4.8313325,2.320387046875,3.5745125,3.577188046875Q2.3177015,4.834018046875,1.6281841,6.464218046875Q0.9140625,8.152598046875,0.9140625,10.000078046875Q0.9140625,11.847548046875,1.6281843,13.535948046875ZM9.9973925,17.583448046875Q6.8563125,17.583448046875,4.6351625,15.362248046875Q2.4140625,13.141148046875,2.4140625,10.000078046875Q2.4140625,6.858998046875,4.6351625,4.6378580468749995Q6.8563125,2.416748046875,9.9973925,2.416748046875Q13.1384625,2.416748046875,15.3595625,4.637848046875Q17.5807625,6.858998046875,17.5807625,10.000078046875Q17.5807625,13.141148046875,15.3595625,15.362248046875Q13.1384625,17.583448046875,9.9973925,17.583448046875Z" fill-rule="evenodd" fill="#FFA95B" fill-opacity="1"/></g><g><path d="M11.0442675,5.624921953125Q11.0442675,5.676091953125,11.0392575,5.727021953125Q11.0342375,5.777951953125,11.024257500000001,5.828141953125Q11.014267499999999,5.8783319531250005,10.9994175,5.927301953125Q10.984557500000001,5.976271953125,10.9649775,6.023551953125Q10.9453975,6.070821953125,10.921267499999999,6.115951953125Q10.897147499999999,6.161091953125,10.8687175,6.203641953125Q10.8402875,6.246191953125,10.8078275,6.285741953125Q10.7753575,6.325301953125,10.7391775,6.361491953125Q10.7029875,6.397671953125,10.663427500000001,6.430141953125Q10.6238675,6.4626019531250005,10.5813275,6.491031953125Q10.5387775,6.519461953125,10.4936375,6.543581953125Q10.4485075,6.567711953125,10.401227500000001,6.587291953125Q10.3539575,6.606871953125,10.3049875,6.621731953125Q10.2560175,6.636581953125,10.2058275,6.646571953125Q10.155637500000001,6.656551953125,10.1047075,6.661571953125Q10.0537775,6.666581953125,10.0026075,6.666581953125Q9.9514305,6.666581953125,9.9005025,6.661571953125Q9.8495755,6.656551953125,9.7993845,6.646571953125Q9.7491945,6.636581953125,9.700224500000001,6.621731953125Q9.6512535,6.606871953125,9.6039755,6.587291953125Q9.5566975,6.567711953125,9.5115655,6.543581953125Q9.4664345,6.519461953125,9.4238855,6.491031953125Q9.3813355,6.4626019531250005,9.3417775,6.430141953125Q9.3022195,6.397671953125,9.2660345,6.361491953125Q9.2298495,6.325301953125,9.1973845,6.285741953125Q9.1649205,6.246191953125,9.1364895,6.203641953125Q9.1080595,6.161091953125,9.0839365,6.115951953125Q9.059813,6.070821953125,9.0402296,6.023551953125Q9.0206463,5.976271953125,9.0057913,5.927301953125Q8.9909363,5.8783319531250005,8.9809528,5.828141953125Q8.9709693,5.777951953125,8.96595341,5.727021953125Q8.9609375,5.676091953125,8.9609375,5.624921953125Q8.9609375,5.573744953125,8.96595341,5.522817953125Q8.9709693,5.471889953125,8.9809528,5.421699953125Q8.9909363,5.371508953125,9.0057913,5.322538953125Q9.0206463,5.273568953125,9.0402296,5.226289953125Q9.059813,5.179011953125,9.0839365,5.133879953125Q9.1080595,5.088748953125,9.1364895,5.046199953125Q9.1649205,5.003649953125,9.1973845,4.964091953125Q9.2298495,4.924533953125,9.2660345,4.888348953125Q9.3022195,4.852163953125,9.3417775,4.819698953125Q9.3813355,4.787234953125,9.4238855,4.758803953125Q9.4664345,4.730373953125,9.5115655,4.706250953125Q9.5566975,4.682127453125,9.6039755,4.662544053125Q9.6512535,4.642960753125,9.700224500000001,4.628105753125Q9.7491945,4.613250753125,9.7993845,4.603267253125Q9.8495755,4.593283753125,9.9005025,4.588267863125Q9.9514305,4.583251953125,10.0026075,4.583251953125Q10.0537775,4.583251953125,10.1047075,4.588267863125Q10.155637500000001,4.593283753125,10.2058275,4.603267253125Q10.2560175,4.613250753125,10.3049875,4.628105753125Q10.3539575,4.642960753125,10.401227500000001,4.662544053125Q10.4485075,4.682127453125,10.4936375,4.706250953125Q10.5387775,4.730373953125,10.5813275,4.758803953125Q10.6238675,4.787234953125,10.663427500000001,4.819698953125Q10.7029875,4.852163953125,10.7391775,4.888348953125Q10.7753575,4.924533953125,10.8078275,4.964091953125Q10.8402875,5.003649953125,10.8687175,5.046199953125Q10.897147499999999,5.088748953125,10.921267499999999,5.133879953125Q10.9453975,5.179011953125,10.9649775,5.226289953125Q10.984557500000001,5.273568953125,10.9994175,5.322538953125Q11.014267499999999,5.371508953125,11.024257500000001,5.421699953125Q11.0342375,5.471889953125,11.0392575,5.522817953125Q11.0442675,5.573744953125,11.0442675,5.624921953125Z" fill="#FFA95B" fill-opacity="1"/></g><g><path d="M9.4583337,9.083251953125L9.375,9.083251953125Q9.3011315,9.083251953125,9.228682,9.068840953125001Q9.156233,9.054429953125,9.087987,9.026161953125Q9.019742,8.997892953125,8.958322,8.956853953125Q8.896903,8.915814953125,8.84467,8.863581953125Q8.792437,8.811348953125,8.751398,8.749929953125Q8.710359,8.688509953125,8.68209,8.620264953125Q8.653822,8.552018953125,8.639410999999999,8.479569953125Q8.625,8.407120453125,8.625,8.333251953125Q8.625,8.259383453125,8.639410999999999,8.186933953125Q8.653822,8.114484953125,8.68209,8.046238953125Q8.710359,7.977993953125,8.751398,7.916573953125Q8.792437,7.855154953125,8.84467,7.802921953125Q8.896903,7.750688953125,8.958322,7.709649953125Q9.019742,7.668610953125,9.087987,7.640341953125Q9.156233,7.612073953125,9.228682,7.597662953125Q9.3011315,7.583251953125,9.375,7.583251953125L10.208334,7.583251953125Q10.282202,7.583251953125,10.354651,7.597662953125Q10.4271,7.612073953125,10.49535,7.640341953125Q10.56359,7.668610953125,10.62501,7.709649953125Q10.68643,7.750688953125,10.73866,7.802921953125Q10.7909,7.855154953125,10.83194,7.916573953125Q10.87297,7.977993953125,10.90124,8.046238953125Q10.92951,8.114484953125,10.94392,8.186933953125Q10.95833,8.259383453125,10.95833,8.333251953125L10.95833,14.166581953125Q10.95833,14.240451953125,10.94392,14.312901953125Q10.92951,14.385351953125,10.90124,14.453591953124999Q10.87297,14.521841953125,10.83194,14.583261953125Q10.7909,14.644681953125,10.73866,14.696911953125Q10.68643,14.749151953125,10.62501,14.790181953125Q10.56359,14.831221953124999,10.49535,14.859491953125Q10.4271,14.887761953125,10.354651,14.902171953125Q10.282202,14.916581953125,10.208334,14.916581953125Q10.134465,14.916581953125,10.062016,14.902171953125Q9.989567,14.887761953125,9.921321,14.859491953125Q9.853075,14.831221953124999,9.791656,14.790181953125Q9.730237,14.749151953125,9.678004,14.696911953125Q9.625771,14.644681953125,9.584732,14.583261953125Q9.543692,14.521841953125,9.515424,14.453591953124999Q9.487156,14.385351953125,9.4727448,14.312901953125Q9.4583337,14.240451953125,9.4583337,14.166581953125L9.4583337,9.083251953125Z" fill-rule="evenodd" fill="#FFA95B" fill-opacity="1"/></g><g><path d="M8.75,13.416748046875L11.66667,13.416748046875Q11.74053,13.416748046875,11.81298,13.431159046874999Q11.88543,13.445570046875,11.95368,13.473838046875Q12.02192,13.502107046875,12.08334,13.543146046875Q12.14476,13.584185046875,12.197,13.636418046875Q12.24923,13.688651046875,12.29027,13.750070046875Q12.33131,13.811490046875,12.35958,13.879735046875Q12.38784,13.947981046875,12.40225,14.020430046875Q12.41667,14.092879546875,12.41667,14.166748046875Q12.41667,14.240616546875,12.40226,14.313066046875Q12.38784,14.385515046875,12.35958,14.453761046875Q12.33131,14.522006046875,12.29027,14.583426046875Q12.24923,14.644845046875,12.197,14.697078046875Q12.14476,14.749311046875,12.08334,14.790350046875Q12.02192,14.831389046875,11.95368,14.859658046875Q11.88543,14.887926046875,11.81298,14.902337046875001Q11.74053,14.916748046875,11.66667,14.916748046875L8.75,14.916748046875Q8.6761315,14.916748046875,8.603682,14.902337046875001Q8.531233,14.887926046875,8.462987,14.859658046875Q8.394742,14.831389046875,8.333322,14.790350046875Q8.271903,14.749311046875,8.21967,14.697078046875Q8.167437,14.644845046875,8.126398,14.583426046875Q8.085359,14.522006046875,8.05709,14.453761046875Q8.028822,14.385515046875,8.014410999999999,14.313066046875Q8,14.240616546875,8,14.166748046875Q8,14.092879546875,8.014410999999999,14.020430046875Q8.028822,13.947981046875,8.05709,13.879735046875Q8.085359,13.811490046875,8.126398,13.750070046875Q8.167437,13.688651046875,8.21967,13.636418046875Q8.271903,13.584185046875,8.333322,13.543146046875Q8.394742,13.502107046875,8.462987,13.473838046875Q8.531233,13.445570046875,8.603682,13.431159046874999Q8.6761315,13.416748046875,8.75,13.416748046875Z" fill-rule="evenodd" fill="#FFA95B" fill-opacity="1"/></g></g></svg>