<svg xmlns="http://www.w3.org/2000/svg" xmlns:xlink="http://www.w3.org/1999/xlink" fill="none" version="1.1" width="20" height="20" viewBox="0 0 20 20"><defs><clipPath id="master_svg0_4019_33615"><rect x="0" y="0" width="20" height="20" rx="0"/></clipPath></defs><g clip-path="url(#master_svg0_4019_33615)"><g><path d="M10.245138046875,1.3741718125Q10.126068046875,1.3330078125,10.000078046875,1.3330078125Q9.874098046875,1.3330078125,9.755028046875,1.3741718125L1.421693046875,4.2551278125Q1.351879046875,4.2792678125000005,1.288115046875,4.3165578125Q1.224350046875,4.3538478125,1.169087046875,4.4028678125Q1.113823046875,4.451877812499999,1.069184046875,4.5107378125Q1.0245450468750001,4.5695878125,0.992245046875,4.6360278125Q0.959946046875,4.7024578125000005,0.941227046875,4.773917812500001Q0.922509046875,4.8453678125,0.918091046875,4.9191078125Q0.913673046875,4.9928478125,0.923725046875,5.0660278125Q0.933777046875,5.1392078125000005,0.957912046875,5.2090178125Q0.985519046875,5.2888778125,1.030200046875,5.3605878125Q1.074882046875,5.4322978125,1.134397046875,5.4922678125Q1.193913046875,5.5522378125,1.265280046875,5.5974678125Q1.336647046875,5.6426978125,1.416288046875,5.670907812499999L9.749618046875,8.6232878125Q9.871148046875,8.6663378125,10.000078046875,8.6663378125Q10.129008046875,8.6663378125,10.250538046875,8.6232878125L18.583848046875,5.670907812499999Q18.653548046875,5.6462378125,18.716948046875,5.6084678125Q18.780448046875,5.5706878125,18.835348046875,5.5212478125Q18.890248046875,5.471817812499999,18.934448046875,5.412617812500001Q18.978648046875,5.3534278125,19.010448046875,5.2867478125Q19.042148046875,5.2200678125,19.060348046875,5.1484778124999995Q19.078548046875,5.076877812499999,19.082348046875,5.0031078125Q19.086248046875,4.9293378125,19.075648046875,4.8562378125Q19.065048046875,4.7831378125,19.040348046875,4.7135078125Q19.012148046875,4.6338678125,18.966948046875,4.5624978125Q18.921648046875,4.4911278125,18.861748046875,4.4316178125Q18.801748046875,4.3720978125,18.730048046875,4.3274178125Q18.658348046875,4.282737812500001,18.578448046875,4.2551278125L10.245138046875,1.3741718125ZM10.000078046875,2.8765628125L3.937078046875,4.9726378125L10.000078046875,7.1206578125L16.063048046875,4.9726278125L10.000078046875,2.8765628125Z" fill-rule="evenodd" fill="#2D2E33" fill-opacity="1"/></g><g><path d="M1.914681046875,7.6251738125L10.000078046875,10.4550678125L18.085448046875,7.6251778125000005L18.085648046875,7.6251138125Q18.205948046875,7.5830078125,18.333448046875,7.5830078125Q18.407248046875,7.5830078125,18.479748046875,7.5974188125Q18.552148046875,7.6118298125,18.620448046875,7.6400978125Q18.688648046875,7.6683668125,18.750048046875,7.7094058125Q18.811548046875,7.7504448125,18.863748046875,7.8026778125Q18.915948046875,7.8549108125,18.957048046875,7.9163298125Q18.998048046875,7.9777498125,19.026348046875,8.0459948125Q19.054548046875,8.1142408125,19.069048046875,8.1866898125Q19.083448046875,8.2591393125,19.083448046875,8.3330078125Q19.083448046875,8.3909722125,19.074548046875,8.4482488125Q19.065648046875,8.5055248125,19.047948046875,8.5607518125Q19.030348046875,8.6159788125,19.004548046875,8.6678458125Q18.978648046875,8.7197138125,18.945148046875,8.7669878125Q18.911548046875,8.8142628125,18.871148046875,8.8558228125Q18.830748046875,8.8973828125,18.784448046875,8.9322398125Q18.738148046875,8.9670978125,18.687048046875,8.9944248125Q18.635848046875,9.0217528125,18.581148046875,9.0409018125L18.580948046875,9.0409648125L10.247838046875,11.957567812499999Q10.127538046875,11.9996778125,10.000078046875,11.9996778125Q9.872618046875,11.9996778125,9.752318046875,11.957567812499999L1.419155046875,9.0409608125L1.418985046875,9.0409018125Q1.364275046875,9.0217528125,1.313157046875,8.9944248125Q1.2620380468749999,8.9670978125,1.215726046875,8.9322398125Q1.169414046875,8.8973828125,1.1290080468750001,8.8558228125Q1.088602046875,8.8142628125,1.0550610468750001,8.7669878125Q1.021520046875,8.7197128125,0.995642046875,8.6678458125Q0.969764046875,8.6159788125,0.952162046875,8.5607518125Q0.934561046875,8.5055248125,0.925655046875,8.4482488125Q0.916748046875,8.3909722125,0.916748046875,8.3330078125Q0.916748046875,8.2591393125,0.931159046875,8.1866898125Q0.945570046875,8.1142408125,0.973838046875,8.0459948125Q1.002107046875,7.9777498125,1.043146046875,7.9163298125Q1.084185046875,7.8549108125,1.136418046875,7.8026778125Q1.188651046875,7.7504448125,1.250070046875,7.7094058125Q1.311490046875,7.6683668125,1.379735046875,7.6400978125Q1.447981046875,7.6118298125,1.520430046875,7.5974188125Q1.5928795468749999,7.5830078125,1.666748046875,7.5830078125Q1.794207046875,7.5830078125,1.914511046875,7.6251138125L1.914681046875,7.6251738125Z" fill-rule="evenodd" fill="#2D2E33" fill-opacity="1"/></g><g><path d="M1.914681046875,10.9591581875L10.000078046875,13.7890521875L18.085448046875,10.9591621875L18.085648046875,10.9590981875Q18.205948046875,10.9169921875,18.333448046875,10.9169921875Q18.407248046875,10.9169921875,18.479748046875,10.931403187499999Q18.552148046875,10.9458141875,18.620448046875,10.9740821875Q18.688648046875,11.0023511875,18.750048046875,11.0433901875Q18.811548046875,11.0844291875,18.863748046875,11.1366621875Q18.915948046875,11.1888951875,18.957048046875,11.2503141875Q18.998048046875,11.3117341875,19.026348046875,11.3799791875Q19.054548046875,11.4482251875,19.069048046875,11.5206741875Q19.083448046875,11.5931236875,19.083448046875,11.6669921875Q19.083448046875,11.7249565875,19.074548046875,11.7822331875Q19.065648046875,11.8395091875,19.047948046875,11.8947361875Q19.030348046875,11.9499631875,19.004548046875,12.0018301875Q18.978648046875,12.0536981875,18.945148046875,12.1009721875Q18.911548046875,12.1482471875,18.871148046875,12.1898071875Q18.830748046875,12.2313671875,18.784448046875,12.2662241875Q18.738148046875,12.3010821875,18.687048046875,12.3284091875Q18.635848046875,12.3557371875,18.581148046875,12.3748861875L18.580948046875,12.3749491875L10.247838046875,15.291552187499999Q10.127538046875,15.3336621875,10.000078046875,15.3336621875Q9.872618046875,15.3336621875,9.752318046875,15.291552187499999L1.419155046875,12.3749451875L1.418985046875,12.3748861875Q1.364275046875,12.3557371875,1.313157046875,12.3284091875Q1.2620380468749999,12.3010821875,1.215726046875,12.2662241875Q1.169414046875,12.2313671875,1.1290080468750001,12.1898071875Q1.088602046875,12.1482471875,1.0550610468750001,12.1009721875Q1.021520046875,12.0536971875,0.995642046875,12.0018301875Q0.969764046875,11.9499631875,0.952162046875,11.8947361875Q0.934561046875,11.8395091875,0.925655046875,11.7822331875Q0.916748046875,11.7249565875,0.916748046875,11.6669921875Q0.916748046875,11.5931236875,0.931159046875,11.5206741875Q0.945570046875,11.4482251875,0.973838046875,11.3799791875Q1.002107046875,11.3117341875,1.043146046875,11.2503141875Q1.084185046875,11.1888951875,1.136418046875,11.1366621875Q1.188651046875,11.0844291875,1.250070046875,11.0433901875Q1.311490046875,11.0023511875,1.379735046875,10.9740821875Q1.447981046875,10.9458141875,1.520430046875,10.931403187499999Q1.5928795468749999,10.9169921875,1.666748046875,10.9169921875Q1.794207046875,10.9169921875,1.914511046875,10.9590981875L1.914681046875,10.9591581875Z" fill-rule="evenodd" fill="#2D2E33" fill-opacity="1"/></g><g><path d="M1.914681046875,14.292166L10.000078046875,17.12206L18.085448046875,14.29217L18.085648046875,14.292106Q18.205948046875,14.25,18.333448046875,14.25Q18.407248046875,14.25,18.479748046875,14.264410999999999Q18.552148046875,14.278822,18.620448046875,14.30709Q18.688648046875,14.335359,18.750048046875,14.376398Q18.811548046875,14.417437,18.863748046875,14.46967Q18.915948046875,14.521903,18.957048046875,14.583322Q18.998048046875,14.644742,19.026348046875,14.712987Q19.054548046875,14.781233,19.069048046875,14.853682Q19.083448046875,14.9261315,19.083448046875,15Q19.083448046875,15.0579644,19.074548046875,15.115241Q19.065648046875,15.172517,19.047948046875,15.227744Q19.030348046875,15.282971,19.004548046875,15.334838Q18.978648046875,15.386706,18.945148046875,15.43398Q18.911548046875,15.481255,18.871148046875,15.522815Q18.830748046875,15.564375,18.784448046875,15.599232Q18.738148046875,15.63409,18.687048046875,15.661417Q18.635848046875,15.688745,18.581148046875,15.707894L18.580948046875,15.707957L10.247838046875,18.62456Q10.127538046875,18.66667,10.000078046875,18.66667Q9.872618046875,18.66667,9.752318046875,18.62456L1.419155046875,15.707953L1.418985046875,15.707894Q1.364275046875,15.688745,1.313157046875,15.661417Q1.2620380468749999,15.63409,1.215726046875,15.599232Q1.169414046875,15.564375,1.1290080468750001,15.522815Q1.088602046875,15.481255,1.0550610468750001,15.43398Q1.021520046875,15.386705,0.995642046875,15.334838Q0.969764046875,15.282971,0.952162046875,15.227744Q0.934561046875,15.172517,0.925655046875,15.115241Q0.916748046875,15.0579644,0.916748046875,15Q0.916748046875,14.9261315,0.931159046875,14.853682Q0.945570046875,14.781233,0.973838046875,14.712987Q1.002107046875,14.644742,1.043146046875,14.583322Q1.084185046875,14.521903,1.136418046875,14.46967Q1.188651046875,14.417437,1.250070046875,14.376398Q1.311490046875,14.335359,1.379735046875,14.30709Q1.447981046875,14.278822,1.520430046875,14.264410999999999Q1.5928795468749999,14.25,1.666748046875,14.25Q1.794207046875,14.25,1.914511046875,14.292106L1.914681046875,14.292166Z" fill-rule="evenodd" fill="#2D2E33" fill-opacity="1"/></g></g></svg>