<svg xmlns="http://www.w3.org/2000/svg" xmlns:xlink="http://www.w3.org/1999/xlink" fill="none" version="1.1" width="20" height="20" viewBox="0 0 20 20"><defs><clipPath id="master_svg0_4164_72957"><rect x="0" y="0" width="20" height="20" rx="0"/></clipPath></defs><g clip-path="url(#master_svg0_4164_72957)"><g><path d="M2,14.16536125L2,8.33203125Q2,8.28278555,2.009607,8.23448615Q2.019215,8.18618625,2.0380599999999998,8.14068925Q2.056906,8.09519225,2.084265,8.05424625Q2.111625,8.01330025,2.146447,7.97847825Q2.181269,7.94365625,2.222215,7.91629625Q2.263161,7.88893725,2.308658,7.87009125Q2.354155,7.85124625,2.4024549,7.84163825Q2.4507543,7.83203125,2.5,7.83203125L5.83333,7.83203125Q5.88258,7.83203125,5.93088,7.84163825Q5.9791799999999995,7.85124625,6.02467,7.87009125Q6.07017,7.88893725,6.11112,7.91629625Q6.1520600000000005,7.94365625,6.18689,7.97847825Q6.22171,8.01330025,6.24907,8.05424625Q6.2764299999999995,8.09519225,6.29527,8.14068925Q6.31412,8.18618625,6.323729999999999,8.23448615Q6.33333,8.28278555,6.33333,8.33203125L6.33333,14.16536125Q6.33333,14.21461125,6.323729999999999,14.26291125Q6.31412,14.31121125,6.29527,14.35670125Q6.2764299999999995,14.402201250000001,6.24907,14.44315125Q6.22171,14.484091249999999,6.18689,14.51892125Q6.1520600000000005,14.55374125,6.11112,14.58110125Q6.07017,14.608461250000001,6.02467,14.62730125Q5.9791799999999995,14.646151249999999,5.93088,14.655761250000001Q5.88258,14.66536125,5.83333,14.66536125L2.5,14.66536125Q2.4507543,14.66536125,2.4024549,14.655761250000001Q2.354155,14.646151249999999,2.308658,14.62730125Q2.263161,14.608461250000001,2.222215,14.58110125Q2.181269,14.55374125,2.146447,14.51892125Q2.111625,14.484091249999999,2.084265,14.44315125Q2.056906,14.402201250000001,2.0380599999999998,14.35670125Q2.019215,14.31121125,2.009607,14.26291125Q2,14.21461125,2,14.16536125ZM3,8.83203125L3,13.66536125L5.33333,13.66536125L5.33333,8.83203125L3,8.83203125Z" fill="#D1D4DC" fill-opacity="1" style="mix-blend-mode:passthrough"/></g><g><path d="M7.8333740234375,16.66533125L7.8333740234375,5.83203125Q7.8333740234375,5.78278555,7.8429810234375,5.73448615Q7.8525890234375,5.68618625,7.8714340234375,5.64068925Q7.8902800234375,5.59519225,7.9176390234375,5.55424625Q7.9449990234375,5.51330025,7.9798210234375,5.47847825Q8.0146430234375,5.44365625,8.0555890234375,5.41629625Q8.0965350234375,5.38893725,8.1420320234375,5.37009125Q8.1875290234375,5.35124625,8.2358289234375,5.34163825Q8.2841283234375,5.33203125,8.3333740234375,5.33203125L11.6667040234375,5.33203125Q11.7159540234375,5.33203125,11.7642540234375,5.34163825Q11.8125540234375,5.35124625,11.8580440234375,5.37009125Q11.903544023437501,5.38893725,11.9444940234375,5.41629625Q11.9854340234375,5.44365625,12.0202640234375,5.47847825Q12.0550840234375,5.51330025,12.0824440234375,5.55424625Q12.1098040234375,5.59519225,12.1286440234375,5.64068925Q12.147494023437499,5.68618625,12.1571040234375,5.73448615Q12.1667040234375,5.78278555,12.1667040234375,5.83203125L12.1667040234375,16.66533125Q12.1667040234375,16.71463125,12.1571040234375,16.76293125Q12.147494023437499,16.81123125,12.1286440234375,16.85673125Q12.1098040234375,16.90223125,12.0824440234375,16.94313125Q12.0550840234375,16.98413125,12.0202640234375,17.01893125Q11.9854340234375,17.05373125,11.9444940234375,17.08113125Q11.903544023437501,17.108431250000002,11.8580440234375,17.127331249999997Q11.8125540234375,17.14613125,11.7642540234375,17.155731250000002Q11.7159540234375,17.16533125,11.6667040234375,17.16533125L8.3333740234375,17.16533125Q8.2841283234375,17.16533125,8.2358289234375,17.155731250000002Q8.1875290234375,17.14613125,8.1420320234375,17.127331249999997Q8.0965350234375,17.108431250000002,8.0555890234375,17.08113125Q8.0146430234375,17.05373125,7.9798210234375,17.01893125Q7.9449990234375,16.98413125,7.9176390234375,16.94313125Q7.8902800234375,16.90223125,7.8714340234375,16.85673125Q7.8525890234375,16.81123125,7.8429810234375,16.76293125Q7.8333740234375,16.71463125,7.8333740234375,16.66533125ZM8.8333740234375,6.33203125L8.8333740234375,16.16533125L11.1667040234375,16.16533125L11.1667040234375,6.33203125L8.8333740234375,6.33203125Z" fill="#D1D4DC" fill-opacity="1" style="mix-blend-mode:passthrough"/></g><g><path d="M9.5,16.66796875Q9.5,16.61872305,9.509607,16.57042365Q9.519214999999999,16.52212375,9.53806,16.47662675Q9.556906,16.43112975,9.584265,16.39018375Q9.611625,16.34923775,9.646447,16.31441575Q9.681269,16.27959375,9.722215,16.25223375Q9.763161,16.22487475,9.808658,16.20602875Q9.854155,16.18718375,9.9024549,16.17757575Q9.9507543,16.16796875,10,16.16796875Q10.0492457,16.16796875,10.0975451,16.17757575Q10.145845,16.18718375,10.191342,16.20602875Q10.236839,16.22487475,10.277785,16.25223375Q10.318731,16.27959375,10.353553,16.31441575Q10.388375,16.34923775,10.415735,16.39018375Q10.443094,16.43112975,10.46194,16.47662675Q10.480785000000001,16.52212375,10.490393,16.57042365Q10.5,16.61872305,10.5,16.66796875L10.5,18.33463875Q10.5,18.38387875,10.490393,18.43217875Q10.480785000000001,18.48047875,10.46194,18.52597875Q10.443094,18.57146875,10.415735,18.61241875Q10.388375,18.65336875,10.353553,18.688188750000002Q10.318731,18.723008749999998,10.277785,18.75036875Q10.236839,18.77772875,10.191342,18.796578750000002Q10.145845,18.81541875,10.0975451,18.82502875Q10.0492457,18.83463875,10,18.83463875Q9.9507543,18.83463875,9.9024549,18.82502875Q9.854155,18.81541875,9.808658,18.796578750000002Q9.763161,18.77772875,9.722215,18.75036875Q9.681269,18.723008749999998,9.646447,18.688188750000002Q9.611625,18.65336875,9.584265,18.61241875Q9.556906,18.57146875,9.53806,18.52597875Q9.519214999999999,18.48047875,9.509607,18.43217875Q9.5,18.38387875,9.5,18.33463875L9.5,16.66796875Z" fill-rule="evenodd" fill="#D1D4DC" fill-opacity="1" style="mix-blend-mode:passthrough"/></g><g><path d="M13.6666259765625,8.75L13.6666259765625,5Q13.6666259765625,4.9507543,13.6762329765625,4.9024549Q13.685840976562499,4.854155,13.7046859765625,4.808658Q13.7235319765625,4.763161,13.7508909765625,4.722215Q13.7782509765625,4.681269,13.8130729765625,4.646447Q13.8478949765625,4.611625,13.8888409765625,4.584265Q13.9297869765625,4.556906,13.9752839765625,4.53806Q14.0207809765625,4.519215,14.0690808765625,4.509607Q14.1173802765625,4.5,14.1666259765625,4.5L17.4999559765625,4.5Q17.5492059765625,4.5,17.597505976562502,4.509607Q17.6458059765625,4.519215,17.6912959765625,4.53806Q17.7367959765625,4.556906,17.7777459765625,4.584265Q17.8186859765625,4.611625,17.8535159765625,4.646447Q17.8883359765625,4.681269,17.9156959765625,4.722215Q17.9430559765625,4.763161,17.9618959765625,4.808658Q17.9807459765625,4.854155,17.9903559765625,4.9024549Q17.9999559765625,4.9507543,17.9999559765625,5L17.9999559765625,8.75Q17.9999559765625,8.79925,17.9903559765625,8.84754Q17.9807459765625,8.89584,17.9618959765625,8.94134Q17.9430559765625,8.98684,17.9156959765625,9.02778Q17.8883359765625,9.06873,17.8535159765625,9.10355Q17.8186859765625,9.13837,17.7777459765625,9.16573Q17.7367959765625,9.19309,17.6912959765625,9.21194Q17.6458059765625,9.23078,17.597505976562502,9.24039Q17.5492059765625,9.25,17.4999559765625,9.25L14.1666259765625,9.25Q14.1173802765625,9.25,14.0690808765625,9.24039Q14.0207809765625,9.23078,13.9752839765625,9.21194Q13.9297869765625,9.19309,13.8888409765625,9.16573Q13.8478949765625,9.13837,13.8130729765625,9.10355Q13.7782509765625,9.06873,13.7508909765625,9.02778Q13.7235319765625,8.98684,13.7046859765625,8.94134Q13.685840976562499,8.89584,13.6762329765625,8.84754Q13.6666259765625,8.79925,13.6666259765625,8.75ZM14.6666259765625,5.5L14.6666259765625,8.25L16.9999559765625,8.25L16.9999559765625,5.5L14.6666259765625,5.5Z" fill="#D1D4DC" fill-opacity="1" style="mix-blend-mode:passthrough"/></g><g><path d="M3.6666259765625,4.16796875Q3.6666259765625,4.11872305,3.6762329765625,4.07042365Q3.6858409765625,4.02212375,3.7046859765624998,3.97662675Q3.7235319765625,3.93112975,3.7508909765625,3.89018375Q3.7782509765625,3.84923775,3.8130729765625,3.81441575Q3.8478949765625,3.77959375,3.8888409765625,3.75223375Q3.9297869765625,3.72487475,3.9752839765625,3.7060287499999998Q4.0207809765625,3.68718375,4.0690808765625,3.67757575Q4.1173802765625,3.66796875,4.1666259765625,3.66796875Q4.2158716765625,3.66796875,4.2641710765625,3.67757575Q4.3124709765625,3.68718375,4.3579679765625,3.7060287499999998Q4.4034649765625,3.72487475,4.4444109765625,3.75223375Q4.4853569765625,3.77959375,4.5201789765625,3.81441575Q4.5550009765625,3.84923775,4.5823609765625,3.89018375Q4.6097199765625,3.93112975,4.6285659765625,3.97662675Q4.6474109765625,4.02212375,4.6570189765625,4.07042365Q4.6666259765625,4.11872305,4.6666259765625,4.16796875L4.6666259765625,8.33463875Q4.6666259765625,8.383878750000001,4.6570189765625,8.43217875Q4.6474109765625,8.48047875,4.6285659765625,8.52597875Q4.6097199765625,8.57147875,4.5823609765625,8.61241875Q4.5550009765625,8.65336875,4.5201789765625,8.68818875Q4.4853569765625,8.72300875,4.4444109765625,8.75036875Q4.4034649765625,8.77772875,4.3579679765625,8.79657875Q4.3124709765625,8.81541875,4.2641710765625,8.825028750000001Q4.2158716765625,8.83463875,4.1666259765625,8.83463875Q4.1173802765625,8.83463875,4.0690808765625,8.825028750000001Q4.0207809765625,8.81541875,3.9752839765625,8.79657875Q3.9297869765625,8.77772875,3.8888409765625,8.75036875Q3.8478949765625,8.72300875,3.8130729765625,8.68818875Q3.7782509765625,8.65336875,3.7508909765625,8.61241875Q3.7235319765625,8.57147875,3.7046859765624998,8.52597875Q3.6858409765625,8.48047875,3.6762329765625,8.43217875Q3.6666259765625,8.383878750000001,3.6666259765625,8.33463875L3.6666259765625,4.16796875Z" fill-rule="evenodd" fill="#D1D4DC" fill-opacity="1" style="mix-blend-mode:passthrough"/></g><g><path d="M15.3333740234375,8.75Q15.3333740234375,8.7007543,15.3429810234375,8.6524549Q15.352589023437499,8.604155,15.3714340234375,8.558658Q15.3902800234375,8.513161,15.4176390234375,8.472215Q15.4449990234375,8.431269,15.4798210234375,8.396447Q15.5146430234375,8.361625,15.5555890234375,8.334265Q15.5965350234375,8.306906,15.6420320234375,8.28806Q15.6875290234375,8.269214999999999,15.7358289234375,8.259607Q15.7841283234375,8.25,15.8333740234375,8.25Q15.8826197234375,8.25,15.9309191234375,8.259607Q15.9792190234375,8.269214999999999,16.0247160234375,8.28806Q16.0702130234375,8.306906,16.1111590234375,8.334265Q16.1521050234375,8.361625,16.1869270234375,8.396447Q16.2217490234375,8.431269,16.2491090234375,8.472215Q16.2764680234375,8.513161,16.2953140234375,8.558658Q16.3141590234375,8.604155,16.3237670234375,8.6524549Q16.3333740234375,8.7007543,16.3333740234375,8.75L16.3333740234375,14.16667Q16.3333740234375,14.215910000000001,16.3237670234375,14.26421Q16.3141590234375,14.31251,16.2953140234375,14.35801Q16.2764680234375,14.40351,16.2491090234375,14.44445Q16.2217490234375,14.4854,16.1869270234375,14.52022Q16.1521050234375,14.55504,16.1111590234375,14.5824Q16.0702130234375,14.60976,16.0247160234375,14.62861Q15.9792190234375,14.64745,15.9309191234375,14.657060000000001Q15.8826197234375,14.66667,15.8333740234375,14.66667Q15.7841283234375,14.66667,15.7358289234375,14.657060000000001Q15.6875290234375,14.64745,15.6420320234375,14.62861Q15.5965350234375,14.60976,15.5555890234375,14.5824Q15.5146430234375,14.55504,15.4798210234375,14.52022Q15.4449990234375,14.4854,15.4176390234375,14.44445Q15.3902800234375,14.40351,15.3714340234375,14.35801Q15.352589023437499,14.31251,15.3429810234375,14.26421Q15.3333740234375,14.215910000000001,15.3333740234375,14.16667L15.3333740234375,8.75Z" fill-rule="evenodd" fill="#D1D4DC" fill-opacity="1" style="mix-blend-mode:passthrough"/></g><g><path d="M15.3333740234375,1.66796875Q15.3333740234375,1.61872305,15.3429810234375,1.57042365Q15.352589023437499,1.52212375,15.3714340234375,1.4766267499999999Q15.3902800234375,1.43112975,15.4176390234375,1.39018375Q15.4449990234375,1.34923775,15.4798210234375,1.31441575Q15.5146430234375,1.27959375,15.5555890234375,1.25223375Q15.5965350234375,1.2248747500000001,15.6420320234375,1.20602875Q15.6875290234375,1.18718375,15.7358289234375,1.17757575Q15.7841283234375,1.16796875,15.8333740234375,1.16796875Q15.8826197234375,1.16796875,15.9309191234375,1.17757575Q15.9792190234375,1.18718375,16.0247160234375,1.20602875Q16.0702130234375,1.2248747500000001,16.1111590234375,1.25223375Q16.1521050234375,1.27959375,16.1869270234375,1.31441575Q16.2217490234375,1.34923775,16.2491090234375,1.39018375Q16.2764680234375,1.43112975,16.2953140234375,1.4766267499999999Q16.3141590234375,1.52212375,16.3237670234375,1.57042365Q16.3333740234375,1.61872305,16.3333740234375,1.66796875L16.3333740234375,5.00129875Q16.3333740234375,5.05054875,16.3237670234375,5.09884875Q16.3141590234375,5.1471487499999995,16.2953140234375,5.19263875Q16.2764680234375,5.23813875,16.2491090234375,5.27908875Q16.2217490234375,5.3200287500000005,16.1869270234375,5.35485875Q16.1521050234375,5.38967875,16.1111590234375,5.41703875Q16.0702130234375,5.4443987499999995,16.0247160234375,5.46323875Q15.9792190234375,5.48208875,15.9309191234375,5.491698749999999Q15.8826197234375,5.50129875,15.8333740234375,5.50129875Q15.7841283234375,5.50129875,15.7358289234375,5.491698749999999Q15.6875290234375,5.48208875,15.6420320234375,5.46323875Q15.5965350234375,5.4443987499999995,15.5555890234375,5.41703875Q15.5146430234375,5.38967875,15.4798210234375,5.35485875Q15.4449990234375,5.3200287500000005,15.4176390234375,5.27908875Q15.3902800234375,5.23813875,15.3714340234375,5.19264875Q15.352589023437499,5.1471487499999995,15.3429810234375,5.09884875Q15.3333740234375,5.05054875,15.3333740234375,5.00129875L15.3333740234375,1.66796875Z" fill-rule="evenodd" fill="#D1D4DC" fill-opacity="1" style="mix-blend-mode:passthrough"/></g></g></svg>