<svg xmlns="http://www.w3.org/2000/svg" xmlns:xlink="http://www.w3.org/1999/xlink" fill="none" version="1.1" width="16" height="16" viewBox="0 0 16 16"><defs><clipPath id="master_svg0_273_02234"><rect x="0" y="0" width="16" height="16" rx="0"/></clipPath></defs><g clip-path="url(#master_svg0_273_02234)"><g><path d="M1.5259535625,6.427055703125C2.1610525625,3.802205703125,4.3171115625,1.819897703125,6.9859515625,1.407052803125C9.6542215625,0.996399703125,12.3063015625,2.2379067031249997,13.7000015625,4.550055703125C15.8741015625,8.156065703125,14.2035015625,12.849645703125,10.2399515625,14.271045703125C8.9970315625,14.715745703125,7.6499615625,14.780845703125,6.3699515625,14.458045703125C3.7633215625,13.818145703125,1.8012935625,11.667345703125,1.4029536625,9.013055703125C1.2732405625,8.151415703125,1.3146979625,7.272655703125,1.5249535625,6.427055703125L1.5259535625,6.427055703125Z" fill="#FAFAFA" fill-opacity="1"/></g><g><g><path d="M9.407514802398682,8.978356816482544C9.065204802398682,9.412646816482544,8.526544802398682,9.692646816482544,7.920414802398682,9.692646816482544C6.884332802398681,9.692646816482544,6.045324802398682,8.876136816482544,6.045324802398682,7.868517516482544C6.045324802398682,7.860898316482544,6.045979414398682,7.8539142164825435,6.045979414398682,7.846930016482544C6.123210802398682,8.060898816482544,6.261965802398682,8.252009816482545,6.454389802398682,8.376453816482544C6.907960802398682,8.669151816482543,7.523844802398681,8.571373816482543,7.859604802398682,8.149151816482544C8.127954802398682,7.760580516482544,8.671844802398681,7.655183816482544,9.073714802398682,7.914866816482544C9.391144802398681,8.119310816482544,9.527934802398683,8.596135816482544,9.407514802398682,8.978356816482544Z" fill="#1200FF" fill-opacity="1"/></g><g><path d="M9.696834802398682,8.009235323791504C9.696834802398682,8.286055323791505,9.632694802398682,8.548915323791505,9.519464802398682,8.783835323791504C9.506374802398682,8.438435323791504,9.34471480239868,8.098755323791504,9.067854802398681,7.919705323791504C8.590074802398682,7.611775323791504,7.942114802398682,7.736855323791504,7.6266448023986815,8.195265323791503C7.347164802398682,8.545805323791503,6.829455802398682,8.628275323791504,6.448534802398681,8.381935323791504C6.114082902398682,8.166055323791504,5.967474302398681,7.693675323791504,6.085939202398682,7.3203453237915035C6.119973602398682,7.239705323791504,6.159243802398682,7.162248323791504,6.204404802398682,7.087962323791504L6.3261418023986815,6.909550323791504C6.668447802398681,6.469549323791504,7.211034802398681,6.185105323791504,7.821684802398682,6.185105323791504C8.857764802398682,6.185105323791504,9.696834802398682,7.001613323791504,9.696834802398682,8.009235323791504Z" fill="#FF0000" fill-opacity="1"/></g><g><path d="M11.981020000000001,6.54510890625L11.71464,6.7158989062500005L11.226379999999999,6.01049890625L11.49276,5.83907390625L11.981020000000001,6.54510890625ZM11.403749999999999,5.71081990625L11.137360000000001,5.88224790625L10.64911,5.17621690625L10.91549,5.00478780625L11.403749999999999,5.71081990625ZM11.581769999999999,6.80160890625L11.31539,6.97303890625L10.24986,5.43272390625L10.51624,5.26129590625L11.581769999999999,6.80160890625ZM10.60525,6.22446890625L10.33887,6.39526890625L9.85061,5.68923290625L10.116990000000001,5.51843890625L10.60525,6.22446890625ZM11.18252,7.0587589062500005L10.91614,7.22954890625L10.42788,6.5235189062500005L10.69361,6.35272890625L11.18252,7.0587589062500005ZM10.62358,9.77494890625L10.13532,10.48097890625L9.869589999999999,10.30954890625L10.35785,9.603518906249999L10.62358,9.77494890625ZM11.02348,10.03145890625L10.53457,10.73748890625L10.268180000000001,10.56668890625L10.757100000000001,9.86065890625L11.02348,10.03145890625ZM11.42273,10.28859890625L10.934470000000001,10.99462890625L10.66808,10.82319890625L11.15634,10.11716890625L11.42273,10.28859890625ZM12,9.454308906249999L11.51174,10.16034890625L11.24536,9.98891890625L11.73362,9.28287890625L12,9.454308906249999ZM11.600100000000001,9.19780890625L11.11184,9.903198906250001L10.84546,9.73240890625L11.33437,9.026378906249999L11.600100000000001,9.19780890625ZM11.200849999999999,8.94065890625L10.712589999999999,9.646688906249999L10.44621,9.475268906250001L10.934470000000001,8.76986890625L11.200849999999999,8.94065890625ZM5.16829,9.71716890625L4.901906,9.887958906249999L4.413646,9.182568906250001L4.680029,9.01113890625L5.16829,9.71716890625ZM5.74491,10.55145890625L5.4791799999999995,10.72224890625L4.990264,10.01621890625L5.2566500000000005,9.84541890625L5.74491,10.55145890625ZM6.14481,10.29430890625L5.87843,10.46573890625L4.812894,8.92541890625L5.07928,8.75462890625L6.14481,10.29430890625ZM5.3456600000000005,10.80795890625L5.07928,10.97938890625L4.0137445,9.43907890625L4.280127,9.267648906249999L5.3456600000000005,10.80795890625ZM5.33192,5.16605790625L4.266383,6.70637890625L4,6.5349489062499995L5.06553,4.99462890625L5.33192,5.16605790625ZM5.73116,5.42256590625L4.66563,6.96287890625L4.399902,6.79208890625L5.46478,5.25177190625L5.73116,5.42256590625ZM6.1304099999999995,5.67970890625L5.06553,7.21938890625L4.799149,7.04859890625L5.86468,5.50827990625L6.1304099999999995,5.67970890625Z" fill="#000000" fill-opacity="1"/></g></g></g></svg>