<svg xmlns="http://www.w3.org/2000/svg" xmlns:xlink="http://www.w3.org/1999/xlink" fill="none" version="1.1" width="16" height="16" viewBox="0 0 16 16"><defs><clipPath id="master_svg0_4158_45458"><rect x="0" y="0" width="16" height="16" rx="0"/></clipPath></defs><g clip-path="url(#master_svg0_4158_45458)"><g><path d="M1.5259535625,6.427788125C2.1610525625,3.802938125,4.3171115625,1.820630125,6.9859515625,1.407785225C9.6542215625,0.997132125,12.3063015625,2.2386391249999997,13.7000015625,4.550788125C15.8741015625,8.156798125,14.2035015625,12.850378125,10.2399515625,14.271778125C8.9970315625,14.716478125,7.6499615625,14.781578125,6.3699515625,14.458778125C3.7633215625,13.818878125,1.8012935625,11.668078125,1.4029536625,9.013788125C1.2732405625,8.152148125,1.3146979625,7.273388125,1.5249535625,6.427788125L1.5259535625,6.427788125Z" fill="#949E9C" fill-opacity="1"/></g><g><g><path d="M9.407514802398682,8.977434375C9.065204802398682,9.411724375,8.526544802398682,9.691724375,7.920414802398682,9.691724375C6.884332802398681,9.691724375,6.045324802398682,8.875214375,6.045324802398682,7.867595075C6.045324802398682,7.859975875,6.045979414398682,7.852991775,6.045979414398682,7.846007575C6.123210802398682,8.059976375,6.261965802398682,8.251087375000001,6.454389802398682,8.375531375C6.907960802398682,8.668229375,7.523844802398681,8.570451375,7.859604802398682,8.148229375C8.127954802398682,7.759658075,8.671844802398681,7.654261375,9.073714802398682,7.913944375C9.391144802398681,8.118388375,9.527934802398683,8.595213375,9.407514802398682,8.977434375Z" fill="#F7F8F8" fill-opacity="1"/></g><g><path d="M9.696834802398682,8.009676875C9.696834802398682,8.286496875000001,9.632694802398682,8.549356875,9.519464802398682,8.784276875C9.506374802398682,8.438876875,9.34471480239868,8.099196875,9.067854802398681,7.920146875C8.590074802398682,7.612216875,7.942114802398682,7.737296875,7.6266448023986815,8.195706874999999C7.347164802398682,8.546246875,6.829455802398682,8.628716875,6.448534802398681,8.382376875C6.114082902398682,8.166496875,5.967474302398681,7.694116875,6.085939202398682,7.320786875C6.119973602398682,7.240146875,6.159243802398682,7.162689875,6.204404802398682,7.088403875L6.3261418023986815,6.909991875C6.668447802398681,6.469990875,7.211034802398681,6.185546875,7.821684802398682,6.185546875C8.857764802398682,6.185546875,9.696834802398682,7.002054875,9.696834802398682,8.009676875Z" fill="#F7F8F8" fill-opacity="1"/></g><g><path d="M11.981020000000001,6.544620625L11.71464,6.7154106250000005L11.226379999999999,6.010010625L11.49276,5.838585625L11.981020000000001,6.544620625ZM11.403749999999999,5.710331625L11.137360000000001,5.881759625L10.64911,5.175728625L10.91549,5.004299525L11.403749999999999,5.710331625ZM11.581769999999999,6.801120625L11.31539,6.972550625L10.24986,5.432235625L10.51624,5.260807625L11.581769999999999,6.801120625ZM10.60525,6.223980625L10.33887,6.394780625L9.85061,5.688744625L10.116990000000001,5.517950625L10.60525,6.223980625ZM11.18252,7.0582706250000005L10.91614,7.229060625L10.42788,6.5230306250000005L10.69361,6.352240625L11.18252,7.0582706250000005ZM10.62358,9.774460625L10.13532,10.480490625L9.869589999999999,10.309060625L10.35785,9.603030624999999L10.62358,9.774460625ZM11.02348,10.030970625L10.53457,10.737000625L10.268180000000001,10.566200625L10.757100000000001,9.860170625L11.02348,10.030970625ZM11.42273,10.288110625L10.934470000000001,10.994140625L10.66808,10.822710625L11.15634,10.116680625L11.42273,10.288110625ZM12,9.453820624999999L11.51174,10.159860625L11.24536,9.988430625L11.73362,9.282390625L12,9.453820624999999ZM11.600100000000001,9.197320625L11.11184,9.902710625000001L10.84546,9.731920625L11.33437,9.025890624999999L11.600100000000001,9.197320625ZM11.200849999999999,8.940170625L10.712589999999999,9.646200624999999L10.44621,9.474780625000001L10.934470000000001,8.769380625L11.200849999999999,8.940170625ZM5.16829,9.716680625L4.901906,9.887470624999999L4.413646,9.182080625000001L4.680029,9.010650625L5.16829,9.716680625ZM5.74491,10.550970625L5.4791799999999995,10.721760625L4.990264,10.015730625L5.2566500000000005,9.844930625L5.74491,10.550970625ZM6.14481,10.293820625L5.87843,10.465250625L4.812894,8.924930625L5.07928,8.754140625L6.14481,10.293820625ZM5.3456600000000005,10.807470625L5.07928,10.978900625L4.0137445,9.438590625L4.280127,9.267160624999999L5.3456600000000005,10.807470625ZM5.33192,5.165569625L4.266383,6.705890625L4,6.5344606249999995L5.06553,4.994140625L5.33192,5.165569625ZM5.73116,5.422077625L4.66563,6.962390625L4.399902,6.791600625L5.46478,5.251283625L5.73116,5.422077625ZM6.1304099999999995,5.679220625L5.06553,7.218900625L4.799149,7.048110625L5.86468,5.507791625L6.1304099999999995,5.679220625Z" fill="#F7F8F8" fill-opacity="1"/></g></g></g></svg>