<svg xmlns="http://www.w3.org/2000/svg" xmlns:xlink="http://www.w3.org/1999/xlink" fill="none" version="1.1" width="24" height="24" viewBox="0 0 24 24"><defs><clipPath id="master_svg0_2039_08626"><rect x="0" y="0" width="24" height="24" rx="0"/></clipPath></defs><g clip-path="url(#master_svg0_2039_08626)"><g transform="matrix(0,-1,-1,0,32.998046875,32.998046875)"><path d="M15.528530875,17.469824L20.998046875,22.93934L26.467246875,17.470132L26.467746875,17.46967Q26.573246875000002,17.364181,26.711046875,17.30709Q26.848846875,17.25,26.998046875,17.25Q27.071946875000002,17.25,27.144346875,17.264411Q27.216846875,17.278822,27.285046875,17.30709Q27.353346875,17.335359,27.414746875,17.376398000000002Q27.476146874999998,17.417437,27.528346875,17.46967Q27.580646875,17.521903000000002,27.621646875,17.583322Q27.662646875,17.644742,27.690946875,17.712987Q27.719246875,17.781233,27.733646874999998,17.853682Q27.748046875,17.9261315,27.748046875,18Q27.748046875,18.149184,27.690946875,18.287013Q27.633846875,18.424841,27.528346875,18.53033L27.527946874999998,18.530792L21.528376875,24.53033Q21.476146875,24.58256,21.414726875,24.6236Q21.353306875,24.66464,21.285056875000002,24.69291Q21.216816875,24.72118,21.144366875,24.735590000000002Q21.071916875,24.75,20.998046875,24.75Q20.924176875,24.75,20.851726875,24.735590000000002Q20.779276875,24.72118,20.711036874999998,24.69291Q20.642786875,24.66464,20.581366875,24.6236Q20.519946875,24.58256,20.467716875,24.53033L14.467870875,18.530484L14.467716875,18.53033Q14.362227875,18.424841,14.305136875,18.287013Q14.248046875,18.149184,14.248046875,18Q14.248046875,17.9261315,14.262457874999999,17.853682Q14.276868875,17.781233,14.305136875,17.712987Q14.333405875,17.644742,14.374444875,17.583322Q14.415483875,17.521903000000002,14.467716875,17.46967Q14.519949875,17.417437,14.581368875,17.376398000000002Q14.642788875,17.335359,14.711033875,17.30709Q14.779279875,17.278822,14.851728875,17.264411Q14.924178375,17.25,14.998046875,17.25Q15.147230875,17.25,15.285059875,17.30709Q15.422887875,17.364181,15.528376875,17.46967L15.528530875,17.469824Z" fill-rule="evenodd" fill="#C0C4CC" fill-opacity="1"/></g></g></svg>