<svg xmlns="http://www.w3.org/2000/svg" xmlns:xlink="http://www.w3.org/1999/xlink" fill="none" version="1.1" width="20" height="20" viewBox="0 0 20 20"><defs><clipPath id="master_svg0_4177_45034"><rect x="0" y="0" width="20" height="20" rx="0"/></clipPath></defs><g clip-path="url(#master_svg0_4177_45034)"><g><path d="M2,2.5Q2,2.4507543,2.009607,2.4024549Q2.019215,2.354155,2.0380599999999998,2.308658Q2.056906,2.263161,2.084265,2.222215Q2.111625,2.181269,2.146447,2.146447Q2.181269,2.111625,2.222215,2.084265Q2.263161,2.056906,2.308658,2.0380599999999998Q2.354155,2.019215,2.4024549,2.009607Q2.4507543,2,2.5,2Q2.5492457,2,2.5975451,2.009607Q2.645845,2.019215,2.691342,2.0380599999999998Q2.736839,2.056906,2.777785,2.084265Q2.818731,2.111625,2.853553,2.146447Q2.888375,2.181269,2.915735,2.222215Q2.943094,2.263161,2.9619400000000002,2.308658Q2.980785,2.354155,2.990393,2.4024549Q3,2.4507543,3,2.5L3,17L17.5,17Q17.5492,17,17.5975,17.0096Q17.6458,17.019199999999998,17.6913,17.0381Q17.736800000000002,17.0569,17.7778,17.0843Q17.8187,17.1116,17.8536,17.1464Q17.8884,17.1813,17.9157,17.2222Q17.9431,17.263199999999998,17.9619,17.3087Q17.980800000000002,17.3542,17.9904,17.4025Q18,17.4508,18,17.5Q18,17.5492,17.9904,17.5975Q17.980800000000002,17.6458,17.9619,17.6913Q17.9431,17.736800000000002,17.9157,17.7778Q17.8884,17.8187,17.8536,17.8536Q17.8187,17.8884,17.7778,17.9157Q17.736800000000002,17.9431,17.6913,17.9619Q17.6458,17.980800000000002,17.5975,17.9904Q17.5492,18,17.5,18L17.4986,18L2.5,18Q2.4507543,18,2.4024549,17.9904Q2.354155,17.980800000000002,2.308658,17.9619Q2.263161,17.9431,2.222215,17.9157Q2.181269,17.8884,2.146447,17.8536Q2.111625,17.8187,2.084265,17.7778Q2.056906,17.736800000000002,2.0380599999999998,17.6913Q2.019215,17.6458,2.009607,17.5975Q2,17.5492,2,17.5L2,2.5Z" fill-rule="evenodd" fill="#D1D4DC" fill-opacity="1" style="mix-blend-mode:passthrough"/></g><g><path d="M17.951351953125,2.714967Q17.999951953125,2.61297,17.999951953125,2.5Q17.999951953125,2.4507543,17.990351953125,2.4024549Q17.980651953124998,2.354155,17.961851953125,2.308658Q17.943051953125,2.263161,17.915651953125,2.222215Q17.888251953125,2.181269,17.853451953125003,2.146447Q17.818651953125,2.111625,17.777751953124998,2.084265Q17.736751953125,2.056906,17.691251953125,2.0380599999999998Q17.645751953125,2.019215,17.597451953125002,2.009607Q17.549151953124998,2,17.499951953125,2Q17.429051953125,2,17.360951953125,2.019693Q17.292851953125002,2.039386,17.232951953125,2.0772209999999998Q17.173051953125,2.115057,17.126051953125,2.168053Q17.078951953125,2.22105,17.048451953125,2.285033L13.169821953125,10.43023L9.501071953124999,7.12835Q9.464461953125,7.09541,9.422131953125,7.07024Q9.379811953125,7.04507,9.333381953125,7.02864Q9.286961953125001,7.01221,9.238221953125,7.00516Q9.189481953125,6.9981,9.140301953125,7.00069Q9.091131953125,7.00328,9.043401953125,7.01541Q8.995671953125001,7.02754,8.951231953125,7.04875Q8.906781953125,7.06997,8.867331953125,7.09944Q8.827881953125,7.12891,8.794941953125,7.16552Q8.749651953125,7.21584,8.719371953125,7.27639L5.386037953125,13.9431Q5.333251953125,14.0486,5.333251953125,14.1667Q5.333251953125,14.2159,5.342858953125,14.2642Q5.352466953125,14.3125,5.371311953125,14.358Q5.390157953125,14.4035,5.417516953125,14.4445Q5.444876953125,14.4854,5.479698953125,14.5202Q5.514520953125,14.555,5.555466953125,14.5824Q5.596412953125,14.6098,5.641909953125,14.6286Q5.687406953125,14.6475,5.735706853125,14.6571Q5.784006253125,14.6667,5.833251953125,14.6667Q5.902894053125,14.6667,5.969884953125,14.6476Q6.036876953125,14.6286,6.096117953125,14.592Q6.155358953125,14.5554,6.202339953125,14.504Q6.249320953125,14.4526,6.280465953125,14.3903L6.280714953125,14.3898L9.320151953125,8.31089L12.998771953125,11.62165Q13.052731953125,11.67022,13.118281953124999,11.70143Q13.162741953125,11.7226,13.210481953125,11.73469Q13.258221953125,11.74678,13.307401953125,11.74933Q13.356581953125,11.75187,13.405311953125,11.74478Q13.454041953125,11.73768,13.500451953125001,11.72121Q13.546861953125,11.70474,13.589171953125,11.67954Q13.631481953125,11.65433,13.668051953125001,11.62136Q13.704631953125,11.58838,13.734071953125,11.5489Q13.763511953125,11.50943,13.784681953125,11.46497L17.951351953125,2.714967L17.951351953125,2.714967Z" fill-rule="evenodd" fill="#D1D4DC" fill-opacity="1" style="mix-blend-mode:passthrough"/></g></g></svg>