<svg xmlns="http://www.w3.org/2000/svg" xmlns:xlink="http://www.w3.org/1999/xlink" fill="none" version="1.1" width="20" height="20" viewBox="0 0 20 20"><defs><clipPath id="master_svg0_3113_42151"><rect x="0" y="0" width="20" height="20" rx="0"/></clipPath></defs><g clip-path="url(#master_svg0_3113_42151)"><g><path d="M17.0833,14.24998701171875L15.8406,14.24998701171875L15.8406,15.74998701171875L17.0833,15.74998701171875Q17.9118,15.74998701171875,18.4976,15.16428701171875Q19.0833,14.57848701171875,19.0833,13.74998701171875L19.0833,2.91668701171875Q19.0833,2.08826101171875,18.4976,1.50247701171875Q17.9118,0.91668701171875,17.0833,0.91668701171875L6.25,0.91668701171875Q5.42156,0.91668701171875,4.835776,1.50247701171875Q4.25,2.08826001171875,4.25,2.91668701171875L4.25,4.13628701171875L5.75,4.13628701171875L5.75,2.91668701171875Q5.75,2.70957701171875,5.896442,2.56313101171875Q6.04288,2.41668701171875,6.25,2.41668701171875L17.0833,2.41668701171875Q17.290399999999998,2.41668701171875,17.4369,2.56313101171875Q17.5833,2.70957701171875,17.5833,2.91668701171875L17.5833,13.74998701171875Q17.5833,13.95718701171875,17.4369,14.10358701171875Q17.2905,14.24998701171875,17.0833,14.24998701171875Z" fill-rule="evenodd" fill="#2D2E33" fill-opacity="1"/></g><g><path d="M0.916015625,15.33338701171875L0.916015625,7.16668701171875Q0.916015625,5.61338701171875,2.014365625,4.51503701171875Q3.112715625,3.41668701171875,4.666015625,3.41668701171875L12.832715625,3.41668701171875Q14.386015625,3.41668701171875,15.484315625,4.51503701171875Q16.582715625,5.61338701171875,16.582715625,7.16668701171875L16.582715625,15.33338701171875Q16.582715625,16.88668701171875,15.484315625,17.98498701171875Q14.386015625,19.08338701171875,12.832715625,19.08338701171875L4.666015625,19.08338701171875Q3.112715625,19.08338701171875,2.014365625,17.98498701171875Q0.916015625,16.88668701171875,0.916015625,15.33338701171875ZM2.416015625,15.33338701171875Q2.416015625,16.265287011718748,3.0750256250000003,16.92438701171875Q3.734035625,17.58338701171875,4.666015625,17.58338701171875L12.832715625,17.58338701171875Q13.764615625,17.58338701171875,14.423715625,16.92438701171875Q15.082715625,16.265287011718748,15.082715625,15.33338701171875L15.082715625,7.16668701171875Q15.082715625,6.234707011718751,14.423715625,5.57569701171875Q13.764615625,4.91668701171875,12.832715625,4.91668701171875L4.666015625,4.91668701171875Q3.734035625,4.91668701171875,3.0750256250000003,5.57569701171875Q2.416015625,6.234707011718751,2.416015625,7.16668701171875L2.416015625,15.33338701171875Z" fill="#2D2E33" fill-opacity="1"/></g><g><path d="M11.59337375,9.06851876953125L10.797493750000001,9.911358769531251Q10.69890375,10.015768769531249,10.64585375,10.14921876953125Q10.59280375,10.28266876953125,10.59280375,10.426278769531251Q10.59280375,10.43701876953125,10.59311375,10.44775876953125Q10.59738375,10.59687876953125,10.65839375,10.733018769531249Q10.719413750000001,10.86915876953125,10.82788375,10.97157876953125Q10.93229375,11.07017876953125,11.06574375,11.12322876953125Q11.19919375,11.176278769531251,11.34280375,11.176278769531251Q11.35354375,11.176278769531251,11.36428375,11.17596876953125Q11.51340375,11.17169876953125,11.64954375,11.110678769531251Q11.78568375,11.04966876953125,11.888103749999999,10.941198769531251L12.67720375,10.10553876953125Q13.34642375,9.43043876953125,13.33354375,8.46949876953125Q13.32074375,7.51447776953125,12.63925375,6.83298786953125Q11.95776375,6.15149976953125,11.00274375,6.13869776953125Q10.03592375,6.12573776953125,9.35845375,6.80325646953125L7.14271875,9.10961876953125Q7.04207975,9.21438876953125,6.98783675,9.34915876953125Q6.93359375,9.48391876953125,6.93359375,9.62918876953125Q6.93359375,9.63672876953125,6.93374475,9.64425876953125Q6.93674175,9.79340876953125,6.99658875,9.93006876953125Q7.05643575,10.06671876953125,7.16402175,10.17006876953125Q7.2687877499999995,10.27070876953125,7.40355475,10.32494876953125Q7.53832075,10.37918876953125,7.68359375,10.37918876953125Q7.69112632,10.37918876953125,7.69865735,10.379038769531249Q7.84781175,10.37604876953125,7.98446575,10.31619876953125Q8.12111975,10.25634876953125,8.22446875,10.14876876953125L10.41915375,7.86387976953125Q10.64892375,7.63408976953125,10.98264375,7.63856276953125Q11.32814375,7.64319476953125,11.57859375,7.89364876953125Q11.82905375,8.14409876953125,11.833683749999999,8.48960876953125Q11.83815375,8.82331876953125,11.60836375,9.05309876953125Q11.600753749999999,9.06069876953125,11.59337375,9.06851876953125Z" fill-rule="evenodd" fill="#2D2E33" fill-opacity="1"/></g><g><path d="M7.694406875,15.49334734375L9.833886875000001,13.55098734375Q9.944346875,13.45070734375,10.008016875,13.315797343749999Q10.071686875000001,13.18087734375,10.078876874999999,13.031867343750001Q10.079756875000001,13.01378734375,10.079756875000001,12.99569734375Q10.079756875000001,12.97759234375,10.078876874999999,12.95951134375Q10.072586874999999,12.82920534375,10.022666874999999,12.70867834375Q9.972736874999999,12.58815134375,9.885046875,12.49156134375Q9.778436875,12.37412534375,9.633396874999999,12.30990934375Q9.488366875,12.24569334375,9.329756875000001,12.24569334375L9.327116875,12.24569734375Q9.188006875,12.24618634375,9.058316875,12.29653634375Q8.928626874999999,12.34688734375,8.825626875000001,12.44039934375L6.6738768749999995,14.39389734375Q6.660486875,14.40605734375,6.647696874999999,14.41884734375Q6.417866875,14.64864734375,6.084136875,14.64418734375Q5.738656875,14.639557343749999,5.488209875,14.38911734375Q5.246202875,14.147107343750001,5.248058875,13.76480734375Q5.249907875,13.38384734375,5.488191875,13.14558734375Q5.923086875,12.72576534375,6.1403468750000005,12.50851534375L6.140496875,12.50835834375Q6.245986875,12.40286934375,6.303076875,12.26504034375Q6.360166875,12.12721234375,6.360166875,11.97802781511Q6.360166875,11.95861134375,6.359166875,11.93922134375Q6.3519668750000005,11.80028834375,6.295416875,11.67317934375Q6.238876875,11.54607034375,6.140506875,11.44769834375Q6.035016875,11.34220834375,5.897186875,11.28511734375Q5.759356875,11.22802734375,5.610166875,11.22802734375Q5.590756875,11.22802734375,5.571366875,11.22903234375Q5.432432875,11.23623034375,5.305323875,11.29277734375Q5.178214875,11.34932434375,5.079841875,11.44769634375Q4.871843875,11.65569434375,4.427568175,12.08488734375Q3.752920875,12.75948834375,3.748075875,13.75752734375Q3.743183875,14.76540734375,4.427549975,15.44977734375Q5.109035875,16.13125734375,6.064056875,16.14404734375Q7.020916875,16.156857343749998,7.694406875,15.49334734375Z" fill-rule="evenodd" fill="#2D2E33" fill-opacity="1"/></g><g><path d="M8.05268225,10.7222340234375Q8.02829225,10.3615590234375,8.27614525,10.1137380234375Q8.38165125,10.0082470234375,8.43875125,9.8704090234375Q8.49585125,9.7325710234375,8.49585125,9.5833748785975Q8.49585125,9.5639819234375,8.49485125,9.5446157234375Q8.48766125,9.4056820234375,8.43112125,9.2785690234375Q8.37458125,9.1514570234375,8.27621325,9.0530780234375Q8.17072225,8.9475730234375,8.03288425,8.8904740234375Q7.89504625,8.8333740234375,7.74584925,8.8333740234375Q7.72645725,8.8333740234375,7.70709125,8.8343760234375Q7.56815725,8.8415660234375,7.44104425,8.8981050234375Q7.31393195,8.954644023437499,7.21555315,9.0530100234375Q6.48572525,9.7827440234375,6.55610025,10.8234340234375Q6.61560825,11.7041740234375,7.24526955,12.3338340234375Q7.35075875,12.4393140234375,7.48858725,12.4964040234375Q7.62641525,12.5534940234375,7.77559925,12.5534940234375Q7.92478425,12.5534940234375,8.06261225,12.4964040234375Q8.20044025,12.4393140234375,8.30593125,12.3338240234375Q8.41142125,12.228334023437501,8.46851125,12.0905140234375Q8.52560125,11.9526840234375,8.52560125,11.8034940234375Q8.52560125,11.6543140234375,8.46851125,11.5164840234375Q8.41142125,11.3786540234375,8.30593125,11.2731640234375Q8.07425325,11.041494023437501,8.05268225,10.7222340234375Z" fill-rule="evenodd" fill="#2D2E33" fill-opacity="1"/></g><g><path d="M9.83111125,10.2451826953125Q9.72562225,10.1396936953125,9.58779425,10.0826026953125Q9.44996525,10.0255126953125,9.30078125,10.0255126953125Q9.15159725,10.0255126953125,9.01376825,10.0826026953125Q8.87594025,10.1396936953125,8.77045125,10.2451826953125Q8.66496225,10.3506716953125,8.60787125,10.4884996953125Q8.55078125,10.6263286953125,8.55078125,10.7755126953125Q8.55078125,10.9246966953125,8.60787125,11.0625256953125Q8.66496225,11.2003536953125,8.77045125,11.3058426953125Q9.02090425,11.5562966953125,9.02553625,11.901802695312501Q9.030009249999999,12.2355126953125,8.80021925,12.4652926953125Q8.69472125,12.5707826953125,8.63762625,12.7086126953125Q8.58053125,12.8464426953125,8.58053125,12.9956326953125Q8.58053125,13.0150426953125,8.58153425,13.0344126953125Q8.588728249999999,13.1733526953125,8.64527125,13.3004626953125Q8.70181425,13.4275726953125,8.80018325,13.525952695312501Q8.90567325,13.6314426953125,9.04350625,13.6885426953125Q9.18134025,13.7456326953125,9.33053115,13.7456326953125Q9.34993425,13.7456326953125,9.36931185,13.7446326953125Q9.50824525,13.7374426953125,9.63535625,13.680892695312501Q9.76246725,13.6243526953125,9.86084325,13.5259826953125Q10.53836125,12.8485126953125,10.52540125,11.8816926953125Q10.51260125,10.9266706953125,9.83111125,10.2451826953125Z" fill-rule="evenodd" fill="#2D2E33" fill-opacity="1"/></g></g></svg>