<svg xmlns="http://www.w3.org/2000/svg" xmlns:xlink="http://www.w3.org/1999/xlink" fill="none" version="1.1" width="318" height="64" viewBox="0 0 318 64"><g><g><path d="M0,49.15577736237049L0,0.19787736237049103L4.6089,0.19787736237049103L4.6089,21.37077736237049L33.0322,21.37077736237049L33.0322,0.19787736237049103L37.5718,0.19787736237049103L37.5718,49.15577736237049L33.0322,49.15577736237049L33.0322,25.30987736237049L4.6089,25.30987736237049L4.6089,49.15577736237049L0,49.15577736237049Z" fill="#072722" fill-opacity="1" style="mix-blend-mode:passthrough"/></g><g><path d="M49.60011284057617,64.00002270355225L55.88539284057617,48.24362270355225L42.26719284057617,15.323622703552246L47.016082840576175,15.323622703552246L55.95499284057617,37.621922703552244C56.467392840576174,38.98172270355225,57.18899284057617,40.78732270355225,58.12029284057617,43.03832270355225C58.25989284057617,42.70982270355225,58.39949284057617,42.346722703552246,58.539092840576174,41.948122703552244C58.678692840576176,41.54952270355224,58.81829284057618,41.18592270355225,58.95829284057617,40.85792270355225C59.237492840576174,40.24812270355224,59.48189284057617,39.673722703552244,59.691492840576174,39.13452270355225C59.90109284057617,38.595222703552245,60.09869284057617,38.067622703552246,60.28509284057617,37.551722703552244L68.66529284057617,15.323622703552246L73.20449284057617,15.323622703552246L54.13939284057617,64.00002270355225L49.60011284057617,64.00002270355225Z" fill="#072722" fill-opacity="1" style="mix-blend-mode:passthrough"/></g><g><path d="M77.82411193847656,63.99771501922607L77.82411193847656,15.321000019226075L82.15418193847657,15.321000019226075L82.15418193847657,21.511115019226075C83.27141193847656,19.400845019226075,84.88943193847656,17.677485019226076,87.00748193847656,16.340975019226075C89.12591193847656,15.004492019226074,91.48871193847657,14.336215019226074,94.09601193847656,14.336215019226074C97.21521193847656,14.336215019226074,99.92731193847656,15.098280019226074,102.23211193847656,16.622335019226075C104.53661193847657,18.146425019226076,106.30581193847657,20.256655019226073,107.53941193847656,22.953115019226075C108.77341193847656,25.649515019226072,109.39021193847657,28.709415019226075,109.39021193847657,32.13261501922607C109.39021193847657,35.55601501922607,108.74981193847657,38.69811501922607,107.46981193847657,41.417815019226076C106.18941193847657,44.13751501922607,104.38541193847657,46.27121501922608,102.05731193847656,47.818915019226075C99.72931193847657,49.36651501922607,97.07561193847656,50.140415019226076,94.09601193847656,50.140415019226076C91.58191193847657,50.140415019226076,89.26551193847656,49.530615019226076,87.14746193847657,48.311415019226075C85.02904193847657,47.092215019226074,83.36460193847657,45.31001501922607,82.15418193847657,42.965515019226075L82.15418193847657,63.99771501922607L77.82411193847656,63.99771501922607ZM93.46761193847657,46.62311501922608C95.74881193847656,46.62311501922608,97.76241193847656,46.01371501922607,99.50851193847656,44.79411501922607C101.25411193847657,43.574915019226076,102.59291193847656,41.87491501922607,103.52371193847657,39.69441501922607C104.45501193847656,37.51401501922608,104.92061193847655,34.99341501922608,104.92061193847655,32.13261501922607C104.92061193847655,29.272115019226074,104.44341193847656,26.904015019226073,103.48891193847656,24.746815019226077C102.53451193847656,22.589685019226074,101.19611193847656,20.913205019226076,99.47331193847657,19.717395019226075C97.75081193847656,18.521575019226074,95.74881193847656,17.923665019226075,93.46761193847657,17.923665019226075C91.18631193847656,17.923665019226075,89.24231193847656,18.509845019226074,87.49666193847656,19.682205019226075C85.75064193847656,20.854565019226072,84.38864193847657,22.519315019226074,83.41102193847657,24.676515019226073C82.43339193847656,26.833615019226073,81.94458193847656,29.31901501922607,81.94458193847656,32.13261501922607C81.94458193847656,34.946215019226074,82.43339193847656,37.51401501922608,83.41102193847657,39.69441501922607C84.38864193847657,41.87491501922607,85.73904193847656,43.574915019226076,87.46148193847657,44.79411501922607C89.18431193847657,46.01371501922607,91.18631193847656,46.62311501922608,93.46761193847657,46.62311501922608Z" fill="#072722" fill-opacity="1" style="mix-blend-mode:passthrough"/></g><g><path d="M130.0633021118164,50.140415019226076C126.89760211181641,50.140415019226076,124.1155721118164,49.43671501922607,121.7179221118164,48.03011501922607C119.32028211181641,46.62311501922608,117.45785211181641,44.559915019226075,116.1310221118164,41.83981501922607C114.80420111181641,39.12011501922608,114.1406021118164,35.86071501922608,114.1406021118164,32.06251501922607C114.1406021118164,28.686015019226076,114.82740211181641,25.649515019226072,116.20101211181641,22.953115019226075C117.57426211181641,20.256655019226073,119.44828211181641,18.146425019226076,121.8227121118164,16.622335019226075C124.19720211181641,15.098280019226074,126.8508021118164,14.336215019226074,129.7841021118164,14.336215019226074C132.95010211181642,14.336215019226074,135.6502021118164,15.063095019226074,137.8850021118164,16.516815019226073C140.1198021118164,17.970575019226075,141.8191021118164,20.022205019226075,142.9831021118164,22.671745019226073C144.1471021118164,25.321315019226073,144.72910211181642,28.404615019226075,144.72910211181642,31.921715019226074L144.72910211181642,32.83631501922608L118.4706521118164,32.83631501922608C118.4706521118164,35.74341501922608,118.9594621118164,38.229015019226075,119.93709211181641,40.29251501922607C120.91471211181641,42.355715019226075,122.2883221118164,43.92671501922607,124.05756211181641,45.005315019226074C125.8268021118164,46.08381501922607,127.8520021118164,46.62311501922608,130.13330211181642,46.62311501922608C132.83370211181642,46.62311501922608,135.08010211181642,45.97821501922607,136.8726021118164,44.68891501922607C138.66500211181642,43.39911501922607,139.7706021118164,41.46461501922607,140.1898021118164,38.88551501922608L144.5195021118164,38.88551501922608C144.1935021118164,41.042615019226076,143.43710211181642,42.965515019226075,142.2499021118164,44.653415019226074C141.0626021118164,46.34171501922607,139.4330021118164,47.67821501922607,137.3614021118164,48.66291501922608C135.2894021118164,49.647915019226076,132.8569021118164,50.140415019226076,130.0633021118164,50.140415019226076ZM140.1198021118164,29.530015019226074C140.0734021118164,26.013015019226074,139.1422021118164,23.199285019226075,137.3262021118164,21.089055019226073C135.5106021118164,18.978785019226073,132.9965021118164,17.923665019226075,129.7841021118164,17.923665019226075C126.5716021118164,17.923665019226075,124.0923721118164,19.013965019226074,122.0671221118164,21.194575019226075C120.04189211181641,23.375175019226074,118.8894821118164,26.153615019226073,118.61026211181641,29.530015019226074L140.1198021118164,29.530015019226074Z" fill="#072722" fill-opacity="1" style="mix-blend-mode:passthrough"/></g><g><path d="M151.42295837402344,49.157493893432616L151.42295837402344,15.322980893432618L155.75263837402343,15.322980893432618L155.75263837402343,22.075783893432618C156.68382837402345,19.824843893432618,158.13866837402344,17.972523893432616,160.11749837402343,16.518793893432616C162.09635837402345,15.065037893432617,164.41235837402343,14.338193893432617,167.06605837402344,14.338193893432617C167.71805837402343,14.338193893432617,168.34645837402343,14.385069393432618,168.95165837402345,14.478856893432617L168.95165837402345,18.699403893432617C168.16045837402345,18.60561389343262,167.46195837402342,18.558703893432618,166.85675837402343,18.558703893432618C164.62195837402345,18.558703893432618,162.66635837402345,19.06282389343262,160.99032837402345,20.071063893432616C159.31429837402345,21.079263893432618,158.02227837402344,22.521293893432617,157.11464837402343,24.39709389343262C156.20663837402344,26.272893893432617,155.75263837402343,28.45339389343262,155.75263837402343,30.938893893432617L155.75263837402343,49.157493893432616L151.42295837402344,49.157493893432616Z" fill="#072722" fill-opacity="1" style="mix-blend-mode:passthrough"/></g><g><path d="M179.70667358398438,48.2192L179.50897358398439,49.1688L165.80917358398438,49.1688L166.00717658398437,48.2192C169.79002358398438,47.8089,171.33806358398436,46.7187,171.94327358398436,43.87L179.63697358398437,7.35071C180.45177358398436,3.61087,179.29937358398436,3.00123,175.38853358398438,3.81017L175.58651358398438,2.86057L183.9550735839844,0L184.89787358398436,0L175.64453358398438,43.8579C175.0393335839844,46.7187,176.05217358398437,47.7972,179.69497358398436,48.2075L179.70667358398438,48.2192Z" fill="#072722" fill-opacity="1" style="mix-blend-mode:passthrough"/></g><g><path d="M195.13134775390625,48.218652348899845L194.93374775390626,49.16825234889984L181.23394775390625,49.16825234889984L181.43195075390625,48.218652348899845C185.21479775390625,47.80835234889984,186.76281775390626,46.71815234889984,187.36804775390624,43.86945234889984L192.02374775390626,21.629552348899843C192.83854775390625,17.81935234889984,191.75614775390625,17.280052348899844,187.77524775390626,18.08905234889984L187.97324775390626,17.13945234889984L196.34184775390625,14.278852348899841L197.28464775390626,14.278852348899841L191.06930775390626,43.857752348899844C190.46410775390626,46.71815234889984,191.47654775390626,47.79665234889984,195.11974775390624,48.20695234889984L195.13134775390625,48.218652348899845ZM197.42454775390624,1.9807523488998413C199.25184775390625,1.9807523488998413,200.46224775390624,3.4110223488998415,200.26424775390626,5.239932348899842C199.99664775390625,7.080532348899841,198.37904775390626,8.440462348899842,196.62134775390626,8.440462348899842C194.73574775390625,8.440462348899842,193.44374775390625,7.080532348899841,193.72294775390625,5.239932348899842C193.92094775390626,3.3992923488998414,195.55054775390624,1.9807523488998413,197.43614775390625,1.9807523488998413L197.42454775390624,1.9807523488998413Z" fill="#072722" fill-opacity="1" style="mix-blend-mode:passthrough"/></g><g><path d="M218.7298862548828,58.96925823669434L222.48958625488282,41.477358236694336C220.1267862548828,46.64755823669434,215.2030862548828,50.17655823669433,210.00058625488282,50.17655823669433C201.6316362548828,50.17655823669433,197.7091862548828,42.21615823669434,200.2116102548828,30.316658236694337C201.96924625488282,21.676308236694336,209.6629862548828,14.266958236694336,218.77638625488282,14.266958236694336C222.9667862548828,14.266958236694336,226.40048625488282,16.166198236694335,227.8204862548828,18.956398236694337L230.9977862548828,14.266958236694336L231.94058625488282,14.266958236694336L222.4427862548828,58.945858236694335C221.76798625488283,62.005758236694334,224.2003862548828,62.615158236694334,226.63328625488282,63.025458236694334L226.4352862548828,63.974958236694334L210.7105862548828,63.974958236694334L210.90818625488282,63.025458236694334C215.4358862548828,62.615158236694334,218.06668625488282,62.005758236694334,218.7415862548828,58.945858236694335L218.7298862548828,58.96925823669434ZM212.2349862548828,47.667658236694336C216.5534862548828,47.667658236694336,220.8715862548828,43.927858236694334,222.8967862548828,39.437558236694336L225.73688625488282,26.037458236694334C226.48168625488282,21.207338236694337,224.1887862548828,16.177928236694335,217.63588625488282,16.177928236694335C211.08298625488283,16.177928236694335,205.9616962548828,21.887338236694337,204.27369625488282,30.246258236694338C202.10885625488282,40.516058236694334,205.14689625488282,47.65595823669434,212.2349862548828,47.65595823669434L212.2349862548828,47.667658236694336Z" fill="#072722" fill-opacity="1" style="mix-blend-mode:passthrough"/></g><g><path d="M278.7753348632813,48.218652348899845L278.5769348632812,49.16825234889984L264.87823486328125,49.16825234889984L265.07660886328125,48.218652348899845C268.85682486328125,47.80835234889984,270.40635486328125,46.71815234889984,271.0127048632813,43.86945234889984L275.6650348632812,21.629552348899843C276.4809348632813,17.81935234889984,275.39923486328127,17.280052348899844,271.41693486328126,18.08905234889984L271.61530486328127,17.13945234889984L279.98423486328124,14.278852348899841L280.92743486328123,14.278852348899841L274.71059486328124,43.857752348899844C274.10802486328123,46.71815234889984,275.11853486328124,47.79665234889984,278.76403486328127,48.20695234889984L278.7753348632813,48.218652348899845ZM281.06593486328126,1.9807523488998413C282.89613486328125,1.9807523488998413,284.1050348632813,3.4110223488998415,283.90673486328126,5.239932348899842C283.64093486328125,7.080532348899841,282.0203348632813,8.440462348899842,280.26493486328127,8.440462348899842C278.37853486328123,8.440462348899842,277.0873348632812,7.080532348899841,277.36423486328124,5.239932348899842C277.56263486328123,3.3992923488998414,279.19443486328123,1.9807523488998413,281.08083486328127,1.9807523488998413L281.06593486328126,1.9807523488998413Z" fill="#072722" fill-opacity="1" style="mix-blend-mode:passthrough"/></g><g><path d="M259.31695876464846,43.78532394561768L262.42655876464846,28.849523945617676L265.48435876464845,14.288723945617676L264.5449587646484,14.288723945617676L256.17455876464845,17.149293945617675L255.97655876464844,18.098893945617675C259.8873587646484,17.278263945617674,261.03985876464844,17.829263945617676,260.2249587646484,21.639433945617675L256.2444587646484,40.60812394561768C251.85645876464844,44.75862394561767,248.74835876464843,47.20872394561768,244.96595876464843,47.20872394561768C240.30985876464842,47.20872394561768,237.87741876464844,44.00822394561767,239.02982876464844,38.50992394561767L244.16271876464845,14.300451845617676L243.21990876464844,14.300451845617676L234.78136176464844,17.161023945617675L234.58335876464844,18.110623945617675C238.56420876464844,17.289953945617675,239.64662876464843,17.840993945617676,238.90181876464843,21.651163945617675L235.25855076464845,39.06082394561767C233.83854876464844,45.52042394561768,237.08580876464845,50.209723945617675,243.09188876464844,50.209723945617675C247.07235876464844,50.209723945617675,250.57605876464845,47.970823945617674,255.96495876464843,42.14412394561768L255.70895876464843,43.37502394561768L255.70895876464843,43.433823945617675L255.69725876464844,43.433823945617675L254.48685876464845,49.20172394561767L263.18255876464843,49.20172394561767L263.3809587646484,48.169923945617676C259.73615876464845,47.75972394561767,258.7233587646484,46.66942394561767,259.32895876464846,43.82042394561768L259.31695876464846,43.78532394561768Z" fill="#072722" fill-opacity="1" style="mix-blend-mode:passthrough"/></g><g><path d="M315.2789984375,13.0132L317.9999984375,0L317.0605984375,0L308.6916984375,2.86057L308.4932984375,3.81017C312.4044984375,2.9895,313.5535984375,3.61087,312.7413984375,7.35071L310.3796984375,18.4295C308.8862984375,15.909,305.6524984375,14.2794,301.8684984375,14.2794C292.6873984375,14.2794,285.0632684375,21.6184,283.1057994375,30.9387C280.7440684375,42.2284,284.5954184375,50.1772,293.0354984375,50.1772C298.2978984375,50.1772,303.3019984375,46.578,305.5925984375,41.4078L304.9899984375,44.3738L303.9756984375,49.1571L312.6702984375,49.0869L312.8685984375,48.1374C309.2268984375,47.7271,308.2125984375,46.6365,308.8188984375,43.7878L315.2677984375,13.0132L315.2789984375,13.0132ZM305.9892984375,39.3681C303.9644984375,43.9285,299.6452984375,47.6683,295.2586984375,47.6683C288.1698084375,47.6683,285.1306584375,40.5284,287.1555284375,30.8683C289.0418984375,21.888,294.4427984375,16.1786,300.7306984375,16.1786C307.4340984375,16.1786,309.6684984375,21.5363,308.7814984375,26.4133L308.4707984375,27.8905L306.0005984375,39.3681L305.9892984375,39.3681Z" fill="#072722" fill-opacity="1" style="mix-blend-mode:passthrough"/></g></g></svg>