<svg xmlns="http://www.w3.org/2000/svg" xmlns:xlink="http://www.w3.org/1999/xlink" fill="none" version="1.1" width="24" height="24" viewBox="0 0 24 24"><defs><clipPath id="master_svg0_4114_39313"><rect x="0" y="0" width="24" height="24" rx="0"/></clipPath></defs><g clip-path="url(#master_svg0_4114_39313)"><g><path d="M13.39,4.51944262260437Q14.2064,5.29181262260437,14.2506,6.40479262260437Q14.2535,6.47672262260437,14.2699,6.54680262260437Q14.2864,6.616872622604371,14.3159,6.68253262260437Q14.3455,6.74819262260437,14.3869,6.807042622604371Q14.4284,6.865882622604371,14.4803,6.91577262260437Q14.5322,6.96565262260437,14.5927,7.00475262260437Q14.6531,7.04385262260437,14.7199,7.07073262260437Q14.7867,7.09762262260437,14.8573,7.11131262260437Q14.928,7.12501262260437,15,7.12501262260437Q15.0739,7.12501262260437,15.1463,7.11060262260437Q15.2188,7.0961826226043705,15.287,7.06792262260437Q15.3553,7.03965262260437,15.4167,6.99861262260437Q15.4781,6.957572622604371,15.5303,6.90534262260437Q15.5826,6.85310262260437,15.6236,6.79168262260437Q15.6646,6.73027262260437,15.6929,6.66202262260437Q15.7212,6.59377262260437,15.7356,6.52133262260437Q15.75,6.44888262260437,15.75,6.37501262260437Q15.75,6.3598626226043695,15.7494,6.34473262260437L15.7493,6.34276262260437Q15.68,4.62113262260437,14.421,3.42986362260437Q13.1281,2.20662262260437,11.29726,2.2514146226043703Q10.72184,2.2654826226043703,8.8475,2.79419862260437Q3.194447,4.38872262260437,2.373581,8.574112622604371Q2.25,9.20419262260437,2.25,11.16270262260437L2.25,12.837302622604371Q2.25,14.79590262260437,2.373587,15.42590262260437Q3.194434,19.61120262260437,8.8475,21.20580262260437Q10.72143,21.73440262260437,11.29721,21.74860262260437Q13.1281,21.79340262260437,14.421,20.57010262260437Q15.68,19.37890262260437,15.7493,17.65720262260437L15.7494,17.65530262260437L15.7494,17.65480262260437L14.2506,17.59520262260437Q14.2064,18.708202622604368,13.39,19.48050262260437Q12.54648,20.27870262260437,11.33399,20.24900262260437Q10.94697,20.23950262260437,9.25474,19.76220262260437Q4.4889600000000005,18.41780262260437,3.845533,15.13710262260437Q3.75,14.65010262260437,3.75,12.837302622604371L3.75,11.16270262260437Q3.75,9.34990262260437,3.845538,8.86280262260437Q4.48897,5.58211262260437,9.25474,4.23786262260437Q10.9473,3.7604186226043703,11.33394,3.75096562260437Q12.54649,3.7213016226043703,13.39,4.51944262260437Z" fill-rule="evenodd" fill="#99A0AF" fill-opacity="1" style="mix-blend-mode:passthrough"/></g><g><path d="M19.02342,8.962849Q19.13175,9.067857,19.62568,9.4555934Q20.5001,10.142007,20.8902,10.51702Q21.75,11.343630000000001,21.75,12Q21.75,12.65639,20.8901,13.48303Q20.5,13.85806,19.62558,14.54449Q19.13017,14.933399999999999,19.02273,15.03783Q18.91773,15.13987,18.782069999999997,15.19493Q18.64641,15.25,18.5,15.25Q18.42613,15.25,18.35368,15.23559Q18.28123,15.22118,18.212989999999998,15.192910000000001Q18.14474,15.16464,18.08332,15.1236Q18.021900000000002,15.08256,17.96967,15.03033Q17.91744,14.978100000000001,17.8764,14.91668Q17.83536,14.855260000000001,17.80709,14.78701Q17.77882,14.71877,17.764409999999998,14.64632Q17.75,14.57387,17.75,14.5Q17.75,14.348040000000001,17.80915,14.20806Q17.868299999999998,14.06808,17.97727,13.96217L17.977800000000002,13.96167Q18.14246,13.80179,18.69936,13.36462Q19.14782,13.01256,19.46659,12.75L10,12.75Q9.9261315,12.75,9.853682,12.73559Q9.781233,12.72118,9.712987,12.69291Q9.644742,12.66464,9.583322,12.6236Q9.521903,12.58256,9.46967,12.53033Q9.417437,12.4781,9.376398,12.41668Q9.335359,12.35526,9.30709,12.28701Q9.278822,12.21877,9.264410999999999,12.14632Q9.25,12.07387,9.25,12Q9.25,11.92613,9.264410999999999,11.85368Q9.278822,11.78123,9.30709,11.71299Q9.335359,11.64474,9.376398,11.58332Q9.417437,11.5219,9.46967,11.46967Q9.521903,11.41744,9.583322,11.3764Q9.644742,11.33536,9.712987,11.30709Q9.781233,11.27882,9.853682,11.26441Q9.9261315,11.25,10,11.25L19.46658,11.25Q19.147840000000002,10.98747,18.69945,10.63547Q18.14159,10.197536,17.97726,10.037811Q17.868290000000002,9.931899,17.80915,9.791927Q17.75,9.651955,17.75,9.5Q17.75,9.4261315,17.764409999999998,9.353682Q17.77882,9.281233,17.80709,9.212987Q17.83536,9.144742,17.8764,9.083322Q17.91744,9.021903,17.96967,8.96967Q18.021900000000002,8.917437,18.08332,8.876398Q18.14474,8.835359,18.212989999999998,8.80709Q18.28123,8.778822,18.35368,8.764410999999999Q18.42613,8.75,18.5,8.75Q18.64642,8.75,18.78208,8.80507Q18.917749999999998,8.860139,19.02274,8.962191L19.02342,8.962849Z" fill-rule="evenodd" fill="#99A0AF" fill-opacity="1" style="mix-blend-mode:passthrough"/></g></g></svg>