<svg xmlns="http://www.w3.org/2000/svg" xmlns:xlink="http://www.w3.org/1999/xlink" fill="none" version="1.1" width="150" height="30" viewBox="0 0 150 30"><defs><clipPath id="master_svg0_4136_57711"><rect x="0" y="0" width="150" height="30" rx="0"/></clipPath></defs><g clip-path="url(#master_svg0_4136_57711)"><g><path d="M44.37158203125,6.0060665L44.37158203125,23.5795125L45.32749203125,23.5795125L45.32749203125,14.6215325L57.58048203125,14.6215325L57.58048203125,23.5795125L58.62328203125,23.5795125L58.62328203125,6.0060665L57.58048203125,6.0060665L57.58048203125,13.7257325L45.32749203125,13.7257325L45.32749203125,6.0060665L44.37158203125,6.0060665ZM60.62198203125,10.880252500000001L59.66608203125,10.880252500000001L65.08288203125,23.3687125L63.92418203125,26.1088125C63.48968203125,27.2417125,62.93938203125,27.6369125,61.92548203125,27.6369125C61.72278203125,27.6369125,61.519982031249995,27.6369125,61.05648203125,27.5579125L61.05648203125,28.3219125C61.54898203125,28.4273125,61.780682031249995,28.4537125,62.09928203125,28.4537125C63.344882031249995,28.4537125,64.12698203125001,27.7687125,64.79318203125,26.0824125L70.93418203125,10.880252500000001L70.00728203125,10.880252500000001L65.51738203125001,22.2621125L60.62198203125,10.880252500000001ZM72.87498203125,28.4537125L72.87498203125,20.813112500000003C73.71498203125,22.8154125,75.45308203125,23.9220125,77.77038203125,23.9220125C81.24638203125,23.9220125,83.59268203125,21.2873125,83.59268203125,17.2826125C83.59268203125,13.1460925,81.30438203125,10.5377425,77.77038203125,10.5377425C75.45308203125,10.5377425,73.71498203125,11.644322500000001,72.87498203125,13.6466925L72.87498203125,10.880252500000001L72.00598203125,10.880252500000001L72.00598203125,28.4537125L72.87498203125,28.4537125ZM77.82828203125,11.354502499999999C80.69608203125,11.354502499999999,82.63678203125,13.7257325,82.63678203125,17.203512500000002C82.63678203125,20.6813125,80.69608203125,23.1052125,77.82828203125,23.1052125C74.84468203125,23.1052125,72.84598203125,20.6813125,72.84598203125,17.203512500000002C72.84598203125,13.7257325,74.84468203125,11.354502499999999,77.82828203125,11.354502499999999ZM96.16438203125,19.8909125L95.26638203125,19.8909125C95.00568203124999,20.6286125,94.91878203125,20.944812499999998,94.60018203125,21.3400125C93.81798203125,22.4202125,92.28278203125001,23.1052125,90.54478203125001,23.1052125C88.60398203125,23.1052125,87.12668203125,22.2358125,86.34458203125,20.7340125C85.91008203125,19.9173125,85.70728203125,19.1005125,85.62038203125,17.3616125L96.42508203125,17.3616125C96.39608203125,15.4910125,96.22228203125,14.5161425,95.64298203125,13.3832225C94.71598203125001,11.5125825,93.00698203125,10.5377425,90.77648203125,10.5377425C86.95288203125,10.5377425,84.66448203125,13.172442499999999,84.66448203125,17.3879125C84.66448203125,19.0478125,85.06998203124999,20.5759125,85.73628203125,21.6035125C86.69218203125,23.0525125,88.54608203125,23.9220125,90.66068203124999,23.9220125C93.58628203125,23.9220125,95.78778203125,22.2621125,96.16438203125,19.8909125ZM95.38228203125,16.5448125L85.62038203125,16.5448125C85.82318203125,13.2514825,87.61908203125,11.354502499999999,90.71858203125001,11.354502499999999C92.07998203125,11.354502499999999,93.38348203125,11.9077925,94.16558203125,12.8299325C94.97668203125,13.7520725,95.29538203125,14.6742225,95.38228203125,16.5448125ZM98.07618203125,19.838212499999997L97.12028203125,19.838212499999997C97.32298203125,22.3939125,99.20588203125,23.9747125,102.33428203125,23.9747125C105.37578203125,23.9747125,107.43248203125,22.5256125,107.43248203125,20.3388125C107.43248203125,19.258612499999998,106.93998203125,18.3891125,105.98408203125,17.783212499999998C105.28888203125,17.3616125,104.70958203125,17.1772125,102.65288203125,16.7029125C100.56728203125,16.202312499999998,100.13278203125,16.096912500000002,99.49558203125,15.7281125C98.82928203125,15.3065125,98.48168203125,14.7269125,98.48168203125,13.9892025C98.48168203125,12.5137725,100.04588203125,11.3281525,102.21838203125,11.3281525C104.50678203125,11.3281525,105.78138203124999,12.3293425,106.04208203125,14.3580625L107.08488203125,14.3580625C106.93998203125,13.3305225,106.70828203125001,12.750892499999999,106.24478203125,12.1449125C105.40478203125,11.1173825,103.95648203125,10.511402499999999,102.21838203125,10.511402499999999C99.46658203125,10.511402499999999,97.43888203125,11.9868325,97.43888203125,14.0682425C97.43888203125,15.0957725,97.90238203125,15.8862125,98.80038203125,16.4395125C99.46658203125,16.834712500000002,100.04588203125,17.0191125,102.27638203125,17.5197125C104.24608203125,18.0203125,104.79648203125001,18.1784125,105.43378203124999,18.5472125C106.12898203124999,18.9688125,106.47658203124999,19.5747125,106.47658203124999,20.3388125C106.47658203124999,22.0250125,104.88338203125,23.0789125,102.45018203125,23.0789125C99.78518203125,23.0789125,98.30788203125,21.9460125,98.07618203125,19.838212499999997ZM109.89568203125,23.5426125L113.66778203125,6.1898705L118.83988203125,6.1898705L119.04248203125,5.2578125L107.88558203125001,5.2578125L107.68288203125,6.1898705L112.85498203125,6.1898705L109.08298203125,23.5426125L109.89568203125,23.5426125ZM115.57568203125,10.3293125L112.70338203125,23.5426125L113.44228203125,23.5426125L115.07508203125,16.0313125C115.73058203125,13.0158325,117.50658203125,10.8501625,119.35378203125,10.8501625C119.52618203125,10.8501625,119.60008203125,10.8501625,119.76658203125,10.877582499999999L119.95718203125,10.0003425L119.51388203125,10.0003425C117.98688203125,10.0003425,116.74398203125,10.9598225,115.76028203125,12.8787625L116.31448203125,10.3293125L115.57568203125,10.3293125ZM126.82848203125,23.5974125L127.00728203125,22.7750125C126.71848203125,22.8573125,126.60128203125,22.8299125,126.42888203125,22.8299125C125.81318203125,22.8299125,125.61808203125,22.2542125,125.86248203125,21.1302125L127.46548203125,13.7559925C127.67398203125,12.7965225,127.66328203125,12.1660125,127.48688203125,11.6177425C127.11038203125,10.6308525,125.94208203125,10.0003425,124.36578203125,10.0003425C121.77978203125,10.0003425,119.73478203125,11.590332499999999,119.08208203125,14.1397825L119.89478203125,14.1397825C120.44618203125,12.056362499999999,121.98908203125,10.8501625,124.13178203125,10.8501625C126.17608203125,10.8501625,127.13178203125,11.8918725,126.72658203125,13.7559925L126.61338203125,14.2768525C126.46438203125,14.9621925,126.22638203125,15.2637125,125.71078203125,15.4830125C125.17058203125,15.7023125,125.02948203125,15.7846125,122.89518203125,16.0861125C121.05628203125,16.3877125,120.08548203125,16.6618125,119.18488203125,17.2923125C118.16798203125,18.0051125,117.51608203125,18.964512499999998,117.25388203125,20.1707125C116.77118203125,22.3912125,117.93978203125,23.9264125,120.18108203125,23.9264125C121.43718203125,23.9264125,122.77588203125,23.4329125,123.87188203125,22.5831125C124.42918203125,22.1719125,124.59408203125,21.9800125,125.14818203125,21.1302125C124.76758203125,22.9943125,125.03738203125,23.6797125,126.19488203125,23.6797125C126.39198203125,23.6797125,126.51508203125,23.6797125,126.82848203125,23.5974125ZM126.23198203125,16.0313125L125.49308203125,19.430612500000002C125.33218203125,20.1707125,124.72278203125,21.0480125,123.90878203125,21.7333125C122.86208203125,22.5831125,121.62188203125,23.0766125,120.36578203125,23.0766125C118.59248203125,23.0766125,117.67928203125,21.9526125,118.04278203125,20.2804125C118.47178203125,18.3066125,119.89318203125,17.3197125,122.91938203125,16.8811125L123.50368203125,16.7989125L124.08808203125,16.7166125L124.62308203125,16.6344125L125.05968203125,16.5522125C125.60668203125,16.4151125,125.76638203125,16.3603125,126.23198203125,16.0313125ZM139.65688203125,5.2578125L137.92878203125,13.2077225C137.66738203124999,11.124302499999999,136.43998203125,9.972932499999999,134.46968203125,9.972932499999999C131.44028203125,9.972932499999999,128.89868203125002,12.7142825,127.99288203125,16.8811125C127.06328203125,21.1576125,128.38848203125002,23.8990125,131.44248203125,23.8990125C133.41278203125,23.8990125,135.14078203125,22.7476125,136.30788203125002,20.664212499999998L135.68218203125,23.5426125L136.42108203125,23.5426125L140.39578203125,5.2578125L139.65688203125,5.2578125ZM134.21108203125,10.8227525C136.79708203125,10.8227525,137.93548203125,13.2899625,137.14298203125,16.9359125C136.35038203125,20.5819125,134.13938203125,23.0492125,131.55328203125,23.0492125C129.11508203124998,23.0492125,128.00118203124998,20.5819125,128.79378203125,16.9359125C129.58628203125,13.2899625,131.77278203125002,10.8227525,134.21108203125,10.8227525ZM148.36258203124999,19.7047125L147.59958203125,19.7047125C147.21058203125,20.4723125,147.06558203125002,20.8013125,146.70558203125,21.212512500000003C145.79558203125,22.3364125,144.33568203125,23.0492125,142.85798203125,23.0492125C141.20788203125,23.0492125,140.14838203124998,22.1445125,139.82308203125,20.5819125C139.63838203125,19.7321125,139.65078203125,18.882312499999998,139.97018203125,17.0730125L149.15658203125,17.0730125C149.55558203125,15.1266725,149.62758203125,14.1123725,149.39158203124998,12.9335925C149.02658203125,10.987232500000001,147.79358203125,9.972932499999999,145.89758203125,9.972932499999999C142.64648203125,9.972932499999999,140.10488203124999,12.7142825,139.15138203125,17.100412499999997C138.77598203125,18.827512499999997,138.77518203124998,20.4175125,139.10928203125002,21.4866125C139.59428203125,22.9943125,140.97388203125,23.8990125,142.77178203124998,23.8990125C145.25958203125,23.8990125,147.50658203125,22.1719125,148.36258203124999,19.7047125ZM148.45458203125,16.223212500000002L140.15488203125,16.223212500000002C141.07218203125,12.7965225,143.02818203125,10.8227525,145.66358203125,10.8227525C146.82058203125,10.8227525,147.80458203125,11.3984325,148.26058203125,12.357912500000001C148.74158203125,13.3173825,148.80358203125002,14.2768525,148.45458203125,16.223212500000002Z" fill="#F6FEFD" fill-opacity="1" style="mix-blend-mode:passthrough"/></g><g><path d="M38.30101171875,10.2421C37.96831171875,7.65189,37.15111171875,5.11219,35.64541171875,2.79029C34.07231171875,0.36402,31.82681171875,-0.658406,30.00881171875,0.440018C29.16941171875,0.946423,28.57981171875,1.9128,28.03001171875,2.78622C27.52811171875,3.58068,27.26961171875,4.5598,26.83271171875,5.40975C25.07221171875,8.83827,21.57451171875,9.82279,17.139211718749998,8.95191C12.70401171875,8.08104,11.71458171875,5.95006,9.608591718749999,4.46019C7.63900171875,3.12767,5.32641171875,2.05413,3.54771171875,3.46542C2.07756991875,4.80305,1.14422871875,9.43749,3.14993171875,15.1131C5.15562171875,20.7886,8.822301718750001,23.8382,11.02580171875,24.2231C13.21461171875,24.6053,13.82231171875,23.7361,14.51211171875,22.7496L14.52601171875,22.7298C15.35851171875,21.0257,16.66131171875,17.9133,17.97951171875,16.3582C19.29781171875,14.8032,19.91901171875,14.0469,21.81391171875,13.5506C23.70881171875,13.0543,24.57061171875,13.215,26.48191171875,13.8106C28.39331171875,14.4061,31.19931171875,16.2499,32.12841171875,17.1509C35.29491171875,20.2235,38.04831171875,18.2157,38.36251171875,15.5629C38.55691171875,13.8265,38.53621171875,12.0388,38.30101171875,10.2421ZM27.93051171875,29.9761C31.08551171875,29.6974,32.81911171875,27.0632,31.66071171875,23.6774C30.50221171875,20.2915,26.45171171875,16.154,23.29671171875,16.4327C20.14171171875,16.7114,19.07701171875,21.3007,20.23541171875,24.6865C21.39391171875,28.0724,24.77551171875,30.2548,27.93051171875,29.9761Z" fill-rule="evenodd" fill="#F6FEFD" fill-opacity="1" style="mix-blend-mode:passthrough"/></g></g></svg>