<svg xmlns="http://www.w3.org/2000/svg" xmlns:xlink="http://www.w3.org/1999/xlink" fill="none" version="1.1" width="150" height="30" viewBox="0 0 150 30"><defs><clipPath id="svg0_40_006"><rect x="0" y="0" width="150" height="30" rx="0"/></clipPath></defs><g clip-path="url(#svg0_40_006)"><g><path d="M44.37158203125,6.0060665L44.37158203125,23.5795125L45.32749203125,23.5795125L45.32749203125,14.6215325L57.58048203125,14.6215325L57.58048203125,23.5795125L58.62328203125,23.5795125L58.62328203125,6.0060665L57.58048203125,6.0060665L57.58048203125,13.7257325L45.32749203125,13.7257325L45.32749203125,6.0060665L44.37158203125,6.0060665ZM60.62198203125,10.880252500000001L59.66608203125,10.880252500000001L65.08288203125,23.3687125L63.92418203125,26.1088125C63.48968203125,27.2417125,62.93938203125,27.6369125,61.92548203125,27.6369125C61.72278203125,27.6369125,61.519982031249995,27.6369125,61.05648203125,27.5579125L61.05648203125,28.3219125C61.54898203125,28.4273125,61.780682031249995,28.4537125,62.09928203125,28.4537125C63.344882031249995,28.4537125,64.12698203125001,27.7687125,64.79318203125,26.0824125L70.93418203125,10.880252500000001L70.00728203125,10.880252500000001L65.51738203125001,22.2621125L60.62198203125,10.880252500000001ZM72.87498203125,28.4537125L72.87498203125,20.813112500000003C73.71498203125,22.8154125,75.45308203125,23.9220125,77.77038203125,23.9220125C81.24638203125,23.9220125,83.59268203125,21.2873125,83.59268203125,17.2826125C83.59268203125,13.1460925,81.30438203125,10.5377425,77.77038203125,10.5377425C75.45308203125,10.5377425,73.71498203125,11.644322500000001,72.87498203125,13.6466925L72.87498203125,10.880252500000001L72.00598203125,10.880252500000001L72.00598203125,28.4537125L72.87498203125,28.4537125ZM77.82828203125,11.354502499999999C80.69608203125,11.354502499999999,82.63678203125,13.7257325,82.63678203125,17.203512500000002C82.63678203125,20.6813125,80.69608203125,23.1052125,77.82828203125,23.1052125C74.84468203125,23.1052125,72.84598203125,20.6813125,72.84598203125,17.203512500000002C72.84598203125,13.7257325,74.84468203125,11.354502499999999,77.82828203125,11.354502499999999ZM96.16438203125,19.8909125L95.26638203125,19.8909125C95.00568203124999,20.6286125,94.91878203125,20.944812499999998,94.60018203125,21.3400125C93.81798203125,22.4202125,92.28278203125001,23.1052125,90.54478203125001,23.1052125C88.60398203125,23.1052125,87.12668203125,22.2358125,86.34458203125,20.7340125C85.91008203125,19.9173125,85.70728203125,19.1005125,85.62038203125,17.3616125L96.42508203125,17.3616125C96.39608203125,15.4910125,96.22228203125,14.5161425,95.64298203125,13.3832225C94.71598203125001,11.5125825,93.00698203125,10.5377425,90.77648203125,10.5377425C86.95288203125,10.5377425,84.66448203125,13.172442499999999,84.66448203125,17.3879125C84.66448203125,19.0478125,85.06998203124999,20.5759125,85.73628203125,21.6035125C86.69218203125,23.0525125,88.54608203125,23.9220125,90.66068203124999,23.9220125C93.58628203125,23.9220125,95.78778203125,22.2621125,96.16438203125,19.8909125ZM95.38228203125,16.5448125L85.62038203125,16.5448125C85.82318203125,13.2514825,87.61908203125,11.354502499999999,90.71858203125001,11.354502499999999C92.07998203125,11.354502499999999,93.38348203125,11.9077925,94.16558203125,12.8299325C94.97668203125,13.7520725,95.29538203125,14.6742225,95.38228203125,16.5448125ZM98.89578203125001,23.5426125L102.66768203125,6.1898805L107.83988203125,6.1898805L108.04248203125,5.2578125L96.88548203125,5.2578125L96.68288203125,6.1898805L101.85498203125,6.1898805L98.08298203125,23.5426125L98.89578203125001,23.5426125ZM104.57568203125,10.3292825L101.70338203125,23.5426125L102.44238203124999,23.5426125L104.07518203125,16.0313125C104.73068203125,13.0158325,106.50658203124999,10.8501625,108.35378203125,10.8501625C108.52618203125,10.8501625,108.60008203125,10.8501425,108.76658203125,10.8775625L108.95728203125,10.0003625L108.51388203125,10.0003625C106.98688203124999,10.0003625,105.74398203125,10.9598425,104.76028203125,12.8787825L105.31448203125001,10.3292825L104.57568203125,10.3292825ZM115.82838203125,23.5974125L116.00728203125,22.7750125C115.71848203125,22.8573125,115.60138203125,22.8299125,115.42898203125,22.8299125C114.81328203125,22.8299125,114.61818203125,22.2542125,114.86258203125,21.1302125L116.46558203125,13.7559825C116.67408203125,12.7965125,116.66318203125,12.166002500000001,116.48678203125,11.617732499999999C116.11028203125,10.6308425,114.94198203125,10.0003625,113.36568203125,10.0003625C110.77968203125,10.0003625,108.73468203125,11.5903225,108.08198203124999,14.1397725L108.89478203125,14.1397725C109.44618203125,12.0563525,110.98918203125,10.8501625,113.13188203125,10.8501625C115.17618203125,10.8501625,116.13178203125,11.8918625,115.72658203125,13.7559825L115.61328203125,14.2768525C115.46428203125,14.9621925,115.22628203125,15.2637125,114.71068203125,15.4830125C114.17048203125,15.7023125,114.02958203125,15.7846125,111.89528203125,16.0861125C110.05638203125,16.3877125,109.08538203125,16.6618125,108.18478203125,17.2923125C107.16788203125,18.0051125,106.51608203125,18.964512499999998,106.25388203125,20.1707125C105.77118203124999,22.3912125,106.93988203125,23.9264125,109.18118203125,23.9264125C110.43728203125,23.9264125,111.77578203125,23.4329125,112.87178203125,22.5831125C113.42908203125,22.1719125,113.59408203125,21.9800125,114.14818203125,21.1302125C113.76758203125,22.9943125,114.03728203125,23.6797125,115.19478203125,23.6797125C115.39188203125,23.6797125,115.51498203125,23.6797125,115.82838203125,23.5974125ZM115.23198203125,16.0313125L114.49318203125,19.430612500000002C114.33228203125,20.1707125,113.72268203125,21.0480125,112.90868203125,21.7333125C111.86198203125,22.5831125,110.62178203125,23.0766125,109.36568203125,23.0766125C107.59238203125,23.0766125,106.67918203125001,21.9526125,107.04268203125,20.2804125C107.47168203125,18.3066125,108.89328203125,17.3197125,111.91948203125,16.8811125L112.50368203125,16.7989125L113.08818203125,16.7166125L113.62308203125,16.6344125L114.05958203125,16.5522125C114.60658203125,16.4151125,114.76638203125,16.3603125,115.23198203125,16.0313125ZM128.65698203124998,5.2578125L126.92868203125,13.2077025C126.66728203125,11.1242825,125.44008203125,9.972962500000001,123.46968203125,9.972962500000001C120.44028203125,9.972962500000001,117.89868203125,12.7142725,116.99288203125,16.8811125C116.06328203125,21.1576125,117.38838203125,23.8990125,120.44238203125,23.8990125C122.41268203125,23.8990125,124.14078203125,22.7476125,125.30788203125,20.664212499999998L124.68208203125,23.5426125L125.42118203125,23.5426125L129.39578203125,5.2578125L128.65698203124998,5.2578125ZM123.21118203125,10.8227525C125.79718203125,10.8227525,126.93558203125,13.2899625,126.14308203125,16.9359125C125.35048203125,20.5819125,123.13928203125,23.0492125,120.55318203125,23.0492125C118.11498203125,23.0492125,117.00108203125,20.5819125,117.79368203125,16.9359125C118.58618203125,13.2899625,120.77288203125,10.8227525,123.21118203125,10.8227525ZM137.36258203124999,19.7047125L136.59958203125,19.7047125C136.21058203125,20.4723125,136.06558203125002,20.8013125,135.70558203125,21.212512500000003C134.79558203125,22.3364125,133.33558203125,23.0492125,131.85788203125,23.0492125C130.20778203125002,23.0492125,129.14828203125,22.1445125,128.82298203125,20.5819125C128.63828203125001,19.7321125,128.65078203125,18.882312499999998,128.97018203125,17.0730125L138.15648203125,17.0730125C138.55548203125,15.1266525,138.62758203125,14.1123725,138.39158203124998,12.9335925C138.02658203125,10.987232500000001,136.79348203125,9.972962500000001,134.89748203124998,9.972962500000001C131.64638203125,9.972962500000001,129.10488203124999,12.7142725,128.15138203125,17.100412499999997C127.77598203125,18.827512499999997,127.77528203125,20.4175125,128.10938203125,21.4866125C128.59438203125,22.9943125,129.97378203124998,23.8990125,131.77168203125,23.8990125C134.25948203125,23.8990125,136.50658203125,22.1719125,137.36258203124999,19.7047125ZM137.45458203125,16.223212500000002L129.15478203125,16.223212500000002C130.07208203125,12.7965125,132.02818203125,10.8227525,134.66358203125,10.8227525C135.82058203125,10.8227525,136.80448203125002,11.3984325,137.26048203125,12.357912500000001C137.74148203125,13.3173825,137.80358203125002,14.2768425,137.45458203125,16.223212500000002Z" fill="#F6FEFD" fill-opacity="1" style="mix-blend-mode:passthrough"/></g><g><path d="M38.30101171875,10.2421C37.96831171875,7.65189,37.15111171875,5.11219,35.64541171875,2.79029C34.07231171875,0.36402,31.82681171875,-0.658406,30.00881171875,0.440018C29.16941171875,0.946423,28.57981171875,1.9128,28.03001171875,2.78622C27.52811171875,3.58068,27.26961171875,4.5598,26.83271171875,5.40975C25.07221171875,8.83827,21.57451171875,9.82279,17.139211718749998,8.95191C12.70401171875,8.08104,11.71458171875,5.95006,9.608591718749999,4.46019C7.63900171875,3.12767,5.32641171875,2.05413,3.54771171875,3.46542C2.07756991875,4.80305,1.14422871875,9.43749,3.14993171875,15.1131C5.15562171875,20.7886,8.822301718750001,23.8382,11.02580171875,24.2231C13.21461171875,24.6053,13.82231171875,23.7361,14.51211171875,22.7496L14.52601171875,22.7298C15.35851171875,21.0257,16.66131171875,17.9133,17.97951171875,16.3582C19.29781171875,14.8032,19.91901171875,14.0469,21.81391171875,13.5506C23.70881171875,13.0543,24.57061171875,13.215,26.48191171875,13.8106C28.39331171875,14.4061,31.19931171875,16.2499,32.12841171875,17.1509C35.29491171875,20.2235,38.04831171875,18.2157,38.36251171875,15.5629C38.55691171875,13.8265,38.53621171875,12.0388,38.30101171875,10.2421ZM27.93051171875,29.9761C31.08551171875,29.6974,32.81911171875,27.0632,31.66071171875,23.6774C30.50221171875,20.2915,26.45171171875,16.154,23.29671171875,16.4327C20.14171171875,16.7114,19.07701171875,21.3007,20.23541171875,24.6865C21.39391171875,28.0724,24.77551171875,30.2548,27.93051171875,29.9761Z" fill-rule="evenodd" fill="#F6FEFD" fill-opacity="1" style="mix-blend-mode:passthrough"/></g></g></svg>