<svg xmlns="http://www.w3.org/2000/svg" xmlns:xlink="http://www.w3.org/1999/xlink" fill="none" version="1.1" width="150" height="30" viewBox="0 0 150 30"><defs><clipPath id="master_svg0_4121_36900"><rect x="0" y="0" width="150" height="30" rx="0"/></clipPath></defs><g clip-path="url(#master_svg0_4121_36900)"><g><g><path d="M44.371131896972656,6.005985914520264L44.371131896972656,23.579431914520264L45.327040896972655,23.579431914520264L45.327040896972655,14.621451914520264L57.580031896972656,14.621451914520264L57.580031896972656,23.579431914520264L58.622831896972656,23.579431914520264L58.622831896972656,6.005985914520264L57.580031896972656,6.005985914520264L57.580031896972656,13.725651914520263L45.327040896972655,13.725651914520263L45.327040896972655,6.005985914520264L44.371131896972656,6.005985914520264ZM60.621531896972655,10.880171914520265L59.665631896972656,10.880171914520265L65.08243189697265,23.368631914520265L63.923731896972654,26.108731914520263C63.489231896972655,27.241631914520262,62.938931896972655,27.636831914520265,61.925031896972655,27.636831914520265C61.722331896972655,27.636831914520265,61.51953189697265,27.636831914520265,61.056031896972655,27.557831914520264L61.056031896972655,28.321831914520263C61.548531896972655,28.427231914520263,61.78023189697265,28.453631914520265,62.098831896972655,28.453631914520265C63.34443189697265,28.453631914520265,64.12653189697266,27.768631914520263,64.79273189697265,26.082331914520264L70.93373189697266,10.880171914520265L70.00683189697266,10.880171914520265L65.51693189697266,22.262031914520264L60.621531896972655,10.880171914520265ZM72.87453189697266,28.453631914520265L72.87453189697266,20.813031914520266C73.71453189697266,22.815331914520264,75.45263189697266,23.921931914520265,77.76993189697265,23.921931914520265C81.24593189697265,23.921931914520265,83.59223189697266,21.287231914520262,83.59223189697266,17.282531914520263C83.59223189697266,13.146011914520264,81.30393189697266,10.537661914520264,77.76993189697265,10.537661914520264C75.45263189697266,10.537661914520264,73.71453189697266,11.644241914520265,72.87453189697266,13.646611914520264L72.87453189697266,10.880171914520265L72.00553189697266,10.880171914520265L72.00553189697266,28.453631914520265L72.87453189697266,28.453631914520265ZM77.82783189697265,11.354421914520263C80.69563189697266,11.354421914520263,82.63633189697265,13.725651914520263,82.63633189697265,17.203431914520266C82.63633189697265,20.681231914520264,80.69563189697266,23.105131914520264,77.82783189697265,23.105131914520264C74.84423189697266,23.105131914520264,72.84553189697266,20.681231914520264,72.84553189697266,17.203431914520266C72.84553189697266,13.725651914520263,74.84423189697266,11.354421914520263,77.82783189697265,11.354421914520263ZM96.16393189697266,19.890831914520263L95.26593189697266,19.890831914520263C95.00523189697265,20.628531914520263,94.91833189697266,20.94473191452026,94.59973189697266,21.339931914520264C93.81753189697265,22.420131914520265,92.28233189697266,23.105131914520264,90.54433189697266,23.105131914520264C88.60353189697265,23.105131914520264,87.12623189697266,22.235731914520265,86.34413189697266,20.733931914520262C85.90963189697266,19.917231914520265,85.70683189697266,19.100431914520264,85.61993189697266,17.361531914520263L96.42463189697266,17.361531914520263C96.39563189697266,15.490931914520264,96.22183189697266,14.516061914520265,95.64253189697266,13.383141914520264C94.71553189697266,11.512501914520264,93.00653189697266,10.537661914520264,90.77603189697265,10.537661914520264C86.95243189697266,10.537661914520264,84.66403189697266,13.172361914520263,84.66403189697266,17.387831914520262C84.66403189697266,19.047731914520263,85.06953189697265,20.575831914520265,85.73583189697266,21.603431914520264C86.69173189697266,23.052431914520263,88.54563189697265,23.921931914520265,90.66023189697265,23.921931914520265C93.58583189697265,23.921931914520265,95.78733189697266,22.262031914520264,96.16393189697266,19.890831914520263ZM95.38183189697266,16.544731914520263L85.61993189697266,16.544731914520263C85.82273189697266,13.251401914520264,87.61863189697266,11.354421914520263,90.71813189697266,11.354421914520263C92.07953189697265,11.354421914520263,93.38303189697265,11.907711914520263,94.16513189697265,12.829851914520264C94.97623189697265,13.751991914520264,95.29493189697266,14.674141914520265,95.38183189697266,16.544731914520263ZM98.07573189697266,19.83813191452026L97.11983189697266,19.83813191452026C97.32253189697266,22.393831914520263,99.20543189697266,23.974631914520263,102.33383189697265,23.974631914520263C105.37533189697265,23.974631914520263,107.43203189697266,22.525531914520265,107.43203189697266,20.338731914520263C107.43203189697266,19.258531914520262,106.93953189697265,18.389031914520263,105.98363189697265,17.78313191452026C105.28843189697265,17.361531914520263,104.70913189697265,17.177131914520263,102.65243189697266,16.702831914520264C100.56683189697266,16.20223191452026,100.13233189697266,16.096831914520266,99.49513189697265,15.728031914520264C98.82883189697266,15.306431914520264,98.48123189697266,14.726831914520263,98.48123189697266,13.989121914520263C98.48123189697266,12.513691914520264,100.04543189697266,11.328071914520264,102.21793189697266,11.328071914520264C104.50633189697265,11.328071914520264,105.78093189697265,12.329261914520263,106.04163189697266,14.357981914520265L107.08443189697266,14.357981914520265C106.93953189697265,13.330441914520264,106.70783189697266,12.750811914520263,106.24433189697265,12.144831914520264C105.40433189697265,11.117301914520263,103.95603189697266,10.511321914520263,102.21793189697266,10.511321914520263C99.46613189697266,10.511321914520263,97.43843189697266,11.986751914520264,97.43843189697266,14.068161914520264C97.43843189697266,15.095691914520264,97.90193189697266,15.886131914520263,98.79993189697265,16.439431914520263C99.46613189697266,16.834631914520266,100.04543189697266,17.019031914520262,102.27593189697265,17.519631914520264C104.24563189697265,18.020231914520263,104.79603189697266,18.178331914520264,105.43333189697265,18.547131914520264C106.12853189697265,18.968731914520262,106.47613189697265,19.574631914520264,106.47613189697265,20.338731914520263C106.47613189697265,22.024931914520263,104.88293189697265,23.078831914520265,102.44973189697265,23.078831914520265C99.78473189697266,23.078831914520265,98.30743189697266,21.945931914520262,98.07573189697266,19.83813191452026ZM109.89523189697266,23.542531914520264L113.66733189697266,6.189789914520263L118.83943189697266,6.189789914520263L119.04203189697266,5.257731914520264L107.88513189697267,5.257731914520264L107.68243189697266,6.189789914520263L112.85453189697266,6.189789914520263L109.08253189697265,23.542531914520264L109.89523189697266,23.542531914520264ZM115.57523189697265,10.329231914520264L112.70293189697266,23.542531914520264L113.44183189697266,23.542531914520264L115.07463189697266,16.031231914520262C115.73013189697265,13.015751914520264,117.50613189697266,10.850081914520263,119.35333189697266,10.850081914520263C119.52573189697266,10.850081914520263,119.59963189697265,10.850081914520263,119.76613189697265,10.877501914520263L119.95673189697266,10.000261914520264L119.51343189697266,10.000261914520264C117.98643189697266,10.000261914520264,116.74353189697266,10.959741914520263,115.75983189697266,12.878681914520264L116.31403189697265,10.329231914520264L115.57523189697265,10.329231914520264ZM126.82803189697266,23.597331914520264L127.00683189697266,22.774931914520263C126.71803189697266,22.857231914520263,126.60083189697265,22.829831914520263,126.42843189697265,22.829831914520263C125.81273189697265,22.829831914520263,125.61763189697265,22.254131914520265,125.86203189697265,21.130131914520263L127.46503189697266,13.755911914520263C127.67353189697266,12.796441914520264,127.66283189697266,12.165931914520264,127.48643189697266,11.617661914520264C127.10993189697265,10.630771914520263,125.94163189697265,10.000261914520264,124.36533189697266,10.000261914520264C121.77933189697265,10.000261914520264,119.73433189697266,11.590251914520262,119.08163189697265,14.139701914520264L119.89433189697266,14.139701914520264C120.44573189697266,12.056281914520262,121.98863189697266,10.850081914520263,124.13133189697265,10.850081914520263C126.17563189697266,10.850081914520263,127.13133189697265,11.891791914520264,126.72613189697266,13.755911914520263L126.61293189697265,14.276771914520264C126.46393189697265,14.962111914520264,126.22593189697265,15.263631914520264,125.71033189697266,15.482931914520263C125.17013189697266,15.702231914520263,125.02903189697265,15.784531914520263,122.89473189697266,16.086031914520262C121.05583189697266,16.387631914520263,120.08503189697265,16.661731914520264,119.18443189697265,17.292231914520265C118.16753189697266,18.005031914520263,117.51563189697265,18.96443191452026,117.25343189697266,20.170631914520264C116.77073189697266,22.391131914520265,117.93933189697266,23.926331914520265,120.18063189697266,23.926331914520265C121.43673189697266,23.926331914520265,122.77543189697266,23.432831914520264,123.87143189697265,22.583031914520262C124.42873189697265,22.171831914520265,124.59363189697265,21.979931914520265,125.14773189697266,21.130131914520263C124.76713189697266,22.994231914520263,125.03693189697266,23.679631914520265,126.19443189697266,23.679631914520265C126.39153189697265,23.679631914520265,126.51463189697266,23.679631914520265,126.82803189697266,23.597331914520264ZM126.23153189697265,16.031231914520262L125.49263189697265,19.430531914520266C125.33173189697266,20.170631914520264,124.72233189697266,21.047931914520262,123.90833189697265,21.733231914520264C122.86163189697265,22.583031914520262,121.62143189697265,23.076531914520263,120.36533189697266,23.076531914520263C118.59203189697266,23.076531914520263,117.67883189697265,21.952531914520264,118.04233189697266,20.280331914520264C118.47133189697266,18.306531914520264,119.89273189697266,17.319631914520265,122.91893189697265,16.881031914520264L123.50323189697265,16.798831914520264L124.08763189697265,16.716531914520264L124.62263189697265,16.634331914520263L125.05923189697266,16.552131914520263C125.60623189697266,16.415031914520263,125.76593189697266,16.360231914520263,126.23153189697265,16.031231914520262ZM139.65643189697266,5.257731914520264L137.92833189697265,13.207641914520263C137.66693189697264,11.124221914520263,136.43953189697265,9.972851914520263,134.46923189697264,9.972851914520263C131.43983189697266,9.972851914520263,128.89823189697267,12.714201914520263,127.99243189697266,16.881031914520264C127.06283189697265,21.157531914520263,128.38803189697268,23.898931914520265,131.44203189697265,23.898931914520265C133.41233189697266,23.898931914520265,135.14033189697267,22.747531914520263,136.30743189697267,20.66413191452026L135.68173189697265,23.542531914520264L136.42063189697265,23.542531914520264L140.39533189697266,5.257731914520264L139.65643189697266,5.257731914520264ZM134.21063189697264,10.822671914520264C136.79663189697266,10.822671914520264,137.93503189697265,13.289881914520263,137.14253189697266,16.935831914520264C136.34993189697266,20.581831914520265,134.13893189697265,23.049131914520263,131.55283189697266,23.049131914520263C129.11463189697264,23.049131914520263,128.00073189697264,20.581831914520265,128.79333189697266,16.935831914520264C129.58583189697265,13.289881914520263,131.77233189697267,10.822671914520264,134.21063189697264,10.822671914520264ZM148.36213189697264,19.704631914520263L147.59913189697266,19.704631914520263C147.21013189697265,20.472231914520265,147.06513189697267,20.801231914520265,146.70513189697266,21.212431914520266C145.79513189697266,22.336331914520265,144.33523189697266,23.049131914520263,142.85753189697266,23.049131914520263C141.20743189697265,23.049131914520263,140.14793189697264,22.144431914520265,139.82263189697267,20.581831914520265C139.63793189697265,19.732031914520263,139.65033189697266,18.88223191452026,139.96973189697266,17.072931914520264L149.15613189697265,17.072931914520264C149.55513189697265,15.126591914520263,149.62713189697266,14.112291914520263,149.39113189697264,12.933511914520263C149.02613189697266,10.987151914520265,147.79313189697265,9.972851914520263,145.89713189697267,9.972851914520263C142.64603189697266,9.972851914520263,140.10443189697264,12.714201914520263,139.15093189697265,17.10033191452026C138.77553189697267,18.82743191452026,138.77473189697264,20.417431914520265,139.10883189697267,21.486531914520263C139.59383189697266,22.994231914520263,140.97343189697267,23.898931914520265,142.77133189697264,23.898931914520265C145.25913189697266,23.898931914520265,147.50613189697265,22.171831914520265,148.36213189697264,19.704631914520263ZM148.45413189697265,16.223131914520266L140.15443189697265,16.223131914520266C141.07173189697266,12.796441914520264,143.02773189697265,10.822671914520264,145.66313189697266,10.822671914520264C146.82013189697267,10.822671914520264,147.80413189697265,11.398351914520264,148.26013189697267,12.357831914520265C148.74113189697266,13.317301914520264,148.80313189697267,14.276771914520264,148.45413189697265,16.223131914520266Z" fill="#072722" fill-opacity="1"/></g><g><path d="M38.3015,10.2421C37.9688,7.65189,37.1516,5.11219,35.6459,2.79029C34.0728,0.36402,31.8273,-0.658406,30.0093,0.440018C29.1699,0.946423,28.5803,1.9128,28.0305,2.78622C27.5286,3.58068,27.2701,4.5598,26.8332,5.40975C25.0727,8.83827,21.575,9.82279,17.139699999999998,8.95191C12.7045,8.08104,11.71507,5.95006,9.609079999999999,4.46019C7.63949,3.12767,5.3269,2.05413,3.5482,3.46542C2.0780591,4.80305,1.1447180000000001,9.43749,3.15042,15.1131C5.15611,20.7886,8.822790000000001,23.8382,11.02629,24.2231C13.2151,24.6053,13.8228,23.7361,14.5126,22.7496L14.5265,22.7298C15.359,21.0257,16.6618,17.9133,17.98,16.3582C19.2983,14.8032,19.9195,14.0469,21.8144,13.5506C23.7093,13.0543,24.5711,13.215,26.4824,13.8106C28.3938,14.4061,31.1998,16.2499,32.1289,17.1509C35.2954,20.2235,38.0488,18.2157,38.363,15.5629C38.5574,13.8265,38.5367,12.0388,38.3015,10.2421ZM27.931,29.9761C31.086,29.6974,32.8196,27.0632,31.6612,23.6774C30.5027,20.2915,26.4522,16.154,23.2972,16.4327C20.1422,16.7114,19.0775,21.3007,20.2359,24.6865C21.3944,28.0724,24.776,30.2548,27.931,29.9761Z" fill-rule="evenodd" fill="#072722" fill-opacity="1"/></g></g></g></svg>