<svg xmlns="http://www.w3.org/2000/svg" xmlns:xlink="http://www.w3.org/1999/xlink" fill="none" version="1.1" width="16" height="16" viewBox="0 0 16 16"><defs><clipPath id="master_svg0_3868_30153"><rect x="0" y="0" width="16" height="16" rx="0"/></clipPath></defs><g clip-path="url(#master_svg0_3868_30153)"><g><g><path d="M7.59911,1.500401474L12.1153,1.500401474C12.1585,1.499317601,12.2017,1.500428471,12.2447,1.50372981C12.3525,1.5125898,12.4379,1.5996575,12.4458,1.708857C12.4505,1.758081,12.4491,1.80783,12.4491,1.8575789999999999Q12.4491,6.01724,12.4491,10.17725C12.4491,10.31214,12.4491,10.31248,12.5816,10.31248C13.1815,10.31248,13.7813,10.30723,14.3812,10.31424C14.851,10.31984,15.1955,10.54389,15.3978,10.97324C15.6966,11.6072,15.3099,12.3921,14.6331,12.5309C14.5373,12.5505,14.4398,12.5605,14.3421,12.5608Q13.4511,12.565,12.5598,12.5608C12.4733,12.5608,12.4422,12.582,12.4475,12.6729C12.4681,13.0264,12.4166,13.3675,12.2323,13.6746C11.9056,14.2194,11.4258,14.4991,10.7935,14.4995Q7.60136,14.5005,4.40853,14.4995Q3.15853,14.4995,1.90853,14.4995C1.445832,14.4995,1.069829,14.3192,0.783803,13.9522C0.602564,13.7252,0.50341337,13.4423,0.50279475,13.1505C0.49829595,12.0325,0.500372282,10.91438,0.50123751,9.79625C0.50123751,9.62563,0.608692,9.52929,0.795396,9.52894Q1.58703,9.52736,2.37849,9.52894C2.46795,9.52894,2.55741,9.52701,2.64669,9.52894C2.70466,9.53051,2.73321,9.50984,2.72767,9.44783C2.7249,9.41875,2.72767,9.38932,2.72767,9.360240000000001Q2.72767,5.61154,2.72767,1.86371C2.72767,1.816939,2.72629,1.769992,2.73027,1.723571C2.74242,1.615421,2.82312,1.5280994,2.92891,1.50863463C2.97749,1.50214476,3.02649,1.499508983,3.07547,1.500751895Q5.33686,1.500051053,7.59911,1.500401474ZM2.93774,14.0018L9.89372,14.0018C10.19947,14.0018,10.5052,14.0065,10.8108,14.0006C11.2624,13.9915,11.6043,13.7886,11.8269,13.3875C11.948,13.1675,11.9622,12.9271,11.9568,12.6828C11.954,12.5626,11.9568,12.5624,11.8376,12.5624Q10.07264,12.5624,8.307680000000001,12.56C8.22508,12.5586,8.14369,12.5396,8.0689,12.5041C7.61797,12.2909,7.16912,12.0723,6.722,11.8519C6.65403,11.8208,6.5925,11.7769,6.54066,11.7226C6.34915,11.5073,6.41553,11.1662,6.67337,11.04051C7.09194,10.83328,7.51657,10.63761,7.93324,10.4274C8.10108,10.34227,8.26875,10.30951,8.455110000000001,10.31038C9.57689,10.31564,10.6987,10.31301,11.8205,10.31284C11.9559,10.31284,11.9561,10.31284,11.9561,10.18023Q11.9561,6.1558,11.9561,2.1313750000000002C11.9561,1.996843,11.9561,1.996843,11.8217,1.996843L3.35233,1.996843C3.2229,1.996843,3.22255,1.996843,3.22255,2.1261200000000002L3.22255,4.66613Q3.22255,8.86591,3.22255,13.0653C3.22255,13.2899,3.19002,13.5076,3.09502,13.7117C3.05298,13.8025,2.99968,13.8886,2.93774,14.0018ZM2.72819,11.6413C2.72819,11.13965,2.72646,10.63778,2.72992,10.13609C2.72992,10.05078,2.70345,10.0273,2.62143,10.02783C2.1170299999999997,10.03116,1.61281,10.02941,1.108416,10.02958C0.997155,10.02958,0.996982,10.02958,0.996982,10.14642Q0.996982,11.6079,0.998366,13.0695C0.998799,13.1655,1.009533,13.2611,1.030378,13.3547C1.131949,13.8123,1.66611,14.1123,2.1050899999999997,13.9627C2.50221,13.8273,2.72802,13.5113,2.72802,13.0855Q2.7294,12.3634,2.72819,11.6413ZM11.1041,10.80998C10.27353,10.80998,9.444,10.8112,8.61395,10.80805C8.52744,10.80805,8.49923,10.82995,8.50044,10.91999Q8.50737,11.4364,8.50044,11.9535C8.4994,12.0369,8.52242,12.0626,8.60669,12.0625Q11.1098,12.059,13.6129,12.0625C13.6994,12.0625,13.7183,12.0332,13.7167,11.9519C13.7129,11.6135,13.7152,11.27506,13.7152,10.93593C13.7152,10.80998,13.7152,10.8098,13.5941,10.8098L11.1041,10.80998ZM14.2127,11.43429L14.2127,11.8458C14.2127,12.0707,14.2127,12.0707,14.4357,12.0574C14.8337,12.0337,15.1074,11.5995,14.9622,11.22409C14.8537,10.94381,14.6302,10.80577,14.3,10.8084C14.2294,10.8084,14.2108,10.83415,14.2118,10.90037C14.2147,11.07834,14.2128,11.25632,14.2127,11.43429ZM8.000720000000001,10.95905L7.01581,11.43447L8.000720000000001,11.9092L8.000720000000001,10.95905Z" fill="#99A0AF" fill-opacity="1"/><path d="M3.07788,1.300752Q2.98979,1.298724,2.90243,1.310396L2.89755,1.311047L2.89272,1.311937Q2.56857,1.37158,2.53152,1.701232L2.53122,1.703858L2.531,1.70649Q2.52705,1.752521,2.52756,1.83613Q2.52767,1.854729,2.52767,1.86371L2.52767,9.328199999999999Q2.49919,9.32828,2.46652,9.32851Q2.4075800000000003,9.32894,2.37849,9.32894L0.795021,9.32894Q0.301237,9.32986,0.301238,9.79609L0.30119399999999996,9.85148L0.30279500000000004,13.1509Q0.30389900000000003,13.6717,0.626055,14.0752Q1.112622,14.6995,1.90853,14.6995L10.7936,14.6995Q11.8512,14.6989,12.4038,13.7775Q12.663,13.3456,12.6511,12.7612Q13.4975,12.7648,14.3427,12.7608Q14.5096,12.7603,14.6733,12.7268Q15.2772,12.603,15.5608,12.026Q15.8437,11.45027,15.5787,10.888Q15.2189,10.12422,14.3835,10.11425Q13.9621,10.10933,13.121,10.11154Q12.8239,10.11232,12.6491,10.11246L12.6491,1.8575789999999999L12.6492,1.830825Q12.6496,1.742034,12.6451,1.692274Q12.6181,1.333738,12.26,1.304315Q12.1865,1.298682,12.1129,1.300401L7.59909,1.300401L3.07788,1.300752ZM3.07294,1.700752L3.07549,1.700752L7.59912,1.700401L12.1178,1.700402L12.1203,1.700338Q12.175,1.6989670000000001,12.2294,1.703145Q12.245,1.704422,12.2463,1.723327L12.2465,1.725542L12.2467,1.727752Q12.2496,1.757869,12.2492,1.8287499999999999Q12.2491,1.8477700000000001,12.2491,1.8575789999999999L12.2491,10.17725Q12.2491,10.51249,12.5816,10.51249Q12.7619,10.51249,13.1221,10.51154Q13.9602,10.50933,14.3789,10.51422Q14.9637,10.5212,15.2168,11.05848Q15.3998,11.44664,15.2018,11.8495Q15.0047,12.2505,14.593,12.335Q14.4685,12.3604,14.3414,12.3608Q13.4514,12.365,12.5608,12.3608Q12.4143,12.3608,12.3331,12.4363Q12.2384,12.5243,12.2479,12.6847Q12.2784,13.209,12.0608,13.5717Q11.6246,14.299,10.7934,14.2995L1.90853,14.2995Q1.308007,14.2995,0.94155,13.8293Q0.7036020000000001,13.5312,0.702794,13.15L0.701194,9.85129L0.701237,9.79641Q0.701237,9.72911,0.795771,9.72894L2.37849,9.72894Q2.40904,9.72894,2.4694000000000003,9.7285Q2.58572,9.72767,2.64238,9.72889Q2.76796,9.73231,2.84714,9.65874Q2.93963,9.5728,2.92688,9.43004Q2.92612,9.422080000000001,2.92696,9.39569Q2.92767,9.37308,2.92767,9.360240000000001L2.92767,1.86371Q2.92767,1.853498,2.92755,1.833704Q2.92718,1.771975,2.92928,1.743788Q2.93365,1.712903,2.9617,1.706059Q3.01584,1.699303,3.0704,1.700688L3.07294,1.700752ZM3.02255,13.0653Q3.02255,13.3935,2.91371,13.6273L2.91356,13.6276Q2.88856,13.6816,2.82112,13.8007Q2.78307,13.8678,2.7623,13.9058L2.60025,14.2018L9.89372,14.2018Q9.98706,14.2018,10.1742,14.2027Q10.6005,14.2047,10.8147,14.2005Q11.6135,14.1844,12.0018,13.4845Q12.1678,13.1828,12.1568,12.6784L12.1566,12.6702Q12.1496,12.3624,11.8376,12.3624L8.30782,12.36Q8.228950000000001,12.3587,8.1547,12.3234Q7.57556,12.0496,6.81041,11.6725L6.80786,11.6713L6.80527,11.6701Q6.73893,11.6397,6.68784,11.5871Q6.64213,11.5345,6.63239,11.47168L8.20072,12.2276L8.20072,10.64043L6.63289,11.39722Q6.63374,11.39173,6.63483,11.38616Q6.65726,11.27086,6.76101,11.22028Q6.94542,11.12899,7.31565,10.95133Q7.78856,10.7244,8.02332,10.60596Q8.213989999999999,10.50925,8.454170000000001,10.51038L10.36928,10.5136L10.7749,10.5134L11.8206,10.51284Q12.1561,10.51284,12.1561,10.18023L12.1561,2.1313750000000002Q12.1561,1.9476689999999999,12.0808,1.872282Q12.0054,1.796843,11.8217,1.796843L3.35233,1.796843Q3.02255,1.796843,3.02255,2.1261200000000002L3.02255,13.0653ZM3.27634,13.7961L3.27649,13.7958Q3.42255,13.4818,3.42255,13.0653L3.42255,2.196843L11.7561,2.196843L11.7561,10.11287L10.7747,10.1134L10.36995,10.1136L8.456050000000001,10.11039Q8.11923,10.1088,7.84315,10.24884Q7.61193,10.36549,7.1426,10.5907Q6.77026,10.76937,6.58574,10.86073Q6.30272,10.99869,6.24219,11.30977Q6.18181,11.6201,6.39122,11.8556L6.39357,11.8582L6.39602,11.8608Q6.49992,11.9696,6.63594,12.0325Q7.40251,12.4103,7.9831,12.6847Q8.13578,12.7573,8.307549999999999,12.76L11.7574,12.7624Q11.7545,13.1041,11.652,13.2905Q11.3753,13.7892,10.8069,13.8006Q10.5975,13.8047,10.1761,13.8027Q9.9881,13.8018,9.89372,13.8018L3.27368,13.8018Q3.27505,13.7989,3.27634,13.7961ZM2.92802,13.0857L2.92802,13.0855L2.92876,12.3156L2.92819,11.6412L2.92776,10.8886L2.92992,10.13666Q2.92992,9.98843,2.84613,9.90664Q2.76444,9.82691,2.62015,9.82783L1.86384,9.82989L1.1084969999999998,9.82958Q0.7969820000000001,9.82958,0.7969820000000001,10.14642L0.798366,13.0696Q0.7991170000000001,13.2363,0.835159,13.3982Q0.930535,13.8278,1.342897,14.0606Q1.75517,14.2933,2.16961,14.1521Q2.92793,13.8935,2.92802,13.0857ZM2.52876,12.3152L2.52802,13.0853L2.52802,13.0855Q2.52802,13.6072,2.0405800000000003,13.7734Q1.79575,13.8569,1.53951,13.7122Q1.2823959999999999,13.5671,1.225596,13.3112Q1.198919,13.1914,1.198366,13.0694L1.197021,10.22962L1.86493,10.22989L2.52966,10.22808L2.52776,10.88883L2.52819,11.6415L2.52876,12.3152ZM13.8444,10.6872Q13.7702,10.6098,13.5941,10.6098L11.1041,10.60998L9.4453,10.60995L8.61441,10.60805Q8.4683,10.60805,8.386980000000001,10.68485Q8.298390000000001,10.76851,8.300460000000001,10.92268Q8.30735,11.43641,8.300460000000001,11.9508Q8.29866,12.0959,8.37727,12.1778Q8.45881,12.2628,8.6071,12.2625L10.5907,12.2608L13.6128,12.2625Q13.7667,12.2625,13.8482,12.1696Q13.9194,12.0885,13.9167,11.9481Q13.914,11.7043,13.9149,11.21171Q13.9152,11.02814,13.9152,10.93593Q13.9152,10.76102,13.8444,10.6872ZM14.081,10.69507Q14.0098,10.77349,14.0118,10.9035L14.0118,10.90367Q14.014,11.03283,14.013,11.29319Q14.0127,11.3871,14.0127,11.4341L14.0127,11.8458Q14.0127,12.1004,14.1029,12.186Q14.1937,12.2722,14.4476,12.257Q14.8484,12.2332,15.0718,11.8794Q15.294,11.5274,15.1488,11.15195Q14.9364,10.60333,14.2984,10.60841Q14.1597,10.6084,14.081,10.69507ZM13.5151,11.00981L11.1041,11.00998L9.4453,11.00995L8.70154,11.00825Q8.70626,11.43507,8.70157,11.8624L10.5903,11.8608L13.5159,11.8624Q13.5141,11.6208,13.5149,11.211Q13.5151,11.09062,13.5151,11.00981ZM14.413,11.01527Q14.4136,11.12925,14.413,11.2946Q14.4127,11.38811,14.4127,11.43449L14.4127,11.8458L14.4127,11.8584Q14.4181,11.8581,14.4238,11.8577Q14.6198,11.8461,14.7335,11.6659Q14.8483,11.48404,14.7757,11.29623Q14.6815,11.05295,14.413,11.01527ZM7.80072,11.5908L7.80072,11.27767L7.47616,11.43434L7.80072,11.5908Z" fill-rule="evenodd" fill="#99A0AF" fill-opacity="1"/></g><g><path d="M5.008265632748535,6.4767163832092285Q5.008265632748535,5.684236383209228,5.008265632748535,4.8915763832092285C5.008265632748535,4.703792383209229,5.058272829748535,4.636350383209228,5.232344929748535,4.579244383209229Q6.184038929748535,4.266209383209229,7.135718929748535,3.9522993832092284C7.272418929748535,3.9072796832092287,7.408078929748536,3.8582313832092283,7.546678929748535,3.8202185832092286C7.602068929748535,3.8041152532092286,7.660748929748535,3.8035705132092286,7.716428929748535,3.8186420832092285C8.275848929748536,3.9976693832092285,8.833878929748535,4.181600383209228,9.392258929748536,4.364306383209229C9.617208929748536,4.4378793832092285,9.840938929748535,4.512152383209228,10.065368929748535,4.585374383209229C10.191678929748536,4.626715383209229,10.249818929748535,4.699762383209229,10.258988929748536,4.8334163832092285C10.260898929748535,4.862496383209228,10.260028929748536,4.891756383209229,10.260028929748536,4.921006383209228Q10.260028929748536,6.4800463832092285,10.260028929748536,8.039086383209227C10.260028929748536,8.273116383209228,10.219018929748536,8.328646383209229,10.001688929748536,8.39976638320923C9.284638929748535,8.634156383209229,8.565508929748535,8.863456383209229,7.852088929748535,9.10799638320923C7.665038929748535,9.172106383209229,7.504628929748535,9.130066383209229,7.332978929748535,9.072956383209227Q6.309138929748535,8.735046383209228,5.282178929748535,8.401876383209228C5.168667929748535,8.364736383209229,5.051351029748536,8.331806383209228,5.020031829748535,8.191666383209228C5.011900789748535,8.151796383209229,5.008071835048535,8.111146383209228,5.008611511748535,8.070446383209228Q5.007573347748536,7.273936383209229,5.008265632748535,6.4767163832092285ZM7.848968929748535,8.565836383209229C7.883578929748535,8.559706383209228,7.899668929748535,8.558656383209229,7.915068929748536,8.553746383209228Q8.145208929748534,8.47999638320923,8.374818929748535,8.404676383209228C8.812428929748535,8.261036383209229,9.249508929748536,8.115816383209228,9.687808929748535,7.974626383209229C9.748718929748534,7.955006383209229,9.769828929748535,7.9236463832092285,9.768788929748535,7.861816383209229C9.766018929748535,7.707136383209228,9.768788929748535,7.552456383209229,9.768788929748535,7.397776383209228Q9.768788929748535,6.338686383209229,9.768788929748535,5.279406383209229C9.768788929748535,5.213016383209228,9.757538929748534,5.175886383209228,9.682268929748535,5.201806383209228Q9.461648929748534,5.276956383209228,9.240168929748535,5.349656383209228C8.813808929748536,5.489796383209228,8.387798929748534,5.631506383209229,7.959708929748535,5.767266383209229C7.877868929748535,5.793366383209229,7.846718929748535,5.829626383209229,7.847238929748535,5.919666383209229C7.8506989297485354,6.762956383209229,7.849318929748535,7.606236383209229,7.849318929748535,8.449516383209229L7.848968929748535,8.565836383209229ZM5.505005929748535,5.214296383209229C5.5011989297485355,5.252486383209229,5.505047929748535,5.2433263832092285,5.505047929748535,5.265926383209228Q5.505047929748535,6.5664063832092285,5.504009929748535,7.8668963832092285C5.504009929748535,7.924696383209229,5.521312929748535,7.952906383209228,5.579625929748535,7.971996383209229C6.133338929748535,8.15014638320923,6.685658929748535,8.332326383209228,7.238328929748535,8.513636383209228C7.359458929748535,8.553216383209229,7.359458929748535,8.553396383209229,7.359458929748535,8.421316383209229C7.359458929748535,7.583466383209228,7.357898929748535,6.745606383209228,7.361708929748535,5.907756383209229C7.361708929748535,5.811756383209229,7.330558929748535,5.7690163832092285,7.242488929748536,5.7408163832092285C6.762658929748535,5.587186383209229,6.284568929748535,5.427956383209229,5.806300929748535,5.2715263832092285C5.710265929748536,5.240176383209229,5.614750929748535,5.213196383209229,5.512141929748535,5.182016383209229L5.505005929748535,5.214296383209229ZM6.080558929748535,4.838846383209228C6.5913589297485355,5.006486383209229,7.082078929748535,5.169406383209228,7.574708929748535,5.326186383209229C7.624718929748536,5.342126383209228,7.689608929748536,5.331266383209228,7.742038929748535,5.314966383209228C8.005908929748536,5.2328163832092285,8.267888929748535,5.144876383209229,8.530548929748536,5.058866383209228L9.196218929748536,4.840606383209229C9.166268929748536,4.823266383209228,9.135298929748535,4.807826383209228,9.103468929748535,4.794356383209228Q8.401638929748536,4.564529383209228,7.698778929748535,4.337855383209228C7.661118929748535,4.326558383209228,7.621028929748535,4.326558383209228,7.583358929748535,4.337855383209228Q6.879978929748535,4.562602383209229,6.178318929748535,4.792429383209228C6.144608929748535,4.805800383209228,6.111678929748535,4.821126383209228,6.079698929748535,4.838326383209228L6.080558929748535,4.838846383209228Z" fill="#99A0AF" fill-opacity="1"/><path d="M4.808610929748535,8.06924638320923L4.8082659297485355,6.476766383209228L4.8082659297485355,4.8915763832092285Q4.8082659297485355,4.507880383209229,5.170002929748535,4.389209383209229L7.073148929748536,3.7623387832092283Q7.108918929748535,3.7505598832092284,7.181008929748535,3.7262002832092285Q7.386558929748535,3.6567473832092285,7.493778929748535,3.6273413832092287Q7.629408929748536,3.5878883832092283,7.768688929748535,3.6255903832092287L7.773508929748536,3.6268963832092287L9.114028929748535,4.062724383209228L9.454518929748534,4.174241383209228L9.952098929748535,4.337823383209228L10.127618929748536,4.395308383209229Q10.436338929748535,4.496346383209229,10.458528929748535,4.819726383209229Q10.460488929748536,4.849736383209229,10.460128929748535,4.901516383209229Q10.460028929748535,4.914726383209229,10.460028929748535,4.921006383209228L10.460028929748535,8.039086383209227Q10.460028929748535,8.460216383209229,10.063898929748536,8.589856383209229Q9.882788929748536,8.649046383209228,9.521498929748535,8.76641638320923Q8.449238929748535,9.114726383209229,7.916938929748535,9.29718638320923Q7.649228929748535,9.388946383209229,7.269848929748536,9.262736383209228L5.219977929748535,8.59195638320923Q5.2157739297485355,8.590576383209228,5.207117929748535,8.587766383209228Q4.879825929748535,8.481286383209229,4.824846929748535,8.235286383209228Q4.807683929748535,8.151306383209228,4.808610929748535,8.06924638320923ZM5.215216929748535,8.148046383209229Q5.208066929748536,8.112816383209228,5.2085939297485355,8.07309638320923L5.208611929748535,8.070396383209228L5.208265929748535,6.476676383209229L5.208265929748535,4.8915763832092285Q5.208265929748535,4.797631383209229,5.294687929748535,4.769279383209229L7.198288929748536,4.142259383209229Q7.235498929748536,4.1300053832092285,7.309058929748535,4.105152383209228Q7.503578929748535,4.039424383209228,7.599578929748535,4.013096383209229Q7.631288929748536,4.003900383209229,7.660538929748535,4.0107753832092286L8.990358929748535,4.443124383209229L9.330008929748535,4.5543713832092285L9.827168929748535,4.717815383209229L10.003118929748535,4.7754403832092285Q10.055728929748536,4.792658383209228,10.059458929748535,4.847106383209228Q10.060398929748535,4.8614063832092285,10.060138929748536,4.898696383209229Q10.060028929748535,4.913356383209228,10.060028929748535,4.921006383209228L10.060028929748535,8.039086383209227Q10.060028929748535,8.170246383209228,9.939488929748535,8.209686383209228Q9.759078929748535,8.26865638320923,9.397918929748535,8.385986383209229Q8.322578929748534,8.735296383209228,7.787238929748535,8.918796383209228Q7.647318929748535,8.966756383209228,7.3961189297485355,8.883186383209228L5.344379929748535,8.21178638320923Q5.339571929748535,8.210216383209229,5.330858929748535,8.20738638320923Q5.220451929748535,8.171466383209228,5.215216929748535,8.148046383209229ZM5.677021929748535,4.827806383209229L5.975893929748535,5.009276383209229L5.9965409297485355,5.021816383209228L7.512698929748535,5.516326383209228Q7.638728929748535,5.5565063832092285,7.801378929748536,5.505966383209229Q8.000538929748535,5.443956383209229,8.394958929748535,5.313986383209229Q8.526808929748535,5.270546383209228,8.592788929748535,5.248936383209228L9.683228929748534,4.891396383209228L9.296398929748534,4.667504383209229Q9.240658929748534,4.635242383209229,9.181418929748535,4.610170383209229L9.173478929748535,4.6068123832092285L7.758418929748535,4.146942383209229L7.756238929748536,4.146286383209229Q7.641068929748535,4.111744383209229,7.525908929748535,4.146286383209229L6.110608929748535,4.604130383209228L6.104598929748535,4.606513383209228Q6.043188929748535,4.630864383209229,5.984957929748536,4.662185383209229L5.677021929748535,4.827806383209229ZM6.705118929748535,4.832186383209228L7.640818929748535,4.529423383209228L7.641038929748535,4.529387383209229L8.576388929748536,4.833356383209228L8.468318929748534,4.8687963832092285Q8.402068929748536,4.8904963832092285,8.269768929748535,4.9340863832092285Q7.878478929748535,5.063016383209229,7.682688929748535,5.123976383209229Q7.640258929748535,5.1371663832092285,7.636728929748536,5.136036383209229L6.705118929748535,4.832186383209228ZM5.363499929748535,4.927816383209229L5.316854929748535,5.138846383209229L5.307165929748535,5.182686383209228L5.305991929748535,5.1944563832092285Q5.301692929748535,5.237586383209228,5.305046929748535,5.269886383209228L5.3046569297485355,6.862126383209228L5.304009929748535,7.866766383209229Q5.304009929748535,8.092196383209227,5.517387929748535,8.162066383209229L6.384408929748535,8.443906383209228L7.175978929748535,8.703666383209228L7.176678929748535,8.703896383209228Q7.367328929748535,8.766206383209228,7.466048929748535,8.690536383209228Q7.559458929748535,8.618936383209228,7.559458929748535,8.421316383209229L7.559148929748535,7.361426383209229L7.561708929748535,5.908106383209228Q7.561708929748535,5.633026383209229,7.303478929748535,5.550346383209229L7.164928929748536,5.505816383209229L5.868519929748535,5.081456383209229Q5.801646929748535,5.059616383209228,5.669136929748535,5.020246383209228Q5.603732929748535,5.000816383209228,5.570291929748535,4.990656383209228L5.363499929748535,4.927816383209229ZM7.649318929748535,8.44892638320923L7.649318929748535,8.449476383209229L7.648258929748535,8.80450638320923L7.883858929748535,8.762766383209229Q7.894088929748535,8.760956383209228,7.910418929748535,8.758446383209229Q7.951058929748536,8.752186383209228,7.975778929748535,8.744316383209227L8.436508929748534,8.594926383209229L9.750058929748535,8.16468638320923Q9.972698929748535,8.092976383209228,9.968758929748535,7.858456383209228Q9.966958929748536,7.757516383209229,9.968168929748536,7.553646383209228Q9.968788929748534,7.4499463832092285,9.968788929748534,7.397776383209228L9.968788929748534,5.279406383209229Q9.968788929748534,5.149986383209228,9.905988929748535,5.076276383209229Q9.798578929748535,4.950216383209229,9.617138929748535,5.012716383209229Q9.398198929748535,5.0872863832092285,9.177798929748535,5.159626383209229L7.897698929748535,5.577126383209229Q7.645728929748535,5.657476383209229,7.647248929748535,5.920826383209229L7.6495889297485355,7.219546383209229L7.649418929748535,7.993066383209229L7.649318929748535,8.44892638320923ZM5.705002929748535,5.4491263832092285L5.704656929748535,6.8622263832092285L5.704050929748535,7.802146383209228L6.508068929748536,8.063506383209228L7.159418929748535,8.277246383209228L7.159148929748535,7.361536383209229L7.161678929748535,5.924916383209228L7.042548929748535,5.886636383209229L5.7440819297485355,5.4616063832092285Q5.727066929748535,5.4560463832092285,5.705002929748535,5.4491263832092285ZM8.049348929748536,8.299956383209228L8.313138929748535,8.21442638320923L9.568048929748535,7.803396383209229Q9.567258929748535,7.705606383209228,9.568178929748536,7.551266383209228Q9.568788929748536,7.448746383209229,9.568788929748536,7.397776383209228L9.568788929748536,5.451306383209229Q9.435708929748536,5.4959763832092285,9.302538929748536,5.5396863832092285L8.047288929748536,5.949076383209229L8.049578929748535,7.218826383209228L8.049418929748535,7.993156383209229L8.049348929748536,8.299956383209228Z" fill-rule="evenodd" fill="#99A0AF" fill-opacity="1"/></g></g></g></svg>