<svg xmlns="http://www.w3.org/2000/svg" xmlns:xlink="http://www.w3.org/1999/xlink" fill="none" version="1.1" width="20" height="20" viewBox="0 0 20 20"><g><g></g><g><g><path d="M15,7Q15,7.19651,14.98074,7.39207Q14.96148,7.58763,14.92314,7.78036Q14.8848,7.97309,14.82776,8.16114Q14.77072,8.34918,14.69552,8.53073Q14.62032,8.71228,14.52768,8.88559Q14.43505,9.05889,14.32588,9.22228Q14.2167,9.385670000000001,14.09204,9.537569999999999Q13.96738,9.68948,13.82843,9.82843Q13.68948,9.96738,13.537569999999999,10.09204Q13.385670000000001,10.2167,13.22228,10.32588Q13.05889,10.43505,12.88559,10.52768Q12.71228,10.62032,12.53073,10.69552Q12.34918,10.77072,12.16114,10.82776Q11.97309,10.8848,11.78036,10.92314Q11.58763,10.96148,11.39207,10.98074Q11.19651,11,11,11Q10.80349,11,10.60793,10.98074Q10.41237,10.96148,10.21964,10.92314Q10.02691,10.8848,9.83886,10.82776Q9.65082,10.77072,9.46927,10.69552Q9.28772,10.62032,9.11441,10.52768Q8.94111,10.43505,8.77772,10.32588Q8.61433,10.2167,8.46243,10.09204Q8.31052,9.96738,8.17157,9.82843Q8.03262,9.68948,7.907958,9.537569999999999Q7.783295,9.385670000000001,7.6741209999999995,9.22228Q7.564948,9.05889,7.472315,8.88559Q7.379682,8.71228,7.304482,8.53073Q7.229282,8.34918,7.172239,8.16114Q7.115196,7.97309,7.0768589,7.78036Q7.0385222,7.58763,7.0192611,7.39207Q7,7.19651,7,7Q7,6.80349,7.0192611,6.60793Q7.0385222,6.41237,7.0768589,6.21964Q7.115196,6.02691,7.172239,5.83886Q7.229282,5.6508199999999995,7.304482,5.46927Q7.379682,5.28772,7.472315,5.1144099999999995Q7.564948,4.94111,7.6741209999999995,4.77772Q7.783295,4.61433,7.907958,4.4624299999999995Q8.03262,4.31052,8.17157,4.17157Q8.31052,4.03262,8.46243,3.907958Q8.61433,3.783295,8.77772,3.674121Q8.94111,3.5649480000000002,9.11441,3.472315Q9.28772,3.379682,9.46927,3.304482Q9.65082,3.229282,9.83886,3.172239Q10.02691,3.115196,10.21964,3.0768589Q10.41237,3.0385222,10.60793,3.0192611Q10.80349,3,11,3Q11.19651,3,11.39207,3.0192611Q11.58763,3.0385222,11.78036,3.0768589Q11.97309,3.115196,12.16114,3.172239Q12.34918,3.229282,12.53073,3.304482Q12.71228,3.379682,12.88559,3.472315Q13.05889,3.5649480000000002,13.22228,3.674121Q13.385670000000001,3.783295,13.537569999999999,3.907958Q13.68948,4.03262,13.82843,4.17157Q13.96738,4.31052,14.09204,4.4624299999999995Q14.2167,4.61433,14.32588,4.77772Q14.43505,4.94111,14.52768,5.1144099999999995Q14.62032,5.28772,14.69552,5.46927Q14.77072,5.6508199999999995,14.82776,5.83886Q14.8848,6.02691,14.92314,6.21964Q14.96148,6.41237,14.98074,6.60793Q15,6.80349,15,7Z" fill="#C0C4CC" fill-opacity="1"/></g><g><path d="M3,17.33333L3,17.83333L18,17.83333L18,17.33333C18,15.4665,18,14.53308,17.636699999999998,13.82004C17.3171,13.19283,16.8072,12.682875,16.18,12.363292C15.4669,12,14.5335,12,12.66667,12L8.33333,12C6.4665,12,5.53308,12,4.8200400000000005,12.363292C4.19283,12.682875,3.682887,13.19283,3.363312,13.82004C3,14.53308,3,15.4665,3,17.33333Z" fill="#C0C4CC" fill-opacity="1"/></g></g></g></svg>