<svg xmlns="http://www.w3.org/2000/svg" xmlns:xlink="http://www.w3.org/1999/xlink" fill="none" version="1.1" width="24" height="24" viewBox="0 0 24 24"><defs><mask id="master_svg0_4136_58016" style="mask-type:alpha" maskUnits="objectBoundingBox"><g><path d="M0,0L24,0L24,24L0,24L0,0Z" fill-rule="evenodd" fill="#FFFFFF" fill-opacity="1"/></g></mask></defs><g mask="url(#master_svg0_4136_58016)"><g><g transform="matrix(0.9680438041687012,-0.25078120827674866,0.25078120827674866,0.9680438041687012,-0.7576406271616207,0.35139684402042803)"><path d="M1.313604,2.467197603057861L2.60019,3.059427703057861Q4.21221,3.801458603057861,4.2002500000000005,5.576018603057861L4.19117,6.922528603057861L4.11071,18.85504860305786Q4.11022,18.92864860305786,4.09544,19.00064860305786Q4.08067,19.07274860305786,4.05218,19.140548603057862Q4.02369,19.20834860305786,3.98257,19.26934860305786Q3.94145,19.33024860305786,3.88927,19.38214860305786Q3.83709,19.43394860305786,3.77583,19.47464860305786Q3.71457,19.515348603057863,3.64657,19.54344860305786Q3.57858,19.57144860305786,3.50643,19.585748603057862Q3.43428,19.60004860305786,3.36073,19.60004860305786Q3.28686,19.60004860305786,3.21441,19.585648603057862Q3.14196,19.57114860305786,3.07372,19.542948603057862Q3.00547,19.51464860305786,2.94405,19.47364860305786Q2.88263,19.43254860305786,2.8304,19.38034860305786Q2.7781700000000003,19.328148603057862,2.73713,19.26664860305786Q2.69609,19.20524860305786,2.66782,19.137048603057863Q2.63955,19.068748603057863,2.62514,18.99634860305786Q2.61073,18.923848603057863,2.61073,18.85004860305786L2.61075,18.844948603057862L2.61075,18.844948603057862L2.6912000000000003,6.912418603057861L2.7002800000000002,5.565908603057862Q2.70572,4.759288603057861,1.972982,4.421998603057862L0.686396,3.8297716030578615Q0.5887020000000001,3.7848026030578614,0.507582,3.7141916030578614Q0.426462,3.6435806030578615,0.36845300000000003,3.5530196030578614Q0.31044400000000005,3.4624586030578612,0.28022199999999997,3.3592446030578613Q0.25,3.2560316030578615,0.25,3.1484847068578614Q0.25,3.0746162030578614,0.26441099999999995,3.0021666030578613Q0.278822,2.9297176030578616,0.30709,2.8614726030578614Q0.33535899999999996,2.793226603057861,0.376398,2.731806603057861Q0.41743699999999995,2.6703876030578613,0.46967000000000003,2.618154603057861Q0.521903,2.5659216030578613,0.583322,2.5248826030578613Q0.6447419999999999,2.4838436030578612,0.712987,2.4555756030578615Q0.7812330000000001,2.427306603057861,0.853682,2.412895603057861Q0.9261315,2.3984846030578613,1,2.3984846030578613Q1.16433,2.3984846030578613,1.313604,2.467197603057861ZM6.81485,21.19924860305786L19.1187,21.19924860305786Q19.1926,21.19924860305786,19.265,21.213648603057862Q19.3375,21.22804860305786,19.4057,21.256348603057862Q19.4739,21.28464860305786,19.5354,21.32564860305786Q19.5968,21.36674860305786,19.649,21.41894860305786Q19.7013,21.471148603057863,19.7423,21.53254860305786Q19.7833,21.59404860305786,19.8116,21.66224860305786Q19.8399,21.730548603057862,19.8543,21.80294860305786Q19.8687,21.875348603057862,19.8687,21.94924860305786Q19.8687,22.023148603057862,19.8543,22.09554860305786Q19.8399,22.168048603057862,19.8116,22.236248603057863Q19.7833,22.30454860305786,19.7423,22.365948603057863Q19.7013,22.42734860305786,19.649,22.47954860305786Q19.5968,22.53184860305786,19.5354,22.57284860305786Q19.4739,22.61394860305786,19.4057,22.642148603057862Q19.3375,22.67044860305786,19.265,22.684848603057862Q19.1926,22.69924860305786,19.1187,22.69924860305786L6.81485,22.69924860305786Q6.74098,22.69924860305786,6.66853,22.684848603057862Q6.59608,22.67044860305786,6.52783,22.642148603057862Q6.45959,22.61394860305786,6.39817,22.57284860305786Q6.33675,22.53184860305786,6.28452,22.47954860305786Q6.23228,22.42734860305786,6.19124,22.365948603057863Q6.15021,22.30454860305786,6.12194,22.236248603057863Q6.09367,22.168048603057862,6.07926,22.09554860305786Q6.06485,22.023148603057862,6.06485,21.94924860305786Q6.06485,21.875348603057862,6.07926,21.80294860305786Q6.09367,21.730548603057862,6.12194,21.66224860305786Q6.15021,21.59404860305786,6.19125,21.53254860305786Q6.23228,21.471148603057863,6.28452,21.41894860305786Q6.33675,21.36674860305786,6.39817,21.32564860305786Q6.45959,21.28464860305786,6.52783,21.256348603057862Q6.59608,21.22804860305786,6.66853,21.213648603057862Q6.74098,21.19924860305786,6.81485,21.19924860305786Z" fill-rule="evenodd" fill="#D1D4DC" fill-opacity="1"/></g><g transform="matrix(0.9659258127212524,-0.258819043636322,0.258819043636322,0.9659258127212524,-1.0918807929396905,2.54640699193277)"><path d="M8.375,12.89358297805786L8.375,7.420032978057861Q8.375,6.280945978057861,9.1804563,5.475489278057862Q9.985913,4.670032978057861,11.125,4.670032978057861L16.74369,4.670032978057861Q17.88278,4.670032978057861,18.68824,5.475489278057862Q19.4937,6.280945978057861,19.4937,7.420032978057861L19.4937,12.89358297805786Q19.4937,14.03266297805786,18.68824,14.83812297805786Q17.88278,15.643532978057861,16.74369,15.643532978057861L11.125,15.643532978057861Q9.985914,15.643532978057861,9.1804563,14.83812297805786Q8.375,14.03266297805786,8.375,12.89358297805786ZM9.875,12.89358297805786Q9.875,13.411342978057862,10.24112,13.777462978057862Q10.60723,14.14358297805786,11.125,14.14358297805786L16.74369,14.14358297805786Q17.26146,14.14358297805786,17.62757,13.777462978057862Q17.99369,13.411342978057862,17.99369,12.89358297805786L17.99369,7.420032978057861Q17.99369,6.902262978057861,17.62757,6.536152978057862Q17.26146,6.170032978057861,16.74369,6.170032978057861L11.125,6.170032978057861Q10.60723,6.170032978057861,10.24112,6.536152978057862Q9.875,6.902262978057861,9.875,7.420032978057861L9.875,12.89358297805786Z" fill="#D1D4DC" fill-opacity="1"/></g><g><ellipse cx="8.5" cy="20.500027179718018" rx="2.5" ry="2.5" fill-opacity="0" stroke-opacity="1" stroke="#D1D4DC" fill="none" stroke-width="1.5" stroke-linecap="ROUND" stroke-linejoin="round"/></g><g transform="matrix(0.9504307508468628,-0.3109363317489624,0.31093630194664,0.9504307508468628,-0.5071414913582402,5.03779242319348)"><path d="M14.796875,4.109486103057861Q14.796875,4.035617603057862,14.811285999999999,3.9631681030578614Q14.825697,3.890719103057861,14.853965,3.8224731030578614Q14.882234,3.7542281030578613,14.923273,3.6928081030578612Q14.964312,3.6313891030578613,15.016545,3.579156103057861Q15.068778,3.5269231030578614,15.130197,3.4858841030578613Q15.191617,3.4448451030578613,15.259862,3.4165761030578614Q15.328108,3.3883081030578612,15.400557,3.3738971030578613Q15.4730065,3.3594861030578613,15.546875,3.3594861030578613Q15.6207435,3.3594861030578613,15.693193,3.3738971030578613Q15.765642,3.3883081030578612,15.833888,3.4165761030578614Q15.902133,3.4448451030578613,15.963553,3.4858841030578613Q16.024971999999998,3.5269231030578614,16.077205,3.579156103057861Q16.129438,3.6313891030578613,16.170476999999998,3.6928081030578612Q16.211516,3.7542281030578613,16.239785,3.8224731030578614Q16.268053,3.890719103057861,16.282464,3.9631681030578614Q16.296875,4.035617603057862,16.296875,4.109486103057861L16.296875,6.779416103057861Q16.296875,6.853286103057862,16.282464,6.9257361030578615Q16.268053,6.998186103057861,16.239785,7.066426103057861Q16.211516,7.134676103057862,16.170476999999998,7.196096103057862Q16.129438,7.257516103057862,16.077205,7.309746103057861Q16.024971999999998,7.361976103057861,15.963553,7.403016103057862Q15.902133,7.444056103057861,15.833888,7.472326103057862Q15.765642,7.500596103057861,15.693193,7.515006103057861Q15.6207435,7.529416103057861,15.546875,7.529416103057861Q15.4730065,7.529416103057861,15.400557,7.515006103057861Q15.328108,7.500596103057861,15.259862,7.472326103057862Q15.191617,7.444056103057861,15.130197,7.403016103057862Q15.068778,7.361976103057861,15.016545,7.309746103057861Q14.964312,7.257516103057862,14.923273,7.196096103057862Q14.882234,7.134676103057862,14.853965,7.066426103057861Q14.825697,6.998186103057861,14.811285999999999,6.9257361030578615Q14.796875,6.853286103057862,14.796875,6.779416103057861L14.796875,4.109486103057861Z" fill-rule="evenodd" fill="#D1D4DC" fill-opacity="1"/></g></g></g></svg>