<svg xmlns="http://www.w3.org/2000/svg" xmlns:xlink="http://www.w3.org/1999/xlink" fill="none" version="1.1" width="24" height="24" viewBox="0 0 24 24"><defs><mask id="master_svg0_448_03348/347_16375" style="mask-type:alpha" maskUnits="userSpaceOnUse"><g><path d="M0,0.000012874603271484375L24,0.000012874603271484375L24,24.00001287460327L0,24.00001287460327L0,0.000012874603271484375Z" fill-rule="evenodd" fill="#FFFFFF" fill-opacity="1"/></g></mask></defs><g mask="url(#master_svg0_448_03348/347_16375)"><g><g transform="matrix(0.9680438041687012,-0.25078120827674866,0.25078120827674866,0.9680438041687012,-0.7578588891224882,0.351423501925872)"><path d="M2.610745470046997,18.845818354034424L2.610745470046997,18.845818354034424L2.6107254700469973,18.850918354034423Q2.6107254700469973,18.866418354034423,2.611365470046997,18.881818354034422Q2.617145470046997,19.021618354034423,2.672885470046997,19.149818354034423Q2.7286154700469973,19.278118354034422,2.826835470046997,19.377618354034425Q2.931605470046997,19.483818354034423,3.069045470046997,19.541818354034422Q3.206485470046997,19.599818354034422,3.355665470046997,19.600818354034423L3.3607254700469973,19.600918354034423Q3.426985470046997,19.600918354034423,3.4922254700469972,19.589218354034426Q3.5564254700469973,19.577818354034424,3.617695470046997,19.555518354034422Q3.678965470046997,19.533118354034425,3.735465470046997,19.500518354034423Q3.791955470046997,19.468018354034424,3.841975470046997,19.426118354034426Q3.891995470046997,19.384318354034423,3.934045470046997,19.334418354034423Q3.9760954700469973,19.284518354034425,4.008905470046997,19.228218354034425Q4.041715470046997,19.171818354034425,4.064305470046997,19.110618354034422Q4.086885470046997,19.049518354034426,4.098575470046997,18.985318354034426Q4.110265470046997,18.921118354034423,4.110705470046997,18.855918354034422L4.191165470046997,6.923398354034424L4.2002454700469976,5.576888354034423Q4.205705470046997,4.7666383540344235,3.7709654700469972,4.082871354034424Q3.336225470046997,3.3991033540344238,2.600185470046997,3.0602974540344237L1.313599470046997,2.4680673540344236Q1.1643254700469972,2.3993543540344238,0.9999954955599971,2.3993543540344238Q0.9828154700469971,2.3993543540344238,0.965653570046997,2.4001413540344236Q0.862593470046997,2.404865354034424,0.7646374700469971,2.437240354034424Q0.666680470046997,2.4696153540344237,0.581103470046997,2.527237354034424Q0.49552747004699704,2.5848583540344237,0.4286864700469971,2.663446354034424Q0.3618464700469971,2.742034354034424,0.3187084700469971,2.835750354034424Q0.24999547004699707,2.9850243540344237,0.24999547004699707,3.149354457834424Q0.24999547004699707,3.166534454034424,0.25078247004699705,3.183696354034424Q0.2555064700469971,3.286756354034424,0.28788147004699705,3.384712354034424Q0.3202564700469971,3.482669354034424,0.37787847004699704,3.568246354034424Q0.4354994700469971,3.653822354034424,0.5140874700469971,3.720663354034424Q0.592675470046997,3.787503354034424,0.6863914700469971,3.830641354034424L1.972977470046997,4.422868354034424Q2.705715470046997,4.760158354034424,2.7002754700469973,5.566778354034424L2.6911954700469973,6.913288354034424L2.610745470046997,18.845818354034424ZM6.814845470046997,22.700118354034423L19.118695470046998,22.700118354034423Q19.192595470046996,22.700118354034423,19.264995470046998,22.685718354034424Q19.337495470046996,22.671318354034423,19.405695470046997,22.643018354034425Q19.473895470046998,22.614818354034423,19.535395470046996,22.573718354034423Q19.596795470047,22.532718354034422,19.648995470046998,22.480418354034423Q19.701295470046997,22.428218354034424,19.742295470046997,22.366818354034425Q19.783295470046998,22.305418354034423,19.811595470046996,22.237118354034425Q19.839895470046997,22.168918354034425,19.854295470046996,22.096418354034423Q19.868695470046998,22.024018354034425,19.868695470046998,21.950118354034423Q19.868695470046998,21.876218354034425,19.854295470046996,21.803818354034423Q19.839895470046997,21.731418354034425,19.811595470046996,21.663118354034424Q19.783295470046998,21.594918354034423,19.742295470046997,21.533418354034424Q19.701295470046997,21.472018354034425,19.648995470046998,21.419818354034422Q19.596795470047,21.367618354034423,19.535395470046996,21.326518354034423Q19.473895470046998,21.285518354034423,19.405695470046997,21.257218354034425Q19.337495470046996,21.228918354034423,19.264995470046998,21.214518354034425Q19.192595470046996,21.200118354034423,19.118695470046998,21.200118354034423L6.814845470046997,21.200118354034423Q6.7409754700469975,21.200118354034423,6.668525470046997,21.214518354034425Q6.596075470046997,21.228918354034423,6.527825470046997,21.257218354034425Q6.4595854700469975,21.285518354034423,6.398165470046997,21.326518354034423Q6.336745470046997,21.367618354034423,6.284515470046997,21.419818354034422Q6.232275470046997,21.472018354034425,6.191235470046997,21.533418354034424Q6.1502054700469975,21.594918354034423,6.1219354700469975,21.663118354034424Q6.093665470046997,21.731418354034425,6.079255470046997,21.803818354034423Q6.064845470046997,21.876218354034425,6.064845470046997,21.950118354034423Q6.064845470046997,22.024018354034425,6.079255470046997,22.096418354034423Q6.093665470046997,22.168918354034425,6.1219354700469975,22.237118354034425Q6.1502054700469975,22.305418354034423,6.191245470046997,22.366818354034425Q6.232275470046997,22.428218354034424,6.284515470046997,22.480418354034423Q6.336745470046997,22.532718354034422,6.398165470046997,22.573718354034423Q6.4595854700469975,22.614818354034423,6.527825470046997,22.643018354034425Q6.596075470046997,22.671318354034423,6.668525470046997,22.685718354034424Q6.7409754700469975,22.700118354034423,6.814845470046997,22.700118354034423Z" fill-rule="evenodd" fill="#2D2E33" fill-opacity="1"/></g><g transform="matrix(0.9659258127212524,-0.258819043636322,0.258819043636322,0.9659258127212524,-1.091811707970919,2.546718121194189)"><path d="M8.376216173171997,12.893476166534423L8.376216173171997,7.419926166534424Q8.376216173171997,6.280839166534424,9.181672473171997,5.475382466534424Q9.987129173171997,4.669926166534424,11.126216173171997,4.669926166534424L16.744906173171998,4.669926166534424Q17.883996173171997,4.669926166534424,18.689446173171998,5.475382466534424Q19.494916173171998,6.280840166534424,19.494916173171998,7.419926166534424L19.494916173171998,12.893476166534423Q19.494916173171998,14.032556166534423,18.689446173171998,14.838016166534423Q17.883996173171997,15.643426166534423,16.744906173171998,15.643426166534423L11.126216173171997,15.643426166534423Q9.987130173171996,15.643426166534423,9.181672473171997,14.838016166534423Q8.376216173171997,14.032556166534423,8.376216173171997,12.893476166534423ZM9.876216173171997,12.893476166534423Q9.876216173171997,13.411236166534424,10.242336173171998,13.777356166534425Q10.608446173171997,14.143476166534423,11.126216173171997,14.143476166534423L16.744906173171998,14.143476166534423Q17.262676173171997,14.143476166534423,17.628786173171996,13.777356166534425Q17.994906173171998,13.411236166534424,17.994906173171998,12.893476166534423L17.994906173171998,7.419926166534424Q17.994906173171998,6.902156166534423,17.628786173171996,6.536046166534424Q17.262676173171997,6.169926166534424,16.744906173171998,6.169926166534424L11.126216173171997,6.169926166534424Q10.608446173171997,6.169926166534424,10.242336173171998,6.536046166534424Q9.876216173171997,6.902156166534423,9.876216173171997,7.419926166534424L9.876216173171997,12.893476166534423Z" fill="#2D2E33" fill-opacity="1"/></g><g><ellipse cx="8.499995470046997" cy="20.500027179718018" rx="2.5" ry="2.5" fill-opacity="0" stroke-opacity="1" stroke="#2D2E33" fill="none" stroke-width="1.5" stroke-linecap="ROUND" stroke-linejoin="round"/></g><g transform="matrix(0.9504307508468628,-0.3109363317489624,0.31093630194664,0.9504307508468628,-0.5070658037215168,5.037778912799041)"><path d="M14.796870470046997,4.109241962432861L14.796870470046997,6.779171962432861Q14.796870470046997,6.853041962432862,14.811281470046996,6.9254919624328615Q14.825692470046997,6.997941962432861,14.853960470046998,7.066181962432861Q14.882229470046997,7.134431962432862,14.923268470046997,7.195851962432862Q14.964307470046997,7.257271962432862,15.016540470046998,7.309501962432861Q15.068773470046997,7.361731962432861,15.130192470046998,7.402771962432862Q15.191612470046998,7.443811962432861,15.259857470046997,7.472081962432862Q15.328103470046997,7.500351962432861,15.400552470046996,7.514761962432861Q15.473001970046997,7.529171962432861,15.546870470046997,7.529171962432861Q15.620738970046997,7.529171962432861,15.693188470046998,7.514761962432861Q15.765637470046997,7.500351962432861,15.833883470046997,7.472081962432862Q15.902128470046996,7.443811962432861,15.963548470046996,7.402771962432862Q16.024967470046995,7.361731962432861,16.077200470046996,7.309501962432861Q16.129433470046997,7.257271962432862,16.170472470046995,7.195851962432862Q16.211511470046997,7.134431962432862,16.239780470047,7.066181962432861Q16.268048470046995,6.997941962432861,16.282459470046998,6.9254919624328615Q16.296870470046997,6.853041962432862,16.296870470046997,6.779171962432861L16.296870470046997,4.109241962432861Q16.296870470046997,4.035373462432862,16.282459470046998,3.9629239624328614Q16.268048470046995,3.890474962432861,16.239780470047,3.8222289624328614Q16.211511470046997,3.7539839624328613,16.170472470046995,3.6925639624328612Q16.129433470046997,3.6311449624328613,16.077200470046996,3.578911962432861Q16.024967470046995,3.5266789624328614,15.963548470046996,3.4856399624328613Q15.902128470046996,3.4446009624328613,15.833883470046997,3.4163319624328614Q15.765637470046997,3.3880639624328612,15.693188470046998,3.3736529624328613Q15.620738970046997,3.3592419624328613,15.546870470046997,3.3592419624328613Q15.473001970046997,3.3592419624328613,15.400552470046996,3.3736529624328613Q15.328103470046997,3.3880639624328612,15.259857470046997,3.4163319624328614Q15.191612470046998,3.4446009624328613,15.130192470046998,3.4856399624328613Q15.068773470046997,3.5266789624328614,15.016540470046998,3.578911962432861Q14.964307470046997,3.6311449624328613,14.923268470046997,3.6925639624328612Q14.882229470046997,3.7539839624328613,14.853960470046998,3.8222289624328614Q14.825692470046997,3.890474962432861,14.811281470046996,3.9629239624328614Q14.796870470046997,4.035373462432862,14.796870470046997,4.109241962432861Z" fill-rule="evenodd" fill="#2D2E33" fill-opacity="1"/></g></g></g></svg>