<svg xmlns="http://www.w3.org/2000/svg" xmlns:xlink="http://www.w3.org/1999/xlink" fill="none" version="1.1" width="24" height="24" viewBox="0 0 24 24"><defs><mask id="master_svg0_4136_54000/448_07819/448_03836" style="mask-type:alpha" maskUnits="objectBoundingBox"><g><path d="M0,0.000012874603271484375L24,0.000012874603271484375L24,24.00001287460327L0,24.00001287460327L0,0.000012874603271484375Z" fill-rule="evenodd" fill="#FFFFFF" fill-opacity="1"/></g></mask></defs><g mask="url(#master_svg0_4136_54000/448_07819/448_03836)"><g><g transform="matrix(0.9680438041687012,-0.25078120827674866,0.25078120827674866,0.9680438041687012,-0.757637358631726,0.35142249431624606)"><path d="M1.3137062815704346,2.467197603057861L2.6002922815704346,3.059427703057861Q4.212312281570434,3.801458603057861,4.200352281570435,5.576018603057861L4.191272281570434,6.922528603057861L4.110812281570435,18.85504860305786Q4.1103222815704346,18.92864860305786,4.0955422815704345,19.00064860305786Q4.080772281570434,19.07274860305786,4.0522822815704345,19.140548603057862Q4.023792281570435,19.20834860305786,3.9826722815704345,19.26934860305786Q3.9415522815704347,19.33024860305786,3.8893722815704344,19.38214860305786Q3.8371922815704345,19.43394860305786,3.7759322815704346,19.47464860305786Q3.7146722815704347,19.515348603057863,3.6466722815704347,19.54344860305786Q3.5786822815704347,19.57144860305786,3.5065322815704345,19.585748603057862Q3.434382281570435,19.60004860305786,3.360832281570435,19.60004860305786Q3.2869622815704345,19.60004860305786,3.2145122815704346,19.585648603057862Q3.1420622815704347,19.57114860305786,3.0738222815704344,19.542948603057862Q3.0055722815704344,19.51464860305786,2.9441522815704344,19.47364860305786Q2.8827322815704344,19.43254860305786,2.8305022815704346,19.38034860305786Q2.778272281570435,19.328148603057862,2.7372322815704346,19.26664860305786Q2.6961922815704344,19.20524860305786,2.6679222815704344,19.137048603057863Q2.6396522815704344,19.068748603057863,2.6252422815704346,18.99634860305786Q2.610832281570435,18.923848603057863,2.610832281570435,18.85004860305786L2.6108522815704345,18.844948603057862L2.6108522815704345,18.844948603057862L2.691302281570435,6.912418603057861L2.700382281570435,5.565908603057862Q2.7058222815704345,4.759288603057861,1.9730842815704346,4.421998603057862L0.6864982815704346,3.8297716030578615Q0.5888042815704346,3.7848026030578614,0.5076842815704345,3.7141916030578614Q0.4265642815704346,3.6435806030578615,0.3685552815704346,3.5530196030578614Q0.3105462815704346,3.4624586030578612,0.28032428157043454,3.3592446030578613Q0.25010228157043457,3.2560316030578615,0.25010228157043457,3.1484847068578614Q0.25010228157043457,3.0746162030578614,0.2645132815704345,3.0021666030578613Q0.2789242815704346,2.9297176030578616,0.30719228157043454,2.8614726030578614Q0.33546128157043453,2.793226603057861,0.3765002815704346,2.731806603057861Q0.4175392815704345,2.6703876030578613,0.4697722815704346,2.618154603057861Q0.5220052815704346,2.5659216030578613,0.5834242815704346,2.5248826030578613Q0.6448442815704345,2.4838436030578612,0.7130892815704346,2.4555756030578615Q0.7813352815704346,2.427306603057861,0.8537842815704346,2.412895603057861Q0.9262337815704346,2.3984846030578613,1.0001022815704346,2.3984846030578613Q1.1644322815704347,2.3984846030578613,1.3137062815704346,2.467197603057861ZM6.814952281570434,21.19924860305786L19.118802281570435,21.19924860305786Q19.192702281570433,21.19924860305786,19.265102281570435,21.213648603057862Q19.337602281570433,21.22804860305786,19.405802281570434,21.256348603057862Q19.474002281570435,21.28464860305786,19.535502281570434,21.32564860305786Q19.596902281570436,21.36674860305786,19.649102281570435,21.41894860305786Q19.701402281570434,21.471148603057863,19.742402281570435,21.53254860305786Q19.783402281570435,21.59404860305786,19.811702281570433,21.66224860305786Q19.840002281570435,21.730548603057862,19.854402281570433,21.80294860305786Q19.868802281570435,21.875348603057862,19.868802281570435,21.94924860305786Q19.868802281570435,22.023148603057862,19.854402281570433,22.09554860305786Q19.840002281570435,22.168048603057862,19.811702281570433,22.236248603057863Q19.783402281570435,22.30454860305786,19.742402281570435,22.365948603057863Q19.701402281570434,22.42734860305786,19.649102281570435,22.47954860305786Q19.596902281570436,22.53184860305786,19.535502281570434,22.57284860305786Q19.474002281570435,22.61394860305786,19.405802281570434,22.642148603057862Q19.337602281570433,22.67044860305786,19.265102281570435,22.684848603057862Q19.192702281570433,22.69924860305786,19.118802281570435,22.69924860305786L6.814952281570434,22.69924860305786Q6.741082281570435,22.69924860305786,6.668632281570434,22.684848603057862Q6.596182281570434,22.67044860305786,6.527932281570434,22.642148603057862Q6.459692281570435,22.61394860305786,6.398272281570435,22.57284860305786Q6.336852281570435,22.53184860305786,6.284622281570434,22.47954860305786Q6.232382281570435,22.42734860305786,6.191342281570434,22.365948603057863Q6.150312281570435,22.30454860305786,6.122042281570435,22.236248603057863Q6.093772281570435,22.168048603057862,6.079362281570434,22.09554860305786Q6.064952281570434,22.023148603057862,6.064952281570434,21.94924860305786Q6.064952281570434,21.875348603057862,6.079362281570434,21.80294860305786Q6.093772281570435,21.730548603057862,6.122042281570435,21.66224860305786Q6.150312281570435,21.59404860305786,6.191352281570435,21.53254860305786Q6.232382281570435,21.471148603057863,6.284622281570434,21.41894860305786Q6.336852281570435,21.36674860305786,6.398272281570435,21.32564860305786Q6.459692281570435,21.28464860305786,6.527932281570434,21.256348603057862Q6.596182281570434,21.22804860305786,6.668632281570434,21.213648603057862Q6.741082281570435,21.19924860305786,6.814952281570434,21.19924860305786Z" fill-rule="evenodd" fill="#111A1E" fill-opacity="1"/></g><g transform="matrix(0.9659258127212524,-0.258819043636322,0.258819043636322,0.9659258127212524,-1.0918107566312756,2.5469389702956136)"><path d="M8.377055406570435,12.89358297805786L8.377055406570435,7.420032978057861Q8.377055406570435,6.280945978057861,9.182511706570434,5.475489278057862Q9.987968406570435,4.670032978057861,11.127055406570435,4.670032978057861L16.745745406570435,4.670032978057861Q17.884835406570435,4.670032978057861,18.690295406570435,5.475489278057862Q19.495755406570435,6.280945978057861,19.495755406570435,7.420032978057861L19.495755406570435,12.89358297805786Q19.495755406570435,14.03266297805786,18.690295406570435,14.83812297805786Q17.884835406570435,15.643532978057861,16.745745406570435,15.643532978057861L11.127055406570435,15.643532978057861Q9.987969406570434,15.643532978057861,9.182511706570434,14.83812297805786Q8.377055406570435,14.03266297805786,8.377055406570435,12.89358297805786ZM9.877055406570435,12.89358297805786Q9.877055406570435,13.411342978057862,10.243175406570435,13.777462978057862Q10.609285406570434,14.14358297805786,11.127055406570435,14.14358297805786L16.745745406570435,14.14358297805786Q17.263515406570434,14.14358297805786,17.629625406570433,13.777462978057862Q17.995745406570435,13.411342978057862,17.995745406570435,12.89358297805786L17.995745406570435,7.420032978057861Q17.995745406570435,6.902262978057861,17.629625406570433,6.536152978057862Q17.263515406570434,6.170032978057861,16.745745406570435,6.170032978057861L11.127055406570435,6.170032978057861Q10.609285406570434,6.170032978057861,10.243175406570435,6.536152978057862Q9.877055406570435,6.902262978057861,9.877055406570435,7.420032978057861L9.877055406570435,12.89358297805786Z" fill="#111A1E" fill-opacity="1"/></g><g><ellipse cx="8.500102281570435" cy="20.500027179718018" rx="2.5" ry="2.5" fill-opacity="0" stroke-opacity="1" stroke="#111A1E" fill="none" stroke-width="1.5" stroke-linecap="ROUND" stroke-linejoin="round"/></g><g transform="matrix(0.9504307508468628,-0.3109363317489624,0.31093630194664,0.9504307508468628,-0.5071364213375915,5.037824226249796)"><path d="M14.796977281570435,4.109486103057861Q14.796977281570435,4.035617603057862,14.811388281570434,3.9631681030578614Q14.825799281570434,3.890719103057861,14.854067281570435,3.8224731030578614Q14.882336281570435,3.7542281030578613,14.923375281570435,3.6928081030578612Q14.964414281570434,3.6313891030578613,15.016647281570435,3.579156103057861Q15.068880281570435,3.5269231030578614,15.130299281570435,3.4858841030578613Q15.191719281570435,3.4448451030578613,15.259964281570435,3.4165761030578614Q15.328210281570435,3.3883081030578612,15.400659281570434,3.3738971030578613Q15.473108781570435,3.3594861030578613,15.546977281570435,3.3594861030578613Q15.620845781570434,3.3594861030578613,15.693295281570435,3.3738971030578613Q15.765744281570434,3.3883081030578612,15.833990281570435,3.4165761030578614Q15.902235281570434,3.4448451030578613,15.963655281570434,3.4858841030578613Q16.025074281570433,3.5269231030578614,16.077307281570434,3.579156103057861Q16.129540281570435,3.6313891030578613,16.170579281570433,3.6928081030578612Q16.211618281570434,3.7542281030578613,16.239887281570436,3.8224731030578614Q16.268155281570433,3.890719103057861,16.282566281570436,3.9631681030578614Q16.296977281570435,4.035617603057862,16.296977281570435,4.109486103057861L16.296977281570435,6.779416103057861Q16.296977281570435,6.853286103057862,16.282566281570436,6.9257361030578615Q16.268155281570433,6.998186103057861,16.239887281570436,7.066426103057861Q16.211618281570434,7.134676103057862,16.170579281570433,7.196096103057862Q16.129540281570435,7.257516103057862,16.077307281570434,7.309746103057861Q16.025074281570433,7.361976103057861,15.963655281570434,7.403016103057862Q15.902235281570434,7.444056103057861,15.833990281570435,7.472326103057862Q15.765744281570434,7.500596103057861,15.693295281570435,7.515006103057861Q15.620845781570434,7.529416103057861,15.546977281570435,7.529416103057861Q15.473108781570435,7.529416103057861,15.400659281570434,7.515006103057861Q15.328210281570435,7.500596103057861,15.259964281570435,7.472326103057862Q15.191719281570435,7.444056103057861,15.130299281570435,7.403016103057862Q15.068880281570435,7.361976103057861,15.016647281570435,7.309746103057861Q14.964414281570434,7.257516103057862,14.923375281570435,7.196096103057862Q14.882336281570435,7.134676103057862,14.854067281570435,7.066426103057861Q14.825799281570434,6.998186103057861,14.811388281570434,6.9257361030578615Q14.796977281570435,6.853286103057862,14.796977281570435,6.779416103057861L14.796977281570435,4.109486103057861Z" fill-rule="evenodd" fill="#111A1E" fill-opacity="1"/></g></g></g></svg>