<svg xmlns="http://www.w3.org/2000/svg" xmlns:xlink="http://www.w3.org/1999/xlink" fill="none" version="1.1" width="24" height="24" viewBox="0 0 24 24"><defs><clipPath id="master_svg0_347_14953/347_14927/347_10417"><rect x="0" y="0" width="24" height="24" rx="0"/></clipPath></defs><g clip-path="url(#master_svg0_347_14953/347_14927/347_10417)"><g><path d="M2.25,3.95L2.25,22Q2.25,22.1858,2.336711,22.3501Q2.37119,22.4154,2.417751,22.4727Q2.4643129999999998,22.5301,2.521167,22.5772Q2.578021,22.6244,2.642984,22.6596Q2.707946,22.6947,2.77852,22.7165Q2.849095,22.7384,2.9225683,22.746Q2.99604215,22.7536,3.069592,22.7468Q3.143142,22.7399,3.213941,22.7188Q3.284741,22.6978,3.350069,22.6633L7.5,20.473L11.64993,22.6633Q11.73086,22.706,11.81968,22.728Q11.90849,22.75,12,22.75Q12.0915,22.75,12.18032,22.728Q12.26914,22.706,12.35007,22.6633L16.5,20.473L20.6499,22.6633Q20.8142,22.75,21,22.75Q21.0739,22.75,21.1463,22.7356Q21.2188,22.7212,21.287,22.6929Q21.3553,22.6646,21.4167,22.6236Q21.4781,22.5826,21.5303,22.5303Q21.5826,22.4781,21.6236,22.4167Q21.6646,22.3553,21.6929,22.287Q21.7212,22.2188,21.7356,22.1463Q21.75,22.0739,21.75,22L21.75,3.95Q21.75,3.178138,21.0691,2.675048Q20.4939,2.25,19.7143,2.25L4.28571,2.25Q3.506116,2.25,2.9308676,2.675049Q2.25,3.178139,2.25,3.95ZM3.75,20.7561L7.14993,18.9617Q7.23085,18.919,7.31967,18.897Q7.40849,18.875,7.5,18.875Q7.5915,18.875,7.68032,18.897Q7.76914,18.919,7.85007,18.9617L12,21.152L16.149900000000002,18.9617Q16.2309,18.919,16.319699999999997,18.897Q16.4085,18.875,16.5,18.875Q16.5915,18.875,16.680300000000003,18.897Q16.7691,18.919,16.850099999999998,18.9617L20.25,20.7561L20.25,3.95L20.2481,3.952808Q20.2288,3.919202,20.1777,3.881448Q19.9998,3.75,19.7143,3.75L4.28571,3.75Q4.00017,3.75,3.822272,3.881448Q3.771175,3.919203,3.751939,3.952807L3.75,3.95L3.75,20.7561Z" fill-rule="evenodd" fill="#333333" fill-opacity="1"/></g><g><path d="M8,9.75L16,9.75Q16.07387,9.75,16.14632,9.735589000000001Q16.21877,9.721178,16.287010000000002,9.69291Q16.35526,9.664641,16.41668,9.623602Q16.478099999999998,9.582563,16.53033,9.53033Q16.58256,9.478097,16.6236,9.416678Q16.66464,9.355258,16.692909999999998,9.287013Q16.72118,9.218767,16.735590000000002,9.146318Q16.75,9.0738685,16.75,9Q16.75,8.9261315,16.735590000000002,8.853682Q16.72118,8.781233,16.692909999999998,8.712987Q16.66464,8.644742,16.6236,8.583322Q16.58256,8.521903,16.53033,8.46967Q16.478099999999998,8.417437,16.41668,8.376398Q16.35526,8.335359,16.287010000000002,8.30709Q16.21877,8.278822,16.14632,8.264410999999999Q16.07387,8.25,16,8.25L8,8.25Q7.9261315,8.25,7.853682,8.264410999999999Q7.781233,8.278822,7.712987,8.30709Q7.644742,8.335359,7.583322,8.376398Q7.521903,8.417437,7.46967,8.46967Q7.417437,8.521903,7.376398,8.583322Q7.335359,8.644742,7.30709,8.712987Q7.278822,8.781233,7.264411,8.853682Q7.25,8.9261315,7.25,9Q7.25,9.0738685,7.264411,9.146318Q7.278822,9.218767,7.30709,9.287013Q7.335359,9.355258,7.376398,9.416678Q7.417437,9.478097,7.46967,9.53033Q7.521903,9.582563,7.583322,9.623602Q7.644742,9.664641,7.712987,9.69291Q7.781233,9.721178,7.853682,9.735589000000001Q7.9261315,9.75,8,9.75Z" fill-rule="evenodd" fill="#333333" fill-opacity="1"/></g><g><path d="M8,14.75L16,14.75Q16.07387,14.75,16.14632,14.735589000000001Q16.21877,14.721178,16.287010000000002,14.69291Q16.35526,14.664641,16.41668,14.623602Q16.478099999999998,14.582563,16.53033,14.53033Q16.58256,14.478097,16.6236,14.416678Q16.66464,14.355258,16.692909999999998,14.287013Q16.72118,14.218767,16.735590000000002,14.146318Q16.75,14.0738685,16.75,14Q16.75,13.9261315,16.735590000000002,13.853682Q16.72118,13.781233,16.692909999999998,13.712987Q16.66464,13.644742,16.6236,13.583322Q16.58256,13.521903,16.53033,13.46967Q16.478099999999998,13.417437,16.41668,13.376398Q16.35526,13.335359,16.287010000000002,13.30709Q16.21877,13.278822,16.14632,13.264410999999999Q16.07387,13.25,16,13.25L8,13.25Q7.9261315,13.25,7.853682,13.264410999999999Q7.781233,13.278822,7.712987,13.30709Q7.644742,13.335359,7.583322,13.376398Q7.521903,13.417437,7.46967,13.46967Q7.417437,13.521903,7.376398,13.583322Q7.335359,13.644742,7.30709,13.712987Q7.278822,13.781233,7.264411,13.853682Q7.25,13.9261315,7.25,14Q7.25,14.0738685,7.264411,14.146318Q7.278822,14.218767,7.30709,14.287013Q7.335359,14.355258,7.376398,14.416678Q7.417437,14.478097,7.46967,14.53033Q7.521903,14.582563,7.583322,14.623602Q7.644742,14.664641,7.712987,14.69291Q7.781233,14.721178,7.853682,14.735589000000001Q7.9261315,14.75,8,14.75Z" fill-rule="evenodd" fill="#333333" fill-opacity="1"/></g></g></svg>