<svg xmlns="http://www.w3.org/2000/svg" xmlns:xlink="http://www.w3.org/1999/xlink" fill="none" version="1.1" width="20" height="20" viewBox="0 0 20 20"><defs><clipPath id="master_svg0_sa200_5191"><rect x="0" y="0" width="20" height="20" rx="0"/></clipPath></defs><g clip-path="url(#master_svg0_sa200_5191)"><g><path d="M1.50682203125,4.509159072265625C1.50682203125,4.799529072265625,1.62211403125,5.087609072265625,1.82165703125,5.293389072265625C2.02119903125,5.499159072265625,2.30055403125,5.6180490722656256,2.5821120312500003,5.6180490722656256C2.86366203125,5.6180490722656256,3.14301203125,5.499159072265625,3.34256203125,5.293389072265625C3.54206203125,5.087609072265625,3.65739203125,4.799529072265625,3.65739203125,4.509159072265625C3.65739203125,4.218797072265625,3.54210203125,3.930694072265625,3.34256203125,3.724960072265625C3.1430420312500003,3.519183072265625,2.86366203125,3.400299072265625,2.5821120312500003,3.400299072265625C2.30055503125,3.400299072265625,2.02119903125,3.519183072265625,1.82165703125,3.724960072265625C1.62433303125,3.930694072265625,1.50682203125,4.218797072265625,1.50682203125,4.509159072265625ZM1.37158203125,10.010179072265625C1.37158203125,10.300539072265625,1.48685303125,10.590909072265625,1.68641703125,10.796689072265625C1.88593803125,11.002459072265625,2.16531403125,11.121349072265625,2.44906203125,11.121349072265625C2.7306220312500002,11.121349072265625,3.0121920312499997,11.002459072265625,3.2117120312500003,10.796689072265625C3.41123203125,10.590909072265625,3.52655203125,10.302829072265624,3.52655203125,10.010179072265625C3.52655203125,9.719809072265626,3.41127203125,9.429449072265625,3.2117120312500003,9.223669072265626C3.0121920312499997,9.017899072265624,2.73283203125,8.899009072265624,2.44906203125,8.899009072265624C2.1675120312500002,8.899009072265624,1.88593803125,9.017899072265624,1.68641703125,9.223669072265626C1.48685303125,9.429429072265625,1.37158203125,9.717509072265624,1.37158203125,10.010179072265625ZM1.37158203125,15.536299072265624C1.37158203125,15.826699072265624,1.48685303125,16.116999072265624,1.68641703125,16.322799072265624C1.88593803125,16.528599072265624,2.16531403125,16.647499072265624,2.44906203125,16.647499072265624C2.7306220312500002,16.647499072265624,3.0121920312499997,16.528599072265624,3.2117120312500003,16.322799072265624C3.41123203125,16.116999072265624,3.52655203125,15.828999072265624,3.52655203125,15.536299072265624C3.52655203125,15.245899072265624,3.41127203125,14.955599072265626,3.2117120312500003,14.749799072265626C3.0121920312499997,14.543999072265626,2.73283203125,14.425099072265626,2.44906203125,14.425099072265626C2.1675120312500002,14.425099072265626,1.88593803125,14.543999072265626,1.68641703125,14.749799072265626C1.48685303125,14.957899072265626,1.37158203125,15.245899072265624,1.37158203125,15.536299072265624ZM18.60238203125,4.458869072265625C18.60238203125,5.044189072265625,18.18108203125,5.517439072265625,17.66008203125,5.517439072265625L6.49073203125,5.517439072265625C5.96974203125,5.517439072265625,5.54849203125,5.044159072265625,5.54849203125,4.458869072265625C5.54849203125,3.873555072265625,5.96974203125,3.400299072265625,6.49073203125,3.400299072265625L17.66008203125,3.400299072265625C18.18108203125,3.400278023565625,18.60238203125,3.873555072265625,18.60238203125,4.458869072265625ZM18.60238203125,9.959889072265625C18.60238203125,10.542899072265625,18.18108203125,11.018459072265625,17.66008203125,11.018459072265625L6.49073203125,11.018459072265625C5.96974203125,11.018459072265625,5.54849203125,10.545159072265626,5.54849203125,9.959869072265626C5.54849203125,9.374549072265625,5.96974203125,8.901269072265624,6.49073203125,8.901269072265624L17.66008203125,8.901269072265624C18.18108203125,8.898969072265626,18.60238203125,9.374549072265625,18.60238203125,9.959889072265625ZM18.60238203125,15.483699072265624C18.60238203125,16.068999072265626,18.18108203125,16.542299072265624,17.66008203125,16.542299072265624L6.49073203125,16.542299072265624C5.96974203125,16.542299072265624,5.54849203125,16.068999072265626,5.54849203125,15.483699072265624C5.54849203125,14.900699072265626,5.96974203125,14.427399072265626,6.49073203125,14.427399072265626L17.66008203125,14.427399072265626C18.18108203125,14.425099072265626,18.60238203125,14.900699072265626,18.60238203125,15.483699072265624Z" fill="#2D2E33" fill-opacity="1"/></g></g></svg>