<svg xmlns="http://www.w3.org/2000/svg" xmlns:xlink="http://www.w3.org/1999/xlink" fill="none" version="1.1" width="16" height="16" viewBox="0 0 16 16"><defs><clipPath id="master_svg0_621_25872/872_07590"><rect x="0" y="0" width="16" height="16" rx="0"/></clipPath></defs><g clip-path="url(#master_svg0_621_25872/872_07590)"><g><path d="M2,2.633333C2,2.283553,2.383743,2,2.8571429999999998,2L13.1429,2C13.6163,2,14,2.283553,14,2.633333L14,14.6667L11,13.0833L8,14.6667L5,13.0833L2,14.6667L2,2.633333Z" fill="#C0C4CC" fill-opacity="1"/><path d="M1.25,2.633333L1.25,14.6667Q1.25,14.8524,1.336711,15.0167Q1.37119,15.0821,1.417751,15.1394Q1.464313,15.1968,1.521167,15.2439Q1.5780210000000001,15.2911,1.642984,15.3262Q1.707946,15.3614,1.7785199999999999,15.3832Q1.849094,15.405,1.9225683,15.4127Q1.9960421,15.4203,2.069592,15.4134Q2.143142,15.4066,2.213941,15.3855Q2.284741,15.3644,2.350069,15.33L5,13.9314L7.64993,15.33Q7.73086,15.3727,7.81968,15.3947Q7.9085,15.4167,8,15.4167Q8.0915,15.4167,8.18032,15.3947Q8.26914,15.3727,8.350069999999999,15.33L11,13.9314L13.6499,15.33Q13.8142,15.4167,14,15.4167Q14.0739,15.4167,14.1463,15.4023Q14.2188,15.3878,14.287,15.3596Q14.3553,15.3313,14.4167,15.2903Q14.4781,15.2492,14.5303,15.197Q14.5826,15.1448,14.6236,15.0833Q14.6646,15.0219,14.6929,14.9537Q14.7212,14.8854,14.7356,14.813Q14.75,14.7405,14.75,14.6667L14.75,2.633333Q14.75,1.99264116,14.1947,1.582299Q13.7449,1.25,13.1429,1.25L2.8571429999999998,1.25Q2.255068,1.25,1.805344,1.582299Q1.25,1.99264131,1.25,2.633333ZM2.75,13.4228L4.6499299999999995,12.42Q4.73086,12.3773,4.81968,12.3553Q4.9085,12.3333,5,12.3333Q5.0915,12.3333,5.18032,12.3553Q5.26914,12.3773,5.3500700000000005,12.42L8,13.8186L10.64993,12.42Q10.73085,12.3773,10.81968,12.3553Q10.90849,12.3333,11,12.3333Q11.0915,12.3333,11.18032,12.3553Q11.26914,12.3773,11.35007,12.42L13.25,13.4228L13.25,2.763185Q13.2059,2.75,13.1429,2.75L2.8571429999999998,2.75Q2.794092,2.75,2.75,2.763184L2.75,13.4228Z" fill-rule="evenodd" fill="#C0C4CC" fill-opacity="1"/></g><g><path d="M5.333251953125,5.25L10.666581953125,5.25Q10.740451953125,5.25,10.812901953125,5.264411Q10.885351953125,5.278822,10.953601953125,5.30709Q11.021841953125,5.335359,11.083261953125,5.376398Q11.144681953125,5.417437,11.196911953125,5.46967Q11.249151953125,5.521903,11.290181953125,5.583322Q11.331221953124999,5.644742,11.359491953125,5.712987Q11.387761953125,5.781233,11.402171953125,5.853682Q11.416581953125,5.9261315,11.416581953125,6Q11.416581953125,6.0738685,11.402171953125,6.146318Q11.387761953125,6.218767,11.359491953125,6.287013Q11.331221953124999,6.355258,11.290181953125,6.416678Q11.249151953125,6.478097,11.196911953125,6.53033Q11.144681953125,6.582563,11.083261953125,6.623602Q11.021841953125,6.664641,10.953601953125,6.69291Q10.885351953125,6.721178,10.812901953125,6.735589Q10.740451953125,6.75,10.666581953125,6.75L5.333251953125,6.75Q5.259383453125,6.75,5.186933953125,6.735589Q5.114484953125,6.721178,5.046238953125,6.69291Q4.977993953125,6.664641,4.916573953125,6.623602Q4.855154953125,6.582563,4.802921953125,6.53033Q4.750688953125,6.478097,4.709649953125,6.416678Q4.668610953125,6.355258,4.640341953125,6.287013Q4.612073953125,6.218767,4.597662953125,6.146318Q4.583251953125,6.0738685,4.583251953125,6Q4.583251953125,5.9261315,4.597662953125,5.853682Q4.612073953125,5.781233,4.640341953125,5.712987Q4.668610953125,5.644742,4.709649953125,5.583322Q4.750688953125,5.521903,4.802921953125,5.46967Q4.855154953125,5.417437,4.916573953125,5.376398Q4.977993953125,5.335359,5.046238953125,5.30709Q5.114484953125,5.278822,5.186933953125,5.264411Q5.259383453125,5.25,5.333251953125,5.25Z" fill-rule="evenodd" fill="#FFFFFF" fill-opacity="1"/></g><g><path d="M5.333251953125,8.583335876464844L10.666581953125,8.583335876464844Q10.740451953125,8.583335876464844,10.812901953125,8.597746876464843Q10.885351953125,8.612157876464844,10.953601953125,8.640425876464844Q11.021841953125,8.668694876464844,11.083261953125,8.709733876464844Q11.144681953125,8.750772876464843,11.196911953125,8.803005876464844Q11.249151953125,8.855238876464844,11.290181953125,8.916657876464845Q11.331221953124999,8.978077876464845,11.359491953125,9.046322876464844Q11.387761953125,9.114568876464844,11.402171953125,9.187017876464843Q11.416581953125,9.259467376464844,11.416581953125,9.333335876464844Q11.416581953125,9.407204376464843,11.402171953125,9.479653876464845Q11.387761953125,9.552102876464843,11.359491953125,9.620348876464844Q11.331221953124999,9.688593876464843,11.290181953125,9.750013876464843Q11.249151953125,9.811432876464844,11.196911953125,9.863665876464843Q11.144681953125,9.915898876464844,11.083261953125,9.956937876464844Q11.021841953125,9.997976876464843,10.953601953125,10.026245876464843Q10.885351953125,10.054513876464844,10.812901953125,10.068924876464845Q10.740451953125,10.083335876464844,10.666581953125,10.083335876464844L5.333251953125,10.083335876464844Q5.259383453125,10.083335876464844,5.186933953125,10.068924876464845Q5.114484953125,10.054513876464844,5.046238953125,10.026245876464843Q4.977993953125,9.997976876464843,4.916573953125,9.956937876464844Q4.855154953125,9.915898876464844,4.802921953125,9.863665876464843Q4.750688953125,9.811432876464844,4.709649953125,9.750013876464843Q4.668610953125,9.688593876464843,4.640341953125,9.620348876464844Q4.612073953125,9.552102876464843,4.597662953125,9.479653876464845Q4.583251953125,9.407204376464843,4.583251953125,9.333335876464844Q4.583251953125,9.259467376464844,4.597662953125,9.187017876464843Q4.612073953125,9.114568876464844,4.640341953125,9.046322876464844Q4.668610953125,8.978077876464845,4.709649953125,8.916657876464845Q4.750688953125,8.855238876464844,4.802921953125,8.803005876464844Q4.855154953125,8.750772876464843,4.916573953125,8.709733876464844Q4.977993953125,8.668694876464844,5.046238953125,8.640425876464844Q5.114484953125,8.612157876464844,5.186933953125,8.597746876464843Q5.259383453125,8.583335876464844,5.333251953125,8.583335876464844Z" fill-rule="evenodd" fill="#FFFFFF" fill-opacity="1"/></g></g></svg>