<svg xmlns="http://www.w3.org/2000/svg" xmlns:xlink="http://www.w3.org/1999/xlink" fill="none" version="1.1" width="16" height="16" viewBox="0 0 16 16"><defs><clipPath id="master_svg0_599_06596"><rect x="0" y="0" width="16" height="16" rx="0"/></clipPath></defs><g clip-path="url(#master_svg0_599_06596)"><g><path d="M14.66661298828125,12.75Q14.74051298828125,12.75,14.81301298828125,12.7356Q14.88541298828125,12.7212,14.95361298828125,12.6929Q15.02191298828125,12.6646,15.08331298828125,12.6236Q15.14471298828125,12.5826,15.19701298828125,12.5303Q15.24921298828125,12.4781,15.29021298828125,12.4167Q15.33131298828125,12.3553,15.35951298828125,12.287Q15.38781298828125,12.2188,15.40221298828125,12.1463Q15.41661298828125,12.0739,15.41661298828125,12L15.41661298828125,2Q15.41661298828125,1.9261314999999999,15.40221298828125,1.853682Q15.38781298828125,1.781233,15.35951298828125,1.712987Q15.33131298828125,1.644742,15.29021298828125,1.583322Q15.24921298828125,1.521903,15.19701298828125,1.46967Q15.14471298828125,1.417437,15.08331298828125,1.376398Q15.02191298828125,1.335359,14.95361298828125,1.30709Q14.88541298828125,1.278822,14.81301298828125,1.264411Q14.74051298828125,1.25,14.66661298828125,1.25L1.33331298828125,1.25Q1.2594444882812499,1.25,1.18699498828125,1.264411Q1.11454598828125,1.278822,1.04629998828125,1.30709Q0.9780549882812499,1.335359,0.91663498828125,1.376398Q0.85521598828125,1.417437,0.80298298828125,1.46967Q0.75074998828125,1.521903,0.70971098828125,1.583322Q0.66867198828125,1.644742,0.64040298828125,1.712987Q0.61213498828125,1.781233,0.59772398828125,1.853682Q0.58331298828125,1.9261314999999999,0.58331298828125,2L0.58331298828125,12Q0.58331298828125,12.0739,0.59772398828125,12.1463Q0.61213498828125,12.2188,0.64040298828125,12.287Q0.66867198828125,12.3553,0.70971098828125,12.4167Q0.75074998828125,12.4781,0.80298298828125,12.5303Q0.85521598828125,12.5826,0.91663498828125,12.6236Q0.9780549882812499,12.6646,1.04629998828125,12.6929Q1.11454598828125,12.7212,1.18699498828125,12.7356Q1.2594444882812499,12.75,1.33331298828125,12.75L3.58331298828125,12.75L3.58331298828125,13.6667Q3.58331298828125,13.7405,3.59772298828125,13.813Q3.61213298828125,13.8854,3.64040298828125,13.9537Q3.66867298828125,14.0219,3.70971298828125,14.0833Q3.75075298828125,14.1448,3.80298298828125,14.197Q3.85521298828125,14.2492,3.91663298828125,14.2903Q3.97805298828125,14.3313,4.04630298828125,14.3596Q4.11454298828125,14.3878,4.186992988281251,14.4023Q4.259442988281251,14.4167,4.33331298828125,14.4167Q4.5103629882812495,14.4167,4.6687229882812495,14.3375L7.84369298828125,12.75L14.66661298828125,12.75ZM13.91661298828125,11.25L7.66664298828125,11.25Q7.48959298828125,11.25,7.33123298828125,11.32918L5.08331298828125,12.4531L5.08331298828125,12Q5.08331298828125,11.92613,5.06890298828125,11.85368Q5.05449298828125,11.78123,5.0262229882812495,11.71299Q4.99795298828125,11.64474,4.95691298828125,11.58332Q4.91587298828125,11.5219,4.86364298828125,11.46967Q4.8114129882812495,11.41744,4.7499929882812495,11.3764Q4.6885729882812495,11.33536,4.62032298828125,11.30709Q4.55208298828125,11.27882,4.479632988281249,11.26441Q4.407182988281249,11.25,4.33331298828125,11.25L2.08331298828125,11.25L2.08331298828125,2.75L13.91661298828125,2.75L13.91661298828125,11.25Z" fill-rule="evenodd" fill="#2D2E33" fill-opacity="1"/></g><g><path d="M3.91668701171875,6.5L3.91668701171875,7.5Q3.91668701171875,7.57387,3.93109801171875,7.64632Q3.94550901171875,7.71877,3.97377701171875,7.78701Q4.00204601171875,7.8552599999999995,4.04308501171875,7.9166799999999995Q4.08412401171875,7.9780999999999995,4.13635701171875,8.03033Q4.18859001171875,8.08256,4.25000901171875,8.1236Q4.31142901171875,8.16464,4.37967401171875,8.19291Q4.44792001171875,8.22118,4.52036901171875,8.23559Q4.59281851171875,8.25,4.66668701171875,8.25Q4.74055551171875,8.25,4.81300501171875,8.23559Q4.88545401171875,8.22118,4.95370001171875,8.19291Q5.02194501171875,8.16464,5.08336501171875,8.1236Q5.14478401171875,8.08256,5.19701701171875,8.03033Q5.24925001171875,7.9780999999999995,5.29028901171875,7.9166799999999995Q5.33132801171875,7.8552599999999995,5.35959701171875,7.78701Q5.38786501171875,7.71877,5.40227601171875,7.64632Q5.41668701171875,7.57387,5.41668701171875,7.5L5.41668701171875,6.5Q5.41668701171875,6.4261315,5.40227601171875,6.353682Q5.38786501171875,6.281233,5.35959701171875,6.212987Q5.33132801171875,6.144742,5.29028901171875,6.083322Q5.24925001171875,6.021903,5.19701701171875,5.96967Q5.14478401171875,5.917437,5.08336501171875,5.876398Q5.02194501171875,5.835359,4.95370001171875,5.80709Q4.88545401171875,5.778822,4.81300501171875,5.764411Q4.74055551171875,5.75,4.66668701171875,5.75Q4.59281851171875,5.75,4.52036901171875,5.764411Q4.44792001171875,5.778822,4.37967401171875,5.80709Q4.31142901171875,5.835359,4.25000901171875,5.876398Q4.18859001171875,5.917437,4.13635701171875,5.96967Q4.08412401171875,6.021903,4.04308501171875,6.083322Q4.00204601171875,6.144742,3.97377701171875,6.212987Q3.94550901171875,6.281233,3.93109801171875,6.353682Q3.91668701171875,6.4261315,3.91668701171875,6.5Z" fill-rule="evenodd" fill="#2D2E33" fill-opacity="1"/></g><g><path d="M7.25,6.5L7.25,7.5Q7.25,7.57387,7.264411,7.64632Q7.278822,7.71877,7.30709,7.78701Q7.335359,7.8552599999999995,7.376398,7.9166799999999995Q7.417437,7.9780999999999995,7.46967,8.03033Q7.521903,8.08256,7.583322,8.1236Q7.644742,8.16464,7.712987,8.19291Q7.781233,8.22118,7.853682,8.23559Q7.9261315,8.25,8,8.25Q8.0738685,8.25,8.146318,8.23559Q8.218767,8.22118,8.287013,8.19291Q8.355258,8.16464,8.416678,8.1236Q8.478097,8.08256,8.53033,8.03033Q8.582563,7.9780999999999995,8.623602,7.9166799999999995Q8.664641,7.8552599999999995,8.69291,7.78701Q8.721178,7.71877,8.735589000000001,7.64632Q8.75,7.57387,8.75,7.5L8.75,6.5Q8.75,6.4261315,8.735589000000001,6.353682Q8.721178,6.281233,8.69291,6.212987Q8.664641,6.144742,8.623602,6.083322Q8.582563,6.021903,8.53033,5.96967Q8.478097,5.917437,8.416678,5.876398Q8.355258,5.835359,8.287013,5.80709Q8.218767,5.778822,8.146318,5.764411Q8.0738685,5.75,8,5.75Q7.9261315,5.75,7.853682,5.764411Q7.781233,5.778822,7.712987,5.80709Q7.644742,5.835359,7.583322,5.876398Q7.521903,5.917437,7.46967,5.96967Q7.417437,6.021903,7.376398,6.083322Q7.335359,6.144742,7.30709,6.212987Q7.278822,6.281233,7.264411,6.353682Q7.25,6.4261315,7.25,6.5Z" fill-rule="evenodd" fill="#2D2E33" fill-opacity="1"/></g><g><path d="M10.58331298828125,6.5L10.58331298828125,7.5Q10.58331298828125,7.57387,10.597723988281249,7.64632Q10.61213498828125,7.71877,10.64040298828125,7.78701Q10.66867198828125,7.8552599999999995,10.70971098828125,7.9166799999999995Q10.75074998828125,7.9780999999999995,10.80298298828125,8.03033Q10.85521598828125,8.08256,10.91663498828125,8.1236Q10.97805498828125,8.16464,11.04629998828125,8.19291Q11.11454598828125,8.22118,11.18699498828125,8.23559Q11.25944448828125,8.25,11.33331298828125,8.25Q11.40718148828125,8.25,11.47963098828125,8.23559Q11.55207998828125,8.22118,11.62032598828125,8.19291Q11.68857098828125,8.16464,11.74999098828125,8.1236Q11.81140998828125,8.08256,11.86364298828125,8.03033Q11.91587598828125,7.9780999999999995,11.95691498828125,7.9166799999999995Q11.99795398828125,7.8552599999999995,12.02622298828125,7.78701Q12.05449098828125,7.71877,12.068901988281251,7.64632Q12.08331298828125,7.57387,12.08331298828125,7.5L12.08331298828125,6.5Q12.08331298828125,6.4261315,12.068901988281251,6.353682Q12.05449098828125,6.281233,12.02622298828125,6.212987Q11.99795398828125,6.144742,11.95691498828125,6.083322Q11.91587598828125,6.021903,11.86364298828125,5.96967Q11.81140998828125,5.917437,11.74999098828125,5.876398Q11.68857098828125,5.835359,11.62032598828125,5.80709Q11.55207998828125,5.778822,11.47963098828125,5.764411Q11.40718148828125,5.75,11.33331298828125,5.75Q11.25944448828125,5.75,11.18699498828125,5.764411Q11.11454598828125,5.778822,11.04629998828125,5.80709Q10.97805498828125,5.835359,10.91663498828125,5.876398Q10.85521598828125,5.917437,10.80298298828125,5.96967Q10.75074998828125,6.021903,10.70971098828125,6.083322Q10.66867198828125,6.144742,10.64040298828125,6.212987Q10.61213498828125,6.281233,10.597723988281249,6.353682Q10.58331298828125,6.4261315,10.58331298828125,6.5Z" fill-rule="evenodd" fill="#2D2E33" fill-opacity="1"/></g></g></svg>