<svg xmlns="http://www.w3.org/2000/svg" xmlns:xlink="http://www.w3.org/1999/xlink" fill="none" version="1.1" width="24" height="24" viewBox="0 0 24 24"><defs><clipPath id="master_svg0_712_15298"><rect x="0" y="0" width="24" height="24" rx="0"/></clipPath></defs><g clip-path="url(#master_svg0_712_15298)"><g><path d="M17.765575,1.196625C17.765575,0.924073,17.544674999999998,0.7031250447035,17.272075,0.703125L6.727875,0.703125C6.455323,0.7031250447035,6.234375,0.924073,6.234375,1.196625L6.234375,4.825215C6.234375,4.999215,6.3259685,5.160285,6.4755,5.249255L11.747625,8.386685C11.903125,8.479325,12.096875,8.479325,12.252375,8.386685L17.524475000000002,5.249255C17.673975,5.160345,17.765675,4.999225,17.765675,4.825215L17.765575,1.196625Z" fill="#FFCA21" fill-opacity="1"/></g><g style="opacity:0.20000000298023224;"><path d="M8.109375,0.703125L15.890625,0.703125L15.890625,6.221625L12.252375,8.386685C12.096875,8.479325,11.903125,8.479325,11.747625,8.386685L8.109375,6.221625L8.109375,0.703125Z" fill="#FFFFFF" fill-opacity="1"/></g><g><path d="M10.715527187500001,5.66033892578125C11.4120671875,4.92091892578125,12.5875471875,4.92091892578125,13.2840871875,5.66033892578125L15.4612671875,7.971653925781251L18.551467187500002,8.70149392578125C19.5399671875,8.93505392578125,20.1276671875,9.95300392578125,19.8356671875,10.925903925781249L18.9225671875,13.96696392578125L19.8356671875,17.00807392578125C20.1279671875,17.98097392578125,19.5401671875,18.99907392578125,18.551467187500002,19.23247392578125L15.4612671875,19.96227392578125L13.2840871875,22.27347392578125C12.5876171875,23.01307392578125,11.411997187499999,23.01307392578125,10.715527187500001,22.27347392578125L8.5383671875,19.96227392578125L5.4481771875,19.23247392578125C4.4595331875,18.99897392578125,3.8718021875,17.98097392578125,4.1639929875,17.00807392578125L5.0770241875,13.96696392578125L4.1639929875,10.925903925781249C3.8718651875,9.95300392578125,4.4595711875,8.935003925781249,5.4481771875,8.70149392578125L8.5383671875,7.971653925781251L10.715527187500001,5.66033892578125Z" fill="#FFE285" fill-opacity="1"/></g><g><path d="M4.21048746875,18.156573925781252C4.06736956875,17.789573925781248,4.05116546875,17.38527392578125,4.16445586875,17.00807392578125L5.07748746875,13.96696392578125L4.16445586875,10.925903925781249C3.87232846875,9.95300392578125,4.46003446875,8.935003925781249,5.44864546875,8.70149392578125L8.538835468750001,7.971653925781251L10.715985468749999,5.66033892578125C11.41253546875,4.92091892578125,12.58800546875,4.92091892578125,13.28455546875,5.66033892578125L15.46175546875,7.971653925781251L18.55185546875,8.70149392578125C18.70755546875,8.73822392578125,18.85745546875,8.79594392578125,18.997455468749997,8.87305392578125L19.674255468749998,9.53634392578125L4.32626846875,18.39747392578125L4.21048746875,18.156573925781252Z" fill="#FFE285" fill-opacity="1"/></g><g><path d="M17.330533593749998,13.96694357421875Q17.330533593749998,14.09780357421875,17.324033593750002,14.228503574218749Q17.31763359375,14.35920357421875,17.30483359375,14.48943357421875Q17.29203359375,14.61965357421875,17.27283359375,14.749093574218751Q17.25363359375,14.87853357421875,17.22803359375,15.006883574218751Q17.202533593749997,15.135223574218749,17.17073359375,15.26215357421875Q17.13893359375,15.38909357421875,17.10093359375,15.51431357421875Q17.06293359375,15.63953357421875,17.01893359375,15.76274357421875Q16.97483359375,15.88595357421875,16.92473359375,16.006853574218752Q16.874633593749998,16.127743574218748,16.81873359375,16.24604357421875Q16.76273359375,16.36433357421875,16.701033593749997,16.47974357421875Q16.63939359375,16.59514357421875,16.57211359375,16.707383574218753Q16.50484359375,16.819623574218753,16.43214359375,16.92843357421875Q16.35944359375,17.03723357421875,16.28149359375,17.14233357421875Q16.20354359375,17.24744357421875,16.12052359375,17.34859357421875Q16.03751359375,17.44975357421875,15.94963359375,17.54671357421875Q15.86175359375,17.643673574218752,15.76922359375,17.73620357421875Q15.67669359375,17.828733574218752,15.57973359375,17.916603574218747Q15.48277359375,18.00448357421875,15.38162359375,18.08750357421875Q15.28046359375,18.170513574218752,15.17536359375,18.24846357421875Q15.07025359375,18.326413574218748,14.96145359375,18.399113574218752Q14.85264359375,18.47182357421875,14.74040359375,18.53909357421875Q14.62816359375,18.60636357421875,14.51276359375,18.668013574218747Q14.397353593750001,18.72971357421875,14.27906359375,18.78571357421875Q14.16076359375,18.841613574218748,14.03987359375,18.89171357421875Q13.91897359375,18.94181357421875,13.79576359375,18.98591357421875Q13.672563593749999,19.02991357421875,13.54734359375,19.06791357421875Q13.42211359375,19.10591357421875,13.29518359375,19.13771357421875Q13.168243593749999,19.169513574218747,13.039903593750001,19.19501357421875Q12.91156359375,19.22061357421875,12.782113593750001,19.23981357421875Q12.65267359375,19.25901357421875,12.52245359375,19.27181357421875Q12.39222359375,19.28461357421875,12.261523593749999,19.291013574218752Q12.13082359375,19.297513574218748,11.99996359375,19.297513574218748Q11.86911359375,19.297513574218748,11.73841359375,19.291013574218752Q11.607713593749999,19.28461357421875,11.47748359375,19.27181357421875Q11.34725359375,19.25901357421875,11.21781359375,19.23981357421875Q11.08837359375,19.22061357421875,10.960033593750001,19.19501357421875Q10.83168359375,19.169513574218747,10.704753593749999,19.13771357421875Q10.577813593750001,19.10591357421875,10.45259359375,19.06791357421875Q10.32737359375,19.02991357421875,10.20416359375,18.98591357421875Q10.08095359375,18.94181357421875,9.96006359375,18.89171357421875Q9.83916359375,18.841613574218748,9.72087359375,18.78571357421875Q9.60257359375,18.72971357421875,9.48717359375,18.668013574218747Q9.37176359375,18.60636357421875,9.25952359375,18.53909357421875Q9.14728359375,18.47182357421875,9.03848359375,18.399113574218752Q8.92967359375,18.326413574218748,8.82457359375,18.24846357421875Q8.71946359375,18.170513574218752,8.618313593749999,18.08750357421875Q8.51715359375,18.00448357421875,8.42020359375,17.916603574218747Q8.32324359375,17.828733574218752,8.23071359375,17.736193574218753Q8.13818359375,17.64366357421875,8.05030359375,17.54671357421875Q7.96242359375,17.44975357421875,7.87941359375,17.34859357421875Q7.79639359375,17.24744357421875,7.71844359375,17.14233357421875Q7.64049059375,17.03723357421875,7.56779059375,16.928423574218748Q7.49508959375,16.819623574218753,7.42781559375,16.707383574218753Q7.36054159375,16.59514357421875,7.29885659375,16.47974357421875Q7.23717059375,16.36433357421875,7.18122159375,16.24604357421875Q7.12527359375,16.127743574218748,7.07519659375,16.006853574218752Q7.02511959375,15.88595357421875,6.98103459375,15.76274357421875Q6.93695059375,15.63953357421875,6.89896459375,15.51431357421875Q6.86097859375,15.38909357421875,6.82918259375,15.26215357421875Q6.79738759375,15.135223574218749,6.77185859375,15.006883574218751Q6.74632929375,14.87853357421875,6.72712859375,14.749093574218751Q6.70792779375,14.61965357421875,6.69510159375,14.489423574218751Q6.68227529375,14.35920357421875,6.67585445375,14.228503574218749Q6.66943359375,14.09780357421875,6.66943359375,13.96694357421875Q6.66943359375,13.836083574218751,6.67585445375,13.70538357421875Q6.68227529375,13.57468357421875,6.69510159375,13.44446357421875Q6.70792779375,13.31423357421875,6.72712859375,13.18479357421875Q6.74632929375,13.05535357421875,6.77185859375,12.927013574218751Q6.79738759375,12.79866357421875,6.82918259375,12.671733574218749Q6.86097859375,12.544793574218751,6.89896459375,12.41957357421875Q6.93695059375,12.29435357421875,6.98103459375,12.17114357421875Q7.02511959375,12.04793357421875,7.07519659375,11.92703357421875Q7.12527359375,11.80614357421875,7.18122159375,11.68784357421875Q7.23717059375,11.56955357421875,7.29885659375,11.45415357421875Q7.36054159375,11.33874357421875,7.42781559375,11.22650357421875Q7.49508959375,11.11426357421875,7.56779059375,11.00546357421875Q7.64049059375,10.89665357421875,7.71844359375,10.79155357421875Q7.79639359375,10.68644357421875,7.87941359375,10.585293574218749Q7.96242359375,10.48413357421875,8.05030359375,10.38718357421875Q8.13818359375,10.29022357421875,8.23071359375,10.19769357421875Q8.32324359375,10.10516357421875,8.42020359375,10.01728357421875Q8.51715359375,9.92940357421875,8.618313593749999,9.84638357421875Q8.71946359375,9.76337357421875,8.82457359375,9.685423574218749Q8.92967359375,9.60747057421875,9.03848359375,9.53476957421875Q9.14728359375,9.46206957421875,9.25952359375,9.39479557421875Q9.37176359375,9.32752157421875,9.48717359375,9.26583557421875Q9.60257359375,9.20415057421875,9.72087359375,9.14820157421875Q9.83916359375,9.09225257421875,9.96006359375,9.04217557421875Q10.08095359375,8.99209957421875,10.20416359375,8.94801457421875Q10.32737359375,8.90393057421875,10.45259359375,8.86594457421875Q10.577813593750001,8.82795857421875,10.704753593749999,8.79616257421875Q10.83168359375,8.76436757421875,10.960033593750001,8.73883857421875Q11.08837359375,8.71330927421875,11.21781359375,8.69410847421875Q11.34725359375,8.67490777421875,11.47748359375,8.66208157421875Q11.607713593749999,8.64925527421875,11.73841359375,8.64283443421875Q11.86911359375,8.63641357421875,11.99996359375,8.63641357421875Q12.13082359375,8.63641357421875,12.261523593749999,8.64283443421875Q12.39222359375,8.64925527421875,12.52245359375,8.66208157421875Q12.65267359375,8.67490777421875,12.782113593750001,8.69410847421875Q12.91156359375,8.71330927421875,13.039903593750001,8.73883857421875Q13.168243593749999,8.76436757421875,13.29518359375,8.79616257421875Q13.42211359375,8.82795857421875,13.54734359375,8.86594457421875Q13.672563593749999,8.90393057421875,13.795773593749999,8.94801457421875Q13.91897359375,8.99209957421875,14.03987359375,9.04217557421875Q14.16076359375,9.09225257421875,14.27906359375,9.14820157421875Q14.397353593750001,9.20415057421875,14.51276359375,9.26583557421875Q14.62816359375,9.32752157421875,14.74040359375,9.39479557421875Q14.85264359375,9.46206957421875,14.96145359375,9.53476957421875Q15.07025359375,9.60747057421875,15.17536359375,9.685423574218749Q15.28046359375,9.76337357421875,15.38162359375,9.84638357421875Q15.48277359375,9.92940357421875,15.57973359375,10.01728357421875Q15.67669359375,10.10516357421875,15.76922359375,10.19769357421875Q15.86175359375,10.29022357421875,15.94963359375,10.38718357421875Q16.03751359375,10.48413357421875,16.12052359375,10.585293574218749Q16.20354359375,10.68644357421875,16.28149359375,10.79155357421875Q16.35944359375,10.89665357421875,16.43214359375,11.00546357421875Q16.50484359375,11.11426357421875,16.57211359375,11.22650357421875Q16.63939359375,11.33874357421875,16.701033593749997,11.45415357421875Q16.76273359375,11.56955357421875,16.81873359375,11.68785357421875Q16.874633593749998,11.80614357421875,16.92473359375,11.92704357421875Q16.97483359375,12.04793357421875,17.01893359375,12.17114357421875Q17.06293359375,12.29435357421875,17.10093359375,12.41957357421875Q17.13893359375,12.544793574218751,17.17073359375,12.671733574218749Q17.202533593749997,12.79866357421875,17.22803359375,12.927013574218751Q17.25363359375,13.05535357421875,17.27283359375,13.18479357421875Q17.29203359375,13.31423357421875,17.30483359375,13.44446357421875Q17.31763359375,13.57468357421875,17.324033593750002,13.70538357421875Q17.330533593749998,13.836083574218751,17.330533593749998,13.96694357421875Z" fill="#FFCA21" fill-opacity="1"/></g><g><path d="M10.5,16.5L10.5,15.66L11.625,15.66L11.625,11.94857L10.875,11.94857L10.875,11.108571L11.625,11.108571L11.625,10.5L12.375,10.5L12.375,15.66L13.5,15.66L13.5,16.5L10.5,16.5Z" fill="#FFFFFF" fill-opacity="1"/><path d="M10.25,15.41L10.25,16.75L13.75,16.75L13.75,15.41L12.625,15.41L12.625,10.25L11.375,10.25L11.375,10.858571L10.625,10.858571L10.625,12.19857L11.375,12.19857L11.375,15.41L10.25,15.41ZM13.25,16.25L13.25,15.91L12.125,15.91L12.125,10.75L11.875,10.75L11.875,11.358571L11.125,11.358571L11.125,11.69857L11.875,11.69857L11.875,15.91L10.75,15.91L10.75,16.25L13.25,16.25Z" fill-rule="evenodd" fill="#FFFFFF" fill-opacity="1"/></g></g></svg>