<svg xmlns="http://www.w3.org/2000/svg" xmlns:xlink="http://www.w3.org/1999/xlink" fill="none" version="1.1" width="20" height="20" viewBox="0 0 20 20"><defs><clipPath id="master_svg0_4019_63650"><rect x="0" y="0" width="20" height="20" rx="0"/></clipPath></defs><g clip-path="url(#master_svg0_4019_63650)"><g><g><path d="M17.3722,5.766439999999999L17.3716,5.7654700000000005Q17.3223,5.67978,17.252499999999998,5.6098099999999995Q17.1826,5.53983,17.097,5.49034Q17.011499999999998,5.44085,16.916,5.41523Q16.8205,5.389609999999999,16.721600000000002,5.389609999999999Q16.6477,5.389609999999999,16.5753,5.40402Q16.5028,5.41843,16.4346,5.4467Q16.3664,5.47497,16.3049,5.51601Q16.243499999999997,5.557040000000001,16.1913,5.60928Q16.139,5.66151,16.098,5.72293Q16.057000000000002,5.78435,16.0287,5.85259Q16.0004,5.92084,15.986,5.99329Q15.9716,6.06574,15.9716,6.139609999999999Q15.9716,6.34004,16.0716,6.51375Q17,8.12673,17,10Q17,12.8995,14.9497,14.9497Q12.8995,17,9.99999,17Q7.1005,17,5.05025,14.9497Q2.999999,12.8995,2.999999,9.99999Q3,7.1005,5.05025,5.05025Q7.1005,2.999999,10,2.999999Q11.88642,3,13.5076,3.94076Q13.6822,4.04207,13.8841,4.04207Q13.9579,4.04207,14.0304,4.02766Q14.1028,4.01325,14.1711,3.98498Q14.2393,3.95671,14.3007,3.91567Q14.3622,3.87463,14.4144,3.8224Q14.4666,3.7701700000000002,14.5077,3.70875Q14.5487,3.64733,14.577,3.5790800000000003Q14.6052,3.51084,14.6197,3.43839Q14.6341,3.36594,14.6341,3.29207Q14.6341,3.193539,14.6086,3.098352Q14.5832,3.003165,14.534,2.917782Q14.4848,2.832398,14.4153,2.762612Q14.3457,2.692827,14.2605,2.643374L14.2603,2.643286L14.2598,2.6429869999999998Q12.2897,1.5,10,1.4999989999999999Q6.47918,1.4999989999999999,3.9895899999999997,3.9895899999999997Q1.5,6.47918,1.4999989999999999,9.99999Q1.4999989999999999,13.5208,3.9895899999999997,16.0104Q6.47918,18.5,9.99999,18.5Q13.5208,18.5,16.0104,16.0104Q18.5,13.5208,18.5,10Q18.5,7.72643,17.3722,5.766439999999999Z" fill-rule="evenodd" fill="#333333" fill-opacity="1"/></g><g><path d="M12.816605,6.21714362890625Q9.159578,7.58687462890625,8.4392799,8.30717462890625Q7.765625,8.98082462890625,7.765625,9.93352462890625Q7.765625,10.88622462890625,8.43928,11.55988462890625Q9.112935,12.23353462890625,10.065635,12.23353462890625Q11.018335,12.23353462890625,11.692005,11.55986462890625Q12.412255,10.83957462890625,13.782015000000001,7.18256562890625Q13.829665,7.05534762890625,13.829665,6.91949809936625Q13.829665,6.78364862890625,13.782015000000001,6.65643062890625Q13.756105,6.58725462890625,13.717205,6.52446362890625Q13.678295,6.46167162890625,13.627885,6.40767662890625Q13.577475,6.35368262890625,13.517495,6.31055962890625Q13.457525,6.26743662890625,13.390285,6.23684262890625Q13.323055,6.20624962890625,13.251145000000001,6.18936062890625Q13.179224999999999,6.17247162890625,13.105405000000001,6.16993662890625Q13.031575,6.16740162890625,12.958675,6.17931762890625Q12.885774999999999,6.19123362890625,12.816605,6.21714362890625ZM9.265625,9.93352462890625Q9.265625,9.60214462890625,9.49994,9.36783462890625Q9.860115,9.00765462890625,11.764615,8.23453462890625Q10.991475,10.13905462890625,10.631315,10.499234628906251Q10.397015,10.73353462890625,10.065635,10.73353462890625Q9.734255000000001,10.73353462890625,9.499941,10.49922462890625Q9.265625,10.264904628906251,9.265625,9.93352462890625Z" fill-rule="evenodd" fill="#333333" fill-opacity="1"/></g></g></g></svg>