<svg xmlns="http://www.w3.org/2000/svg" xmlns:xlink="http://www.w3.org/1999/xlink" fill="none" version="1.1" width="120.00000762939453" height="120" viewBox="0 0 120.00000762939453 120"><defs><filter id="master_svg0_3847_31702" filterUnits="objectBoundingBox" color-interpolation-filters="sRGB" x="0" y="0" width="120.00000762939453" height="120.00000762939453"><feFlood flood-opacity="0" result="BackgroundImageFix"/><feBlend mode="normal" in="SourceGraphic" in2="BackgroundImageFix" result="shape"/><feGaussianBlur in="BackgroundImage" stdDeviation="2.5"/><feComposite in2="SourceAlpha" operator="in" result="effect1_foregroundBlur"/><feBlend mode="normal" in="SourceGraphic" in2="effect1_foregroundBlur" result="shape"/></filter></defs><g style="opacity:0.800000011920929;"><g filter="url(#master_svg0_3847_31702)"><rect x="3" y="3" width="114.00000762939453" height="114.00000762939453" rx="57.000003814697266" fill-opacity="0" stroke-opacity="1" stroke="#FFFFFF" fill="none" stroke-width="6"/></g><g><path d="M69.30321199645996,37.6787109375L38.74278199645996,37.6787109375C34.36202199645996,37.6787109375,30.81081199645996,41.4052109375,30.81081199645996,46.0036509375L30.81081199645996,73.9955109375C30.81081199645996,78.5939109375,34.36202199645996,82.3210109375,38.74251199645996,82.3210109375L69.30321199645996,82.3210109375C73.68401199645996,82.3210109375,77.23491199645997,78.59341093750001,77.23491199645997,73.99581093750001C77.23491199645997,73.7018109375,77.36631199645996,73.42501093749999,77.58951199645996,73.2494109375C77.81271199645997,73.07371093750001,78.10141199645996,73.01971093750001,78.36811199645996,73.1038109375L85.06201199645996,78.00091093750001C86.76101199645996,78.5357109375,88.54901199645997,77.51461093750001,89.05541199645995,75.7199109375C89.14411199645997,75.4056109375,89.18921199645996,75.0795109375,89.18921199645996,74.7516109375L89.18921199645996,45.1156109375C89.18921199645996,43.2431709375,87.75181199645996,41.7250509375,85.97911199645996,41.7250509375C85.66851199645996,41.7250509375,85.35961199645996,41.7726409375,85.06201199645996,41.8663309375L78.24801199645995,46.801280937499996C78.00951199645996,46.876430937500004,77.75141199645996,46.8281509375,77.55191199645996,46.6710509375C77.35241199645996,46.5139509375,77.23481199645997,46.2665109375,77.23491199645997,46.0036509375C77.23491199645997,41.4052109375,73.68401199645996,37.6787109375,69.30321199645996,37.6787109375ZM46.80031199645996,52.1548109375C46.80031199645996,50.0948109375,48.38141199645996,48.4252109375,50.33141199645996,48.4252109375C51.000311996459956,48.4252109375,51.655511996459964,48.6257109375,52.220611996459965,49.0036109375L64.15941199645997,56.9890109375C65.80731199645996,58.091110937500005,66.29691199645995,60.3953109375,65.25351199645996,62.1355109375C64.97421199645996,62.6012109375,64.60061199645996,62.995810937499996,64.15971199645996,63.2908109375L52.22091199645996,71.27771093749999C50.573311996459964,72.3801109375,48.39191199645996,71.86301093750001,47.348211996459966,70.12281093749999C46.990311996459965,69.5258109375,46.80031199645996,68.8337109375,46.80031199645996,68.12711093749999L46.80031199645996,52.1548109375Z" fill="#FFFFFF" fill-opacity="1"/></g></g></svg>