<svg xmlns="http://www.w3.org/2000/svg" xmlns:xlink="http://www.w3.org/1999/xlink" fill="none" version="1.1" width="24" height="24" viewBox="0 0 24 24"><defs><clipPath id="master_svg0_142_17456"><rect x="0" y="0" width="24" height="24" rx="0"/></clipPath></defs><g clip-path="url(#master_svg0_142_17456)"><g><path d="M11.030260890625,4.99999999885763L11.011963890625,18.9987L11.011962890625,19Q11.011962890625,19.0911,11.028420890625,19.1807Q11.044131890625,19.266199999999998,11.074368890625,19.3477Q11.104606890625,19.429299999999998,11.148463890624999,19.5044Q11.192319890625,19.5794,11.248478890625,19.6458Q11.304637890625,19.7122,11.371412890625,19.767899999999997Q11.438188890625,19.8236,11.513575890625,19.867Q11.588962890625,19.9103,11.670699890625,19.939999999999998Q11.752435890625,19.9696,11.838067890625,19.9848Q11.923699390625,19.9999,12.010655810625,20L12.011962890625,20Q12.035340990625,20,12.058693590625,19.9989Q12.244942890625,19.9902,12.415536890625,19.9149Q12.586130890625,19.8397,12.718144890625,19.708Q12.858980890625,19.5676,12.935341890625,19.3839Q13.011701890625,19.200200000000002,13.011961890625,19.0013L13.011962890625,19L13.030262890625,5.00130708L13.030262890625,5Q13.030262890625,4.9766219,13.029172890625,4.9532693Q13.020452890625,4.76702,12.945208890625,4.596426Q12.869961890625,4.425832,12.738292890625,4.293818Q12.597823890625,4.152982,12.414152890625,4.076621Q12.230480890625,4.000261,12.031569090625,4.000001L12.030261990625,4Q12.006883850625,4,11.983531290625,4.001092Q11.797282890625,4.009806,11.626687890625,4.085053Q11.456093890625,4.1603,11.324079890625,4.29197Q11.183243890625,4.432438,11.106883890625,4.616109Q11.030522890625,4.799781,11.030262890625,4.99869292L11.030260890625,4.99999999885763Z" fill-rule="evenodd" fill="#C0C4CC" fill-opacity="1"/></g><g><path d="M5,13L19,13Q19.0985,13,19.1951,12.980785000000001Q19.2917,12.96157,19.3827,12.923879Q19.4737,12.886188,19.5556,12.83147Q19.6375,12.776751,19.7071,12.707107Q19.776699999999998,12.637463,19.8315,12.55557Q19.886200000000002,12.473678,19.9239,12.382683Q19.9616,12.291689,19.980800000000002,12.19509Q20,12.0984914,20,12Q20,11.9015086,19.980800000000002,11.80491Q19.9616,11.708311,19.9239,11.617317Q19.886200000000002,11.526322,19.8315,11.44443Q19.776699999999998,11.362537,19.7071,11.292893Q19.6375,11.223249,19.5556,11.16853Q19.4737,11.113812,19.3827,11.076121Q19.2917,11.03843,19.1951,11.019214999999999Q19.0985,11,19,11L5,11Q4.9015086,11,4.80491,11.019214999999999Q4.708311,11.03843,4.617317,11.076121Q4.526322,11.113812,4.44443,11.16853Q4.362537,11.223249,4.292893,11.292893Q4.223249,11.362537,4.16853,11.44443Q4.113812,11.526322,4.076121,11.617317Q4.03843,11.708311,4.019215,11.80491Q4,11.9015086,4,12Q4,12.0984914,4.019215,12.19509Q4.03843,12.291689,4.076121,12.382683Q4.113812,12.473678,4.16853,12.55557Q4.223249,12.637463,4.292893,12.707107Q4.362537,12.776751,4.44443,12.83147Q4.526322,12.886188,4.617317,12.923879Q4.708311,12.96157,4.80491,12.980785000000001Q4.9015086,13,5,13Z" fill-rule="evenodd" fill="#C0C4CC" fill-opacity="1"/></g></g></svg>