<svg xmlns="http://www.w3.org/2000/svg" xmlns:xlink="http://www.w3.org/1999/xlink" fill="none" version="1.1" width="40" height="40" viewBox="0 0 40 40"><defs><clipPath id="master_svg0_4019_73289"><rect x="0" y="0" width="40" height="40" rx="0"/></clipPath></defs><g clip-path="url(#master_svg0_4019_73289)"><g><g><path d="M21.537042006225587,12.00130708L21.537042006225587,12Q21.537042006225587,11.9015086,21.517832006225586,11.80491Q21.498613006225586,11.708311,21.460922006225587,11.617317Q21.423231006225585,11.526322,21.368512006225586,11.44443Q21.313793006225588,11.362537,21.244149006225587,11.292893Q21.174505006225587,11.223249,21.092612006225586,11.16853Q21.010720006225586,11.113812,20.919726006225584,11.076121Q20.828732006225586,11.03843,20.732133006225585,11.019214999999999Q20.635534006225587,11,20.537042306225587,11Q20.438633406225588,11,20.342112006225587,11.019183Q20.245591006225585,11.038366,20.154661006225584,11.075996Q20.063731006225584,11.113625,19.981880006225587,11.168258Q19.900029006225587,11.222891,19.830398006225586,11.292431Q19.760767006225585,11.361971,19.706027006225586,11.443751Q19.651287006225587,11.52553,19.613538006225586,11.616411Q19.575790006225585,11.707292,19.556481006225585,11.803788Q19.537172006225585,11.9002841,19.537043006225588,11.99869292L19.537041006225586,11.99999999893555L19.514823006225587,28.9984L19.514823006225587,28.9987L19.514822006225586,29Q19.514822006225586,29.0985,19.534037006225585,29.1951Q19.553252006225584,29.2917,19.590943006225586,29.3827Q19.628634006225585,29.4737,19.683352006225586,29.5556Q19.738071006225585,29.6375,19.807715006225585,29.7071Q19.877359006225586,29.7767,19.959252006225586,29.8315Q20.041144006225586,29.8862,20.132139006225586,29.9239Q20.223133006225584,29.9616,20.319732006225586,29.9808Q20.416330606225586,30,20.514822006225586,30Q20.613230906225585,30,20.709752006225585,29.9808Q20.806273006225585,29.9616,20.897204006225586,29.924Q20.988134006225586,29.8864,21.069985006225586,29.8317Q21.151836006225587,29.7771,21.221467006225588,29.7076Q21.291098006225585,29.638,21.345838006225584,29.5562Q21.400578006225587,29.4745,21.438326006225587,29.3836Q21.476075006225585,29.2927,21.495384006225585,29.1962Q21.514693006225585,29.0997,21.514821006225585,29.0013L21.514822006225586,29L21.537042006225587,12.00175305L21.537042006225587,12.00130708L21.537042006225587,12.00130708Z" fill-rule="evenodd" fill="#333333" fill-opacity="1"/></g><g><path d="M12,19.500001907348633L29,19.500001907348633Q29.0985,19.500001907348633,29.1951,19.519216907348632Q29.2917,19.53843190734863,29.3827,19.576122907348633Q29.4737,19.613813907348632,29.5556,19.668531907348633Q29.6375,19.723250907348632,29.7071,19.792894907348632Q29.7767,19.862538907348632,29.8315,19.944431907348633Q29.8862,20.026323907348633,29.9239,20.117318907348633Q29.9616,20.20831290734863,29.9808,20.304911907348632Q30,20.401510507348632,30,20.500001907348633Q30,20.598493307348633,29.9808,20.695091907348633Q29.9616,20.791690907348634,29.9239,20.882684907348633Q29.8862,20.973679907348632,29.8315,21.055571907348632Q29.7767,21.137464907348633,29.7071,21.207108907348633Q29.6375,21.276752907348634,29.5556,21.331471907348632Q29.4737,21.386189907348633,29.3827,21.423880907348632Q29.2917,21.461571907348635,29.1951,21.480786907348634Q29.0985,21.500001907348633,29,21.500001907348633L12,21.500001907348633Q11.9015086,21.500001907348633,11.80491,21.480786907348634Q11.708311,21.461571907348635,11.617317,21.423880907348632Q11.526322,21.386189907348633,11.44443,21.331471907348632Q11.362537,21.276752907348634,11.292893,21.207108907348633Q11.223249,21.137464907348633,11.16853,21.055571907348632Q11.113812,20.973679907348632,11.076121,20.882684907348633Q11.03843,20.791690907348634,11.019214999999999,20.695091907348633Q11,20.598493307348633,11,20.500001907348633Q11,20.401510507348632,11.019214999999999,20.304911907348632Q11.03843,20.20831290734863,11.076121,20.117318907348633Q11.113812,20.026323907348633,11.16853,19.944431907348633Q11.223249,19.862538907348632,11.292893,19.792894907348632Q11.362537,19.723250907348632,11.44443,19.668531907348633Q11.526322,19.613813907348632,11.617317,19.576122907348633Q11.708311,19.53843190734863,11.80491,19.519216907348632Q11.9015086,19.500001907348633,12,19.500001907348633Z" fill-rule="evenodd" fill="#333333" fill-opacity="1"/></g></g></g></svg>