<svg xmlns="http://www.w3.org/2000/svg" xmlns:xlink="http://www.w3.org/1999/xlink" fill="none" version="1.1" width="20" height="20" viewBox="0 0 20 20"><defs><clipPath id="master_svg0_4019_72794"><rect x="0" y="0" width="20" height="20" rx="0"/></clipPath></defs><g clip-path="url(#master_svg0_4019_72794)"><g><g><path d="M1.812934,9.43819C1.910879,9.43819,2.00882,9.43676,2.10677,9.43819C2.1441600000000003,9.43819,2.1546700000000003,9.42519,2.15734,9.38939C2.3203199999999997,7.18671,3.40294,5.15436,5.14001,3.79019C5.70869,3.34208,6.33646,2.9745600000000003,7.00558,2.69802C7.7642,2.38443,8.567540000000001,2.1924799999999998,9.38598,2.1292299999999997C9.42641,2.12603,9.43941,2.1149899999999997,9.43941,2.07278C9.43692,1.9073440000000002,9.43781,1.7417289999999999,9.43941,1.576114C9.44101,1.2302819999999999,9.70849,0.9736678,10.0529,1.00216072C10.33196,1.0231377,10.55087,1.250168,10.56167,1.5298129999999999C10.5704,1.718222,10.56541,1.9071660000000001,10.5631,2.09593C10.5631,2.1420500000000002,10.57592,2.15648,10.62186,2.15951C11.172,2.19883,11.7163,2.29759,12.2452,2.45405C14.8154,3.21116,16.8248,5.22238,17.5795,7.79326C17.6977,8.19962,17.7839,8.61464,17.8372,9.03448C17.8525,9.15273,17.8635,9.27168,17.8728,9.39064C17.8756,9.43124,17.8906,9.43979,17.9278,9.43926C18.0952,9.4373,18.2626,9.43766,18.4298,9.43926C18.773,9.44122,19.033,9.71706,18.9997,10.05737C18.9758,10.33613,18.7472,10.55297,18.4676,10.56206C18.288,10.56953,18.1078,10.56491,17.9281,10.5633C17.8908,10.5633,17.8762,10.5706,17.8729,10.61174C17.6421,13.6628,15.666,16.3044,12.8044,17.3875C12.3924,17.5433,11.9682,17.6644,11.5361,17.7497C11.2338,17.8092,10.92813,17.8499,10.6208,17.8715C10.56933,17.8755,10.56149,17.8934,10.56203,17.9383C10.56434,18.1022,10.56381,18.266,10.56203,18.4298C10.55989,18.7641,10.30363,19.01,9.96938,18.9997C9.69139,18.9913,9.44635,18.7504,9.43888,18.4706C9.43407,18.2891,9.43638,18.1073,9.43888,17.9259C9.43888,17.8865,9.42819,17.8758,9.38883,17.8724C8.88862,17.8334,8.393139999999999,17.7479,7.90881,17.6169C7.03583,17.3816,6.21079,16.9953,5.47106,16.4754Q3.66942,15.2076,2.7726100000000002,13.193C2.41174,12.3769,2.19369,11.5049,2.12796,10.61495C2.1247499999999997,10.57327,2.11282,10.56152,2.0716900000000003,10.56152C1.9062480000000002,10.56384,1.740634,10.56312,1.575019,10.56152C1.228474,10.55974,0.9788053,10.29191,1.00142148,9.94661C1.0192295,9.68234,1.25857,9.44798,1.525156,9.43819C1.6213199999999999,9.43463,1.717483,9.43819,1.8136459999999999,9.43819L1.812934,9.43819ZM10.56292,16.4043C10.56292,16.5171,10.56506,16.6097,10.56203,16.7023C10.5606,16.7441,10.57396,16.752499999999998,10.61385,16.7487C10.91858,16.7209,11.2212,16.673299999999998,11.5197,16.606299999999997C11.9756,16.5031,12.4193,16.352,12.8434,16.1556Q14.641,15.3195,15.713,13.6525C16.3067,12.7277,16.644199999999998,11.7133,16.7484,10.62029C16.752499999999998,10.57666,16.7446,10.56152,16.6973,10.56223C16.519199999999998,10.56472,16.3411,10.56615,16.163,10.56223C15.8865,10.55582,15.6444,10.32129,15.6273,10.04865C15.6062,9.71029,15.8574,9.44086,16.197200000000002,9.4389C16.3644,9.43783,16.5318,9.4373,16.699199999999998,9.4389C16.7416,9.4389,16.7539,9.42893,16.7494,9.38548C16.714,9.00814,16.6485,8.63422,16.5535,8.26731C16.3951,7.65816,16.1508,7.07468,15.8279,6.53441Q14.6365,4.55433,12.4908,3.69438C11.8902,3.45326,11.2635,3.31311,10.61884,3.25256C10.5736,3.24829,10.56167,3.25951,10.56221,3.30492C10.56452,3.4846,10.5663,3.66464,10.56221,3.84433C10.55491,4.12249,10.30951,4.36468,10.03153,4.37429C9.70208,4.38551,9.44208,4.137980000000001,9.43923,3.80871C9.43798,3.65022,9.43763,3.49173,9.43923,3.33323C9.43923,3.28978,9.42677,3.27981,9.38438,3.28284C9.15573,3.30198,8.92829,3.33348,8.703050000000001,3.37722C8.30475,3.45221,7.91431,3.56417,7.5368,3.71166C6.45211,4.13691,5.5325,4.79349,4.7883,5.69084C3.8979,6.7636,3.39126,7.99787,3.25271,9.38441C3.24808,9.43107,3.26162,9.44068,3.30614,9.44015C3.48422,9.43801,3.6623,9.43588,3.84038,9.44015C4.20046,9.44959,4.46242,9.82551,4.3500499999999995,10.16743C4.27651,10.40473,4.05586,10.56557,3.80744,10.56295C3.64894,10.56401,3.49045,10.56491,3.33196,10.56295C3.28762,10.56295,3.2764,10.57559,3.28317,10.61779C3.29171,10.67122,3.29474,10.72464,3.30008,10.777C3.33954,11.1556,3.41303,11.5298,3.51966,11.8952C3.65029,12.3513,3.82976,12.7921,4.05497,13.2098Q5.00058,14.9582,6.73472,15.929C7.5587,16.389699999999998,8.4443,16.6563,9.38331,16.7482C9.4314,16.7528,9.43923,16.7375,9.4387,16.6948C9.43674,16.5292,9.4387,16.363599999999998,9.43763,16.1979C9.43757,16.128500000000003,9.44962,16.0595,9.47324,15.9942C9.55445,15.7627,9.79379,15.6101,10.04684,15.6281C10.28547,15.6448,10.4965,15.8299,10.54796,16.0626C10.57449,16.183,10.55544,16.3044,10.56292,16.4043Z" fill="#2D2E33" fill-opacity="1"/><path d="M1.812934,9.53819L1.813647,9.53819Q1.846516,9.53819,1.9113630000000001,9.53787Q2.041,9.53724,2.1053100000000002,9.53818Q2.2465200000000003,9.53819,2.25706,9.39684Q2.37774,7.7658,3.14665,6.32236Q3.91555,4.87894,5.20178,3.86884Q6.04811,3.20194,7.04378,2.7904400000000003Q8.17418,2.32318,9.39369,2.22893Q9.53941,2.21738,9.53941,2.07278Q9.53649,1.878237,9.5394,1.5770819999999999Q9.54042,1.358971,9.6862,1.221527Q9.83184,1.0842146,10.04465,1.10182Q10.21668,1.114754,10.3359,1.238398Q10.45512,1.362043,10.46175,1.5336729999999998Q10.46894,1.689106,10.46438,2.0021899999999997Q10.46348,2.06374,10.46311,2.0947Q10.4631,2.24926,10.61529,2.25929Q11.4316,2.31764,12.2169,2.5499400000000003Q14.1202,3.1106,15.5224,4.51417Q16.9247,5.91775,17.4835,7.82143Q17.6589,8.424150000000001,17.7379,9.04707Q17.7574,9.19747,17.7731,9.3984Q17.7831,9.54135,17.9292,9.53925Q18.154,9.53662,18.4288,9.53925Q18.6443,9.54049,18.7826,9.68947Q18.9206,9.83815,18.9001,10.04764Q18.8854,10.22005,18.7607,10.33829Q18.636,10.45653,18.4643,10.46211Q18.3225,10.46802,18.0371,10.46451Q17.9652,10.46363,17.929,10.46331Q17.7842,10.4633,17.7732,10.60397Q17.6022,12.8634,16.2451,14.6777Q14.888,16.492,12.769,17.294Q12.1578,17.5251,11.5168,17.6516Q11.069,17.7397,10.61377,17.7718Q10.46018,17.7835,10.46204,17.9395Q10.46504,18.1521,10.46203,18.4287Q10.4607,18.6376,10.32096,18.7719Q10.1812,18.9062,9.97247,18.8997Q9.80273,18.8946,9.67315,18.766Q9.54336,18.6371,9.53884,18.4679Q9.53396,18.284,9.53887,17.9272Q9.53888,17.785,9.39741,17.7728Q8.65399,17.7149,7.93492,17.5204Q6.63229,17.1693,5.52856,16.3936Q3.74955,15.1418,2.86397,13.1523Q2.3257399999999997,11.9351,2.22769,10.60758Q2.21645,10.46152,2.0716900000000003,10.46152Q1.868284,10.46436,1.575987,10.46153Q1.358827,10.46041,1.2229160000000001,10.31468Q1.0870685,10.16902,1.101208,9.95315Q1.112001,9.79298,1.239748,9.66863Q1.367739,9.54404,1.5288279999999999,9.53812Q1.5904859999999998,9.53584,1.716249,9.53739Q1.7802660000000001,9.53818,1.812934,9.53819ZM1.812934,9.33819L1.813647,9.33819Q1.84604,9.33819,1.9103940000000001,9.33787Q2.00127,9.33743,2.06101,9.33776Q2.19183,7.6894,2.97013,6.22833Q3.75886,4.7477,5.07825,3.71154Q5.9461,3.02769,6.96739,2.6056Q8.10884,2.13377,9.33888,2.03267Q9.33677,1.848309,9.33941,1.5751460000000002Q9.34082,1.2722820000000001,9.549,1.0760043Q9.7595,0.877546,10.06114,0.9025012Q10.30772,0.9210331,10.47987,1.0995749Q10.65203,1.278118,10.6616,1.525954Q10.66901,1.6859389999999999,10.66436,2.0051Q10.66389,2.03782,10.66355,2.06231Q11.4844,2.12469,12.2736,2.35816Q14.2256,2.93316,15.6639,4.372809999999999Q17.1022,5.81248,17.6754,7.76509Q17.8553,8.383379999999999,17.9364,9.02189Q17.9543,9.16007,17.9689,9.33882Q18.1794,9.33685,18.4308,9.33926Q18.732,9.34098,18.9292,9.5534Q19.1284,9.76805,19.0992,10.06711Q19.0782,10.31285,18.8983,10.4834Q18.7185,10.65395,18.4708,10.662Q18.3254,10.66807,18.0346,10.6645Q17.9972,10.66404,17.9692,10.66373Q17.784,12.9543,16.4053,14.7975Q15.0132,16.6584,12.8398,17.481Q12.2129,17.7181,11.5555,17.8478Q11.1125,17.935,10.66243,17.9688Q10.66483,18.1722,10.66202,18.4309Q10.66015,18.7233,10.45954,18.9161Q10.25911,19.1087,9.96629,19.0996Q9.71783,19.0922,9.53223,18.9079Q9.34558,18.7226,9.33891,18.4733Q9.33424,18.297,9.33831,17.9687Q8.59949,17.9073,7.8827,17.7134Q6.54616,17.3532,5.41356,16.5572Q3.58929,15.2735,2.68125,13.2337Q2.1368799999999997,12.0026,2.03126,10.66202Q1.8399830000000001,10.66409,1.5740509999999999,10.66152Q1.271456,10.65996,1.0766533,10.45109Q0.881846,10.24221,0.9016352,9.94007Q0.9176039,9.70309,1.100246,9.52531Q1.283429,9.347,1.521484,9.33826Q1.588037,9.33579,1.718717,9.33741Q1.7814999999999999,9.33818,1.812934,9.33819ZM10.45031,16.0841L10.45032,16.0842Q10.46461,16.1491,10.46184,16.2857Q10.4602,16.3667,10.46292,16.407899999999998Q10.46294,16.4422,10.46331,16.5028Q10.46412,16.636499999999998,10.46208,16.698999999999998Q10.45939,16.7782,10.50806,16.8191Q10.55081,16.8551,10.62318,16.848300000000002Q11.087,16.805999999999997,11.5417,16.7039Q12.2379,16.5462,12.8854,16.246299999999998Q14.7094,15.3979,15.7971,13.7066Q16.686700000000002,12.3209,16.8479,10.62977Q16.8549,10.55526,16.82,10.51191Q16.779,10.46099,16.6958,10.46224Q16.3712,10.46679,16.1652,10.46226Q15.9973,10.45837,15.8672,10.33321Q15.7376,10.20849,15.7272,10.04239Q15.7139,9.83155,15.85,9.68588Q15.9861,9.54012,16.1978,9.5389Q16.4981,9.53698,16.6983,9.5389Q16.7735,9.5389,16.8131,9.49869Q16.857,9.45417,16.8489,9.37528Q16.795,8.80123,16.650399999999998,8.24226Q16.407899999999998,7.30991,15.9137,6.48311Q14.7049,4.474,12.528,3.60156Q11.6496,3.24893,10.62819,3.153Q10.54979,3.14559,10.50537,3.18678Q10.46129,3.22765,10.46221,3.3061Q10.46663,3.649,10.46223,3.84205Q10.45783,4.009790000000001,10.32784,4.13912Q10.19783,4.26848,10.02807,4.27435Q9.82292,4.28134,9.68193,4.14683Q9.541,4.012370000000001,9.53923,3.80784Q9.53713,3.54138,9.53923,3.33425Q9.53923,3.2563,9.49447,3.21616Q9.45167,3.17778,9.37726,3.18309Q9.02741,3.21237,8.68398,3.27905Q8.076609999999999,3.3934,7.50041,3.61851Q5.8358,4.271129999999999,4.71133,5.627Q3.36567,7.24826,3.15321,9.37447Q3.14506,9.45656,3.19115,9.50154Q3.23163,9.54105,3.30734,9.54014Q3.66172,9.53589,3.83798,9.54012Q4.05715,9.54587,4.190440000000001,9.73643Q4.32378,9.92707,4.255050000000001,10.13621Q4.1526499999999995,10.46659,3.80849,10.46295Q3.50006,10.46502,3.3332,10.46295Q3.25381,10.46295,3.21367,10.5081Q3.17184,10.55513,3.18443,10.63363Q3.18981,10.66729,3.19602,10.73778Q3.19891,10.77056,3.2006,10.78715Q3.26087,11.3653,3.42366,11.9232Q3.62302,12.6194,3.96695,13.2572Q4.926410000000001,15.0312,6.68587,16.0163Q7.91825,16.7053,9.37357,16.8477Q9.45787,16.8559,9.50284,16.807000000000002Q9.53961,16.767,9.53869,16.6935Q9.53759,16.6008,9.53788,16.4147Q9.53809,16.2699,9.53763,16.1973Q9.53755,16.1104,9.56728,16.0282Q9.68159,15.7024,10.03975,15.7278Q10.37672,15.7515,10.45031,16.0841ZM10.6618,16.2897Q10.66505,16.1293,10.64562,16.0411L10.6456,16.041Q10.59978,15.8338,10.43322,15.6889Q10.26575,15.5432,10.05393,15.5283Q9.83111,15.5125,9.64181,15.6333Q9.45121,15.7549,9.37921,15.9602Q9.33752,16.075499999999998,9.33763,16.1986Q9.33809,16.270400000000002,9.33788,16.4144Q9.33766,16.5549,9.33824,16.6431Q7.95612,16.4974,6.78357,15.8418Q5.07473,14.8851,4.14299,13.1623Q3.80933,12.5435,3.61565,11.8672Q3.45792,11.3266,3.39957,10.76685Q3.39801,10.7516,3.39525,10.72024Q3.39249,10.68886,3.38978,10.66351Q3.54985,10.66468,3.80638,10.66294Q4.299580000000001,10.66816,4.44505,10.19865Q4.545030000000001,9.89444,4.35433,9.62179Q4.16323,9.34858,3.84278,9.34018Q3.67648,9.33619,3.3579,9.33956Q3.57596,7.30805,4.86528,5.75468Q5.95682,4.43851,7.57319,3.8048Q8.13198,3.58649,8.72211,3.47539Q9.02881,3.41583,9.33876,3.38723Q9.3374,3.57587,9.33924,3.80957Q9.34174,4.0986899999999995,9.54388,4.2915399999999995Q9.7457,4.4840800000000005,10.03498,4.47423Q10.28322,4.46565,10.4689,4.2809Q10.65566,4.09509,10.66218,3.8466Q10.66631,3.66543,10.66285,3.35733Q11.6249,3.45455,12.4536,3.7872Q14.5681,4.63466,15.742,6.58571Q16.2215,7.38795,16.456699999999998,8.29236Q16.5902,8.80805,16.6443,9.33846Q16.458,9.33723,16.1966,9.3389Q15.8988,9.34062,15.7038,9.54937Q15.509,9.75803,15.5275,10.05491Q15.5428,10.29868,15.7286,10.47734Q15.9148,10.65651,16.160800000000002,10.66221Q16.3525,10.66642,16.643700000000003,10.66294Q16.4785,12.275,15.6289,13.5984Q14.5725,15.241,12.8014,16.064799999999998Q12.173,16.3559,11.4978,16.508699999999997Q11.0846,16.6015,10.6632,16.6436Q10.66382,16.586,10.66331,16.5016Q10.66292,16.438499999999998,10.66292,16.4043L10.66292,16.4006L10.66264,16.396900000000002Q10.66027,16.3652,10.6618,16.2897Z" fill-rule="evenodd" fill="#2D2E33" fill-opacity="1"/></g><g><path d="M10.001913348388673,13.938777300567626Q8.811093348388672,13.938777300567626,7.619913348388672,13.938777300567626C6.955846348388672,13.938777300567626,6.406467348388672,13.566057300567627,6.163032048388672,12.949537300567627C6.0950339483886715,12.773217300567627,6.061191138388672,12.585567300567627,6.063306823288672,12.396597300567628Q6.063306823288672,11.122787300567627,6.063306823288672,9.848977300567627Q6.063306823288672,8.727077300567627,6.063306823288672,7.6051673005676275C6.063306823288672,7.245627300567627,6.170155348388672,6.921694300567627,6.3959613483886715,6.641929300567627C6.694424348388672,6.272234300567627,7.084603348388672,6.066907590567627,7.559893348388671,6.064948960567627Q10.000483348388672,6.055332460567627,12.44143334838867,6.063702270567627C13.095353348388672,6.0651266705676266,13.684263348388672,6.517807300567627,13.872313348388673,7.1467873005676275C13.916373348388671,7.291647300567627,13.93899334838867,7.442177300567627,13.939453348388671,7.593587300567627Q13.939453348388671,9.999637300567628,13.939453348388671,12.405687300567628C13.941723348388672,13.067487300567628,13.517523348388671,13.655467300567626,12.888773348388671,13.862027300567627C12.727873348388671,13.914677300567627,12.559433348388673,13.940607300567628,12.390153348388672,13.938777300567626Q11.195583348388672,13.937707300567627,10.001913348388673,13.938777300567626ZM8.873953348388671,7.190597300567627C8.86166334838867,7.189527300567627,8.849193348388672,7.187927300567627,8.836913348388672,7.187927300567627L7.596753348388672,7.187927300567627C7.5755633483886715,7.187927300567627,7.554373348388672,7.190597300567627,7.533183348388672,7.192017300567627C7.524603348388672,7.183307300567627,7.5098733483886715,7.186437300567627,7.505583348388672,7.197897300567627C7.3120033483886715,7.242417300567627,7.188953348388672,7.396457300567627,7.188953348388672,7.598047300567627Q7.188953348388672,10.002127300567627,7.188953348388672,12.404967300567627C7.187943348388671,12.435227300567627,7.190693348388672,12.465497300567627,7.197143348388672,12.495077300567626C7.247723348388671,12.695957300567628,7.398023348388672,12.813487300567626,7.607803348388671,12.813487300567626Q9.044373348388671,12.813487300567626,10.481303348388671,12.813487300567626Q11.437243348388673,12.813487300567626,12.393353348388672,12.813487300567626C12.464693348388671,12.815977300567628,12.535483348388672,12.800037300567627,12.598863348388672,12.767187300567628C12.749343348388672,12.684557300567626,12.815233348388672,12.554557300567627,12.815053348388671,12.385207300567627Q12.815053348388671,10.000527300567626,12.815053348388671,7.6156773005676275C12.815053348388671,7.597867300567627,12.815053348388671,7.580057300567627,12.814163348388671,7.562247300567627C12.802763348388673,7.361727300567627,12.637683348388672,7.191307300567627,12.436983348388672,7.189347300567627C12.002643348388672,7.185257300567627,11.568133348388672,7.189347300567627,11.133793348388672,7.189347300567627C11.121503348388671,7.189347300567627,11.109213348388671,7.1868573005676275,11.09693334838867,7.1868573005676275L8.921493348388672,7.1868573005676275C8.905653348388672,7.186677300567627,8.889803348388671,7.189167300567627,8.873953348388671,7.190597300567627Z" fill="#2D2E33" fill-opacity="1"/><path d="M10.001913348388673,14.038777300567627L12.389603348388672,14.038777300567627L12.390153348388672,14.038787300567627Q12.661723348388673,14.041547300567627,12.919983348388673,13.957027300567628Q13.422423348388673,13.791967300567627,13.731843348388672,13.363077300567628Q14.041263348388672,12.934187300567627,14.039453348388673,12.405687300567628L14.039453348388673,7.593287300567627Q14.038713348388672,7.350237300567627,13.968123348388673,7.118147300567627Q13.817273348388671,6.613593300567627,13.392103348388673,6.290309300567627Q12.96405334838867,5.964840400567627,12.441413348388672,5.963702300567627L7.559483348388672,5.964950000567627Q6.811492348388672,5.968032300567627,6.318145348388672,6.579122300567627Q5.9633068483886715,7.018753300567627,5.9633068483886715,7.6051673005676275L5.9633068483886715,9.848977300567627L5.963313048388672,12.395477300567627Q5.959895348388672,12.700717300567627,6.070020108388672,12.986267300567626Q6.2638953483886715,13.477267300567627,6.677569348388672,13.758087300567627Q7.091043348388672,14.038777300567627,7.619913348388672,14.038777300567627L10.001913348388673,14.038777300567627ZM12.857563348388672,13.767017300567627Q12.630363348388672,13.841367300567626,12.391233348388672,13.838787300567628L12.390153348388672,13.838777300567628L7.619913348388672,13.838777300567628Q7.152513348388672,13.838777300567628,6.789901348388672,13.592617300567627Q6.427263348388672,13.346437300567626,6.256043348388672,12.912817300567628Q6.160312948388672,12.664567300567626,6.163300348388672,12.397717300567628L6.163306348388672,9.848977300567627L6.163306348388672,7.6051673005676275Q6.163306348388672,7.089397300567627,6.473776348388672,6.704737300567627Q6.907388348388672,6.167639300567627,7.560303348388672,6.164948300567627L12.441463348388673,6.163702300567627Q12.896463348388671,6.1646933005676265,13.271043348388673,6.4495143005676265Q13.64432334838867,6.733341300567627,13.776503348388673,7.175437300567626Q13.838813348388673,7.380267300567627,13.839453348388671,7.593897300567627L13.839453348388671,12.405687300567628Q13.841043348388672,12.869887300567626,13.569643348388672,13.246067300567628Q13.298253348388672,13.622247300567626,12.857563348388672,13.767017300567627ZM11.09693334838867,7.086857300567627L8.921953348388673,7.086857300567627L8.921493348388672,7.086857300567627Q8.904373348388672,7.086767300567627,8.876683348388672,7.089787300567627L8.873613348388671,7.090127300567627Q8.850753348388672,7.087927300567626,8.836913348388672,7.087927300567626L7.596753348388672,7.087927300567626Q7.580153348388672,7.087927300567626,7.552203348388672,7.090167300567627Q7.526553348388672,7.083287300567627,7.496943348388672,7.089587300567627Q7.471573348388672,7.094987300567627,7.452793348388672,7.108057300567626Q7.088953348388672,7.207097300567627,7.088953348388672,7.598047300567627L7.088953348388672,12.403397300567626Q7.087253348388672,12.460527300567627,7.099443348388672,12.516397300567627L7.099783348388672,12.517947300567627L7.100173348388672,12.519497300567627Q7.199363348388672,12.913487300567628,7.607803348388671,12.913487300567628L12.39169334838867,12.913487300567628Q12.525713348388672,12.917727300567627,12.644873348388671,12.855967300567627L12.645943348388672,12.855417300567627L12.646993348388673,12.854837300567628Q12.915393348388672,12.707467300567627,12.915053348388671,12.385097300567626L12.915053348388671,7.6156773005676275Q12.915053348388671,7.577557300567626,12.91403334838867,7.557257300567627Q12.903213348388672,7.366837300567627,12.767343348388671,7.230697300567627Q12.628123348388673,7.091207300567627,12.43796334838867,7.089357300567627L11.768463348388671,7.087857300567627L11.133553348388672,7.089347300567627L11.125453348388671,7.088617300567627Q11.108133348388673,7.086857300567627,11.09693334838867,7.086857300567627ZM8.898383348388672,7.288607300567627Q8.915053348388671,7.286787300567627,8.920373348388672,7.286847300567627L8.921493348388672,7.286857300567627L11.09693334838867,7.286857300567627L11.105263348388672,7.287597300567627Q11.122583348388673,7.289347300567627,11.134033348388673,7.289347300567627L11.76801334838867,7.287857300567627L12.436013348388672,7.289347300567627Q12.698633348388672,7.291907300567627,12.714283348388673,7.567247300567627Q12.715053348388672,7.582557300567627,12.715053348388672,7.6156773005676275L12.715053348388672,12.385307300567627Q12.715263348388671,12.588537300567626,12.551773348388672,12.678957300567628Q12.478853348388672,12.716417300567628,12.396853348388671,12.713547300567626L12.395103348388671,12.713487300567627L7.607803348388671,12.713487300567627Q7.356083348388672,12.713487300567627,7.294523348388672,12.472267300567626Q7.287813348388672,12.440647300567626,7.288893348388672,12.408317300567628L7.288953348388672,12.406647300567627L7.288953348388672,7.598047300567627Q7.288953348388672,7.350327300567627,7.527993348388672,7.295357300567627L7.545083348388672,7.291417300567627Q7.551873348388672,7.290907300567627,7.561973348388672,7.290037300567627Q7.586603348388672,7.2879273005676275,7.596753348388672,7.2879273005676275L8.836913348388672,7.2879273005676275Q8.841323348388672,7.2879273005676275,8.855173348388671,7.289277300567627Q8.861763348388672,7.289917300567627,8.865283348388672,7.290217300567627L8.874093348388673,7.290987300567627L8.882903348388671,7.290197300567627Q8.888383348388672,7.289697300567627,8.898383348388672,7.288607300567627Z" fill-rule="evenodd" fill="#2D2E33" fill-opacity="1"/></g><g><path d="M11.132073402862549,7.189398529803467C11.13065340286255,7.2105901298034665,11.127983402862549,7.231781729803467,11.127983402862549,7.2529734298034665Q11.127983402862549,7.760502829803467,11.127983402862549,8.268033829803468C11.127983402862549,8.424033829803466,11.090053402862548,8.566493829803466,10.983203402862548,8.685633829803466C10.882583402862549,8.798173829803467,10.757223402862548,8.869233829803466,10.60709340286255,8.871193829803467C10.203033402862548,8.876533829803467,9.798967402862548,8.875283829803466,9.39490340286255,8.872263829803467C9.172836402862549,8.870473829803467,8.952907302862549,8.685813829803466,8.896277902862549,8.464633829803468C8.882080552862549,8.409613829803467,8.875018312862549,8.352993829803466,8.87526450286255,8.296173829803466Q8.876511192862548,7.775639829803467,8.87526450286255,7.2547543298034665C8.87526450286255,7.233562729803467,8.873483587862548,7.212192829803467,8.872593402862549,7.1910017298034665C8.88844280286255,7.189577329803467,8.90429170286255,7.187262195803466,8.92014110286255,7.187262195803466L11.095213402862548,7.187262195803466C11.107503402862548,7.186727432803467,11.119793402862548,7.188508349803467,11.132073402862549,7.189398529803467Z" fill="#2D2E33" fill-opacity="1"/></g><g><path d="M7.532425031018066,7.192051870419922C7.525301831018067,7.203626980419922,7.516219631018067,7.206654580419922,7.504822731018066,7.197928280419922C7.509112791018066,7.1864727234199215,7.523840531018067,7.183336970419922,7.532425031018066,7.192051870419922Z" fill="#2D2E33" fill-opacity="1"/></g><g><path d="M9.120433247894287,11.687698225402832C9.017681247894288,11.680038225402832,8.878778247894287,11.701768225402832,8.740765247894288,11.672208225402832C8.463316247894287,11.612908225402832,8.259948147894287,11.304647225402832,8.320851847894287,11.027910225402833C8.383358347894287,10.739776225402831,8.599904247894287,10.564011243402833,8.894093247894286,10.563298225402832C9.072173247894288,10.563298225402832,9.250254247894286,10.563298225402832,9.428334247894288,10.563298225402832C9.761344247894288,10.564901425402832,10.009594247894288,10.822583225402832,9.999084247894288,11.155059225402832C9.990534247894287,11.432864225402833,9.749774247894287,11.677368225402832,9.471074247894286,11.686988225402832C9.365824247894286,11.690728225402832,9.260760247894288,11.687698225402832,9.120433247894287,11.687698225402832Z" fill="#2D2E33" fill-opacity="1"/></g></g></g></svg>