<svg xmlns="http://www.w3.org/2000/svg" xmlns:xlink="http://www.w3.org/1999/xlink" fill="none" version="1.1" width="10" height="16" viewBox="0 0 10 16"><g transform="matrix(1,0,0,-1,0,30)"><g><path d="M4,15Q4,14.9015086,4.019215,14.80491Q4.03843,14.708311,4.076121,14.617317Q4.113812,14.526322,4.16853,14.44443Q4.223249,14.362537,4.292893,14.292893Q4.362537,14.223249,4.44443,14.16853Q4.526322,14.113812,4.617317,14.076121Q4.708311,14.03843,4.80491,14.019214999999999Q4.9015086,14,5,14Q5.0984914,14,5.19509,14.019214999999999Q5.291689,14.03843,5.382683,14.076121Q5.473678,14.113812,5.55557,14.16853Q5.637463,14.223249,5.707107,14.292893Q5.776751,14.362537,5.83147,14.44443Q5.886188,14.526322,5.923879,14.617317Q5.96157,14.708311,5.980785,14.80491Q6,14.9015086,6,15L6,29Q6,29.0985,5.980785,29.1951Q5.96157,29.2917,5.923879,29.3827Q5.886188,29.4737,5.83147,29.5556Q5.776751,29.6375,5.707107,29.7071Q5.637463,29.776699999999998,5.55557,29.8315Q5.473678,29.886200000000002,5.382683,29.9239Q5.291689,29.9616,5.19509,29.980800000000002Q5.0984914,30,5,30Q4.9015086,30,4.80491,29.980800000000002Q4.708311,29.9616,4.617317,29.9239Q4.526322,29.886200000000002,4.44443,29.8315Q4.362537,29.776699999999998,4.292893,29.7071Q4.223249,29.6375,4.16853,29.5556Q4.113812,29.4737,4.076121,29.3827Q4.03843,29.2917,4.019215,29.1951Q4,29.0985,4,29L4,15Z" fill-rule="evenodd" fill="#FF6262" fill-opacity="1"/></g><g><path d="M5,16.53659L8.240739999999999,20.31746Q8.31115,20.3996,8.3975,20.46479Q8.48385,20.52997,8.582139999999999,20.57518Q8.68044,20.62039,8.78612,20.64353Q8.89181,20.66667,9,20.66667Q9.09849,20.66667,9.19509,20.64745Q9.29169,20.628239999999998,9.38268,20.59055Q9.47368,20.55285,9.55557,20.49814Q9.63746,20.44342,9.70711,20.37377Q9.77675,20.30413,9.83147,20.22224Q9.88619,20.140340000000002,9.92388,20.04935Q9.96157,19.95836,9.98078,19.86176Q10,19.76516,10,19.66667Q10,19.48763,9.93789,19.31972Q9.87577,19.15181,9.75926,19.01588L9.75874,19.01528L5.75926,14.349209Q5.69516,14.274428,5.6177,14.21359Q5.54025,14.152751,5.45241,14.108192Q5.36458,14.063633,5.26974,14.037067Q5.1749,14.0105,5.0767,14.002946Q4.97849,13.99539,4.8807100000000005,14.007141Q4.78292,14.01889,4.689299999999999,14.049491Q4.59568,14.080092,4.5098400000000005,14.128369Q4.42399,14.176646,4.349209999999999,14.240743Q4.2908,14.290804,4.240740000000001,14.349209L0.24101399999999995,19.01556L0.24074300000000004,19.01588Q0.12422999999999995,19.15181,0.06211500000000003,19.31972Q0,19.48763,0,19.66667Q0,19.76516,0.019214999999999982,19.86176Q0.038429999999999964,19.95836,0.076121,20.04935Q0.11381200000000002,20.140340000000002,0.16852999999999996,20.22224Q0.22324900000000003,20.30413,0.29289299999999996,20.37377Q0.362537,20.44342,0.44443,20.49814Q0.526322,20.55285,0.617317,20.59055Q0.708311,20.628239999999998,0.80491,20.64745Q0.9015086,20.66667,1,20.66667Q1.10819,20.66667,1.213877,20.64353Q1.319564,20.62039,1.417857,20.57518Q1.516149,20.52997,1.602498,20.46479Q1.688847,20.3996,1.7592569999999998,20.31746L1.7595269999999998,20.317140000000002L5,16.53659Z" fill-rule="evenodd" fill="#FF6262" fill-opacity="1"/></g></g></svg>