<svg xmlns="http://www.w3.org/2000/svg" xmlns:xlink="http://www.w3.org/1999/xlink" fill="none" version="1.1" width="24" height="24" viewBox="0 0 24 24"><defs><clipPath id="master_svg0_3113_50309/2594_11389/3258_23723"><rect x="0" y="0" width="24" height="24" rx="0"/></clipPath></defs><g clip-path="url(#master_svg0_3113_50309/2594_11389/3258_23723)"><g><path d="M4.75539,1.463868C4.78669,1.487013,4.78669,1.487013,4.81861,1.510624C4.93205,1.595371,4.93205,1.595371,4.97409,1.633821C4.97409,1.649845,4.97409,1.66587,4.97409,1.682379C4.98753,1.6873559999999999,5.00096,1.692332,5.01481,1.697459C5.33503,1.887279,5.54254,2.3940799999999998,5.64089,2.7352C5.65447,2.79921,5.65447,2.79921,5.65447,2.89633C5.66803,2.8963,5.68159,2.89627,5.69556,2.89625C6.49929,2.8946199999999997,7.30303,2.89337,8.106770000000001,2.89261C8.20327,2.89252,8.29978,2.89242,8.39629,2.8923300000000003C8.42511,2.8923,8.42511,2.8923,8.454509999999999,2.89227C8.76559,2.89195,9.07668,2.89138,9.38776,2.89071C9.70697,2.8900300000000003,10.02617,2.88962,10.34538,2.88948C10.54234,2.88938,10.7393,2.8890599999999997,10.93627,2.88847C11.0873,2.88804,11.2383,2.8879900000000003,11.3894,2.88809C11.4513,2.88807,11.5133,2.88793,11.5752,2.88765C11.6598,2.88728,11.7443,2.8873699999999998,11.8288,2.88757C11.8534,2.88736,11.878,2.88715,11.9033,2.88693C12.0432,2.88782,12.1395,2.9045199999999998,12.2639,2.96917C12.2859,2.97918,12.308,2.9892000000000003,12.3307,2.99951C12.4066,3.0585,12.4343,3.12115,12.4583,3.21196C12.4696,3.32543,12.4701,3.43855,12.4707,3.55253C12.4711,3.58549,12.4715,3.61845,12.472,3.65141C12.4732,3.73766,12.4739,3.82391,12.4745,3.91017C12.4753,3.99839,12.4764,4.0866,12.4775,4.17482C12.4796,4.34753,12.4812,4.52025,12.4826,4.69297C12.5065,4.692740000000001,12.5065,4.692740000000001,12.5309,4.6925C12.6426,4.69187,12.7521,4.69245,12.8632,4.7063500000000005C12.8867,4.70925,12.9102,4.71216,12.9345,4.7151499999999995C12.9587,4.71835,12.983,4.721550000000001,13.008,4.72484C13.0337,4.72818,13.0594,4.73152,13.0858,4.73496C13.6001,4.80349,14.0883,4.93255,14.5746,5.11283C14.6193,5.1294,14.6641,5.14564,14.709,5.16186C14.8486,5.21354,14.9775,5.27043,15.1059,5.34576C15.1538,5.37185,15.1996,5.39016,15.2511,5.40769C15.3521,5.44316,15.4381,5.49607,15.5287,5.55232C15.594,5.59201,15.6605,5.62824,15.728,5.66413C15.8503,5.73018,15.9648,5.80347,16.0788,5.88265C16.0972,5.89504,16.1156,5.90743,16.1345,5.9202C16.3169,6.0449,16.4899,6.18131,16.662,6.31967C16.6817,6.33544,16.7013,6.35121,16.7215,6.36747C16.7595,6.39884,16.796,6.43186,16.8321,6.46534C16.8321,6.48137,16.8321,6.49739,16.8321,6.5139C16.8468,6.51634,16.8614,6.51878,16.8765,6.5213C16.9394,6.54139,16.9566,6.56223,16.9961,6.61405C17.0649,6.69893,17.1406,6.76787,17.2237,6.83854C17.2825,6.88931,17.3368,6.94382,17.391,6.99948C17.4095,7.0165,17.4281,7.03353,17.4472,7.05107C17.4882,7.09659,17.4882,7.09659,17.4882,7.16943C17.5015,7.17403,17.5148,7.17863,17.5284,7.18337C17.612,7.23416,17.6607,7.30602,17.719,7.38339C17.7421,7.41339,17.7651,7.44339,17.7881,7.47339C17.7991,7.4878,17.8101,7.50221,17.8213,7.51706C17.8493,7.55353,17.878,7.58947,17.9068,7.62533C17.958,7.6894,18.0022,7.75635,18.0471,7.82496C18.0693,7.85837,18.0916,7.89175,18.1139,7.92512C18.1325,7.95314,18.1325,7.95314,18.1515,7.98173C18.1808,8.025400000000001,18.2104,8.068819999999999,18.2403,8.11204C18.3397,8.25695,18.4255,8.4021,18.5009,8.56083C18.5327,8.62545,18.5687,8.68596,18.606,8.74757C18.623,8.78641,18.6399,8.82531,18.6561,8.8645C18.6847,8.9311,18.7161,8.99621,18.7472,9.06168C18.9906,9.59128,19.262,10.29546,19.262,10.88412C19.5427,10.87611,19.8234,10.86809,20.1125,10.85984C20.1205,9.14526,20.1285,7.43067,20.1368,5.66413C20.0566,5.64811,19.9764,5.63209,19.8938,5.61558C19.6474,5.5339,19.3696,5.41649,19.1891,5.22711C19.1681,5.21509,19.147,5.20308,19.1254,5.19069C19.0615,5.15042,19.05,5.12349,19.019,5.05716C18.995,5.04915,18.9709,5.04113,18.9461,5.03288C18.9461,5.01686,18.9461,5.00083,18.9461,4.98432C18.9243,4.9749300000000005,18.9243,4.9749300000000005,18.9019,4.96535C18.6483,4.82366,18.452,4.35727,18.3731,4.0857600000000005C18.2184,3.45405,18.2494,2.7671900000000003,18.5751,2.19427C18.6552,2.06299,18.7491,1.944874,18.849,1.8280530000000002C18.8597,1.814552,18.8704,1.8010519999999999,18.8815,1.787142C18.9101,1.751352,18.9402,1.716758,18.9704,1.682379C18.9865,1.682379,19.0025,1.682379,19.019,1.682379C19.019,1.666355,19.019,1.650331,19.019,1.633821C19.0992,1.5651929999999998,19.1853,1.50451,19.2713,1.443383C19.3058,1.418729,19.34,1.393541,19.3741,1.3682699999999999C19.5565,1.241344,19.7531,1.176517,19.9644,1.114692C20.0073,1.102055,20.0498,1.0883734999999999,20.0923,1.0744561C20.5857,0.9320708,21.1775,1.0101997,21.6341,1.237581C21.7171,1.283541,21.7988,1.331126,21.8794,1.381168C21.9281,1.411084,21.9773,1.438448,22.0276,1.465386C22.1077,1.5140609999999999,22.163,1.5652970000000002,22.2265,1.633821C22.2471,1.653852,22.2676,1.6738819999999999,22.2888,1.694519C22.3455,1.752573,22.3948,1.8132000000000001,22.4452,1.876611C22.4613,1.891634,22.4773,1.906657,22.4938,1.922134C22.6265,2.06294,22.7012,2.26312,22.7854,2.4350300000000002C22.7945,2.4521800000000002,22.8036,2.4693300000000002,22.813,2.487C23.052,2.9645900000000003,23.0469,3.58693,22.8826,4.086C22.7931,4.3408999999999995,22.6894,4.5789100000000005,22.5181,4.79009C22.5009,4.81266,22.4837,4.83522,22.466,4.8584700000000005C22.3692,4.98382,22.3692,4.98382,22.3237,5.03288C22.3077,5.03288,22.2917,5.03288,22.2751,5.03288C22.2671,5.05692,22.2591,5.08095,22.2508,5.10572C22.0645,5.28086,21.8276,5.42491,21.5978,5.53515C21.5823,5.54278,21.5667,5.55041,21.5507,5.55826C21.4514,5.60313,21.3558,5.62509,21.2481,5.64211C21.2089,5.64838,21.2089,5.64838,21.1689,5.65478C21.1491,5.65787,21.1292,5.66095,21.1088,5.66413C21.1088,5.70882,21.1088,5.70882,21.1089,5.75442C21.11,6.46148,21.1108,7.16855,21.1113,7.87562C21.1113,7.96262,21.1114,8.04963,21.1115,8.13664C21.1115,8.16262,21.1115,8.16262,21.1115,8.189129999999999C21.1117,8.46969,21.1121,8.75024,21.1125,9.0308C21.113,9.31863,21.1133,9.60645,21.1134,9.89428C21.1134,10.05597,21.1136,10.21766,21.1139,10.37935C21.1143,10.53146,21.1144,10.68356,21.1143,10.83567C21.1143,10.89157,21.1144,10.94746,21.1146,11.0034C21.1148,11.0795,21.1148,11.1557,21.1146,11.2319C21.1148,11.2653,21.1148,11.2653,21.1151,11.2993C21.1142,11.4749,21.0753,11.5944,20.963,11.7339C20.8038,11.8284,20.6436,11.8161,20.4627,11.8138C20.4153,11.8137,20.4153,11.8137,20.367,11.8135C20.2835,11.8132,20.2001,11.8125,20.1166,11.8117C20.0313,11.811,19.9459,11.8106,19.8605,11.8103C19.6934,11.8095,19.5263,11.8083,19.3592,11.8067C19.3576,11.8426,19.3576,11.8426,19.3559,11.8792C19.3126,12.8138,19.2185,13.6932,18.8904,14.5768C18.8738,14.6215,18.8576,14.6663,18.8414,14.7111C18.7896,14.8506,18.7327,14.9794,18.6573,15.1077C18.6312,15.1555,18.6129,15.2014,18.5953,15.2528C18.5598,15.3537,18.5069,15.4396,18.4506,15.5301C18.4108,15.5954,18.3746,15.6618,18.3387,15.7293C18.2435,15.9052,18.1325,16.0668,18.0104,16.225C17.9822,16.2633,17.9556,16.3027,17.9297,16.342599999999997C17.872,16.4271,17.8087,16.5034,17.7418,16.5806C17.6517,16.6845,17.6517,16.6845,17.568,16.793599999999998C17.5577,16.8064,17.5474,16.8193,17.5368,16.8325C17.5208,16.8325,17.5047,16.8325,17.4882,16.8325C17.4858,16.847099999999998,17.4833,16.861800000000002,17.4808,16.8769C17.4607,16.9396,17.4398,16.956899999999997,17.388,16.9964C17.303,17.0651,17.234,17.1408,17.1632,17.2237C17.078,17.3225,16.9862,17.4111,16.880699999999997,17.488C16.8647,17.488,16.848599999999998,17.488,16.8321,17.488C16.8253,17.5079,16.8253,17.5079,16.8184,17.5281C16.7668,17.6124,16.6933,17.6615,16.6149,17.7202C16.5843,17.7434,16.5537,17.7667,16.5232,17.7901C16.5096,17.8003,16.496000000000002,17.8104,16.482100000000003,17.8209C16.4423,17.8517,16.4423,17.8517,16.407,17.8896C16.3596,17.9355,16.3049,17.9634,16.2468,17.994C16.197699999999998,18.0223,16.197699999999998,18.0223,16.1477,18.0652C16.0563,18.1369,15.9592,18.1967,15.8601,18.2573C15.8409,18.2694,15.8216,18.2815,15.8017,18.294C15.7829,18.3055,15.7641,18.3171,15.7447,18.329C15.7278,18.3394,15.7109,18.3498,15.6935,18.3606C15.6359,18.3891,15.5832,18.4006,15.52,18.4106C15.52,18.4266,15.52,18.4427,15.52,18.4592C15.479,18.482,15.438,18.5048,15.3969,18.5275C15.3627,18.5465,15.3627,18.5465,15.3277,18.5659C15.2475,18.6075,15.166,18.6428,15.0826,18.6777C15.0565,18.6891,15.0304,18.7006,15.0035,18.7124C14.8321,18.7872,14.6604,18.8549,14.4836,18.9162C14.425,18.9367,14.3675,18.9583,14.3097,18.9809C14.1989,19.0226,14.0859,19.0507,13.9709,19.0783C13.9277,19.0888,13.8846,19.0993,13.8414,19.1099C13.8208,19.1149,13.8002,19.1199,13.7789,19.125C13.707,19.1426,13.6355,19.1613,13.5639,19.1799C13.3366,19.236,13.1086,19.265,12.8759,19.2877C12.8541,19.2898,12.8324,19.2919,12.8099,19.2941C12.7889,19.2961,12.768,19.298,12.7463,19.3C12.7184,19.3026,12.7184,19.3026,12.6899,19.3052C12.6128,19.3099,12.5355,19.3089,12.4583,19.3089C12.4583,19.5813,12.4583,19.8538,12.4583,20.1344C14.3988,20.1344,16.3393,20.1344,18.3387,20.1344C18.3547,20.0463,18.3707,19.9582,18.3873,19.8673C18.4128,19.7929,18.4128,19.7929,18.44,19.7357C18.4502,19.7143,18.4603,19.693,18.4708,19.6709C18.4813,19.6496,18.4918,19.6283,18.5027,19.6063C18.5128,19.5847,18.523,19.563,18.5334,19.5406C18.5915,19.4205,18.6535,19.3202,18.7448,19.2226C18.7809,19.1845,18.7809,19.1845,18.8155,19.1193C18.8536,19.0587,18.8829,19.0471,18.9461,19.0176C18.9542,18.9935,18.9622,18.9695,18.9704,18.9447C18.9865,18.9447,19.0025,18.9447,19.019,18.9447C19.0284,18.9229,19.0284,18.9229,19.038,18.9005C19.1274,18.7408,19.3503,18.6435,19.505,18.5563C19.5265,18.5437,19.5479,18.5311,19.57,18.5182C20.0875,18.2339,20.7931,18.2183,21.3535,18.3762C21.4684,18.4136,21.5772,18.4582,21.6807,18.5206C21.7388,18.5576,21.7388,18.5576,21.8,18.5787C21.9924,18.6598,22.1714,18.8272,22.3237,18.969C22.3237,18.985,22.3237,19.0011,22.3237,19.0176C22.3398,19.0176,22.3558,19.0176,22.3723,19.0176C22.8512,19.5672,23.0292,20.2178,22.9798,20.9356C22.9189,21.4819,22.6385,21.9661,22.2508,22.3438C22.2382,22.3573,22.2255,22.3708,22.2124,22.3847C21.983,22.6253,21.6624,22.7689,21.3518,22.8779C21.3279,22.887,21.3041,22.8961,21.2795,22.9054C20.6994,23.0958,20.0639,22.9792,19.5224,22.73C19.4614,22.6977,19.4114,22.6557,19.3592,22.6109C19.3185,22.5817,19.2775,22.5529,19.2362,22.5244C19.1961,22.4967,19.1562,22.4689,19.1162,22.4409C19.0977,22.4282,19.0792,22.4154,19.0601,22.4023C19.0466,22.391,19.033,22.3797,19.019,22.3681C19.019,22.3521,19.019,22.336,19.019,22.3195C19.0059,22.3148,18.9927,22.3101,18.9792,22.3053C18.6483,22.1071,18.457,21.6201,18.3531,21.2676C18.3387,21.2027,18.3387,21.2027,18.3387,21.1056C18.3251,21.1056,18.3115,21.1056,18.2976,21.1057C17.4938,21.1073,16.6901,21.1085,15.8864,21.1093C15.7899,21.1094,15.6934,21.1095,15.5968,21.1096C15.568,21.1096,15.568,21.1096,15.5386,21.1096C15.2275,21.11,14.9165,21.1105,14.6054,21.1112C14.2862,21.1119,13.967,21.1123,13.6478,21.1124C13.4508,21.1125,13.2538,21.1128,13.0569,21.1134C12.9058,21.1139,12.7548,21.1139,12.6038,21.1138C12.5418,21.1138,12.4798,21.114,12.4179,21.1143C12.3334,21.1146,12.2488,21.1145,12.1643,21.1143C12.1397,21.1145,12.1152,21.1148,12.0899,21.115C11.95,21.1141,11.8537,21.0974,11.7293,21.0327C11.6962,21.0177,11.6962,21.0177,11.6625,21.0024C11.5867,20.9435,11.5589,20.8806,11.5349,20.7899C11.5236,20.6782,11.523,20.5669,11.5224,20.4547C11.522,20.4223,11.5216,20.3899,11.5211,20.3574C11.52,20.2726,11.5192,20.1878,11.5186,20.103C11.5179,20.0162,11.5168,19.9295,11.5157,19.8427C11.5136,19.6729,11.5119,19.5031,11.5106,19.3332C11.4914,19.3312,11.4723,19.3293,11.4525,19.3273C11.3643,19.3182,11.276,19.309,11.1878,19.2997C11.1426,19.2951,11.1426,19.2951,11.0965,19.2904C10.75049,19.254,10.41002,19.2,10.07911,19.0902C9.99557,19.0634,9.91142,19.042,9.82634,19.0206C9.52715,18.9417,9.24615,18.8257,8.96752,18.6922C8.90086,18.6604,8.83398,18.6298,8.76629,18.6003C8.66678,18.5566,8.57002,18.5084,8.47318,18.4592C8.47318,18.4431,8.47318,18.4271,8.47318,18.4106C8.44411,18.4031,8.415040000000001,18.3956,8.38509,18.3878C8.149090000000001,18.3094,7.93408,18.1421,7.74335,17.9859C7.69561,17.9477,7.69561,17.9477,7.63884,17.9165C7.55706,17.8659,7.48714,17.8058,7.41464,17.7429C7.3873,17.7194,7.35993,17.6959,7.33254,17.6724C7.31978,17.6614,7.30703,17.6504,7.29389,17.6391C7.26364,17.6139,7.23187,17.5906,7.19984,17.5677C7.18703,17.5574,7.17422,17.5471,7.16102,17.5366C7.16102,17.5205,7.16102,17.5045,7.16102,17.488C7.14348,17.483,7.12594,17.478,7.10786,17.4728C7.03537,17.4374,7.00197,17.3983,6.95324,17.3353C6.89867,17.2709,6.83437,17.2188,6.77033,17.1641C6.67123,17.0786,6.58219,16.986800000000002,6.50494,16.881C6.50494,16.865000000000002,6.50494,16.849,6.50494,16.8325C6.49166,16.8279,6.47838,16.8233,6.46469,16.8185C6.38114,16.767699999999998,6.33239,16.6959,6.2741,16.618499999999997C6.25107,16.5885,6.22803,16.558500000000002,6.205,16.5285C6.19404,16.5141,6.18308,16.4997,6.17179,16.4848C6.1438,16.4484,6.11512,16.412399999999998,6.08635,16.3766C6.03518,16.3125,5.99096,16.2456,5.94606,16.1769C5.93036,16.1538,5.93036,16.1538,5.91435,16.130200000000002C5.7621,15.9053,5.61991,15.6747,5.49225,15.4349C5.46967,15.3934,5.44599,15.3524,5.42154,15.312C5.38796,15.2557,5.36235,15.1986,5.33734,15.1381C5.30712,15.0677,5.27408,14.9988,5.24138,14.9296C5.19233,14.8238,5.14868,14.7198,5.11428,14.6085C5.09132,14.537,5.06435,14.4673,5.03787,14.397C4.965,14.1946,4.91547,13.9875,4.86569,13.7784C4.84961,13.7126,4.83124,13.6474,4.81311,13.5821C4.75697,13.359,4.73388,13.1274,4.706799999999999,12.8993C4.704330000000001,12.8785,4.70186,12.8578,4.69932,12.8364C4.69709,12.8162,4.69486,12.7959,4.69256,12.775C4.6906,12.7574,4.68865,12.7398,4.686640000000001,12.7217C4.68064,12.6273,4.6825,12.5325,4.6825,12.438C4.40184,12.438,4.12118,12.438,3.83202,12.438C3.83457,13.1755,3.83723,13.9131,3.84007,14.6507C3.8404,14.7377,3.84074,14.8248,3.84107,14.9118C3.84114,14.9291,3.8412,14.9465,3.84127,14.9643C3.84234,15.2451,3.84333,15.5258,3.84429,15.8065C3.84527,16.0945,3.84634,16.3824,3.8475,16.6704C3.84815,16.8322,3.84875,16.994,3.84925,17.1558C3.84973,17.3079,3.85032,17.4601,3.85099,17.6123C3.85122,17.6682,3.8514,17.7241,3.85155,17.7801C3.85175,17.8563,3.85209,17.9325,3.85248,18.0087C3.8525,18.031,3.85253,18.0533,3.85255,18.0762C3.85268,18.0966,3.85282,18.1171,3.85295,18.1381C3.85305,18.1645,3.85305,18.1645,3.85315,18.1914C3.85646,18.2427,3.86663,18.2884,3.88062,18.3378C3.89632,18.3405,3.91201,18.3432,3.92818,18.346C4.34469,18.4331,4.7033000000000005,18.6417,4.9983900000000006,18.9447C5.02194,18.9633,5.0455,18.9818,5.06977,19.0009C5.16005,19.0749,5.22421,19.1647,5.28998,19.2604C5.30492,19.282,5.30492,19.282,5.32016,19.3041C5.35247,19.3534,5.38217,19.4035,5.41147,19.4546C5.42532,19.4785,5.43916,19.5024,5.45343,19.5271C5.74577,20.0665,5.78113,20.7639,5.61596,21.3502C5.57856,21.465,5.53393,21.5736,5.47146,21.677C5.43445,21.7351,5.43445,21.7351,5.41337,21.7962C5.33215,21.9885,5.16467,22.1673,5.02269,22.3195C5.00665,22.3195,4.99061,22.3195,4.97409,22.3195C4.97409,22.3355,4.97409,22.3516,4.97409,22.3681C4.45545,22.8192,3.83255,23.0153,3.1516,22.9811C2.77163,22.9495,2.32806,22.8105,2.03388,22.5623C1.9977960000000001,22.545,1.9977960000000001,22.545,1.960982,22.5274C1.878743,22.4846,1.829491,22.4358,1.766588,22.3681C1.74604,22.3481,1.725492,22.328,1.704322,22.3074C1.647672,22.2493,1.598341,22.1887,1.547895,22.1253C1.5318580000000002,22.1103,1.51582,22.0952,1.4992969999999999,22.0798C1.4362409999999999,22.0128,1.395765,21.939,1.353501,21.8582C1.342194,21.8372,1.330886,21.8161,1.319236,21.7944C1.00752343,21.1962,0.9219233,20.566,1.110509,19.9159C1.199389,19.6471,1.3150819999999999,19.4047,1.4992969999999999,19.1875C1.513549,19.1703,1.527801,19.153,1.542485,19.1352C1.583643,19.0867,1.626066,19.0399,1.669391,18.9933C1.683487,18.9777,1.6975820000000001,18.962,1.712105,18.9459C1.9093740000000001,18.7364,2.1414,18.591,2.4014100000000003,18.4728C2.41879,18.4648,2.4361699999999997,18.4568,2.4540699999999998,18.4485C2.55424,18.4051,2.6498999999999997,18.3781,2.75762,18.3596C2.7814300000000003,18.3554,2.80524,18.3513,2.82977,18.347C2.84779,18.344,2.8658,18.3409,2.88435,18.3378C2.8843300000000003,18.3242,2.8843,18.3107,2.88427,18.2968C2.8826400000000003,17.4945,2.8813899999999997,16.6923,2.88063,15.89C2.88054,15.7936,2.8804499999999997,15.6973,2.88035,15.6009C2.88033,15.5817,2.8803099999999997,15.5625,2.88029,15.5428C2.87997,15.2323,2.8794,14.9218,2.87873,14.6113C2.87805,14.2927,2.87764,13.974,2.87749,13.6553C2.87739,13.4588,2.8770800000000003,13.2622,2.87649,13.0656C2.87606,12.9148,2.87601,12.764,2.8761099999999997,12.6131C2.87609,12.5513,2.87594,12.4895,2.87566,12.4277C2.8753,12.3433,2.87539,12.2588,2.87559,12.1744C2.87537,12.15,2.87516,12.1256,2.87494,12.1004C2.87614,11.9127,2.91492,11.7532,3.00585,11.5882C3.16841,11.4679,3.36637,11.4765,3.55951,11.4763C3.59102,11.4759,3.62254,11.4755,3.655,11.4751C3.73805,11.474,3.82109,11.4735,3.90415,11.4732C3.98919,11.4727,4.07422,11.4717,4.15926,11.4707C4.32557,11.4689,4.49188,11.4677,4.6582,11.4668C4.66605,11.4126,4.6738800000000005,11.3583,4.6817,11.3041C4.6860599999999994,11.2739,4.69042,11.2437,4.69491,11.2126C4.708880000000001,11.1119,4.719609999999999,11.0111,4.72958,10.90991C4.76003,10.62348,4.81794,10.34812,4.90043,10.07182C4.926769999999999,9.98141,4.94965,9.89047,4.97257,9.79915C5.00841,9.66311,5.05484,9.54089,5.11628,9.41457C5.14209,9.35905,5.16131,9.30528,5.17911,9.2468C5.21622,9.12879,5.27208,9.02208,5.32861,8.9123C5.35496,8.860299999999999,5.37893,8.80907,5.40084,8.75515C5.4378,8.67006,5.48117,8.59131,5.52699,8.51075C5.55414,8.46186,5.57877,8.41259,5.60283,8.36214C5.6936,8.178560000000001,5.81028,8.00961,5.93524,7.84782C5.97122,7.79953,6.00336,7.74983,6.03566,7.69902C6.12062,7.56942,6.22178,7.45437,6.32298,7.33739C6.38212,7.27013,6.38212,7.27013,6.42492,7.2086C6.43529,7.19567,6.44566,7.18275,6.45634,7.16943C6.47238,7.16943,6.48842,7.16943,6.50494,7.16943C6.50995,7.15191,6.51496,7.13438,6.52013,7.11632C6.55557,7.04389,6.59474,7.01051,6.65776,6.96183C6.72219,6.9073,6.77432,6.84305,6.82909,6.77907C6.9147,6.68005,7.00656,6.59109,7.11242,6.5139C7.12846,6.5139,7.1445,6.5139,7.16102,6.5139C7.16783,6.49404,7.16783,6.49404,7.17478,6.47378C7.22629,6.38951,7.29982,6.3404,7.37819,6.28173C7.40882,6.25848,7.43942,6.23518,7.46998,6.21183C7.48354,6.20164,7.4971,6.19146,7.51107,6.18096C7.5508,6.15019,7.5508,6.15019,7.58622,6.11226C7.63417,6.06576,7.69028,6.03844,7.74847,6.00651C7.79971,5.97711,7.79971,5.97711,7.8657,5.91906C7.92845,5.86682,7.98938,5.82671,8.06085,5.78771C8.11622,5.75709,8.17006,5.72434,8.22411,5.69145C8.33344,5.62558,8.44468,5.56403,8.557179999999999,5.50376C8.59965,5.48049,8.64159,5.45624,8.68304,5.43121C8.73934,5.39774,8.79636,5.37221,8.85684,5.34727C8.927240000000001,5.31708,8.99619,5.28407,9.06547,5.25139C9.17137,5.2024,9.27537,5.15882,9.38677,5.1244C9.45882,5.10134,9.52919,5.0745,9.60006,5.04806C9.79501,4.97806,9.99375,4.92647,10.19456,4.87612C10.24039,4.864599999999999,10.28614,4.85274,10.33188,4.84083C10.57535,4.77796,10.81545,4.73865,11.0656,4.71422C11.0981,4.7110199999999995,11.0981,4.7110199999999995,11.1312,4.70776C11.1628,4.70486,11.1628,4.70486,11.195,4.701890000000001C11.2136,4.70016,11.2323,4.69844,11.2515,4.69666C11.3377,4.69175,11.4242,4.69297,11.5106,4.69297C11.5106,4.42858,11.5106,4.16418,11.5106,3.89177C8.61181,3.87975,8.61181,3.87975,5.65447,3.86749C5.63041,3.97966,5.60635,4.09183,5.58157,4.20739C5.55261,4.2798099999999994,5.52556,4.34321,5.48893,4.41073C5.48043,4.4270499999999995,5.47194,4.44337,5.46318,4.460179999999999C5.40884,4.562250000000001,5.34999,4.6578,5.27593,4.7470300000000005C5.23776,4.7930600000000005,5.23776,4.7930600000000005,5.19686,4.85942C5.1414,4.93979,5.08128,5.00506,5.01206,5.07385C4.97827,5.10779,4.97827,5.10779,4.94381,5.14242C4.88314,5.1972,4.826090000000001,5.23554,4.75539,5.27567C4.7293400000000005,5.29714,4.70352,5.31889,4.6779399999999995,5.34092C4.42213,5.53419,4.09713,5.64138,3.78343,5.68841C3.76498,5.69154,3.74653,5.69467,3.72752,5.6979C3.12572,5.78396,2.48413,5.65713,1.989458,5.29872C1.930277,5.25171,1.872567,5.20345,1.8151869999999999,5.15428C1.785832,5.131,1.756472,5.10773,1.727102,5.08447C1.7080579999999999,5.06745,1.689013,5.05042,1.669391,5.03288C1.669391,5.01686,1.669391,5.00083,1.669391,4.98432C1.653354,4.98432,1.637316,4.98432,1.620793,4.98432C1.584233,4.94062,1.549617,4.89528,1.5160019999999998,4.849270000000001C1.488328,4.8116699999999994,1.488328,4.8116699999999994,1.460095,4.7733C1.450661,4.76019,1.441227,4.74708,1.4315069999999999,4.73357C1.41164,4.7061399999999995,1.391438,4.67896,1.370937,4.652C1.0364852,4.205,0.9658196,3.60602,1.013312,3.06628C1.0517441,2.80213,1.13146,2.54975,1.256304,2.31363C1.275067,2.27571,1.2938,2.23778,1.3124959999999999,2.19983C1.326028,2.1732899999999997,1.33956,2.14675,1.353501,2.1193999999999997C1.369539,2.1193999999999997,1.385576,2.1193999999999997,1.4021,2.1193999999999997C1.409116,2.09687,1.4161329999999999,2.07433,1.423362,2.05112C1.450698,1.973727,1.450698,1.973727,1.4992969999999999,1.90089C1.515334,1.90089,1.531372,1.90089,1.547895,1.90089C1.553909,1.88737,1.559923,1.87385,1.56612,1.85992C1.631339,1.739363,1.711706,1.665384,1.823445,1.5900050000000001C1.867983,1.5598990000000001,1.867983,1.5598990000000001,1.913903,1.5078740000000002C1.97306,1.452579,2.02943,1.436386,2.10678,1.41531C2.10678,1.399286,2.10678,1.383262,2.10678,1.366752C2.31156,1.2576990000000001,2.51743,1.170087,2.73856,1.0996835C2.76152,1.0918592,2.7844800000000003,1.0840349,2.8081300000000002,1.0759735C3.44651,0.891266,4.23677,1.0520436,4.75539,1.463868ZM19.5597,2.44869C19.2956,2.76853,19.2293,3.14311,19.2402,3.54551C19.2714,3.8595,19.4241,4.15853,19.6508,4.37735C19.6722,4.40091,19.6936,4.42448,19.7157,4.44876C19.8014,4.53443,19.8976,4.579610000000001,20.0077,4.62772C20.0262,4.63613,20.0446,4.64453,20.0636,4.65319C20.3556,4.785299999999999,20.7511,4.81489,21.0606,4.71877C21.4313,4.57442,21.7128,4.35055,21.8864,3.98888C21.8953,3.97201,21.9043,3.95515,21.9135,3.93777C22.0591,3.64626,22.0716,3.28795,21.9753,2.97912C21.907,2.7769500000000003,21.8466,2.61014,21.692,2.4593100000000003C21.6764,2.43878,21.6609,2.41825,21.6449,2.39709C21.587,2.32869,21.5243,2.28883,21.449,2.2408C21.439,2.2293700000000003,21.4291,2.21795,21.4188,2.20618C21.356,2.14996,21.2821,2.12371,21.2045,2.0936C21.1881,2.0872200000000003,21.1718,2.0808299999999997,21.1549,2.07425C20.578,1.854752,19.99,2.0080400000000003,19.5597,2.44869ZM2.42267,2.33791C2.40212,2.35694,2.38157,2.3759699999999997,2.3604000000000003,2.39557C2.34086,2.41661,2.32131,2.43764,2.30117,2.4593100000000003C2.28795,2.47302,2.27473,2.48672,2.26112,2.50085C2.03342,2.76014,1.951133,3.11676,1.960982,3.45475C1.9884460000000002,3.8356,2.1511,4.164289999999999,2.42267,4.43046C2.6488199999999997,4.61974,2.92971,4.74669,3.22454,4.76581C3.25114,4.76788,3.25114,4.76788,3.27827,4.76998C3.33396,4.77205,3.38763,4.76976,3.44324,4.76581C3.47105,4.76387,3.49887,4.7619299999999996,3.52752,4.759930000000001C3.90777,4.72209,4.229,4.53872,4.47952,4.25031C4.64133,4.03911,4.7389399999999995,3.76707,4.75539,3.5033C4.75746,3.47016,4.75746,3.47016,4.75957,3.43635C4.76792,3.14368,4.70748,2.90685,4.561,2.65354C4.54446,2.62424,4.54446,2.62424,4.52759,2.59436C4.3833400000000005,2.35852,4.18048,2.20351,3.92922,2.09512C3.90266,2.0816,3.8761,2.06808,3.84873,2.05415C3.38035,1.88758,2.77387,1.9676559999999998,2.42267,2.33791ZM10.46547,5.79317C10.41644,5.80542,10.3673,5.81705,10.31812,5.82863C10.09044,5.88367,9.8796,5.96159,9.66384,6.0526C9.62087,6.06944,9.57785,6.08617,9.53475,6.10267C9.43133,6.14387,9.33277,6.19246,9.23376,6.24323C9.18774,6.26618,9.14039,6.28648,9.09281,6.30601C8.998840000000001,6.34792,8.91413,6.39851,8.82656,6.45225C8.76975,6.48661,8.712299999999999,6.51875,8.6539,6.55032C8.45879,6.6579,8.28224,6.78752,8.10869,6.92664C8.077539999999999,6.95138,8.077539999999999,6.95138,8.04576,6.97662C7.66096,7.28608,7.29423,7.62871,6.99092,8.0192C6.97407,8.040099999999999,6.95722,8.06101,6.93986,8.082550000000001C6.85476,8.17413,6.85476,8.17413,6.82083,8.28627C6.80479,8.28627,6.78875,8.28627,6.77223,8.28627C6.73766,8.335149999999999,6.73766,8.335149999999999,6.70389,8.39704C6.65978,8.47329,6.61551,8.54659,6.56265,8.61707C6.50975,8.68895,6.47126,8.76334,6.4329,8.84373C6.40663,8.895430000000001,6.37698,8.94321,6.34548,8.991869999999999C6.30112,9.06145,6.26524,9.13016,6.23442,9.20697C6.20687,9.27295,6.17573,9.33702,6.14501,9.40158C5.99219,9.73305,5.88595,10.06852,5.80026,10.42282C5.79222,10.45544,5.79222,10.45544,5.78401,10.48873C5.76733,10.55672,5.75107,10.6248,5.73496,10.69292C5.73004,10.71314,5.72512,10.73337,5.72005,10.7542C5.63106,11.1408,5.62174,11.5262,5.6225,11.9213C5.62257,12.0049,5.622,12.0886,5.62139,12.1723C5.61994,12.6581,5.67412,13.1197,5.79571,13.5897C5.80352,13.6216,5.81132,13.6535,5.8191,13.6855C5.8682,13.8819,5.93236,14.0659,6.01049,14.2525C6.03935,14.3223,6.06492,14.3921,6.08882,14.4638C6.1779,14.7123,6.30684,14.949,6.4459,15.1728C6.48411,15.2358,6.51885,15.3001,6.55354,15.3651C6.65192,15.5475,6.65192,15.5475,6.77223,15.7156C6.78827,15.7156,6.80431,15.7156,6.82083,15.7156C6.82756,15.7299,6.8343,15.7441,6.84124,15.7588C6.88856,15.8494,6.9524,15.9267,7.01522,16.006999999999998C7.03895,16.0375,7.03895,16.0375,7.06316,16.0687C7.20528,16.2473,7.36185,16.4069,7.52551,16.5654C7.56911,16.4899,7.58113,16.4317,7.58521,16.345C7.58661,16.320999999999998,7.58802,16.297,7.58946,16.2723C7.59163,16.234099999999998,7.59163,16.234099999999998,7.59385,16.1951C7.61159,15.9448,7.65454,15.7306,7.7442,15.4971C7.75441,15.4677,7.76462,15.4382,7.77514,15.4079C7.87915,15.1235,8.03017,14.8079,8.25449,14.5988C8.27102,14.5695,8.27102,14.5695,8.2879,14.5396C8.32926,14.4745,8.37596,14.4349,8.436350000000001,14.3876C8.478909999999999,14.3533,8.478909999999999,14.3533,8.52481,14.2892C8.878440000000001,13.8521,9.56317,13.584,10.10123,13.5063C10.1252,13.5024,10.14917,13.4985,10.17387,13.4945C10.36998,13.4641,10.55985,13.4505,10.75814,13.4506C10.78779,13.4505,10.81744,13.4503,10.84798,13.4501C10.92828,13.4498,11.0086,13.4496,11.0889,13.4496C11.1394,13.4495,11.19,13.4494,11.2405,13.4493C11.418,13.4489,11.5955,13.4487,11.773,13.4487C11.9365,13.4487,12.1001,13.4482,12.2637,13.4474C12.4056,13.4468,12.5475,13.4465,12.6894,13.4466C12.7735,13.4466,12.8576,13.4465,12.9417,13.4459C13.5009,13.4431,14.0565,13.4655,14.5723,13.7005C14.6008,13.7132,14.6293,13.726,14.6587,13.7391C14.9659,13.8843,15.2515,14.0704,15.4957,14.3075C15.5182,14.329,15.5408,14.3505,15.564,14.3727C15.618,14.4298,15.6663,14.4881,15.7144,14.5502C15.7257,14.5635,15.7371,14.5767,15.7488,14.5903C15.9931,14.8836,16.1725,15.2283,16.2823,15.5926C16.293100000000003,15.6282,16.3046,15.6635,16.316499999999998,15.6987C16.3682,15.8563,16.3868,16.0074,16.3978,16.1724C16.4013,16.2211,16.404899999999998,16.2698,16.4086,16.3185C16.410800000000002,16.3504,16.410800000000002,16.3504,16.413,16.3828C16.4191,16.4449,16.4301,16.5045,16.4433,16.5654C16.6548,16.3886,16.830399999999997,16.1984,17.0022,15.9827C17.0193,15.9616,17.0364,15.9405,17.0539,15.9187C17.0694,15.8993,17.085,15.8798,17.1009,15.8598C17.1147,15.8425,17.1286,15.8252,17.1428,15.8073C17.1769,15.7662,17.1769,15.7662,17.1723,15.7156C17.1883,15.7156,17.2044,15.7156,17.2209,15.7156C17.2555,15.6668,17.2555,15.6668,17.2892,15.6049C17.3328,15.5295,17.3764,15.4572,17.429,15.3879C17.4915,15.3031,17.5352,15.2116,17.5808,15.1169C17.6097,15.0601,17.6097,15.0601,17.6598,14.9873C17.7124,14.906,17.744,14.8252,17.7784,14.7351C17.8029,14.6745,17.8311,14.6185,17.8618,14.5609C17.9428,14.403,17.9977,14.2353,18.054,14.0674C18.0653,14.0342,18.0769,14.001,18.0889,13.9679C18.1466,13.8056,18.1833,13.6386,18.2198,13.4705C18.2307,13.4204,18.2419,13.3704,18.2532,13.3203C18.3444,12.909,18.3715,12.5136,18.3706,12.0928C18.3706,12.0107,18.3711,11.9286,18.3717,11.8465C18.3732,11.3773,18.323,10.92695,18.2095,10.47162C18.1973,10.42216,18.1856,10.37257,18.174,10.32295C18.1273,10.12863,18.0655,9.9497,17.9826,9.76774C17.9528,9.70105,17.9277,9.63463,17.9043,9.56546C17.708,9.01634,17.3859,8.52285,17.0265,8.06775C17.0087,8.04516,16.9909,8.02256,16.9725,7.99928C16.8285,7.8202,16.674300000000002,7.65166,16.516199999999998,7.48506C16.4989,7.46675,16.4816,7.44844,16.4638,7.42958C16.3368,7.2988,16.197,7.18571,16.0545,7.07232C16.0333,7.0552,16.0121,7.03808,15.9903,7.02044C15.6065,6.71117,15.2049,6.4632,14.7636,6.24503C14.7082,6.21761,14.6531,6.18979,14.5981,6.16138C14.4913,6.10617,14.387,6.06002,14.272,6.02477C14.1977,6.0008,14.1249,5.97365,14.0518,5.94657C13.8793,5.88487,13.7057,5.83715,13.5274,5.79463C13.4998,5.78769,13.4722,5.78074,13.4438,5.77358C12.9952,5.66534,12.55,5.62766,12.0892,5.63036C12.0104,5.63075,11.9315,5.63036,11.8526,5.6299C11.3813,5.62936,10.92285,5.67833,10.46547,5.79317ZM9.29935,14.8902C9.27836,14.9065,9.25738,14.9228,9.23576,14.9396C8.97129,15.1575,8.76422,15.4869,8.667570000000001,15.8128C8.66096,15.8302,8.65435,15.8477,8.64754,15.8658C8.53342,16.1689,8.53701,16.497500000000002,8.53707,16.8168C8.53696,16.8848,8.536069999999999,16.9528,8.535160000000001,17.0208C8.53502,17.0643,8.53492,17.1078,8.534880000000001,17.1513C8.53435,17.1816,8.53435,17.1816,8.53382,17.2126C8.53437,17.3286,8.53437,17.3286,8.59266,17.427C8.638359999999999,17.4602,8.67992,17.4863,8.731359999999999,17.5093C8.805209999999999,17.5441,8.87348,17.5824,8.94246,17.6261C9.24476,17.8091,9.57214,17.9457,9.90753,18.0549C9.93952,18.0655,9.97138,18.0764,10.0031,18.0878C10.17842,18.1496,10.35895,18.1896,10.54013,18.23C10.56537,18.2357,10.56537,18.2357,10.59111,18.2415C11.8174,18.515,13.1322,18.4249,14.305,17.9736C14.3309,17.9637,14.3569,17.9537,14.3836,17.9435C14.6992,17.8168,15.0151,17.6722,15.3013,17.488C15.32,17.4767,15.3387,17.4655,15.358,17.4539C15.4549,17.4014,15.4549,17.4014,15.52,17.3181C15.5222,17.2849,15.5231,17.2516,15.5231,17.2183C15.5232,17.1977,15.5233,17.1771,15.5233,17.1559C15.5233,17.1335,15.5232,17.1112,15.5232,17.0882C15.5232,17.0651,15.5232,17.042,15.5233,17.0183C15.5233,16.9693,15.5232,16.920299999999997,15.5231,16.871299999999998C15.523,16.797,15.5231,16.7228,15.5233,16.6485C15.5233,16.6008,15.5232,16.5531,15.5232,16.505499999999998C15.5233,16.4725,15.5233,16.4725,15.5233,16.4389C15.5226,16.2245,15.5141,16.027,15.4304,15.8279C15.4239,15.8126,15.4175,15.7972,15.4108,15.7814C15.28,15.4731,15.28,15.4731,15.0826,15.2058C15.0701,15.1909,15.0577,15.1761,15.0449,15.1608C14.7157,14.7691,14.2565,14.4638,13.7385,14.4095C13.6105,14.3999,13.4824,14.401,13.3541,14.401C13.3228,14.401,13.2915,14.4009,13.2592,14.4008C13.1738,14.4006,13.0885,14.4005,13.0031,14.4005C12.9497,14.4005,12.8962,14.4004,12.8427,14.4004C12.6557,14.4002,12.4686,14.4001,12.2816,14.4001C12.108,14.4001,11.9343,14.3998,11.7607,14.3994C11.611,14.3991,11.4613,14.399,11.3117,14.399C11.2225,14.399,11.1334,14.399,11.0443,14.3987C10.94473,14.3984,10.84519,14.3985,10.74565,14.3987C10.71659,14.3985,10.68754,14.3984,10.6576,14.3983C10.13906,14.4002,9.70679,14.5724,9.29935,14.8902ZM3.2123,19.2374C2.8649199999999997,19.2542,2.54293,19.4372,2.3102799999999997,19.6898C2.21889,19.7898,2.21889,19.7898,2.1796800000000003,19.9159C2.16364,19.9159,2.1475999999999997,19.9159,2.13108,19.9159C1.928948,20.3938,1.9181949999999999,20.7779,2.1113299999999997,21.2573C2.1338,21.3121,2.15664,21.3667,2.1796800000000003,21.4212C2.19571,21.4212,2.2117500000000003,21.4212,2.22827,21.4212C2.23379,21.4342,2.2393,21.4472,2.24498,21.4607C2.32145,21.5989,2.41179,21.6777,2.5441599999999998,21.7611C2.55416,21.7725,2.5641499999999997,21.7839,2.57444,21.7956C2.7942,21.9932,3.18152,22.0364,3.45994,22.0236C3.60282,22.0113,3.72393,21.9841,3.85632,21.9311C3.89725,21.9172,3.93826,21.9035,3.97934,21.8901C3.99766,21.884,4.01599,21.8779,4.03487,21.8716C4.04812,21.8672,4.0613600000000005,21.8628,4.07502,21.8582C4.07502,21.8422,4.07502,21.8262,4.07502,21.8097C4.09265,21.8036,4.11029,21.7975,4.1284600000000005,21.7912C4.40995,21.6668,4.57685,21.3687,4.69313,21.098C4.73017,20.9963,4.75106,20.8981,4.75539,20.7899C4.75637,20.7662,4.75734,20.7424,4.7583400000000005,20.718C4.76708,20.2858,4.6497,19.9343,4.348380000000001,19.6155C4.10703,19.3728,3.80765,19.2549,3.46754,19.2361C3.4494,19.235,3.43126,19.2339,3.41258,19.2328C3.34571,19.231,3.27916,19.236,3.2123,19.2374ZM19.9895,19.3742C19.9639,19.3856,19.9639,19.3856,19.9378,19.3973C19.8291,19.4506,19.7618,19.511,19.6874,19.6058C19.6494,19.6505,19.6096,19.6833,19.5633,19.7191C19.4666,19.7993,19.423,19.8915,19.3744,20.0054C19.362,20.0331,19.362,20.0331,19.3493,20.0612C19.2136,20.3648,19.2015,20.7353,19.2863,21.057C19.3267,21.1597,19.3759,21.2535,19.4321,21.3484C19.4432,21.3678,19.4542,21.3873,19.4655,21.4074C19.5949,21.6195,19.783,21.7919,20.0153,21.8825C20.0409,21.893,20.0664,21.9035,20.0928,21.9143C20.4773,22.063,20.8637,22.0607,21.2479,21.9005C21.4692,21.7829,21.686,21.6157,21.8135,21.3969C21.8222,21.3821,21.831,21.3673,21.84,21.3521C22.0423,20.9792,22.0764,20.582,21.9609,20.1761C21.8257,19.7836,21.5571,19.5327,21.1996,19.3387C20.8234,19.1703,20.3577,19.207,19.9895,19.3742Z" fill="#000000" fill-opacity="1"/><path d="M3.86598,0.850121Q3.27707,0.732089,2.7525500000000003,0.883854L2.74805,0.885154L2.67788,0.9091091Q2.3366499999999997,1.0177515,2.0127699999999997,1.190222L1.906778,1.246667L1.906778,1.275905Q1.8297430000000001,1.312774,1.777332,1.361763L1.770314,1.368323L1.763957,1.375525Q1.734885,1.408462,1.7115960000000001,1.424205Q1.5216530000000001,1.55234,1.417223,1.718506Q1.364822,1.7420870000000002,1.332929,1.789886Q1.290832,1.85298,1.260907,1.9194010000000001L1.230978,1.9194010000000001L1.1331120000000001,2.11139L1.114544,2.14905L1.0781899,2.22263Q0.878986,2.60041,0.815396,3.03749L0.8145789999999999,3.0431L0.814082,3.04875Q0.7201649999999999,4.11608,1.211751,4.77308Q1.241506,4.8122,1.269156,4.85037L1.299015,4.89185L1.327388,4.930400000000001L1.354517,4.96726Q1.414863,5.04985,1.467387,5.11265L1.469391,5.11504L1.469391,5.12235L1.493643,5.14403L1.527345,5.18432L1.53871,5.18432L1.598247,5.23755L1.6369660000000001,5.26822L1.687972,5.30865Q1.785196,5.39189,1.865069,5.45533L1.868532,5.45808L1.8721139999999998,5.46067Q2.68429,6.04912,3.75583,5.89588L3.7584,5.89551L3.81501,5.88591Q4.40621,5.79688,4.798500000000001,5.5005L4.803599999999999,5.49665L4.80844,5.49248Q4.8389299999999995,5.46622,4.86983,5.44057Q4.98892,5.37114,5.07783,5.29087L5.0818,5.28729L5.1202,5.24871L5.15302,5.21572Q5.28335,5.08622,5.36148,4.97301L5.36442,4.96875L5.36713,4.96434Q5.40066,4.909940000000001,5.42983,4.87476Q5.53919,4.74299,5.64057,4.55255L5.66545,4.50476Q5.71381,4.415369999999999,5.76728,4.2816399999999994L5.77357,4.26591L5.81598,4.068160000000001L8.62562,4.07981L11.3106,4.09094L11.3106,4.49428Q11.27,4.49528,11.2401,4.49699L11.2366,4.49719L11.1766,4.50273L11.1443,4.5057100000000005L11.1117,4.50872L11.0783,4.5120000000000005L11.0462,4.5151699999999995Q10.63921,4.55491,10.28152,4.64727L10.26155,4.65247L10.15461,4.67994L10.14592,4.68213Q9.75305,4.78063,9.53014,4.86067Q9.52188,4.86376,9.50483,4.87013Q9.38473,4.91506,9.32773,4.9333100000000005Q9.17402,4.9808,8.98016,5.0705Q8.97176,5.07446,8.954550000000001,5.08259Q8.83643,5.1384,8.7806,5.16237Q8.6607,5.21181,8.57965,5.26001Q8.519169999999999,5.29653,8.46273,5.32747Q8.26366,5.43412,8.12013,5.52061Q8.016359999999999,5.58377,7.96506,5.61214Q7.83942,5.68069,7.73772,5.76537L7.73564,5.7671L7.7336,5.7689Q7.68273,5.81365,7.65225,5.83117Q7.64525,5.83501,7.6309,5.84278Q7.50856,5.90898,7.44699,5.96867L7.44341,5.97214L7.44001,5.97579Q7.41561,6.00193,7.39094,6.02106L7.34863,6.05286L7.34839,6.05304L7.33088,6.06641L7.25834,6.12162Q7.25052,6.12748,7.23487,6.13907Q7.1075,6.2334,7.03894,6.31996L6.99459,6.35229Q6.82979,6.47245,6.67715,6.64902Q6.67019,6.65714,6.65677,6.67293Q6.57524,6.76878,6.53136,6.80676Q6.43194,6.88439,6.37469,6.96943L6.36037,6.96943L6.2692,7.0831L6.26476,7.08862L6.26074,7.09439Q6.22442,7.1466,6.17173,7.20654Q6.16595,7.21322,6.15557,7.22521Q5.95615,7.45552,5.86688,7.59172Q5.81011,7.68101,5.77695,7.72557Q5.54771,8.022369999999999,5.42231,8.27605Q5.38434,8.35567,5.35314,8.41187Q5.26323,8.56995,5.2174,8.67548L5.21645,8.67766L5.21556,8.67986Q5.18873,8.74589,5.1508,8.82074L5.14479,8.83241Q5.02926,9.05663,4.98778,9.18857Q4.96311,9.2696,4.93642,9.32709Q4.83537,9.53484,4.7785899999999994,9.75047Q4.73414,9.92758,4.7087900000000005,10.0146Q4.57655,10.45753,4.53054,10.89031Q4.51302,11.0682,4.49697,11.184L4.48485,11.2679L4.40574,11.2684L4.15732,11.2707L3.90303,11.2732L3.77791,11.2739L3.65245,11.2751L3.55931,11.2763L3.52284,11.2763Q3.09223,11.2754,2.88686,11.4275L2.85177,11.4534L2.8307,11.4917Q2.67704,11.7704,2.67495,12.1022L2.6755899999999997,12.1741L2.6754100000000003,12.3047L2.6756599999999997,12.4282L2.6761,12.5961L2.67611,12.6131L2.67611,12.8591L2.6764900000000003,13.0661L2.67726,13.4147L2.6774899999999997,13.6555L2.6779599999999997,14.1719L2.67873,14.6117L2.6795299999999997,15.0139L2.6802900000000003,15.543L2.68035,15.6011L2.68049,15.746L2.68063,15.8903L2.68408,18.1698Q2.51978,18.2021,2.37456,18.265L2.37244,18.2659L2.31867,18.2907Q1.8566259999999999,18.5007,1.566505,18.8088L1.564986,18.8104L1.5229759999999999,18.8571Q1.4460899999999999,18.9397,1.388208,19.0079L1.346781,19.0582Q1.0791401,19.3737,0.9206183,19.8531L0.9194573,19.8566L0.918427,19.8602Q0.620689,20.8866,1.143022,21.889L1.17627,21.9509Q1.176874,21.9521,1.1774689999999999,21.9532Q1.268124,22.126,1.353715,22.2169L1.358004,22.2215L1.400598,22.2614Q1.494733,22.379,1.56118,22.4471L1.562926,22.4489L1.62357,22.508Q1.74994,22.6431,1.868659,22.7048L1.8716110000000001,22.7064L1.911619,22.7255L1.9251589999999998,22.732Q2.39791,23.119,3.13499,23.1804L3.13828,23.1807L3.14158,23.1809Q4.27838,23.2379,5.10472,22.5195L5.10964,22.5195L5.13079,22.4969L5.17409,22.4592L5.17409,22.4504Q5.50348,22.0969,5.59761,21.874L5.60025,21.8678L5.60245,21.8614Q5.61582,21.8226,5.64012,21.7845L5.64139,21.7825L5.64262,21.7805Q5.73696,21.6244,5.80612,21.4122L5.80737,21.4084L5.80847,21.4045Q6.11281,20.324,5.62927,19.4318L5.62792,19.4293L5.58498,19.3551L5.58455,19.3544Q5.53042,19.26,5.48741,19.1944L5.4861,19.1924L5.46943,19.1683L5.45481,19.1471Q5.31445,18.9429,5.19341,18.8437L5.13224,18.7956Q4.666,18.3216,4.05307,18.1694L4.05305,18.1636L4.05295,18.1368L4.05255,18.076L4.05248,18.0086L4.05248,18.0079L4.051550000000001,17.7795L4.05128,17.6891L4.0509900000000005,17.6115L4.04925,17.155L4.0477,16.7207L4.047499999999999,16.669600000000003L4.04529,16.0929L4.04429,15.8058L4.04175,15.0899L4.04127,14.9636L4.0410699999999995,14.911L4.040570000000001,14.7809L4.04007,14.65L4.03599,13.5591L4.03273,12.638L4.48335,12.638Q4.4845299999999995,12.6948,4.48704,12.7343L4.48734,12.739L4.49376,12.7969L4.50051,12.8582L4.500719999999999,12.86L4.50819,12.9229Q4.51126,12.9487,4.51734,13.0009Q4.56625,13.4207,4.619149999999999,13.6309L4.61975,13.6333L4.6204,13.6356Q4.62226,13.6423,4.62601,13.6558Q4.657719999999999,13.7698,4.67113,13.8247Q4.77238,14.25,4.85072,14.4675Q4.85421,14.4768,4.86121,14.4953Q4.90546,14.6123,4.92319,14.6675Q4.97059,14.8209,5.06054,15.015Q5.06472,15.0239,5.07269,15.0407Q5.12852,15.1587,5.15249,15.2144Q5.20199,15.3343,5.25039,15.4155Q5.28654,15.4753,5.31572,15.5289Q5.49968,15.8744,5.74882,16.2424L5.76491,16.266199999999998L5.7787,16.2865Q5.87071,16.4271,5.93036,16.5017Q5.98303,16.5674,6.0126,16.6059L6.04546,16.6491L6.04637,16.6503L6.06437,16.6738L6.11436,16.7389Q6.11974,16.746000000000002,6.13059,16.7605Q6.22471,16.8866,6.31103,16.9546L6.34343,16.999000000000002Q6.46369,17.1637,6.6404,17.3162Q6.64836,17.323,6.66431,17.3365Q6.76027,17.418,6.79828,17.4618Q6.87595,17.5611,6.96102,17.6183L6.96102,17.6326L7.07487,17.7238L7.07913,17.7272L7.08353,17.7304Q7.13593,17.7678,7.16337,17.7906L7.20224,17.8241L7.246,17.8617L7.28363,17.8941Q7.43629,18.0264,7.53367,18.0866L7.53804,18.0893L7.54255,18.0918Q7.58412,18.1146,7.61661,18.1406Q7.99818,18.4532,8.27318,18.56L8.27318,18.5818L8.3825,18.6374Q8.56655,18.731,8.686309999999999,18.7836Q8.784559999999999,18.8265,8.88111,18.8726Q9.37123,19.1074,9.77754,19.2146Q9.93726,19.2548,10.01613,19.2801Q10.44782,19.4233,11.0761,19.4894L11.1225,19.4941L11.167,19.4986L11.1946,19.5015L11.3123,19.5138L11.314,19.7013L11.3157,19.8452L11.3173,19.9769L11.3183,20.0677L11.3186,20.1047L11.3198,20.2391L11.3211,20.3602L11.3224,20.4557Q11.3236,20.6888,11.3359,20.8101L11.3375,20.8259L11.3416,20.8412Q11.3967,21.0491,11.5397,21.1603L11.5583,21.1748L11.6137,21.1999L11.6421,21.2128Q11.8388,21.3134,12.0916,21.315L12.164,21.3143L12.1649,21.3143L12.2948,21.3145L12.4184,21.3143L12.6038,21.3138L12.8685,21.3138L13.0573,21.3134L13.3409,21.3128L13.648,21.3124L14.6057,21.3112L15.2409,21.31L15.5388,21.3096L15.5684,21.3096L15.597,21.3096L15.6934,21.3095L15.8866,21.3093L17.2074,21.3076L18.1568,21.3059Q18.1573,21.3085,18.1579,21.311L18.1593,21.3176L18.1613,21.3241Q18.4039,22.1477,18.819,22.4396L18.819,22.4618L18.9315,22.5555L18.9389,22.5617L19.002,22.6051L19.1226,22.689Q19.1791,22.728,19.2359,22.7685Q19.348,22.864,19.4287,22.9068L19.4337,22.9094L19.4388,22.9117Q20.4642,23.3835,21.3419,23.0955L21.3463,23.094L21.4205,23.0658Q22.0506,22.8442,22.3581,22.5217L22.3936,22.484Q23.0836,21.8101,23.1786,20.9578L23.1791,20.9536L23.1794,20.9493Q23.2628,19.7357,22.5237,18.8869L22.5237,18.882L22.501,18.8608L22.4633,18.8176L22.4546,18.8176Q22.1007,18.4884,21.8777,18.3944L21.8715,18.3918L21.8651,18.3896Q21.8262,18.3762,21.788,18.3519L21.786,18.3506L21.784,18.3494Q21.6279,18.2552,21.4154,18.1861L21.4116,18.1848L21.4078,18.1837Q20.321,17.8775,19.4737,18.3429L19.4712,18.3442L19.4068,18.382Q19.4057,18.3827,19.4046,18.3833Q19.3807,18.3967,19.3293,18.4242Q19.0236,18.588,18.9023,18.7447L18.8263,18.7447L18.7813,18.8796Q18.6951,18.935,18.6463,19.0128L18.6424,19.019L18.6389,19.0254Q18.617,19.0667,18.5988,19.0859Q18.4588,19.2354,18.3523,19.4559L18.3224,19.5197L18.2916,19.5822L18.2901,19.5851L18.2595,19.6497L18.2592,19.6503Q18.2272,19.7176,18.1981,19.8025L18.1932,19.8167L18.1718,19.9344L12.6583,19.9344L12.6583,19.5069Q12.6825,19.506,12.7018,19.5049L12.7051,19.5047L12.737,19.5017L12.7647,19.4992L12.8294,19.4932L12.8953,19.4867Q13.325,19.4449,13.6143,19.3735L13.6274,19.3701Q13.7605,19.3354,13.826,19.3194L13.8888,19.3042L13.8899,19.3039L13.9224,19.296L14.0175,19.2728Q14.2505,19.2169,14.3826,19.1671Q14.4714,19.1324,14.5492,19.1051Q14.8146,19.0131,15.0839,18.8955L15.1597,18.8622Q15.3202,18.7951,15.4199,18.7434L15.4224,18.7421L15.4599,18.7212L15.4937,18.7025L15.5247,18.6854L15.72,18.5768L15.72,18.5663Q15.753,18.5543,15.7822,18.5399L15.7906,18.5357L15.8493,18.4994L15.9079,18.4635L15.9646,18.4279Q16.1689,18.3028,16.2712,18.2226L16.2748,18.2198L16.2782,18.2168Q16.3122,18.1875,16.3437,18.169L16.3472,18.1671Q16.4802,18.0972,16.5462,18.0331L16.549799999999998,18.0297L16.5532,18.026Q16.5776,18,16.6022,17.9808L16.643,17.9502L16.644399999999997,17.9491L16.7115,17.898L16.7348,17.8803Q16.7425,17.8745,16.7583,17.8628Q16.8856,17.7685,16.9542,17.6819L16.9986,17.6496Q17.1642,17.5288,17.3153,17.3536Q17.4278,17.2218,17.5118,17.1534Q17.5833,17.0984,17.6262,17.0325L17.6327,17.0325L17.7239,16.9189L17.7267,16.915300000000002Q17.8067,16.811,17.893,16.7115Q18.02,16.5649,18.0948,16.4555L18.0961,16.4535L18.0974,16.4515Q18.1386,16.3881,18.1688,16.3472Q18.3791,16.0747,18.5152,15.8233Q18.5776,15.7061,18.6204,15.6357Q18.7406,15.4424,18.7846,15.3174Q18.8072,15.2512,18.8315,15.2061Q18.9397,15.0213,19.0294,14.7793L19.048,14.728L19.0779,14.6464Q19.4634,13.6084,19.5497,12.0083L19.6422,12.009L19.8597,12.0103L19.9429,12.0106L20.1149,12.0117L20.2388,12.0128L20.3663,12.0135L20.4149,12.0137L20.4602,12.0138Q20.4758,12.014,20.5071,12.0146Q20.8713,12.0209,21.0651,11.9058L21.0961,11.8874L21.1188,11.8593Q21.3136,11.6173,21.3151,11.298L21.3148,11.2638L21.3146,11.2321L21.3147,11.1102L21.3146,11.003L21.3143,10.83575L21.3143,10.82123L21.3139,10.379L21.3136,10.18559L21.3134,9.89409L21.3125,9.03053L21.3117,8.38219L21.3115,8.18899L21.3115,8.16233L21.3115,8.13649L21.3113,7.96232L21.3113,7.87542L21.3099,6.49436L21.309,5.83474Q21.4965,5.80219,21.6331,5.74053L21.636,5.73921L21.6843,5.71548Q22.1126,5.51003,22.3878,5.25147L22.4076,5.23288L22.4111,5.23288L22.4705,5.16879Q22.522,5.11317,22.6251,4.979699999999999L22.6754,4.9136500000000005Q22.9027,4.63218,23.0726,4.148540000000001Q23.3882,3.1897,22.9918,2.3975L22.9908,2.39543L22.9637,2.34436Q22.9471,2.3102799999999997,22.9148,2.24047Q22.7666,1.920067,22.6394,1.7850009999999998L22.6351,1.780448L22.5925,1.7405460000000001Q22.4984,1.622941,22.432,1.5548380000000002L22.4302,1.55305L22.3696,1.49401Q22.2513,1.367243,22.1314,1.294443L22.1268,1.291618L22.122,1.28905Q22.0408,1.245632,21.9849,1.211243Q21.8653,1.136976,21.7309,1.0626077L21.7271,1.0604965L21.7232,1.0585534Q20.8805,0.638857,20.0368,0.882296L20.0334,0.883288L20.03,0.884403Q19.9559,0.908687,19.9082,0.9227367Q19.4871,1.0459339,19.2599,1.204128L19.2575,1.20581L19.2551,1.207563Q19.1931,1.25346,19.1554,1.280392L19.1441,1.288407Q18.9725,1.4104160000000001,18.889,1.4819L18.8884,1.482379L18.8801,1.482379L18.8546,1.511314L18.819,1.541769L18.819,1.5516830000000001Q18.7603,1.618428,18.7249,1.662715L18.6946,1.700777Q18.5099,1.9171010000000002,18.4044,2.09008L18.4028,2.09272L18.4012,2.09542Q17.897,2.9823399999999998,18.1788,4.13333L18.1798,4.13747L18.181,4.14157Q18.3898,4.859970000000001,18.7461,5.10383L18.7461,5.17707L18.8819,5.22228Q18.9387,5.30942,19.0186,5.35983L19.0224,5.36219L19.066,5.3871Q19.3172,5.63519,19.8309,5.80542L19.8426,5.80929L19.936,5.82797L19.9134,10.66544L19.4526,10.6786Q19.3911,9.98363,18.9279,8.97586Q18.9241,8.96795,18.9166,8.95222Q18.8635,8.84065,18.8409,8.78812Q18.8219,8.74214,18.7892,8.667349999999999L18.7839,8.65531L18.7771,8.64406Q18.711,8.534749999999999,18.6815,8.47498Q18.5683,8.23677,18.4048,7.99821Q18.3583,7.93114,18.3181,7.87112L18.299,7.84239L18.2802,7.81403L18.2517,7.77139L18.2144,7.71545Q18.1224,7.57484,18.0628,7.50017Q18.01,7.43434,17.9805,7.39598L17.9468,7.35159L17.9176,7.31359L17.8788,7.26304Q17.8732,7.25562,17.8625,7.24136Q17.7599,7.10385,17.6665,7.03538Q17.6434,6.97006,17.5958,6.91722L17.5894,6.91017L17.5304,6.85593Q17.4259,6.74887,17.3533,6.6862Q17.222,6.57451,17.1531,6.49008Q17.0949,6.41465,17.0246,6.37108L16.9681,6.31872Q16.900199999999998,6.25565,16.8468,6.21153L16.787300000000002,6.16377Q16.4576,5.89879,16.2464,5.75445L16.1918,5.71761Q15.995,5.58105,15.8219,5.48754Q15.7047,5.4252,15.6342,5.38239Q15.4407,5.26232,15.3156,5.21835Q15.2493,5.19581,15.2041,5.1715Q15.0192,5.06341,14.7771,4.9738299999999995L14.7235,4.95441L14.6441,4.9253Q13.8673,4.63732,13.1116,4.536630000000001L13.0342,4.52655L13.0339,4.52652L12.9608,4.51689L12.959,4.51666L12.8881,4.507899999999999L12.888,4.50789Q12.8032,4.49729,12.6808,4.49395L12.6803,4.43014L12.6775,4.17259L12.6745,3.90853L12.6735,3.77983L12.672,3.64867L12.6711,3.58589L12.6707,3.55154L12.6707,3.5508Q12.6695,3.31474,12.6573,3.19207L12.6557,3.17631L12.6516,3.16098Q12.5968,2.9530700000000003,12.4534,2.84159L12.4348,2.82715L12.3511,2.78911Q12.1544,2.68852,11.9015,2.6869300000000003L11.8291,2.68757L11.7078,2.6874000000000002L11.5745,2.68765L11.5249,2.68784L11.3894,2.68809L11.2229,2.68805L10.93578,2.6884699999999997L10.69042,2.68907L10.34523,2.68948L10.00456,2.68973L9.38739,2.69071L8.772,2.69186L8.45431,2.6922699999999997L8.42476,2.6923L8.396090000000001,2.69233L8.395019999999999,2.69233L8.10651,2.69261L6.73149,2.69436L5.83702,2.69599L5.83654,2.6937100000000003L5.83505,2.68669L5.83306,2.6797899999999997Q5.59521,1.85487,5.17409,1.56226L5.17409,1.5457130000000001L5.10907,1.486246Q5.05971,1.441089,4.93754,1.3498269999999999L4.90546,1.3260990000000001L4.87702,1.305062Q4.45014,0.967203,3.86598,0.850121ZM19.062,1.882379Q19.0485,1.898507,19.038,1.911569L19.005,1.9531830000000001L19.003,1.955683L19.001,1.958027Q18.8369,2.14996,18.7474,2.29582Q18.3247,3.04197,18.5663,4.03406Q18.7429,4.63915,18.9914,4.78609L19.0032,4.79117L19.1462,4.85247L19.1462,4.888590000000001L19.1638,4.89443L19.2003,4.97253L19.2024,4.9770900000000005Q19.2182,5.01107,19.2303,5.02034L19.2882,5.05336L19.3137,5.06793L19.3339,5.08914Q19.5129,5.27694,19.9452,5.4219L20.1758,5.46798L20.3376,5.50033L20.3116,11.0542L19.062,11.0899L19.062,10.88412Q19.062,10.22548,18.5665,9.1475Q18.5629,9.1399,18.5554,9.12411Q18.499,9.0056,18.4712,8.94088Q18.4553,8.90225,18.4279,8.839649999999999Q18.3579,8.72326,18.3202,8.64667Q18.2206,8.43693,18.0759,8.22588Q18.0277,8.15629,17.9849,8.09235L17.9658,8.06361L17.9476,8.03621L17.9189,7.99327L17.8797,7.93448Q17.7981,7.80968,17.7508,7.75049Q17.6953,7.6813,17.6622,7.63813L17.6295,7.5952L17.6003,7.55716L17.5593,7.50374Q17.5535,7.49602,17.542,7.48067Q17.4782,7.39513,17.438,7.36372L17.4232,7.35857L17.2882,7.31217L17.2882,7.1766L17.2553,7.14643L17.2514,7.14277L17.2477,7.13901Q17.1528,7.04156,17.0941,6.99087Q16.933,6.85385,16.8407,6.73994L16.838900000000002,6.73768L16.8371,6.73537Q16.825400000000002,6.71993,16.819499999999998,6.71456L16.6321,6.68335L16.6321,6.55403Q16.6126,6.53689,16.5963,6.5234L16.5367,6.47556Q16.219099999999997,6.22029,16.0225,6.08596L15.9671,6.04851L15.9648,6.04694Q15.7857,5.92262,15.6341,5.84073Q15.5068,5.77301,15.4232,5.72225Q15.2669,5.62521,15.1867,5.59702Q15.0862,5.5628,15.0101,5.52133L15.0074,5.51983L15.0047,5.51825Q14.8492,5.42702,14.6408,5.3499L14.5859,5.32998L14.505,5.30036Q13.7701,5.02792,13.06,4.9332899999999995L12.9823,4.92318L12.9819,4.9231300000000005L12.91,4.9136500000000005L12.9083,4.91343L12.8385,4.9048099999999994L12.8384,4.9048Q12.731,4.89137,12.5328,4.8924900000000004L12.5083,4.89273L12.2843,4.894909999999999L12.2803,4.434480000000001L12.2775,4.1770499999999995L12.2745,3.91181L12.2735,3.7843L12.272,3.65415L12.2712,3.591L12.2707,3.55351L12.2707,3.55277Q12.2697,3.35238,12.2608,3.24852Q12.2449,3.19605,12.2205,3.16914L12.1763,3.14907L12.1716,3.14663Q12.0587,3.08792,11.905,3.08692L11.8286,3.08757L11.7085,3.0874L11.576,3.08764L11.5256,3.08784L11.3893,3.08809L11.2235,3.08805L10.93676,3.08847L10.6909,3.08907L10.34553,3.08948L10.00519,3.08973L9.38814,3.09071L8.77251,3.09186L8.45471,3.09227L8.42516,3.0923L8.39649,3.09233L8.39541,3.09233L8.10702,3.09261L6.73222,3.09436L5.69597,3.09624L5.45447,3.09674L5.45447,2.89633Q5.45447,2.8254099999999998,5.44647,2.78281Q5.24173,2.07765,4.92708,1.8782450000000002L4.77409,1.821588L4.77409,1.727997Q4.74283,1.703655,4.69968,1.671421L4.6676,1.6476929999999999L4.633710000000001,1.622626L4.6310199999999995,1.6204939999999999Q4.27882,1.340822,3.78737,1.242322Q3.2968,1.143999,2.86805,1.266848L2.79923,1.2902580000000001Q2.5480400000000003,1.370234,2.30678,1.4889839999999999L2.30678,1.568103L2.15936,1.608274Q2.0816,1.6294629999999999,2.05483,1.650288Q1.996362,1.714525,1.9352930000000002,1.755806Q1.8045170000000001,1.844027,1.745397,1.948982L1.730632,1.982175Q1.6982810000000002,2.0549,1.6248019999999999,2.08551Q1.618369,2.0999499999999998,1.6130900000000001,2.1145199999999997L1.593091,2.17875L1.549358,2.3194L1.476529,2.3194L1.473155,2.32625L1.434394,2.40469L1.433111,2.40712Q1.26635,2.7225099999999998,1.212045,3.08951Q1.1332659999999999,4.00051,1.530122,4.53093Q1.5626980000000001,4.57375,1.593858,4.61677L1.621176,4.65476L1.649548,4.69331L1.6774879999999999,4.73128Q1.700895,4.763310000000001,1.7226219999999999,4.7915399999999995Q1.77525,4.80607,1.813194,4.84532Q1.8511389999999999,4.88458,1.863874,4.93767L1.885437,4.954750000000001L1.942421,4.9999199999999995L1.945328,5.00241Q2.03646,5.0805,2.11035,5.13933Q2.78932,5.62921,3.69667,5.50027L3.74977,5.49126L3.75377,5.49062Q4.2418,5.41745,4.55251,5.185Q4.59008,5.15275,4.6282,5.12133L4.641579999999999,5.1103L4.6566600000000005,5.10174Q4.74488,5.05166,4.80608,4.99729L4.83669,4.9665300000000006L4.871090000000001,4.931979999999999Q4.97272,4.8309999999999995,5.02955,4.74971Q5.0763,4.674440000000001,5.12203,4.6193Q5.20531,4.5189699999999995,5.28579,4.36781L5.31096,4.31949L5.31203,4.3174L5.31314,4.3153500000000005Q5.34807,4.250970000000001,5.38962,4.14863L5.45875,3.82631L5.49233,3.66682L8.62727,3.67981L11.7106,3.6926L11.7106,4.89297L11.5106,4.89297Q11.496,4.89297,11.4669,4.8929100000000005Q11.3323,4.89259,11.2663,4.8961500000000004L11.2133,4.90105L11.181,4.9040300000000006L11.1508,4.9068000000000005L11.1175,4.91008L11.085,4.91327Q10.70907,4.94999,10.38224,5.03439L10.36104,5.0399L10.25234,5.06781L10.2432,5.07012Q9.86956,5.1638,9.66997,5.23544Q9.66236,5.23828,9.64498,5.24478Q9.51586,5.29308,9.44581,5.31549Q9.31768,5.35508,9.15079,5.43228Q9.14225,5.43631,9.12543,5.44426Q9.00077,5.50316,8.93308,5.53217Q8.8401,5.57051,8.786439999999999,5.60241Q8.71876,5.64328,8.65163,5.68005Q8.46145,5.78194,8.3281,5.86229Q8.21724,5.92977,8.15664,5.96328Q8.06653,6.01244,7.99557,6.07118Q7.9157,6.14114,7.8447,6.18184Q7.83668,6.18623,7.82126,6.19458Q7.75118,6.2325,7.72782,6.25362Q7.6833,6.30055,7.63121,6.34085L7.59162,6.37059L7.59133,6.37081L7.57313,6.38471L7.49805,6.44184Q7.48954,6.44821,7.47294,6.46051Q7.3869,6.52423,7.35517,6.5643L7.30385,6.7139L7.18033,6.7139Q7.07861,6.79625,6.98103,6.90913Q6.9746,6.91664,6.96146,6.93208Q6.85605,7.05603,6.78696,7.11449L6.78356,7.11737L6.78003,7.1201Q6.72689,7.16115,6.70624,7.19292L6.65577,7.36943L6.55522,7.36943Q6.51842,7.41799,6.47423,7.46825Q6.46954,7.47367,6.45796,7.48704Q6.27602,7.69717,6.20444,7.80632Q6.13973,7.90811,6.09352,7.97007Q5.88863,8.23536,5.78335,8.448229999999999Q5.74006,8.53902,5.70084,8.60963Q5.62249,8.74738,5.58517,8.83281Q5.55237,8.9132,5.50642,9.00387L5.50036,9.01562Q5.40055,9.20934,5.37045,9.30504Q5.33764,9.41284,5.29613,9.50206Q5.2122,9.6746,5.16655,9.84783Q5.12027,10.03224,5.09207,10.12903Q4.9704,10.53656,4.92861,10.92952Q4.91031,11.1154,4.892860000000001,11.2412L4.87965,11.3326L4.87964,11.3327L4.83155,11.6657L4.40945,11.6684L4.1611899999999995,11.6707L3.90527,11.6732L3.7818,11.6739L3.65755,11.6751L3.55971,11.6763L3.52207,11.6763Q3.26765,11.6758,3.15823,11.729Q3.07622,11.9004,3.07494,12.0987L3.07559,12.1746L3.07541,12.3039L3.07566,12.4272L3.0761,12.5959L3.07611,12.6131L3.07611,12.8584L3.07649,13.0652L3.07726,13.4143L3.07749,13.6552L3.07796,14.1712L3.07873,14.6109L3.07953,15.0134L3.08029,15.5426L3.08035,15.6007L3.08049,15.7457L3.08063,15.8897L3.08427,18.2964L3.0847,18.5067L2.8641199999999998,18.544L2.79154,18.5567Q2.65341,18.5804,2.53561,18.6312L2.48415,18.6549Q2.0949999999999998,18.8317,1.859131,19.0815L1.815807,19.1295Q1.7451379999999999,19.2055,1.696762,19.2625L1.651812,19.3169Q1.435441,19.572,1.301563,19.9752Q1.0504431,20.8457,1.495449,21.6998L1.52938,21.763L1.530724,21.7655Q1.594015,21.8865,1.641216,21.9387L1.684456,21.9792L1.69531,21.9893L1.704409,22.0008Q1.790613,22.1091,1.845785,22.166L1.909729,22.2283L1.91309,22.2319Q1.992558,22.3174,2.05082,22.3487L2.08434,22.3647L2.1433,22.393L2.1628499999999997,22.4095Q2.54142,22.7288,3.16494,22.7815Q4.091950000000001,22.827,4.77409,22.2749L4.77409,22.1195L4.9349,22.1195Q5.16493,21.8651,5.22693,21.7235Q5.2549,21.6452,5.30139,21.5717Q5.37051,21.4568,5.42456,21.2921Q5.68249,20.3718,5.2789,19.6248L5.23859,19.5552L5.23797,19.5541Q5.19038,19.4711,5.15418,19.4157L5.14025,19.3955L5.12515,19.3736Q5.01695,19.2162,4.9461200000000005,19.1581L4.8743300000000005,19.1016L4.8641000000000005,19.0935L4.8551,19.0843Q4.4404900000000005,18.6585,3.89053,18.5425L3.72248,18.5133L3.68819,18.3923Q3.65905,18.2894,3.65356,18.2042L3.65317,18.1982L3.65305,18.1651L3.65296,18.1394L3.65255,18.0765L3.65248,18.0095L3.65248,18.0091L3.65155,17.7807L3.65128,17.6906L3.65099,17.613L3.64925,17.1565L3.6477,16.7222L3.6475,16.6712L3.6453,16.0943L3.64429,15.8072L3.64175,15.0914L3.64127,14.9651L3.64107,14.9126L3.64057,14.7825L3.64007,14.6514L3.636,13.5605L3.63131,12.238L4.8825,12.238L4.8825,12.438Q4.8825,12.4564,4.88236,12.493Q4.88183,12.6347,4.88596,12.7045L4.891360000000001,12.7531L4.897930000000001,12.8128L4.89811,12.8145L4.9054,12.8757Q4.90853,12.902,4.91465,12.9546Q4.96026,13.346,5.00649,13.531Q5.00822,13.5373,5.01138,13.5486Q5.0448,13.6688,5.06025,13.7321Q5.15632,14.1355,5.22503,14.3265Q5.22862,14.336,5.23536,14.3538Q5.2832,14.4804,5.30537,14.5494Q5.34483,14.6772,5.42222,14.8442Q5.42651,14.8533,5.43424,14.8696Q5.49317,14.9941,5.5222,15.0617Q5.56055,15.1546,5.59268,15.2085Q5.63357,15.2761,5.66878,15.3409Q5.84279,15.6677,6.07989,16.017899999999997L6.09598,16.0417L6.11341,16.0674Q6.19507,16.1922,6.24234,16.2514Q6.29774,16.3205,6.33097,16.363799999999998L6.36363,16.4067L6.36448,16.4078L6.38165,16.4302L6.43383,16.4982Q6.43983,16.5061,6.45111,16.5212Q6.51497,16.6068,6.5551,16.638199999999998L6.70494,16.6901L6.70494,16.813000000000002Q6.78734,16.9146,6.90026,17.0121Q6.90792,17.0186,6.92321,17.0316Q7.04728,17.1369,7.1058,17.206L7.10868,17.2094L7.11141,17.2129Q7.15254,17.2661,7.18439,17.2867L7.21979,17.2968L7.36102,17.3403L7.36102,17.4378Q7.39677,17.4645,7.42442,17.4876L7.46283,17.5206L7.50686,17.5584L7.54565,17.5918Q7.6706,17.7001,7.74026,17.744Q7.80936,17.7825,7.87008,17.8312Q8.22406,18.1211,8.44218,18.196L8.67318,18.2557L8.67318,18.3357Q8.77413,18.3853,8.84627,18.417Q8.95074,18.4626,9.05392,18.5118Q9.5099,18.7303,9.87515,18.8267Q10.04727,18.87,10.14209,18.9004Q10.5327,19.03,11.1168,19.0914L11.1631,19.0962L11.2086,19.1008L11.236,19.1037L11.4729,19.1283L11.5307,19.1342L11.7089,19.1523L11.714,19.6966L11.7156,19.8403L11.7173,19.9726L11.7183,20.0641L11.7186,20.1013L11.7197,20.2345L11.7211,20.3547L11.7224,20.4537Q11.7234,20.6509,11.7323,20.7532Q11.7483,20.8059,11.7727,20.8328L11.7791,20.8357L11.8168,20.8528L11.8215,20.8553Q11.9345,20.914,12.0881,20.915L12.1621,20.9143L12.1646,20.9143L12.294,20.9145L12.4174,20.9143L12.6037,20.9138L12.8677,20.9138L13.0564,20.9134L13.3404,20.9128L13.6475,20.9124L14.605,20.9112L15.2404,20.91L15.5384,20.9096L15.568,20.9096L15.5966,20.9096L15.693,20.9095L15.8861,20.9093L17.2066,20.9076L18.2972,20.9057L18.3385,20.9056L18.5387,20.9056L18.5387,21.1056Q18.5387,21.1759,18.5471,21.2184Q18.7564,21.9243,19.0664,22.1241L19.0859,22.131L19.219,22.1783L19.219,22.2689L19.2305,22.2767L19.3498,22.3598Q19.4127,22.4032,19.4757,22.4483L19.4828,22.4534L19.4895,22.4591Q19.5683,22.5268,19.6118,22.551Q20.4885,22.9524,21.2129,22.7168L21.2831,22.6901L21.2855,22.6892Q21.8268,22.4993,22.0667,22.2477L22.1049,22.2071L22.1082,22.2036L22.1113,22.2005Q22.6999,21.6271,22.7806,20.9176Q22.8478,19.9207,22.2792,19.2176L22.1237,19.2176L22.1237,19.0569Q21.8691,18.8271,21.7274,18.7652Q21.649,18.7372,21.5756,18.6908Q21.4606,18.6217,21.2954,18.5677Q20.3702,18.3081,19.6687,18.6921L19.6056,18.7291L19.6033,18.7305Q19.5758,18.746,19.5182,18.7768Q19.2692,18.9102,19.2167,18.9914L19.2122,19.0019L19.1508,19.1447L19.1143,19.1447L19.1083,19.1626L19.0307,19.1988Q19.0283,19.1999,19.0224,19.2027Q18.9937,19.216,18.9864,19.2238Q18.9415,19.3057,18.8908,19.3593Q18.7925,19.4644,18.7146,19.6254L18.6841,19.6905L18.683,19.6929L18.6515,19.7567L18.6504,19.7589L18.6211,19.8206L18.6206,19.8217Q18.6007,19.8635,18.5813,19.9184L18.5056,20.3344L12.2583,20.3344L12.2583,19.1089L12.4583,19.1089L12.4919,19.109Q12.6149,19.1092,12.6748,19.1058L12.7001,19.1034L12.7279,19.1009L12.7905,19.0951L12.8565,19.0886Q13.2574,19.0496,13.5135,18.9864L13.5266,18.983Q13.6624,18.9476,13.7318,18.9306L13.7929,18.9158L13.794,18.9156L13.8276,18.9074L13.9243,18.8838Q14.1329,18.8338,14.2369,18.7946Q14.3323,18.7573,14.4181,18.7272Q14.6688,18.6403,14.9231,18.5293L15.0054,18.4931Q15.1486,18.4333,15.2332,18.3896L15.2658,18.3715L15.3001,18.3524L15.32,18.3415L15.32,18.2397L15.4888,18.213Q15.5585,18.2021,15.5978,18.1846L15.6401,18.1585L15.6954,18.1245L15.7557,18.0868Q15.9368,17.9759,16.0211,17.9103Q16.0835,17.8572,16.147100000000002,17.8206L16.1503,17.8188L16.1536,17.817L16.160899999999998,17.8132Q16.2392,17.772,16.2654,17.7482Q16.3098,17.7014,16.3619,17.6611L16.401899999999998,17.631L16.4027,17.6304L16.4695,17.5795L16.4951,17.5601Q16.503500000000003,17.5537,16.520200000000003,17.5414Q16.6062,17.4777,16.637999999999998,17.4376L16.6893,17.288L16.8128,17.288Q16.9148,17.2055,17.0111,17.0938Q17.1489,16.932499999999997,17.2622,16.8408L17.2645,16.839L17.2668,16.8373Q17.2822,16.825499999999998,17.2876,16.819699999999997L17.3188,16.6325L17.4399,16.6325Q17.513,16.5392,17.5907,16.4496Q17.7015,16.3216,17.7633,16.2316Q17.8103,16.1592,17.8521,16.102800000000002Q18.0428,15.8558,18.1621,15.6353Q18.2299,15.508,18.2807,15.4245Q18.3778,15.2683,18.406,15.1883Q18.4403,15.0878,18.4818,15.0118L18.4833,15.0091L18.4849,15.0064Q18.5762,14.851,18.6534,14.6429L18.6725,14.5902L18.7029,14.5072Q19.0811,13.4889,19.1561,11.8701L19.1578,11.8333L19.1682,11.6052L19.6445,11.609L19.8614,11.6103L19.9454,11.6106L20.1184,11.6117L20.241,11.6128L20.3676,11.6135L20.4162,11.6137L20.4651,11.6138Q20.4818,11.6141,20.5141,11.6146Q20.7295,11.6184,20.8308,11.5768Q20.9143,11.455,20.9151,11.3005L20.9148,11.2664L20.9146,11.2317L20.9147,11.1108L20.9146,11.0037L20.9143,10.83559L20.9143,10.82156L20.9139,10.37969L20.9136,10.18591L20.9134,9.89447L20.9125,9.03107L20.9117,8.382539999999999L20.9115,8.18927L20.9115,8.16265L20.9114,8.13678L20.9113,7.9626L20.9113,7.87581L20.9099,6.49491L20.9089,5.75473L20.9088,5.7089L20.9085,5.49287L21.1373,5.45729L21.1381,5.45717L21.1775,5.45087L21.2169,5.44457Q21.3681,5.42066,21.4657,5.37721L21.5113,5.35482Q21.8551,5.18991,22.0776,4.99305L22.0853,4.96996L22.1309,4.832879999999999L22.2315,4.832879999999999Q22.2633,4.79372,22.307,4.73724L22.3585,4.66958L22.3606,4.66677L22.3628,4.6641200000000005Q22.5476,4.43621,22.6927,4.02346Q22.9563,3.2225,22.6351,2.57852L22.6085,2.52822L22.6071,2.5255900000000002L22.6058,2.52301Q22.5873,2.48514,22.5518,2.4083699999999997Q22.4336,2.1528799999999997,22.352,2.06331L22.2978,2.01257L22.2887,2.0011200000000002Q22.2025,1.8927429999999998,22.1473,1.835902L22.0833,1.773524L22.0799,1.769836Q22.0001,1.6837469999999999,21.9279,1.638892Q21.8396,1.591448,21.7739,1.551093Q21.6645,1.483156,21.541,1.414688Q20.8414,1.0677614,20.1511,1.265665Q20.0736,1.291013,20.0206,1.306647Q19.6644,1.410832,19.4907,1.530835Q19.4276,1.577545,19.3872,1.606373L19.3759,1.6144319999999999Q19.2818,1.68129,19.219,1.729537L19.219,1.882379L19.062,1.882379ZM21.2768,1.907141L21.2278,1.887975L21.2261,1.887316Q20.2069,1.499599,19.4166,2.30896L19.4108,2.3149100000000002L19.4055,2.3213299999999997Q19.0196,2.78863,19.0403,3.55094L19.0405,3.55812L19.0412,3.56527Q19.0959,4.1168,19.507,4.51652L19.5709,4.5868199999999995L19.5743,4.5902899999999995Q19.6918,4.70754,19.9251,4.80988L19.9276,4.81101L19.9806,4.83517Q20.5422,5.08922,21.1199,4.90977L21.1266,4.9076900000000006L21.1331,4.905139999999999Q21.7893,4.6496200000000005,22.0648,4.07925L22.0913,4.02937L22.0924,4.02714Q22.3505,3.5104,22.1662,2.9195599999999997L22.1655,2.9173400000000003L22.1648,2.91514Q22.0309,2.5185500000000003,21.8431,2.32754L21.8011,2.27203L21.7975,2.26784Q21.726,2.18342,21.5813,2.08818L21.5614,2.0654L21.5522,2.05714Q21.4662,1.980241,21.2918,1.912928Q21.2819,1.9091200000000002,21.2768,1.907141ZM3.92793,1.870047L3.91574,1.865713Q3.50113,1.718262,3.05652,1.797851Q2.5817300000000003,1.8828399999999998,2.2822199999999997,2.1953899999999997L2.21901,2.25393L2.1546700000000003,2.3231599999999997L2.1139099999999997,2.36538L2.11083,2.36888Q1.741511,2.78946,1.7610670000000002,3.46057L1.7611919999999999,3.46486L1.7614999999999998,3.46913Q1.807541,4.10762,2.28267,4.57329L2.2882800000000003,4.57879L2.2943,4.58383Q2.71145,4.93296,3.2116,4.96539L3.23551,4.96727L3.26681,4.9697L3.27084,4.96985Q3.3513,4.97284,3.45739,4.965310000000001L3.54439,4.959239999999999L3.54733,4.95895Q4.18391,4.8956,4.63051,4.38147L4.63455,4.37682L4.63829,4.37194Q4.924939999999999,3.99777,4.95501,3.51576L4.95706,3.48278L4.95939,3.44543L4.959490000000001,3.44205Q4.973050000000001,2.96657,4.73414,2.55342L4.71871,2.52607L4.70003,2.49299L4.6982099999999996,2.49001Q4.4663,2.11084,4.01443,1.914079L3.92793,1.870047ZM3.76994,2.23847Q3.46076,2.13185,3.127,2.1915899999999997Q2.77783,2.2541,2.5677700000000003,2.47555L2.56331,2.48025L2.5018000000000002,2.53722L2.44767,2.59546L2.4085099999999997,2.63611Q2.14712,2.93665,2.16078,3.4446Q2.1969399999999997,3.92572,2.55706,4.282109999999999Q2.8713800000000003,4.54249,3.23748,4.56623L3.26649,4.56847L3.28949,4.57025Q3.34726,4.57212,3.42909,4.56631L3.51055,4.56063Q3.98432,4.51243,4.324450000000001,4.12383Q4.5335,3.8481,4.55578,3.49085L4.557840000000001,3.45788L4.55974,3.42738Q4.5691500000000005,3.06717,4.38786,2.75366L4.37038,2.72272L4.355230000000001,2.69587Q4.188000000000001,2.42457,3.85,2.27876L3.84416,2.27625L3.76994,2.23847ZM21.0821,2.26053L21.0838,2.26117L21.1321,2.2800700000000003Q21.1374,2.28212,21.1478,2.28611Q21.2433,2.3229800000000003,21.2784,2.34945L21.2986,2.37261L21.3174,2.39411L21.3414,2.40942L21.3422,2.40993Q21.4499,2.4786200000000003,21.4893,2.52295L21.5416,2.59198L21.5523,2.60248Q21.6782,2.72523,21.785,3.04086Q21.9199,3.47543,21.7356,3.84627L21.7078,3.89867L21.7061,3.90234Q21.5005,4.33054,20.9946,4.52982Q20.5654,4.660690000000001,20.1465,4.47121L20.0907,4.44574L20.0878,4.444459999999999Q19.9255,4.3735,19.86,4.31019L19.7945,4.23803L19.7897,4.23344Q19.4825,3.93688,19.4399,3.53275Q19.4254,2.93106,19.7087,2.58236Q20.313,1.96885,21.0821,2.26053ZM11.9703,5.43045L11.8536,5.4299L11.8528,5.4299Q11.0945,5.42904,10.41676,5.59919L10.34514,5.61669L10.27198,5.63403Q9.96761,5.7076,9.58882,5.86718L9.46242,5.91621Q9.33141,5.96839,9.1425,6.06526Q9.09516,6.08886,9.01688,6.12098L9.01409,6.12213L9.01134,6.12336Q8.89704,6.17434,8.72195,6.28179Q8.65344,6.32322,8.5588,6.37438Q8.29953,6.51733,7.98359,6.77059L7.95331,6.79464L7.92137,6.82001Q7.24933,7.36046,6.83297,7.89651L6.78828,7.95191Q6.73055,8.0152,6.69025,8.086269999999999L6.66872,8.086269999999999L6.60895,8.17078Q6.56833,8.228200000000001,6.52961,8.29889Q6.45606,8.42586,6.40265,8.497060000000001Q6.3295,8.59645,6.25356,8.75516Q6.22743,8.806180000000001,6.17758,8.8832Q6.10004,9.0048,6.0488,9.13249Q6.02775,9.18286,5.9763,9.29071Q5.96831,9.30745,5.96441,9.31566Q5.74959,9.78156,5.60587,10.3758L5.59807,10.40739L5.58982,10.44085L5.56529,10.54204L5.54039,10.6466L5.52572,10.70692Q5.42105,11.1615,5.4225,11.9216L5.42219,12.0481L5.42139,12.171Q5.41912,12.9325,5.60208,13.6398L5.6101,13.6726L5.62481,13.7329Q5.69693,14.0214,5.82601,14.3297Q5.86364,14.4208,5.89909,14.527L5.8998,14.5292L5.90055,14.5312Q6.02155,14.8688,6.27602,15.2783Q6.31373,15.3405,6.37709,15.4593Q6.48191,15.6536,6.60957,15.832L6.6694,15.9156L6.70132,15.9156Q6.75174,15.9955,6.83695,16.1038Q6.85077,16.1214,6.85769,16.130200000000002L6.88085,16.16L6.90518,16.1914Q7.08413,16.4163,7.38635,16.7091L7.57045,16.8874L7.69868,16.6655Q7.77621,16.5313,7.78488,16.3566L7.785,16.3544L7.78912,16.284L7.7913,16.2457L7.79353,16.2065Q7.81787,15.8632,7.93091,15.5688L7.93211,15.5657L7.93323,15.5625L7.96411,15.4734Q8.147490000000001,14.972,8.39086,14.7451L8.41346,14.724L8.4451,14.668L8.45901,14.6433Q8.48653,14.6023,8.55968,14.545Q8.62365,14.4934,8.68364,14.4109Q9.14317,13.8467,10.12982,13.7042L10.20574,13.692Q10.47366,13.6504,10.75798,13.6506L10.84908,13.6501L10.97858,13.6497L11.0891,13.6496L11.2409,13.6493L11.427,13.6489L11.7731,13.6487L12.0307,13.6483L12.2645,13.6474L12.4392,13.6468L12.6896,13.6466L12.8151,13.6465L12.9425,13.6459Q13.9588,13.6407,14.4894,13.8825L14.4911,13.8833L14.5771,13.9217Q15.0336,14.1376,15.3563,14.451L15.4221,14.5138Q15.485,14.5807,15.5561,14.6726L15.5594,14.6768L15.5972,14.7208Q15.9317,15.1225,16.0908,15.6503Q16.107100000000003,15.704,16.1271,15.763Q16.180999999999997,15.9273,16.1982,16.1856L16.208,16.3184L16.2092,16.3335L16.211199999999998,16.363799999999998L16.2136,16.3995L16.213900000000002,16.4025Q16.2229,16.493000000000002,16.2479,16.6079L16.3181,16.930799999999998L16.5716,16.7188Q16.8708,16.4687,17.1587,16.107300000000002L17.2095,16.0444L17.2102,16.043599999999998L17.2573,15.9845L17.2588,15.9825L17.2991,15.9321Q17.3059,15.924,17.312,15.9156L17.3244,15.9156L17.3842,15.8311Q17.4248,15.7737,17.4635,15.703Q17.5364,15.5772,17.5883,15.5087Q17.6625,15.4082,17.7587,15.2085L17.761,15.2037Q17.782,15.1625,17.8246,15.1006L17.8262,15.0983L17.8278,15.0958Q17.8939,14.9935,17.9653,14.8063Q17.9899,14.7456,18.0382,14.655Q18.1242,14.4876,18.2364,14.1525Q18.2412,14.1382,18.2436,14.131Q18.2601,14.0824,18.2768,14.0364Q18.3403,13.8577,18.4152,13.513L18.4316,13.4386L18.4483,13.3641Q18.572,12.8063,18.5706,12.0925L18.5709,11.9719L18.5717,11.8478Q18.574,11.1072,18.4036,10.42327L18.3856,10.34915L18.3687,10.27717Q18.2953,9.97172,18.1647,9.68488Q18.1281,9.60301,18.0938,9.5015Q17.8293,8.76166,17.1835,7.9438L17.1295,7.87542Q16.9478,7.64932,16.6613,7.3474L16.6092,7.29226Q16.4635,7.14215,16.1791,6.91582L16.1159,6.86482Q15.5562,6.4138,14.8523,6.06575Q14.7684,6.02426,14.6899,5.98371Q14.4995,5.88529,14.3306,5.83355Q14.2673,5.81308,14.1332,5.76345L14.1211,5.75899Q13.8836,5.67402,13.575,5.60038L13.4926,5.57963Q12.8554,5.42587,12.0881,5.43036L11.9703,5.43045ZM17.1101,15.5156Q17.1119,15.5124,17.1137,15.5091L17.1149,15.5069L17.1161,15.5047Q17.2022,15.3559,17.2696,15.267Q17.3184,15.2008,17.3983,15.0349L17.4006,15.0301Q17.4368,14.9588,17.4932,14.8766Q17.536,14.8094,17.5915,14.6639Q17.6271,14.5758,17.6854,14.4667Q17.7545,14.3319,17.8571,14.0255L17.8644,14.0039Q17.8827,13.9498,17.901,13.8995Q17.9549,13.7479,18.0243,13.4281L18.041,13.3524L18.058,13.2766Q18.1719,12.7629,18.1706,12.0932L18.1709,11.971L18.1718,11.8451Q18.1738,11.1556,18.0155,10.51998L17.9969,10.44329L17.9793,10.36874Q17.9153,10.10255,17.8006,9.85061Q17.7552,9.74892,17.7148,9.62943Q17.4748,8.958079999999999,16.8696,8.1917L16.8155,8.12314Q16.6463,7.91274,16.3711,7.62272L16.3184,7.5669Q16.1944,7.43919,15.93,7.22882L15.8646,7.17606Q15.3395,6.75286,14.675,6.42431Q14.5879,6.38123,14.5063,6.33905Q14.3479,6.25718,14.2134,6.21599Q14.1364,6.19114,13.9943,6.13858L13.9824,6.13414Q13.769,6.05786,13.481,5.98918L13.4783,5.98852L13.395,5.96753Q12.809,5.82615,12.0904,5.83036L11.9706,5.83045L11.8524,5.8299L11.8517,5.8299Q11.1434,5.82917,10.51417,5.98715L10.44009,6.00526L10.36426,6.02324Q10.09207,6.08904,9.74157,6.23688L9.73889,6.23801L9.60708,6.28914Q9.49706,6.33297,9.32502,6.42119Q9.26162,6.45282,9.17171,6.48982Q9.08176,6.5303,8.93117,6.62271Q8.85215,6.6705,8.74901,6.72626Q8.52284,6.85097,8.233789999999999,7.08269L8.202079999999999,7.10787L8.17014,7.13324Q7.53651,7.64282,7.14888,8.14188L7.09116,8.21354L7.08637,8.218689999999999Q7.03278,8.27636,7.01226,8.344190000000001L6.96927,8.486270000000001L6.88307,8.486270000000001Q6.88126,8.489519999999999,6.87946,8.49283L6.87826,8.49503L6.87701,8.49719Q6.79078,8.646239999999999,6.72265,8.73707Q6.67359,8.803740000000001,6.61339,8.929870000000001L6.61233,8.93211L6.6112,8.93433Q6.57557,9.00446,6.51337,9.10055Q6.45738,9.18838,6.42004,9.28145Q6.39304,9.34615,6.33732,9.46294Q6.32959,9.47914,6.32561,9.48751Q6.12919,9.91356,5.99466,10.46983L5.98644,10.50317L5.97819,10.53661L5.95403,10.63629L5.92952,10.73924L5.91438,10.80148Q5.82113,11.2066,5.8225,11.9209L5.82219,12.0491L5.82138,12.1736Q5.81927,12.8822,5.98933,13.5396L5.99863,13.5775L6.0134,13.638Q6.07762,13.895,6.19497,14.1752Q6.23825,14.2799,6.2778,14.3983Q6.38452,14.695,6.61578,15.0672Q6.66146,15.1425,6.72999,15.271Q6.79784,15.3967,6.87712,15.5156L6.94748,15.5156L7.00173,15.6303L7.02016,15.6693Q7.05433,15.7332,7.1513,15.8564Q7.16565,15.8747,7.17276,15.8838L7.19681,15.9148L7.22113,15.9461Q7.29557,16.0396,7.39683,16.1491Q7.42865,15.7624,7.55629,15.4286L7.58618,15.3424Q7.79655,14.767,8.09486,14.4747L8.096779999999999,14.4713L8.11627,14.4368L8.11903,14.4325Q8.18258,14.3323,8.31302,14.2302Q8.3322,14.2146,8.36229,14.1727L8.36567,14.168L8.369309999999999,14.1635Q8.927209999999999,13.4737,10.07264,13.3083L10.142,13.2971Q10.44298,13.2504,10.75831,13.2506L10.84688,13.2501L10.97723,13.2497L11.0886,13.2496L11.2402,13.2493L11.4261,13.2489L11.7728,13.2487L12.0302,13.2483L12.263,13.2474L12.4379,13.2468L12.6892,13.2466L12.8148,13.2465L12.9408,13.2459Q14.0433,13.2403,14.6538,13.5178L14.6552,13.5185L14.7403,13.5565Q15.2646,13.8044,15.635,14.164L15.7058,14.2315L15.7092,14.2352Q15.7858,14.3161,15.8693,14.4237L15.9004,14.4598Q16.2912,14.9291,16.4738,15.5349Q16.4879,15.5815,16.5059,15.6345Q16.5753,15.8459,16.5964,16.1461Q16.7217,16.0138,16.8458,15.8581L16.8978,15.7937L16.898400000000002,15.793L16.9431,15.737L16.9703,15.7028L16.953400000000002,15.5156L17.1101,15.5156ZM10.74546,14.1987L10.65854,14.1983L10.65686,14.1983Q9.85762,14.2012,9.17637,14.7324L9.17622,14.7326L9.11079,14.7834L9.10858,14.7852Q8.65495,15.159,8.47795,15.7488L8.46045,15.7951Q8.33673,16.1237,8.337060000000001,16.789L8.33707,16.8168L8.336359999999999,16.9236L8.335180000000001,17.0183L8.33498,17.0873L8.33488,17.151L8.33438,17.178L8.33381,17.2113L8.33382,17.2135Q8.33464,17.3838,8.42057,17.5289L8.441690000000001,17.5646L8.47524,17.5889Q8.56495,17.654,8.64982,17.6919Q8.73869,17.7338,8.83549,17.7951Q9.26839,18.0572,9.84562,18.2451Q9.8903,18.2598,9.93561,18.2761Q10.12048,18.3413,10.48829,18.4234L10.49655,18.4252L10.52148,18.4308L10.54736,18.4366Q12.5169,18.876,14.3768,18.1602L14.455,18.1303Q15.0322,17.8986,15.407,17.6578L15.4575,17.6274Q15.5882,17.5556,15.6776,17.4411L15.7153,17.3929L15.7195,17.3318Q15.723,17.2806,15.7231,17.2192L15.7231,17.2185L15.7233,17.1566L15.7233,17.1557L15.7232,17.088L15.7232,17.0877L15.7233,17.0185L15.7233,16.9986L15.7231,16.8711L15.7231,16.7379L15.7233,16.6488L15.7232,16.506700000000002L15.7232,16.5053L15.7233,16.473100000000002L15.7233,16.4394Q15.7218,16.0048,15.6147,15.7504L15.6147,15.7503L15.5952,15.7039Q15.4549,15.3732,15.2435,15.087L15.2398,15.082L15.1982,15.0323Q14.5798,14.2966,13.7593,14.2106L13.7564,14.2103L13.7534,14.21Q13.6296,14.2007,13.3892,14.201L13.3549,14.201L13.354,14.201L13.2597,14.2008L13.1239,14.2006L13.0032,14.2005L12.8973,14.2004L12.8429,14.2004L12.2849,14.2001L12.2816,14.2001L11.8915,14.1997L11.7611,14.1994L11.5277,14.1991L11.3117,14.199L11.1497,14.1989L11.0447,14.1987L10.9055,14.1985L10.74555,14.1987L10.74546,14.1987ZM9.42234,15.0479Q9.99506,14.6013,10.65666,14.5983L10.65834,14.5983L10.74555,14.5987L10.74584,14.5987L10.905,14.5985L11.0439,14.5987L11.1495,14.5989L11.3116,14.599L11.5271,14.5991L11.7603,14.5994L11.8912,14.5997L12.2816,14.6001L12.2847,14.6001L12.8425,14.6004L12.897,14.6004L13.003,14.6005L13.1233,14.6006L13.2587,14.6008L13.3529,14.601L13.3542,14.601L13.3896,14.601Q13.6118,14.6008,13.7205,14.6087Q14.3787,14.679,14.8916,15.2893L14.9253,15.3295Q15.1063,15.5757,15.2264,15.8588L15.2457,15.9049L15.246,15.9055Q15.3221,16.086199999999998,15.3233,16.438499999999998L15.3233,16.4722L15.3232,16.5056L15.3232,16.5069L15.3233,16.6481L15.3231,16.7379L15.3231,16.871499999999997L15.3233,16.9986L15.3233,17.0181L15.3232,17.088L15.3232,17.0886L15.3233,17.1552L15.3233,17.1557L15.3231,17.2171L15.3231,17.2181Q15.3231,17.2275,15.323,17.2365Q15.2961,17.26,15.2628,17.278L15.2588,17.2801L15.1976,17.3169L15.1952,17.3184L15.193,17.3198Q14.8497,17.5408,14.3121,17.7567L14.2332,17.7869Q12.4861,18.4593,10.63487,18.0463L10.609,18.0405L10.58371,18.0348L10.57544,18.033Q10.23099,17.9561,10.07059,17.8995Q10.02051,17.8816,9.96943,17.8647Q9.43606,17.6911,9.04942,17.4571Q8.93166,17.3826,8.81289,17.3266Q8.78255,17.3131,8.74836,17.2913Q8.73434,17.2546,8.733830000000001,17.2135L8.73432,17.1849L8.73488,17.1516L8.73498,17.0884L8.735140000000001,17.0233L8.73635,16.926299999999998L8.73707,16.8167L8.73706,16.788800000000002Q8.73676,16.1964,8.83464,15.9365L8.857240000000001,15.8766L8.85931,15.8696Q9.0005,15.3936,9.36078,15.0957L9.42195,15.0482L9.42234,15.0479ZM21.2883,19.1593L21.2813,19.1562Q20.6289,18.8642,19.9068,19.1921L19.8824,19.203L19.8529,19.2162L19.8498,19.2177Q19.6695,19.3061,19.533,19.4787Q19.5033,19.5127,19.441,19.5609L19.4383,19.563L19.4357,19.5651Q19.2951,19.6816,19.1905,19.927L19.1797,19.9507L19.1669,19.9791Q18.9331,20.5021,19.093,21.108L19.0959,21.1193L19.1002,21.1301Q19.1589,21.2796,19.2597,21.4496L19.2601,21.4504L19.2931,21.5087L19.2948,21.5114Q19.538,21.9104,19.941,22.0682L20.0169,22.0993Q20.6777,22.3549,21.3249,22.0851L21.3336,22.0815L21.3418,22.0771Q21.7864,21.8407,21.9863,21.4976L21.9871,21.4961L22.014,21.4508L22.0158,21.4474Q22.3536,20.8249,22.1532,20.1214L22.1517,20.1162L22.15,20.111Q21.945,19.5157,21.295,19.1629L21.2883,19.1593ZM3.42124,19.0329L3.41784,19.0328Q3.36727,19.0315,3.27298,19.0353Q3.22911,19.037,3.20793,19.0375L3.20529,19.0375L3.20264,19.0377Q2.61271,19.0662,2.16316,19.5543Q2.09444,19.6295,2.04778,19.7159L1.9985119999999998,19.7159L1.946874,19.838Q1.627818,20.5924,1.925824,21.3321L1.9584380000000001,21.4109L2.04674,21.6212L2.10886,21.6212Q2.21989,21.787,2.41223,21.914L2.4319100000000002,21.9364L2.4407300000000003,21.9444Q2.7858799999999997,22.2547,3.46908,22.2234L3.47314,22.2232L3.47719,22.2229Q3.71466,22.2023,3.92517,22.1189L3.99959,22.094L4.04185,22.0801L4.09806,22.0613L4.100099999999999,22.0607L4.27502,22.0024L4.27502,21.9416Q4.632709999999999,21.7453,4.8768899999999995,21.1769L4.87912,21.1717L4.88106,21.1664Q4.94782,20.983,4.95523,20.798L4.95524,20.7979L4.95817,20.7261Q4.9732,19.9854,4.49374,19.4781L4.49198,19.4762L4.4901800000000005,19.4744Q4.08793,19.07,3.47855,19.0364L3.47573,19.0363L3.42124,19.0329ZM3.4042,19.4326Q3.36667,19.4319,3.28887,19.4349Q3.24397,19.4367,3.21947,19.4373Q2.7948500000000003,19.4589,2.4574,19.8253Q2.39662,19.8918,2.37065,19.9753L2.3269200000000003,20.1159L2.26863,20.1159Q2.08454,20.6556,2.29684,21.1826L2.31283,21.2212L2.36078,21.2212L2.4247,21.3722Q2.49543,21.494,2.65076,21.5919L2.67561,21.6075L2.69501,21.6298L2.71631,21.6541Q2.93985,21.8464,3.44666,21.824Q3.62585,21.808,3.78192,21.7454L3.78728,21.7433L3.87246,21.7147L3.87502,21.7139L3.87502,21.6672L4.0545,21.6051Q4.3064,21.4888,4.50706,21.0244Q4.550739999999999,20.9022,4.55555,20.7819L4.5555699999999995,20.7816L4.5585,20.7098Q4.56994,20.1425,4.2048000000000005,19.7547Q3.91211,19.4617,3.45925,19.4359L3.4042,19.4326ZM21.111,19.5182Q20.6261,19.3047,20.0722,19.5563L20.0457,19.5681L20.0229,19.5783Q19.9246,19.6274,19.8448,19.7292L19.8423,19.7323L19.8398,19.7354Q19.7842,19.8008,19.6889,19.8749Q19.624,19.9301,19.5584,20.0839L19.5444,20.1151L19.5316,20.1434Q19.358,20.5318,19.4768,20.9946Q19.5233,21.11,19.6042,21.2463L19.606,21.2494L19.6077,21.2527L19.6379,21.3059Q19.8109,21.5882,20.088,21.6962L20.0901,21.697L20.0924,21.698L20.1687,21.7292Q20.6678,21.9222,21.1624,21.7195Q21.4988,21.5386,21.6398,21.2977L21.6406,21.2962L21.666,21.2535Q21.9224,20.7781,21.77,20.2362Q21.6156,19.7945,21.111,19.5182Z" fill-rule="evenodd" fill="#000000" fill-opacity="1"/></g><g><path d="M12.21454,8.0159637C12.25356,8.019111,12.292629999999999,8.0216234,12.3317,8.0240677C12.61924,8.0502965,12.90603,8.160063,13.13073,8.341789C13.17394,8.378044,13.17394,8.378044,13.22434,8.406388C13.35238,8.483409,13.46462,8.594728,13.55322,8.71426C13.55322,8.727363,13.55322,8.740465,13.55322,8.753965C13.57295,8.760517,13.592690000000001,8.767068,13.61303,8.773818C13.64729,8.82438,13.64729,8.82438,13.6828,8.887971C13.69452,8.908751,13.706240000000001,8.929532,13.71832,8.950941C13.72962,8.971107,13.74093,8.991273,13.75258,9.01205C13.76266,9.02792,13.77273,9.04378,13.78311,9.060130000000001C13.81986,9.12437,13.8463,9.19116,13.8722,9.26021C13.87714,9.27275,13.88207,9.28529,13.88716,9.298210000000001C13.97423,9.52852,14.00148,9.7495,13.9993,9.99476C13.99953,10.02079,13.99976,10.04681,14,10.07363C13.99905,10.39183,13.909839999999999,10.6675,13.77003,10.95017C13.75959,10.97137,13.75959,10.97137,13.74895,10.993C13.69767,11.094149999999999,13.69767,11.094149999999999,13.652899999999999,11.11644C13.64262,11.13568,13.63234,11.15493,13.62175,11.17476C13.49506,11.40155,13.268889999999999,11.59272,13.03821,11.70869C12.992090000000001,11.73219,12.992090000000001,11.73219,12.942499999999999,11.76979C12.85695,11.82267,12.77018,11.852450000000001,12.67475,11.88325C12.65601,11.88932,12.63726,11.89538,12.61795,11.90163C12.18119,12.03927,11.68253,12.04138,11.26049,11.85099C11.23397,11.84173,11.20739,11.83262,11.18075,11.82369C11.08014,11.7864,10.991836,11.72954,10.901632,11.67231C10.886367,11.66287,10.871101,11.65343,10.855373,11.643699999999999C10.663611,11.521609999999999,10.417611,11.33812,10.343405,11.11644C10.323687,11.09637,10.303729,11.07653,10.283594,11.05688C10.0831589,10.75943,10.000743185,10.40314,10.000786079,10.05103C10.000742729,10.01135,10.000374483,9.97166,10.00000243368,9.93198C9.999503529,9.60032,10.0749,9.15208,10.315602,8.898983C10.324777,8.890436,10.333952,8.881888,10.343405,8.873082C10.364263,8.833848,10.384362,8.794193,10.403215,8.753965C10.416373,8.753965,10.429531,8.753965,10.443088,8.753965C10.448022,8.74291,10.452957,8.731854,10.458041,8.720464C10.638785,8.387495,11.09067,8.169554,11.43992,8.0591201C11.53843,8.036166,11.63832,8.0276679,11.73897,8.0194147C11.76806,8.014911,11.79713,8.0103681,11.8262,8.00576594C11.95514,7.99225071,12.08575,8.00534329,12.21454,8.0159637ZM11.823080000000001,8.754275C11.66791,8.760492,11.55317,8.816487,11.41999,8.892934C11.40516,8.9012,11.39033,8.909466,11.37505,8.917983C11.09608,9.08161,10.920831,9.3228,10.821886,9.62748C10.814613,9.64571,10.80734,9.66393,10.799846,9.6827C10.775914,9.76845,10.774367999999999,9.84905,10.774536,9.93768C10.774568,9.95531,10.7746,9.97294,10.774633,9.9911C10.777288,10.13336,10.803361,10.2515,10.861759,10.38189C10.867747,10.39765,10.873735,10.41342,10.879905,10.42966C10.927242,10.54883,10.997085,10.64285,11.08106,10.73924C11.09822,10.75916,11.09822,10.75916,11.11572,10.77949C11.33996,11.02095,11.62319,11.15171,11.95234,11.1654C12.30959,11.17062,12.58773,11.05158,12.84718,10.80717C12.86306,10.7913,12.87894,10.77544,12.8953,10.75909C12.91119,10.74322,12.92707,10.727360000000001,12.94343,10.71101C13.1629,10.469809999999999,13.23142,10.14808,13.21795,9.83044C13.19236,9.521889999999999,13.02399,9.24529,12.8006,9.03811C12.70144,8.955724,12.59012,8.89396,12.47663,8.833376C12.46389,8.826364,12.45114,8.819352,12.43801,8.812127C12.25533,8.722049,12.02068,8.75317,11.823080000000001,8.754275Z" fill="#000000" fill-opacity="1"/><path d="M12.20009,7.814063Q11.94266,7.792462,11.80535,7.806856L11.80029,7.807385L11.71526,7.820693Q11.507439999999999,7.838029,11.39453,7.864339L11.387,7.866094L11.37963,7.868426Q10.611325,8.11136,10.324526,8.553965L10.27607,8.553965L10.222115,8.669095Q10.204153,8.707423,10.182139,8.749977L10.179523,8.752414L10.174958,8.756653L10.170675,8.761156Q9.798829,9.15216,9.80001,9.9337L9.800539,9.995190000000001L9.800781,10.04744L9.800786,10.051Q9.800707,10.69816,10.117735,11.16864L10.129203,11.18566L10.143889,11.2Q10.158194,11.21396,10.171734,11.22743Q10.297827,11.52582,10.750157,11.813790000000001L10.794495,11.8412L10.802536,11.8463Q10.993819,11.9677,11.111229999999999,12.01122L11.11359,12.0121L11.18705,12.03724Q11.8773,12.34474,12.67953,12.09192L12.73619,12.07358Q12.935459999999999,12.009260000000001,13.04764,11.93992L13.05574,11.93492L13.06333,11.92917Q13.09876,11.9023,13.12804,11.88738Q13.57956,11.66039,13.79816,11.26899L13.80904,11.24861Q13.87355,11.18951,13.92839,11.08132L13.93909,11.05959L13.949300000000001,11.03884Q14.19862,10.53476,14.19999,10.07185L14.199290000000001,9.99654Q14.2031,9.56834,14.07327,9.22498L14.05946,9.18996Q14.00548,9.04607,13.956710000000001,8.960815L13.954419999999999,8.956817000000001L13.92436,8.909464L13.892520000000001,8.852697L13.85742,8.790456L13.857330000000001,8.790293Q13.81765,8.719261,13.77859,8.661616L13.74049,8.605396L13.715250000000001,8.597018Q13.71457,8.596088,13.71389,8.595165Q13.54308,8.364727,13.32743,8.235004L13.32492,8.233498L13.322379999999999,8.232066Q13.288219999999999,8.212854,13.256499999999999,8.186282Q12.86811,7.872167,12.34987,7.824895L12.34703,7.824636L12.344190000000001,7.824458Q12.27162,7.819918,12.23098,7.81664Q12.22074,7.815796,12.20009,7.814063ZM11.85168,8.204212L11.770389999999999,8.216934L11.76248,8.218158L11.75532,8.218746Q11.57891,8.23321,11.49242,8.25229Q10.830184,8.463353,10.637304,8.809532L10.57284,8.953965L10.526876,8.953965Q10.523475,8.960429,10.519998,8.966968L10.504262,8.996566L10.456649,9.04092Q10.199077,9.31634,10.199995,9.93027L10.200535,9.99335L10.200781,10.0469L10.200786,10.05105Q10.200724,10.56443,10.43862,10.92879Q10.463352,10.95315,10.486066,10.97627L10.518411,11.00919L10.533061,11.05295Q10.596209,11.2416,10.960589,11.47361L11.00877,11.50343Q11.01174,11.50531,11.01688,11.50858Q11.17039,11.606,11.24816,11.63537L11.33416,11.66481L11.34274,11.66868Q11.89754,11.91897,12.55637,11.71135L12.61332,11.69292Q12.75923,11.64582,12.8305,11.6038Q12.88979,11.55986,12.94838,11.52999Q13.29022,11.35815,13.44534,11.08052L13.47602,11.0231L13.50609,10.96611L13.54923,10.94464Q13.55635,10.93062,13.5695,10.90469L13.5802,10.882950000000001L13.59076,10.8615Q13.7989,10.44068,13.80001,10.07541L13.79931,9.99298Q13.80245,9.639710000000001,13.70105,9.37144L13.684940000000001,9.330449999999999Q13.64362,9.2203,13.61158,9.1631L13.58081,9.11464L13.54411,9.04919L13.50891,8.986765L13.508189999999999,8.985486Q13.49523,8.962289,13.4826,8.941256L13.35321,8.89831L13.35321,8.783011Q13.24676,8.653847,13.12344,8.579098Q13.058489999999999,8.542248,13.00496,8.497295Q12.71194,8.260309,12.31627,8.223493Q12.24217,8.218842,12.19811,8.215287Q12.18759,8.21442,12.16665,8.212663Q11.95186,8.19464,11.85168,8.204212ZM12.53048,8.634732L12.52646,8.63275Q12.3342,8.537946999999999,11.9349,8.55146Q11.85749,8.55408,11.82196,8.554279L11.81852,8.554298L11.81508,8.554436Q11.59286,8.563338,11.32153,8.718841L11.27767,8.743291Q10.81235,9.01617,10.633766,9.55928L10.610103,9.61856L10.607208,9.62894Q10.574208,9.74718,10.574536,9.9377L10.574537,9.93806L10.574634,9.99147Q10.579193,10.23732,10.676763,10.45809L10.692938,10.50068Q10.764111,10.67992,10.930271,10.87062L10.946571,10.88956L10.96661,10.91283L10.969167,10.91558Q11.36435,11.34112,11.94403,11.36523L11.94672,11.36534L11.94942,11.36538Q12.537189999999999,11.37396,12.98432,10.95275L12.98649,10.9507L12.988620000000001,10.94857L13.03665,10.90058L13.03674,10.900500000000001L13.08815,10.84913L13.09136,10.84561Q13.44472,10.45726,13.41777,9.82197L13.4176,9.81793L13.41727,9.81391Q13.37444,9.29755,12.93661,8.891468L12.93261,8.887758L12.92841,8.884272Q12.80574,8.782353,12.57082,8.656944L12.53048,8.634732ZM12.346260000000001,8.989923Q12.24263,8.941275,11.94843,8.951231Q11.869299999999999,8.953909,11.82819,8.954245Q11.70428,8.960353,11.51955,9.06639L11.51726,9.06769L11.47243,9.09267Q11.14309,9.28591,11.01211,9.68926L11.01,9.69575L11.00745,9.70209L10.990148,9.74544Q10.974296,9.8107,10.974536,9.93731L10.974536,9.9377L10.974633,9.99074Q10.977659,10.15137,11.04429,10.300139999999999L11.04666,10.30544L11.06687,10.35864Q11.11061,10.4687,11.23186,10.60785L11.24969,10.62856L11.26473,10.64603Q11.54632,10.9474,11.95795,10.96546Q12.38063,10.97064,12.70797,10.66353L12.75389,10.61766L12.75395,10.6176L12.79852,10.573080000000001Q13.03692,10.30803,13.0183,9.84305Q12.98708,9.48597,12.66875,9.18861Q12.57709,9.11372,12.382439999999999,9.00981L12.346260000000001,8.989923Z" fill-rule="evenodd" fill="#000000" fill-opacity="1"/></g></g></svg>