<svg xmlns="http://www.w3.org/2000/svg" xmlns:xlink="http://www.w3.org/1999/xlink" fill="none" version="1.1" width="24" height="24" viewBox="0 0 24 24"><defs><clipPath id="master_svg0_347_14953/347_14929/347_10404"><rect x="0" y="0" width="24" height="24" rx="0"/></clipPath></defs><g clip-path="url(#master_svg0_347_14953/347_14929/347_10404)"><g><path d="M12,16.03953L21.5315,8.414348Q21.648,8.321154,21.7913,8.279633Q21.9346,8.238113,22.0828,8.254587Q22.2311,8.271062,22.3618,8.343024Q22.4925,8.414985,22.5857,8.531479Q22.6654,8.631217,22.7077,8.751745Q22.75,8.872272,22.75,9L22.75,19.909100000000002Q22.75,20.6527,22.26,21.1873Q21.7441,21.75,21,21.75L3,21.75Q2.255862,21.75,1.740032,21.1873Q1.25,20.6527,1.25,19.909100000000002L1.25,9Q1.25,8.9261315,1.264411,8.853682Q1.278822,8.781233,1.30709,8.712987Q1.335359,8.644742,1.376398,8.583322Q1.417437,8.521903,1.46967,8.46967Q1.521903,8.417437,1.583322,8.376398Q1.644742,8.335359,1.712987,8.30709Q1.781233,8.278822,1.853682,8.264410999999999Q1.9261314999999999,8.25,2,8.25Q2.127728,8.25,2.248255,8.292279Q2.368783,8.334557,2.468521,8.414348L12,16.03953ZM2.75,10.56047L11.53148,17.58565Q11.58099,17.62526,11.63645,17.656Q11.69191,17.68673,11.75174,17.707720000000002Q11.81158,17.72871,11.87409,17.739359999999998Q11.93659,17.75,12,17.75Q12.0634,17.75,12.1259,17.739359999999998Q12.1884,17.72871,12.2483,17.707720000000002Q12.3081,17.68673,12.3635,17.656Q12.419,17.62526,12.4685,17.58565L21.25,10.56047L21.25,19.909100000000002Q21.25,20.25,21,20.25L3,20.25Q2.75,20.25,2.75,19.909100000000002L2.75,10.56047Z" fill-rule="evenodd" fill="#2D2E33" fill-opacity="1"/></g><g><path d="M12,2.910868L21.5744,9.50949Q21.7666,9.64195,22,9.64195Q22.0294,9.64195,22.0588,9.63964Q22.1422,9.63308,22.2222,9.60829Q22.3021,9.58351,22.3746,9.54172Q22.4471,9.499929999999999,22.5086,9.443190000000001Q22.5701,9.38645,22.6175,9.31756Q22.75,9.12537,22.75,8.891960000000001L22.7499,8.88287Q22.7492,8.81902,22.7376,8.75623Q22.7106,8.60951,22.6295,8.48429Q22.5484,8.35907,22.4256,8.27441L12.4256,1.382458Q12.3317,1.3177590000000001,12.2229,1.28388Q12.114,1.25,12,1.25Q11.88599,1.25,11.77713,1.28388Q11.66827,1.3177590000000001,11.57439,1.382458L1.574689,8.2742L1.574393,8.27441Q1.4993539999999999,8.32612,1.438884,8.39431Q1.378414,8.462489999999999,1.336033,8.54317Q1.293652,8.623850000000001,1.271826,8.71233Q1.25,8.80081,1.25,8.89195Q1.25,8.9011,1.250223,8.910260000000001Q1.255677,9.133600000000001,1.382458,9.31756Q1.434174,9.3926,1.502357,9.45306Q1.57054,9.513539999999999,1.65122,9.55592Q1.7319010000000001,9.5983,1.820383,9.62012Q1.9088655,9.64195,2,9.64195Q2.00915403,9.64195,2.018306,9.641729999999999Q2.241652,9.63627,2.425607,9.50949L2.425903,9.50929L12,2.910868Z" fill-rule="evenodd" fill="#2D2E33" fill-opacity="1"/></g><g><path d="M17.4685,13.585650000000001Q17.534399999999998,13.53295,17.5869,13.466940000000001Q17.639400000000002,13.40092,17.676000000000002,13.32489Q17.7125,13.24886,17.731299999999997,13.16661Q17.75,13.08436,17.75,13L17.75,9Q17.75,8.9261315,17.735599999999998,8.853682Q17.7212,8.781233,17.6929,8.712987Q17.6646,8.644742,17.6236,8.583322Q17.5826,8.521903,17.5303,8.46967Q17.478099999999998,8.417437,17.4167,8.376398Q17.3553,8.335359,17.287,8.30709Q17.2188,8.278822,17.1463,8.264410999999999Q17.073900000000002,8.25,17,8.25L7,8.25Q6.9261315,8.25,6.853682,8.264410999999999Q6.781233,8.278822,6.712987,8.30709Q6.644742,8.335359,6.583322,8.376398Q6.521903,8.417437,6.46967,8.46967Q6.417437,8.521903,6.376398,8.583322Q6.335359,8.644742,6.30709,8.712987Q6.278822,8.781233,6.264411,8.853682Q6.25,8.9261315,6.25,9L6.25,13Q6.25,13.08436,6.26874,13.16661Q6.28748,13.24886,6.324023,13.32489Q6.360566,13.40092,6.413086,13.466940000000001Q6.465606,13.53295,6.531479,13.585650000000001L11.53148,17.58565Q11.58099,17.62526,11.63645,17.656Q11.69191,17.68673,11.751750000000001,17.707720000000002Q11.81158,17.72871,11.874089999999999,17.739359999999998Q11.936589999999999,17.75,12,17.75Q12.063410000000001,17.75,12.12592,17.739359999999998Q12.18842,17.72871,12.24826,17.707720000000002Q12.30809,17.68673,12.36355,17.656Q12.41901,17.62526,12.46852,17.58565L17.4685,13.585650000000001ZM16.25,12.63953L12,16.03953L7.75,12.63953L7.75,9.75L16.25,9.75L16.25,12.63953Z" fill-rule="evenodd" fill="#2D2E33" fill-opacity="1"/></g></g></svg>