<svg xmlns="http://www.w3.org/2000/svg" xmlns:xlink="http://www.w3.org/1999/xlink" fill="none" version="1.1" width="24" height="24" viewBox="0 0 24 24"><defs><clipPath id="master_svg0_3489_24883"><rect x="0" y="0" width="24" height="24" rx="0"/></clipPath></defs><g clip-path="url(#master_svg0_3489_24883)"><g><path d="M7,11.25L17,11.25Q17.073900000000002,11.25,17.1463,11.264410999999999Q17.2188,11.278822,17.287,11.30709Q17.3553,11.335359,17.4167,11.376398Q17.478099999999998,11.417437,17.5303,11.46967Q17.5826,11.521903,17.6236,11.583322Q17.6646,11.644742,17.6929,11.712987Q17.7212,11.781233,17.735599999999998,11.853682Q17.75,11.9261315,17.75,12Q17.75,12.0738685,17.735599999999998,12.146318Q17.7212,12.218767,17.6929,12.287013Q17.6646,12.355258,17.6236,12.416678Q17.5826,12.478097,17.5303,12.53033Q17.478099999999998,12.582563,17.4167,12.623602Q17.3553,12.664641,17.287,12.69291Q17.2188,12.721178,17.1463,12.735589000000001Q17.073900000000002,12.75,17,12.75L7,12.75Q6.9261315,12.75,6.853682,12.735589000000001Q6.781233,12.721178,6.712987,12.69291Q6.644742,12.664641,6.583322,12.623602Q6.521903,12.582563,6.46967,12.53033Q6.417437,12.478097,6.376398,12.416678Q6.335359,12.355258,6.30709,12.287013Q6.278822,12.218767,6.264411,12.146318Q6.25,12.0738685,6.25,12Q6.25,11.9261315,6.264411,11.853682Q6.278822,11.781233,6.30709,11.712987Q6.335359,11.644742,6.376398,11.583322Q6.417437,11.521903,6.46967,11.46967Q6.521903,11.417437,6.583322,11.376398Q6.644742,11.335359,6.712987,11.30709Q6.781233,11.278822,6.853682,11.264410999999999Q6.9261315,11.25,7,11.25Z" fill-rule="evenodd" fill="#2D2E33" fill-opacity="1"/></g><g><path d="M12.530484,6.469824L17.53033,11.46967Q17.58256,11.521899999999999,17.6236,11.58332Q17.66464,11.644739999999999,17.69291,11.71299Q17.72118,11.78123,17.735590000000002,11.85368Q17.75,11.92613,17.75,12Q17.75,12.07387,17.735590000000002,12.14632Q17.72118,12.21877,17.69291,12.28701Q17.66464,12.355260000000001,17.6236,12.41668Q17.58256,12.478100000000001,17.53033,12.53033L12.530792,17.529899999999998L12.53033,17.5303Q12.424841,17.6358,12.287013,17.6929Q12.149184,17.75,12,17.75Q11.9261315,17.75,11.853682,17.735599999999998Q11.781233,17.7212,11.712987,17.6929Q11.644742,17.6646,11.583322,17.6236Q11.521903,17.5826,11.46967,17.5303Q11.417437,17.478099999999998,11.376398,17.4167Q11.335359,17.3553,11.30709,17.287Q11.278822,17.2188,11.264410999999999,17.1463Q11.25,17.073900000000002,11.25,17Q11.25,16.85081,11.30709,16.712989999999998Q11.364181,16.57516,11.46967,16.46967L11.470132,16.46921L15.93934,12L11.469824,7.5304839999999995L11.46967,7.53033Q11.364181,7.424841,11.30709,7.287013Q11.25,7.149184,11.25,7Q11.25,6.9261315,11.264410999999999,6.853682Q11.278822,6.781233,11.30709,6.712987Q11.335359,6.644742,11.376398,6.583322Q11.417437,6.521903,11.46967,6.46967Q11.521903,6.417437,11.583322,6.376398Q11.644742,6.335359,11.712987,6.30709Q11.781233,6.278822,11.853682,6.264411Q11.9261315,6.25,12,6.25Q12.149184,6.25,12.287013,6.30709Q12.424841,6.364181,12.53033,6.46967L12.530484,6.469824Z" fill-rule="evenodd" fill="#2D2E33" fill-opacity="1"/></g></g></svg>