<svg xmlns="http://www.w3.org/2000/svg" xmlns:xlink="http://www.w3.org/1999/xlink" fill="none" version="1.1" width="16" height="16" viewBox="0 0 16 16"><defs><clipPath id="master_svg0_4149_49668"><rect x="0" y="0" width="16" height="16" rx="4"/></clipPath></defs><g clip-path="url(#master_svg0_4149_49668)"><g><g><path d="M9.111002922058105,2.5L12.999892922058105,2.5Q13.049132922058106,2.5,13.097432922058106,2.509607Q13.145732922058105,2.519215,13.191232922058106,2.5380599999999998Q13.236732922058106,2.556906,13.277672922058105,2.584265Q13.318622922058106,2.611625,13.353442922058106,2.646447Q13.388262922058106,2.681269,13.415622922058105,2.722215Q13.442982922058105,2.763161,13.461832922058106,2.808658Q13.480672922058105,2.854155,13.490282922058105,2.9024549Q13.499892922058105,2.9507543,13.499892922058105,3L13.499892922058105,6.88889Q13.499892922058105,6.93813,13.490282922058105,6.98643Q13.480672922058105,7.03473,13.461832922058106,7.08023Q13.442982922058105,7.12573,13.415622922058105,7.16667Q13.388262922058106,7.20762,13.353442922058106,7.24244Q13.318622922058106,7.27726,13.277672922058105,7.30462Q13.236732922058106,7.33198,13.191232922058106,7.35083Q13.145732922058105,7.36967,13.097432922058106,7.37928Q13.049132922058106,7.38889,12.999892922058105,7.38889Q12.950642922058105,7.38889,12.902342922058105,7.37928Q12.854042922058106,7.36967,12.808552922058105,7.35083Q12.763052922058105,7.33198,12.722102922058106,7.30462Q12.681162922058105,7.27726,12.646342922058105,7.24244Q12.611512922058106,7.20762,12.584152922058106,7.16667Q12.556792922058106,7.12573,12.537952922058105,7.08023Q12.519102922058106,7.03473,12.509502922058106,6.98643Q12.499892922058105,6.93813,12.499892922058105,6.88889L12.499892922058105,3.5L9.111002922058105,3.5Q9.061757222058105,3.5,9.013457822058106,3.490393Q8.965157922058106,3.480785,8.919660922058105,3.4619400000000002Q8.874163922058106,3.443094,8.833217922058106,3.415735Q8.792271922058106,3.388375,8.757449922058106,3.353553Q8.722627922058106,3.318731,8.695267922058106,3.277785Q8.667908922058105,3.236839,8.649062922058105,3.191342Q8.630217922058105,3.145845,8.620609922058106,3.0975451Q8.611002922058105,3.0492457,8.611002922058105,3Q8.611002922058105,2.9507543,8.620609922058106,2.9024549Q8.630217922058105,2.854155,8.649062922058105,2.808658Q8.667908922058105,2.763161,8.695267922058106,2.722215Q8.722627922058106,2.681269,8.757449922058106,2.646447Q8.792271922058106,2.611625,8.833217922058106,2.584265Q8.874163922058106,2.556906,8.919660922058105,2.5380599999999998Q8.965157922058106,2.519215,9.013457822058106,2.509607Q9.061757222058105,2.5,9.111002922058105,2.5Z" fill-rule="evenodd" fill="#50D2C1" fill-opacity="1" style="mix-blend-mode:passthrough"/></g><g><path d="M3.833333,3.5L6.33333,3.5Q6.38258,3.5,6.43088,3.490393Q6.4791799999999995,3.480785,6.52467,3.4619400000000002Q6.57017,3.443094,6.61112,3.415735Q6.6520600000000005,3.388375,6.68689,3.353553Q6.72171,3.318731,6.74907,3.277785Q6.7764299999999995,3.236839,6.79527,3.191342Q6.81412,3.145845,6.823729999999999,3.0975451Q6.83333,3.0492457,6.83333,3Q6.83333,2.9507543,6.823729999999999,2.9024549Q6.81412,2.854155,6.79527,2.808658Q6.7764299999999995,2.763161,6.74907,2.722215Q6.72171,2.681269,6.68689,2.646447Q6.6520600000000005,2.611625,6.61112,2.584265Q6.57017,2.556906,6.52467,2.5380599999999998Q6.4791799999999995,2.519215,6.43088,2.509607Q6.38258,2.5,6.33333,2.5L3.833333,2.5Q3.281049,2.5,2.890525,2.890525Q2.5,3.281049,2.5,3.833333L2.5,12.16667Q2.5,12.71896,2.890527,13.1095Q3.281048,13.5,3.833333,13.5L12.16667,13.5Q12.71896,13.5,13.1095,13.1095Q13.5,12.71896,13.5,12.16667L13.5,9.52047Q13.5,9.47123,13.4904,9.422930000000001Q13.4808,9.37463,13.4619,9.32913Q13.4431,9.283629999999999,13.4157,9.24269Q13.3884,9.201740000000001,13.3536,9.166920000000001Q13.3187,9.132100000000001,13.2778,9.10474Q13.2368,9.07738,13.1913,9.058530000000001Q13.1458,9.03969,13.0975,9.03008Q13.0492,9.02047,13,9.02047Q12.95075,9.02047,12.90245,9.03008Q12.85415,9.03969,12.80866,9.058530000000001Q12.76316,9.07738,12.72221,9.10474Q12.68127,9.132100000000001,12.64645,9.166920000000001Q12.61162,9.201740000000001,12.58426,9.24269Q12.5569,9.283629999999999,12.53806,9.32913Q12.51921,9.37463,12.50961,9.422930000000001Q12.5,9.47123,12.5,9.52047L12.5,12.16667Q12.5,12.5,12.16667,12.5L3.833333,12.5Q3.5,12.5,3.5,12.16667L3.5,3.833333Q3.5,3.5,3.833333,3.5Z" fill-rule="evenodd" fill="#50D2C1" fill-opacity="1" style="mix-blend-mode:passthrough"/></g><g><path d="M13.103401539154053,3.603547Q13.173721539154052,3.533221,13.211781539154053,3.441337Q13.249841539154053,3.3494538,13.249841539154053,3.25Q13.249841539154053,3.2007543,13.240231539154053,3.1524549Q13.230621539154054,3.104155,13.211781539154053,3.058658Q13.192931539154053,3.013161,13.165571539154053,2.972215Q13.138211539154053,2.931269,13.103391539154053,2.896447Q13.068571539154053,2.861625,13.027621539154053,2.834265Q12.986671539154052,2.806906,12.941181539154051,2.7880599999999998Q12.895681539154053,2.769215,12.847381539154053,2.759607Q12.799081539154052,2.75,12.749841539154053,2.75Q12.650381539154052,2.75,12.558491539154053,2.788062Q12.466601539154052,2.826124,12.396281539154053,2.896453L12.395981539154054,2.896749L5.646521539154053,9.64645Q5.576198539154053,9.71678,5.538140539154052,9.80866Q5.500081539154053,9.900549999999999,5.500081539154053,10Q5.500081539154053,10.04925,5.509688539154053,10.09754Q5.519296539154053,10.14584,5.5381415391540525,10.19134Q5.556987539154052,10.23684,5.584346539154053,10.27778Q5.611706539154053,10.31873,5.646528539154053,10.35355Q5.681350539154053,10.38837,5.722296539154053,10.41573Q5.763242539154053,10.44309,5.808739539154053,10.46194Q5.854236539154053,10.48078,5.902536439154053,10.49039Q5.950835839154053,10.5,6.000081539154053,10.5Q6.099540039154053,10.5,6.191427539154053,10.46194Q6.283314539154053,10.42388,6.353641539154053,10.35355L13.103401539154053,3.603547L13.103401539154053,3.603547Z" fill-rule="evenodd" fill="#50D2C1" fill-opacity="1" style="mix-blend-mode:passthrough"/></g></g></g></svg>