<svg xmlns="http://www.w3.org/2000/svg" xmlns:xlink="http://www.w3.org/1999/xlink" fill="none" version="1.1" width="16" height="16" viewBox="0 0 16 16"><defs><clipPath id="master_svg0_327_00493"><rect x="0" y="0" width="16" height="16" rx="0"/></clipPath></defs><g clip-path="url(#master_svg0_327_00493)"><g transform="matrix(0.7071067690849304,-0.7071067690849304,0.7071067690849304,0.7071067690849304,-6.142814949664171,6.830576969499816)"><path d="M13.173828125,10.080322265625L5.173828125,10.080322265625Q5.099959625,10.080322265625,5.027510125,10.094733265624999Q4.955061125,10.109144265625,4.886815125,10.137412265625Q4.818570125,10.165681265625,4.757150125,10.206720265625Q4.695731125,10.247759265625,4.643498125,10.299992265625Q4.591265125,10.352225265625,4.550226125,10.413644265625Q4.509187125,10.475064265625,4.480918125,10.543309265625Q4.452650125,10.611555265625,4.438239125,10.684004265625Q4.423828125,10.756453765625,4.423828125,10.830322265625Q4.423828125,10.904190765625,4.438239125,10.976640265625Q4.452650125,11.049089265625,4.480918125,11.117335265625Q4.509187125,11.185580265625,4.550226125,11.247000265625Q4.591265125,11.308419265625,4.643498125,11.360652265625Q4.695731125,11.412885265625,4.757150125,11.453924265625Q4.818570125,11.494963265625,4.886815125,11.523232265625Q4.955061125,11.551500265625,5.027510125,11.565911265625001Q5.099959625,11.580322265625,5.173828125,11.580322265625L13.173828125,11.580322265625Q13.247698125,11.580322265625,13.320148125,11.565911265625001Q13.392598125,11.551500265625,13.460838125,11.523232265625Q13.529088125,11.494963265625,13.590508125,11.453924265625Q13.651928125,11.412885265625,13.704158125,11.360652265625Q13.756388125,11.308419265625,13.797428125,11.247000265625Q13.838468125,11.185580265625,13.866738125,11.117335265625Q13.895008125,11.049089265625,13.909418125,10.976640265625Q13.923828125,10.904190765625,13.923828125,10.830322265625Q13.923828125,10.756453765625,13.909418125,10.684004265625Q13.895008125,10.611555265625,13.866738125,10.543309265625Q13.838468125,10.475064265625,13.797428125,10.413644265625Q13.756388125,10.352225265625,13.704158125,10.299992265625Q13.651928125,10.247759265625,13.590508125,10.206720265625Q13.529088125,10.165681265625,13.460838125,10.137412265625Q13.392598125,10.109144265625,13.320148125,10.094733265624999Q13.247698125,10.080322265625,13.173828125,10.080322265625Z" fill-rule="evenodd" fill="#2D2E33" fill-opacity="1"/></g><g transform="matrix(0.7071067690849304,-0.7071067690849304,0.7071067690849304,0.7071067690849304,-2.142088009233703,5.171803492863546)"><path d="M5.7023589999999995,4.641454859375L5.702205,4.641300859375Q5.596716,4.535811859375,5.458888,4.478720859375Q5.321059,4.421630859375,5.171875,4.421630859375Q5.022691,4.421630859375,4.884862,4.478720859375Q4.747034,4.535811859375,4.641545,4.641300859375Q4.536056,4.746789859375,4.478965,4.884617859375Q4.421875,5.022446859375,4.421875,5.171630859375Q4.421875,5.320814859375,4.478965,5.458643859375Q4.536056,5.596471859375,4.641545,5.701960859375L4.641699,5.7021148593749995L8.111215,9.171630859375L4.641545,12.641300859375Q4.536056,12.746790859375,4.478965,12.884620859375Q4.421875,13.022450859374999,4.421875,13.171630859375Q4.421875,13.189650859375,4.422741,13.207660859375Q4.429458,13.347330859375,4.486061,13.475210859375Q4.542664,13.603080859375,4.641545,13.701960859375Q4.747034,13.807450859375,4.884862,13.864540859375Q5.022691,13.921630859375,5.171875,13.921630859375Q5.321059,13.921630859375,5.458888,13.864540859375Q5.596716,13.807450859375,5.702205,13.701960859375L5.702667,13.701500859375L9.702205,9.701960859375Q9.754435,9.649730859375001,9.795475,9.588310859375Q9.836515,9.526890859375001,9.864785000000001,9.458640859375Q9.893055,9.390400859375,9.907465,9.317950859375Q9.921875,9.245500859375,9.921875,9.171630859375Q9.921875,9.097760859375,9.907465,9.025310859375Q9.893055,8.952860859375,9.864785000000001,8.884620859375Q9.836515,8.816370859375,9.795475,8.754950859375Q9.754435,8.693530859375,9.702205,8.641300859375L5.7023589999999995,4.641454859375Z" fill-rule="evenodd" fill="#2D2E33" fill-opacity="1"/></g></g></svg>