<svg xmlns="http://www.w3.org/2000/svg" xmlns:xlink="http://www.w3.org/1999/xlink" fill="none" version="1.1" width="16" height="16" viewBox="0 0 16 16"><defs><clipPath id="master_svg0_142_25408"><rect x="0" y="0" width="16" height="16" rx="0"/></clipPath></defs><g clip-path="url(#master_svg0_142_25408)"><g><path d="M12,7.252685546875L4,7.252685546875Q3.9261315,7.252685546875,3.853682,7.267096546875Q3.781233,7.281507546875,3.712987,7.309775546875Q3.644742,7.338044546875,3.583322,7.379083546875Q3.521903,7.420122546875,3.46967,7.472355546875Q3.417437,7.524588546875,3.376398,7.586007546875Q3.335359,7.647427546875,3.30709,7.715672546875Q3.278822,7.783918546875,3.264411,7.856367546875Q3.25,7.928817046875,3.25,8.002685546875Q3.25,8.076554046875,3.264411,8.149003546875Q3.278822,8.221452546875,3.30709,8.289698546875Q3.335359,8.357943546875,3.376398,8.419363546875Q3.417437,8.480782546875,3.46967,8.533015546875Q3.521903,8.585248546875,3.583322,8.626287546875Q3.644742,8.667326546875,3.712987,8.695595546875Q3.781233,8.723863546875,3.853682,8.738274546875001Q3.9261315,8.752685546875,4,8.752685546875L12,8.752685546875Q12.07387,8.752685546875,12.14632,8.738274546875001Q12.21877,8.723863546875,12.28701,8.695595546875Q12.35526,8.667326546875,12.41668,8.626287546875Q12.4781,8.585248546875,12.53033,8.533015546875Q12.58256,8.480782546875,12.6236,8.419363546875Q12.66464,8.357943546875,12.69291,8.289698546875Q12.72118,8.221452546875,12.73559,8.149003546875Q12.75,8.076554046875,12.75,8.002685546875Q12.75,7.928817046875,12.73559,7.856367546875Q12.72118,7.783918546875,12.69291,7.715672546875Q12.66464,7.647427546875,12.6236,7.586007546875Q12.58256,7.524588546875,12.53033,7.472355546875Q12.4781,7.420122546875,12.41668,7.379083546875Q12.35526,7.338044546875,12.28701,7.309775546875Q12.21877,7.281507546875,12.14632,7.267096546875Q12.07387,7.252685546875,12,7.252685546875Z" fill-rule="evenodd" fill="#C0C4CC" fill-opacity="1"/></g><g><path d="M8.530484,3.469824L8.53033,3.46967Q8.424841,3.364181,8.287013,3.30709Q8.149184,3.25,8,3.25Q7.850816,3.25,7.712987,3.30709Q7.575159,3.364181,7.46967,3.46967Q7.364181,3.575159,7.30709,3.712987Q7.25,3.850816,7.25,4Q7.25,4.149184,7.30709,4.287013Q7.364181,4.424841,7.46967,4.53033L7.469824,4.5304839999999995L10.93934,8L7.46967,11.46967Q7.364181,11.57516,7.30709,11.71299Q7.25,11.850819999999999,7.25,12Q7.25,12.01802,7.250866,12.03603Q7.257583,12.1757,7.314186,12.30358Q7.370789,12.43145,7.46967,12.53033Q7.575159,12.63582,7.712987,12.69291Q7.850816,12.75,8,12.75Q8.149184,12.75,8.287013,12.69291Q8.424841,12.63582,8.53033,12.53033L8.530792,12.52987L12.53033,8.53033Q12.58256,8.478100000000001,12.6236,8.41668Q12.66464,8.355260000000001,12.692910000000001,8.28701Q12.72118,8.21877,12.73559,8.14632Q12.75,8.07387,12.75,8Q12.75,7.926130000000001,12.73559,7.853680000000001Q12.72118,7.78123,12.692910000000001,7.71299Q12.66464,7.6447400000000005,12.6236,7.5833200000000005Q12.58256,7.5219000000000005,12.53033,7.46967L8.530484,3.469824Z" fill-rule="evenodd" fill="#C0C4CC" fill-opacity="1"/></g></g></svg>