<svg xmlns="http://www.w3.org/2000/svg" xmlns:xlink="http://www.w3.org/1999/xlink" fill="none" version="1.1" width="24" height="24" viewBox="0 0 24 24"><defs><clipPath id="master_svg0_1339_07185"><rect x="0" y="0" width="24" height="24" rx="0"/></clipPath></defs><g clip-path="url(#master_svg0_1339_07185)"><g><g><path d="M20.27279,8.831031875Q20.61739,6.556671875,19.03033,4.969613875Q17.44327,3.3825318749999997,15.1689,3.727132875Q14.33945,3.852805875,13.56716,4.227488875Q12.87688,4.562382875,12.469671,4.969613875L10.96967,6.469611875Q10.917437,6.521841875,10.876398,6.583261875Q10.835359,6.644681875,10.80709,6.712931875000001Q10.778822,6.781171875,10.764410999999999,6.853621875Q10.75,6.926071875,10.75,6.999941875Q10.75,7.0738118750000005,10.764410999999999,7.146261875Q10.778822,7.218711875,10.80709,7.286951875Q10.835359,7.3552018750000006,10.876398,7.416621875000001Q10.917437,7.478041875000001,10.96967,7.530271875L16.46967,13.030271875Q16.57516,13.135761875,16.712989999999998,13.192851875Q16.85082,13.249941875,17,13.249941875Q17.14918,13.249941875,17.287010000000002,13.192851875Q17.42484,13.135761875,17.53033,13.030271875L19.03035,11.530261875Q19.43756,11.123011875,19.77244,10.432761875Q20.147109999999998,9.660471874999999,20.27279,8.831031875ZM15.3936,5.210206875Q16.91856,4.979154875,17.96967,6.030271875Q19.02077,7.081371875,18.78971,8.606321874999999Q18.69815,9.210611875,18.42287,9.778021875Q18.19826,10.241011875,17.96965,10.469631875000001L17,11.439281874999999L12.56066,6.999941875L13.53033,6.030271875Q13.75893,5.801661875,14.22191,5.577041875Q14.78931,5.301764875,15.3936,5.210206875Z" fill-rule="evenodd" fill="#2D2E33" fill-opacity="1"/></g><g><path d="M20.46967,2.46967L17.96967,4.96967Q17.864181,5.07516,17.80709,5.21299Q17.75,5.350820000000001,17.75,5.5Q17.75,5.649179999999999,17.80709,5.78701Q17.864181,5.92484,17.96967,6.03033Q18.075159,6.13582,18.212987,6.1929099999999995Q18.350816,6.25,18.5,6.25Q18.649184,6.25,18.787013,6.1929099999999995Q18.924841,6.13582,19.03033,6.03033L21.53033,3.53033Q21.63582,3.424841,21.69291,3.287013Q21.75,3.149184,21.75,3Q21.75,2.850816,21.69291,2.712987Q21.63582,2.575159,21.53033,2.46967Q21.42484,2.364181,21.28701,2.30709Q21.14918,2.25,21,2.25Q20.85082,2.25,20.71299,2.30709Q20.57516,2.364181,20.46967,2.46967Z" fill-rule="evenodd" fill="#2D2E33" fill-opacity="1"/></g><g><path d="M4.969584875,19.03032L4.969591875,19.03033Q6.556651875,20.61743,8.831021875000001,20.27282Q9.660481875,20.14715,10.432771875,19.772460000000002Q11.123041875,19.43756,11.530251875000001,19.03033L13.030251875,17.53033Q13.082481875,17.4781,13.123521875,17.41668Q13.164561875,17.35526,13.192831875,17.287010000000002Q13.221101875,17.21877,13.235511875,17.14632Q13.249921875,17.07387,13.249921875,17Q13.249921875,16.92613,13.235511875,16.85368Q13.221101875,16.78123,13.192831875,16.712989999999998Q13.164561875,16.64474,13.123521875,16.58332Q13.082481875,16.5219,13.030251875,16.46967L7.530251874999999,10.96967Q7.478021875,10.917437,7.416601875,10.876398Q7.3551818749999995,10.835359,7.2869318750000005,10.80709Q7.218691875,10.778822,7.146241874999999,10.764410999999999Q7.0737918749999995,10.75,6.999921875,10.75Q6.926051875000001,10.75,6.853601875,10.764410999999999Q6.781151875,10.778822,6.712911875,10.807091Q6.644661875000001,10.835359,6.583241875000001,10.876398Q6.5218218750000005,10.917437,6.469591875,10.96967L4.969573875,12.469688Q4.562356875,12.87693,4.227483875,13.56719Q3.852807875,14.33948,3.727134875,15.16891Q3.3825318749999997,17.44327,4.969584875,19.03032ZM8.606321874999999,18.789749999999998Q7.081361875,19.02081,6.030261875,17.96968L6.030251875,17.96967Q4.979153875,16.91857,5.210207875,15.39362Q5.301766875,14.78934,5.577051875,14.22192Q5.801661875,13.75893,6.030271875,13.53031L6.999921875,12.56066L11.439261875,17L10.469591874999999,17.96967Q10.240991874999999,18.19829,9.778011875,18.42291Q9.210611875,18.69819,8.606321874999999,18.789749999999998Z" fill-rule="evenodd" fill="#2D2E33" fill-opacity="1"/></g><g><path d="M12.030484,16.53018L14.03033,14.53033Q14.135819999999999,14.424841,14.19291,14.287013Q14.25,14.149184,14.25,13.9999999476266Q14.25,13.850816,14.19291,13.712987Q14.135819999999999,13.575159,14.03033,13.46967Q13.92484,13.364181,13.78701,13.30709Q13.64918,13.25,13.5,13.25Q13.35082,13.25,13.21299,13.30709Q13.07516,13.364181,12.96967,13.46967L10.969824,15.46952L10.96967,15.46967Q10.864181,15.57516,10.80709,15.71299Q10.75,15.85082,10.75,16Q10.75,16.14919,10.80709,16.28701Q10.864181,16.42484,10.96967,16.53033Q11.075159,16.63582,11.212987,16.69291Q11.350816,16.75,11.5,16.75Q11.649184,16.75,11.787013,16.69291Q11.924841,16.63582,12.03033,16.53033L12.030484,16.53018Z" fill-rule="evenodd" fill="#2D2E33" fill-opacity="1"/></g><g><path d="M3.53033,21.53033L6.03033,19.03033Q6.13582,18.924841,6.1929099999999995,18.787013Q6.25,18.649184,6.25,18.5Q6.25,18.350816,6.1929099999999995,18.212987Q6.13582,18.075159,6.03033,17.96967Q5.92484,17.864181,5.78701,17.80709Q5.649179999999999,17.75,5.5,17.75Q5.350820000000001,17.75,5.21299,17.80709Q5.07516,17.864181,4.96967,17.96967L2.46967,20.46967Q2.364181,20.57516,2.30709,20.71299Q2.25,20.85082,2.25,21Q2.25,21.14918,2.30709,21.28701Q2.364181,21.42484,2.46967,21.53033Q2.575159,21.63582,2.712987,21.69291Q2.850816,21.75,3,21.75Q3.149184,21.75,3.287013,21.69291Q3.424841,21.63582,3.53033,21.53033Z" fill-rule="evenodd" fill="#2D2E33" fill-opacity="1"/></g><g><path d="M8.530484,13.03018L10.53033,11.03033Q10.635819999999999,10.924841,10.69291,10.787013Q10.75,10.649184,10.75,10.4999999476266Q10.75,10.350816,10.69291,10.212987Q10.635819999999999,10.075159,10.53033,9.96967Q10.42484,9.864181,10.28701,9.80709Q10.14918,9.75,10,9.75Q9.85082,9.75,9.71299,9.80709Q9.57516,9.864181,9.46967,9.96967L7.469824,11.96952L7.46967,11.96967Q7.364181,12.07516,7.30709,12.21299Q7.25,12.35082,7.25,12.5Q7.25,12.64919,7.30709,12.78701Q7.364181,12.92484,7.46967,13.03033Q7.575159,13.135819999999999,7.712987,13.19291Q7.850816,13.25,8,13.25Q8.149184,13.25,8.287013,13.19291Q8.424841,13.135819999999999,8.53033,13.03033L8.530484,13.03018Z" fill-rule="evenodd" fill="#2D2E33" fill-opacity="1"/></g></g></g></svg>