<svg xmlns="http://www.w3.org/2000/svg" xmlns:xlink="http://www.w3.org/1999/xlink" fill="none" version="1.1" width="20" height="20" viewBox="0 0 20 20"><defs><clipPath id="master_svg0_sa142_03231"><rect x="0" y="0" width="20" height="20" rx="0"/></clipPath></defs><g clip-path="url(#master_svg0_sa142_03231)"><g><path d="M2.5,18.25L17.5,18.25Q17.573900000000002,18.25,17.6463,18.235599999999998Q17.7188,18.2212,17.787,18.1929Q17.8553,18.1646,17.9167,18.1236Q17.978099999999998,18.0826,18.0303,18.0303Q18.0826,17.978099999999998,18.1236,17.9167Q18.1646,17.8553,18.1929,17.787Q18.2212,17.7188,18.235599999999998,17.6463Q18.25,17.573900000000002,18.25,17.5Q18.25,17.426099999999998,18.235599999999998,17.3537Q18.2212,17.2812,18.1929,17.213Q18.1646,17.1447,18.1236,17.0833Q18.0826,17.021900000000002,18.0303,16.9697Q17.978099999999998,16.9174,17.9167,16.8764Q17.8553,16.8354,17.787,16.8071Q17.7188,16.7788,17.6463,16.764400000000002Q17.573900000000002,16.75,17.5,16.75L3.25,16.75L3.25,2.5Q3.25,2.4261315,3.235589,2.353682Q3.221178,2.281233,3.19291,2.212987Q3.164641,2.144742,3.123602,2.083322Q3.082563,2.021903,3.03033,1.96967Q2.978097,1.917437,2.916678,1.876398Q2.855258,1.835359,2.787013,1.80709Q2.718767,1.778822,2.646318,1.764411Q2.5738685,1.75,2.5,1.75Q2.4261315,1.75,2.353682,1.764411Q2.281233,1.778822,2.212987,1.80709Q2.144742,1.835359,2.083322,1.876398Q2.021903,1.917437,1.96967,1.96967Q1.917437,2.021903,1.876398,2.083322Q1.835359,2.144742,1.80709,2.212987Q1.778822,2.281233,1.764411,2.353682Q1.75,2.4261315,1.75,2.5L1.75,17.5Q1.75,17.573900000000002,1.764411,17.6463Q1.778822,17.7188,1.80709,17.787Q1.835359,17.8553,1.876398,17.9167Q1.917437,17.978099999999998,1.96967,18.0303Q2.021903,18.0826,2.083322,18.1236Q2.144742,18.1646,2.212987,18.1929Q2.281233,18.2212,2.353682,18.235599999999998Q2.4261315,18.25,2.5,18.25Z" fill-rule="evenodd" fill="#99A0AF" fill-opacity="1"/></g><g><path d="M10.0003221875,8.3332959765625Q10.0003221875,8.4151659765625,9.9923021875,8.4966559765625Q9.9842721875,8.5781359765625,9.9683021875,8.6584459765625Q9.9523221875,8.7387459765625,9.928562187499999,8.8170959765625Q9.9047921875,8.8954559765625,9.8734621875,8.9710959765625Q9.8421221875,9.0467459765625,9.8035221875,9.1189559765625Q9.7649321875,9.1911659765625,9.7194421875,9.2592459765625Q9.6739521875,9.3273259765625,9.622012187500001,9.3906159765625Q9.5700621875,9.453905976562499,9.5121721875,9.5118059765625Q9.454272187499999,9.5696959765625,9.3909821875,9.621645976562501Q9.3276921875,9.6735859765625,9.2596121875,9.7190759765625Q9.1915321875,9.7645659765625,9.1193221875,9.8031559765625Q9.0471121875,9.8417559765625,8.9714621875,9.8730959765625Q8.8958221875,9.9044259765625,8.8174621875,9.928195976562499Q8.7391121875,9.9519559765625,8.6588121875,9.9679359765625Q8.5785021875,9.9839059765625,8.4970221875,9.9919359765625Q8.4155321875,9.9999559765625,8.3336621875,9.9999559765625Q8.2517821875,9.9999559765625,8.1702921875,9.9919359765625Q8.0888121875,9.9839059765625,8.0085121875,9.9679359765625Q7.9282021875,9.9519559765625,7.8498521875,9.928195976562499Q7.7715021875,9.9044259765625,7.6958521875,9.8730959765625Q7.6202071875,9.8417559765625,7.5479971875,9.8031559765625Q7.4757871875,9.7645659765625,7.4077081875,9.7190759765625Q7.3396291875,9.6735859765625,7.2763361875,9.621645976562501Q7.2130441874999995,9.5696959765625,7.1551471875,9.5118059765625Q7.0972511875,9.453905976562499,7.0453081875,9.3906159765625Q6.9933651875,9.3273259765625,6.9478761875,9.2592459765625Q6.9023871875,9.1911659765625,6.8637901875,9.1189559765625Q6.8251931875,9.0467459765625,6.7938591875,8.9710959765625Q6.7625261875,8.8954559765625,6.7387582875,8.8170959765625Q6.7149902875,8.7387459765625,6.6990166875,8.6584459765625Q6.6830430875,8.5781359765625,6.6750176375,8.4966559765625Q6.6669921875,8.4151659765625,6.6669921875,8.3332959765625Q6.6669921875,8.2514159765625,6.6750176375,8.1699259765625Q6.6830430875,8.0884459765625,6.6990166875,8.0081459765625Q6.7149902875,7.9278359765625,6.7387582875,7.8494859765625Q6.7625261875,7.7711359765625,6.7938591875,7.6954859765625Q6.8251931875,7.6198409765625,6.8637901875,7.5476309765625Q6.9023871875,7.4754209765625,6.9478761875,7.4073419765625Q6.9933651875,7.3392629765625,7.0453081875,7.2759699765625Q7.0972511875,7.2126779765624995,7.1551471875,7.1547809765625Q7.2130441874999995,7.0968849765625,7.2763361875,7.0449419765625Q7.3396291875,6.9929989765625,7.4077081875,6.9475099765625Q7.4757871875,6.9020209765625,7.5479971875,6.8634239765625Q7.6202071875,6.8248269765625,7.6958521875,6.7934929765625Q7.7715021875,6.7621599765625,7.8498521875,6.7383920765625Q7.9282021875,6.7146240765625,8.0085121875,6.6986504765625Q8.0888121875,6.6826768765625,8.1702921875,6.6746514265625Q8.2517821875,6.6666259765625,8.3336621875,6.6666259765625Q8.4155321875,6.6666259765625,8.4970221875,6.6746514265625Q8.5785021875,6.6826768765625,8.6588121875,6.6986504765625Q8.7391121875,6.7146240765625,8.8174621875,6.7383920765625Q8.8958221875,6.7621599765625,8.9714621875,6.7934929765625Q9.0471121875,6.8248269765625,9.1193221875,6.8634239765625Q9.1915321875,6.9020209765625,9.2596121875,6.9475099765625Q9.3276921875,6.9929989765625,9.3909821875,7.0449419765625Q9.454272187499999,7.0968849765625,9.5121721875,7.1547809765625Q9.5700621875,7.2126779765624995,9.622012187500001,7.2759699765625Q9.6739521875,7.3392629765625,9.7194421875,7.4073419765625Q9.7649321875,7.4754209765625,9.8035221875,7.5476309765625Q9.8421221875,7.6198409765625,9.8734621875,7.6954859765625Q9.9047921875,7.7711359765625,9.928562187499999,7.8494859765625Q9.9523221875,7.9278359765625,9.9683021875,8.0081459765625Q9.9842721875,8.0884459765625,9.9923021875,8.1699259765625Q10.0003221875,8.2514159765625,10.0003221875,8.3332959765625Z" fill="#99A0AF" fill-opacity="1"/></g><g><path d="M17.4996778125,4.58333Q17.4996778125,4.68568,17.4896378125,4.78754Q17.4796078125,4.889390000000001,17.459647812500002,4.98977Q17.4396778125,5.0901499999999995,17.4099678125,5.18809Q17.3802578125,5.28603,17.3410878125,5.38059Q17.3019178125,5.47515,17.2536778125,5.56541Q17.205427812499998,5.655670000000001,17.1485678125,5.7407699999999995Q17.0917078125,5.82587,17.0267778125,5.90499Q16.9618478125,5.9841,16.8894778125,6.05647Q16.8171078125,6.12884,16.7379978125,6.193770000000001Q16.658877812500002,6.2587,16.5737778125,6.31556Q16.4886778125,6.37242,16.3984178125,6.420669999999999Q16.3081578125,6.46892,16.2135978125,6.50808Q16.1190378125,6.54725,16.0210978125,6.57696Q15.9231578125,6.60667,15.8227778125,6.62664Q15.7223978125,6.6466,15.6205478125,6.65663Q15.5186878125,6.66667,15.4163378125,6.66667Q15.3139978125,6.66667,15.2121378125,6.65663Q15.1102878125,6.6466,15.0098978125,6.62664Q14.9095178125,6.60667,14.8115778125,6.57696Q14.7136378125,6.54725,14.6190878125,6.50808Q14.5245278125,6.46892,14.4342678125,6.420669999999999Q14.3439978125,6.37242,14.2589028125,6.31556Q14.1738038125,6.2587,14.0946888125,6.193770000000001Q14.0155728125,6.12884,13.9432018125,6.05647Q13.8708308125,5.9841,13.8059028125,5.90499Q13.7409738125,5.82587,13.6841128125,5.7407699999999995Q13.6272518125,5.655670000000001,13.5790048125,5.56541Q13.5307588125,5.47515,13.4915918125,5.38059Q13.4524258125,5.28603,13.4227154125,5.18809Q13.3930055125,5.0901499999999995,13.3730385125,4.98977Q13.3530714125,4.889390000000001,13.3430396125,4.78754Q13.3330078125,4.68568,13.3330078125,4.58333Q13.3330078125,4.48099,13.3430396125,4.37913Q13.3530714125,4.27728,13.3730385125,4.1769Q13.3930055125,4.07651,13.4227154125,3.97857Q13.4524258125,3.88063,13.4915918125,3.78608Q13.5307588125,3.6915199999999997,13.5790048125,3.60126Q13.6272518125,3.51099,13.6841128125,3.425895Q13.7409738125,3.340796,13.8059028125,3.2616810000000003Q13.8708308125,3.182565,13.9432018125,3.110194Q14.0155728125,3.037823,14.0946888125,2.972895Q14.1738038125,2.907966,14.2589028125,2.851105Q14.3439978125,2.794244,14.4342678125,2.745997Q14.5245278125,2.6977510000000002,14.6190878125,2.658584Q14.7136378125,2.619418,14.8115778125,2.5897076Q14.9095178125,2.5599977,15.0098978125,2.5400307Q15.1102878125,2.5200636,15.2121378125,2.5100318Q15.3139978125,2.5,15.4163378125,2.5Q15.5186878125,2.5,15.6205478125,2.5100318Q15.7223978125,2.5200636,15.8227778125,2.5400307Q15.9231578125,2.5599977,16.0210978125,2.5897076Q16.1190378125,2.619418,16.2135978125,2.658584Q16.3081578125,2.6977510000000002,16.3984178125,2.745997Q16.4886778125,2.794244,16.5737778125,2.851105Q16.658877812500002,2.907966,16.7379978125,2.972895Q16.8171078125,3.037823,16.8894778125,3.110194Q16.9618478125,3.182565,17.0267778125,3.2616810000000003Q17.0917078125,3.340796,17.1485678125,3.425895Q17.205427812499998,3.51099,17.2536778125,3.60126Q17.3019178125,3.6915199999999997,17.3410878125,3.78608Q17.3802578125,3.88063,17.4099678125,3.97857Q17.4396778125,4.07651,17.459647812500002,4.1769Q17.4796078125,4.27728,17.4896378125,4.37913Q17.4996778125,4.48099,17.4996778125,4.58333Z" fill="#99A0AF" fill-opacity="1"/></g><g><path d="M7.5,13.75Q7.5,13.81141,7.4939800000000005,13.87252Q7.48796,13.93363,7.47598,13.99386Q7.464,14.05409,7.44618,14.11286Q7.42835,14.17162,7.40485,14.22835Q7.381349999999999,14.28509,7.352399999999999,14.33925Q7.323449999999999,14.3934,7.28934,14.44446Q7.25522,14.495519999999999,7.21626,14.54299Q7.17731,14.59046,7.1338799999999996,14.63388Q7.09046,14.67731,7.04299,14.71626Q6.99552,14.75522,6.94446,14.78934Q6.8934,14.82345,6.83925,14.8524Q6.78509,14.88135,6.72835,14.90485Q6.67162,14.92835,6.6128599999999995,14.94618Q6.55409,14.964,6.49386,14.97598Q6.43363,14.987960000000001,6.37252,14.99398Q6.31141,15,6.25,15Q6.18859,15,6.12748,14.99398Q6.06637,14.987960000000001,6.00614,14.97598Q5.945908,14.964,5.887144,14.94618Q5.82838,14.92835,5.7716460000000005,14.90485Q5.714912,14.88135,5.660754,14.8524Q5.606597,14.82345,5.555537,14.78934Q5.504478,14.75522,5.457008,14.71626Q5.409539,14.67731,5.366116,14.63388Q5.322694,14.59046,5.283737,14.54299Q5.24478,14.495519999999999,5.210663,14.44446Q5.176546,14.3934,5.147598,14.33925Q5.118651,14.28509,5.0951506,14.22835Q5.0716505,14.17162,5.0538246000000004,14.11286Q5.0359986,14.05409,5.0240184,13.99386Q5.0120382,13.93363,5.00601909,13.87252Q5,13.81141,5,13.75Q5,13.68859,5.00601909,13.62748Q5.0120382,13.56637,5.0240184,13.50614Q5.0359986,13.445908,5.0538246000000004,13.387144Q5.0716505,13.32838,5.0951506,13.271646Q5.118651,13.214912,5.147598,13.160754Q5.176546,13.106597,5.210663,13.055537Q5.24478,13.004478,5.283737,12.957008Q5.322694,12.909539,5.366116,12.866116Q5.409539,12.822694,5.457008,12.783737Q5.504478,12.74478,5.555537,12.710663Q5.606597,12.676546,5.660754,12.647598Q5.714912,12.618651,5.7716460000000005,12.5951506Q5.82838,12.5716505,5.887144,12.5538246Q5.945908,12.5359986,6.00614,12.5240184Q6.06637,12.5120382,6.12748,12.50601909Q6.18859,12.5,6.25,12.5Q6.31141,12.5,6.37252,12.50601909Q6.43363,12.5120382,6.49386,12.5240184Q6.55409,12.5359986,6.6128599999999995,12.5538246Q6.67162,12.5716505,6.72835,12.5951506Q6.78509,12.618651,6.83925,12.647598Q6.8934,12.676546,6.94446,12.710663Q6.99552,12.74478,7.04299,12.783737Q7.09046,12.822694,7.1338799999999996,12.866116Q7.17731,12.909539,7.21626,12.957008Q7.25522,13.004478,7.28934,13.055537Q7.323449999999999,13.106597,7.352399999999999,13.160754Q7.381349999999999,13.214912,7.40485,13.271646Q7.42835,13.32838,7.44618,13.387144Q7.464,13.445908,7.47598,13.50614Q7.48796,13.56637,7.4939800000000005,13.62748Q7.5,13.68859,7.5,13.75Z" fill="#99A0AF" fill-opacity="1"/></g><g><path d="M15,12.0833740234375Q15,12.1447840234375,14.99398,12.2058940234375Q14.987960000000001,12.2670040234375,14.97598,12.3272340234375Q14.964,12.3874640234375,14.94618,12.4462340234375Q14.92835,12.5049940234375,14.90485,12.5617240234375Q14.88135,12.6184640234375,14.8524,12.6726240234375Q14.82345,12.7267740234375,14.78934,12.7778340234375Q14.75522,12.828894023437499,14.71626,12.8763640234375Q14.67731,12.9238340234375,14.63388,12.9672540234375Q14.59046,13.0106840234375,14.54299,13.0496340234375Q14.495519999999999,13.0885940234375,14.44446,13.1227140234375Q14.3934,13.1568240234375,14.33925,13.1857740234375Q14.28509,13.2147240234375,14.22835,13.2382240234375Q14.17162,13.2617240234375,14.11286,13.2795540234375Q14.05409,13.2973740234375,13.99386,13.3093540234375Q13.93363,13.321334023437501,13.87252,13.3273540234375Q13.81141,13.3333740234375,13.75,13.3333740234375Q13.68859,13.3333740234375,13.62748,13.3273540234375Q13.56637,13.321334023437501,13.50614,13.3093540234375Q13.445908,13.2973740234375,13.387144,13.2795540234375Q13.32838,13.2617240234375,13.271646,13.2382240234375Q13.214912,13.2147240234375,13.160754,13.1857740234375Q13.106597,13.1568240234375,13.055537,13.1227140234375Q13.004478,13.0885940234375,12.957008,13.0496340234375Q12.909539,13.0106840234375,12.866116,12.9672540234375Q12.822694,12.9238340234375,12.783737,12.8763640234375Q12.74478,12.828894023437499,12.710663,12.7778340234375Q12.676546,12.7267740234375,12.647598,12.6726240234375Q12.618651,12.6184640234375,12.5951506,12.5617240234375Q12.5716505,12.5049940234375,12.5538246,12.4462340234375Q12.5359986,12.3874640234375,12.5240184,12.3272340234375Q12.5120382,12.2670040234375,12.50601909,12.2058940234375Q12.5,12.1447840234375,12.5,12.0833740234375Q12.5,12.0219640234375,12.50601909,11.9608540234375Q12.5120382,11.8997440234375,12.5240184,11.8395140234375Q12.5359986,11.7792820234375,12.5538246,11.7205180234375Q12.5716505,11.6617540234375,12.5951506,11.6050200234375Q12.618651,11.5482860234375,12.647598,11.4941280234375Q12.676546,11.4399710234375,12.710663,11.3889110234375Q12.74478,11.3378520234375,12.783737,11.2903820234375Q12.822694,11.2429130234375,12.866116,11.1994900234375Q12.909539,11.1560680234375,12.957008,11.1171110234375Q13.004478,11.0781540234375,13.055537,11.0440370234375Q13.106597,11.0099200234375,13.160754,10.9809720234375Q13.214912,10.9520250234375,13.271646,10.9285246234375Q13.32838,10.9050245234375,13.387144,10.8871986234375Q13.445908,10.8693726234375,13.50614,10.8573924234375Q13.56637,10.8454122234375,13.62748,10.8393931134375Q13.68859,10.8333740234375,13.75,10.8333740234375Q13.81141,10.8333740234375,13.87252,10.8393931134375Q13.93363,10.8454122234375,13.99386,10.8573924234375Q14.05409,10.8693726234375,14.11286,10.8871986234375Q14.17162,10.9050245234375,14.22835,10.9285246234375Q14.28509,10.9520250234375,14.33925,10.9809720234375Q14.3934,11.0099200234375,14.44446,11.0440370234375Q14.495519999999999,11.0781540234375,14.54299,11.1171110234375Q14.59046,11.1560680234375,14.63388,11.1994900234375Q14.67731,11.2429130234375,14.71626,11.2903820234375Q14.75522,11.3378520234375,14.78934,11.3889110234375Q14.82345,11.4399710234375,14.8524,11.4941280234375Q14.88135,11.5482860234375,14.90485,11.6050200234375Q14.92835,11.6617540234375,14.94618,11.7205180234375Q14.964,11.7792820234375,14.97598,11.8395140234375Q14.987960000000001,11.8997440234375,14.99398,11.9608540234375Q15,12.0219640234375,15,12.0833740234375Z" fill="#99A0AF" fill-opacity="1"/></g></g></svg>