<svg xmlns="http://www.w3.org/2000/svg" xmlns:xlink="http://www.w3.org/1999/xlink" fill="none" version="1.1" width="20" height="20" viewBox="0 0 20 20"><defs><clipPath id="master_svg0_sa200_5077"><rect x="0" y="0" width="20" height="20" rx="0"/></clipPath></defs><g clip-path="url(#master_svg0_sa200_5077)"><g><path d="M3.21084390625,3.21084390625Q0.91650390625,5.5051739062500005,0.91650390625,8.74983390625Q0.91650390625,11.99450390625,3.21084390625,14.28880390625Q5.5051739062500005,16.58320390625,8.74983390625,16.58320390625Q11.99450390625,16.58320390625,14.28880390625,14.28880390625Q16.58320390625,11.99450390625,16.58320390625,8.74983390625Q16.58320390625,5.5051739062500005,14.28880390625,3.21084390625Q11.99450390625,0.91650390625,8.74983390625,0.91650390625Q5.5051739062500005,0.91650390625,3.21084390625,3.21084390625ZM4.27150390625,13.22820390625Q2.41650390625,11.37317390625,2.41650390625,8.74983390625Q2.41650390625,6.12649390625,4.27150390625,4.27150390625Q6.12649390625,2.41650390625,8.74983390625,2.41650390625Q11.37317390625,2.41650390625,13.22820390625,4.27150390625Q15.08320390625,6.12649390625,15.08320390625,8.74983390625Q15.08320390625,11.37317390625,13.22820390625,13.22820390625Q11.37317390625,15.08320390625,8.74983390625,15.08320390625Q6.12649390625,15.08320390625,4.27150390625,13.22820390625Z" fill-rule="evenodd" fill="#2D2E33" fill-opacity="1"/></g><g><path d="M14.37276915625,13.31210915625L14.37261515625,13.31195515625Q14.26712615625,13.20646615625,14.12929815625,13.14937515625Q13.99146915625,13.09228515625,13.84228515625,13.09228515625Q13.69310115625,13.09228515625,13.55527215625,13.14937515625Q13.41744415625,13.20646615625,13.31195515625,13.31195515625Q13.20646615625,13.41744415625,13.14937515625,13.55527215625Q13.09228515625,13.69310115625,13.09228515625,13.84228515625Q13.09228515625,13.99146915625,13.14937515625,14.12929815625Q13.20646615625,14.26712615625,13.31195515625,14.37261515625L16.84700515625,17.90766515625L16.847495156249998,17.90815515625Q16.95298515625,18.01364515625,17.09081515625,18.07073515625Q17.22864515625,18.12782515625,17.37782515625,18.12782515625Q17.39584515625,18.12782515625,17.41385515625,18.12696515625Q17.55353515625,18.12024515625,17.68140515625,18.06364515625Q17.80927515625,18.007035156249998,17.90815515625,17.90815515625Q18.01364515625,17.80266515625,18.07073515625,17.66483515625Q18.12782515625,17.527015156250002,18.12782515625,17.37782515625Q18.12782515625,17.22864515625,18.07073515625,17.09081515625Q18.01364515625,16.95298515625,17.90815515625,16.847495156249998L14.37276915625,13.31210915625Z" fill-rule="evenodd" fill="#2D2E33" fill-opacity="1"/></g></g></svg>