<svg xmlns="http://www.w3.org/2000/svg" xmlns:xlink="http://www.w3.org/1999/xlink" fill="none" version="1.1" width="100" height="100" viewBox="0 0 100 100"><defs><mask id="master_svg0_3847_31434" style="mask-type:alpha" maskUnits="userSpaceOnUse"><g><rect x="0" y="0" width="100" height="100" rx="0" fill="#FFFFFF" fill-opacity="1"/></g></mask></defs><g mask="url(#master_svg0_3847_31434)"><g><g><path d="M96,47.8587Q96,64.8798,96,81.8999C96,82.8369,95.9852,83.7739,95.7022,84.6758C95.1586,86.4067,94.2096,87.8644,92.7504,88.9795C91.1585,90.1963,89.3403,90.7086,87.3625,90.7197C85.2075,90.7317,83.0516,90.7197,80.8966,90.7197Q57.3078,90.7197,33.718,90.7197C32.412800000000004,90.7197,32.8163,90.5673,32.1549,91.6539C31.3793,92.9279,30.679,94.2498,29.8654,95.4979C29.113,96.6509,28.01,97.3793,26.6686,97.7606C25.5323,98.0986,24.3187,98.0783,23.1945,97.7024C21.6388,97.1799,20.4458,96.194,19.7269,94.7058C19.1703,93.5464,18.904,92.3315,19.2101,91.0455C19.2621,90.8277,19.161,90.7409,18.9634,90.7271C18.8261,90.7178,18.6851,90.7178,18.549599999999998,90.7178C16.2945,90.7178,14.0384,90.7326,11.78321,90.7077C11.04388,90.7132,10.30584,90.6454,9.579989999999999,90.5055C8.30416,90.238,7.11109,89.6708,6.10029,88.8512C4.77703,87.7887,3.807024,86.3534,3.317279,84.733C3.0389776,83.8459,2.999087701,82.9237,3.0000155707,81.9968Q3.01022,72.457,3.0000155707,62.919Q3.0000155707,49.7696,3.0000155707,36.6212C3.0000155707,35.6823,3.0315561,34.7472,3.312641,33.846199999999996C3.764622,32.334900000000005,4.63755,30.982,5.83034,29.944C7.53355,28.467,9.52526,27.8549,11.76744,27.8743C15.5134,27.9066,19.2602,27.8836,23.0071,27.8836C23.663,27.8836,23.6889,27.8586,23.6889,27.2134Q23.6889,20.480800000000002,23.6889,13.74736C23.6889,12.75958,23.7409,11.77366,24.048,10.82928C24.5433,9.250070000000001,25.5042,7.85548,26.8059,6.82649C28.383,5.578392,30.1743,4.9801906,32.1929,5.000500059C34.41,5.0235788,36.6281,5.00603874,38.8462,5.00603874Q63.0185,5.00603874,87.1899,5.00603874C88.1334,5.00603874,89.0722,5.0374255,89.9794,5.310679C91.5194,5.772254,92.8552,6.58555,93.91,7.80319C95.1966,9.28023,95.9277,10.98713,95.9796,12.95898Q95.9926,13.46303,95.9926,13.96891L96,47.8587ZM92.6678,47.8319Q92.6678,30.8109,92.6678,13.78889C92.6678,12.8482,92.6001,11.92597,92.1446,11.069289999999999C91.5156,9.88766,90.6084,8.99959,89.3096,8.627559999999999C88.6006,8.43259,87.8679,8.33628,87.1324,8.341380000000001Q59.8208,8.31645,32.5102,8.332139999999999C32.110299999999995,8.332139999999999,31.7087,8.35614,31.3098,8.38938C30.5296,8.454,29.831,8.75864,29.2021,9.1999C27.7104,10.25045,27.0146,11.71734,27.0119,13.51564Q27.0026,20.3811,27.0119,27.2457C27.0119,27.8632,27.0388,27.8974,27.6761,27.8873C29.1882,27.8623,30.6743,27.9583,32.0779,28.6045C33.242999999999995,29.1409,34.2987,29.8388,35.0603,30.8635C36.0808,32.2417,37.0251,33.68,37.9881,35.1017C38.1615,35.3583,38.3322,35.385999999999996,38.5827,35.2485C38.8332,35.1109,39.0679,34.9918,39.3165,34.8792C40.6427,34.2691,42.0285,33.796800000000005,43.4521,33.4695C45.0028,33.113299999999995,46.5919,32.949,48.1832,32.9803C49.9114,33.0069,51.6286,33.259,53.2909,33.7299C55.0214,34.2214,56.6781,34.9411,58.2169,35.8697C60.5052,37.242,62.4831,39.071,64.02590000000001,41.2416C64.2347,41.537,64.46379999999999,41.6256,64.8061,41.6237C66.9991,41.6117,69.1922,41.6302,71.3852,41.6136C72.9322,41.5864,74.4572,41.9817,75.7944,42.7564C77.3339,43.641,78.5427,44.9995,79.2388,46.6272C79.7518,47.7913,79.9429,49.0274,79.9429,50.305Q79.9318,66.0355,79.9429,81.766C79.9274,82.0525,79.9315,82.3396,79.955,82.6255C80.0255,83.1286,80.0737,83.6474,80.2398,84.121C80.8892,85.9673,82.7445,87.3142,84.7288,87.3825C85.7796,87.4332,86.8323,87.4313,87.8829,87.3769C89.6195,87.2625,90.9989,86.4861,91.9424,84.9897C92.5259,84.0665,92.6724,83.0511,92.6715,81.9885Q92.665,64.90559999999999,92.6687,47.8319L92.6678,47.8319ZM6.34241,59.2882Q6.34241,70.5645,6.34241,81.8408C6.34241,82.1399,6.353540000000001,82.439,6.36189,82.7381C6.38326,83.488,6.59964,84.2195,6.98992,84.8614C8.01036,86.5563,9.54287,87.3594,11.50304,87.3917C12.40474,87.4074,13.3064,87.3917,14.2091,87.3917Q17.3288,87.3917,20.4486,87.3917C20.7102,87.3917,20.93,87.3668,21.0822,87.1C21.7362,85.9562,22.4078,84.8217,23.0702,83.6843C24.5071,81.2131,25.9311,78.7344,27.3838,76.2714C28.5722,74.2571,31.1669,73.1189,33.4434,73.5841C33.6837,73.6331,33.8423,73.5961,33.9722,73.369C34.7143,72.0766,35.4518,70.7787,36.2264,69.5047C36.4361,69.1595,36.3192,69.0155,36.0529,68.8235C33.015699999999995,66.62729999999999,30.8135,63.7849,29.3737,60.3305C28.5714,58.3827,28.0806,56.3218,27.9191,54.2229C27.7011,51.5818,28.074,49.0099,28.9164,46.4971C29.4657,44.8714,30.223,43.3229,31.1697,41.8896C32.244,40.2519,33.5621,38.7861,35.0789,37.5425C35.3238,37.3403,35.3785,37.1631,35.1763,36.884299999999996C34.8108,36.3812,34.486999999999995,35.8485,34.135400000000004,35.3352C33.5788,34.5229,33.0733,33.6736,32.446200000000005,32.9184C31.384,31.6463,29.9414,31.1866,28.3069,31.1903C22.7696,31.2041,17.2314,31.1857,11.69415,31.2087C11.00851,31.2176,10.32714,31.3176,9.66811,31.506C8.54006,31.8217,7.72,32.5787,7.08362,33.5443C6.4759899999999995,34.4675,6.333130000000001,35.497699999999995,6.33406,36.576Q6.34983,47.9353,6.34241,59.2882ZM34.6726,87.352L78.1581,87.352C78.1221,87.2535,78.0793,87.1576,78.0301,87.0649C76.9725,85.4956,76.5671,83.7554,76.5709,81.8722Q76.5977,66.0697,76.5848,50.2681C76.5848,49.4198,76.492,48.6065,76.1209,47.8347C75.3742,46.2773,74.1422,45.2065,72.439,45.044C70.476,44.8594,68.4843,44.9692,66.5019,44.9517C66.1976,44.9517,66.1772,45.0994,66.2941,45.3413C66.4148,45.5866,66.5192,45.8394,66.60669999999999,46.0983C67.0831,47.5135,67.4248,48.9702,67.6272,50.4491C67.9732,53.0865,67.7274,55.6713,67.0344,58.2183C66.6172,59.7294,66.00970000000001,61.1819,65.2264,62.5414C63.5817,65.4645,61.2156,67.92240000000001,58.3514,69.6829C56.9246,70.5627,55.4264,71.3095,53.7974,71.7305C52.5173,72.06,51.225,72.4016,49.917,72.5474C48.1719,72.7453,46.4078,72.7018,44.6747,72.4182C42.9465,72.1398,41.2624,71.6373,39.6653,70.9236C39.4009,70.8055,39.2682,70.8793,39.1458,71.0898Q38.0326,73.0081,36.9194,74.9264C36.7765,75.1729,36.7524,75.3954,36.9621,75.6428C37.7662,76.576,38.239,77.7469,38.3072,78.9744C38.3647,79.9188,38.297,80.8586,37.8489,81.7033C37.1383,83.0418,36.3693,84.349,35.6225,85.6728C35.3219,86.2082,35.0158,86.7446,34.6726,87.3502L34.6726,87.352ZM64.41929999999999,52.8465C64.46289999999999,43.6667,57.0248,36.3719,48.0542,36.2935C38.7246,36.2131,31.2485,43.5753,31.2253,52.7366C31.204,61.9552,38.5901,69.3247,47.7741,69.3469C57.0499,69.3709,64.44800000000001,61.9395,64.41929999999999,52.8465ZM32.393299999999996,76.8484C31.4604,76.8419,30.5962,77.3357,30.1316,78.1408Q28.4423,81.0395,26.7577,83.9419C25.56,86.0051,24.3541,88.0638,23.1769,90.139C22.8856,90.6532,22.5785,91.2025,22.4802,91.7702C22.2807,92.9956,23.0229,94.1789,24.2168,94.5387C25.3244,94.8711,26.4432,94.6311,27.1853,93.5233C27.6677,92.8014,28.0842,92.0352,28.5203,91.2837Q30.1483,88.4783,31.7671,85.6673C32.7411,83.9779,33.7449,82.3033,34.6809,80.5992C35.6169,78.895,34.3507,76.8419,32.393299999999996,76.8475L32.393299999999996,76.8484Z" fill="#2D2E33" fill-opacity="1"/></g><g><path d="M19.138726015319826,39.59557326538086C17.121036015319824,39.59557326538086,15.104276015319824,39.60019326538086,13.086596015319824,39.59557326538086C11.896392015319824,39.59096326538086,11.162604015319824,38.70843326538086,11.366691415319824,37.54710326538086C11.478012015319825,36.914746265380856,12.114394015319824,36.35162326538086,12.813856015319825,36.27315796538086C12.963696015319824,36.25900420538086,13.114216015319824,36.25314717538086,13.264706015319824,36.25561789538086Q19.166556015319824,36.25561789538086,25.066536015319826,36.25100326538086C25.733536015319824,36.25100326538086,26.304036015319824,36.43563326538086,26.707636015319824,36.98121626538086C27.078636015319823,37.48895326538086,27.106536015319826,38.07238326538086,26.862536015319826,38.61519326538086C26.622436015319824,39.20095326538086,26.051036015319823,39.58476326538086,25.415336015319824,39.58727326538086C24.426436015319823,39.61219326538086,23.435736015319826,39.59650326538086,22.446836015319825,39.59742326538086L19.138726015319826,39.59557326538086Z" fill="#2D2E33" fill-opacity="1"/></g><g><path d="M62.12542159790039,52.7617328125C62.05214159790039,55.3973328125,61.476051597900394,57.8150328125,60.11609159790039,60.0121328125C59.64669159790039,60.7709328125,58.64758159790039,60.9528328125,57.83587159790039,60.4737328125C57.16517159790039,60.074932812499995,56.93418159790039,59.0594328125,57.26628159790039,58.3200328125C57.70692159790039,57.3377328125,58.16333159790039,56.3490328125,58.46390159790039,55.3197328125C58.81363159790039,54.1196328125,58.85630159790039,52.8586328125,58.69860159790039,51.6114328125C58.51941159790039,50.1005228125,58.029641597900394,48.6424728125,57.25978159790039,47.3280228125C56.38989159790039,45.8379228125,55.17175159790039,44.578542812500004,53.70865159790039,43.6566528125C53.23368859790039,43.3557028125,52.76335859790039,43.0695328125,52.55927009790039,42.4870228125C52.35381059790039,41.8833228125,52.51347529790039,41.2158728125,52.97022759790039,40.7690378125C53.42571159790039,40.3259262125,54.14558159790039,40.1514498125,54.66694159790039,40.3997768125C56.27923159790039,41.1789168125,57.59559159790039,42.3291628125,58.74869159790039,43.6741928125C59.79221159790039,44.8997528125,60.61339159790039,46.2967128125,61.17548159790039,47.8025228125C61.77225159790039,49.3900728125,62.09347159790039,51.0670328125,62.12542159790039,52.7617328125Z" fill="#2D2E33" fill-opacity="1"/></g></g></g></svg>