<svg xmlns="http://www.w3.org/2000/svg" xmlns:xlink="http://www.w3.org/1999/xlink" fill="none" version="1.1" width="20" height="20" viewBox="0 0 20 20"><defs><clipPath id="master_svg0_4158_42887"><rect x="0" y="0" width="20" height="20" rx="0"/></clipPath></defs><g><g clip-path="url(#master_svg0_4158_42887)"><g><path d="M3.38761390625,3.387125625Q1.1665029062499999,5.608245625,1.16650390625,8.749345625Q1.16650390625,11.890415625,3.38761390625,14.111615625Q5.60873390625,16.332715625,8.74983390625,16.332715625Q11.89090390625,16.332715625,14.11210390625,14.111615625Q16.33320390625,11.890415625,16.33320390625,8.749345625Q16.33320390625,5.608245625,14.11210390625,3.387125625Q11.89090390625,1.1660146249999999,8.74983390625,1.166015625Q5.60873390625,1.166015625,3.38761390625,3.387125625ZM4.09472390625,13.404415625Q2.16650390625,11.476245625,2.16650390625,8.749345625Q2.16650390625,6.022455625,4.09472390625,4.094235625Q6.02294390625,2.166015625,8.74983390625,2.166015625Q11.47673390625,2.166015625,13.40490390625,4.094235625Q15.33320390625,6.022455625,15.33320390625,8.749345625Q15.33320390625,11.476235625,13.40490390625,13.404415625Q11.47673390625,15.332715625,8.74983390625,15.332715625Q6.02294390625,15.332715625,4.09472390625,13.404415625Z" fill-rule="evenodd" fill="#949E9C" fill-opacity="1"/></g><g><path d="M14.19589815625,13.488302875L17.73102515625,17.023426875L17.73137515625,17.023786875Q17.80170515625,17.094106875,17.83976515625,17.185996875Q17.87782515625,17.277886875,17.87782515625,17.377336875Q17.87782515625,17.426586874999998,17.86821515625,17.474886875Q17.85861515625,17.523186875,17.83976515625,17.568676875Q17.82092515625,17.614176875,17.79356515625,17.655126875Q17.76620515625,17.696066875,17.73137515625,17.730886875Q17.69655515625,17.765716875,17.65561515625,17.793076875Q17.61466515625,17.820436875,17.56916515625,17.839276875Q17.52367515625,17.858126875,17.47537515625,17.867726875Q17.427075156249998,17.877336875,17.37782515625,17.877336875Q17.27837515625,17.877336875,17.18648515625,17.839276875Q17.09459515625,17.801216875,17.02427515625,17.730886875L17.02391515625,17.730536875L13.48879115625,14.195409875L13.48873215625,14.195349875Q13.41840515625,14.125023875,13.38034515625,14.033138875Q13.34228515625,13.941253075,13.34228515625,13.841796875Q13.34228515625,13.792551175,13.35189215625,13.744251775Q13.361500156249999,13.695951875,13.38034515625,13.650454875Q13.39919115625,13.604957875,13.42655015625,13.564011875Q13.45391015625,13.523065875,13.48873215625,13.488243875Q13.52355415625,13.453421875,13.56450015625,13.426061875Q13.60544615625,13.398702875,13.65094315625,13.379856875Q13.69644015625,13.361011874999999,13.74474005625,13.351403875Q13.79303945625,13.341796875,13.84228515625,13.341796875Q13.94174135625,13.341796875,14.03362715625,13.379856875Q14.12551215625,13.417916875,14.19583815625,13.488243875L14.19589815625,13.488302875Z" fill-rule="evenodd" fill="#949E9C" fill-opacity="1"/></g></g></g></svg>