<svg xmlns="http://www.w3.org/2000/svg" xmlns:xlink="http://www.w3.org/1999/xlink" fill="none" version="1.1" width="20" height="20" viewBox="0 0 20 20"><defs><clipPath id="master_svg0_560_10431"><rect x="0" y="0" width="20" height="20" rx="0"/></clipPath></defs><g clip-path="url(#master_svg0_560_10431)"><g><g><path d="M13.4514,8.145800000000001C13.7414,8.145800000000001,14.0184,8.12444,14.29,8.14936C15.8955,8.29177,17.1836,8.98603,18.1047,10.27842C18.7524,11.18808,19.0515,12.2063,18.9928,13.3118C18.879,15.464,17.356099999999998,17.301099999999998,15.2019,17.828C13.3083,18.2909,11.65694,17.810200000000002,10.2606,16.496499999999997C10.17987,16.4217,10.11014,16.400399999999998,10.00556,16.4128C8.834900000000001,16.5641,7.66059,16.592599999999997,6.48076,16.5196C5.598190000000001,16.464399999999998,4.72295,16.354100000000003,3.86423,16.142200000000003C3.3853299999999997,16.0248,2.928446,15.8503,2.521103,15.569C2.271561,15.3964,2.066055,15.1899,2.0165132,14.8783C2.00733882,14.8178,2.00733882,14.7537,2.00733882,14.6914C2.0055044,12.9914,2.00366885,11.29133,2.00183443,9.591280000000001C2.00183443,8.63534,2,7.68118,2,6.72524C2,5.75149,2.0055044,4.779529999999999,2.0055044,3.80579C2.0055044,3.4889200000000002,2.176147,3.2628399999999997,2.409177,3.07059C2.695417,2.833826,3.0385400000000002,2.698534,3.3853299999999997,2.573924C3.97616,2.362086,4.59268,2.253496,5.21286,2.168049C6.18718,2.0327576,7.16517,1.9811331,8.14866,2.0060553C9.21289,2.0345377,10.27345,2.109304,11.31199,2.360306C11.78355,2.474235,12.2478,2.6148670000000003,12.679,2.837386C12.8826,2.942415,13.0661,3.07415,13.2221,3.24148C13.3799,3.4123799999999997,13.4588,3.60819,13.4588,3.83961C13.4551,5.23169,13.4551,6.62199,13.4533,8.01407C13.4514,8.05857,13.4514,8.09952,13.4514,8.145800000000001ZM18.2607,13.0697C18.2551,10.70032,16.310200000000002,8.87922,14.0056,8.84718C11.47712,8.81158,9.570689999999999,10.7555,9.568850000000001,13.0466C9.56702,15.3732,11.43492,17.2637,13.8698,17.290399999999998C16.2808,17.3154,18.2625,15.4177,18.2607,13.0697ZM12.7193,4.75639C12.6955,4.76529,12.6771,4.770630000000001,12.6625,4.77775C12.3413,4.9468700000000005,11.99823,5.0608,11.64777,5.1569199999999995C10.67161,5.42573,9.66977,5.53076,8.66243,5.5806000000000004C7.2404,5.651809999999999,5.8275500000000005,5.57526,4.4293700000000005,5.29934C3.8532200000000003,5.18541,3.2862400000000003,5.04655,2.770645,4.76173C2.76147,4.75639,2.7504619999999997,4.75639,2.737617,4.75461C2.735783,4.77241,2.733947,4.78309,2.733947,4.79555C2.733947,5.3652,2.732113,5.93485,2.737617,6.5045C2.737617,6.56146,2.7816549999999998,6.62555,2.8201869999999998,6.67361C2.950462,6.83205,3.13579,6.91215,3.32111,6.9887C3.79817,7.18452,4.29909,7.30201,4.80552,7.39636C5.63305,7.55301,6.46975,7.61353,7.31012,7.626C8.242239999999999,7.64024,9.172519999999999,7.60285,10.09913,7.47468C10.68446,7.3928,11.26428,7.28065,11.82391,7.09195C12.09,7.00294,12.3469,6.89435,12.5707,6.72346C12.6735,6.64513,12.7248,6.55256,12.723,6.41905C12.7157,5.97935,12.7193,5.54144,12.7193,5.1017399999999995C12.7193,4.98959,12.7193,4.87744,12.7193,4.75639ZM2.739453,7.53521C2.737618,7.54411,2.735783,7.55479,2.735783,7.56725C2.735783,8.128,2.733948,8.688749999999999,2.739453,9.24949C2.739453,9.301120000000001,2.777985,9.359860000000001,2.814682,9.40259C2.977986,9.58594,3.19817,9.68385,3.42386,9.769300000000001C4.20552,10.06658,5.0238700000000005,10.20366,5.8550699999999996,10.28198C6.32663,10.32649,6.80003,10.34429,7.27343,10.36387C8.03857,10.39591,8.80188,10.34963,9.56335,10.28376C9.66427,10.27486,9.74317,10.25172,9.81289,10.15915C10.31932,9.48091,10.96152,8.955770000000001,11.74685,8.606860000000001C12.0588,8.46801,12.3872,8.36476,12.7138,8.24371C12.7138,8.01585,12.7138,7.76663,12.7138,7.51206C12.6184,7.55657,12.5322,7.59929,12.4423,7.63667C11.6496,7.96422,10.81289,8.12088,9.96335,8.218779999999999C9.5028,8.27219,9.03857,8.30423,8.57618,8.332709999999999C7.81471,8.38078,7.05324,8.36476,6.29544,8.30423C5.84589,8.26863,5.39818,8.20988,4.95047,8.14936C4.40001,8.07459,3.86239,7.94286,3.3357799999999997,7.76841C3.13212,7.70076,2.939454,7.61353,2.739453,7.53521ZM7.45691,2.719896C6.78719,2.7305770000000003,5.98351,2.773301,5.18351,2.894351C4.58534,2.985139,3.99451,3.10975,3.42937,3.32515C3.2055100000000003,3.4106,2.985326,3.51206,2.812849,3.68296C2.715601,3.77909,2.715601,3.8235900000000003,2.809179,3.92328C2.827528,3.94286,2.847711,3.96066,2.86973,3.97668C3.16514,4.19564,3.5046,4.32737,3.85689,4.42706C4.84589,4.70833,5.862410000000001,4.82226,6.8881,4.8721C7.69178,4.91126,8.49545,4.88812,9.29729,4.82404C9.939499999999999,4.77241,10.57436,4.6834,11.20006,4.53209C11.61107,4.4323999999999995,12.0202,4.32381,12.3872,4.10663C12.4808,4.05145,12.5707,3.98736,12.6478,3.9126000000000003C12.7469,3.81825,12.7413,3.77909,12.6441,3.68118C12.4716,3.51028,12.2514,3.4106,12.0276,3.3233699999999997C11.43492,3.09373,10.8129,2.969118,10.18354,2.87833C9.324819999999999,2.759059,8.46059,2.714556,7.45691,2.719896ZM9.623899999999999,15.7631C9.62757,15.7524,9.63124,15.7417,9.63491,15.7292C9.25142,15.1329,8.98903,14.492,8.88444,13.7907C8.81288,13.796,8.75233,13.8031,8.69178,13.8067C7.93031,13.8387,7.17067,13.8298,6.4092,13.7782C5.71195,13.7301,5.0202,13.6429,4.333959999999999,13.5094C3.7889999999999997,13.4026,3.2550499999999998,13.2602,2.766975,12.9914C2.76147,12.9878,2.750461,12.9914,2.739452,12.9914C2.739452,13.0092,2.739452,13.0234,2.739452,13.0377C2.739452,13.6037,2.735782,14.1716,2.741286,14.7377C2.741286,14.7858,2.777984,14.8445,2.814681,14.8801C3.00734,15.0653,3.24588,15.1774,3.49542,15.2717C4.01102,15.4658,4.5468,15.5797,5.09176,15.6616C6.06608,15.8111,7.04957,15.8628,8.0349,15.8414C8.56334,15.8289,9.09362,15.7898,9.623899999999999,15.7631ZM2.7357839999999998,10.27842C2.7357839999999998,10.29978,2.7357839999999998,10.3336,2.7357839999999998,10.36565C2.7357839999999998,10.87655,2.741288,11.38567,2.732114,11.89658C2.73028,12.0515,2.796335,12.1529,2.917436,12.2384C3.18716,12.4288,3.49359,12.5428,3.80918,12.6353C4.7468,12.9095,5.70828,13.0323,6.6826,13.0768C7.25324,13.1035,7.82572,13.0928,8.396370000000001,13.0946C8.53949,13.0946,8.68078,13.0822,8.82757,13.075C8.82573,12.3594,8.97802,11.68296,9.275269999999999,11.03143C9.24408,11.03143,9.22573,11.03143,9.20922,11.03143C8.8239,11.04923,8.44041,11.07593,8.05508,11.08483C7.20737,11.10085,6.36333,11.06347,5.52112,10.96556C4.90827,10.89435,4.30093,10.79645,3.7100999999999997,10.62199C3.38166,10.5223,3.0642300000000002,10.39413,2.7357839999999998,10.27842Z" fill="#2D2E33" fill-opacity="1"/><path d="M13.7034,7.89192Q13.7114,7.89173,13.7197,7.89153Q14.1137,7.88213,14.3128,7.90041Q16.8791,8.128029999999999,18.3083,10.13332Q19.3353,11.57574,19.2424,13.3251Q19.1525,15.0267,18.0543,16.3398Q16.9524,17.6572,15.2613,18.0709Q12.3305,18.7872,10.08929,16.6786Q10.06636,16.6573,10.03513,16.661099999999998Q8.314129999999999,16.883499999999998,6.46532,16.769199999999998Q4.98705,16.6767,3.80435,16.384999999999998Q2.964327,16.1789,2.379054,15.7748Q1.847427,15.4069,1.769616,14.9176Q1.757339,14.8366,1.757339,14.6914L1.755505,12.9924L1.751835,9.59155L1.750915,8.15565L1.75,6.7254L1.752794,5.25038L1.755505,3.80532Q1.755504,3.28578,2.250077,2.877746Q2.5954,2.5921149999999997,3.30079,2.338651Q4.0233799999999995,2.0795698,5.1787399999999995,1.9203887Q6.6384,1.717704,8.15499,1.756136Q10.09071,1.807942,11.37072,2.117302Q12.2319,2.325376,12.7936,2.615224Q13.1528,2.800428,13.405,3.07103Q13.7088,3.40006,13.7088,3.83961L13.7053,5.9328L13.7034,7.89192ZM13.2033,8.00905L13.2053,5.931979999999999L13.2088,3.83961Q13.2088,3.59559,13.0392,3.41193Q12.8463,3.20496,12.5643,3.0595499999999998Q12.0561,2.797273,11.25325,2.603309Q10.02456,2.30635,8.142330000000001,2.255975Q6.66664,2.21858,5.24699,2.41571Q4.14317,2.56779,3.4698700000000002,2.809196Q2.8467320000000003,3.0331,2.568276,3.26343Q2.255504,3.52147,2.255504,3.80626L2.252793,5.251329999999999L2.25,6.72508L2.250915,8.15533L2.251834,9.59101L2.255505,12.9918L2.257339,14.6914Q2.257339,14.799,2.263411,14.8391Q2.307661,15.1173,2.663153,15.3633Q3.1727600000000002,15.7152,3.9241099999999998,15.8995Q5.063140000000001,16.180500000000002,6.4962,16.2701Q8.29737,16.381500000000003,9.97598,16.1646Q10.23661,16.133499999999998,10.43191,16.3144Q12.4755,18.2371,15.1425,17.5852Q16.6741,17.2105,17.6707,16.019Q18.662,14.8338,18.7431,13.2985Q18.8268,11.72355,17.9011,10.42352Q16.6055,8.605730000000001,14.2671,8.39831Q14.0967,8.382670000000001,13.7316,8.391390000000001Q13.5471,8.395800000000001,13.4514,8.395800000000001L13.2014,8.395800000000001L13.2014,8.145800000000001Q13.2014,8.05822,13.2033,8.00905ZM12.1184,3.09043Q11.35532,2.794776,10.21923,2.630891L10.21793,2.630707Q9.00095,2.461677,7.45558,2.4699Q6.18365,2.490171,5.146100000000001,2.647165Q4.08282,2.808545,3.34033,3.09154Q2.875463,3.26898,2.636889,3.50537Q2.344916,3.79398,2.626904,4.09438Q2.670467,4.14087,2.722641,4.17883Q3.1309,4.481450000000001,3.7888200000000003,4.667619999999999Q5.0787700000000005,5.03447,6.87597,5.12181Q8.015049999999999,5.17731,9.31721,5.07324Q10.3788,4.9879,11.25882,4.7750900000000005Q12.0887,4.57381,12.5145,4.32178Q12.6943,4.21577,12.8219,4.092029999999999Q12.9747,3.94648,12.9694,3.7897499999999997Q12.9646,3.6491499999999997,12.8215,3.505Q12.5876,3.2732900000000003,12.1184,3.09043ZM10.14784,3.12577L10.14914,3.12595Q11.2281,3.2817,11.93682,3.55631Q12.2381,3.67371,12.3986,3.79809Q12.3372,3.84589,12.2599,3.89149Q11.89828,4.10549,11.14129,4.2890999999999995Q10.29951,4.49267,9.27738,4.57483Q8.00727,4.67634,6.90024,4.62239Q5.16035,4.53784,3.92496,4.18651Q3.38683,4.03423,3.0552099999999998,3.8021700000000003Q3.21914,3.67299,3.5183999999999997,3.55876Q4.21083,3.2948399999999998,5.22091,3.14154Q6.22523,2.9895709999999998,7.45824,2.969893Q8.96689,2.961866,10.14784,3.12577ZM12.9689,5.4319500000000005Q12.9693,5.2116,12.9693,5.1017399999999995L12.9693,4.39626L12.6319,4.52217Q12.6261,4.52435,12.6139,4.5286Q12.5759,4.54186,12.5533,4.5528200000000005L12.5496,4.5546299999999995L12.546,4.55655Q12.1704,4.7543299999999995,11.58164,4.91583Q10.38627,5.245,8.65007,5.330909999999999Q6.44108,5.44151,4.47777,5.054069999999999Q3.44916,4.85067,2.892365,4.54336Q2.840976,4.51466,2.77356,4.50714L2.771931,4.50698L2.515475,4.471439999999999L2.488934,4.72898Q2.488575,4.73247,2.487751,4.73954Q2.483947,4.7721800000000005,2.483947,4.79555L2.483874,5.0187L2.487618,6.50513Q2.487617,6.65846,2.6251290000000003,6.82999Q2.801568,7.04459,3.22567,7.21977Q3.83488,7.46983,4.759729999999999,7.64213Q5.88356,7.85487,7.30642,7.87597Q8.85191,7.89958,10.13339,7.72232Q11.16473,7.57804,11.90379,7.32885Q12.4127,7.15858,12.7224,6.92217Q12.9773,6.72789,12.973,6.41562Q12.9675,6.08751,12.9689,5.4319500000000005ZM2.984184,5.14185L2.9875540000000003,6.47899Q2.996874,6.49433,3.01524,6.51724Q3.10822,6.63028,3.41655,6.75764Q3.97709,6.98772,4.85131,7.15058Q5.93414,7.35557,7.31383,7.37602Q8.8213,7.39906,10.06488,7.22704Q11.04922,7.08933,11.74404,6.85505Q12.1753,6.71076,12.419,6.52475Q12.4739,6.48293,12.473,6.42249Q12.4675,6.09116,12.4689,5.430899999999999Q12.4693,5.25013,12.4693,5.1437100000000004Q12.1395,5.28127,11.71389,5.39802Q10.46595,5.74167,8.67478,5.83029Q6.40464,5.94397,4.38097,5.5446100000000005Q3.5453099999999997,5.37936,2.984184,5.14185ZM4.983969999999999,7.90161Q4.219469999999999,7.79777,3.41459,7.53115L3.4144,7.53109Q3.2863800000000003,7.48855,3.03132,7.38364Q2.8987819999999997,7.32912,2.830619,7.30242L2.554461,7.19427L2.494598,7.48475Q2.485783,7.52752,2.485783,7.56725L2.485683,7.83052L2.489454,9.250160000000001Q2.489453,9.407630000000001,2.625038,9.56548Q2.851642,9.81997,3.33534,10.0031Q4.357889999999999,10.392,5.8316099999999995,10.53088Q6.28031,10.57323,7.17457,10.61001Q7.23431,10.61246,7.26309,10.61365Q8.1979,10.6528,9.58489,10.53283Q9.862870000000001,10.50831,10.01258,10.30956Q10.7485,9.32397,11.84835,8.83532Q12.0553,8.743210000000001,12.4952,8.587810000000001Q12.6983,8.516079999999999,12.8007,8.47812L12.9638,8.417670000000001L12.9638,7.1196L12.6081,7.2855Q12.5821,7.29765,12.5324,7.32117Q12.4067,7.3807,12.3463,7.40583Q11.38423,7.80338,9.93473,7.97043Q9.41731,8.030429999999999,8.56081,8.08319Q7.5035,8.14992,6.31534,8.05503Q5.84072,8.01744,4.983969999999999,7.90161ZM2.98588,7.90466Q3.15376,7.97138,3.25698,8.005659999999999L3.25717,8.00572Q4.1061499999999995,8.28697,4.916980000000001,8.3971Q5.7874300000000005,8.51478,6.27553,8.55344Q7.49933,8.65118,8.59155,8.582239999999999Q9.46151,8.528649999999999,9.99197,8.46714Q11.45621,8.298390000000001,12.4638,7.89768L12.4638,8.06839Q12.4033,8.09,12.3287,8.11635Q11.87007,8.27836,11.64534,8.37839Q10.42606,8.920110000000001,9.613199999999999,10.00874Q9.597339999999999,10.02979,9.5418,10.03469Q8.18676,10.1519,7.28376,10.11408Q7.25096,10.11272,7.19512,10.11043Q6.31407,10.07419,5.87852,10.03308Q4.47228,9.90057,3.5123800000000003,9.53549Q3.14342,9.395800000000001,3.00433,9.23969Q2.995247,9.22912,2.989377,9.22054L2.98588,7.90466ZM10.62928,16.2083Q11.94776,17.519399999999997,13.8671,17.540399999999998L13.8672,17.540399999999998Q15.7789,17.560200000000002,17.1432,16.2503Q18.5121,14.9359,18.5107,13.0695Q18.5063,11.20573,17.169800000000002,9.90292Q15.8566,8.62289,14.0091,8.5972Q12.0343,8.56939,10.66581,9.89479Q9.32033,11.19787,9.31886,13.0464Q9.31739,14.9037,10.62928,16.2083ZM16.7969,15.8896Q15.5799,17.0581,13.8725,17.0405L13.8724,17.0405Q12.1563,17.0216,10.98184,15.8537Q9.81755,14.6959,9.81886,13.0468Q9.82016,11.40985,11.01366,10.25395Q12.2338,9.07226,14.0021,9.097159999999999Q15.6504,9.12008,16.8208,10.26096Q18.0068,11.41707,18.0107,13.0699Q18.0119,14.723,16.7969,15.8896ZM5.54999,10.71723Q4.50512,10.59583,3.78271,10.38276L3.78184,10.3825L3.7809,10.38222Q3.57013,10.31812,3.15129,10.16347Q2.931202,10.08221,2.818855,10.04263L2.4857839999999998,9.92528L2.4857839999999998,10.36565Q2.4857839999999998,10.50542,2.486604,10.78424Q2.488779,11.52319,2.482154,11.89209Q2.478096,12.2343,2.773307,12.4426Q3.13516,12.6982,3.73882,12.8752Q5.02529,13.2514,6.67119,13.3266Q7.10508,13.3469,7.96877,13.3448Q8.25336,13.3442,8.39559,13.3446Q8.50255,13.3446,8.707139999999999,13.3322Q8.795539999999999,13.3269,8.839680000000001,13.3247L9.07818,13.3132L9.07756,13.0744Q9.075,12.0727,9.50272,11.13519L9.66412,10.78143L9.20345,10.78143L9.19768,10.78169Q9.067910000000001,10.78769,8.80946,10.80165Q8.30182,10.82907,8.04931,10.8349Q6.77008,10.85907,5.54999,10.71723ZM2.986202,10.63551Q3.4147,10.79359,3.6374899999999997,10.86121L3.63931,10.86176Q4.40343,11.08738,5.49225,11.21389Q6.74583,11.35962,8.06086,11.33476Q8.32106,11.32875,8.83642,11.30092Q8.86655,11.29929,8.895,11.29777Q8.616869999999999,12.0492,8.582419999999999,12.8385Q8.46322,12.8446,8.39715,12.8446Q8.25375,12.8442,7.9676,12.8448Q7.11618,12.8468,6.694,12.8271Q5.108029999999999,12.7546,3.87955,12.3954Q3.35567,12.2418,3.0615699999999997,12.0341Q2.981175,11.97738,2.982074,11.90107Q2.988792,11.52695,2.986602,10.78277Q2.986369,10.70346,2.986202,10.63551ZM5.05461,15.9088Q6.46616,16.125500000000002,8.04031,16.0913L8.040790000000001,16.0913Q8.40495,16.082700000000003,9.13083,16.0407Q9.468160000000001,16.0212,9.63647,16.0128L9.80537,16.0042L9.860330000000001,15.8443Q9.86948,15.8177,9.87473,15.7998L9.90702,15.6902L9.84518,15.594Q9.27357,14.7051,9.13171,13.7538L9.09746,13.5241L8.86584,13.5414Q8.83231,13.5439,8.772739999999999,13.5493Q8.70698,13.5554,8.677109999999999,13.5571Q7.54579,13.6047,6.42611,13.5288Q5.36761,13.4558,4.3817,13.264Q3.45046,13.0815,2.890654,12.7741Q2.819174,12.7331,2.729766,12.7414L2.489452,12.7414L2.489452,13.0377L2.488322,13.8678L2.491288,14.7386Q2.491286,14.9147,2.640599,15.0595Q2.908723,15.3172,3.40701,15.5056Q4.09557,15.7647,5.05461,15.9088ZM2.655045,13.2151Q2.650699,13.2127,2.6463710000000003,13.2104L2.642143,13.208Q2.648579,13.2118,2.655045,13.2151ZM2.988991,13.3761Q3.53092,13.6068,4.2862100000000005,13.7548Q5.30243,13.9525,6.39229,14.0276Q7.525,14.1044,8.67723,14.0575Q8.8286,14.8164,9.22702,15.5344Q9.16734,15.5378,9.10195,15.5416Q8.385110000000001,15.5831,8.02948,15.5915L8.029,15.5915Q6.49871,15.6246,5.128909999999999,15.4144Q4.22217,15.2781,3.58383,15.0379Q3.18384,14.8867,2.991169,14.703L2.988321,13.8685L2.988991,13.3761ZM2.651918,4.98175Q2.6508380000000002,4.98116,2.64976,4.9805600000000005L2.648581,4.97991L2.651918,4.98175Z" fill-rule="evenodd" fill="#2D2E33" fill-opacity="1"/></g><g><path d="M14.107304491882324,10.870441C14.170794491882324,10.883914,14.232404491882324,10.8945,14.292154491882325,10.909897C14.544214491882325,10.975337,14.764534491882324,11.096593,14.934434491882325,11.303495C15.094074491882324,11.497895,15.165024491882324,11.725965,15.165964491882324,11.978105C15.165964491882324,12.112835,15.067934491882324,12.220615,14.941904491882324,12.228315C14.813074491882324,12.236015,14.705714491882324,12.141705,14.689844491882324,12.004085C14.683314491882324,11.947305,14.683314491882324,11.888605,14.671174491882324,11.832785C14.625434491882324,11.635505,14.499404491882323,11.508475,14.321094491882324,11.437265C13.997154491882323,11.307345,13.680674491882325,11.320815,13.384738491882324,11.520025C13.185891491882325,11.653795,13.091602491882323,11.908815,13.142947491882325,12.128225C13.169086491882323,12.239865,13.235369491882324,12.322625,13.320322491882324,12.390955C13.478093491882325,12.517015,13.662004491882325,12.593045,13.844044491882324,12.671955C14.067164491882323,12.768195,14.293084491882324,12.860575,14.513404491882325,12.963545C14.679574491882324,13.041495,14.830814491882325,13.146395,14.960574491882324,13.281125C15.173424491882324,13.502465,15.249984491882325,13.771915,15.221974491882325,14.076985C15.172494491882324,14.610125,14.808404491882325,14.964265000000001,14.330424491882324,15.095144999999999C14.268814491882324,15.111505000000001,14.206264491882324,15.124015,14.142784491882324,15.133645C14.111974491882325,15.138455,14.105444491882324,15.150965,14.105444491882324,15.179835C14.107304491882324,15.274145,14.106374491882324,15.369415,14.105444491882324,15.463725C14.104504491882324,15.609045,14.001814491882325,15.717785,13.867384491882325,15.718755C13.732954491882325,15.718755,13.629324491882324,15.609045,13.628394491882325,15.464685C13.627464491882325,15.368455,13.627464491882325,15.272215,13.628394491882325,15.175985C13.629324491882324,15.144224999999999,13.622794491882324,15.129795,13.587324491882324,15.123055C13.314721491882324,15.071085,13.066396491882324,14.963305,12.860080491882325,14.766985C12.618289491882324,14.536985,12.505330061882324,14.250205,12.507197283782324,13.913385C12.508130609882324,13.782505,12.613622491882325,13.677605,12.741519491882324,13.673755C12.862881491882325,13.670875,12.981442491882325,13.770955,12.981442491882325,13.895095C12.979575491882324,14.293515,13.244705491882325,14.507155000000001,13.532244491882324,14.599535C13.832844491882325,14.694815,14.127844491882325,14.687115,14.410714491882324,14.536025C14.659974491882323,14.402255,14.786004491882323,14.138575,14.739324491882325,13.862375C14.712254491882325,13.703595,14.609564491882324,13.599655,14.487264491882325,13.514005000000001C14.328564491882325,13.404305,14.153054491882324,13.331165,13.977544491882323,13.257065C13.727354491882323,13.152165,13.471558491882325,13.060745,13.235369491882324,12.923125C13.054259491882323,12.817275,12.885286491882324,12.695055,12.780728491882325,12.505465000000001C12.574412691882324,12.128225,12.612688491882324,11.753875,12.833006491882324,11.400695C13.008514491882325,11.120651,13.279245491882325,10.976299000000001,13.587314491882324,10.902198C13.619994491882323,10.894499,13.629324491882324,10.881989,13.628394491882325,10.848307C13.626524491882325,10.749185,13.627464491882325,10.649101,13.627464491882325,10.549979C13.628394491882325,10.406589,13.732954491882325,10.295919055,13.866454491882324,10.29688131423C13.999014491882324,10.297843721,14.102644491882325,10.405627,14.103574491882323,10.547092C14.108244491882324,10.654875,14.107304491882324,10.761696,14.107304491882324,10.870441Z" fill="#2D2E33" fill-opacity="1"/><path d="M14.353514491882324,10.540391Q14.350524491882325,10.3388416,14.215454491882324,10.1969366Q14.074064491882325,10.048382,13.868254491882324,10.046888Q13.659284491882325,10.045382,13.515484491882324,10.1976447Q13.378808491882324,10.3423703,13.377461491882324,10.549979Q13.377461491882324,10.574422,13.377345491882323,10.623787Q13.377247491882324,10.665562,13.377290491882324,10.701851Q12.872811491882324,10.866412,12.620893491882324,11.268376Q12.193719491882325,11.953155,12.561814691882324,12.626205Q12.718736491882325,12.910734999999999,13.109511491882325,13.139135Q13.307927491882324,13.254745,13.714024491882324,13.419245Q13.825914491882324,13.464575,13.880304491882324,13.487375L13.891684491882325,13.492185Q14.211024491882323,13.626975,14.343854491882324,13.718785Q14.477154491882324,13.812135,14.492824491882324,13.904035Q14.539954491882323,14.182935,14.292934491882324,14.315505Q13.984064491882325,14.480485,13.608714491882324,14.361525Q13.229830491882325,14.239785,13.231442491882325,13.895095Q13.231442491882325,13.691925,13.073884491882325,13.550654999999999Q12.927346491882325,13.419265,12.733997491882324,13.423874999999999Q12.537427891882324,13.429784999999999,12.398758491882324,13.570375Q12.258623491882323,13.712455,12.257201491882324,13.911995000000001Q12.253746491882325,14.535255,12.687745491882325,14.948095Q12.971480491882325,15.218085,13.377698491882324,15.330735Q13.377744491882325,15.398605,13.378401491882324,15.466305Q13.379736491882325,15.672755,13.515844491882325,15.817255Q13.658524491882325,15.968755,13.869174491882324,15.968745Q14.077514491882324,15.967255,14.218934491882324,15.816275000000001Q14.354114491882324,15.671965,14.355434491882324,15.466205Q14.356074491882325,15.400575,14.356284491882324,15.346454999999999Q14.376544491882324,15.341565,14.396454491882324,15.336275Q15.381204491882324,15.066625,15.470924491882325,14.099835Q15.525294491882324,13.507685,15.140644491882323,13.107695Q14.919164491882324,12.877745,14.619254491882325,12.737065Q14.456594491882324,12.661045,14.129634491882324,12.522085Q14.004894491882323,12.469065,13.943474491882323,12.442585Q13.932864491882324,12.437975,13.912214491882324,12.429055Q13.599054491882324,12.293665,13.477004491882324,12.196145Q13.401366491882325,12.135305,13.386371491882324,12.071265Q13.335616491882325,11.854375000000001,13.524344491882324,11.727415Q13.841174491882324,11.514145,14.228364491882324,11.669435Q14.391804491882324,11.734705,14.426884491882324,11.885905Q14.431024491882324,11.904955,14.435254491882324,11.962215Q14.438604491882325,12.007675,14.441494491882324,12.032725Q14.496004491882324,12.505405,14.957154491882324,12.477845Q15.415964491882324,12.449825,15.415954491882324,11.977174999999999Q15.414164491882325,11.493745,15.127644491882325,11.14484Q14.839854491882324,10.794394,14.356604491882324,10.668345Q14.355664491882324,10.592045,14.353514491882324,10.540391ZM13.378291491882324,15.186115000000001L13.378408491882324,15.173565Q13.378218491882324,15.179935,13.378291491882324,15.186115000000001ZM13.857304491882324,10.980634Q13.823034491882325,11.068961999999999,13.733304491882324,11.114252Q13.867434491882324,11.092928,14.006724491882323,11.104661L13.857304491882324,11.072951L13.857304491882324,10.980634ZM14.021524491882325,14.908225Q13.865524491882324,14.921064999999999,13.702444491882325,14.895955Q13.836524491882324,14.944905,13.868554491882325,15.074615Q13.902104491882325,14.954425,14.021524491882325,14.908225ZM13.525544491882325,10.65993Q13.527194491882325,10.659529,13.528854491882324,10.659131Q13.527184491882323,10.659523,13.525544491882325,10.65993L13.525544491882325,10.65993Z" fill-rule="evenodd" fill="#2D2E33" fill-opacity="1"/></g></g></g></svg>