<svg xmlns="http://www.w3.org/2000/svg" xmlns:xlink="http://www.w3.org/1999/xlink" fill="none" version="1.1" width="20" height="20" viewBox="0 0 20 20"><defs><clipPath id="master_svg0_sa4143_51230"><rect x="0" y="0" width="20" height="20" rx="0"/></clipPath></defs><g clip-path="url(#master_svg0_sa4143_51230)"><g><path d="M8.835496328125,4.53045775Q7.4617063281250005,5.894428749999999,7.4617063281250005,7.82413875Q7.4617063281250005,8.634348750000001,7.730646328125,9.383178749999999L3.776476328125,13.30905875Q3.167236328125,13.91396875,3.167236328125,14.77016875Q3.167236328125,15.62636875,3.776485328125,16.231268749999998Q4.384239328125,16.83466875,5.242986328125,16.83466875Q6.101736328125,16.83466875,6.709516328125,16.231268749999998L10.711636328125,12.25769875Q11.405636328125,12.48029875,12.147806328125,12.48029875Q14.087836328125,12.48029875,15.460136328125,11.11780875Q16.833936328125,9.75384875,16.833936328125,7.82413875Q16.833936328125,7.00537875,16.556136328125,6.2416487499999995Q16.518536328125002,6.13828875,16.441036328125,6.0602487499999995Q16.406436328125,6.02529875,16.365536328125,5.997798749999999Q16.324736328125,5.97028875,16.279236328125002,5.95127875Q16.233836328125,5.93227875,16.185536328125,5.92249875Q16.137336328125002,5.91271875,16.088036328125,5.9125387499999995Q16.038836328125,5.91235875,15.990436328125,5.92179875Q15.942136328125,5.93122875,15.896536328125,5.94991875Q15.851036328125,5.96859875,15.809936328125,5.99580875Q15.768936328125,6.02302875,15.733936328125,6.057718749999999L14.783036328125,7.001848750000001Q14.467636328125,7.31501875,14.020836328125,7.31501875Q13.574006328125,7.31501875,13.258586328125,7.001848750000001Q12.944656328125,6.69015875,12.944656328125,6.250098749999999Q12.944656328125,5.81003875,13.258586328125,5.49834875L14.326436328125,4.43814475Q14.387236328125,4.3777247500000005,14.424536328125,4.30048075Q14.445936328125,4.25612275,14.458236328125,4.20844375Q14.470536328125,4.16076475,14.473336328125,4.11159775Q14.476136328125,4.06243075,14.469236328125,4.01366475Q14.462436328125,3.96489975,14.446136328125,3.91840975Q14.429936328125,3.87191975,14.404936328125,3.82949175Q14.379936328125,3.78706475,14.347136328125,3.75032905Q14.314336328125,3.71359385,14.274936328125,3.68396285Q14.235636328125,3.65433195,14.191336328125,3.63294395Q13.226926328125,3.16796875,12.147806328125,3.16796875Q10.207796328125,3.16796875,8.835496328125,4.53045775ZM8.774676328125,9.30101875Q8.461706328125,8.598968750000001,8.461706328125,7.82413875Q8.461706328125,6.3107387500000005,9.540056328125,5.24009875Q10.619906328125001,4.16796875,12.147806328125,4.16796875Q12.620806328125,4.16796875,13.065326328125,4.28105375L12.554016328125,4.78870875Q11.944656328125,5.39372875,11.944656328125,6.250098749999999Q11.944656328125,7.10647875,12.554016328125,7.71148875Q13.161896328125,8.31501875,14.020836328125,8.31501875Q14.879736328125,8.31501875,15.487636328125,7.71148875L15.808836328125,7.39262875Q15.833936328125,7.60581875,15.833936328125,7.82413875Q15.833936328125,9.33752875,14.755536328125,10.408178750000001Q13.675736328125,11.48029875,12.147806328125,11.48029875Q11.429096328125,11.48029875,10.769226328125,11.21619875Q10.701286328125,11.18900875,10.628416328124999,11.18242875Q10.555536328125001,11.17584875,10.483836328125001,11.190428749999999Q10.412126328125,11.20499875,10.347606328125,11.23951875Q10.283076328125,11.27402875,10.231156328125,11.32558875L6.004956328125,15.52156875Q5.689636328125,15.83466875,5.242986328125,15.83466875Q4.796346328125,15.83466875,4.481047328125,15.52156875Q4.167236328125,15.20996875,4.167236328125,14.77016875Q4.167236328125,14.33026875,4.481056328125,14.01866875L8.670286328125,9.85941875Q8.724286328125,9.80580875,8.759896328125,9.73854875Q8.795506328125,9.67128875,8.809486328125,9.596488749999999Q8.823476328125,9.52167875,8.814566328125,9.44609875Q8.805666328125,9.370518749999999,8.774676328125,9.30101875Z" fill-rule="evenodd" fill="#949E9C" fill-opacity="1"/></g></g></svg>