<svg xmlns="http://www.w3.org/2000/svg" xmlns:xlink="http://www.w3.org/1999/xlink" fill="none" version="1.1" width="20" height="20" viewBox="0 0 20 20"><defs><clipPath id="master_svg0_3258_23340"><rect x="0" y="0" width="20" height="20" rx="0"/></clipPath></defs><g clip-path="url(#master_svg0_3258_23340)"><g><path d="M8.456234375000001,3.0727800234375Q6.702064375,4.8144040234375005,6.702064375,7.2785840234375Q6.702064375,8.272594023437499,7.019114375,9.1943340234375L2.1324615749999998,14.0460740234375Q1.333984375,14.8388740234375,1.333984375,15.9610740234375Q1.333984375,17.0833740234375,2.132474675,17.8761740234375Q2.928721375,18.6666740234375,4.053674375,18.6666740234375Q5.178624375,18.6666740234375,5.9749043749999995,17.8761740234375L10.924034375,12.9623740234375Q11.776144375,13.2237740234375,12.684684375,13.2237740234375Q15.161184375,13.2237740234375,16.913184375,11.4843840234375Q18.667284375,9.742754023437499,18.667284375,7.2785840234375Q18.667284375,6.2331140234375,18.312584375,5.2577540234375Q18.256184375,5.1027240234375,18.139984375,4.9856540234375Q18.034884375,4.8797840234375,17.897284374999998,4.8222040234375Q17.759684375,4.7646240234375,17.610484375,4.7640840234374995Q17.461284374999998,4.7635540234375,17.323284375,4.8201540234374995Q17.185184375,4.8767540234375,17.079384375,4.9818640234375L15.890684375,6.1620240234375Q15.532984375,6.5171840234375,15.025984375,6.5171840234375Q14.518984375,6.5171840234375,14.161284375,6.1620240234375Q13.805784375,5.8090740234375,13.805784375,5.3110440234375Q13.805784375,4.8130040234375,14.161284375,4.4600540234375L15.496084375,3.1347940234375002Q15.587284375,3.0441690234375,15.643184375,2.9283030234375Q15.707984375,2.7939230234375,15.716384375,2.6449780234375Q15.724884375,2.4960320234375,15.675684375,2.3551960234375002Q15.626384375,2.2143610234375,15.527084375,2.1030753234375Q15.427684375,1.9917900234375,15.293384375,1.9269980234375Q14.062184375,1.3333740234375,12.684684375,1.3333740234375Q10.208174375,1.3333740234375,8.456234375000001,3.0727800234375ZM8.582454375000001,9.0737840234375Q8.202064374999999,8.220514023437499,8.202064374999999,7.2785840234375Q8.202064374999999,5.438884023437501,9.513084375,4.1372340234375Q10.826344375,2.8333740234375,12.684684375,2.8333740234375Q13.144484375,2.8333740234375,13.582184375,2.9212120234375L13.104384375,3.3955940234375Q12.305784375,4.1885340234375,12.305784375,5.3110440234375Q12.305784375,6.4335440234375,13.104384375,7.2264740234375Q13.900784375,8.017184023437501,15.025984375,8.017184023437501Q16.151184375,8.017184023437501,16.947584374999998,7.2264740234375L17.159784375,7.0158140234375Q17.167284375,7.1464340234375,17.167284375,7.2785840234375Q17.167284375,9.1182840234375,15.856284375,10.4199240234375Q14.543084375,11.7237940234375,12.684684375,11.7237940234375Q11.810384375,11.7237940234375,11.007914375,11.4026140234375Q10.906014375,11.3618340234375,10.796704375,11.3519540234375Q10.687384375,11.3420840234375,10.579824375,11.3639440234375Q10.472264375,11.3858140234375,10.375484375,11.4375840234375Q10.278694375,11.4893540234375,10.200804375,11.5666840234375L4.9180543750000005,16.8116740234375Q4.560474375,17.1666740234375,4.053674375,17.1666740234375Q3.546894375,17.1666740234375,3.189314375,16.8116740234375Q2.833984375,16.458874023437502,2.833984375,15.9610740234375Q2.833984375,15.4632740234375,3.189334375,15.1104740234375L8.425864375,9.9113940234375Q8.506874374999999,9.830964023437499,8.560284375,9.730084023437499Q8.613694375,9.629194023437499,8.634664375,9.516994023437501Q8.655644375,9.4047840234375,8.642294374999999,9.2914140234375Q8.628934375,9.1780440234375,8.582454375000001,9.0737840234375Z" fill-rule="evenodd" fill="#99A0AF" fill-opacity="1"/></g></g></svg>