<svg xmlns="http://www.w3.org/2000/svg" xmlns:xlink="http://www.w3.org/1999/xlink" fill="none" version="1.1" width="19" height="19" viewBox="0 0 19 19"><g><g><path d="M7.40565,18.6469Q7.89719,17.0472,9.5,17.0472Q11.1028,17.0472,11.5943,18.6469L11.5947,18.6479Q11.6092,18.695,11.6327,18.7383Q11.6562,18.7816,11.6876,18.8194Q11.7191,18.8573,11.7574,18.8884Q11.7956,18.9194,11.8392,18.9423Q11.8827,18.9653,11.9299,18.9793Q11.9772,18.9933,12.0262,18.9979Q12.0752,19.0024,12.1242,18.9973Q12.1732,18.9922,12.2202,18.9776Q14.6134,18.2364,16.3525,16.3562Q16.3829,16.3234,16.4069,16.2857Q16.430999999999997,16.247999999999998,16.448,16.2066Q16.465,16.1652,16.4744,16.1214Q16.4837,16.0777,16.4852,16.033Q16.4866,15.9883,16.4801,15.944Q16.473599999999998,15.8997,16.459400000000002,15.8573Q16.4451,15.8149,16.4235,15.7757Q16.402,15.7365,16.3738,15.7018Q15.85,15.0559,15.85,14.2064Q15.85,13.2442,16.5013,12.5666Q17.1445,11.8974,18.05,11.8974Q18.1585,11.8974,18.2665,11.9084Q18.3125,11.9132,18.3587,11.9093Q18.4049,11.9055,18.4496,11.8932Q18.4943,11.881,18.5359,11.8607Q18.5776,11.8404,18.6149,11.8129Q18.6521,11.7853,18.6836,11.7513Q18.7152,11.7174,18.7399,11.6782Q18.7647,11.6391,18.7818,11.596Q18.799,11.553,18.8079,11.5075Q19,10.5304,19,9.52476Q19,8.00665,18.5665,6.57098Q18.5431,6.49343,18.4964,6.42724Q18.4497,6.36104,18.3845,6.31298Q18.3193,6.26493,18.2422,6.23992Q18.1652,6.21491,18.0842,6.21551L18.05,6.21578Q17.1445,6.21578,16.5013,5.54656Q15.85,4.86898,15.85,3.9068Q15.85,3.36305,16.0788,2.88029Q16.112299999999998,2.80942,16.1226,2.73169Q16.1329,2.65395,16.1189,2.57679Q16.1049,2.4996400000000003,16.0679,2.43048Q16.030900000000003,2.3613299999999997,15.9746,2.30681Q14.2736,0.66137,12.0449,0.01952799999999999Q12.0029,0.007431000000000021,11.9595,0.002805999999999975Q11.916,-0.001819000000000015,11.8724,0.0011700000000000044Q11.8288,0.004157999999999995,11.7863,0.014668999999999988Q11.7439,0.02517999999999998,11.7039,0.04289399999999999Q11.664,0.060609000000000024,11.6277,0.08498899999999998Q11.5914,0.109369,11.5599,0.13967600000000002Q11.5284,0.16998200000000002,11.5026,0.205295Q11.4769,0.24060900000000002,11.4576,0.279857Q10.8425,1.53416,9.5,1.53416Q8.15745,1.53416,7.54237,0.279857Q7.52313,0.240608,7.49736,0.205295Q7.4716,0.16998200000000002,7.44009,0.13967600000000002Q7.40859,0.109369,7.37231,0.08498899999999998Q7.33603,0.060609000000000024,7.29606,0.04289399999999999Q7.2561,0.02517999999999998,7.21367,0.014668999999999988Q7.17124,0.004157999999999995,7.12763,0.0011700000000000044Q7.08402,-0.001819000000000015,7.04055,0.002805999999999975Q6.99708,0.007431000000000021,6.95507,0.01952799999999999Q4.72638,0.661369,3.02543,2.30681Q2.96907,2.3613299999999997,2.93211,2.43048Q2.89514,2.4996400000000003,2.88112,2.57679Q2.86711,2.65395,2.87738,2.73169Q2.88765,2.80943,2.92123,2.88029Q3.15,3.36305,3.15,3.9068Q3.15,4.86898,2.49871,5.54656Q1.85545,6.21578,0.953716,6.21579L0.915822,6.21551Q0.834813,6.21491,0.7577590000000001,6.23992Q0.680704,6.26493,0.615488,6.31298Q0.5502719,6.36104,0.50356684,6.42723Q0.4568618,6.49343,0.4334466,6.57098Q0,8.00659,0,9.52476Q0,10.5304,0.192087,11.5075Q0.201025,11.5529,0.218167,11.596Q0.235309,11.639,0.260069,11.6782Q0.28483,11.7174,0.316367,11.7513Q0.34790299999999996,11.7853,0.385141,11.8129Q0.4223793,11.8404,0.4640507,11.8607Q0.50572208,11.881,0.5504074,11.8932Q0.5950927,11.9055,0.64127,11.9093Q0.687447,11.9132,0.7335430000000001,11.9084Q0.841451,11.8974,0.949999,11.8974Q1.85545,11.8974,2.49871,12.5666Q3.15,13.2442,3.15,14.2064Q3.15,15.0559,2.6262,15.7018Q2.59802,15.7365,2.57646,15.7757Q2.55489,15.8149,2.54063,15.8573Q2.52637,15.8997,2.51986,15.944Q2.51335,15.9883,2.51481,16.033Q2.51626,16.0777,2.52563,16.121499999999997Q2.535,16.1652,2.55199,16.2066Q2.56898,16.247999999999998,2.59305,16.2857Q2.61711,16.3234,2.6475,16.356299999999997Q4.3866499999999995,18.2364,6.77977,18.9776L6.78085,18.9779Q6.87592,19.0072,6.97493,18.9978Q7.07394,18.9884,7.16182,18.9418Q7.2497,18.8952,7.31307,18.8186Q7.37644,18.7419,7.40565,18.6469ZM12.3729,17.8698Q11.5819,16.0472,9.5,16.0472Q7.41814,16.0472,6.6271,17.8698Q4.9568,17.2495,3.66218,15.9676Q4.15,15.1793,4.15,14.2064Q4.15,12.8415,3.21967,11.8736Q2.33522,10.9535,1.1016979999999998,10.9006Q1,10.22056,1,9.52476Q1,8.33272,1.295623,7.19837Q2.40656,7.08547,3.21967,6.23954Q4.15,5.27165,4.15,3.9068Q4.15,3.32843,3.96596,2.79686Q5.25124,1.64222,6.85417,1.09876Q7.75122,2.53416,9.5,2.53416Q11.2488,2.53416,12.1458,1.098761Q13.7488,1.64222,15.034,2.79686Q14.85,3.32844,14.85,3.9068Q14.85,5.27165,15.7803,6.23954Q16.5945,7.08656,17.7044,7.19868Q18,8.33292,18,9.52476Q18,10.22054,17.8983,10.9006Q16.6648,10.9535,15.7803,11.8736Q14.85,12.8415,14.85,14.2064Q14.85,15.1793,15.3378,15.9676Q14.0432,17.2495,12.3729,17.8698Z" fill-rule="evenodd" fill="#F6FEFD" fill-opacity="1"/></g><g><path d="M7.025125,7.025125Q6,8.05025,6,9.5Q6,10.94975,7.025125,11.97487Q8.05025,13,9.5,13Q10.94975,13,11.97487,11.97487Q13,10.94975,13,9.5Q13,8.05025,11.97487,7.025125Q10.94975,6,9.5,6Q8.05025,6,7.025125,7.025125ZM7.7322299999999995,11.267769999999999Q7,10.535540000000001,7,9.5Q7,8.46446,7.7322299999999995,7.7322299999999995Q8.46446,7,9.5,7Q10.535540000000001,7,11.267769999999999,7.7322299999999995Q12,8.46446,12,9.5Q12,10.535540000000001,11.267769999999999,11.267769999999999Q10.535540000000001,12,9.5,12Q8.46446,12,7.7322299999999995,11.267769999999999Z" fill-rule="evenodd" fill="#F6FEFD" fill-opacity="1"/></g></g></svg>