<svg xmlns="http://www.w3.org/2000/svg" xmlns:xlink="http://www.w3.org/1999/xlink" fill="none" version="1.1" width="16" height="16" viewBox="0 0 16 16"><defs><clipPath id="master_svg0_521_03724"><rect x="0" y="16" width="16" height="16" rx="0"/></clipPath></defs><g transform="matrix(1,0,0,-1,0,32)" clip-path="url(#master_svg0_521_03724)"><g><path d="M4.667314375,25.916656494140625L1.333984375,25.916656494140625Q1.2601158749999999,25.916656494140625,1.187666375,25.931066494140623Q1.115217375,25.945476494140625,1.046971375,25.973746494140624Q0.9787263749999999,26.002016494140626,0.917306375,26.043056494140625Q0.855887375,26.084096494140624,0.803654375,26.136326494140626Q0.751421375,26.188556494140624,0.710382375,26.249976494140626Q0.669343375,26.311396494140624,0.641074375,26.379646494140626Q0.612806375,26.447886494140626,0.598395375,26.520336494140626Q0.583984375,26.592786494140626,0.583984375,26.666656494140625Q0.583984375,26.740526494140624,0.598395375,26.812976494140624Q0.612806375,26.885426494140624,0.641074375,26.953666494140624Q0.669343375,27.021916494140626,0.710382375,27.083336494140624Q0.751421375,27.144756494140626,0.803654375,27.196986494140624Q0.855887375,27.249216494140626,0.917306375,27.290256494140625Q0.9787263749999999,27.331296494140624,1.046971375,27.359566494140626Q1.115217375,27.387836494140625,1.187666375,27.402246494140627Q1.2601158749999999,27.416656494140625,1.333984375,27.416656494140625L4.667314375,27.416656494140625Q5.143624375,27.416656494140625,6.286234375,27.801846494140626Q8.109944375000001,28.416656494140625,9.333984375,28.416656494140625Q10.850004375,28.416656494140625,12.736684375,27.216066494140627Q13.951984375,26.442696494140627,14.864284375,25.530316494140624Q15.583984375,24.810646494140624,15.583984375,24.083323494140625Q15.583984375,23.550288494140624,15.202884375,23.216807494140625Q14.859784375,22.916656494140625,14.333984375,22.916656494140625Q13.607484375,22.916656494140625,8.715644375,23.892195494140626L6.904784375,23.288576494140624L6.904484375,23.288477494140626Q6.789024375,23.249990494140626,6.667314375,23.249990494140626Q6.659354375,23.249989494140625,6.651394375,23.250159494140625Q6.482764375,23.253739494140625,6.331904375,23.329169494140626Q6.198474375,23.395887494140624,6.100724375,23.508588494140625Q6.002984375,23.621290594140625,5.955804375,23.762819094140625Q5.917314375,23.878281494140627,5.917314375,23.999989494140625Q5.917314375,24.020696494140626,5.918464375,24.041375494140624Q5.924684375,24.153963494140626,5.963734375,24.259745494140624Q6.002794375,24.365527494140625,6.071224375,24.455148494140627Q6.139654375,24.544770494140625,6.231414375,24.610307494140624Q6.323174375,24.675846494140625,6.430144375,24.711506494140625L6.430444375,24.711596494140625L8.430144375000001,25.378166494140626Q8.619104375,25.441156494140625,8.814404374999999,25.402096494140626Q12.558984375,24.653180494140624,13.799884375,24.473427494140626Q13.005184375,25.267226494140626,11.931284375,25.950576494140627Q10.413204375,26.916656494140625,9.333984375,26.916656494140625Q8.355984375,26.916656494140625,6.765414375,26.380446494140624Q5.389654375,25.916656494140625,4.667314375,25.916656494140625Z" fill-rule="evenodd" fill="#333333" fill-opacity="1"/></g><g><path d="M9.010534374999999,23.385930000000002Q8.836774375000001,23.65231,8.251294375,24.04263Q8.174244375,24.094,8.112004375,24.16256Q8.049754375,24.23113,8.006064375000001,24.31277Q7.962364375,24.39442,7.939844375,24.48424Q7.917314375,24.57406,7.917314375,24.66667L7.917344375,24.6734Q7.919354375,24.8968,8.043284374999999,25.08269Q8.094644375,25.15974,8.163214374999999,25.221980000000002Q8.231774375,25.28423,8.313424375,25.32792Q8.395074375,25.37162,8.484894375,25.39414Q8.574714375,25.41667,8.667314375,25.41667L8.674054375,25.41664Q8.897454374999999,25.41463,9.083344375,25.2907L9.083864375000001,25.29036Q9.973764375,24.69699,10.310434375,24.13587Q10.819894375,23.28677,10.267314375,22.55Q9.756804375,21.869312,7.763244375,21.0556143Q5.789484375,20.25,4.667314375,20.25Q3.572314375,20.25,2.3785443749999997,20.932151Q1.513784375,21.426301,0.804016375,22.13597L0.803654375,22.13634Q0.698165375,22.24183,0.641074375,22.37965Q0.583984375,22.51748,0.583984375,22.66667Q0.583984375,22.81585,0.641074375,22.95368Q0.698165375,23.09151,0.803654375,23.197Q0.909143375,23.30249,1.046971375,23.35958Q1.184800375,23.41667,1.333984375,23.41667Q1.483168375,23.41667,1.620997375,23.35958Q1.758825375,23.30249,1.864314375,23.197Q2.4321843750000003,22.62913,3.122754375,22.23452Q3.970654375,21.75,4.667314375,21.75Q5.495154375,21.75,7.196394375,22.44439Q8.663494374999999,23.0432,9.010534374999999,23.385930000000002Z" fill-rule="evenodd" fill="#333333" fill-opacity="1"/></g><g><rect x="10" y="20" width="4" height="1" rx="0.5" fill="#333333" fill-opacity="1"/></g><g><rect x="10" y="18" width="2" height="1" rx="0.5" fill="#333333" fill-opacity="1"/></g></g></svg>