<svg xmlns="http://www.w3.org/2000/svg" xmlns:xlink="http://www.w3.org/1999/xlink" fill="none" version="1.1" width="24" height="24" viewBox="0 0 24 24"><defs><clipPath id="master_svg0_4138_38435"><rect x="0" y="0" width="24" height="24" rx="0"/></clipPath></defs><g clip-path="url(#master_svg0_4138_38435)"><g><path d="M9.85628,21.814072265625Q10.35625,20.250072265625,12,20.250072265625Q13.6437,20.250072265625,14.1437,21.814072265625Q14.1659,21.883472265625,14.2011,21.947372265625Q14.2363,22.011272265625,14.2831,22.067172265625Q14.3299,22.123072265625,14.3866,22.168872265625Q14.4433,22.214772265625,14.5078,22.248772265625Q14.5723,22.282872265625,14.6421,22.303872265625Q14.7119,22.324872265625,14.7845,22.332072265625Q14.857,22.339172265625,14.9296,22.332272265625Q15.0022,22.325272265625,15.0721,22.304472265625Q17.7782,21.498772265625,19.7465,19.453572265625Q19.7943,19.403872265625,19.8322,19.346272265625Q19.8702,19.288672265625,19.897,19.225172265625Q19.9238,19.161672265625,19.9386,19.094272265625Q19.9534,19.026972265625,19.9557,18.957972265625Q19.9579,18.889072265625,19.9476,18.820872265625Q19.9372,18.752772265625,19.9146,18.687572265625Q19.892,18.622472265625,19.8579,18.562472265625Q19.8237,18.502572265625,19.7793,18.449872265625Q19.25,17.822572265625,19.25,17.000072265625Q19.25,16.068072265625,19.909,15.409072265625Q20.568,14.750072265625,21.5,14.750072265625Q21.6122,14.750072265625,21.7236,14.760972265625Q21.7923,14.767772265625,21.861,14.761872265625Q21.9297,14.755972265625,21.9962,14.737672265625Q22.0627,14.719372265625,22.1247,14.689272265625Q22.1867,14.659072265625,22.2422,14.618172265625Q22.2977,14.577272265625,22.3448,14.526872265625Q22.3919,14.476472265625,22.429,14.418372265625Q22.4662,14.360272265625,22.4921,14.296372265625Q22.518,14.232472265625,22.5318,14.164872265625Q22.75,13.097972265625,22.75,12.000052265625Q22.75,10.342562265625,22.2576,8.775002265625Q22.2397,8.717922265624999,22.213,8.664412265625Q22.1862,8.610902265625,22.1513,8.562302265625Q22.1164,8.513712265625,22.0743,8.471262265625Q22.0321,8.428812265625,21.9837,8.393582265625Q21.9354,8.358352265625001,21.8821,8.331232265625001Q21.8287,8.304112265625001,21.7718,8.285792265625Q21.7148,8.267472265624999,21.6557,8.258402265625Q21.5966,8.249342265625,21.5367,8.249772265625001L21.5,8.250052265625001Q20.568,8.250052265625001,19.909,7.591042265625Q19.25,6.932032265625,19.25,6.0000522656249995Q19.25,5.4740322656250004,19.4804,5.006692265625Q19.507,4.952772265625001,19.5246,4.895302265625Q19.5423,4.8378422656249995,19.5506,4.778292265625Q19.5588,4.718752265625,19.5575,4.658642265625Q19.5562,4.5985422656249995,19.5453,4.539412265625Q19.5345,4.480292265625,19.5143,4.423652265625Q19.4942,4.367012265625,19.4652,4.314302265625Q19.4363,4.261602265625,19.3994,4.214172265625Q19.3624,4.166742265625,19.3184,4.125812265625Q17.3938,2.336280065625,14.874,1.638755265625Q14.812,1.621592265625,14.748,1.615238265625Q14.684,1.6088852656250001,14.6198,1.6135272656250002Q14.5557,1.618169265625,14.4932,1.6336712656249999Q14.4308,1.6491742656250001,14.3719,1.675083265625Q14.313,1.700992265625,14.2594,1.736551265625Q14.2058,1.7721102656249998,14.159,1.8162802656250001Q14.1122,1.860450265625,14.0737,1.9119412656249999Q14.0351,1.963432265625,14.0059,2.020739265625Q13.3787,3.250067265625,12,3.250067265625Q10.62129,3.250067265625,9.99413,2.020739265625Q9.96489,1.963432265625,9.92633,1.9119412656249999Q9.88776,1.860450265625,9.84098,1.8162802656250001Q9.79421,1.7721102656249998,9.7406,1.736551265625Q9.68698,1.700992265625,9.6281,1.675083265625Q9.56921,1.6491742656250001,9.50677,1.6336712656249999Q9.44433,1.618169265625,9.38017,1.6135272656250002Q9.315999999999999,1.6088852656250001,9.25198,1.615238265625Q9.18796,1.621592265625,9.12596,1.638755265625Q6.60616,2.336278865625,4.68159,4.125812265625Q4.637560000000001,4.166742265625,4.60062,4.214172265625Q4.56368,4.261602265625,4.53476,4.314302265625Q4.50584,4.367012265625,4.48569,4.423652265625Q4.46554,4.480292265625,4.45467,4.539412265625Q4.44379,4.5985422656249995,4.44248,4.658642265625Q4.44116,4.718752265625,4.44944,4.778292265625Q4.4577100000000005,4.8378422656249995,4.47537,4.895302265625Q4.49302,4.952772265625001,4.51961,5.006692265625Q4.75,5.474022265625,4.75,6.0000522656249995Q4.75,6.932032265625,4.09099,7.591042265625Q3.4319800000000003,8.250052265625001,2.505351,8.250072265625L2.463246,8.249772265625001Q2.403422,8.249342265625,2.344287,8.258402265625Q2.285152,8.267472265624999,2.228201,8.285792265625Q2.17125,8.304112265625001,2.117924,8.331232265625001Q2.0645983,8.358352265625001,2.0162455,8.393582265625Q1.9678928,8.428802265625,1.9257362,8.471252265625Q1.88358,8.513702265625,1.848685,8.562302265625Q1.813791,8.610892265625,1.787042,8.664402265625Q1.760292,8.717922265624999,1.742364,8.774992265625Q1.25,10.342482265625,1.25,12.000052265625Q1.25,13.098072265625,1.468207,14.164872265625Q1.4820250000000001,14.232472265625,1.507932,14.296372265625Q1.533838,14.360272265625,1.570964,14.418372265625Q1.60809,14.476472265625,1.65519,14.526872265625Q1.70229,14.577272265625,1.757785,14.618172265625Q1.81328,14.659072265625,1.8753090000000001,14.689272265625Q1.937338,14.719372265625,2.00382122,14.737672265625Q2.0703044,14.755972265625,2.139012,14.761872265625Q2.20772,14.767772265625,2.276349,14.760972265625Q2.387829,14.750072265625,2.499999,14.750072265625Q3.4319800000000003,14.750072265625,4.09099,15.409072265625Q4.75,16.068072265625,4.75,17.000072265625Q4.75,17.822572265625,4.22072,18.449872265625Q4.17624,18.502572265625,4.14213,18.562472265625Q4.10802,18.622472265625,4.0854,18.687572265625Q4.06279,18.752772265625,4.05243,18.820872265625Q4.04208,18.889072265625,4.04433,18.957972265625Q4.04659,19.026972265625,4.06137,19.094272265625Q4.07616,19.161672265625,4.1029800000000005,19.225172265625Q4.1297999999999995,19.288772265625,4.1677599999999995,19.346272265625Q4.20571,19.403872265625,4.25353,19.453572265625Q6.22179,21.498772265625,8.92789,22.304472265625Q8.997779999999999,22.325272265625,9.07036,22.332272265625Q9.142949999999999,22.339172265625,9.21552,22.332072265625Q9.28809,22.324872265625,9.35792,22.303872265625Q9.42775,22.282872265625,9.49222,22.248772265625Q9.5567,22.214772265625,9.61341,22.168872265625Q9.670110000000001,22.123072265625,9.71693,22.067172265625Q9.76374,22.011272265625,9.79891,21.947372265625Q9.83408,21.883472265625,9.85628,21.814072265625ZM15.2878,20.650172265625Q14.3383,18.750072265625,12,18.750072265625Q9.66171,18.750072265625,8.71218,20.650172265625Q7.07231,20.032172265625,5.772349999999999,18.841072265625Q6.25,18.008372265625,6.25,17.000072265625Q6.25,15.446772265625,5.15165,14.348372265625Q4.17381,13.370572265625,2.835383,13.263272265625Q2.75,12.638072265625,2.75,12.000052265625Q2.75,10.831052265625,3.03395,9.715372265625Q4.24844,9.554912265625,5.15165,8.651702265625001Q6.25,7.553352265625,6.25,6.0000522656249995Q6.25,5.4238722656250005,6.08332,4.888702265625Q7.38695,3.797982265625,8.98591,3.251254265625Q10.03448,4.750062265625,12,4.750062265625Q13.9655,4.750062265625,15.0141,3.251255265625Q16.613,3.797982265625,17.9167,4.888702265625Q17.75,5.4238722656250005,17.75,6.0000522656249995Q17.75,7.553352265625,18.8483,8.651702265625001Q19.753,9.556312265625,20.9662,9.715882265625Q21.25,10.831362265625,21.25,12.000052265625Q21.25,12.638072265625,21.1646,13.263272265625Q19.8262,13.370572265625,18.8483,14.348372265625Q17.75,15.446772265625,17.75,17.000072265625Q17.75,18.008272265625,18.2276,18.841072265625Q16.9277,20.032172265625,15.2878,20.650172265625Z" fill-rule="evenodd" fill="#50D2C1" fill-opacity="1"/></g><g><path d="M8.994795,8.994795Q7.75,10.23959,7.75,12Q7.75,13.76041,8.994795,15.00521Q10.23959,16.25,12,16.25Q13.76041,16.25,15.00521,15.00521Q16.25,13.76041,16.25,12Q16.25,10.23959,15.00521,8.994795Q13.76041,7.75,12,7.75Q10.23959,7.75,8.994795,8.994795ZM10.05546,13.94455Q9.25,13.13909,9.25,12Q9.25,10.86091,10.05546,10.05546Q10.86091,9.25,12,9.25Q13.13909,9.25,13.94455,10.05546Q14.75,10.86091,14.75,12Q14.75,13.13909,13.94455,13.94455Q13.13909,14.75,12,14.75Q10.86091,14.75,10.05546,13.94455Z" fill-rule="evenodd" fill="#50D2C1" fill-opacity="1"/></g></g></svg>