<svg xmlns="http://www.w3.org/2000/svg" xmlns:xlink="http://www.w3.org/1999/xlink" fill="none" version="1.1" width="74" height="60" viewBox="0 0 74 60"><g><path d="M73.608,20.4842C72.9334,15.3038,71.2764,10.2244,68.2233,5.58058C65.0335,0.728039,60.4804,-1.31681,56.794,0.880035C55.092,1.89284,53.8965,3.8256,52.7816,5.57244C51.764,7.16136,51.2398,9.1196,50.3539,10.8195C46.7842,17.6765,39.6919,19.6456,30.6985,17.9038C21.7054,16.1621,19.6991,11.9001,15.4288,8.92038C11.4351,6.25534,6.7459,4.10826,3.13926,6.93084C0.158278,9.6061,-1.73424,18.875,2.33269,30.2262C6.39959,41.5772,13.8345,47.6764,18.3025,48.4462C22.7407,49.2106,23.9729,47.4722,25.3716,45.4992L25.3998,45.4596C27.0878,42.0514,29.7295,35.8266,32.4024,32.7164C35.0755,29.6064,36.3351,28.0938,40.1774,27.1012C44.0196,26.1086,45.7671,26.43,49.6426,27.6212C53.5183,28.8122,59.208,32.4998,61.0919,34.3018C67.5126,40.447,73.0956,36.4314,73.7327,31.1258C74.1269,27.653,74.0849,24.0776,73.608,20.4842ZM52.5799,59.9522C58.9772,59.3948,62.4924,54.1264,60.1436,47.3548C57.7945,40.583,49.5814,32.308,43.184,32.8654C36.7867,33.4228,34.6278,42.6014,36.9767,49.373C39.3257,56.1448,46.1825,60.5096,52.5799,59.9522Z" fill-rule="evenodd" fill="#111A1E" fill-opacity="1" style="mix-blend-mode:passthrough"/></g></svg>