<svg xmlns="http://www.w3.org/2000/svg" xmlns:xlink="http://www.w3.org/1999/xlink" fill="none" version="1.1" width="120" height="98" viewBox="0 0 120 98"><g><path d="M119.364,33.4575C118.27,24.9962,115.583,16.6998,110.632,9.11494C105.46,1.18913,98.0763,-2.15079,92.0984,1.43739C89.3384,3.09165,87.3997,6.24848,85.5919,9.10165C83.9415,11.6969,83.0916,14.8953,81.655,17.6718C75.8662,28.8717,64.3653,32.0878,49.7814,29.2429C35.1979,26.3981,31.9445,19.4369,25.0197,14.57C18.5434,10.2171,10.9393,6.71016,5.09069,11.3204C0.256666,15.69,-2.81229,30.8291,3.78274,49.3695C10.3777,67.9094,22.4343,77.8714,29.6797,79.1288C36.8768,80.3773,38.875,77.5379,41.1432,74.3153L41.1889,74.2507C43.9262,68.6839,48.21,58.5168,52.5444,53.4368C56.8792,48.3571,58.9218,45.8865,65.1525,44.2653C71.3832,42.644,74.2169,43.169,80.5015,45.1146C86.7864,47.0599,96.013,53.083,99.068,56.0263C109.48,66.0634,118.533,59.5046,119.567,50.8388C120.206,45.1666,120.138,39.3267,119.364,33.4575ZM85.2647,97.9219C95.6388,97.0115,101.339,88.4064,97.5301,77.3462C93.7208,66.2856,80.4022,52.7697,70.0281,53.6801C59.6541,54.5906,56.1532,69.5823,59.9622,80.6426C63.7715,91.7032,74.8906,98.8323,85.2647,97.9219Z" fill-rule="evenodd" fill="#50D2C1" fill-opacity="1" style="mix-blend-mode:passthrough"/></g></svg>