<svg xmlns="http://www.w3.org/2000/svg" xmlns:xlink="http://www.w3.org/1999/xlink" fill="none" version="1.1" width="16" height="16" viewBox="0 0 16 16"><defs><clipPath id="master_svg0_273_35873"><rect x="0" y="16" width="16" height="16" rx="0"/></clipPath></defs><g transform="matrix(0,-1,1,0,-16,16)" clip-path="url(#master_svg0_273_35873)"><g><path d="M12,23.25274658203125L4,23.25274658203125Q3.9261315,23.25274658203125,3.853682,23.26715758203125Q3.781233,23.28156858203125,3.712987,23.30983658203125Q3.644742,23.33810558203125,3.583322,23.379144582031252Q3.521903,23.42018358203125,3.46967,23.47241658203125Q3.417437,23.524649582031252,3.376398,23.58606858203125Q3.335359,23.64748858203125,3.30709,23.71573358203125Q3.278822,23.78397958203125,3.264411,23.85642858203125Q3.25,23.92887808203125,3.25,24.00274658203125Q3.25,24.07661508203125,3.264411,24.14906458203125Q3.278822,24.22151358203125,3.30709,24.28975958203125Q3.335359,24.35800458203125,3.376398,24.41942458203125Q3.417437,24.480843582031248,3.46967,24.53307658203125Q3.521903,24.58530958203125,3.583322,24.626348582031248Q3.644742,24.66738758203125,3.712987,24.69565658203125Q3.781233,24.72392458203125,3.853682,24.73833558203125Q3.9261315,24.75274658203125,4,24.75274658203125L12,24.75274658203125Q12.07387,24.75274658203125,12.14632,24.73833558203125Q12.21877,24.72392458203125,12.28701,24.69565658203125Q12.35526,24.66738758203125,12.41668,24.626348582031248Q12.4781,24.58530958203125,12.53033,24.53307658203125Q12.58256,24.480843582031248,12.6236,24.41942458203125Q12.66464,24.35800458203125,12.69291,24.28975958203125Q12.72118,24.22151358203125,12.73559,24.14906458203125Q12.75,24.07661508203125,12.75,24.00274658203125Q12.75,23.92887808203125,12.73559,23.85642858203125Q12.72118,23.78397958203125,12.69291,23.71573358203125Q12.66464,23.64748858203125,12.6236,23.58606858203125Q12.58256,23.524649582031252,12.53033,23.47241658203125Q12.4781,23.42018358203125,12.41668,23.379144582031252Q12.35526,23.33810558203125,12.28701,23.30983658203125Q12.21877,23.28156858203125,12.14632,23.26715758203125Q12.07387,23.25274658203125,12,23.25274658203125Z" fill-rule="evenodd" fill="#2D2E33" fill-opacity="1"/></g><g><path d="M8.530484,19.469824L8.53033,19.46967Q8.424841,19.364181,8.287013,19.30709Q8.149184,19.25,8,19.25Q7.850816,19.25,7.712987,19.30709Q7.575159,19.364181,7.46967,19.46967Q7.364181,19.575159,7.30709,19.712987Q7.25,19.850816,7.25,20Q7.25,20.149184,7.30709,20.287013Q7.364181,20.424841,7.46967,20.53033L7.469824,20.530484L10.93934,24L7.46967,27.46967Q7.364181,27.57516,7.30709,27.712989999999998Q7.25,27.85082,7.25,28Q7.25,28.01802,7.250866,28.03603Q7.257583,28.1757,7.314186,28.30358Q7.370789,28.431449999999998,7.46967,28.53033Q7.575159,28.635820000000002,7.712987,28.692909999999998Q7.850816,28.75,8,28.75Q8.149184,28.75,8.287013,28.692909999999998Q8.424841,28.635820000000002,8.53033,28.53033L8.530792,28.529870000000003L12.53033,24.53033Q12.58256,24.4781,12.6236,24.41668Q12.66464,24.35526,12.692910000000001,24.287010000000002Q12.72118,24.21877,12.73559,24.14632Q12.75,24.07387,12.75,24Q12.75,23.92613,12.73559,23.85368Q12.72118,23.78123,12.692910000000001,23.71299Q12.66464,23.64474,12.6236,23.58332Q12.58256,23.5219,12.53033,23.46967L8.530484,19.469824Z" fill-rule="evenodd" fill="#2D2E33" fill-opacity="1"/></g></g></svg>