<svg xmlns="http://www.w3.org/2000/svg" xmlns:xlink="http://www.w3.org/1999/xlink" fill="none" version="1.1" width="20" height="19" viewBox="0 0 20 19"><defs><clipPath id="master_svg0_sa4143_51025"><rect x="0" y="19" width="19" height="20" rx="0"/></clipPath></defs><g transform="matrix(0,-1,1,0,-19,19)" clip-path="url(#master_svg0_sa4143_51025)"><g><path d="M6,28.50274658203125L14,28.50274658203125Q14.04924,28.50274658203125,14.09754,28.51235358203125Q14.14584,28.52196158203125,14.19134,28.54080658203125Q14.23684,28.55965258203125,14.27778,28.58701158203125Q14.31873,28.61437158203125,14.35355,28.64919358203125Q14.38837,28.68401558203125,14.41573,28.72496158203125Q14.44309,28.76590758203125,14.46194,28.81140458203125Q14.48078,28.85690158203125,14.49039,28.90520148203125Q14.5,28.95350088203125,14.5,29.00274658203125Q14.5,29.05199228203125,14.49039,29.10029168203125Q14.48078,29.14859158203125,14.46194,29.19408858203125Q14.44309,29.23958558203125,14.41573,29.28053158203125Q14.38837,29.32147758203125,14.35355,29.35629958203125Q14.31873,29.39112158203125,14.27778,29.41848158203125Q14.23684,29.44584058203125,14.19134,29.46468658203125Q14.14584,29.48353158203125,14.09754,29.49313958203125Q14.04924,29.50274658203125,14,29.50274658203125L6,29.50274658203125Q5.9507543,29.50274658203125,5.9024549,29.49313958203125Q5.854155,29.48353158203125,5.808658,29.46468658203125Q5.763161,29.44584058203125,5.722215,29.41848158203125Q5.681269,29.39112158203125,5.646447,29.35629958203125Q5.611625,29.32147758203125,5.584265,29.28053158203125Q5.556906,29.23958558203125,5.53806,29.19408858203125Q5.519215,29.14859158203125,5.509607,29.10029168203125Q5.5,29.05199228203125,5.5,29.00274658203125Q5.5,28.95350088203125,5.509607,28.90520148203125Q5.519215,28.85690158203125,5.53806,28.81140458203125Q5.556906,28.76590758203125,5.584265,28.72496158203125Q5.611625,28.68401558203125,5.646447,28.64919358203125Q5.681269,28.61437158203125,5.722215,28.58701158203125Q5.763161,28.55965258203125,5.808658,28.54080658203125Q5.854155,28.52196158203125,5.9024549,28.51235358203125Q5.9507543,28.50274658203125,6,28.50274658203125Z" fill-rule="evenodd" fill="#50D2C1" fill-opacity="1"/></g><g><path d="M10.353613,24.646506L14.35355,28.64645Q14.38837,28.68127,14.41573,28.72221Q14.44309,28.76316,14.46194,28.80866Q14.48078,28.85415,14.49039,28.90245Q14.5,28.95075,14.5,29Q14.5,29.04924,14.49039,29.097540000000002Q14.48078,29.14584,14.46194,29.19134Q14.44309,29.23684,14.41573,29.27778Q14.38837,29.318730000000002,14.35355,29.35355L10.353553,33.35355Q10.283227,33.42388,10.191342,33.46194Q10.0994561,33.5,10,33.5Q9.9507543,33.5,9.9024549,33.49039Q9.854155,33.480779999999996,9.808658,33.46194Q9.763161,33.44309,9.722215,33.415729999999996Q9.681269,33.38837,9.646447,33.35355Q9.611625,33.31873,9.584265,33.27778Q9.556906,33.23684,9.53806,33.19134Q9.519214999999999,33.14584,9.509607,33.09754Q9.5,33.04924,9.5,33Q9.5,32.90054,9.53806,32.80866Q9.57612,32.71677,9.646447,32.64645L9.646634,32.64626L13.29289,29L9.646506,25.353613L9.646447,25.353553Q9.57612,25.283227,9.53806,25.191342Q9.5,25.0994562,9.5,25Q9.5,24.9507543,9.509607,24.9024549Q9.519214999999999,24.854155,9.53806,24.808658Q9.556906,24.763161,9.584265,24.722215Q9.611625,24.681269,9.646447,24.646447Q9.681269,24.611625,9.722215,24.584265Q9.763161,24.556906,9.808658,24.53806Q9.854155,24.519215,9.9024549,24.509607Q9.9507543,24.5,10,24.5Q10.0994562,24.5,10.191342,24.53806Q10.283227,24.57612,10.353553,24.646447L10.353613,24.646506Z" fill-rule="evenodd" fill="#50D2C1" fill-opacity="1"/></g></g></svg>