<svg xmlns="http://www.w3.org/2000/svg" xmlns:xlink="http://www.w3.org/1999/xlink" fill="none" version="1.1" width="24.000001296203635" height="24.000001296203635" viewBox="0 0 24.000001296203635 24.000001296203635"><defs><clipPath id="master_svg0_4158_59685"><rect x="0" y="0.000001296203635092752" width="24" height="24" rx="0"/></clipPath></defs><g transform="matrix(1,-5.400848479553133e-8,5.400848479553133e-8,1,-7.000599431781933e-14,0)" clip-path="url(#master_svg0_4158_59685)"><g><path d="M11.504150390625,6.000001296203635Q11.504150390625,5.950755596203635,11.513757390625,5.9024561962036355Q11.523365390624999,5.8541562962036355,11.542210390625,5.808659296203635Q11.561056390625,5.763162296203635,11.588415390625,5.722216296203635Q11.615775390625,5.681270296203635,11.650597390625,5.646448296203635Q11.685419390625,5.611626296203635,11.726365390625,5.584266296203635Q11.767311390625,5.556907296203635,11.812808390625,5.538061296203635Q11.858305390625,5.519216296203635,11.906605290625,5.509608296203635Q11.954904690625,5.500001296203635,12.004150390625,5.500001296203635Q12.053396090625,5.500001296203635,12.101695490625,5.509608296203635Q12.149995390625,5.519216296203635,12.195492390625,5.538061296203635Q12.240989390625,5.556907296203635,12.281935390625,5.584266296203635Q12.322881390625,5.611626296203635,12.357703390625,5.646448296203635Q12.392525390625,5.681270296203635,12.419885390625,5.722216296203635Q12.447244390625,5.763162296203635,12.466090390625,5.808659296203635Q12.484935390625001,5.8541562962036355,12.494543390625,5.9024561962036355Q12.504150390625,5.950755596203635,12.504150390625,6.000001296203635L12.504150390625,17.949801296203635Q12.504150390625,17.999001296203637,12.494543390625,18.047301296203635Q12.484935390625001,18.095601296203633,12.466090390625,18.141101296203637Q12.447244390625,18.186601296203634,12.419885390625,18.227501296203634Q12.392525390625,18.268501296203635,12.357703390625,18.303301296203635Q12.322881390625,18.338101296203636,12.281935390625,18.365501296203636Q12.240989390625,18.392801296203636,12.195492390625,18.411701296203635Q12.149995390625,18.430501296203637,12.101695490625,18.440101296203636Q12.053396090625,18.449701296203635,12.004150390625,18.449801296203635Q11.954904690625,18.449701296203635,11.906605290625,18.440101296203636Q11.858305390625,18.430501296203637,11.812808390625,18.411701296203635Q11.767311390625,18.392801296203636,11.726365390625,18.365501296203636Q11.685419390625,18.338101296203636,11.650597390625,18.303301296203635Q11.615775390625,18.268501296203635,11.588415390625,18.227501296203634Q11.561056390625,18.186601296203634,11.542210390625,18.141101296203637Q11.523365390624999,18.095601296203633,11.513757390625,18.047301296203635Q11.504150390625,17.999001296203637,11.504150390625,17.949801296203635L11.504150390625,6.000001296203635Z" fill-rule="evenodd" fill="#F6FEFD" fill-opacity="1"/></g><g><path d="M6.353613,11.646507296203636L12,17.292891296203635L17.646,11.646899296203635L17.6464,11.646448296203635Q17.7168,11.576121296203635,17.8087,11.538061296203635Q17.9005,11.500001296203635,18,11.500001296203635Q18.0492,11.500001296203635,18.0975,11.509608296203636Q18.1458,11.519216296203634,18.1913,11.538061296203635Q18.236800000000002,11.556907296203635,18.2778,11.584266296203635Q18.3187,11.611626296203635,18.3536,11.646448296203635Q18.3884,11.681270296203635,18.4157,11.722216296203635Q18.4431,11.763162296203635,18.4619,11.808659296203635Q18.480800000000002,11.854156296203636,18.4904,11.902456196203635Q18.5,11.950755596203635,18.5,12.000001296203635Q18.5,12.099457496203636,18.4619,12.191343296203636Q18.4239,12.283228296203635,18.3536,12.353554296203635L12.35355,18.353551296203634Q12.28323,18.423881296203636,12.19134,18.461941296203634Q12.09946,18.500001296203635,12,18.500001296203635Q11.90054,18.500001296203635,11.80866,18.461941296203634Q11.71677,18.423881296203636,11.64645,18.353551296203634L5.6465060000000005,12.353614296203634L5.646447,12.353554296203635Q5.57612,12.283228296203635,5.53806,12.191343296203636Q5.5,12.099457496203636,5.5,12.000001296203635Q5.5,11.950755596203635,5.509607,11.902456196203635Q5.519215,11.854156296203636,5.53806,11.808659296203635Q5.556906,11.763162296203635,5.584265,11.722216296203635Q5.611625,11.681270296203635,5.646447,11.646448296203635Q5.681269,11.611626296203635,5.722215,11.584266296203635Q5.763161,11.556907296203635,5.808658,11.538061296203635Q5.854155,11.519216296203634,5.9024549,11.509608296203636Q5.9507543,11.500001296203635,6,11.500001296203635Q6.0994562,11.500001296203635,6.191342,11.538061296203635Q6.283227,11.576121296203635,6.353553,11.646448296203635L6.353613,11.646507296203636Z" fill-rule="evenodd" fill="#F6FEFD" fill-opacity="1"/></g></g></svg>