<svg xmlns="http://www.w3.org/2000/svg" xmlns:xlink="http://www.w3.org/1999/xlink" fill="none" version="1.1" width="20" height="20" viewBox="0 0 20 20"><defs><clipPath id="master_svg0_sa4143_50245"><rect x="0" y="0" width="20" height="20" rx="0"/></clipPath></defs><g clip-path="url(#master_svg0_sa4143_50245)"><g><path d="M3.98015609375,6.312245625L3.97994309375,6.312465625Q3.90961709375,6.382785625,3.8715560937499998,6.474675625Q3.83349609375,6.5665556249999995,3.83349609375,6.666015625Q3.83349609375,6.715265625,3.84310309375,6.763555625Q3.85271109375,6.811855625,3.8715560937499998,6.857355625Q3.89040209375,6.902855625,3.91776109375,6.943795625Q3.94512109375,6.984745625,3.97994309375,7.019565625Q4.01476509375,7.054385625,4.05571109375,7.081745625Q4.09665709375,7.109105625,4.14215409375,7.127955625Q4.18765109375,7.146795625,4.23595099375,7.156405625Q4.28425039375,7.166015625,4.33349609375,7.166015625Q4.43295229375,7.166015625,4.52483809375,7.127955625Q4.61672309375,7.0898956250000005,4.68704909375,7.019565625L4.68726309375,7.019355625L7.33349609375,4.373122625L9.97994609375,7.019565625Q10.05026609375,7.0898956250000005,10.14215609375,7.127955625Q10.23403609375,7.166015625,10.33349609375,7.166015625Q10.38274609375,7.166015625,10.43104609375,7.156405625Q10.47933609375,7.146795625,10.52483609375,7.127955625Q10.57033609375,7.109105625,10.61127609375,7.081745625Q10.65222609375,7.054385625,10.68704609375,7.019565625Q10.72186609375,6.984745625,10.74922609375,6.943795625Q10.77658609375,6.902855625,10.79543609375,6.857355625Q10.81427609375,6.811855625,10.82388609375,6.763555625Q10.83349609375,6.715265625,10.83349609375,6.666015625Q10.83349609375,6.5665556249999995,10.79543609375,6.474675625Q10.75737609375,6.382785625,10.68704609375,6.312465625L7.68704609375,3.312462625Q7.65222609375,3.277640625,7.6112860937499995,3.250280625Q7.57033609375,3.222921625,7.52483609375,3.2040756249999998Q7.47933609375,3.185230625,7.43104609375,3.175622625Q7.38274609375,3.166015625,7.33349609375,3.166015625Q7.28424609375,3.166015625,7.23595609375,3.175622625Q7.18765609375,3.185230625,7.14215609375,3.2040756249999998Q7.09665609375,3.222921625,7.05571609375,3.250280625Q7.01476609375,3.277640625,6.97994609375,3.312462625L3.98015609375,6.312245625Z" fill-rule="evenodd" fill="#F6FEFD" fill-opacity="1"/></g><g><path d="M6.83056640625,3.666015625Q6.83056640625,3.616769925,6.84017340625,3.568470525Q6.84978140625,3.520170625,6.86862640625,3.474673625Q6.88747240625,3.429176625,6.91483140625,3.388230625Q6.94219140625,3.347284625,6.97701340625,3.312462625Q7.01183540625,3.277640625,7.05278140625,3.250280625Q7.09372740625,3.222921625,7.13922440625,3.2040756249999998Q7.18472140625,3.185230625,7.23302130625,3.175622625Q7.28132070625,3.166015625,7.33056640625,3.166015625Q7.37981210625,3.166015625,7.42811150625,3.175622625Q7.47641140625,3.185230625,7.52190840625,3.2040756249999998Q7.56740540625,3.222921625,7.60835140625,3.250280625Q7.64929740625,3.277640625,7.68411940625,3.312462625Q7.71894140625,3.347284625,7.74630140625,3.388230625Q7.77366040625,3.429176625,7.79250640625,3.474673625Q7.81135140625,3.520170625,7.82095940625,3.568470525Q7.83056640625,3.616769925,7.83056640625,3.666015625L7.83056640625,12.332685625Q7.83056640625,12.381925625,7.82095940625,12.430225625Q7.81135140625,12.478525625,7.79250640625,12.524025625Q7.77366040625,12.569515625,7.74630140625,12.610465625Q7.71894140625,12.651415625,7.68411940625,12.686235625Q7.64929740625,12.721055625,7.60835140625,12.748415625Q7.56740540625,12.775775625,7.52190840625,12.794615625Q7.47641140625,12.813465625,7.42811150625,12.823075625Q7.37981210625,12.832685625,7.33056640625,12.832685625Q7.28132070625,12.832685625,7.23302130625,12.823075625Q7.18472140625,12.813465625,7.13922440625,12.794615625Q7.09372740625,12.775775625,7.05278140625,12.748415625Q7.01183540625,12.721055625,6.97701340625,12.686235625Q6.94219140625,12.651415625,6.91483140625,12.610465625Q6.88747240625,12.569515625,6.86862640625,12.524025625Q6.84978140625,12.478525625,6.84017340625,12.430225625Q6.83056640625,12.381925625,6.83056640625,12.332685625L6.83056640625,3.666015625Z" fill-rule="evenodd" fill="#F6FEFD" fill-opacity="1"/></g><g><path d="M10.353613,12.980490375L13,15.626874375L15.64626,12.980618375L15.64645,12.980431375Q15.71677,12.910104375,15.80866,12.872044375Q15.90054,12.833984375,16,12.833984375Q16.04925,12.833984375,16.09755,12.843591375Q16.14584,12.853199374999999,16.19134,12.872044375Q16.23684,12.890890375,16.27778,12.918249375Q16.318730000000002,12.945609375,16.35355,12.980431375Q16.388370000000002,13.015253375,16.41573,13.056199375Q16.443089999999998,13.097145375,16.46194,13.142642375Q16.48078,13.188139375,16.490389999999998,13.236439275Q16.5,13.284738675,16.5,13.333984375Q16.5,13.433440675,16.46194,13.525326375Q16.42388,13.617212375,16.35355,13.687538375L16.3531,13.687988375L13.35355,16.687534375Q13.28323,16.757864375,13.19134,16.795924375Q13.09946,16.833984375,13,16.833984375Q12.90054,16.833984375,12.80866,16.795924375Q12.71677,16.757864375,12.64645,16.687534375L9.646506,13.687597375L9.646447,13.687537375Q9.57612,13.617211375,9.53806,13.525326375Q9.5,13.433440575,9.5,13.333984375Q9.5,13.284738675,9.509607,13.236439275Q9.519214999999999,13.188139375,9.53806,13.142642375Q9.556906,13.097145375,9.584265,13.056199375Q9.611625,13.015253375,9.646447,12.980431375Q9.681269,12.945609375,9.722215,12.918249375Q9.763161,12.890890375,9.808658,12.872044375Q9.854155,12.853199374999999,9.9024549,12.843591375Q9.9507543,12.833984375,10,12.833984375Q10.0994562,12.833984375,10.191342,12.872044375Q10.283227,12.910104375,10.353553,12.980431375L10.353613,12.980490375Z" fill-rule="evenodd" fill="#F6FEFD" fill-opacity="1"/></g><g><path d="M12.4970703125,7.666015625Q12.4970703125,7.616769925,12.5066773125,7.568470525Q12.516285312499999,7.520170625,12.5351303125,7.474673625Q12.5539763125,7.429176625,12.5813353125,7.388230625Q12.6086953125,7.347284625,12.6435173125,7.312462625Q12.6783393125,7.277640625,12.7192853125,7.250280625Q12.7602313125,7.222921625,12.8057283125,7.204075625Q12.8512253125,7.185230625,12.8995252125,7.175622625Q12.9478246125,7.166015625,12.9970703125,7.166015625Q13.0463160125,7.166015625,13.0946154125,7.175622625Q13.1429153125,7.185230625,13.1884123125,7.204075625Q13.2339093125,7.222921625,13.2748553125,7.250280625Q13.3158013125,7.277640625,13.3506233125,7.312462625Q13.3854453125,7.347284625,13.4128053125,7.388230625Q13.4401643125,7.429176625,13.4590103125,7.474673625Q13.477855312500001,7.520170625,13.4874633125,7.568470525Q13.4970703125,7.616769925,13.4970703125,7.666015625L13.4970703125,16.332685625Q13.4970703125,16.381925625,13.4874633125,16.430225625Q13.477855312500001,16.478525625,13.4590103125,16.524025625Q13.4401643125,16.569515625,13.4128053125,16.610465625Q13.3854453125,16.651415625,13.3506233125,16.686235625000002Q13.3158013125,16.721055624999998,13.2748553125,16.748415625Q13.2339093125,16.775775625,13.1884123125,16.794615625Q13.1429153125,16.813465625,13.0946154125,16.823075625Q13.0463160125,16.832685625,12.9970703125,16.832685625Q12.9478246125,16.832685625,12.8995252125,16.823075625Q12.8512253125,16.813465625,12.8057283125,16.794615625Q12.7602313125,16.775775625,12.7192853125,16.748415625Q12.6783393125,16.721055624999998,12.6435173125,16.686235625000002Q12.6086953125,16.651415625,12.5813353125,16.610465625Q12.5539763125,16.569515625,12.5351303125,16.524025625Q12.516285312499999,16.478525625,12.5066773125,16.430225625Q12.4970703125,16.381925625,12.4970703125,16.332685625L12.4970703125,7.666015625Z" fill-rule="evenodd" fill="#F6FEFD" fill-opacity="1"/></g></g></svg>