<svg xmlns="http://www.w3.org/2000/svg" xmlns:xlink="http://www.w3.org/1999/xlink" fill="none" version="1.1" width="16" height="16" viewBox="0 0 16 16"><defs><clipPath id="master_svg0_273_35726"><rect x="0" y="0" width="16" height="16" rx="0"/></clipPath></defs><g clip-path="url(#master_svg0_273_35726)"><g><path d="M4.80316609375,1.136326494140625L1.80316609375,4.136326494140625Q1.6976770937499999,4.241816494140625,1.64058609375,4.379646494140625Q1.58349609375,4.517476494140626,1.58349609375,4.666656494140625Q1.58349609375,4.815836494140624,1.64058609375,4.953666494140625Q1.6976770937499999,5.091496494140625,1.80316609375,5.196986494140625Q1.90865509375,5.302476494140625,2.04648309375,5.3595664941406245Q2.18431209375,5.416656494140625,2.33349609375,5.416656494140625Q2.48268009375,5.416656494140625,2.62050909375,5.3595664941406245Q2.75833709375,5.302476494140625,2.86382609375,5.196986494140625L5.33349609375,2.727316494140625L7.80316609375,5.196986494140625Q7.90865609375,5.302476494140625,8.04648609375,5.3595664941406245Q8.184316093749999,5.416656494140625,8.33349609375,5.416656494140625Q8.482676093750001,5.416656494140625,8.62050609375,5.3595664941406245Q8.75833609375,5.302476494140625,8.86382609375,5.196986494140625Q8.969316093749999,5.091496494140625,9.026406093750001,4.953666494140625Q9.08349609375,4.815836494140624,9.08349609375,4.666656494140625Q9.08349609375,4.517476494140626,9.026406093750001,4.379646494140625Q8.969316093749999,4.241816494140625,8.86382609375,4.136326494140625L5.86382609375,1.136326494140625Q5.8115960937499995,1.084093494140625,5.7501760937499995,1.043054494140625Q5.6887560937499995,1.002015494140625,5.62050609375,0.973746494140625Q5.55226609375,0.945478494140625,5.479816093749999,0.931067494140625Q5.407366093749999,0.916656494140625,5.33349609375,0.916656494140625Q5.259626093750001,0.916656494140625,5.187176093750001,0.931067494140625Q5.11472609375,0.945478494140625,5.04648609375,0.973746494140625Q4.9782360937500005,1.002015494140625,4.9168160937500005,1.043054494140625Q4.8553960937500005,1.084093494140625,4.80316609375,1.136326494140625Z" fill-rule="evenodd" fill="#333333" fill-opacity="1"/></g><g><path d="M6.08056640625,10.333326494140625L6.08056640625,1.666656494140625Q6.08056640625,1.5927879941406249,6.06615540625,1.520338494140625Q6.05174440625,1.447889494140625,6.02347640625,1.379643494140625Q5.99520740625,1.311398494140625,5.95416840625,1.249978494140625Q5.91312940625,1.188559494140625,5.86089640625,1.136326494140625Q5.80866340625,1.084093494140625,5.74724440625,1.043054494140625Q5.68582440625,1.002015494140625,5.61757940625,0.973746494140625Q5.54933340625,0.945478494140625,5.47688440625,0.931067494140625Q5.40443490625,0.916656494140625,5.33056640625,0.916656494140625Q5.25669790625,0.916656494140625,5.18424840625,0.931067494140625Q5.11179940625,0.945478494140625,5.04355340625,0.973746494140625Q4.97530840625,1.002015494140625,4.91388840625,1.043054494140625Q4.85246940625,1.084093494140625,4.80023640625,1.136326494140625Q4.74800340625,1.188559494140625,4.70696440625,1.249978494140625Q4.66592540625,1.311398494140625,4.63765640625,1.379643494140625Q4.60938840625,1.447889494140625,4.59497740625,1.520338494140625Q4.58056640625,1.5927879941406249,4.58056640625,1.666656494140625L4.58056640625,10.333326494140625Q4.58056640625,10.407186494140625,4.59497740625,10.479636494140625Q4.60938840625,10.552086494140624,4.63765640625,10.620336494140625Q4.66592540625,10.688576494140625,4.70696440625,10.749996494140625Q4.74800340625,10.811416494140625,4.80023640625,10.863656494140624Q4.85246940625,10.915886494140626,4.91388840625,10.956926494140625Q4.97530840625,10.997966494140625,5.04355340625,11.026226494140625Q5.11179940625,11.054496494140626,5.18424840625,11.068916494140625Q5.25669790625,11.083326494140625,5.33056640625,11.083326494140625Q5.40443490625,11.083326494140625,5.47688440625,11.068906494140625Q5.54933340625,11.054496494140626,5.61757940625,11.026226494140625Q5.68582440625,10.997966494140625,5.74724440625,10.956926494140625Q5.80866340625,10.915886494140626,5.86089640625,10.863656494140624Q5.91312940625,10.811416494140625,5.95416840625,10.749996494140625Q5.99520740625,10.688576494140625,6.02347640625,10.620336494140625Q6.05174440625,10.552086494140624,6.06615540625,10.479636494140625Q6.08056640625,10.407186494140625,6.08056640625,10.333326494140625Z" fill-rule="evenodd" fill="#333333" fill-opacity="1"/></g><g><path d="M8.530484,10.803167505859374L8.53033,10.803013505859376Q8.424841,10.697524505859375,8.287013,10.640433505859376Q8.149184,10.583343505859375,8,10.583343505859375Q7.850816,10.583343505859375,7.712987,10.640433505859376Q7.575159,10.697524505859375,7.46967,10.803013505859376Q7.364181,10.908502505859374,7.30709,11.046330505859375Q7.25,11.184159505859375,7.25,11.333343505859375Q7.25,11.482527505859375,7.30709,11.620356505859375Q7.364181,11.758184505859376,7.46967,11.863673505859374L7.469824,11.863827505859375L10.46967,14.863673505859374Q10.5219,14.915903505859376,10.58332,14.956943505859375Q10.64474,14.997983505859375,10.71299,15.026253505859374Q10.78123,15.054523505859375,10.85368,15.068933505859375Q10.92613,15.083343505859375,11,15.083343505859375Q11.07387,15.083343505859375,11.14632,15.068933505859375Q11.21877,15.054523505859375,11.28701,15.026253505859374Q11.35526,14.997983505859375,11.41668,14.956943505859375Q11.4781,14.915903505859376,11.53033,14.863673505859374L14.53033,11.863673505859374L14.53076,11.863244505859376Q14.533760000000001,11.860238505859375,14.53673,11.857199505859375L14.53715,11.856764505859376Q14.63951,11.751724505859375,14.694749999999999,11.615865505859375Q14.75,11.480006505859375,14.75,11.333343505859375Q14.75,11.184159505859375,14.692910000000001,11.046330505859375Q14.635819999999999,10.908502505859374,14.53033,10.803013505859376Q14.42484,10.697524505859375,14.28701,10.640433505859376Q14.149180000000001,10.583343505859375,14,10.583343505859375Q13.850819999999999,10.583343505859375,13.71299,10.640433505859376Q13.57516,10.697524505859375,13.46967,10.803013505859376L11,13.272683505859375L8.530484,10.803167505859374Z" fill-rule="evenodd" fill="#333333" fill-opacity="1"/></g><g><path d="M10.2470703125,5.666656494140625L10.2470703125,14.333326494140625Q10.2470703125,14.407186494140625,10.261481312499999,14.479636494140625Q10.2758923125,14.552086494140624,10.3041603125,14.620336494140625Q10.3324293125,14.688576494140625,10.3734683125,14.749996494140625Q10.4145073125,14.811416494140625,10.4667403125,14.863656494140624Q10.5189733125,14.915886494140626,10.5803923125,14.956926494140625Q10.6418123125,14.997966494140625,10.7100573125,15.026226494140625Q10.7783033125,15.054496494140626,10.8507523125,15.068916494140625Q10.9232018125,15.083326494140625,10.9970703125,15.083326494140625Q11.0709388125,15.083326494140625,11.1433883125,15.068906494140625Q11.2158373125,15.054496494140626,11.2840833125,15.026226494140625Q11.3523283125,14.997966494140625,11.4137483125,14.956926494140625Q11.4751673125,14.915886494140626,11.5274003125,14.863656494140624Q11.5796333125,14.811416494140625,11.6206723125,14.749996494140625Q11.6617113125,14.688576494140625,11.6899803125,14.620336494140625Q11.7182483125,14.552086494140624,11.732659312500001,14.479636494140625Q11.7470703125,14.407186494140625,11.7470703125,14.333326494140625L11.7470703125,5.666656494140625Q11.7470703125,5.592787994140625,11.732659312500001,5.520338494140625Q11.7182483125,5.447889494140625,11.6899803125,5.379643494140625Q11.6617113125,5.311398494140625,11.6206723125,5.249978494140625Q11.5796333125,5.188559494140625,11.5274003125,5.136326494140625Q11.4751673125,5.084093494140625,11.4137483125,5.043054494140625Q11.3523283125,5.002015494140625,11.2840833125,4.973746494140625Q11.2158373125,4.945478494140625,11.1433883125,4.931067494140625Q11.0709388125,4.916656494140625,10.9970703125,4.916656494140625Q10.9232018125,4.916656494140625,10.8507523125,4.931067494140625Q10.7783033125,4.945478494140625,10.7100573125,4.973746494140625Q10.6418123125,5.002015494140625,10.5803923125,5.043054494140625Q10.5189733125,5.084093494140625,10.4667403125,5.136326494140625Q10.4145073125,5.188559494140625,10.3734683125,5.249978494140625Q10.3324293125,5.311398494140625,10.3041603125,5.379643494140625Q10.2758923125,5.447889494140625,10.261481312499999,5.520338494140625Q10.2470703125,5.592787994140625,10.2470703125,5.666656494140625Z" fill-rule="evenodd" fill="#333333" fill-opacity="1"/></g></g></svg>