<svg xmlns="http://www.w3.org/2000/svg" xmlns:xlink="http://www.w3.org/1999/xlink" fill="none" version="1.1" width="20" height="20" viewBox="0 0 20 20"><defs><clipPath id="master_svg0_273_07244"><rect x="0" y="0" width="20" height="20" rx="0"/></clipPath></defs><g clip-path="url(#master_svg0_273_07244)"><g><path d="M12.50569896484375,7.14316L10.45169896484375,2.786768Q10.40928896484375,2.696809,10.335678964843751,2.62993Q10.26205896484375,2.56305,10.168458964843751,2.529432Q10.074858964843749,2.495813,9.97551896484375,2.500573Q9.87617896484375,2.505333,9.78621896484375,2.547748Q9.62250896484375,2.624933,9.546138964843749,2.789021L7.51962896484375,7.14316L2.92449366484375,7.84455Q2.82617596484375,7.85956,2.74108596484375,7.91105Q2.65599496484375,7.96254,2.59708596484375,8.042670000000001Q2.53817596484375,8.1228,2.51441696484375,8.219380000000001Q2.49065696484375,8.31595,2.50566396484375,8.41427Q2.52981396484375,8.57249,2.64135296484375,8.68727L5.98571896484375,12.12895L5.1858089648437495,16.9176Q5.17769896484375,16.9662,5.17921896484375,17.0154Q5.18073896484375,17.0646,5.19182896484375,17.1126Q5.20291896484375,17.160600000000002,5.2231589648437495,17.2055Q5.24339896484375,17.2504,5.272008964843749,17.2905Q5.30061896484375,17.3306,5.33648896484375,17.3643Q5.37236896484375,17.398,5.41413896484375,17.4241Q5.455908964843751,17.450200000000002,5.5019689648437495,17.467599999999997Q5.54802896484375,17.4851,5.59659896484375,17.4932Q5.77018896484375,17.522199999999998,5.92366896484375,17.436L9.99947896484375,15.1488L14.07613896484375,17.4361Q14.11913896484375,17.4602,14.16593896484375,17.4754Q14.21273896484375,17.4907,14.26163896484375,17.496499999999997Q14.31053896484375,17.502299999999998,14.35963896484375,17.4985Q14.40873896484375,17.4947,14.45613896484375,17.481299999999997Q14.50353896484375,17.468,14.54743896484375,17.445700000000002Q14.59133896484375,17.4234,14.63003896484375,17.392899999999997Q14.66873896484375,17.3624,14.70073896484375,17.325Q14.73283896484375,17.287599999999998,14.75683896484375,17.2446Q14.84283896484375,17.0915,14.81413896484375,16.9182L14.01993896484375,12.12895L17.35883896484375,8.68696Q17.39313896484375,8.65161,17.41983896484375,8.61026Q17.44653896484375,8.5689,17.46473896484375,8.523119999999999Q17.48283896484375,8.47734,17.491738964843748,8.428899999999999Q17.500638964843752,8.38046,17.49983896484375,8.33122Q17.499138964843752,8.28198,17.48883896484375,8.233830000000001Q17.47843896484375,8.185690000000001,17.45893896484375,8.14048Q17.43933896484375,8.095279999999999,17.41143896484375,8.05475Q17.383438964843748,8.014230000000001,17.348038964843752,7.97994Q17.23353896484375,7.86882,17.07583896484375,7.84461L12.50569896484375,7.14316ZM10.00237896484375,4.17865L11.71463896484375,7.81024Q11.76783896484375,7.92307,11.86778896484375,7.99768Q11.96774896484375,8.0723,12.09103896484375,8.09122L15.96653896484375,8.686060000000001L13.12653896484375,11.61374Q13.04373896484375,11.69915,13.00823896484375,11.81272Q12.97271896484375,11.92629,12.99217896484375,12.04367L13.65723896484375,16.0544L10.24409896484375,14.1394Q10.18804896484375,14.108,10.12586896484375,14.0917Q10.063688964843749,14.0755,9.99942896484375,14.0755Q9.935158964843751,14.0755,9.87297896484375,14.0918Q9.810808964843751,14.108,9.754758964843749,14.1395L6.34401896484375,16.0535L7.01371896484375,12.04426Q7.03336896484375,11.92663,6.99780896484375,11.81279Q6.96224896484375,11.69896,6.87913896484375,11.61343L4.03507896484375,8.68662L7.93533896484375,8.09129Q7.99642896484375,8.081959999999999,8.05340896484375,8.05805Q8.11038896484375,8.034130000000001,8.15982896484375,7.99706Q8.20926896484375,7.95999,8.24819896484375,7.912Q8.287128964843749,7.86402,8.31320896484375,7.80799L10.00237896484375,4.17865Z" fill-rule="evenodd" fill="#99A0AF" fill-opacity="1"/></g></g></svg>