<svg xmlns="http://www.w3.org/2000/svg" xmlns:xlink="http://www.w3.org/1999/xlink" fill="none" version="1.1" width="24" height="24" viewBox="0 0 24 24"><defs><clipPath id="master_svg0_347_14953/347_14930/347_10410"><rect x="0" y="0" width="24" height="24" rx="0"/></clipPath></defs><g clip-path="url(#master_svg0_347_14953/347_14930/347_10410)"><g><path d="M2.75,16.75L2.75,2.75Q2.75,2.6761315,2.764411,2.603682Q2.778822,2.531233,2.80709,2.462987Q2.835359,2.394742,2.876398,2.333322Q2.917437,2.271903,2.96967,2.21967Q3.021903,2.167437,3.083322,2.126398Q3.144742,2.085359,3.212987,2.05709Q3.281233,2.028822,3.353682,2.014411Q3.4261315,2,3.5,2L20.5,2Q20.5739,2,20.6463,2.014411Q20.7188,2.028822,20.787,2.05709Q20.8553,2.085359,20.9167,2.126398Q20.9781,2.167437,21.0303,2.21967Q21.0826,2.271903,21.1236,2.333322Q21.1646,2.394742,21.1929,2.462987Q21.2212,2.531233,21.2356,2.603682Q21.25,2.6761315,21.25,2.75L21.25,16.75Q21.25,16.823900000000002,21.2356,16.8963Q21.2212,16.9688,21.1929,17.037Q21.1646,17.1053,21.1236,17.1667Q21.0826,17.228099999999998,21.0303,17.2803Q20.9781,17.3326,20.9167,17.3736Q20.8553,17.4146,20.787,17.4429Q20.7188,17.4712,20.6463,17.485599999999998Q20.5739,17.5,20.5,17.5L3.5,17.5Q3.4261315,17.5,3.353682,17.485599999999998Q3.281233,17.4712,3.212987,17.4429Q3.144742,17.4146,3.083322,17.3736Q3.021903,17.3326,2.96967,17.2803Q2.917437,17.228099999999998,2.876398,17.1667Q2.835359,17.1053,2.80709,17.037Q2.778822,16.9688,2.764411,16.8963Q2.75,16.823900000000002,2.75,16.75ZM19.75,3.5L4.25,3.5L4.25,16L19.75,16L19.75,3.5Z" fill-rule="evenodd" fill="#333333" fill-opacity="1"/></g><g><path d="M12,17.81066L15.46967,21.28033Q15.57516,21.38582,15.71299,21.44291Q15.85081,21.5,16,21.5Q16.01802,21.5,16.03603,21.49913Q16.1757,21.49242,16.30358,21.43581Q16.431449999999998,21.37921,16.53033,21.28033Q16.635820000000002,21.17484,16.692909999999998,21.037010000000002Q16.75,20.89918,16.75,20.75Q16.75,20.60081,16.692909999999998,20.46299Q16.635820000000002,20.32516,16.53033,20.21967L16.52994,20.21928L12.53033,16.21967Q12.478100000000001,16.167437,12.41668,16.126398000000002Q12.355260000000001,16.085359,12.28701,16.05709Q12.21877,16.028822,12.14632,16.014411Q12.07387,16,12,16Q11.92613,16,11.85368,16.014411Q11.78123,16.028822,11.71299,16.05709Q11.64474,16.085359,11.58332,16.126398000000002Q11.5219,16.167437,11.46967,16.21967L7.46967,20.21967Q7.364181,20.32516,7.30709,20.46299Q7.25,20.60081,7.25,20.75Q7.25,20.89918,7.30709,21.037010000000002Q7.364181,21.17484,7.46967,21.28033Q7.575159,21.38582,7.712987,21.44291Q7.850816,21.5,8,21.5Q8.149184,21.5,8.287013,21.44291Q8.424841,21.38582,8.53033,21.28033L12,17.81066Z" fill-rule="evenodd" fill="#333333" fill-opacity="1"/></g><g><path d="M17.5143140625,7.2901599765625Q17.515714062500003,7.2887159765625,17.517214062500003,7.2872629765625Q17.6211140625,7.1819899765625,17.6772140625,7.0451449765625Q17.7334140625,6.9082989765625,17.7334140625,6.760375976562499Q17.7334140625,6.6109919765625,17.6762140625,6.4730089765625Q17.6189140625,6.3350249765625,17.513214062499998,6.2295029765625Q17.510014062499998,6.2263439765625,17.5068140625,6.2232259765624995Q17.4018140625,6.1208709765625,17.265914062500002,6.0656229765625Q17.1301140625,6.0103759765625,16.9834140625,6.0103759765625L16.982614062499998,6.0103759765625Q16.9492640625,6.0104109765625005,16.9160240625,6.0134099765624995Q16.7846340625,6.0252629765625,16.6651840625,6.0812389765625Q16.5457240625,6.1372139765625,16.4525340625,6.2305919765625L11.9977440625,10.6945559765625L10.3076040625,9.0413259765625Q10.2555840625,8.9904359765625,10.1947440625,8.9504959765625Q10.133904062500001,8.9105659765625,10.066524062500001,8.8830659765625Q9.999144062500001,8.8555759765625,9.9277340625,8.8415459765625Q9.8563240625,8.8275159765625,9.7835540625,8.8274759765625Q9.7107840625,8.8274359765625,9.6393540625,8.8413959765625Q9.567934062500001,8.8553459765625,9.5005240625,8.882775976562499Q9.4331140625,8.9101959765625,9.3722340625,8.9500759765625Q9.3113540625,8.989945976562499,9.2592740625,9.0407759765625L6.4380290625,11.7946759765625Q6.3295870625,11.9005259765625,6.2707510625000005,12.040185976562501Q6.2119140625,12.1798359765625,6.2119140625,12.3313759765625Q6.2119140625,12.3462559765625,6.2125040625,12.361135976562501Q6.2180240625,12.5001459765625,6.2730320625000004,12.6279259765625Q6.3280390625,12.7557059765625,6.4252160625,12.8552559765625Q6.5310690625,12.963705976562501,6.6707220625,13.0225359765625Q6.8103740625,13.0813759765625,6.9619140625,13.0813759765625Q6.9767972625,13.0813759765625,6.9916701625,13.080785976562499Q7.1306800625,13.0752659765625,7.2584630625,13.020255976562499Q7.3862460625,12.9652459765625,7.4857990625,12.868075976562501L9.7826140625,10.6260859765625L11.479674062499999,12.2860759765625Q11.532134062499999,12.337395976562501,11.5935640625,12.3775759765625Q11.654984062499999,12.4177559765625,11.7230240625,12.4452559765625Q11.7910740625,12.4727659765625,11.8631540625,12.486565976562499Q11.9352440625,12.5003559765625,12.0086340625,12.4999159765625Q12.0820340625,12.499465976562501,12.153944062499999,12.4848059765625Q12.225864062500001,12.470145976562499,12.2935740625,12.4418159765625Q12.361284062500001,12.413495976562501,12.4222140625,12.3725759765625Q12.4831440625,12.331665976562501,12.534984062500001,12.2797059765625L17.5143140625,7.2901599765625Z" fill-rule="evenodd" fill="#333333" fill-opacity="1"/></g><g><path d="M2,3.5L22,3.5Q22.0739,3.5,22.1463,3.485589Q22.2188,3.471178,22.287,3.44291Q22.3553,3.414641,22.4167,3.373602Q22.4781,3.332563,22.5303,3.28033Q22.5826,3.228097,22.6236,3.166678Q22.6646,3.105258,22.6929,3.037013Q22.7212,2.968767,22.7356,2.896318Q22.75,2.8238685,22.75,2.75Q22.75,2.6761315,22.7356,2.603682Q22.7212,2.531233,22.6929,2.462987Q22.6646,2.394742,22.6236,2.333322Q22.5826,2.271903,22.5303,2.21967Q22.4781,2.167437,22.4167,2.126398Q22.3553,2.085359,22.287,2.05709Q22.2188,2.028822,22.1463,2.014411Q22.0739,2,22,2L2,2Q1.9261314999999999,2,1.853682,2.014411Q1.781233,2.028822,1.712987,2.05709Q1.644742,2.085359,1.583322,2.126398Q1.521903,2.167437,1.46967,2.21967Q1.417437,2.271903,1.376398,2.333322Q1.335359,2.394742,1.30709,2.462987Q1.278822,2.531233,1.264411,2.603682Q1.25,2.6761315,1.25,2.75Q1.25,2.8238685,1.264411,2.896318Q1.278822,2.968767,1.30709,3.037013Q1.335359,3.105258,1.376398,3.166678Q1.417437,3.228097,1.46967,3.28033Q1.521903,3.332563,1.583322,3.373602Q1.644742,3.414641,1.712987,3.44291Q1.781233,3.471178,1.853682,3.485589Q1.9261314999999999,3.5,2,3.5Z" fill-rule="evenodd" fill="#333333" fill-opacity="1"/></g></g></svg>