<svg xmlns="http://www.w3.org/2000/svg" xmlns:xlink="http://www.w3.org/1999/xlink" fill="none" version="1.1" width="24" height="24" viewBox="0 0 24 24"><defs><clipPath id="master_svg0_4164_76839"><rect x="0" y="0" width="24" height="24" rx="0"/></clipPath></defs><g clip-path="url(#master_svg0_4164_76839)"><g><path d="M1.50048828125,12Q1.50048828125,16.3492,4.57586828125,19.4246Q7.65129828125,22.5,12.00048828125,22.5Q16.34968828125,22.5,19.42508828125,19.4246Q22.50048828125,16.3492,22.50048828125,12Q22.50048828125,7.65081,19.42508828125,4.57538Q16.34968828125,1.5,12.00048828125,1.5Q7.65129828125,1.5,4.57586828125,4.5753699999999995Q1.50048928125,7.65081,1.50048828125,12ZM12.00048828125,21.5Q8.06550828125,21.5,5.28296828125,18.7175Q2.50048828125,15.935,2.50048828125,12Q2.50048828125,8.065010000000001,5.28296828125,5.28249Q8.065498281250001,2.5,12.00048828125,2.5Q15.93548828125,2.5,18.71798828125,5.28248Q21.50048828125,8.06502,21.50048828125,12Q21.50048828125,15.935,18.71798828125,18.7175Q15.93548828125,21.5,12.00048828125,21.5Z" fill-rule="evenodd" fill="#50D2C1" fill-opacity="1"/></g><g><path d="M17.35403828125,9.353554Q17.42436828125,9.283228,17.46242828125,9.191342Q17.50048828125,9.0994563,17.50048828125,9Q17.50048828125,8.9507543,17.490878281249998,8.9024549Q17.48126828125,8.854155,17.46242828125,8.808658Q17.443578281249998,8.763161,17.41621828125,8.722215Q17.388858281250002,8.681269,17.35403828125,8.646447Q17.319218281250002,8.611625,17.27826828125,8.584265Q17.23732828125,8.556906,17.19182828125,8.53806Q17.14632828125,8.519214999999999,17.098028281250002,8.509607Q17.049728281249998,8.5,17.00048828125,8.5Q16.90102828125,8.5,16.80914828125,8.53806Q16.71725828125,8.57612,16.64693828125,8.646446L16.64648828125,8.646898L11.00048828125,14.29289L8.35422928125,11.64663L8.35404128125,11.64645Q8.28371528125,11.57612,8.19183028125,11.53806Q8.09994448125,11.5,8.00048828125,11.5Q7.95124258125,11.5,7.90294318125,11.50961Q7.85464328125,11.519210000000001,7.80914628125,11.53806Q7.76364928125,11.55691,7.72270328125,11.58426Q7.68175728125,11.61162,7.64693528125,11.64645Q7.61211328125,11.68127,7.58475328125,11.72221Q7.55739428125,11.76316,7.53854828125,11.80866Q7.51970328125,11.85415,7.51009528125,11.90245Q7.50048828125,11.95075,7.50048828125,12Q7.50048828125,12.09946,7.53854828125,12.19134Q7.57660828125,12.28323,7.64693528125,12.35355L7.64712228125,12.35374L10.64693828125,15.35355Q10.71725828125,15.42388,10.80914828125,15.46194Q10.90102828125,15.5,11.00048828125,15.5Q11.09994828125,15.5,11.19182828125,15.46194Q11.28371828125,15.42388,11.35403828125,15.35355L17.35403828125,9.353553L17.35403828125,9.353554Z" fill-rule="evenodd" fill="#50D2C1" fill-opacity="1"/></g></g></svg>