<svg xmlns="http://www.w3.org/2000/svg" xmlns:xlink="http://www.w3.org/1999/xlink" fill="none" version="1.1" width="32.66668701171875" height="32.6666259765625" viewBox="0 0 32.66668701171875 32.6666259765625"><g><g><rect x="0" y="0" width="32.666664123535156" height="32.666664123535156" rx="0" fill="#303030" fill-opacity="0"/></g><g><g><path d="M30.36185625,5.2111669375Q29.48405625,4.3608459375,28.13975625,4.8649449375L28.13345625,4.8673319375L3.72576625,14.2705159375Q2.07187625,14.9174259375,1.97759025,15.9927359375Q1.87285825,17.187135937500003,3.49246025,17.6928359375L10.062216249999999,19.7491359375L21.05535625,12.827185937500001L12.79055625,20.2953359375L12.25824625,27.8412359375L13.06305625,27.8412359375Q13.70235625,27.8412359375,14.19285625,27.5562359375Q14.47155625,27.3943359375,14.85405625,27.0115359375L17.45035625,24.5145359375L23.30395625,28.8279359375L23.34455625,28.8507359375Q24.55415625,29.5291359375,25.48595625,29.1037359375Q26.41825625,28.6781359375,26.73565625,27.2775359375L30.88675625,7.7011859375Q31.23735625,6.0591489375,30.36185625,5.2111669375ZM24.04095625,9.174655937499999Q24.85295625,8.6370559375,25.54305625,8.8830659375Q26.20115625,9.1176959375,26.17715625,9.7880959375Q26.16095625,10.2403959375,25.74335625,10.6126959375L14.24435625,21.003335937499997L13.90275625,25.8453359375L17.32205625,22.5567359375L24.11705625,27.5639359375Q24.63245625,27.8445359375,24.86305625,27.7392359375Q25.11955625,27.6221359375,25.26825625,26.9663359375L29.41985625,7.3879659375Q29.59695625,6.5584959375,29.31825625,6.2886019375Q29.12275625,6.0991739375,28.66935625,6.2683599375L4.27217625,15.6674359375Q3.78916625,15.8563359375,3.55798925,16.0602359375Q3.54516725,16.071535937500002,3.53386725,16.082235937500002Q3.67339825,16.1779359375,3.94051625,16.2613359375L9.84916625,18.1106359375L24.04095625,9.174655937499999Z" fill-rule="evenodd" fill="#99A0AF" fill-opacity="1"/></g></g></g></svg>