<svg xmlns="http://www.w3.org/2000/svg" xmlns:xlink="http://www.w3.org/1999/xlink" fill="none" version="1.1" width="36" height="36" viewBox="0 0 36 36"><defs><clipPath id="master_svg0_4136_57898"><rect x="0" y="0" width="36" height="36" rx="0"/></clipPath></defs><g clip-path="url(#master_svg0_4136_57898)"><g><rect x="0" y="0" width="36" height="36" rx="0" fill="#111A1E" fill-opacity="1"/></g><g><path d="M27.943,11.54763L24.9249,25.9738C24.6972,26.992,24.1034,27.2454,23.2596,26.7657L18.660899999999998,23.3311L16.44199,25.4941C16.19643,25.743000000000002,15.991050000000001,25.9512,15.517800000000001,25.9512L15.848189999999999,21.2043L24.3713,13.39841C24.7418,13.06355,24.2909,12.87802,23.795299999999997,13.21288L13.25867,19.937260000000002L8.72255,18.498260000000002C7.735855,18.18602,7.717996,17.4982,8.927925,17.01853L26.6706,10.09053C27.4921,9.778295,28.2109,10.276061,27.943,11.54763Z" fill="#F6FEFD" fill-opacity="1"/></g></g></svg>