<svg xmlns="http://www.w3.org/2000/svg" xmlns:xlink="http://www.w3.org/1999/xlink" fill="none" version="1.1" width="26" height="15.5333251953125" viewBox="0 0 26 15.5333251953125"><g><g><path d="M22,4Q22,4.19651,21.98074,4.39207Q21.96148,4.58763,21.92314,4.78036Q21.8848,4.97309,21.827759999999998,5.16114Q21.77072,5.34918,21.695520000000002,5.53073Q21.62032,5.71228,21.52768,5.88559Q21.43505,6.05889,21.325879999999998,6.22228Q21.2167,6.38567,21.09204,6.53757Q20.96738,6.68948,20.82843,6.82843Q20.68948,6.96738,20.53757,7.09204Q20.38567,7.2167,20.222279999999998,7.32588Q20.058889999999998,7.43505,19.88559,7.52768Q19.71228,7.62032,19.53073,7.69552Q19.34918,7.77072,19.16114,7.82776Q18.97309,7.8848,18.78036,7.92314Q18.58763,7.96148,18.39207,7.98074Q18.19651,8,18,8Q17.80349,8,17.60793,7.98074Q17.41237,7.96148,17.21964,7.92314Q17.02691,7.8848,16.83886,7.82776Q16.65082,7.77072,16.46927,7.69552Q16.28772,7.62032,16.11441,7.52768Q15.94111,7.43505,15.77772,7.32588Q15.61433,7.2167,15.46243,7.09204Q15.31052,6.96738,15.17157,6.82843Q15.03262,6.68948,14.907958,6.53757Q14.783295,6.38567,14.674121,6.22228Q14.564948,6.05889,14.472315,5.88559Q14.379682,5.71228,14.304482,5.53073Q14.229282,5.34918,14.172239,5.16114Q14.115196,4.97309,14.0768589,4.78036Q14.0385222,4.58763,14.0192611,4.39207Q14,4.19651,14,4Q14,3.80349,14.0192611,3.60793Q14.0385222,3.41237,14.0768589,3.21964Q14.115196,3.02691,14.172239,2.83886Q14.229282,2.65082,14.304482,2.46927Q14.379682,2.28772,14.472315,2.11441Q14.564948,1.94111,14.674121,1.77772Q14.783295,1.61433,14.907958,1.46243Q15.03262,1.31052,15.17157,1.17157Q15.31052,1.03262,15.46243,0.907958Q15.61433,0.783295,15.77772,0.674121Q15.94111,0.564948,16.11441,0.472315Q16.28772,0.379682,16.46927,0.304482Q16.65082,0.229282,16.83886,0.172239Q17.02691,0.115196,17.21964,0.0768589Q17.41237,0.0385222,17.60793,0.0192611Q17.80349,0,18,0Q18.19651,0,18.39207,0.0192611Q18.58763,0.0385222,18.78036,0.0768589Q18.97309,0.115196,19.16114,0.172239Q19.34918,0.229282,19.53073,0.304482Q19.71228,0.379682,19.88559,0.472315Q20.058889999999998,0.564948,20.222279999999998,0.674121Q20.38567,0.783295,20.53757,0.907958Q20.68948,1.03262,20.82843,1.17157Q20.96738,1.31052,21.09204,1.46243Q21.2167,1.61433,21.325879999999998,1.77772Q21.43505,1.94111,21.52768,2.11441Q21.62032,2.28772,21.695520000000002,2.46927Q21.77072,2.65082,21.827759999999998,2.83886Q21.8848,3.02691,21.92314,3.21964Q21.96148,3.41237,21.98074,3.60793Q22,3.80349,22,4Z" fill="#E6E7EB" fill-opacity="1"/></g><g><path d="M11,14.999986494140625L11,15.499986494140625L26,15.499986494140625L26,14.999986494140625C26,13.133156494140625,26,12.199736494140625,25.636699999999998,11.486696494140626C25.3171,10.859486494140626,24.8072,10.349531494140624,24.18,10.029948494140625C23.466900000000003,9.666656494140625,22.5335,9.666656494140625,20.66667,9.666656494140625L16.33333,9.666656494140625C14.4665,9.666656494140625,13.53308,9.666656494140625,12.82004,10.029948494140625C12.19283,10.349531494140624,11.682887000000001,10.859486494140626,11.363312,11.486696494140626C11,12.199736494140625,11,13.133156494140625,11,14.999986494140625Z" fill="#E6E7EB" fill-opacity="1"/></g><g><path d="M14.46447,7.53553Q13,6.07107,13,4Q13,1.954,14.42923,0.5Q14.44674,0.48219,14.46447,0.464466Q14.48735,0.441585,14.51038,0.419059Q14.554680000000001,0.375735,14.59952,0.333731C14.09499,0.113614,13.550460000000001,0,13,0C10.79086,0,9,1.79086,9,4C9,6.20914,10.79086,8,13,8C13.550460000000001,8,14.09499,7.88639,14.59952,7.66627Q14.53136,7.60243,14.46447,7.53553Z" fill-rule="evenodd" fill="#E6E7EB" fill-opacity="1"/></g><g><path d="M9.2877121875,7.53553Q7.8232421875,6.07107,7.8232421875,4Q7.8232421875,1.954,9.2524721875,0.5Q9.2699821875,0.48219,9.2877121875,0.464466Q9.3105921875,0.441585,9.3336221875,0.419059Q9.377922187500001,0.375735,9.4227621875,0.333731C8.9182321875,0.113614,8.373702187500001,0,7.8232421875,0C5.6141021875,0,3.8232421875,1.79086,3.8232421875,4C3.8232421875,6.20914,5.6141021875,8,7.8232421875,8C8.373702187500001,8,8.9182321875,7.88639,9.4227621875,7.66627Q9.3546021875,7.60243,9.2877121875,7.53553Z" fill-rule="evenodd" fill="#E6E7EB" fill-opacity="1"/></g><g><path d="M10,15.499986494140625L10,14.999986494140625Q10,13.325726494140625,10.048739999999999,12.729236494140626Q10.13293,11.698776494140624,10.4723,11.032716494140626Q10.88597,10.220836494140626,11.55733,9.666656494140625L10.83333,9.666656494140625C8.9665,9.666656494140625,8.03308,9.666656494140625,7.3200400000000005,10.029948494140625C6.69283,10.349531494140624,6.182887,10.859486494140626,5.863312,11.486696494140626C5.5,12.199736494140625,5.5,13.133156494140625,5.5,14.999986494140625L5.5,15.499986494140625L10,15.499986494140625Z" fill-rule="evenodd" fill="#E6E7EB" fill-opacity="1"/></g><g><path d="M4.5,15.53334220703125L4.5,15.03334220703125Q4.5,13.35908220703125,4.54874,12.76259220703125Q4.63293,11.732132207031249,4.9723,11.066072207031251Q5.38597,10.25419220703125,6.05733,9.70001220703125L5.33333,9.70001220703125C3.4665,9.70001220703125,2.53308,9.70001220703125,1.82004,10.06330420703125C1.19283,10.38288720703125,0.682887,10.89284220703125,0.363312,11.52005220703125C0,12.23309220703125,0,13.16651220703125,0,15.03334220703125L0,15.53334220703125L4.5,15.53334220703125Z" fill-rule="evenodd" fill="#E6E7EB" fill-opacity="1"/></g></g></svg>