<svg xmlns="http://www.w3.org/2000/svg" xmlns:xlink="http://www.w3.org/1999/xlink" fill="none" version="1.1" width="32" height="20" viewBox="0 0 32 20"><g><g></g><g><g><path d="M25,6Q25,6.19651,24.98074,6.39207Q24.96148,6.58763,24.92314,6.78036Q24.8848,6.97309,24.827759999999998,7.16114Q24.77072,7.34918,24.695520000000002,7.53073Q24.62032,7.71228,24.52768,7.88559Q24.43505,8.05889,24.325879999999998,8.22228Q24.2167,8.385670000000001,24.09204,8.537569999999999Q23.96738,8.68948,23.82843,8.82843Q23.68948,8.96738,23.53757,9.09204Q23.38567,9.2167,23.222279999999998,9.32588Q23.058889999999998,9.43505,22.88559,9.52768Q22.71228,9.62032,22.53073,9.69552Q22.34918,9.77072,22.16114,9.82776Q21.97309,9.8848,21.78036,9.92314Q21.58763,9.96148,21.39207,9.98074Q21.19651,10,21,10Q20.80349,10,20.60793,9.98074Q20.41237,9.96148,20.21964,9.92314Q20.02691,9.8848,19.83886,9.82776Q19.65082,9.77072,19.46927,9.69552Q19.28772,9.62032,19.11441,9.52768Q18.94111,9.43505,18.77772,9.32588Q18.61433,9.2167,18.46243,9.09204Q18.31052,8.96738,18.17157,8.82843Q18.03262,8.68948,17.907958,8.537569999999999Q17.783295,8.385670000000001,17.674121,8.22228Q17.564948,8.05889,17.472315,7.88559Q17.379682,7.71228,17.304482,7.53073Q17.229282,7.34918,17.172239,7.16114Q17.115196,6.97309,17.0768589,6.78036Q17.0385222,6.58763,17.0192611,6.39207Q17,6.19651,17,6Q17,5.80349,17.0192611,5.60793Q17.0385222,5.41237,17.0768589,5.21964Q17.115196,5.02691,17.172239,4.83886Q17.229282,4.6508199999999995,17.304482,4.46927Q17.379682,4.28772,17.472315,4.1144099999999995Q17.564948,3.94111,17.674121,3.77772Q17.783295,3.61433,17.907958,3.46243Q18.03262,3.31052,18.17157,3.17157Q18.31052,3.03262,18.46243,2.907958Q18.61433,2.783295,18.77772,2.674121Q18.94111,2.5649480000000002,19.11441,2.472315Q19.28772,2.379682,19.46927,2.304482Q19.65082,2.229282,19.83886,2.172239Q20.02691,2.115196,20.21964,2.0768589Q20.41237,2.0385222,20.60793,2.0192611Q20.80349,2,21,2Q21.19651,2,21.39207,2.0192611Q21.58763,2.0385222,21.78036,2.0768589Q21.97309,2.115196,22.16114,2.172239Q22.34918,2.229282,22.53073,2.304482Q22.71228,2.379682,22.88559,2.472315Q23.058889999999998,2.5649480000000002,23.222279999999998,2.674121Q23.38567,2.783295,23.53757,2.907958Q23.68948,3.03262,23.82843,3.17157Q23.96738,3.31052,24.09204,3.46243Q24.2167,3.61433,24.325879999999998,3.77772Q24.43505,3.94111,24.52768,4.1144099999999995Q24.62032,4.28772,24.695520000000002,4.46927Q24.77072,4.6508199999999995,24.827759999999998,4.83886Q24.8848,5.02691,24.92314,5.21964Q24.96148,5.41237,24.98074,5.60793Q25,5.80349,25,6Z" fill="#C0C4CC" fill-opacity="1"/></g><g><path d="M14,16.999986494140625L14,17.499986494140625L29,17.499986494140625L29,16.999986494140625C29,15.133156494140625,29,14.199736494140625,28.636699999999998,13.486696494140626C28.3171,12.859486494140626,27.8072,12.349531494140624,27.18,12.029948494140625C26.466900000000003,11.666656494140625,25.5335,11.666656494140625,23.66667,11.666656494140625L19.33333,11.666656494140625C17.4665,11.666656494140625,16.533079999999998,11.666656494140625,15.82004,12.029948494140625C15.19283,12.349531494140624,14.682887000000001,12.859486494140626,14.363312,13.486696494140626C14,14.199736494140625,14,15.133156494140625,14,16.999986494140625Z" fill="#C0C4CC" fill-opacity="1"/></g><g><path d="M17.46447,9.53553Q16,8.071069999999999,16,6Q16,3.9539999999999997,17.42923,2.5Q17.44674,2.48219,17.46447,2.464466Q17.48735,2.441585,17.510379999999998,2.419059Q17.55468,2.375735,17.59952,2.333731C17.09499,2.113614,16.55046,2,16,2C13.79086,2,12,3.79086,12,6C12,8.20914,13.79086,10,16,10C16.55046,10,17.09499,9.886389999999999,17.59952,9.66627Q17.53136,9.60243,17.46447,9.53553Z" fill-rule="evenodd" fill="#E6E7EB" fill-opacity="1"/></g><g><path d="M12.2877121875,9.53553Q10.8232421875,8.071069999999999,10.8232421875,6Q10.8232421875,3.9539999999999997,12.2524721875,2.5Q12.2699821875,2.48219,12.2877121875,2.464466Q12.3105921875,2.441585,12.3336221875,2.419059Q12.377922187500001,2.375735,12.4227621875,2.333731C11.9182321875,2.113614,11.373702187500001,2,10.8232421875,2C8.6141021875,2,6.8232421875,3.79086,6.8232421875,6C6.8232421875,8.20914,8.6141021875,10,10.8232421875,10C11.373702187500001,10,11.9182321875,9.886389999999999,12.4227621875,9.66627Q12.3546021875,9.60243,12.2877121875,9.53553Z" fill-rule="evenodd" fill="#E6E7EB" fill-opacity="1"/></g><g><path d="M13,17.499986494140625L13,16.999986494140625Q13,15.325726494140625,13.048739999999999,14.729236494140626Q13.13293,13.698776494140624,13.4723,13.032716494140626Q13.88597,12.220836494140626,14.55733,11.666656494140625L13.83333,11.666656494140625C11.9665,11.666656494140625,11.03308,11.666656494140625,10.32004,12.029948494140625C9.69283,12.349531494140624,9.182887000000001,12.859486494140626,8.863312,13.486696494140626C8.5,14.199736494140625,8.5,15.133156494140625,8.5,16.999986494140625L8.5,17.499986494140625L13,17.499986494140625Z" fill-rule="evenodd" fill="#E6E7EB" fill-opacity="1"/></g><g><path d="M7.5,17.53334220703125L7.5,17.03334220703125Q7.5,15.35908220703125,7.54874,14.76259220703125Q7.63293,13.732132207031249,7.9723,13.066072207031251Q8.38597,12.25419220703125,9.05733,11.70001220703125L8.33333,11.70001220703125C6.4665,11.70001220703125,5.53308,11.70001220703125,4.8200400000000005,12.06330420703125C4.19283,12.38288720703125,3.682887,12.89284220703125,3.363312,13.52005220703125C3,14.23309220703125,3,15.16651220703125,3,17.03334220703125L3,17.53334220703125L7.5,17.53334220703125Z" fill-rule="evenodd" fill="#E6E7EB" fill-opacity="1"/></g></g></g></svg>