<svg xmlns="http://www.w3.org/2000/svg" xmlns:xlink="http://www.w3.org/1999/xlink" fill="none" version="1.1" width="24" height="24" viewBox="0 0 24 24"><defs><clipPath id="master_svg0_712_15304"><rect x="0" y="0" width="24" height="24" rx="0"/></clipPath></defs><g clip-path="url(#master_svg0_712_15304)"><g><path d="M17.765575,1.196625C17.765575,0.924073,17.544674999999998,0.7031250447035,17.272075,0.703125L6.727875,0.703125C6.455323,0.7031250447035,6.234375,0.924073,6.234375,1.196625L6.234375,4.825215C6.234375,4.999215,6.3259685,5.160285,6.4755,5.249255L11.747625,8.386685C11.903125,8.479325,12.096875,8.479325,12.252375,8.386685L17.524475000000002,5.249255C17.673975,5.160345,17.765675,4.999225,17.765675,4.825215L17.765575,1.196625Z" fill="#E4C2AC" fill-opacity="1"/></g><g style="opacity:0.20000000298023224;"><path d="M8.109375,0.703125L15.890625,0.703125L15.890625,6.221625L12.252375,8.386685C12.096875,8.479325,11.903125,8.479325,11.747625,8.386685L8.109375,6.221625L8.109375,0.703125Z" fill="#FFFFFF" fill-opacity="1"/></g><g><path d="M10.715527187500001,5.66033892578125C11.4120671875,4.92091892578125,12.5875471875,4.92091892578125,13.2840871875,5.66033892578125L15.4612671875,7.971653925781251L18.551467187500002,8.70149392578125C19.5399671875,8.93505392578125,20.1276671875,9.95300392578125,19.8356671875,10.925903925781249L18.9225671875,13.96696392578125L19.8356671875,17.00807392578125C20.1279671875,17.98097392578125,19.5401671875,18.99907392578125,18.551467187500002,19.23247392578125L15.4612671875,19.96227392578125L13.2840871875,22.27347392578125C12.5876171875,23.01307392578125,11.411997187499999,23.01307392578125,10.715527187500001,22.27347392578125L8.5383671875,19.96227392578125L5.4481771875,19.23247392578125C4.4595331875,18.99897392578125,3.8718021875,17.98097392578125,4.1639929875,17.00807392578125L5.0770241875,13.96696392578125L4.1639929875,10.925903925781249C3.8718651875,9.95300392578125,4.4595711875,8.935003925781249,5.4481771875,8.70149392578125L8.5383671875,7.971653925781251L10.715527187500001,5.66033892578125Z" fill="#FAE6D9" fill-opacity="1"/></g><g><path d="M4.21048746875,18.156573925781252C4.06736956875,17.789573925781248,4.05116546875,17.38527392578125,4.16445586875,17.00807392578125L5.07748746875,13.96696392578125L4.16445586875,10.925903925781249C3.87232846875,9.95300392578125,4.46003446875,8.935003925781249,5.44864546875,8.70149392578125L8.538835468750001,7.971653925781251L10.715985468749999,5.66033892578125C11.41253546875,4.92091892578125,12.58800546875,4.92091892578125,13.28455546875,5.66033892578125L15.46175546875,7.971653925781251L18.55185546875,8.70149392578125C18.70755546875,8.73822392578125,18.85745546875,8.79594392578125,18.997455468749997,8.87305392578125L19.674255468749998,9.53634392578125L4.32626846875,18.39747392578125L4.21048746875,18.156573925781252Z" fill="#FAE6D9" fill-opacity="1"/></g><g><path d="M17.411099999999998,14.33053Q17.411099999999998,14.46139,17.404600000000002,14.592089999999999Q17.3982,14.72279,17.3854,14.85302Q17.3726,14.98324,17.3534,15.112680000000001Q17.3342,15.24212,17.3086,15.370470000000001Q17.283099999999997,15.498809999999999,17.2513,15.62574Q17.2195,15.75268,17.1815,15.8779Q17.1435,16.00312,17.0995,16.12633Q17.0554,16.24954,17.0053,16.370440000000002Q16.955199999999998,16.491329999999998,16.8993,16.60963Q16.8433,16.72792,16.781599999999997,16.84333Q16.71996,16.95873,16.65268,17.070970000000003Q16.58541,17.183210000000003,16.51271,17.29202Q16.44001,17.40082,16.36206,17.50592Q16.28411,17.61103,16.20109,17.71218Q16.11808,17.81334,16.0302,17.9103Q15.94232,18.007260000000002,15.84979,18.09979Q15.75726,18.192320000000002,15.6603,18.280189999999997Q15.56334,18.36807,15.46219,18.45109Q15.36103,18.534100000000002,15.25593,18.61205Q15.15082,18.689999999999998,15.04202,18.762700000000002Q14.93321,18.83541,14.82097,18.90268Q14.70873,18.96995,14.59333,19.031599999999997Q14.477920000000001,19.0933,14.35963,19.1493Q14.24133,19.205199999999998,14.12044,19.2553Q13.99954,19.3054,13.87633,19.3495Q13.753129999999999,19.3935,13.62791,19.4315Q13.50268,19.4695,13.37575,19.5013Q13.248809999999999,19.533099999999997,13.120470000000001,19.5586Q12.99213,19.5842,12.862680000000001,19.6034Q12.73324,19.6226,12.60302,19.6354Q12.47279,19.6482,12.342089999999999,19.654600000000002Q12.21139,19.661099999999998,12.08053,19.661099999999998Q11.94968,19.661099999999998,11.81898,19.654600000000002Q11.688279999999999,19.6482,11.55805,19.6354Q11.42782,19.6226,11.29838,19.6034Q11.16894,19.5842,11.040600000000001,19.5586Q10.91225,19.533099999999997,10.785319999999999,19.5013Q10.658380000000001,19.4695,10.53316,19.4315Q10.40794,19.3935,10.28473,19.3495Q10.16152,19.3054,10.04063,19.2553Q9.91973,19.205199999999998,9.80144,19.1493Q9.68314,19.0933,9.56774,19.031599999999997Q9.45233,18.96995,9.34009,18.90268Q9.22785,18.83541,9.11905,18.762700000000002Q9.01024,18.689999999999998,8.90514,18.61205Q8.80003,18.534100000000002,8.698879999999999,18.45109Q8.59772,18.36807,8.50077,18.280189999999997Q8.40381,18.192320000000002,8.31128,18.099780000000003Q8.21875,18.00725,8.13087,17.9103Q8.04299,17.81334,7.95998,17.71218Q7.87696,17.61103,7.79901,17.50592Q7.721057,17.40082,7.648357,17.292009999999998Q7.575656,17.183210000000003,7.508382,17.070970000000003Q7.441108,16.95873,7.379423,16.84333Q7.317737,16.72792,7.261788,16.60963Q7.20584,16.491329999999998,7.155763,16.370440000000002Q7.105686,16.24954,7.061601,16.12633Q7.017517,16.00312,6.979531,15.8779Q6.941545,15.75268,6.909749,15.62574Q6.877954,15.498809999999999,6.852425,15.370470000000001Q6.8268957,15.24212,6.807695,15.112680000000001Q6.7884942,14.98324,6.775668,14.853010000000001Q6.7628417,14.72279,6.75642086,14.592089999999999Q6.75,14.46139,6.75,14.33053Q6.75,14.199670000000001,6.75642086,14.06897Q6.7628417,13.93827,6.775668,13.80805Q6.7884942,13.67782,6.807695,13.54838Q6.8268957,13.41894,6.852425,13.290600000000001Q6.877954,13.16225,6.909749,13.035319999999999Q6.941545,12.908380000000001,6.979531,12.78316Q7.017517,12.65794,7.061601,12.53473Q7.105686,12.41152,7.155763,12.29062Q7.20584,12.16973,7.261788,12.05143Q7.317737,11.93314,7.379423,11.81774Q7.441108,11.70233,7.508382,11.59009Q7.575656,11.47785,7.648357,11.36905Q7.721057,11.26024,7.79901,11.15514Q7.87696,11.05003,7.95998,10.948879999999999Q8.04299,10.84772,8.13087,10.75077Q8.21875,10.65381,8.31128,10.56128Q8.40381,10.46875,8.50077,10.38087Q8.59772,10.29299,8.698879999999999,10.20997Q8.80003,10.12696,8.90514,10.049009999999999Q9.01024,9.971057,9.11905,9.898356Q9.22785,9.825656,9.34009,9.758382Q9.45233,9.691108,9.56774,9.629422Q9.68314,9.567737,9.80144,9.511788Q9.91973,9.455839,10.04063,9.405762Q10.16152,9.355686,10.28473,9.311601Q10.40794,9.267517,10.53316,9.229531Q10.658380000000001,9.191545,10.785319999999999,9.159749Q10.91225,9.127954,11.040600000000001,9.102425Q11.16894,9.0768957,11.29838,9.0576949Q11.42782,9.0384942,11.55805,9.025668Q11.688279999999999,9.0128417,11.81898,9.00642086Q11.94968,9,12.08053,9Q12.21139,9,12.342089999999999,9.00642086Q12.47279,9.0128417,12.60302,9.025668Q12.73324,9.0384942,12.862680000000001,9.0576949Q12.99213,9.0768957,13.120470000000001,9.102425Q13.248809999999999,9.127954,13.37575,9.159749Q13.50268,9.191545,13.62791,9.229531Q13.753129999999999,9.267517,13.876339999999999,9.311601Q13.99954,9.355686,14.12044,9.405762Q14.24133,9.455839,14.35963,9.511788Q14.477920000000001,9.567737,14.59333,9.629422Q14.70873,9.691108,14.82097,9.758382Q14.93321,9.825656,15.04202,9.898356Q15.15082,9.971057,15.25593,10.049009999999999Q15.36103,10.12696,15.46219,10.20997Q15.56334,10.29299,15.6603,10.38087Q15.75726,10.46875,15.84979,10.56128Q15.94232,10.65381,16.0302,10.75077Q16.11808,10.84772,16.20109,10.948879999999999Q16.28411,11.05003,16.36206,11.15514Q16.44001,11.26024,16.51271,11.36905Q16.58541,11.47785,16.65268,11.59009Q16.71996,11.70233,16.781599999999997,11.81774Q16.8433,11.93314,16.8993,12.05144Q16.955199999999998,12.16973,17.0053,12.29063Q17.0554,12.41152,17.0995,12.53473Q17.1435,12.65794,17.1815,12.78316Q17.2195,12.908380000000001,17.2513,13.035319999999999Q17.283099999999997,13.16225,17.3086,13.290600000000001Q17.3342,13.41894,17.3534,13.54838Q17.3726,13.67782,17.3854,13.80805Q17.3982,13.93827,17.404600000000002,14.06897Q17.411099999999998,14.199670000000001,17.411099999999998,14.33053Z" fill="#E4C2AC" fill-opacity="1"/></g><g><path d="M10.651786,17.25L9.75,16.38429L9.75,15.52714L10.642857,15.52714L10.642857,16.03286L11.03571,16.41L12.96429,16.41L13.35714,16.03286L13.35714,15.04714L12.96429,14.67L11.53571,14.67L11.53571,13.83L12.96429,13.83L13.35714,13.45286L13.35714,12.46714L12.96429,12.09L11.03571,12.09L10.642857,12.46714L10.642857,12.96429L9.75,12.96429L9.75,12.115715L10.651786,11.25L13.34821,11.25L14.25,12.115715L14.25,13.81286L13.794640000000001,14.25L14.25,14.68714L14.25,16.38429L13.34821,17.25L10.651786,17.25Z" fill="#FFFFFF" fill-opacity="1"/><path d="M10.551208,17.5L13.448789999999999,17.5L14.5,16.49084L14.5,14.58059L14.15564,14.25L14.5,13.91941L14.5,12.00916L13.448789999999999,11L10.551208,11L9.5,12.00916L9.5,13.21429L10.89286,13.21429L10.89286,12.5737L11.13629,12.34L12.863710000000001,12.34L13.10714,12.5737L13.10714,13.3463L12.863710000000001,13.58L11.28571,13.58L11.28571,14.92L12.863710000000001,14.92L13.10714,15.1537L13.10714,15.926300000000001L12.863710000000001,16.16L11.13629,16.16L10.89286,15.926300000000001L10.89286,15.27714L9.5,15.27714L9.5,16.49084L10.551208,17.5ZM13.24764,17L10.75236,17L10,16.27773L10,15.77714L10.392857,15.77714L10.392857,16.139409999999998L10.93514,16.66L13.06486,16.66L13.60714,16.139409999999998L13.60714,14.94059L13.06486,14.42L11.78571,14.42L11.78571,14.08L13.06486,14.08L13.60714,13.55941L13.60714,12.36059L13.06486,11.84L10.93514,11.84L10.392857,12.36059L10.392857,12.71429L10,12.71429L10,12.222269L10.75236,11.5L13.24764,11.5L14,12.222269L14,13.7063L13.43365,14.25L14,14.7937L14,16.27773L13.24764,17Z" fill-rule="evenodd" fill="#FFFFFF" fill-opacity="1"/></g></g></svg>