<svg xmlns="http://www.w3.org/2000/svg" xmlns:xlink="http://www.w3.org/1999/xlink" fill="none" version="1.1" width="16" height="16" viewBox="0 0 16 16"><defs><clipPath id="master_svg0_36_951"><rect x="0" y="0" width="16" height="16" rx="0"/></clipPath></defs><g clip-path="url(#master_svg0_36_951)"><g><path d="M15.1663078125,7.999921953125Q15.1663078125,6.082461953125,14.2150078125,4.429721953125Q14.1822078125,4.372601953125001,14.1356078125,4.325951953125Q14.0890078125,4.279301953125,14.0320078125,4.246301953125Q13.9749078125,4.213311953125,13.9113078125,4.196231953125Q13.8476078125,4.179151953125,13.7817078125,4.179151953125Q13.7704078125,4.179151953125,13.7592078125,4.1796619531250006Q13.6377078125,4.185141953125,13.5323078125,4.245811953125Q13.4461078125,4.295421953125,13.3854078125,4.374241953125Q13.3248078125,4.453071953125,13.2989078125,4.549101953125Q13.2817078125,4.612991953125,13.2817078125,4.679151953125Q13.2817078125,4.6867019531250005,13.2819078125,4.694251953125001Q13.2857078125,4.8197519531249995,13.3484078125,4.928581953125001Q14.1663078125,6.349701953125,14.1663078125,7.999921953125Q14.1663078125,10.554241953125,12.3602078125,12.360451953125Q10.5539878125,14.166551953125,7.9996678125,14.166551953125Q5.4453578125,14.166551953125,3.6391778125,12.360451953125Q1.8330078125,10.554231953125,1.8330078125,7.999911953125Q1.8330078125,5.445601953125,3.6391778125,3.639421953125Q5.4453578125,1.833251953125,7.9996778125,1.833251953125Q9.6610278125,1.833251953125,11.0890978125,2.661681953125L11.0898578125,2.662121953125Q11.2062478125,2.729651953125,11.3408078125,2.729651953125L11.3487078125,2.729591953125Q11.4100078125,2.7286219531249998,11.4691078125,2.712901953125Q11.5653078125,2.687371953125,11.6443078125,2.627001953125Q11.7233078125,2.566631953125,11.7733078125,2.4806019531250003Q11.8408078125,2.364221953125,11.8408078125,2.2296609531250002Q11.8408078125,2.216343953125,11.8401078125,2.203051953125Q11.8368078125,2.140834953125,11.8183078125,2.081333953125Q11.7998078125,2.021832953125,11.7673078125,1.968687953125Q11.7348078125,1.9155429531250001,11.6902078125,1.872002953125Q11.6456078125,1.828462953125,11.5917078125,1.797191953125L11.5916078125,1.797133953125L11.5905078125,1.796484953125Q9.9298878125,0.833251953125,7.9996778125,0.833251953125Q5.0311378125,0.833251953125,2.9320778125,2.932321953125Q0.8330078125,5.031391953125,0.8330078125,7.999911953125Q0.8330078125,10.968451953125,2.9320778125,13.067551953125Q5.0311478125,15.166551953125,7.9996678125,15.166551953125Q10.9681978125,15.166551953125,13.0673078125,13.067551953125Q15.1663078125,10.968451953125,15.1663078125,7.999921953125Z" fill-rule="evenodd" fill="#99A0AF" fill-opacity="1"/></g><g><path d="M10.4743128125,4.88186365625Q7.3579608125,6.04908765625,6.7606042125,6.64644765625Q6.2236328125,7.1834176562500005,6.2236328125,7.94281765625Q6.2236328125,8.70221765625,6.7606045125,9.23918765625Q7.2975758125,9.77615765625,8.0569728125,9.77615765625Q8.8163728125,9.77615765625,9.353352812499999,9.23917765625Q9.9506728125,8.64182765625,11.1179228125,5.52547865625Q11.1496928125,5.44066615625,11.1496928125,5.35010001478Q11.1496928125,5.25953385625,11.1179228125,5.17472165625Q11.0830428125,5.08158365625,11.015172812500001,5.00888565625Q10.947292812499999,4.93618765625,10.856772812500001,4.89499665625Q10.7662428125,4.85380565625,10.6668528125,4.85039265625Q10.567452812500001,4.84697865625,10.4743128125,4.88186365625ZM7.2236328125,7.94281765625Q7.2236328125,7.597627656249999,7.4677108125,7.35354765625Q7.8248228125,6.99643765625,9.7790028125,6.22077765625Q9.0033228125,8.17497765625,8.6462228125,8.532087656249999Q8.4021628125,8.77615765625,8.0569728125,8.77615765625Q7.7117888125,8.77615765625,7.4677108125,8.53207765625Q7.2236328125,8.287997656249999,7.2236328125,7.94281765625Z" fill-rule="evenodd" fill="#99A0AF" fill-opacity="1"/></g></g></svg>