<svg xmlns="http://www.w3.org/2000/svg" xmlns:xlink="http://www.w3.org/1999/xlink" fill="none" version="1.1" width="12" height="12" viewBox="0 0 12 12"><g><g><ellipse cx="6" cy="6" rx="6" ry="6" fill="#FFFFFF" fill-opacity="1"/></g><g><path d="M5.190519999999999,2.767416Q4.35314,3.5988100000000003,4.35314,4.77534Q4.35314,5.197509999999999,4.47297,5.59246L2.3448208,7.70538Q1.9375,8.10981,1.9375,8.68248Q1.9375,9.25515,2.3448289,9.659559999999999Q2.750664,10.06249,3.323862,10.0625Q3.89705,10.0625,4.30291,9.659559999999999L6.46228,7.51562Q6.82458,7.61319,7.20782,7.61319Q8.38922,7.61319,9.22512,6.78327Q10.0625,5.95188,10.0625,4.77534Q10.0625,4.27625,9.8931,3.81044Q9.855509999999999,3.70708,9.77802,3.62903Q9.74332,3.59408,9.70247,3.56658Q9.661629999999999,3.5390699999999997,9.6162,3.52007Q9.57077,3.50106,9.5225,3.4912799999999997Q9.47424,3.4815,9.424990000000001,3.48132Q9.37575,3.48115,9.32741,3.49058Q9.27908,3.50002,9.23352,3.5187Q9.18795,3.5373799999999997,9.14691,3.56459Q9.10586,3.5918099999999997,9.070920000000001,3.6265099999999997L8.53604,4.15758Q8.2614,4.43025,7.98676,4.15757Q7.8748,4.04641,7.8748,3.88995Q7.8748,3.73348,7.98676,3.62232L8.58742,3.025957Q8.64827,2.965538,8.68551,2.888294Q8.72871,2.798707,8.73433,2.69941Q8.73995,2.600113,8.70715,2.5062227Q8.67435,2.4123321,8.60811,2.3381419Q8.54187,2.263952,8.45229,2.220757Q7.86481,1.9375,7.20782,1.9375Q6.02642,1.9375,5.190519999999999,2.767416ZM5.51023,5.5170200000000005Q5.35314,5.16463,5.35314,4.77534Q5.35314,4.01513,5.89509,3.47706Q6.43853,2.9375,7.20782,2.9375Q7.23256,2.9375,7.25714,2.938113Q6.8748,3.335059,6.8748,3.88995Q6.8748,4.4627300000000005,7.28219,4.86721Q7.6881,5.27022,8.2614,5.27022Q8.703769999999999,5.27022,9.04647,5.03027Q8.96929,5.6281,8.52055,6.07363Q7.97711,6.61319,7.20782,6.61319Q6.84569,6.61319,6.51365,6.48029Q6.44572,6.4531,6.37284,6.44652Q6.2999600000000004,6.43994,6.228260000000001,6.45452Q6.15655,6.46909,6.092029999999999,6.50361Q6.0275099999999995,6.53812,5.97558,6.58968L3.5983400000000003,8.949919999999999Q3.323861,9.22243,3.049392,8.949919999999999Q2.9375,8.83883,2.9375,8.68248Q2.9375,8.52611,3.0494,8.415009999999999L5.4058399999999995,6.07543Q5.45984,6.02181,5.49545,5.954549999999999Q5.53106,5.8873,5.54504,5.81249Q5.55903,5.737690000000001,5.55012,5.66211Q5.54122,5.58653,5.51023,5.5170200000000005Z" fill-rule="evenodd" fill="#2D2E33" fill-opacity="1"/></g></g></svg>