<svg xmlns="http://www.w3.org/2000/svg" xmlns:xlink="http://www.w3.org/1999/xlink" fill="none" version="1.1" width="20" height="20" viewBox="0 0 20 20"><defs><mask id="master_svg0_4019_52174" style="mask-type:alpha" maskUnits="objectBoundingBox"><g><rect x="0" y="0" width="20" height="20" rx="0" fill="#FFFFFF" fill-opacity="1"/></g></mask></defs><g mask="url(#master_svg0_4019_52174)"><g><g><path d="M18.991,12.478237149047851C18.6037,12.014607149047851,17.9881,11.784367149047851,17.4067,11.958787149047852Q17.3211,11.984557149047852,17.1214,12.07026714904785Q15.6482,12.702787149047852,14.1675,13.346057149047851Q14.1586,13.349857149047851,14.158,13.359657149047852C14.1165,14.08500714904785,13.6056,14.655217149047852,12.916,14.764017149047852Q12.8086,14.780937149047851,12.6116,14.781407149047851Q10.0617,14.788047149047852,7.51577,14.78441714904785C7.50801,14.78441714904785,7.50173,14.777897149047853,7.50173,14.769867149047851L7.50173,13.939367149047852Q7.50173,13.919597149047851,7.5208,13.919597149047851Q10.086,13.919437149047852,12.6354,13.919127149047851C12.7494,13.919127149047851,12.8689,13.904417149047852,12.9712,13.856507149047852C13.3189,13.694107149047852,13.4339,13.22445714904785,13.2173,12.897917149047851Q13.0399,12.630207149047852,12.6897,12.630207149047852Q11.2114,12.629887149047851,9.73295,12.630997149047852C9.63424,12.630997149047852,9.52577,12.626887149047851,9.41699,12.593197149047851Q7.95011,12.139687149047852,6.48338,11.686007149047851C5.81913,11.480439149047852,5.0493,11.444385149047852,4.35011,11.597455149047851Q4.34782,11.597930149047851,4.05277,11.668137149047851C2.73906,11.980127149047851,1.42733,12.30018714904785,0.113315,12.611547149047851Q0.0989745,12.614867149047852,0.0957706,12.599997149047852C0.0648006,12.453887149047851,0.0210154,12.298127149047852,0.00881043,12.158977149047852Q-0.00873408,11.96131714904785,0.00865796,11.762227149047852Q0.0092681,11.754317149047852,0.0168962,11.752427149047852Q2.10593,11.250517149047852,4.1948,10.748612149047851C5.0371,10.54620504904785,5.97184,10.628907399047852,6.79598,10.884129149047851Q8.18063,11.312979149047852,9.56513,11.742617149047852C9.61776,11.758907149047852,9.6762,11.76649714904785,9.73035,11.766657149047852Q11.1885,11.770607149047851,12.6469,11.767447149047852Q13.4948,11.765547149047851,13.9527,12.488357149047852C13.9571,12.495327149047851,13.9657,12.498047149047851,13.9731,12.494847149047851Q15.397,11.879087149047852,16.8243,11.26459114904785Q17.0095,11.184893149047852,17.1095,11.153109149047852C18.2714,10.783084149047852,19.4545,11.366427149047851,19.9685,12.485677149047852C20.0133,12.583557149047852,19.9975,12.730137149047852,19.9965,12.844157149047852C19.9963,12.861257149047852,19.9876,12.877027149047851,19.9734,12.885747149047852Q15.8231,15.433377149047852,11.6601,17.985287149047853Q11.4822,18.09439714904785,11.3945,18.140887149047852Q10.3398,18.70050714904785,9.15214,18.38804714904785Q7.75681,18.02118714904785,6.36209,17.65194714904785Q4.91642,17.269277149047852,4.30922,17.11794714904785Q3.79204,16.98906714904785,3.25395,17.10402714904785Q1.70377,17.43483714904785,0.114536,17.786047149047853Q0.0954654,17.79030714904785,0.0908887,17.77070714904785C0.0551891,17.617157149047852,0.0104886,17.455077149047852,0.00499639,17.298047149047854Q-0.0012587,17.11746714904785,0.0107938,16.93672714904785Q0.0112515,16.928817149047852,0.0188796,16.927077149047854Q1.51093,16.59579714904785,3.00528,16.276377149047853Q3.20483,16.23367714904785,3.30537,16.219607149047853C3.78563,16.15208714904785,4.23843,16.207427149047852,4.7097,16.331557149047853Q7.00392,16.936407149047852,9.29875,17.538407149047853C9.85713,17.684997149047852,10.3647,17.67519714904785,10.8991,17.433567149047853Q11.0273,17.37553714904785,11.2493,17.239227149047853Q15.1191,14.863477149047853,18.9896,12.487097149047852C18.9927,12.485347149047852,18.9934,12.481047149047852,18.991,12.478237149047851Z" fill="#2D2E33" fill-opacity="1"/><path d="M18.6824,12.441057149047852Q18.1539,11.94343714904785,17.4641,12.150347149047851Q17.3896,12.172807149047852,17.2002,12.254057149047851L14.3478,13.486017149047852Q14.2855,14.024877149047851,13.9296,14.425817149047852Q13.5365,14.868587149047851,12.9472,14.961567149047852Q12.8245,14.980897149047852,12.6121,14.98140714904785L7.51588,14.984417149047852Q7.409,14.984417149047852,7.35546,14.930967149047852Q7.30173,14.87733714904785,7.30173,14.769867149047851L7.30173,13.939367149047852Q7.30173,13.719597149047852,7.5208,13.719597149047852L12.6354,13.719127149047852Q12.793,13.719127149047852,12.8864,13.675367149047851Q13.0603,13.594157149047852,13.112,13.389737149047852Q13.1649,13.180637149047852,13.0506,13.008487149047852Q12.9325,12.830207149047851,12.6897,12.830207149047851L9.733,12.830997149047851Q9.50879,12.830997149047851,9.35783,12.784257149047852L6.42429,11.877077149047851Q5.4232,11.567266149047851,4.39288,11.792827149047852L4.09902,11.862717149047851L3.31992,12.048607149047852L0.159933,12.806037149047851Q0.0677952,12.827377149047852,-0.00816782,12.777397149047852Q-0.080899,12.729547149047852,-0.0997392,12.642147149047851Q-0.108039,12.602987149047852,-0.126709,12.522497149047851Q-0.180361,12.291197149047852,-0.190425,12.176447149047851Q-0.209508,11.961457149047853,-0.190583,11.74481714904785Q-0.179037,11.595069149047852,-0.0313853,11.558338149047852L4.14808,10.55414644904785Q5.41974,10.24856014904785,6.85514,10.693080949047852L9.62435,11.551588149047852Q9.67249,11.566485149047852,9.73094,11.566655149047852L12.6469,11.567445149047852Q13.5251,11.565480149047852,14.0326,12.251327149047851L16.7451,11.080956149047852Q16.9395,10.997289149047852,17.0488,10.96251814904785Q17.9882,10.663366849047852,18.8676,11.080188149047851Q19.7311,11.489457149047851,20.1502,12.402207149047852Q20.2061,12.524257149047852,20.1981,12.78226714904785Q20.1967,12.826347149047852,20.1965,12.845757149047852Q20.1949,12.984387149047851,20.078,13.056187149047851L11.7647,18.15576714904785Q11.5814,18.26816714904785,11.4882,18.317607149047852Q10.3645,18.91381714904785,9.10126,18.581467149047853L6.31107,17.84532714904785Q4.86666,17.46299714904785,4.26086,17.31200714904785Q3.78858,17.19431714904785,3.29574,17.29961714904785L0.156994,17.98148714904785Q-0.0542512,18.02876714904785,-0.103876,17.81616714904785Q-0.109288,17.79288714904785,-0.120649,17.74545714904785Q-0.189537,17.45783714904785,-0.194881,17.305037149047852Q-0.201489,17.11426714904785,-0.188763,16.92341714904785Q-0.179729,16.76722714904785,-0.0255753,16.732077149047853L2.9627,16.08095714904785Q3.17,16.03659714904785,3.27764,16.02153714904785Q3.95588,15.926177149047852,4.76064,16.138157149047853L9.34962,17.344987149047853Q10.1467,17.554247149047853,10.8167,17.251327149047853Q10.9333,17.19852714904785,11.1446,17.068797149047853L18.6824,12.441057149047852ZM19.0926,12.658537149047852L11.3539,17.409657149047852Q11.1212,17.552547149047854,10.9815,17.615807149047853Q10.1823,17.977147149047852,9.24789,17.731837149047852L4.65875,16.524967149047853Q3.93185,16.33348714904785,3.33309,16.41767714904785Q3.23965,16.430747149047853,3.04786,16.471787149047852L0.203887,17.091447149047852Q0.201419,17.191297149047852,0.204874,17.29105714904785Q0.207978,17.379817149047852,0.245585,17.55290714904785L3.21217,16.908437149047852Q3.7955,16.783807149047853,4.35759,16.92387714904785Q4.96618,17.075557149047853,6.41311,17.458567149047852L9.20303,18.194627149047854Q10.3151,18.48720714904785,11.3008,17.964167149047853Q11.383,17.920627149047853,11.5555,17.81480714904785L19.7986,12.758307149047852Q19.8028,12.604267149047852,19.7867,12.569137149047851Q19.4283,11.788597149047852,18.6963,11.441641149047852Q17.9593,11.092349149047852,17.1701,11.343700149047852Q17.0795,11.37249914904785,16.9036,11.448226149047851L14.0522,12.678547149047851Q13.883,12.751367149047852,13.7837,12.595377149047852Q13.3849,11.965797149047852,12.6468,11.967447149047851L9.72977,11.966657149047851Q9.61144,11.966307149047852,9.50591,11.933647149047852L6.73681,11.07517814904785Q5.40637,10.663160649047851,4.24152,10.943078149047851L0.200521,11.913987149047852Q0.19797,12.027987149047851,0.208046,12.14149714904785Q0.214503,12.215127149047852,0.24957,12.373217149047852L3.22709,11.659527149047852L4.00651,11.47356214904785L4.30734,11.402082149047851Q5.44069,11.153963149047852,6.54247,11.494936149047852L9.47615,12.402147149047853Q9.5693,12.430997149047851,9.73289,12.430997149047851L12.6897,12.430207149047853Q13.1473,12.430207149047853,13.384,12.787357149047851Q13.5961,13.107037149047851,13.4998,13.48778714904785Q13.4016,13.876237149047851,13.056,14.037647149047851Q12.8819,14.119127149047852,12.6355,14.119127149047852L7.70173,14.119577149047851L7.70173,14.584307149047852L12.6112,14.581407149047852Q12.7927,14.580977149047852,12.8848,14.566457149047851Q13.3326,14.495817149047852,13.6305,14.16026714904785Q13.9313,13.821437149047851,13.9584,13.347227149047852Q13.9666,13.214567149047852,14.0882,13.162457149047851L17.0425,11.886477149047852Q17.2526,11.796307149047852,17.3492,11.767217149047852Q18.3954,11.453370149047851,19.1443,12.349817149047851Q19.2043,12.421387149047852,19.19,12.513657149047852Q19.1753,12.60846714904785,19.0943,12.657557149047852L19.0926,12.658537149047852ZM0.207473,11.784577149047852Q0.207707,11.782127149047852,0.207899,11.77963714904785Q0.207683,11.782107149047851,0.207473,11.784577149047852Z" fill-rule="evenodd" fill="#2D2E33" fill-opacity="1"/></g><g><g><path d="M15.99935133544922,11.03017C15.998731335449218,12.0407,15.017121335449218,12.5862,14.330951335449218,12.8324C13.28003133544922,13.2095,12.994071335449219,12.8324,11.784471335449219,12.8324C11.18835133544922,12.7578,9.856691335449218,12.9317,9.298111335449219,12.6731C8.748203335449219,12.4187,8.09710153544922,11.94949,8.009318305449218,11.1921Q8.000034510449218,11.1118,8.000034510449218,10.95072Q7.999931335449219,7.61651,7.999931335449219,4.28229Q7.999931335449219,4.1165,8.007977265449219,4.04067C8.14259233544922,2.770647,9.78891133544922,2.277971,10.64921133544922,2.122452Q11.992991335449219,1.879621,13.33738133544922,2.118341Q13.91009133544922,2.220165,14.45917133544922,2.435787C15.066021335449218,2.674264,15.857301335449218,3.1463799999999997,15.982951335449219,3.97186Q15.996461335449219,4.0601400000000005,15.996661335449218,4.21264Q16.001311335449216,7.62134,15.99935133544922,11.03017ZM9.005051335449219,4.4643C9.24653133544922,4.72212,9.581061335449219,4.889609999999999,9.86937133544922,4.99954C10.309011335449219,5.1671499999999995,10.77042133544922,5.26487,11.233781335449219,5.3136Q12.148951335449219,5.40998,13.060311335449219,5.275869999999999Q13.57246133544922,5.2005300000000005,14.065021335449218,5.02349C14.368501335449219,4.91441,14.681261335449218,4.7594899999999996,14.93357133544922,4.52912C15.012171335449219,4.45728,15.128741335449218,4.3205100000000005,15.137711335449218,4.20018C15.153701335449218,3.98674,14.855171335449219,3.75286,14.717981335449219,3.6619099999999998C14.446271335449218,3.4817299999999998,14.14115133544922,3.3519699999999997,13.839121335449219,3.26236Q13.207721335449218,3.07503,12.557131335449219,3.03005C11.788231335449218,2.976957,11.019321335449218,3.0247200000000003,10.267441335449218,3.23128C9.889491335449218,3.3350400000000002,9.521851335449218,3.48729,9.193821335449218,3.72565C9.076641335449219,3.8107800000000003,8.85290433544922,4.0133399999999995,8.861053335449219,4.1899C8.86590133544922,4.2931799999999996,8.939140335449219,4.39391,9.005051335449219,4.4643ZM9.55950133544922,7.14584C9.985211335449218,7.35529,10.437331335449219,7.47997,10.893991335449218,7.55229C11.820931335449218,7.69874,12.782621335449218,7.66609,13.696151335449219,7.42459C14.113811335449219,7.31406,14.54035133544922,7.14403,14.891481335449217,6.84968C15.000721335449219,6.75813,15.139571335449219,6.61277,15.14029133544922,6.44081Q15.142151335449219,6.01319,15.140081335449219,5.58521Q15.139981335449217,5.57796,15.134511335449218,5.5814699999999995C14.432971335449219,6.02674,13.610321335449218,6.23341,12.82254133544922,6.31855Q11.610291335449219,6.44964,10.414021335449219,6.19108C9.87969133544922,6.07559,9.347011335449219,5.885,8.864766335449218,5.58207Q8.859402335449218,5.57868,8.859402335449218,5.58582Q8.85713333544922,6.00328,8.859093335449218,6.42085C8.859506335449218,6.4939,8.866417335449219,6.55013,8.899013335449219,6.60515C9.047551335449219,6.85585,9.323801335449218,7.02987,9.55950133544922,7.14584ZM9.161541335449218,9.182210000000001C9.472341335449219,9.42093,9.841521335449219,9.57621,10.200491335449218,9.68057C11.037891335449219,9.92413,11.93244133544922,9.97371,12.789531335449219,9.881319999999999Q13.342331335449218,9.821819999999999,13.878831335449219,9.65602C14.234301335449219,9.54622,14.611221335449219,9.38211,14.90737133544922,9.12138C15.002271335449219,9.03782,15.140811335449218,8.88871,15.140701335449219,8.73851Q15.140701335449219,8.30207,15.140701335449219,7.86938Q15.140701335449219,7.86151,15.13482133544922,7.86526C14.610801335449219,8.20073,14.032121335449219,8.38987,13.43094133544922,8.50874C12.443351335449218,8.704049999999999,11.40512133544922,8.691230000000001,10.42155133544922,8.47802C9.886811335449218,8.362169999999999,9.351851335449219,8.171579999999999,8.86363233544922,7.86562Q8.858680335449218,7.8626,8.858680335449218,7.86913Q8.858577335449219,8.28199,8.85878333544922,8.69606C8.85878333544922,8.787130000000001,8.868480335449219,8.84408,8.91262933544922,8.911439999999999Q9.017121335449218,9.07132,9.161541335449218,9.182210000000001ZM9.55950133544922,11.71416Q9.948801335449218,11.90451,10.34873133544922,12.0067C11.133101335449219,12.2071,11.938421335449219,12.2467,12.736931335449219,12.1701C13.355431335449218,12.1107,14.002201335449218,11.96364,14.566241335449218,11.65067C14.736441335449218,11.55634,15.14029133544922,11.28739,15.140501335449219,11.04154Q15.140911335449218,10.59639,15.140601335449219,10.15426C15.140621335449218,10.15046,15.137131335449219,10.14806,15.134311335449219,10.14991C14.505801335449219,10.55164,13.780831335449218,10.75408,13.075061335449218,10.85421C12.035901335449218,11.00151,10.971051335449218,10.94201,9.95478133544922,10.6398Q9.373001335449219,10.46687,8.863425335449218,10.15136Q8.858887335449218,10.14858,8.858887335449218,10.1545Q8.858165335449218,10.57111,8.858887335449218,10.9876C8.859093335449218,11.06089,8.865798335449218,11.11627,8.898085335449219,11.17166C9.044151335449218,11.42223,9.32142133544922,11.59783,9.55950133544922,11.71416Z" fill="#2D2E33" fill-opacity="1"/><path d="M16.19935133544922,11.03009L16.19666133544922,4.21256L16.19666133544922,4.21237Q16.19644133544922,4.04479,16.18067133544922,3.94177Q16.01160133544922,2.8309670000000002,14.532271335449218,2.249626Q13.96468133544922,2.0267348,13.372341335449219,1.9214209Q11.99268133544922,1.676438,10.613631335449218,1.9256425Q9.651531335449219,2.099564,8.958437335449219,2.489292Q7.908730635449219,3.0795399999999997,7.809094335449219,4.01957Q7.799931335449219,4.105919999999999,7.799931335449219,4.2823L7.800034335449219,10.95072Q7.800034335449219,11.12332,7.810648335449219,11.21512Q7.931911235449219,12.2614,9.214101335449218,12.8546Q9.613161335449218,13.0394,10.928331335449219,13.0167Q11.559081335449218,13.0058,11.75963133544922,13.0309L11.772001335449218,13.0324L11.784471335449219,13.0324Q12.222211335449218,13.0324,12.813091335449219,13.1293Q13.693271335449218,13.2737,14.398501335449218,13.0207Q16.198531335449218,12.3748,16.19935133544922,11.03009ZM15.796661335449219,4.21272L15.796661335449219,4.21291L15.799351335449218,11.03025Q15.79870133544922,12.0933,14.263401335449219,12.6442Q13.655731335449218,12.8622,12.877841335449219,12.7346Q12.262751335449218,12.6337,11.79651133544922,12.6324Q11.56260133544922,12.6056,10.92142133544922,12.6167Q9.697961335449218,12.6378,9.382121335449218,12.4916Q8.303429335449218,11.99254,8.207988335449219,11.16907Q8.20003433544922,11.10027,8.20003433544922,10.95072L8.199931335449218,4.28229Q8.199931335449218,4.127079999999999,8.20686033544922,4.061780000000001Q8.284741335449219,3.32701,9.154491335449219,2.837952Q9.788921335449219,2.481211,10.68479133544922,2.319263Q11.99330133544922,2.0828044,13.302411335449218,2.31526Q13.855501335449219,2.413596,14.386061335449218,2.621947Q15.650831335449219,3.11897,15.785221335449219,4.00196Q15.796471335449219,4.07544,15.796661335449219,4.21272ZM9.07626133544922,3.56385Q8.646360335449218,3.8761799999999997,8.661266335449218,4.199120000000001L8.661273335449218,4.19928Q8.670688335449219,4.39985,8.859077335449218,4.6010100000000005Q9.19032133544922,4.95468,9.798121335449219,5.18642Q10.440301335449218,5.43125,11.212861335449219,5.5125Q12.153101335449218,5.61153,13.08943133544922,5.473739999999999Q13.62133133544922,5.395490000000001,14.132671335449219,5.2117Q14.709801335449217,5.00426,15.06842133544922,4.67681Q15.319861335449218,4.447039999999999,15.337161335449219,4.215059999999999Q15.364471335449219,3.8505000000000003,14.828481335449219,3.49521Q14.42482133544922,3.22751,13.896001335449219,3.07062Q13.243481335449218,2.877028,12.570931335449218,2.830522Q11.292551335449218,2.742257,10.214461335449219,3.03842Q9.547291335449218,3.2215800000000003,9.07626133544922,3.56385ZM9.060841335449219,4.180680000000001L9.060831335449219,4.18052Q9.056061335449218,4.0729500000000005,9.311391335449219,3.88744Q9.723461335449219,3.5880099999999997,10.320421335449218,3.42413Q11.332891335449219,3.1459900000000003,12.543331335449219,3.22957Q13.171951335449219,3.27304,13.782231335449218,3.45409Q14.253641335449219,3.59396,14.607481335449219,3.82862Q14.94807133544922,4.05438,14.93826133544922,4.185309999999999Q14.932771335449218,4.25891,14.798721335449219,4.38142Q14.499191335449218,4.6549,13.99737133544922,4.8352699999999995Q13.523601335449218,5.0055700000000005,13.031191335449218,5.077999999999999Q12.14480133544922,5.2084399999999995,11.25470133544922,5.1147Q10.534041335449219,5.0389,9.940631335449218,4.81266Q9.419131335449219,4.61383,9.151031335449218,4.32758Q9.063471335449218,4.23409,9.060841335449219,4.180680000000001ZM8.65909533544922,6.42179Q8.660069335449219,6.59421,8.72694033544922,6.70709L8.726949335449218,6.70711Q8.937702335449218,7.06279,9.47120133544922,7.32529Q10.083161335449219,7.62638,10.86271133544922,7.74983Q12.35596133544922,7.98575,13.747261335449219,7.61794Q14.535021335449219,7.40947,15.019971335449219,7.00295Q15.33905133544922,6.73555,15.34029133544922,6.44165Q15.34215133544922,6.01313,15.34008133544922,5.58425Q15.338521335449219,5.4741,15.250301335449219,5.4147300000000005Q15.139871335449218,5.34041,15.026521335449218,5.413130000000001Q14.14151133544922,5.97484,12.80105133544922,6.1197Q11.62093133544922,6.24732,10.45627133544922,5.9956Q9.606751335449218,5.81198,8.97115333544922,5.412710000000001Q8.856463335449218,5.3403,8.74617533544922,5.41738Q8.659402335449219,5.47802,8.659402335449219,5.58582Q8.657130335449219,6.0032,8.65909533544922,6.42179ZM9.647801335449218,6.96639Q9.22115133544922,6.75646,9.071091335449218,6.50322L9.071081335449218,6.5032Q9.059451335449218,6.48355,9.059091335449219,6.41991Q9.057931335449219,6.17179,9.058261335449219,5.92332Q9.645161335449218,6.22952,10.37177133544922,6.38657Q11.599631335449219,6.65195,12.84403133544922,6.51739Q14.061311335449219,6.38584,14.941101335449218,5.92398Q14.941411335449219,6.18205,14.940291335449219,6.43997Q14.93984133544922,6.54821,14.763001335449218,6.69641Q14.346431335449218,7.04561,13.645031335449218,7.23123Q12.335171335449218,7.57751,10.925271335449219,7.35475Q10.205471335449218,7.24076,9.647801335449218,6.96639ZM8.745217335449219,9.02087L8.745357335449219,9.021080000000001Q8.86842433544922,9.20929,9.039731335449218,9.34084Q9.480801335449218,9.67962,10.144661335449218,9.872620000000001Q11.38627133544922,10.23374,12.810971335449219,10.08016Q13.382941335449217,10.0186,13.93788133544922,9.847100000000001Q14.627781335449217,9.63399,15.039531335449219,9.2715Q15.340891335449218,9.00614,15.340701335449218,8.73837L15.340701335449218,7.86938Q15.340701335449218,7.76126,15.25386133544922,7.70052Q15.14289133544922,7.62291,15.027291335449219,7.69663Q14.366011335449219,8.11997,13.39214133544922,8.31254Q11.933221335449218,8.60106,10.463921335449218,8.28256Q9.61056133544922,8.09768,8.969835335449218,7.69615Q8.852974335449218,7.62482,8.744311335449218,7.70179Q8.658680335449219,7.76245,8.658680335449219,7.86913L8.658783335449218,8.69609Q8.658783335449218,8.88884,8.745217335449219,9.02087ZM9.283351335449218,9.023579999999999Q9.16592133544922,8.93341,9.080041335449218,8.802019999999999L9.079901335449218,8.80181Q9.058781335449218,8.76959,9.058781335449218,8.69604L9.058721335449219,8.20751Q9.649481335449218,8.5154,10.379181335449218,8.673490000000001Q11.929501335449219,9.009540000000001,13.469741335449218,8.70494Q14.308981335449218,8.53899,14.94070133544922,8.208580000000001L14.94070133544922,8.73865Q14.940761335449219,8.82549,14.77521133544922,8.97127Q14.427811335449219,9.27711,13.819781335449218,9.46494Q13.301731335449219,9.625029999999999,12.768101335449218,9.68247Q11.422041335449219,9.82757,10.256331335449218,9.488520000000001Q9.66475133544922,9.31653,9.283351335449218,9.023579999999999ZM8.658887335449219,10.9876Q8.659369335449218,11.15928,8.725299335449218,11.27238Q8.934578335449219,11.63139,9.471691335449218,11.89386Q9.879391335449219,12.0932,10.299211335449218,12.2005Q11.450281335449219,12.4945,12.756041335449218,12.3692Q13.877651335449219,12.2615,14.66328133544922,11.82555Q15.34015133544922,11.45043,15.340501335449218,11.0417L15.340601335449218,10.15428Q15.341071335449218,10.04691,15.252321335449219,9.9855Q15.139471335449219,9.90742,15.024701335449219,9.98262Q14.23443133544922,10.48773,13.046971335449218,10.6562Q11.465421335449218,10.88037,10.01179133544922,10.4481Q9.455581335449219,10.28277,8.968710335449218,9.98131Q8.854436335449218,9.91131,8.746114335449219,9.986360000000001Q8.658887335449219,10.0468,8.658887335449219,10.1545L8.658887335449219,10.9876ZM9.647311335449219,11.53447Q9.219101335449219,11.32522,9.070871335449219,11.07094Q9.059061335449218,11.05069,9.058891335449218,10.9876L9.058891335449218,10.4926Q9.45872133544922,10.701,9.897781335449219,10.83151Q11.435101335449218,11.28866,13.103151335449219,11.05223Q14.162371335449219,10.90196,14.940561335449217,10.49317L14.94050133544922,11.04137Q14.940351335449218,11.21468,14.469201335449219,11.47579Q13.756451335449219,11.87128,12.71781133544922,11.97099Q11.481591335449219,12.0897,10.39824133544922,11.81292Q10.01821133544922,11.71581,9.647311335449219,11.53447ZM15.23818133544922,10.32086Q15.241041335449218,10.31908,15.24391133544922,10.3172Q15.241051335449217,10.31903,15.23818133544922,10.32086Z" fill-rule="evenodd" fill="#2D2E33" fill-opacity="1"/></g></g></g></g></svg>