<svg xmlns="http://www.w3.org/2000/svg" xmlns:xlink="http://www.w3.org/1999/xlink" fill="none" version="1.1" width="16" height="16" viewBox="0 0 16 16"><defs><clipPath id="master_svg0_3868_29589"><rect x="0" y="0" width="16" height="16" rx="0"/></clipPath></defs><g clip-path="url(#master_svg0_3868_29589)"><g><g><path d="M7.7221259765625,12.3045Q4.8528759765625,12.3045,1.9836259765625002,12.3045C1.6490059765625,12.3045,1.3640159765625,12.19458,1.1440259765625,11.93707C0.9896759765625001,11.75618,0.9047259765625,11.54593,0.9023759765624999,11.30647C0.8998559765625,11.04754,0.9004859765625,10.7883,0.9012759765625,10.52937C0.9012759765625,10.34314,0.9992559765625,10.24579,1.1884659765625,10.24485C1.4868059765625,10.24328,1.7851459765625002,10.24485,2.0834859765625,10.24485C2.1908859765625,10.24485,2.1910459765625,10.24485,2.1912059765625,10.13493C2.1912059765625,10.0459,2.1893159765625,9.95687,2.1919859765625,9.868C2.1935559765625,9.81241,2.1745559765625,9.778179999999999,2.1238359765625,9.74897Q1.0237459765625,9.116489999999999,-0.0730460234375,8.478670000000001C-0.1284750234375,8.44727,-0.1875148234375,8.40848,-0.2239434234375,8.358080000000001C-0.3150157234375,8.23246,-0.2694795734375,8.079519999999999,-0.1225080234375,7.99426Q0.8259059765625001,7.44468,1.7754059765624999,6.89621C1.8906659765625,6.829470000000001,2.0038759765625,6.75929,2.1208559765625,6.69726C2.1762859765625,6.6678999999999995,2.1916759765625,6.62943,2.1912059765625,6.57165C2.1893159765625,6.32575,2.1904159765625,6.0797,2.1904159765625,5.83364C2.1904159765625,5.15327,2.1890059765625,4.4729,2.1912059765625,3.792365C2.1923059765625,3.479421,2.3221559765625,3.234154,2.6057359765625,3.090479C2.6986959765625,3.0433726,2.8089259765625,3.0293974,2.9120859765625,3.00396004C2.9417659765625,2.99673671,2.9748959765625,3.00160433,3.0063059765625,3.00160433Q7.7282559765625,3.00160433,12.4502259765625,3.000819417C12.7240259765625,3.000819417,12.9508259765625,3.0917345,13.1185259765625,3.312821C13.2345259765625,3.46576,13.2755259765625,3.642566,13.2662259765625,3.829893C13.2617259765625,3.93023,13.2976259765625,3.98346,13.3837259765625,4.03245C14.1019259765625,4.44306,14.8176259765625,4.85854,15.5349259765625,5.27292C15.5551259765625,5.2847,15.5757259765625,5.29616,15.5956259765625,5.30856C15.7734259765625,5.42021,15.774225976562501,5.64255,15.5945259765625,5.75105C15.4359259765625,5.84668,15.2744259765625,5.93759,15.1137259765625,6.03008Q14.2344259765625,6.53647,13.3551259765625,7.04083C13.2855259765625,7.0804,13.2656259765625,7.12781,13.2657259765625,7.20428Q13.2703259765625,8.558589999999999,13.2692259765625,9.912749999999999C13.2692259765625,9.99644,13.2719259765625,10.08029,13.2692259765625,10.163979999999999C13.2667259765625,10.226790000000001,13.2921259765625,10.24595,13.3524259765625,10.24548C13.6533259765625,10.243590000000001,13.9543259765625,10.24422,14.2551259765625,10.24548C14.4649259765625,10.24548,14.5587259765625,10.338750000000001,14.5591259765625,10.545390000000001C14.5591259765625,10.78343,14.5560259765625,11.02163,14.5591259765625,11.25968C14.5675259765625,11.72292,14.2628259765625,12.13369,13.8170259765625,12.26006C13.6983259765625,12.29382,13.5693259765625,12.30308,13.4449259765625,12.30324Q10.5837259765625,12.3067,7.7221259765625,12.3045ZM7.7288759765625,3.5072140000000003L5.8603259765625,3.5072140000000003C4.9079859765625,3.5072140000000003,3.9556559765625003,3.51004,3.0025359765625,3.505172C2.7888259765625,3.504073,2.6905359765625,3.631732,2.6911559765625,3.8165459999999998C2.6960259765625,5.0122599999999995,2.6936759765625,6.20798,2.6938259765625,7.40354C2.6938259765625,7.51236,2.6938259765625,7.51252,2.7998159765625,7.51252L4.7869259765625,7.51252C4.9693859765625,7.51252,4.9693859765625,7.51252,4.9425359765625,7.33728C4.9425359765625,7.33477,4.9425359765625,7.3321,4.9414359765625,7.32959C4.8881459765625,6.99037,4.8962859765625,6.64434,4.9654559765625,6.3080099999999995C5.0508159765625,5.8811,5.2363759765625,5.48058,5.5068659765625,5.13945C5.9594059765625,4.57025,6.5422659765625,4.21695,7.2626859765625,4.09463C7.6999559765625,4.0187100000000004,8.1490359765625,4.04832,8.5725559765625,4.1809899999999995C8.9530859765625,4.29898,9.3035059765625,4.4981100000000005,9.5996359765625,4.76464C9.6416759765625,4.80394,9.6979259765625,4.82441,9.7554259765625,4.82133C9.9385259765625,4.8185,10.1217259765625,4.8202300000000005,10.3049259765625,4.82038Q11.4861259765625,4.82038,12.6675259765625,4.82242C12.7193259765625,4.82242,12.7661259765625,4.82823,12.7655259765625,4.7501999999999995C12.7628259765625,4.41794,12.7647259765625,4.08568,12.7636259765625,3.753266C12.7636259765625,3.662351,12.7232259765625,3.584154,12.6421259765625,3.549138C12.5726259765625,3.5214090000000002,12.4983259765625,3.507797,12.4235259765625,3.509098Q10.0757259765625,3.505643,7.7288759765625,3.5072140000000003ZM10.4876259765625,6.24127C10.5033259765625,6.35872,10.5190259765625,6.4611,10.5317259765625,6.56442C10.6017259765625,7.09763,10.5072259765625,7.6395,10.2608259765625,8.117519999999999C9.8232259765625,8.97737,9.1246459765625,9.49648,8.1705759765625,9.66151C7.787525976562501,9.72712,7.3948259765625,9.70928,7.0192959765625,9.60922C6.5852859765625,9.495619999999999,6.1843959765625,9.280750000000001,5.8494859765625,8.982240000000001C5.8119459765625,8.951740000000001,5.7653159765625,8.93461,5.7169659765625,8.93356C4.7409159765625,8.93074,3.7648759765625,8.932310000000001,2.7889859765625,8.92979C2.7104759765625,8.92979,2.6933559765625,8.956800000000001,2.6938259765625,9.02919Q2.6985359765625,9.59054,2.6938259765625,10.15173C2.6938259765625,10.22302,2.7129859765625,10.24595,2.7863159765625,10.24595Q7.7280959765625,10.24344,12.6695259765625,10.24595C12.7465259765625,10.24595,12.7659259765625,10.22114,12.7658259765625,10.147179999999999Q12.7630259765625,8.24345,12.7658259765625,6.33988C12.7658259765625,6.2594899999999996,12.7427259765625,6.23907,12.6640259765625,6.23939C11.9680259765625,6.24237,11.2720259765625,6.24111,10.5757259765625,6.24111L10.4876259765625,6.24127ZM7.7287259765625,10.75156L1.5514959765625,10.75156C1.5254359765625,10.75156,1.4992059765625,10.752970000000001,1.4729859765625,10.75156C1.4164559765625,10.74794,1.3932159765625,10.7715,1.3944759765625,10.83007C1.3973059765625,10.976569999999999,1.3911759765625,11.12323,1.3977759765625,11.26973C1.3998859765625,11.33988,1.4147859765625,11.40905,1.4417359765625,11.47386C1.5433359765625,11.70059,1.7229659765625,11.79952,1.9723159765624998,11.79952Q7.7293459765625006,11.79638,13.4867259765625,11.79795C13.5207259765625,11.79795,13.5548259765625,11.79795,13.5887259765625,11.79496C13.8050259765625,11.77801,14.0127259765625,11.60654,14.0395259765625,11.39158C14.0636259765625,11.19813,14.0570259765625,11.00075,14.0593259765625,10.8051C14.0593259765625,10.78767,14.0287259765625,10.76192,14.0072259765625,10.75423C13.9814259765625,10.745280000000001,13.9504259765625,10.7514,13.9216259765625,10.7514L7.7287259765625,10.75156ZM5.4098259765625,6.87501C5.3996259765625,8.134170000000001,6.4268559765625,9.19343,7.7238559765625,9.19987C9.0049959765625,9.206150000000001,10.0460259765625,8.1618,10.0477259765625,6.8770500000000006C10.0488259765625,5.59607,9.0142559765625,4.55455,7.7343759765625,4.5531299999999995C6.4461759765625,4.55125,5.4008759765625,5.60518,5.4098259765625,6.87501ZM2.1761259765625,9.20097C2.1829059765625,9.180900000000001,2.1877959765625,9.16024,2.1907359765625,9.13926C2.1918359765625,8.99794,2.1907359765625,8.85662,2.1923059765625,8.7153C2.1932459765625,8.60633,2.2276359765625,8.509920000000001,2.3336259765625,8.46407C2.3862259765625,8.44114,2.4502859765625,8.43769,2.5093259765625,8.437529999999999C3.2002259765625,8.4358,3.8903359765624996,8.436589999999999,4.5809159765625,8.43627Q4.9302859765625,8.43627,5.2793459765625,8.43298C5.3561259765625,8.43298,5.3635059765625,8.41727,5.3264459765625,8.35133C5.2804459765625,8.269359999999999,5.2265859765625,8.19069,5.1912559765625,8.10449C5.1587559765625,8.02598,5.1127459765625,8.00431,5.0301459765625,8.00462Q3.7552959765624996,8.00855,2.4799659765625,8.006039999999999C2.2901259765625,8.006039999999999,2.1957559765625,7.91182,2.1930859765625,7.7234C2.1913559765625,7.59778,2.1930859765625,7.47216,2.1919859765625,7.34655C2.1894659765625,7.31169,2.1851159765625,7.277,2.1789559765625,7.2426L0.4813969765625,8.222249999999999L2.1761259765625,9.20097ZM13.2800259765625,6.50962L14.9781259765625,5.5298099999999994L13.2766259765625,4.5466999999999995C13.2733259765625,4.5992999999999995,13.2700259765625,4.62992,13.2698259765625,4.66054C13.2698259765625,4.78867,13.2711259765625,4.91695,13.2681259765625,5.0450800000000005C13.2656259765625,5.1576699999999995,13.2227259765625,5.25314,13.1128259765625,5.2952200000000005C13.0588259765625,5.31579,12.9947259765625,5.3151600000000006,12.9354259765625,5.31532Q11.5850259765625,5.31704,10.2346259765625,5.3161000000000005L10.1639259765625,5.3161000000000005C10.1043259765625,5.3161000000000005,10.0967259765625,5.3406,10.1255259765625,5.38927C10.1726259765625,5.4703,10.2269259765625,5.5492799999999995,10.2613259765625,5.6358C10.2968259765625,5.72498,10.3521259765625,5.74446,10.4414259765625,5.74414Q11.7010259765625,5.73959,12.9608259765625,5.74273C13.1750259765625,5.74273,13.2651259765625,5.83474,13.2664259765625,6.04955C13.2672259765625,6.16983,13.2664259765625,6.29026,13.2672259765625,6.4107C13.2697259765625,6.44387,13.2740259765625,6.47689,13.2800259765625,6.50962Z" fill="#2D2E33" fill-opacity="1"/><path d="M7.7221659765625,12.4545L13.4449259765625,12.45324L13.4451259765625,12.45324Q13.6872259765625,12.45294,13.8580259765625,12.40437Q14.2414259765625,12.29566,14.4789259765625,11.97556Q14.7163259765625,11.65546,14.7091259765625,11.2577Q14.7070259765625,11.10043,14.7084259765625,10.78411Q14.7091259765625,10.62509,14.7091259765625,10.54504Q14.7081259765625,10.09548,14.2555259765625,10.09548L13.8059259765625,10.0943L13.4202259765625,10.0953Q13.4204259765625,10.052019999999999,13.4198259765625,9.994869999999999Q13.4192259765625,9.9399,13.4192259765625,9.91256L13.4157259765625,7.20397Q13.4157259765625,7.17892,13.4298259765625,7.17088L15.1886259765625,6.16007Q15.2279259765625,6.13744,15.3076259765625,6.09178Q15.5512259765625,5.95235,15.6721259765625,5.87945Q15.879025976562499,5.7544699999999995,15.879125976562499,5.53106Q15.879225976562498,5.30954,15.6749259765625,5.1812000000000005Q15.6582259765625,5.17082,15.6263259765625,5.1525099999999995Q15.6156259765625,5.14633,15.6098259765625,5.14298L13.4579259765625,3.902097Q13.4142259765625,3.877239,13.4160259765625,3.8373Q13.4337259765625,3.480138,13.2380259765625,3.222171Q12.9563259765625,2.850819,12.4502259765625,2.850819L3.0063059765625,2.851604Q3.0005859765625,2.851604,2.9855659765625,2.850948Q2.9185159765625,2.848017,2.8761759765625,2.858322Q2.8515659765625,2.86439,2.7990859765625,2.875611Q2.6240559765625,2.9130349,2.5379459765625,2.9566725Q2.0432559765625,3.207306,2.0412059765625,3.792307L2.0404159765625,5.82884L2.0404159765625,5.839449999999999L2.0412059765625,6.5697399999999995Q1.9579459765624998,6.6144,1.8056859765625002,6.704470000000001Q1.7353159765625001,6.746090000000001,1.7002959765625,6.76637L-0.1977777234375,7.86451Q-0.3610442234375,7.95923,-0.4067700234375,8.120000000000001Q-0.4560930234375,8.293420000000001,-0.3455158234375,8.44594Q-0.2833948234375,8.5319,-0.14813202343749998,8.60852L2.0417459765625,9.874780000000001Q2.0401559765625,9.93971,2.0408859765625,10.057680000000001Q2.0410159765625,10.07835,2.0410859765625,10.0948L1.7853259765625,10.0945L1.4864559765625,10.094149999999999L1.1877159765625,10.094850000000001Q0.7512759765624999,10.09702,0.7512759765624999,10.52911L0.7505859765625,10.91958L0.7523759765625,11.30794Q0.7563759765625,11.71385,1.0299759765625,12.0345Q1.3887659765625,12.4545,1.9836259765625002,12.4545L7.7221659765625,12.4545ZM13.4449259765625,12.15324L13.4447259765625,12.15324L7.7220959765625,12.1545L1.9836259765625002,12.1545Q1.5270559765625,12.1545,1.2580759765625,11.83964Q1.0552859765625,11.60198,1.0523659765625,11.30499L1.0505859765625,10.91819L1.0512759765625,10.529630000000001Q1.0512759765625,10.39553,1.1892159765625,10.39485L1.4871559765625,10.39415L1.7849659765625,10.3945L2.0833159765625,10.39485Q2.3408359765625,10.39485,2.3412059765625,10.13515Q2.3412059765625,10.1084,2.3408759765625,10.05582Q2.3401159765625,9.93264,2.3419159765625,9.872499999999999Q2.3466759765625,9.7042,2.1986959765625,9.61899L0.00203997656249999,8.34882Q-0.0785790234375,8.30313,-0.10237102343750001,8.270209999999999Q-0.1276700234375,8.23532,-0.11821402343750001,8.202069999999999Q-0.10565002343749999,8.15789,-0.0472380234375,8.12401L1.8505259765625,7.02604Q1.8868359765624998,7.00502,1.9584259765624998,6.96267Q2.1134459765625,6.87097,2.1911259765625,6.82979Q2.3426559765625,6.74951,2.3411959765625,6.57042L2.3404159765625,5.83913L2.3404159765625,5.8336500000000004L2.3404159765625,5.82884L2.3412059765625,3.792423Q2.3426159765625,3.391946,2.6735359765625,3.224285Q2.7248959765625,3.198254,2.8618159765625,3.16898Q2.9188559765625,3.156783,2.9479959765625,3.149598L2.9724659765625,3.150662Q2.9940359765625,3.151604,3.0063059765625,3.151604L12.4502259765625,3.150819Q12.8073259765625,3.150819,12.9990259765625,3.403471Q13.1287259765625,3.574437,13.1164259765625,3.822485Q13.1062259765625,4.04709,13.3095259765625,4.1628L15.4599259765625,5.40286Q15.4653259765625,5.406000000000001,15.4768259765625,5.41262Q15.5041259765625,5.42831,15.5164259765625,5.43593Q15.5791259765625,5.47533,15.5791259765625,5.53092Q15.5791259765625,5.5851500000000005,15.5170259765625,5.62266Q15.3992259765625,5.6936800000000005,15.1586259765625,5.83143Q15.0788259765625,5.87709,15.0389259765625,5.9000900000000005L13.2803259765625,6.910769999999999Q13.1153259765625,7.00464,13.1157259765625,7.2046L13.1192259765625,9.912939999999999Q13.1192259765625,9.94136,13.1198259765625,9.998059999999999Q13.1210259765625,10.10655,13.1193259765625,10.1592Q13.1147259765625,10.2731,13.1853259765625,10.3385Q13.2477259765625,10.3963,13.3536259765625,10.39547L13.8066259765625,10.394300000000001L14.2547259765625,10.39548Q14.4088259765625,10.39548,14.4091259765625,10.545729999999999Q14.4091259765625,10.62446,14.4084259765625,10.78279Q14.4070259765625,11.10168,14.4091259765625,11.26166Q14.4213259765625,11.93285,13.7761259765625,12.11575Q13.6452259765625,12.15298,13.4449259765625,12.15324ZM12.6977259765625,3.409824Q12.5650259765625,3.356887,12.4223259765625,3.359097L7.7289359765625,3.357214L5.8562559765625,3.357214L3.0026359765625,3.355172Q2.7825559765625,3.354039,2.6568059765625,3.488806Q2.5404659765625,3.613477,2.5411659765625,3.817056L2.5438259765625,7.40366Q2.5438259765625,7.66252,2.7998159765625,7.66252L4.7869259765625,7.66252Q4.9911759765625,7.66252,5.0553859765625,7.59021Q5.1203759765625,7.51702,5.0919159765625,7.32203Q5.0909559765625,7.31029,5.0884959765625,7.29913Q5.0139859765625,6.81665,5.1123859765625,6.33822Q5.2353259765625,5.72334,5.6244059765625,5.23265Q6.2748559765625,4.4145,7.2877959765625,4.24251Q7.9179259765625005,4.13311,8.5277159765625,4.32413Q9.0742759765625,4.4936,9.4992859765625,4.87613Q9.6085459765625,4.97829,9.7602259765625,4.9712700000000005Q9.8950259765625,4.96923,10.1635259765625,4.97006Q10.2577259765625,4.97034,10.3048259765625,4.9703800000000005L12.6674259765625,4.97242L12.6765259765625,4.9724699999999995Q12.7621259765625,4.9731000000000005,12.8128259765625,4.9447399999999995Q12.9166259765625,4.88672,12.9155259765625,4.74899L12.9147259765625,4.63408L12.9136259765625,3.753074Q12.9136259765625,3.5029,12.7015259765625,3.411404L12.6996259765625,3.410588L12.6977259765625,3.409824ZM7.7288159765625,3.6572139999999997L12.4234259765625,3.659098L12.4261259765625,3.659075Q12.5079259765625,3.657653,12.5840259765625,3.68748Q12.6136259765625,3.7013920000000002,12.6136259765625,3.753458L12.6147259765625,4.6360399999999995L12.6150259765625,4.67238L10.3051259765625,4.67038Q10.2582259765625,4.6703399999999995,10.1644259765625,4.67006Q9.8906259765625,4.66922,9.7531259765625,4.67134L9.7502259765625,4.67139L9.7473259765625,4.67154Q9.7211959765625,4.67295,9.6999759765625,4.65315Q9.2260259765625,4.22656,8.6173959765625,4.03785Q7.938235976562501,3.825097,7.2375759765625,3.9467470000000002Q6.1114659765625,4.13795,5.3893359765625,5.04626Q4.9553159765625,5.59361,4.8185359765625,6.2777899999999995Q4.7089159765625,6.81076,4.7925359765625,7.34827L4.7925359765625,7.34871L4.7942659765625,7.36L4.7946459765625,7.36251L4.7869259765625,7.36252L2.8437959765625,7.36252L2.8411559765625,3.816036Q2.8408759765625,3.731275,2.8761459765625,3.693477Q2.9123159765625,3.65471,3.0024259765625,3.655172L5.8562559765625,3.6572139999999997L7.7288159765625,3.6572139999999997ZM13.1172259765625,6.41671L13.1176259765625,6.42238Q13.1221259765625,6.479839999999999,13.1325259765625,6.53661L13.1708259765625,6.74586L15.2780259765625,5.52989L13.1420259765625,4.2957L13.1269259765625,4.53732Q13.1258259765625,4.55448,13.1238259765625,4.58249Q13.1200259765625,4.63444,13.1198259765625,4.65977Q13.1198259765625,4.69009,13.1200259765625,4.74873Q13.1204259765625,4.94469,13.1181259765625,5.041589999999999Q13.1161259765625,5.1333400000000005,13.0592259765625,5.15513Q13.0330259765625,5.1651,12.9415259765625,5.1653L12.9350259765625,5.1653199999999995L11.1878259765625,5.16643L10.2347259765625,5.1661L10.1639259765625,5.1661Q10.0250259765625,5.1661,9.9759259765625,5.27051Q9.9338259765625,5.35971,9.9963259765625,5.46552Q10.0086259765625,5.48675,10.0345259765625,5.5293399999999995Q10.1010259765625,5.6386199999999995,10.1219259765625,5.6912Q10.2030259765625,5.89498,10.4419259765625,5.89414L12.9609259765625,5.89273Q13.1155259765625,5.89273,13.1164259765625,6.05043L13.1172259765625,6.41671ZM9.4777859765625,5.12946Q8.7563559765625,4.40428,7.734595976562501,4.40313L7.7345359765624995,4.40313Q6.7077759765625,4.40165,5.9795059765625,5.131209999999999Q5.2526659765625,5.85933,5.2598359765625,6.87607Q5.2516359765625,7.88512,5.9699059765625,8.6126Q6.6927859765625,9.344750000000001,7.7231059765625,9.34987Q8.7459059765625,9.35488,9.4716959765625,8.628630000000001Q10.1964259765625,7.90346,10.1977259765625,6.87725Q10.1986259765625,5.85408,9.4777859765625,5.12946ZM13.4168259765625,6.25751L13.4164259765625,6.0486699999999995Q13.4137259765625,5.5927299999999995,12.9607259765625,5.5927299999999995L10.4409259765625,5.5941399999999994Q10.4062259765625,5.59426,10.4007259765625,5.5803899999999995Q10.3821259765625,5.53362,10.3449259765625,5.46614L11.1880259765625,5.46643L12.9358259765625,5.46532L12.9421259765625,5.4653Q13.0885259765625,5.464980000000001,13.1664259765625,5.4353Q13.4115259765625,5.34147,13.4181259765625,5.04857Q13.4201259765625,4.9620999999999995,13.4200259765625,4.8028200000000005L14.6781259765625,5.52972L13.4168259765625,6.25751ZM6.1918259765625,5.34315Q6.8320359765625,4.70181,7.7341559765625,4.70313L7.7342059765624995,4.70313Q8.6314859765625,4.70412,9.2651059765625,5.34104Q9.8985259765625,5.97778,9.8977259765625,6.87685Q9.8965259765625,7.77909,9.2594959765625,8.41657Q8.6222059765625,9.054269999999999,7.7245959765625,9.04987Q6.8187859765625,9.04538,6.1833859765625,8.40182Q5.5526359765625,7.76299,5.5598259765625,6.87395Q5.5535459765625,5.98257,6.1918259765625,5.34315ZM12.1282259765625,6.09094L10.5756259765625,6.0911100000000005L10.5754259765625,6.0911100000000005L10.3162259765625,6.09158L10.3389259765625,6.261150000000001Q10.3453259765625,6.30941,10.3579259765625,6.39875Q10.3754259765625,6.52269,10.3828259765625,6.58275Q10.4844259765625,7.35635,10.1275259765625,8.0488Q9.5013559765625,9.27909,8.1450159765625,9.51371Q7.5962059765625,9.607700000000001,7.0579159765625,9.464279999999999Q6.4318859765625,9.300419999999999,5.9492959765625,8.87027L5.9467359765625,8.86798L5.9440759765625,8.86582Q5.8462459765625,8.78633,5.7202159765625,8.7836L2.7891759765625,8.77979Q2.6644259765625,8.77979,2.5996359765625,8.852730000000001Q2.5430959765625,8.9164,2.5438359765625,9.03016Q2.5485359765625,9.59055,2.5438359765625,10.15048Q2.5438359765625,10.274709999999999,2.6059459765625,10.33607Q2.6665559765625,10.39595,2.7863159765625,10.39595L12.6695259765625,10.39595Q12.7913259765625,10.39595,12.8561259765625,10.326830000000001Q12.9160259765625,10.262789999999999,12.9158259765625,10.14686L12.9158259765625,6.33988Q12.9158259765625,6.2165300000000006,12.8488259765625,6.151619999999999Q12.7840259765625,6.08891,12.6634259765625,6.08939L12.1282259765625,6.09094ZM10.6598259765625,6.3911Q10.6739259765625,6.4921500000000005,10.6806259765625,6.5461Q10.7941259765625,7.41036,10.3942259765625,8.18624Q9.7005659765625,9.54909,8.1961459765625,9.80932Q7.5822659765625,9.91446,6.9806759765625,9.75417Q6.2882359765625,9.57293,5.7529459765625,9.09712Q5.7356459765625,9.084,5.7137159765625,9.08353L2.8442359765625,9.07986Q2.8481059765625,9.58786,2.8442759765625,10.09595L12.6158259765625,10.09595L12.6158259765625,6.389530000000001L12.1291259765625,6.3909400000000005L10.6598259765625,6.3911ZM2.2889559765625,7.00593L0.18137697656250001,8.22221L0.40638197656249997,8.35215L2.2596959765625,9.422450000000001L2.3182559765625,9.24893Q2.3329159765625,9.205490000000001,2.3392759765625,9.16008L2.3406959765625,9.14996L2.3413159765625,8.9536L2.3423059765625,8.71592Q2.3431059765625,8.6234,2.3931759765625,8.60174Q2.4252659765625,8.58776,2.5097259765625,8.587530000000001L3.8049059765625,8.58635L4.5809259765625,8.586269999999999Q4.9309959765625,8.586269999999999,5.2807559765625,8.58297Q5.4245259765625,8.58298,5.4764759765625,8.49014Q5.5263959765625,8.400960000000001,5.4572159765625,8.27785Q5.4425159765625,8.251660000000001,5.4125759765625,8.201509999999999Q5.3505659765625,8.097660000000001,5.3300459765625,8.0476Q5.2498159765625,7.85379,5.0295759765625,7.85462L2.4798859765625,7.85604Q2.3449759765625,7.85604,2.3430759765625,7.72127Q2.3421359765625,7.65336,2.3423259765625,7.51634Q2.3424859765625,7.40251,2.3419859765625,7.34523L2.3419359765625,7.34047L2.3415959765625,7.33572Q2.3372459765625,7.27554,2.3266059765625,7.21615L2.2889559765625,7.00593ZM0.7814159765625,8.2223L2.0413359765625,8.94991L2.0423059765625,8.714680000000001Q2.0448059765625,8.42557,2.2740659765625,8.3264Q2.3623459765625,8.28792,2.5089259765625,8.28753L3.8046359765625004,8.286349999999999L4.5808959765625,8.28627Q4.8475159765625,8.28627,5.1138959765625,8.28435Q5.0725359765625,8.21035,5.0524559765625,8.16137Q5.0496359765625,8.15455,5.0307259765625,8.154620000000001L2.4800459765625,8.15604Q2.0491959765625,8.156030000000001,2.0431059765625,7.72552Q2.0421359765625,7.65523,2.0423259765625,7.51593L2.0423559765625,7.49462L0.7814159765625,8.2223ZM13.9379259765625,10.60065Q13.9254259765625,10.6014,13.9216259765625,10.6014L7.7287159765625,10.60156L1.5514959765625,10.60156Q1.5414759765625,10.60156,1.5227159765625,10.601890000000001Q1.4931759765625,10.60243,1.4810659765625,10.60177Q1.3723959765625,10.59482,1.3058359765625,10.66159Q1.2421959765625,10.72542,1.2445159765625,10.83328Q1.2456359765625,10.891580000000001,1.2449259765625,11.01077Q1.2438859765625,11.18667,1.2479259765625,11.27647Q1.2518659765625,11.40795,1.3032459765625,11.53147L1.3040259765625,11.53334L1.3048559765625,11.53519Q1.4904959765625,11.94952,1.9723159765624998,11.94952L13.4867259765625,11.94795Q13.5614259765625,11.94795,13.6019259765625,11.94439Q13.8152259765625,11.92766,13.9838259765625,11.78053Q14.1615259765625,11.6254,14.1884259765625,11.41017Q14.2081259765625,11.25128,14.2087259765625,10.93833Q14.2088259765625,10.85031,14.2093259765625,10.80691Q14.2093259765625,10.66721,14.0577259765625,10.61299Q14.0098259765625,10.59633,13.9379259765625,10.60065ZM13.9087259765625,10.901399999999999L7.7287259765625,10.90156L1.5514959765625,10.90156L1.5451559765625,10.901589999999999Q1.5452959765625,10.94903,1.5449259765625,11.01255Q1.5439259765625,11.18081,1.5476259765625,11.26298Q1.5500359765625,11.34269,1.5794659765625,11.41438Q1.6859459765625,11.64952,1.9723159765624998,11.64952L13.4867259765625,11.64795Q13.5482259765625,11.64795,13.5756259765625,11.64554Q13.8594259765625,11.62327,13.8907259765625,11.37299Q13.9082259765625,11.23247,13.9087259765625,10.93783Q13.9087259765625,10.91845,13.9087259765625,10.901399999999999Z" fill-rule="evenodd" fill="#2D2E33" fill-opacity="1"/></g><g><path d="M7.70799659375,7.127276875C7.56444059375,7.098526875,7.41234359375,7.095266875,7.27924159375,7.035186875C7.03791959375,6.926136875,6.91114899375,6.700346875,6.89141878375,6.396486875C6.87448619375,6.124984875,6.92086619375,5.880358875,7.10594359375,5.692224875C7.19075259375,5.606631875,7.28675159375,5.541238875,7.39865059375,5.525831875C7.47418359375,5.515561875,7.5034835937499995,5.483719875,7.50686959375,5.393505875C7.50805959375,5.280592875,7.57687959375,5.183962975,7.67206959375,5.161548055C7.78352859375,5.135356075,7.87937959375,5.180549475,7.92841359375,5.290108875C7.94494359375,5.328221875,7.95390359375,5.370168875,7.95462359375,5.412848875C7.9555035937500005,5.483719875,7.98053359375,5.512136875,8.04090359375,5.522065875C8.34258359375,5.571195875,8.57522359375,5.892341875,8.56815359375,6.244296875C8.56565359375,6.375256875,8.48585359375,6.485676875,8.38175359375,6.502446875C8.25660359375,6.522476875,8.16281359375,6.456396875,8.12453359375,6.321166875C8.11890359375,6.302306875,8.114373593749999,6.2830368750000005,8.11098359375,6.263476875C8.08286359375,6.087664875,8.03162359375,6.036822875,7.87997059375,6.036308875Q7.73273359375,6.036308875,7.58549559375,6.036308875C7.41440659375,6.036308875,7.35521659375,6.109747875,7.35241959375,6.310206875C7.35094759375,6.420106875,7.37435759375,6.508956875,7.46873659375,6.551236875C7.49877859375,6.563126875,7.53035459375,6.568916875,7.56208559375,6.568356875C7.69209659375,6.570236875,7.82225359375,6.568356875,7.95226359375,6.569726875C8.28325359375,6.574686875,8.55770359375,6.892926875,8.56889359375,7.277586875C8.57493359375,7.480946875,8.56079359375,7.675416875,8.45287359375,7.847456875000001C8.35098359375,8.009916875,8.215673593750001,8.112966875,8.04796359375,8.147206875C7.9774435937499995,8.161586875,7.9555035937500005,8.188806875000001,7.95285359375,8.269776875C7.9498535937499994,8.388376875,7.87704459375,8.488986875,7.77705159375,8.512696875C7.67731159375,8.536446875,7.57620359375,8.479846875,7.52998659375,8.374376875C7.51324559375,8.333306875,7.50435559375,8.288516875,7.50392459375,8.243076875C7.50274659375,8.182816875,7.48463759375,8.161416875,7.43207359375,8.152176875C7.11639659375,8.095856874999999,6.88420341375,7.779156875,6.89156526375,7.422236874999999C6.89208289375,7.288256875,6.97805539375,7.175556875,7.09239759375,7.158946875C7.19458059375,7.140116875,7.29941359375,7.220746875,7.33489659375,7.346056875C7.34182359375,7.370356875000001,7.34709059375,7.395256874999999,7.35065159375,7.420526875C7.37023459375,7.569456875,7.42147259375,7.623546875000001,7.55015759375,7.625946875C7.67280659375,7.627486875000001,7.79545459375,7.627996875,7.91825359375,7.625946875C8.04104359375,7.623896875,8.10332359375,7.548056875,8.105833593749999,7.408536874999999C8.10787359375,7.3601568749999995,8.10644359375,7.311656875000001,8.10156359375,7.263546874999999C8.09140359375,7.182406875,8.02794359375,7.119066875,7.95432359375,7.108106875C7.94457359375,7.106366875,7.93473359375,7.105396875,7.92487359375,7.105196875L7.75839459375,7.127296875C7.75721559375,7.1339668750000005,7.70917359375,7.119576875,7.70799659375,7.127276875Z" fill="#2D2E33" fill-opacity="1"/><path d="M7.77063959375,7.176106875Q7.76173959375,7.178246875,7.75077359375,7.178336874999999L7.74951259375,7.186586875L7.69817459375,7.176306875Q7.65507859375,7.167676875,7.56588059375,7.154946875Q7.35701459375,7.125146875,7.25866959375,7.0807568750000005Q6.87447209375,6.9071468750000005,6.84152389375,6.399726875Q6.81161229375,5.920119875,7.07029959375,5.657159875Q7.22701959375,5.498990875,7.39183159375,5.476299875Q7.45379559375,5.467873875,7.45688159375,5.392237875Q7.45813559375,5.292311875,7.51349259375,5.214584575Q7.57087859375,5.134008475,7.66060959375,5.112879175Q7.88072759375,5.061152975,7.97404359375,5.269685875Q8.00336359375,5.337232875,8.00461359375,5.412010875Q8.00528359375,5.465534875,8.04901359375,5.472728875Q8.29513359375,5.512808875,8.46072359375,5.740186875Q8.62379359375,5.964085875,8.61814359375,6.245306875Q8.61597359375,6.3590968750000005,8.55358359375,6.445466875Q8.48824359375,6.535936875,8.38971359375,6.551816875Q8.14877359375,6.5903768750000005,8.07642359375,6.334786875Q8.06731359375,6.304316875,8.06172359375,6.272006875Q8.043093593750001,6.155606875,8.00671359375,6.119778875Q7.9730535937500004,6.086624875,7.87980059375,6.086308875L7.58549559375,6.086308875Q7.48110359375,6.086308875,7.44410559375,6.130277875Q7.40427459375,6.177616875,7.40241459375,6.310906875Q7.40035159375,6.464946875,7.48819459375,6.5051668750000005Q7.52379859375,6.519026875,7.56120359375,6.518366875L7.56200659375,6.518346875L7.56280959375,6.518366875Q7.63217659375,6.519366875,7.77139059375,6.519216875Q7.8922535937500005,6.519086875,7.95279359375,6.519726875Q8.22312359375,6.523786875,8.41825359375,6.748486875Q8.60994359375,6.969216875,8.61887359375,7.276126875Q8.63023359375,7.658826875,8.49522359375,7.874036875Q8.32771359375,8.141126875,8.05797359375,8.196196875Q8.00493359375,8.207016875,8.00282359375,8.271416875Q8.00019359375,8.375486875,7.94183359375,8.456136875Q7.88165959375,8.539276875,7.78858759375,8.561346875Q7.69484859375,8.583676875,7.60902359375,8.535626875Q7.52558559375,8.488906875,7.48419059375,8.394436875L7.48393059375,8.393846875L7.48368559375,8.393246874999999Q7.45467159375,8.322076875,7.4539275937500005,8.243546875Q7.45320359375,8.206656875,7.42341359375,8.201416875Q7.16738859375,8.155736875,7.00045459375,7.929626875Q6.83569229375,7.706456875000001,6.84157589375,7.421206875Q6.84201869375,7.304776875,6.90954279375,7.216256875Q6.97895509375,7.125256875,7.08428059375,7.109606875Q7.18236559375,7.091926875,7.26918459375,7.158846875Q7.35190859375,7.222616875,7.38300559375,7.332436875Q7.39432959375,7.372166875,7.40016259375,7.413546875Q7.41280159375,7.509656875,7.44544959375,7.543446875Q7.47550159375,7.574546874999999,7.55108859375,7.575956875Q7.76027959375,7.5785768749999995,7.91741359375,7.575956875Q8.05286359375,7.573686875,8.05584359375,7.407646875L8.05585359375,7.407036875L8.05587359375,7.406426875Q8.05878359375,7.337616875,8.051873593749999,7.2691968750000004Q8.03936359375,7.1713168750000005,7.9469635937500005,7.1575668750000006L7.94624359375,7.157456874999999L7.94553359375,7.157326875Q7.93650359375,7.1557168749999995,7.92739359375,7.155306875L7.77063959375,7.176106875ZM7.74698259375,7.078366875Q7.7447275937499995,7.078056875,7.74174159375,7.077616875Q7.72229759375,7.074766875,7.70734659375,7.076216875Q7.66201059375,7.067646875,7.58000359375,7.055946875Q7.38520659375,7.0281568750000005,7.29981459375,6.989606875Q6.97037099375,6.840746875,6.94131369375,6.393246875Q6.91419619375,5.958435875,7.14158759375,5.727289875Q7.27421459375,5.593435875,7.40547059375,5.575364875Q7.55082059375,5.555600875,7.55683459375,5.395380875L7.55686059375,5.394706875L7.55686759375,5.394031875Q7.55849359375,5.239659775,7.68352959375,5.210216975Q7.82319159375,5.177397575,7.88277059375,5.310532875Q7.90370359375,5.358792875,7.90462359375,5.413685875Q7.90633359375,5.550603875,8.03278359375,5.571402875Q8.23849359375,5.604901875,8.37989359375,5.799057875Q8.52313359375,5.995739875,8.51816359375,6.243296875Q8.51459359375,6.430396875,8.37379359375,6.453086875Q8.22077359375,6.4775768750000005,8.17264359375,6.307546875Q8.16483359375,6.281386875,8.16025359375,6.254936875Q8.13665359375,6.107401875,8.07689359375,6.048533875Q8.01417359375,5.986763875,7.88013959375,5.986308875L7.58549559375,5.986308875Q7.30693459375,5.986308875,7.30242459375,6.309506875Q7.29946859375,6.530196875,7.44829459375,6.596866875L7.44930659375,6.597326875L7.45033859375,6.597726875Q7.50463259375,6.619216875,7.56213159375,6.6183668749999995Q7.63227059375,6.619366875,7.77149659375,6.619216875Q7.8917835937500005,6.619096875,7.95173359375,6.619726875Q8.17692359375,6.623096875,8.34275359375,6.814056875Q8.51102359375,7.007826875,8.51891359375,7.279036875Q8.52937359375,7.631416875,8.41051359375,7.820886874999999Q8.265743593749999,8.051716875,8.03796359375,8.098216875Q7.90757359375,8.124806875,7.9028835937499995,8.268136875Q7.89872359375,8.432456875,7.76551659375,8.464036875Q7.63752759375,8.494526875,7.57604459375,8.354906875000001Q7.55448259375,8.301686875,7.55392259375,8.242596875Q7.55157559375,8.122426875,7.44073259375,8.102926875Q7.22417459375,8.064296875,7.08090559375,7.870236875Q6.93637349375,7.674466875,6.94155459375,7.4232668749999995Q6.94188829375,7.338736875,6.98905159375,7.276906875Q7.03401959375,7.2179568750000005,7.09958359375,7.208426875L7.10052459375,7.208296875L7.10145959375,7.208126875Q7.23680959375,7.183176875,7.28678859375,7.359676875Q7.29626959375,7.392946875,7.30114159375,7.427506875000001Q7.33327659375,7.671916875,7.54922659375,7.675936875Q7.76048759375,7.678596875,7.91908359375,7.675936875Q8.15084359375,7.6720668750000005,8.15581359375,7.410046875Q8.15898359375,7.334056875,8.15130359375,7.2584968750000005L8.15124359375,7.257916874999999L8.15117359375,7.257336875Q8.12947359375,7.083976875,7.96239359375,7.058756875Q7.94424359375,7.055576875,7.92587359375,7.055206875L7.92206359375,7.0551368750000005L7.74698259375,7.078366875Z" fill-rule="evenodd" fill="#2D2E33" fill-opacity="1"/></g></g></g></svg>