<svg xmlns="http://www.w3.org/2000/svg" xmlns:xlink="http://www.w3.org/1999/xlink" fill="none" version="1.1" width="280" height="62" viewBox="0 0 280 62"><g><path d="M0,2L0,48.9718L2.54534,48.9718L2.54534,25.0282L35.1719,25.0282L35.1719,48.9718L37.9486,48.9718L37.9486,2L35.1719,2L35.1719,22.6338L2.54534,22.6338L2.54534,2L0,2ZM43.2707,15.0282L40.7254,15.0282L55.1489,48.4085L52.0637,55.7324C50.9067,58.7606,49.4412,59.8169,46.7416,59.8169C46.2017,59.8169,45.6618,59.8169,44.4277,59.6056L44.4277,61.6479C45.7389,61.9296,46.356,62,47.2044,62C50.5211,62,52.6036,60.169,54.3776,55.662L70.7295,15.0282L68.2613,15.0282L56.3059,45.4507L43.2707,15.0282ZM75.8973,62L75.8973,41.5775C78.1341,46.9296,82.762,49.8873,88.9325,49.8873C98.1883,49.8873,104.436,42.8451,104.436,32.1408C104.436,21.0845,98.3425,14.1127,88.9325,14.1127C82.762,14.1127,78.1341,17.0704,75.8973,22.4225L75.8973,15.0282L73.5833,15.0282L73.5833,62L75.8973,62ZM89.0868,16.2958C96.7228,16.2958,101.891,22.6338,101.891,31.9296C101.891,41.2254,96.7228,47.7042,89.0868,47.7042C81.1422,47.7042,75.8202,41.2254,75.8202,31.9296C75.8202,22.6338,81.1422,16.2958,89.0868,16.2958ZM137.911,39.1127L135.52,39.1127C134.826,41.0845,134.594,41.9296,133.746,42.9859C131.663,45.8732,127.575,47.7042,122.947,47.7042C117.78,47.7042,113.846,45.3803,111.763,41.3662C110.606,39.1831,110.066,37,109.835,32.3521L138.605,32.3521C138.528,27.3521,138.065,24.7465,136.523,21.7183C134.054,16.7183,129.504,14.1127,123.564,14.1127C113.383,14.1127,107.29,21.1549,107.29,32.4225C107.29,36.8592,108.37,40.9437,110.144,43.6901C112.689,47.5634,117.625,49.8873,123.256,49.8873C131.046,49.8873,136.908,45.4507,137.911,39.1127ZM135.828,30.169L109.835,30.169C110.375,21.3662,115.157,16.2958,123.41,16.2958C127.035,16.2958,130.506,17.7746,132.589,20.2394C134.749,22.7042,135.597,25.169,135.828,30.169ZM143.002,38.9718L140.456,38.9718C140.996,45.8028,146.01,50.0282,154.34,50.0282C162.439,50.0282,167.915,46.1549,167.915,40.3099C167.915,37.4225,166.604,35.0986,164.058,33.4789C162.207,32.3521,160.665,31.8592,155.188,30.5915C149.635,29.2535,148.478,28.9718,146.781,27.9859C145.007,26.8592,144.081,25.3099,144.081,23.338C144.081,19.3944,148.247,16.2254,154.031,16.2254C160.125,16.2254,163.519,18.9014,164.213,24.3239L166.989,24.3239C166.604,21.5775,165.987,20.0282,164.753,18.4084C162.516,15.662,158.659,14.0423,154.031,14.0423C146.704,14.0423,141.305,17.9859,141.305,23.5493C141.305,26.2958,142.539,28.4084,144.93,29.8873C146.704,30.9437,148.247,31.4366,154.186,32.7747C159.431,34.1127,160.896,34.5352,162.593,35.5211C164.444,36.6479,165.37,38.2676,165.37,40.3099C165.37,44.8169,161.127,47.6338,154.648,47.6338C147.552,47.6338,143.619,44.6056,143.002,38.9718ZM174.474,48.8732L184.518,2.49129L198.29,2.49129L198.829,0L169.121,0L168.582,2.49129L182.354,2.49129L172.31,48.8732L174.474,48.8732ZM189.598,13.5555L181.95,48.8732L183.918,48.8732L188.265,28.7964C190.011,20.7363,194.74,14.9477,199.659,14.9477C200.118,14.9477,200.314,14.9477,200.758,15.021L201.265,12.6763L200.085,12.6763C196.019,12.6763,192.709,15.2408,190.09,20.37L191.566,13.5555L189.598,13.5555ZM219.562,49.0198L220.038,46.8216C219.269,47.0414,218.957,46.9681,218.498,46.9681C216.858,46.9681,216.339,45.4294,216.989,42.4252L221.258,22.7147C221.813,20.1501,221.785,18.4649,221.315,16.9994C220.312,14.3616,217.201,12.6763,213.004,12.6763C206.118,12.6763,200.673,16.9261,198.935,23.7405L201.099,23.7405C202.567,18.1718,206.676,14.9477,212.381,14.9477C217.824,14.9477,220.369,17.7321,219.29,22.7147L218.989,24.1069C218.592,25.9387,217.959,26.7447,216.586,27.3309C215.147,27.9171,214.772,28.1369,209.088,28.9429C204.192,29.7489,201.607,30.4817,199.209,32.1669C196.501,34.072,194.765,36.6366,194.067,39.8606C192.782,45.7958,195.893,49.8991,201.861,49.8991C205.206,49.8991,208.771,48.5802,211.689,46.3087C213.173,45.2096,213.612,44.6967,215.088,42.4252C214.074,47.4078,214.792,49.2396,217.875,49.2396C218.399,49.2396,218.727,49.2396,219.562,49.0198ZM217.973,28.7964L216.006,37.8823C215.577,39.8606,213.955,42.2054,211.787,44.0372C209,46.3087,205.698,47.6276,202.353,47.6276C197.631,47.6276,195.2,44.6234,196.168,40.1537C197.31,34.8781,201.095,32.2402,209.153,31.0678L210.709,30.848L212.265,30.6282L213.689,30.4084L214.852,30.1886C216.308,29.8222,216.734,29.6757,217.973,28.7964ZM253.721,0L249.119,21.2492C248.423,15.6805,245.155,12.603,239.908,12.603C231.842,12.603,225.074,19.9303,222.662,31.0678C220.187,42.4985,223.716,49.8258,231.848,49.8258C237.094,49.8258,241.695,46.7483,244.803,41.1796L243.137,48.8732L245.104,48.8732L255.688,0L253.721,0ZM239.22,14.8745C246.106,14.8745,249.137,21.4691,247.027,31.2144C244.916,40.9597,239.029,47.5543,232.143,47.5543C225.65,47.5543,222.684,40.9597,224.795,31.2144C226.905,21.4691,232.727,14.8745,239.22,14.8745ZM276.903,38.615L274.87,38.615C273.835,40.6666,273.448,41.5459,272.489,42.645C270.067,45.6492,266.179,47.5543,262.244,47.5543C257.85,47.5543,255.029,45.1363,254.163,40.9597C253.671,38.6883,253.704,36.4168,254.555,31.5808L279.016,31.5808C280.077,26.3784,280.271,23.6673,279.641,20.5165C278.669,15.3141,275.387,12.603,270.338,12.603C261.681,12.603,254.913,19.9303,252.375,31.654C251.375,36.2702,251.373,40.5201,252.262,43.3778C253.554,47.4078,257.227,49.8258,262.015,49.8258C268.638,49.8258,274.622,45.2096,276.903,38.615ZM277.147,29.3093L255.046,29.3093C257.489,20.1501,262.697,14.8745,269.715,14.8745C272.797,14.8745,275.415,16.4132,276.63,18.9778C277.911,21.5423,278.077,24.1069,277.147,29.3093Z" fill="#072722" fill-opacity="1"/></g></svg>