<svg xmlns="http://www.w3.org/2000/svg" xmlns:xlink="http://www.w3.org/1999/xlink" fill="none" version="1.1" width="250" height="62" viewBox="0 0 250 62"><g><path d="M0,2L0,48.9718L2.54534,48.9718L2.54534,25.0282L35.1719,25.0282L35.1719,48.9718L37.9486,48.9718L37.9486,2L35.1719,2L35.1719,22.6338L2.54534,22.6338L2.54534,2L0,2ZM43.2707,15.0282L40.7254,15.0282L55.1489,48.4085L52.0637,55.7324C50.9067,58.7606,49.4412,59.8169,46.7416,59.8169C46.2017,59.8169,45.6618,59.8169,44.4277,59.6056L44.4277,61.6479C45.7389,61.9296,46.356,62,47.2044,62C50.5211,62,52.6036,60.169,54.3776,55.662L70.7295,15.0282L68.2613,15.0282L56.3059,45.4507L43.2707,15.0282ZM75.8973,62L75.8973,41.5775C78.1341,46.9296,82.762,49.8873,88.9325,49.8873C98.1883,49.8873,104.436,42.8451,104.436,32.1408C104.436,21.0845,98.3425,14.1127,88.9325,14.1127C82.762,14.1127,78.1341,17.0704,75.8973,22.4225L75.8973,15.0282L73.5833,15.0282L73.5833,62L75.8973,62ZM89.0868,16.2958C96.7228,16.2958,101.891,22.6338,101.891,31.9296C101.891,41.2254,96.7228,47.7042,89.0868,47.7042C81.1422,47.7042,75.8202,41.2254,75.8202,31.9296C75.8202,22.6338,81.1422,16.2958,89.0868,16.2958ZM137.911,39.1127L135.52,39.1127C134.826,41.0845,134.594,41.9296,133.746,42.9859C131.663,45.8732,127.575,47.7042,122.947,47.7042C117.78,47.7042,113.846,45.3803,111.763,41.3662C110.606,39.1831,110.066,37,109.835,32.3521L138.605,32.3521C138.528,27.3521,138.065,24.7465,136.523,21.7183C134.054,16.7183,129.504,14.1127,123.564,14.1127C113.383,14.1127,107.29,21.1549,107.29,32.4225C107.29,36.8592,108.37,40.9437,110.144,43.6901C112.689,47.5634,117.625,49.8873,123.256,49.8873C131.046,49.8873,136.908,45.4507,137.911,39.1127ZM135.828,30.169L109.835,30.169C110.375,21.3662,115.157,16.2958,123.41,16.2958C127.035,16.2958,130.506,17.7746,132.589,20.2394C134.749,22.7042,135.597,25.169,135.828,30.169ZM144.474,48.8732L154.518,2.49127L168.29,2.49127L168.829,0L139.121,0L138.582,2.49127L152.354,2.49127L142.31,48.8732L144.474,48.8732ZM159.598,13.5555L151.95,48.8732L153.918,48.8732L158.265,28.7964C160.011,20.7363,164.74,14.9477,169.659,14.9477C170.118,14.9477,170.314,14.9477,170.758,15.021L171.265,12.6763L170.085,12.6763C166.019,12.6763,162.709,15.2408,160.09,20.37L161.566,13.5555L159.598,13.5555ZM189.562,49.0198L190.038,46.8216C189.269,47.0414,188.957,46.9681,188.498,46.9681C186.858,46.9681,186.339,45.4294,186.989,42.4252L191.258,22.7147C191.813,20.1501,191.785,18.4649,191.315,16.9994C190.312,14.3616,187.201,12.6763,183.004,12.6763C176.118,12.6763,170.673,16.9261,168.935,23.7405L171.099,23.7405C172.567,18.1718,176.676,14.9477,182.381,14.9477C187.824,14.9477,190.369,17.7321,189.29,22.7147L188.989,24.1069C188.592,25.9387,187.959,26.7447,186.586,27.3309C185.147,27.9171,184.772,28.1369,179.088,28.9429C174.192,29.7489,171.607,30.4817,169.209,32.1669C166.501,34.072,164.765,36.6366,164.067,39.8606C162.782,45.7958,165.893,49.8991,171.861,49.8991C175.206,49.8991,178.771,48.5802,181.689,46.3087C183.173,45.2096,183.612,44.6967,185.088,42.4252C184.074,47.4078,184.792,49.2396,187.875,49.2396C188.399,49.2396,188.727,49.2396,189.562,49.0198ZM187.973,28.7964L186.006,37.8823C185.577,39.8606,183.955,42.2054,181.787,44.0372C179,46.3087,175.698,47.6276,172.353,47.6276C167.631,47.6276,165.2,44.6234,166.168,40.1537C167.31,34.8781,171.095,32.2402,179.153,31.0678L180.709,30.848L182.265,30.6282L183.689,30.4084L184.852,30.1886C186.308,29.8222,186.734,29.6757,187.973,28.7964ZM223.721,0L219.119,21.2492C218.423,15.6805,215.155,12.603,209.908,12.603C201.842,12.603,195.074,19.9303,192.662,31.0678C190.187,42.4985,193.716,49.8258,201.848,49.8258C207.094,49.8258,211.695,46.7483,214.803,41.1796L213.137,48.8732L215.104,48.8732L225.688,0L223.721,0ZM209.22,14.8745C216.106,14.8745,219.137,21.4691,217.027,31.2144C214.916,40.9597,209.029,47.5543,202.143,47.5543C195.65,47.5543,192.684,40.9597,194.795,31.2144C196.905,21.4691,202.727,14.8745,209.22,14.8745ZM246.903,38.615L244.87,38.615C243.835,40.6666,243.448,41.5459,242.489,42.645C240.067,45.6492,236.179,47.5543,232.244,47.5543C227.85,47.5543,225.029,45.1363,224.163,40.9597C223.671,38.6883,223.704,36.4168,224.555,31.5808L249.016,31.5808C250.077,26.3784,250.271,23.6673,249.641,20.5165C248.669,15.3141,245.387,12.603,240.338,12.603C231.681,12.603,224.913,19.9303,222.375,31.654C221.375,36.2702,221.373,40.5201,222.262,43.3778C223.554,47.4078,227.227,49.8258,232.015,49.8258C238.638,49.8258,244.622,45.2096,246.903,38.615ZM247.147,29.3093L225.046,29.3093C227.489,20.1501,232.697,14.8745,239.715,14.8745C242.797,14.8745,245.415,16.4132,246.63,18.9778C247.911,21.5423,248.077,24.1069,247.147,29.3093Z" fill="#072722" fill-opacity="1" style="mix-blend-mode:passthrough"/></g></svg>