<svg xmlns="http://www.w3.org/2000/svg" xmlns:xlink="http://www.w3.org/1999/xlink" fill="none" version="1.1" width="20" height="20" viewBox="0 0 20 20"><defs><clipPath id="master_svg0_4019_72158"><rect x="0" y="0" width="20" height="20" rx="0"/></clipPath></defs><g clip-path="url(#master_svg0_4019_72158)"><g><g><path d="M5.32399,18.997891990051272C5.29903,18.944441990051267,5.2396,18.941621990051267,5.1974,18.91349199005127C4.91888,18.730281990051267,4.83202,18.34521199005127,5.05181,18.10221199005127C5.38061,17.738601990051272,5.71223,17.37217199005127,6.14828,17.12495199005127C6.58719,16.874221990051268,7.08461,16.74404199005127,7.59008,16.74762199005127C9.11312,16.74762199005127,10.63615,16.74446199005127,12.1592,16.75008199005127C12.7855,16.75219199005127,13.2757,16.50814199005127,13.6502,16.00703199005127Q15.5696,13.43992199005127,17.4963,10.88055199005127C17.517,10.85277199005127,17.5367,10.82464199005127,17.5691,10.77963199005127C17.2423,10.692801990051269,16.8967,10.70802199005127,16.5788,10.82323199005127C16.317500000000003,10.914551990051269,16.0842,11.07206199005127,15.9019,11.28039199005127Q14.5916,12.77212199005127,13.2852,14.26702199005127C13.153,14.418591990051269,12.9993,14.49982199005127,12.7981,14.49982199005127Q10.56652,14.49982199005127,8.33454,14.49982199005127C7.99625,14.49982199005127,7.74551,14.24979199005127,7.74973,13.930131990051269C7.75395,13.61681199005127,8.00047,13.37697199005127,8.332080000000001,13.37662199005127C9.57976,13.37451199005127,10.82886,13.37170199005127,12.0751,13.380491990051269C12.251,13.380491990051269,12.2622,13.32598199005127,12.2323,13.18110199005127C12.1177,12.62759199005127,11.6795,12.25729199005127,11.1155,12.25131199005127C10.72863,12.24709199005127,10.34181,12.27277199005127,9.96272,12.17114199005127C9.66982,12.087641990051269,9.39139,11.959921990051269,9.13703,11.79240199005127C7.44168,10.720901990051269,5.35951,10.94842199005127,3.936,12.36104199005127C3.30794,12.98452199005127,2.6848,13.61224199005127,2.0591999999999997,14.237481990051268C1.651272,14.64506199005127,1.263744,14.58633199005127,1,14.07818199005127L1,13.761691990051268C1.110069,13.57355199005127,1.272184,13.43113199005127,1.423749,13.27957199005127C2.02825,12.675071990051269,2.6257200000000003,12.06353199005127,3.23971,11.46853199005127C4.9519400000000005,9.80834699005127,7.61224,9.51858059005127,9.63603,10.782091990051269C10.03094,11.02825199005127,10.43289,11.154141990051269,10.89427,11.12707199005127C11.5536,11.08909199005127,12.1444,11.26949199005127,12.6367,11.722071990051269C12.8987,11.961201990051268,13.0855,12.25378199005127,13.2289,12.60438199005127C13.3161,12.506621990051269,13.3889,12.42539199005127,13.461,12.34345199005127C13.9839,11.749151990051269,14.504,11.154141990051269,15.028,10.561599990051269C15.9446,9.513113290051269,17.4903,9.29299899005127,18.6631,10.04395799005127C18.8059,10.13363099005127,18.898,10.260931990051269,18.9986,10.38541799005127L18.9986,10.77224199005127C18.9501,10.842571990051269,18.9036,10.91290199005127,18.8527,10.98007199005127Q16.6998,13.83202199005127,14.5469,16.68538199005127C13.9442,17.485051990051268,13.1459,17.876101990051268,12.1444,17.876101990051268C10.65057,17.87152199005127,9.15531,17.876101990051268,7.66288,17.876101990051268C7.55171,17.87484199005127,7.44059,17.88083199005127,7.33021,17.894031990051268C6.92615,17.94783199005127,6.59454,18.14019199005127,6.30653,18.42504199005127C6.09799,18.63111199005127,5.92146,18.87727199005127,5.64013,19.000001990051267L5.32399,18.997891990051272Z" fill="#2D2E33" fill-opacity="1"/><path d="M5.26014,19.097461990051272L5.63947,19.10000199005127L5.66068,19.10014199005127L5.68012,19.09165199005127Q5.913,18.99006199005127,6.2333,18.64612199005127Q6.32828,18.54413199005127,6.37685,18.49614199005127Q6.81416,18.06363199005127,7.34208,17.99332199005127Q7.50134,17.974281990051267,7.66294,17.97610199005127L10.65084,17.97406199005127L12.1444,17.97610199005127Q13.6993,17.97610199005127,14.6268,16.74562199005127L18.9323,11.04054199005127Q18.9726,10.98739199005127,19.0467,10.87896199005127Q19.0695,10.84556199005127,19.0809,10.82903199005127L19.0986,10.803391990051269L19.0986,10.350069990051269L19.0764,10.32257399005127Q19.0649,10.30835699005127,19.0417,10.279314990051269Q18.8568,10.04749699005127,18.717,9.95974299005127Q17.8062,9.376501990051269,16.7354,9.52898579005127Q15.6646,9.68146839005127,14.953,10.49547799005127L14.4095,11.11217199005127L13.386,12.27737199005127L13.3857,12.27771199005127L13.2579,12.42134199005127Q13.0391,11.95390199005127,12.7044,11.648451990051269Q11.9614,10.96543199005127,10.88841,11.02724199005127Q10.27602,11.06318199005127,9.68899,10.69726199005127Q8.142859999999999,9.73197399005127,6.31032,9.92950099005127Q4.479839999999999,10.12680599005127,3.17012,11.39671199005127Q2.73867,11.81482199005127,1.892872,12.666521990051269Q1.533505,13.028391990051269,1.353038,13.20886199005127Q1.328008,13.23389199005127,1.276985,13.28381199005127Q1.0120822,13.54301199005127,0.9136865,13.711191990051269L0.9,13.73459199005127L0.9,14.10259199005127L0.9112432,14.12425199005127Q1.132569,14.55067199005127,1.460628,14.60011199005127Q1.788312,14.64950199005127,2.12989,14.30821199005127L2.1327499999999997,14.30535199005127L4.00644,12.43202199005127Q5.04924,11.39721199005127,6.44544,11.24458199005127Q7.84162,11.091961990051269,9.08203,11.87592199005127Q9.47862,12.13712199005127,9.93683,12.267731990051269Q10.25672,12.35349199005127,10.89518,12.35107199005127Q11.0415,12.35051199005127,11.1144,12.351311990051268Q11.5005,12.35540199005127,11.7783,12.587601990051269Q12.0552,12.81915199005127,12.1344,13.20131199005127Q12.1463,13.25894199005127,12.1477,13.27437199005127Q12.1242,13.280491990051269,12.0754,13.280491990051269L9.5773,13.27474199005127L8.33197,13.27662199005127Q8.0442,13.27693199005127,7.84899,13.463771990051269Q7.65348,13.65090199005127,7.64974,13.928811990051269Q7.646,14.212311990051269,7.84366,14.40623199005127Q8.04099,14.59982199005127,8.33454,14.59982199005127L12.7981,14.59982199005127Q13.1276,14.59982199005127,13.3604,14.332921990051268L15.9771,11.34625199005127Q16.238,11.04826199005127,16.6129,10.91725199005127Q17.001,10.77659199005127,17.3983,10.84456199005127L13.5701,15.94717199005127Q13.0425,16.65306199005127,12.1594,16.65008199005127L10.26327,16.64677199005127L8.71676,16.64722199005127L7.59079,16.64763199005127Q6.79216,16.64196199005127,6.09896,17.03796199005127Q5.64832,17.29345199005127,4.977650000000001,18.03513199005127Q4.781750000000001,18.25172199005127,4.83958,18.549341990051268Q4.8949300000000004,18.83421199005127,5.14193,18.996691990051268Q5.16427,19.01159199005127,5.20543,19.028501990051268Q5.23326,19.03993199005127,5.23339,19.04021199005127L5.26014,19.097461990051272ZM5.61866,18.899851990051268L5.37173,18.89820199005127Q5.33684,18.86626199005127,5.28142,18.84349199005127Q5.25866,18.834141990051272,5.25287,18.83028199005127Q5.07519,18.713401990051267,5.03591,18.51120199005127Q4.9971499999999995,18.311721990051268,5.12597,18.16929199005127Q5.77502,17.45151199005127,6.1976,17.21194199005127Q6.84459,16.84233199005127,7.58937,16.84762199005127L8.71683,16.84722199005127L10.26333,16.84677199005127L12.159,16.85008199005127Q13.1425,16.85339199005127,13.7303,16.066891990051268L17.5763,10.94056199005127Q17.5913,10.92048199005127,17.6233,10.875701990051269Q17.6403,10.851871990051269,17.6503,10.83799199005127L17.7349,10.72022199005127L17.5948,10.68298199005127Q17.0625,10.54157299005127,16.544800000000002,10.729211990051269Q16.1222,10.87685199005127,15.8266,11.214521990051269L13.21,14.20112199005127Q13.0366,14.399821990051269,12.7981,14.399821990051269L8.33454,14.399821990051269Q8.12271,14.399821990051269,7.98373,14.263471990051269Q7.84711,14.12944199005127,7.84973,13.931451990051269Q7.85234,13.73741199005127,7.98728,13.608251990051269Q8.12458,13.47684199005127,8.33219,13.47662199005127L9.5776,13.47474199005127L12.0749,13.48049199005127Q12.2544,13.48049199005127,12.3142,13.39041199005127Q12.3626,13.31750199005127,12.3303,13.160891990051269Q12.237,12.710391990051269,11.9066,12.434161990051269Q11.5741,12.15617199005127,11.1165,12.151321990051269Q11.0423,12.15051199005127,10.89442,12.15107199005127Q10.28269,12.153391990051269,9.98862,12.074551990051269Q9.56298,11.95320199005127,9.19203,11.708891990051269Q7.88937,10.885551990051269,6.42371,11.04577199005127Q4.95798,11.20599199005127,3.86556,12.29005199005127L1.991346,14.163911990051268L1.988497,14.16676199005127Q1.718335,14.43669199005127,1.490433,14.402351990051269Q1.27043,14.36919199005127,1.1,14.053361990051268L1.1,13.78981199005127Q1.189649,13.649081990051268,1.416859,13.426761990051268Q1.468673,13.37606199005127,1.494459,13.35028199005127Q1.675114,13.169621990051269,2.03478,12.80745199005127Q2.87922,11.95712199005127,3.30931,11.54034199005127Q4.56967,10.31827999005127,6.33175,10.12834899005127Q8.09557,9.93822999005127,9.58307,10.86691199005127Q10.22422,11.266561990051269,10.90012,11.22689199005127Q11.8884,11.16997199005127,12.5691,11.79569199005127Q12.9216,12.11751199005127,13.1364,12.642261990051269L13.1971,12.79063199005127L13.5351,12.41063199005127L13.5361,12.40953199005127L14.5597,11.24416199005127L15.103,10.62772199005127Q15.7663,9.86900299005127,16.7636,9.726987990051269Q17.7609,9.58497329005127,18.6092,10.12817399005127Q18.7216,10.198789990051269,18.8854,10.40405099005127Q18.8925,10.41300799005127,18.8986,10.42058699005127L18.8986,10.74121199005127Q18.891,10.752291990051269,18.8815,10.766181990051269Q18.8103,10.87047199005127,18.773,10.91960199005127L14.4671,16.62514199005127Q13.5996,17.77610199005127,12.1444,17.77610199005127L10.65111,17.77406199005127L7.66281,17.77610199005127Q7.49055,17.77415199005127,7.31833,17.79474199005127Q6.72124,17.874241990051267,6.23621,18.35394199005127Q6.18476,18.40478199005127,6.08693,18.50982199005127Q5.80867,18.808631990051268,5.61866,18.899851990051268Z" fill-rule="evenodd" fill="#2D2E33" fill-opacity="1"/></g><g><path d="M13.61982375,1C13.65499375,1.0678701,13.725323750000001,1.0316493,13.77666375,1.0446606C14.50424375,1.225061,15.05213375,1.885125,15.05705375,2.6366199999999997Q15.07147375,4.93858,15.05705375,7.24053C15.050023750000001,8.12566,14.31224375,8.86238,13.42606375,8.86942Q11.12410375,8.887699999999999,8.82214375,8.86942C7.93737375,8.86203,7.19889025,8.12284,7.19220921,7.23913Q7.17497775,4.93717,7.19220921,2.63521C7.19642895,1.900246,7.70914675,1.266909,8.423013749999999,1.0640021C8.46943375,1.050639,8.53097375,1.0587272,8.55734375,1.000000202007L13.61982375,1ZM9.99774375,2.12988C9.63483375,2.12988,9.27191375,2.12425,8.90760375,2.12566C8.54328375,2.12707,8.31153375,2.35916,8.30978375,2.7196100000000003Q8.30731375,4.93506,8.30978375,7.14805C8.30978375,7.51694,8.54468375,7.74938,8.91568375,7.74973Q11.12129375,7.74973,13.326543749999999,7.74973C13.69930375,7.74973,13.93104375,7.51905,13.933153749999999,7.1491C13.93526375,6.77916,13.933153749999999,6.41062,13.933153749999999,6.04208Q13.933153749999999,4.38155,13.933153749999999,2.72067C13.933153749999999,2.36268,13.696133750000001,2.12812,13.33779375,2.12671C12.979453750000001,2.12531,12.61162375,2.12918,12.24765375,2.13093L9.99774375,2.12988Z" fill="#2D2E33" fill-opacity="1"/><path d="M13.68063375,0.9L8.55734375,0.9000002L8.49263375,0.9000002L8.46872375,0.9532451Q8.46105375,0.9551561,8.44371375,0.9579371Q8.41269375,0.9629133,8.39567375,0.967812Q7.82539675,1.129905,7.46305875,1.588053Q7.09555175,2.05274,7.09221205,2.63446Q7.07497475,4.93717,7.09221195,7.23988Q7.09753315,7.94373,7.60716675,8.45359Q8.11688175,8.96353,8.82135375,8.96941Q11.12409375,8.9877,13.42685375,8.96941Q14.132423750000001,8.963809999999999,14.64190375,8.455020000000001Q15.15145375,7.94615,15.15705375,7.24116Q15.171463750000001,4.93857,15.15705375,2.63596Q15.153153750000001,2.04096,14.765493750000001,1.5634519999999998Q14.382663749999999,1.0918866,13.80123375,0.9477251Q13.77029375,0.9398858,13.71839375,0.942391Q13.70892375,0.942848,13.70292375,0.9430133L13.68063375,0.9ZM8.60550375,1.1Q8.558243749999999,1.142124,8.47538375,1.155413Q8.45635375,1.158467,8.45035375,1.160192Q7.94220275,1.304627,7.61992875,1.712117Q7.29515275,2.12277,7.29220675,2.63596Q7.27498045,4.93717,7.29220675,7.23837Q7.29690775,7.86029,7.74861975,8.3122Q8.20044375,8.764230000000001,8.82294375,8.76942Q11.12410375,8.787700000000001,13.42526375,8.76942Q14.04900375,8.76447,14.500573750000001,8.313500000000001Q14.95210375,7.86257,14.95705375,7.23991Q14.97146375,4.93858,14.95705375,2.63727Q14.953613749999999,2.1125,14.61022375,1.689508Q14.26956375,1.269902,13.75209375,1.141596Q13.75011375,1.141093,13.72803375,1.142158Q13.62964375,1.1469070000000001,13.57359375,1.1L8.60550375,1.1ZM12.24770375,2.0309299999999997L12.247383750000001,2.0309299999999997L9.99778375,2.02988L9.99704375,2.02988L8.90798375,2.0256600000000002Q8.59324375,2.0268699999999997,8.40217375,2.21713Q8.211303749999999,2.40719,8.20978375,2.71912L8.20978375,7.14805Q8.20978375,7.46622,8.40318375,7.65808Q8.596063749999999,7.84943,8.91559375,7.84973L13.326543749999999,7.84973Q13.647063750000001,7.84973,13.839253750000001,7.65916Q14.03133375,7.46869,14.03315375,7.14967L14.03315375,6.04208L14.03315375,2.72067Q14.03315375,2.41096,13.84039375,2.2191Q13.64834375,2.02793,13.338183749999999,2.02671L12.56404375,2.0290600000000003L12.24770375,2.0309299999999997ZM9.99769375,2.22988L12.24760375,2.23093L12.24824375,2.23093L12.56464375,2.22906L13.33740375,2.2267099999999997Q13.833153750000001,2.22866,13.833153750000001,2.72067L13.833153750000001,6.04208L13.833153750000001,7.14853Q13.83029375,7.64974,13.326543749999999,7.64973L8.91578375,7.64973Q8.409783749999999,7.64926,8.409783749999999,7.14805L8.409783749999999,2.7201Q8.41218375,2.22757,8.90721375,2.22566L9.99704375,2.22988L9.99769375,2.22988Z" fill-rule="evenodd" fill="#2D2E33" fill-opacity="1"/></g><g><path d="M12.24952375,2.129879117012024C12.24952375,2.492087117012024,12.24952375,2.853944117012024,12.24671375,3.2157991170120237C12.24389375,3.5776591170120238,12.01778375,3.809749117012024,11.65803375,3.811509117012024C11.29828375,3.813269117012024,10.94557175,3.8139691170120242,10.58934075,3.811509117012024C10.23311075,3.809049117012024,10.00136895,3.5773091170120237,9.99890708,3.2157991170120237C9.996445215,2.854296117012024,9.99890708,2.492087117012024,9.99609375,2.129879251159024L12.24952375,2.129879117012024Z" fill="#2D2E33" fill-opacity="1"/></g></g></g></svg>