<svg xmlns="http://www.w3.org/2000/svg" xmlns:xlink="http://www.w3.org/1999/xlink" fill="none" version="1.1" width="24" height="20" viewBox="0 0 24 20"><g><g></g><g><g><path d="M18.5,6Q18.5,6.19651,18.48074,6.39207Q18.46148,6.58763,18.42314,6.78036Q18.3848,6.97309,18.327759999999998,7.16114Q18.27072,7.34918,18.195520000000002,7.53073Q18.12032,7.71228,18.02768,7.88559Q17.93505,8.05889,17.825879999999998,8.22228Q17.7167,8.385670000000001,17.59204,8.537569999999999Q17.46738,8.68948,17.32843,8.82843Q17.18948,8.96738,17.03757,9.09204Q16.88567,9.2167,16.722279999999998,9.32588Q16.558889999999998,9.43505,16.38559,9.52768Q16.21228,9.62032,16.03073,9.69552Q15.84918,9.77072,15.66114,9.82776Q15.47309,9.8848,15.28036,9.92314Q15.08763,9.96148,14.89207,9.98074Q14.69651,10,14.5,10Q14.30349,10,14.10793,9.98074Q13.91237,9.96148,13.71964,9.92314Q13.52691,9.8848,13.33886,9.82776Q13.15082,9.77072,12.96927,9.69552Q12.78772,9.62032,12.61441,9.52768Q12.44111,9.43505,12.27772,9.32588Q12.11433,9.2167,11.96243,9.09204Q11.81052,8.96738,11.67157,8.82843Q11.53262,8.68948,11.407958,8.537569999999999Q11.283295,8.385670000000001,11.174121,8.22228Q11.064948,8.05889,10.972315,7.88559Q10.879682,7.71228,10.804482,7.53073Q10.729282,7.34918,10.672239,7.16114Q10.615196,6.97309,10.5768589,6.78036Q10.5385222,6.58763,10.5192611,6.39207Q10.5,6.19651,10.5,6Q10.5,5.80349,10.5192611,5.60793Q10.5385222,5.41237,10.5768589,5.21964Q10.615196,5.02691,10.672239,4.83886Q10.729282,4.6508199999999995,10.804482,4.46927Q10.879682,4.28772,10.972315,4.1144099999999995Q11.064948,3.94111,11.174121,3.77772Q11.283295,3.61433,11.407958,3.46243Q11.53262,3.31052,11.67157,3.17157Q11.81052,3.03262,11.96243,2.907958Q12.11433,2.783295,12.27772,2.674121Q12.44111,2.5649480000000002,12.61441,2.472315Q12.78772,2.379682,12.96927,2.304482Q13.15082,2.229282,13.33886,2.172239Q13.52691,2.115196,13.71964,2.0768589Q13.91237,2.0385222,14.10793,2.0192611Q14.30349,2,14.5,2Q14.69651,2,14.89207,2.0192611Q15.08763,2.0385222,15.28036,2.0768589Q15.47309,2.115196,15.66114,2.172239Q15.84918,2.229282,16.03073,2.304482Q16.21228,2.379682,16.38559,2.472315Q16.558889999999998,2.5649480000000002,16.722279999999998,2.674121Q16.88567,2.783295,17.03757,2.907958Q17.18948,3.03262,17.32843,3.17157Q17.46738,3.31052,17.59204,3.46243Q17.7167,3.61433,17.825879999999998,3.77772Q17.93505,3.94111,18.02768,4.1144099999999995Q18.12032,4.28772,18.195520000000002,4.46927Q18.27072,4.6508199999999995,18.327759999999998,4.83886Q18.3848,5.02691,18.42314,5.21964Q18.46148,5.41237,18.48074,5.60793Q18.5,5.80349,18.5,6Z" fill="#C0C4CC" fill-opacity="1"/></g><g><path d="M7.5,16.999986494140625L7.5,17.499986494140625L22.5,17.499986494140625L22.5,16.999986494140625C22.5,15.133156494140625,22.5,14.199736494140625,22.136699999999998,13.486696494140626C21.8171,12.859486494140626,21.3072,12.349531494140624,20.68,12.029948494140625C19.966900000000003,11.666656494140625,19.0335,11.666656494140625,17.16667,11.666656494140625L12.83333,11.666656494140625C10.9665,11.666656494140625,10.03308,11.666656494140625,9.32004,12.029948494140625C8.69283,12.349531494140624,8.182887000000001,12.859486494140626,7.863312,13.486696494140626C7.5,14.199736494140625,7.5,15.133156494140625,7.5,16.999986494140625Z" fill="#C0C4CC" fill-opacity="1"/></g><g><path d="M10.96447,9.53553Q9.5,8.071069999999999,9.5,6Q9.5,3.9539999999999997,10.92923,2.5Q10.94674,2.48219,10.96447,2.464466Q10.98735,2.441585,11.01038,2.419059Q11.054680000000001,2.375735,11.09952,2.333731C10.59499,2.113614,10.050460000000001,2,9.5,2C7.29086,2,5.5,3.79086,5.5,6C5.5,8.20914,7.29086,10,9.5,10C10.050460000000001,10,10.59499,9.886389999999999,11.09952,9.66627Q11.03136,9.60243,10.96447,9.53553Z" fill-rule="evenodd" fill="#E6E7EB" fill-opacity="1"/></g><g><path d="M6.5,17.499986494140625L6.5,16.999986494140625Q6.5,15.325726494140625,6.54874,14.729236494140626Q6.63293,13.698776494140624,6.9723,13.032716494140626Q7.38597,12.220836494140626,8.05733,11.666656494140625L7.33333,11.666656494140625C5.4665,11.666656494140625,4.53308,11.666656494140625,3.82004,12.029948494140625C3.19283,12.349531494140624,2.682887,12.859486494140626,2.363312,13.486696494140626C2,14.199736494140625,2,15.133156494140625,2,16.999986494140625L2,17.499986494140625L6.5,17.499986494140625Z" fill-rule="evenodd" fill="#E6E7EB" fill-opacity="1"/></g></g></g></svg>