<svg xmlns="http://www.w3.org/2000/svg" xmlns:xlink="http://www.w3.org/1999/xlink" fill="none" version="1.1" width="16" height="16" viewBox="0 0 16 16"><defs><clipPath id="master_svg0_347_02496"><rect x="0" y="0" width="16" height="16" rx="0"/></clipPath></defs><g clip-path="url(#master_svg0_347_02496)"><g><path d="M3.82254,11.93221Q2.750001,10.66466,2.750001,9Q2.750001,8.9261315,2.73559,8.853682Q2.7211790000000002,8.781233,2.69291,8.712987Q2.6646419999999997,8.644742,2.623603,8.583322Q2.582564,8.521903,2.530331,8.46967Q2.478098,8.417437,2.416678,8.376398Q2.355259,8.335359,2.287013,8.30709Q2.218767,8.278822,2.146318,8.264410999999999Q2.0738686,8.25,2,8.25Q1.9261314999999999,8.25,1.853682,8.264410999999999Q1.781233,8.278822,1.712988,8.30709Q1.644742,8.335359,1.583323,8.376398Q1.521904,8.417437,1.469671,8.46967Q1.417438,8.521903,1.3763990000000002,8.583322Q1.33536,8.644742,1.307091,8.712987Q1.278823,8.781233,1.264412,8.853682Q1.2500010000000001,8.9261315,1.2500010000000001,9Q1.2500010000000001,11.21412,2.677461,12.90112Q4.52395,15.08333,8,15.08333Q11.47606,15.08333,13.3225,12.90112Q14.75,11.21412,14.75,9Q14.75,8.9261315,14.7356,8.853682Q14.7212,8.781233,14.6929,8.712987Q14.6646,8.644742,14.6236,8.583322Q14.5826,8.521903,14.5303,8.46967Q14.4781,8.417437,14.4167,8.376398Q14.3553,8.335359,14.287,8.30709Q14.2188,8.278822,14.1463,8.264410999999999Q14.0739,8.25,14,8.25Q13.8508,8.25,13.713,8.30709Q13.5752,8.364181,13.4697,8.46967Q13.3642,8.575159,13.3071,8.712988Q13.25,8.850816,13.25,9L13.25,9.0011173Q13.2496,10.66509,12.1775,11.93221Q10.78036,13.58333,8,13.58333Q5.21965,13.58333,3.82254,11.93221Z" fill-rule="evenodd" fill="#333333" fill-opacity="1"/></g><g><path d="M7.251953125,1.7001953125L7.251953125,11.0000353125Q7.251953125,11.0739053125,7.266364125,11.1463453125Q7.280775125,11.2187953125,7.309043125,11.2870453125Q7.337312125,11.3552853125,7.378351125,11.4167053125Q7.419390125,11.4781253125,7.471623125,11.5303653125Q7.523856125,11.5825953125,7.585275125,11.6236353125Q7.646695125,11.6646753125,7.714940125,11.6929453125Q7.783186125,11.7211953125,7.855635125,11.7355953125Q7.928084625,11.7499953125,8.001953125,11.7499953125Q8.075821625,11.7499953125,8.148271125,11.7355953125Q8.220720125,11.7211953125,8.288966125,11.6929453125Q8.357211125,11.6646753125,8.418631125,11.6236353125Q8.480050125,11.5825953125,8.532283125,11.5303653125Q8.584516125,11.4781253125,8.625555125,11.4167053125Q8.666594125,11.3552853125,8.694863125,11.2870453125Q8.723131125,11.2187953125,8.737542125000001,11.1463453125Q8.751953125,11.0739053125,8.751953125,11.0000353125L8.751953125,1.7001953125Q8.751953125,1.6263268124999999,8.737542125000001,1.5538773125Q8.723131125,1.4814283125,8.694863125,1.4131823125Q8.666594125,1.3449373125,8.625555125,1.2835173125Q8.584516125,1.2220983125,8.532283125,1.1698653125Q8.480050125,1.1176323125,8.418631125,1.0765933125Q8.357211125,1.0355543125,8.288966125,1.0072853125Q8.220720125,0.9790173125,8.148271125,0.9646063125Q8.075821625,0.9501953125,8.001953125,0.9501953125Q7.928084625,0.9501953125,7.855635125,0.9646063125Q7.783186125,0.9790173125,7.714940125,1.0072853125Q7.646695125,1.0355543125,7.585275125,1.0765933125Q7.523856125,1.1176323125,7.471623125,1.1698653125Q7.419390125,1.2220983125,7.378351125,1.2835173125Q7.337312125,1.3449373125,7.309043125,1.4131823125Q7.280775125,1.4814283125,7.266364125,1.5538773125Q7.251953125,1.6263268124999999,7.251953125,1.7001953125Z" fill-rule="evenodd" fill="#333333" fill-opacity="1"/></g><g><path d="M8,2.7272859765625L11.46967,6.1969559765625Q11.57516,6.3024459765625,11.71299,6.3595359765625Q11.85081,6.4166259765625,12,6.4166259765625Q12.01802,6.4166259765625,12.03603,6.4157559765625Q12.1757,6.4090459765625,12.30358,6.3524359765625Q12.43145,6.2958359765625,12.53033,6.1969559765625Q12.63582,6.0914659765625,12.69291,5.9536359765625Q12.75,5.8158059765625,12.75,5.6666259765625Q12.75,5.517445976562501,12.69291,5.3796159765625Q12.63582,5.2417859765625,12.53033,5.1362959765625L8.53033,1.1362959765625Q8.478100000000001,1.0840629765625,8.41668,1.0430239765625Q8.355260000000001,1.0019849765625,8.28701,0.9737159765625Q8.21877,0.9454479765625,8.14632,0.9310369765625Q8.07387,0.9166259765625,8,0.9166259765625Q7.926130000000001,0.9166259765625,7.853680000000001,0.9310369765625Q7.78123,0.9454479765625,7.71299,0.9737159765625Q7.6447400000000005,1.0019849765625,7.5833200000000005,1.0430239765625Q7.5219000000000005,1.0840629765625,7.46967,1.1362959765625L3.46967,5.1362959765625Q3.364181,5.2417859765625,3.30709,5.3796159765625Q3.25,5.517445976562501,3.25,5.6666259765625Q3.25,5.8158059765625,3.30709,5.9536359765625Q3.364181,6.0914659765625,3.46967,6.1969559765625Q3.575159,6.3024459765625,3.712987,6.3595359765625Q3.850816,6.4166259765625,4,6.4166259765625Q4.149184,6.4166259765625,4.287013,6.3595359765625Q4.424841,6.3024459765625,4.53033,6.1969559765625L8,2.7272859765625Z" fill-rule="evenodd" fill="#333333" fill-opacity="1"/></g></g></svg>