<svg xmlns="http://www.w3.org/2000/svg" xmlns:xlink="http://www.w3.org/1999/xlink" fill="none" version="1.1" width="16" height="16" viewBox="0 0 16 16"><defs><clipPath id="master_svg0_4158_45417"><rect x="0" y="0" width="16" height="16" rx="0"/></clipPath></defs><g clip-path="url(#master_svg0_4158_45417)"><g><path d="M1.5259535625,6.427788125C2.1610525625,3.802938125,4.3171115625,1.820630125,6.9859515625,1.407785225C9.6542215625,0.997132125,12.3063015625,2.2386391249999997,13.7000015625,4.550788125C15.8741015625,8.156798125,14.2035015625,12.850378125,10.2399515625,14.271778125C8.9970315625,14.716478125,7.6499615625,14.781578125,6.3699515625,14.458778125C3.7633215625,13.818878125,1.8012935625,11.668078125,1.4029536625,9.013788125C1.2732405625,8.152148125,1.3146979625,7.273388125,1.5249535625,6.427788125L1.5259535625,6.427788125Z" fill="#F7F8F8" fill-opacity="1"/></g><g><path d="M1.93905859375,10.79959375C1.78373459375,10.46281375,1.65695599375,10.11358375,1.56005859375,9.75559375L14.42305859375,9.75559375C14.32505859375,10.11363375,14.19725859375,10.46285375,14.04105859375,10.79959375L1.94005859375,10.79959375L1.93905859375,10.79959375ZM3.47205859375,12.90359375C3.12956859375,12.58889375,2.82119859375,12.23899375,2.55205859375,11.85959375L13.42505859375,11.85959375C13.15565859375,12.23869375,12.84725859375,12.58859375,12.50505859375,12.90359375L3.47205859375,12.90359375ZM10.94405859375,13.97259375C9.52590859375,14.67299375,7.90456859375,14.84489375,6.37105859375,14.45759375C5.91028859375,14.34419375,5.46304859375,14.18159375,5.03705859375,13.97259375L10.94405859375,13.97259375ZM14.65405859375,7.70259375C14.66895859375,8.051023749999999,14.65665859375,8.40009375,14.61705859375,8.746593749999999L9.16005859375,8.746593749999999L9.16005859375,7.70259375L14.65505859375,7.70259375L14.65405859375,7.70259375ZM14.21805859375,5.60659375C14.34505859375,5.93759375,14.44505859375,6.27859375,14.51805859375,6.62459375L9.158058593749999,6.62459375L9.158058593749999,5.60659375L14.21805859375,5.60659375ZM12.91205859375,3.49359375C13.20505859375,3.81359375,13.46705859375,4.16359375,13.69405859375,4.53759375L9.15905859375,4.53759375L9.15905859375,3.49359375L12.91205859375,3.49359375ZM10.00505859375,1.63959375C10.60376859375,1.82855075,11.17273859375,2.10125275,11.69505859375,2.44959375L9.16005859375,2.44959375L9.16005859375,1.43359375L9.23805859375,1.44659375C9.45305859375,1.48659375,9.66605859375,1.53859375,9.87605859375,1.60059375L9.95405859375,1.62859375L10.00605859375,1.63959375L10.00505859375,1.63959375Z" fill="#949E9C" fill-opacity="1"/></g><g><path d="M5.81713640625,2.0199691250000003L5.75413640625,1.831969125L5.97813640625,1.705968125L5.79313640625,1.705968125C6.90449640625,1.315772925,8.09948640625,1.227434125,9.25613640625,1.449968125L9.25613640625,8.768968125L1.37213600625,8.768968125C1.35613680625,8.626038125000001,1.34479750625,8.482628125,1.33813595625,8.338968125000001L1.40813600625,8.291968125L1.56113640625,8.399968125000001L1.49813640625,8.219968125000001L1.6501364062500001,8.112968125L1.46213640625,8.112968125L1.40813600625,7.923968125L1.34513600625,8.112968125L1.33113598825,8.112968125C1.32499217625,7.644348125,1.3685692062500001,7.176398125,1.46113640625,6.716968125L1.56913640625,6.800968125L1.50713640625,6.620968125L1.65913640625,6.503968125L1.50713640625,6.503968125L1.52613640625,6.426968125C1.78122540625,5.372148125,2.28995040625,4.3955481249999995,3.0081364062500002,3.581968125L3.0241364062500002,3.592968125L3.0171364062499997,3.570968125C3.71140640625,2.7884181249999997,4.58018640625,2.180346125,5.55313640625,1.795967125L5.60113640625,1.858967125L5.53813640625,2.047967125L5.69113640625,1.930967125L5.81713640625,2.020967125L5.81713640625,2.0199691250000003ZM8.55513640625,8.273968125L8.70813640625,8.381968125L8.65413640625,8.201968125L8.807136406249999,8.094968125000001L8.618136406249999,8.094968125000001L8.55513640625,7.905968125L8.492136406250001,8.094968125000001L8.304136406249999,8.094968125000001L8.457136406250001,8.202968125L8.403136406249999,8.382968125L8.55513640625,8.273968125ZM8.00813640625,2.8299681249999997L7.95413640625,2.613968125L8.10613640625,2.532968125L7.91813640625,2.532968125L7.85513640625,2.343968125L7.79213640625,2.532968125L7.60313640625,2.532968125L7.75613640625,2.640968125L7.70213640625,2.8299681249999997L7.85513640625,2.7129681249999997L8.00813640625,2.8299681249999997ZM8.00813640625,4.446968125L7.95413640625,4.266968125L8.10613640625,4.149968125L7.91813640625,4.149968125L7.85513640625,3.969968125L7.79213640625,4.149968125L7.60313640625,4.149968125L7.75613640625,4.266968125L7.70213640625,4.446968125L7.85513640625,4.329968125000001L8.00813640625,4.446968125ZM8.01713640625,6.063968125L7.95413640625,5.874968125L8.088136406250001,5.767968125L7.91813640625,5.767968125L7.85513640625,5.587968125L7.80113640625,5.767968125L7.60313640625,5.767968125L7.76513640625,5.874968125L7.70213640625,6.064968125L7.85513640625,5.946968125L8.01713640625,6.063968125ZM7.80113640625,7.563968125L7.95413640625,7.671968125L7.91813640625,7.438968125L8.07913640625,7.321968125L7.88213640625,7.321968125L7.82813640625,7.141968125L7.76513640625,7.321968125L7.57713640625,7.321968125L7.70213640625,7.491968125L7.64813640625,7.671968125L7.80113640625,7.564968125L7.80113640625,7.563968125ZM7.12813640625,3.484968125L7.28013640625,3.592968125L7.21713640625,3.412968125L7.37913640625,3.3059681249999997L7.18113640625,3.3059681249999997L7.12813640625,3.116968125L7.06513640625,3.3059681249999997L6.87613640625,3.3059681249999997L7.02913640625,3.413968125L6.96613640625,3.593968125L7.12813640625,3.484968125ZM7.12813640625,5.084968125L7.28013640625,5.192968125L7.21713640625,5.012968125L7.37913640625,4.895968125L7.18113640625,4.895968125L7.12813640625,4.715968125L7.06513640625,4.895968125L6.87613640625,4.895968125L7.02913640625,5.012968125L6.96613640625,5.192968125L7.12813640625,5.084968125ZM7.28013640625,6.827968125L7.21713640625,6.647968125L7.37913640625,6.530968125L7.18113640625,6.530968125L7.12813640625,6.350968125L7.06513640625,6.530968125L6.87613640625,6.530968125L7.02913640625,6.647968125L6.96613640625,6.827968125L7.12813640625,6.710968125L7.28013640625,6.827968125ZM7.12813640625,8.273968125L7.28013640625,8.381968125L7.21713640625,8.220968124999999L7.37913640625,8.094968125000001L7.18113640625,8.094968125000001L7.12813640625,7.905968125L7.06513640625,8.094968125000001L6.87613640625,8.094968125000001L7.02913640625,8.202968125L6.96613640625,8.382968125L7.12813640625,8.273968125ZM6.58013640625,2.8299681249999997L6.51713640625,2.613968125L6.69713640625,2.532968125L6.49913640625,2.532968125L6.44513640625,2.343968125L6.38213640625,2.532968125L6.17613640625,2.532968125L6.32813640625,2.640968125L6.26613640625,2.8299681249999997L6.42713640625,2.7129681249999997L6.58013640625,2.8299681249999997ZM6.58013640625,4.446968125L6.51713640625,4.266968125L6.69713640625,4.149968125L6.49913640625,4.149968125L6.44513640625,3.969968125L6.38213640625,4.149968125L6.17613640625,4.149968125L6.32813640625,4.266968125L6.26613640625,4.446968125L6.42713640625,4.329968125000001L6.58013640625,4.446968125ZM6.57013640625,6.063968125L6.51713640625,5.874968125L6.63413640625,5.767968125L6.44513640625,5.767968125L6.38213640625,5.587968125L6.38213640625,5.767968125L6.13113640625,5.767968125L6.28413640625,5.874968125L6.23013640625,6.064968125L6.38213640625,5.946968125L6.57113640625,6.063968125L6.57013640625,6.063968125ZM6.38213640625,7.546968125L6.51713640625,7.671968125L6.47213640625,7.474968125L6.62513640625,7.357968125L6.43613640625,7.357968125L6.38213640625,7.177968125L6.38213640625,7.321968125L6.15013640625,7.321968125L6.28513640625,7.474968125L6.22213640625,7.654968125L6.38313640625,7.546968125L6.38213640625,7.546968125ZM5.81713640625,3.609968125L5.75413640625,3.429968125L5.97813640625,3.3049681250000003L5.79013640625,3.3049681250000003L5.72713640625,3.115968125L5.67313640625,3.3049681250000003L5.48413640625,3.3049681250000003L5.56513640625,3.430968125L5.50213640625,3.610968125L5.65513640625,3.501968125L5.81713640625,3.609968125ZM5.81713640625,5.209968125L5.75413640625,5.029968125L5.97813640625,4.894968125L5.79013640625,4.894968125L5.72713640625,4.714968125L5.67313640625,4.894968125L5.48413640625,4.894968125L5.56513640625,5.029968125L5.50213640625,5.209968125L5.65513640625,5.101968125L5.81713640625,5.209968125ZM5.81713640625,6.844968125L5.75413640625,6.664968125L5.97813640625,6.529968125L5.79013640625,6.529968125L5.72713640625,6.349968125L5.67313640625,6.529968125L5.48413640625,6.529968125L5.56513640625,6.664968125L5.50213640625,6.844968125L5.65513640625,6.727968125L5.81713640625,6.844968125ZM5.65513640625,8.290968125L5.81713640625,8.398968125L5.79013640625,8.218968125L5.97813640625,8.093968125L5.79013640625,8.093968125L5.72713640625,7.904968125L5.67313640625,8.093968125L5.48413640625,8.093968125L5.56513640625,8.219968125000001L5.50213640625,8.399968125000001L5.65513640625,8.290968125ZM5.1521364062499995,2.739968125L5.089136406250001,2.559968125L5.24213640625,2.442968125L5.05313640625,2.442968125L4.99113640625,2.262968125L4.93713640625,2.442968125L4.73913640625,2.442968125L4.90113640625,2.559968125L4.838136406249999,2.739968125L4.99113640625,2.631968125L5.1521364062499995,2.739968125ZM5.1521364062499995,4.383968125L5.089136406250001,4.203968124999999L5.24213640625,4.095968125000001L5.05313640625,4.095968125000001L4.99113640625,3.915968125L4.93713640625,4.095968125000001L4.73913640625,4.095968125000001L4.90113640625,4.203968124999999L4.838136406249999,4.383968125L4.99113640625,4.275968125L5.1521364062499995,4.383968125ZM5.1521364062499995,6.000968125L5.089136406250001,5.820968125L5.23313640625,5.704968125L5.03513640625,5.704968125L4.9821364062499995,5.524968125L4.91913640625,5.704968125L4.730136406250001,5.704968125L4.900136406250001,5.821968125L4.838136406249999,6.001968125L5.00013640625,5.891968125L5.1521364062499995,5.999968125L5.1521364062499995,6.000968125ZM4.93713640625,7.500968125L5.089136406250001,7.618968125L5.06213640625,7.438968125L5.21513640625,7.321968125L5.02613640625,7.321968125L4.964136406250001,7.141968125L4.91013640625,7.321968125L4.71213640625,7.321968125L4.84713640625,7.438968125L4.78413640625,7.618968125L4.93713640625,7.501968125L4.93713640625,7.500968125ZM4.416136406250001,3.592968125L4.36213640625,3.412968125L4.51513640625,3.3059681249999997L4.32613640625,3.3059681249999997L4.26313640625,3.116968125L4.20913640625,3.3059681249999997L4.01213640625,3.3059681249999997L4.17313640625,3.413968125L4.11113640625,3.593968125L4.26313640625,3.484968125L4.416136406250001,3.592968125ZM4.416136406250001,5.192968125L4.36213640625,5.012968125L4.51513640625,4.895968125L4.32613640625,4.895968125L4.26313640625,4.715968125L4.20913640625,4.895968125L4.01213640625,4.895968125L4.17313640625,5.012968125L4.11113640625,5.192968125L4.26313640625,5.084968125L4.416136406250001,5.192968125ZM4.416136406250001,6.827968125L4.36213640625,6.647968125L4.51513640625,6.530968125L4.32613640625,6.530968125L4.26313640625,6.350968125L4.20913640625,6.530968125L4.01213640625,6.530968125L4.17313640625,6.647968125L4.11113640625,6.827968125L4.26313640625,6.710968125L4.416136406250001,6.827968125ZM4.26313640625,8.273968125L4.416136406250001,8.381968125L4.36213640625,8.220968124999999L4.51513640625,8.094968125000001L4.32613640625,8.094968125000001L4.26313640625,7.905968125L4.20913640625,8.094968125000001L4.01213640625,8.094968125000001L4.17313640625,8.202968125L4.11113640625,8.382968125L4.26313640625,8.273968125ZM3.74313640625,4.3749681250000005L3.68913640625,4.194968125L3.81413640625,4.077968125L3.62613640625,4.077968125L3.56313640625,3.897968125L3.50913640625,4.077968125L3.33913640625,4.077968125L3.49113640625,4.194968125L3.43713640625,4.3749681250000005L3.59013640625,4.257968125L3.74213640625,4.3749681250000005L3.74313640625,4.3749681250000005ZM3.75113640625,5.982968125L3.68913640625,5.802968125L3.79613640625,5.712968125L3.60813640625,5.712968125L3.55413640625,5.524968125L3.53613640625,5.694968125L3.34713640625,5.694968125L3.50013640625,5.803968125L3.43713640625,5.983968125L3.59913640625,5.874968125L3.75113640625,5.982968125ZM3.53613640625,7.492968125L3.68913640625,7.600968125L3.63513640625,7.438968125L3.78713640625,7.321968125L3.60013640625,7.321968125L3.53713640625,7.141968125L3.47413640625,7.321968125L3.28613640625,7.321968125L3.43813640625,7.420968125L3.38413640625,7.600968125L3.53713640625,7.492968125L3.53613640625,7.492968125ZM7.12813640625,1.526968125L7.06513640625,1.706969125L6.87613640625,1.7509691250000001L7.02913640625,1.858969125L6.96613640625,2.047969125L7.12813640625,1.9309691249999998L7.28013640625,2.002969125L7.21713640625,1.813969125L7.37913640625,1.705968125L7.18113640625,1.705968125L7.12813640625,1.525969125L7.12813640625,1.526968125ZM8.55513640625,6.351968125L8.492136406250001,6.531968125L8.304136406249999,6.531968125L8.457136406250001,6.647968125L8.403136406249999,6.827968125L8.55513640625,6.710968125L8.70813640625,6.827968125L8.65413640625,6.647968125L8.807136406249999,6.530968125L8.618136406249999,6.530968125L8.55513640625,6.350968125L8.55513640625,6.351968125ZM8.55513640625,4.715968125L8.492136406250001,4.895968125L8.304136406249999,4.895968125L8.457136406250001,5.012968125L8.403136406249999,5.192968125L8.55513640625,5.084968125L8.70813640625,5.192968125L8.65413640625,5.012968125L8.807136406249999,4.895968125L8.618136406249999,4.895968125L8.55513640625,4.715968125ZM8.55513640625,3.116968125L8.492136406250001,3.3059681249999997L8.304136406249999,3.3059681249999997L8.457136406250001,3.413968125L8.403136406249999,3.593968125L8.55513640625,3.484968125L8.70813640625,3.592968125L8.65413640625,3.412968125L8.807136406249999,3.3059681249999997L8.618136406249999,3.3059681249999997L8.55513640625,3.116968125ZM8.55513640625,1.526968125L8.492136406250001,1.706968125L8.304136406249999,1.750968125L8.457136406250001,1.858968125L8.403136406249999,2.047968125L8.55513640625,1.9309681250000001L8.70813640625,2.0029681249999998L8.65413640625,1.813968125L8.807136406249999,1.705968125L8.618136406249999,1.705968125L8.55513640625,1.525968125L8.55513640625,1.526968125ZM2.9881364062499998,5.192968125L2.93413640625,5.012968125L3.1041364062500003,4.895968125L2.9071364062500002,4.895968125L2.85313640625,4.715968125L2.7911364062499997,4.895968125L2.58413640625,4.895968125L2.7371364062500003,5.012968125L2.68313640625,5.192968125L2.83613640625,5.084968125L2.9881364062499998,5.192968125ZM2.9881364062499998,6.827968125L2.93413640625,6.647968125L3.1041364062500003,6.530968125L2.9071364062500002,6.530968125L2.85313640625,6.350968125L2.7911364062499997,6.530968125L2.58413640625,6.530968125L2.7371364062500003,6.647968125L2.68313640625,6.827968125L2.83613640625,6.710968125L2.9881364062499998,6.827968125ZM2.83613640625,8.273968125L2.9881364062499998,8.381968125L2.93413640625,8.220968124999999L3.1041364062500003,8.094968125000001L2.9071364062500002,8.094968125000001L2.85313640625,7.905968125L2.7911364062499997,8.094968125000001L2.58413640625,8.094968125000001L2.7371364062500003,8.202968125L2.68313640625,8.382968125L2.83613640625,8.273968125ZM2.27013640625,5.955968125L2.21613640625,5.775968125L2.36913640625,5.713968125L2.18013640625,5.713968125L2.11713640625,5.524968125L2.09013640625,5.668968125L1.89313640625,5.668968125L2.01813640625,5.776968125L1.96513640625,5.956968125L2.11713640625,5.848968125L2.27013640625,5.955968125ZM2.10813640625,7.455968125L2.26113640625,7.573968125L2.23413640625,7.375968125L2.38713640625,7.258968125L2.1981364062499997,7.258968125L2.14413640625,7.078968125L2.0811364062499997,7.258968125L1.89313640625,7.258968125L2.00913640625,7.393968125L1.9471364062499998,7.573968125L2.10813640625,7.456968125L2.10813640625,7.455968125Z" fill="#949E9C" fill-opacity="1"/></g></g></svg>