<svg xmlns="http://www.w3.org/2000/svg" xmlns:xlink="http://www.w3.org/1999/xlink" fill="none" version="1.1" width="16" height="16" viewBox="0 0 16 16"><g><path d="M16,8C16,12.4178,12.4178,16,8,16C3.58222,16,0,12.4178,0,8C0,3.58222,3.58222,0,7.99998,0C12.4177,0,16,3.58221,16,8ZM6.16059,12.5589C4.24566,11.858,2.8755,10.0167,2.8755,7.86178C2.8755,5.70685,4.24566,3.86685,6.16059,3.16463C6.27996,3.12145,6.3752,2.9767,6.3752,2.8497L6.3752,2.38368C6.3752,2.19447,6.22789,2.0878,6.04757,2.14494C3.62725,2.91954,1.87487,5.18622,1.87487,7.86304C1.87487,10.5399,3.62725,12.8065,6.04757,13.5799C6.22789,13.637,6.3752,13.5303,6.3752,13.3411L6.3752,12.8751C6.3752,12.7469,6.27996,12.6034,6.16059,12.5589ZM9.70345,2.14622C9.52313,2.08908,9.37583,2.19575,9.37583,2.38495L9.37583,2.85098C9.37583,2.97796,9.47107,3.12273,9.59044,3.1659C11.5054,3.86685,12.8755,5.70813,12.8755,7.86304C12.8755,10.018,11.5054,11.858,9.59044,12.5602C9.45964,12.6084,9.37583,12.7367,9.37583,12.8751L9.37583,13.3411C9.37583,13.5303,9.52313,13.637,9.70345,13.5799C12.1238,12.8065,13.8761,10.5399,13.8761,7.86304C13.8761,5.18622,12.1225,2.91954,9.70345,2.14622ZM10.068,9.05198C10.068,7.88373,9.35688,7.49008,7.98291,7.30215C6.96959,7.15484,6.77276,6.91738,6.77276,6.44373C6.77276,5.9942,7.11562,5.67548,7.77846,5.67548C8.37784,5.67548,8.72196,5.88499,8.86419,6.36628C8.89593,6.4742,8.99245,6.55039,9.10419,6.55039L9.62991,6.55039C9.77594,6.55039,9.89021,6.41579,9.85974,6.27229C9.6934,5.5104,9.18038,5.05326,8.3753,4.90976L8.3753,4.11357C8.37548,3.97534,8.26338,3.86323,8.12514,3.86341L7.62483,3.86341C7.48659,3.86323,7.37449,3.97534,7.37467,4.11357L7.37467,4.88817C6.38292,5.02913,5.74292,5.68818,5.74292,6.53515C5.74292,7.63103,6.40451,8.05516,7.80261,8.2431C8.75118,8.39802,9.02037,8.60247,9.02037,9.14215C9.02037,9.68183,8.56197,10.0412,7.91688,10.0412C7.0445,10.0412,6.75624,9.65898,6.65085,9.165C6.62545,9.04818,6.52513,8.96183,6.40577,8.96183L5.83561,8.96183C5.69212,8.96183,5.5791,9.09136,5.6045,9.2323C5.74926,10.0641,6.28386,10.6749,7.37467,10.8234L7.37467,11.6133C7.37449,11.7515,7.48659,11.8636,7.62482,11.8634L8.12514,11.8634C8.26337,11.8636,8.37548,11.7515,8.3753,11.6133L8.3753,10.8234C9.40769,10.6596,10.068,9.94087,10.068,9.05198Z" fill="#1296DB" fill-opacity="1"/></g></svg>