<svg xmlns="http://www.w3.org/2000/svg" xmlns:xlink="http://www.w3.org/1999/xlink" fill="none" version="1.1" width="24" height="24" viewBox="0 0 24 24"><defs><clipPath id="master_svg0_347_14953/347_14928/347_10397"><rect x="0" y="0" width="24" height="24" rx="0"/></clipPath></defs><g clip-path="url(#master_svg0_347_14953/347_14928/347_10397)"><g><path d="M8.9903963855,6.73445L18.197900937500002,6.74445Q18.399290937499998,6.74467,18.5737109375,6.64397Q18.6376809375,6.60703,18.6932209375,6.55833Q18.748760937500002,6.50962,18.793720937499998,6.45102Q18.838690937499997,6.39242,18.8713609375,6.32617Q18.9040409375,6.25991,18.9231509375,6.18856Q18.9422709375,6.11721,18.9471009375,6.0435Q18.951940937499998,5.96979,18.942290937499997,5.8965499999999995Q18.9326509375,5.82332,18.9089109375,5.75337Q18.8851609375,5.68342,18.8482309375,5.6194500000000005L16.5420309375,1.625Q16.5051009375,1.561028,16.4563909375,1.50549Q16.4076909375,1.449953,16.3490809375,1.404985Q16.2904809375,1.360017,16.2242309375,1.327346Q16.1579809375,1.294674,16.0866309375,1.275556Q16.0152709375,1.256437,15.9415609375,1.251606Q15.8678509375,1.246775,15.7946209375,1.256416Q15.721380937500001,1.2660580000000001,15.651430937499999,1.289802Q15.5814809375,1.313546,15.517510937499999,1.3504800000000001L8.6162119375,5.33493Q8.5307909375,5.38425,8.4610259375,5.45398Q8.3912599375,5.5237,8.3418959375,5.6091Q8.2925319375,5.69449,8.2669249375,5.78975Q8.2413189375,5.885,8.2412109375,5.983639999999999Q8.2410489375,6.13282,8.2979899375,6.27071Q8.3549309375,6.4086,8.4603049375,6.5142Q8.5656799375,6.61981,8.7034459375,6.67705Q8.8412119375,6.73429,8.9903963855,6.73445ZM16.8988609375,5.243040000000001L11.7850009375,5.23748L15.6179909375,3.02452L16.8988609375,5.243040000000001Z" fill-rule="evenodd" fill="#2D2E33" fill-opacity="1"/></g><g><path d="M1.25,7L1.25,21Q1.25,21.724899999999998,1.762565,22.2374Q2.275125,22.75,3,22.75L21,22.75Q21.7249,22.75,22.2374,22.2374Q22.75,21.724899999999998,22.75,21L22.75,7Q22.75,6.275116,22.2374,5.762557Q21.7249,5.25,21,5.25L3,5.25Q2.275126,5.25,1.762566,5.762555Q1.25,6.2751149999999996,1.25,7ZM3,21.25Q2.75,21.25,2.75,21L2.75,7Q2.75,6.75,3,6.75L21,6.75Q21.25,6.75,21.25,7L21.25,21Q21.25,21.25,21,21.25L3,21.25Z" fill-rule="evenodd" fill="#2D2E33" fill-opacity="1"/></g><g><path d="M15.251601,11.689135Q14.25,12.64304,14.25,14Q14.25,15.35696,15.251601,16.310859999999998Q16.23769,17.25,17.625,17.25L22,17.25Q22.07387,17.25,22.14632,17.235590000000002Q22.21877,17.22118,22.287010000000002,17.19291Q22.35526,17.16464,22.41668,17.1236Q22.4781,17.08256,22.53033,17.03033Q22.58256,16.9781,22.6236,16.91668Q22.66464,16.85526,22.69291,16.787010000000002Q22.72118,16.71877,22.735590000000002,16.64632Q22.75,16.57387,22.75,16.5L22.75,11.5Q22.75,11.4261315,22.735590000000002,11.353682Q22.72118,11.281233,22.69291,11.212987Q22.66464,11.144742,22.6236,11.083322Q22.58256,11.021903,22.53033,10.96967Q22.4781,10.917437,22.41668,10.876398Q22.35526,10.835359,22.287010000000002,10.80709Q22.21877,10.778822,22.14632,10.764410999999999Q22.07387,10.75,22,10.75L17.625,10.75Q16.23769,10.75,15.251601,11.689135ZM16.28609,15.22466Q15.75,14.7141,15.75,14Q15.75,13.2859,16.28609,12.77534Q16.83769,12.25,17.625,12.25L21.25,12.25L21.25,15.75L17.625,15.75Q16.83769,15.75,16.28609,15.22466Z" fill-rule="evenodd" fill="#2D2E33" fill-opacity="1"/></g><g><path d="M21.25,8.25L21.25,20.25Q21.25,20.323900000000002,21.264411,20.3963Q21.278822,20.4688,21.30709,20.537Q21.335359,20.6053,21.376398000000002,20.6667Q21.417437,20.728099999999998,21.46967,20.7803Q21.521903000000002,20.8326,21.583322,20.8736Q21.644742,20.9146,21.712987,20.9429Q21.781233,20.9712,21.853682,20.985599999999998Q21.9261315,21,22,21Q22.0738685,21,22.146318,20.985599999999998Q22.218767,20.9712,22.287013,20.9429Q22.355258,20.9146,22.416678,20.8736Q22.478096999999998,20.8326,22.53033,20.7803Q22.582563,20.728099999999998,22.623601999999998,20.6667Q22.664641,20.6053,22.69291,20.537Q22.721178,20.4688,22.735589,20.3963Q22.75,20.323900000000002,22.75,20.25L22.75,8.25Q22.75,8.1761315,22.735589,8.103682Q22.721178,8.031233,22.69291,7.962987Q22.664641,7.894742,22.623601999999998,7.833322Q22.582563,7.771903,22.53033,7.71967Q22.478096999999998,7.667437,22.416678,7.626398Q22.355258,7.585359,22.287013,7.55709Q22.218767,7.528822,22.146318,7.514411Q22.0738685,7.5,22,7.5Q21.9261315,7.5,21.853682,7.514411Q21.781233,7.528822,21.712987,7.55709Q21.644742,7.585359,21.583322,7.626398Q21.521903000000002,7.667437,21.46967,7.71967Q21.417437,7.771903,21.376398000000002,7.833322Q21.335359,7.894742,21.30709,7.962987Q21.278822,8.031233,21.264411,8.103682Q21.25,8.1761315,21.25,8.25Z" fill-rule="evenodd" fill="#2D2E33" fill-opacity="1"/></g></g></svg>