<svg xmlns="http://www.w3.org/2000/svg" xmlns:xlink="http://www.w3.org/1999/xlink" fill="none" version="1.1" width="13.666666030883789" height="13.666658401489258" viewBox="0 0 13.666666030883789 13.666658401489258"><g><path d="M5.66826,1.362489Q4.2944700000000005,2.72646,4.2944700000000005,4.65617Q4.2944700000000005,5.46638,4.56341,6.21521L0.60924,10.14109Q0,10.746,0,11.6022Q0,12.4584,0.609249,13.0633Q1.217003,13.6667,2.07575,13.6667Q2.9345,13.6667,3.54228,13.0633L7.5444,9.08973Q8.2384,9.31233,8.98057,9.31233Q10.9206,9.31233,12.2929,7.94984Q13.6667,6.58588,13.6667,4.65617Q13.6667,3.83741,13.3889,3.07368Q13.3513,2.97032,13.2738,2.89228Q13.2392,2.85733,13.1983,2.82983Q13.1575,2.80232,13.112,2.78331Q13.0666,2.76431,13.0183,2.75453Q12.9701,2.74475,12.9208,2.74457Q12.8716,2.74439,12.8232,2.75383Q12.7749,2.76326,12.7293,2.78195Q12.6838,2.80063,12.6427,2.82784Q12.6017,2.85506,12.5667,2.88975L11.6158,3.83388Q11.3004,4.14705,10.8536,4.14705Q10.40677,4.14705,10.09135,3.83388Q9.77742,3.52219,9.77742,3.08213Q9.77742,2.64207,10.09135,2.33038L11.1592,1.270176Q11.22,1.209756,11.2573,1.132512Q11.2787,1.0881539999999998,11.291,1.040475Q11.3033,0.992796,11.3061,0.943629Q11.3089,0.894462,11.302,0.845696Q11.2952,0.7969310000000001,11.2789,0.750441Q11.2627,0.703951,11.2377,0.661523Q11.2127,0.619096,11.1799,0.5823602999999999Q11.1471,0.5456251,11.1077,0.5159941Q11.0684,0.4863632,11.0241,0.4649752Q10.05969,0,8.98057,0Q7.04056,0,5.66826,1.362489ZM5.60744,6.13305Q5.29447,5.431,5.29447,4.65617Q5.29447,3.14277,6.37282,2.07213Q7.45267,1,8.98057,1Q9.45357,1,9.89809,1.1130849999999999L9.38678,1.62074Q8.77742,2.22576,8.77742,3.08213Q8.77742,3.93851,9.38678,4.54352Q9.99466,5.14705,10.8536,5.14705Q11.7125,5.14705,12.3204,4.54352L12.6416,4.22466Q12.6667,4.43785,12.6667,4.65617Q12.6667,6.16956,11.5883,7.24021Q10.5085,8.31233,8.98057,8.31233Q8.26186,8.31233,7.60199,8.04823Q7.53405,8.02104,7.46118,8.01446Q7.3883,8.00788,7.3166,8.022459999999999Q7.24489,8.03703,7.18037,8.07155Q7.11584,8.10606,7.06392,8.15762L2.83772,12.3536Q2.5224,12.6667,2.07575,12.6667Q1.62911,12.6667,1.3138109999999998,12.3536Q1,12.042,1,11.6022Q1,11.1623,1.31382,10.8507L5.50305,6.69145Q5.55705,6.63784,5.59266,6.57058Q5.62827,6.50332,5.64225,6.42852Q5.65624,6.35371,5.64733,6.27813Q5.63843,6.20255,5.60744,6.13305Z" fill-rule="evenodd" fill="#F6FEFD" fill-opacity="1"/></g></svg>