<svg xmlns="http://www.w3.org/2000/svg" xmlns:xlink="http://www.w3.org/1999/xlink" fill="none" version="1.1" width="20" height="20" viewBox="0 0 20 20"><defs><clipPath id="master_svg0_4158_62918"><rect x="0" y="0" width="20" height="20" rx="0"/></clipPath></defs><g clip-path="url(#master_svg0_4158_62918)"><g><path d="M16.744115625,14.0830078125L14.797805625,14.0830078125Q14.748565625,14.0830078125,14.700265625,14.0926078125Q14.651965625,14.1022078125,14.606465625,14.1211078125Q14.560965625,14.1399078125,14.520025625,14.1673078125Q14.479075625,14.1946078125,14.444255625,14.2294078125Q14.409435625,14.2643078125,14.382075625,14.3052078125Q14.354715625,14.3462078125,14.335865625,14.3917078125Q14.317025625,14.4372078125,14.307415625,14.4855078125Q14.297805625,14.5338078125,14.297805625,14.5830078125Q14.297805625,14.6322078125,14.307415625,14.6805078125Q14.317025625,14.7288078125,14.335865625,14.7743078125Q14.354715625,14.8198078125,14.382075625,14.8608078125Q14.409435625,14.9017078125,14.444255625,14.9366078125Q14.479075625,14.9714078125,14.520025625,14.9987078125Q14.560965625,15.0261078125,14.606465625,15.0449078125Q14.651965625,15.0638078125,14.700265625,15.0734078125Q14.748565625,15.0830078125,14.797805625,15.0830078125L16.744115625,15.0830078125Q17.436615625,15.0830078125,17.926315625,14.5933078125Q18.416015625,14.1036078125,18.416015625,13.4111078125L18.416015625,3.2548878125Q18.416015625,2.5623698125,17.926315625,2.0726885125Q17.436615625,1.5830078125,16.744115625,1.5830078125L6.587895625,1.5830078125Q5.895377625,1.5830078125,5.405696325,2.0726889125Q4.916015625,2.5623698125,4.916015625,3.2548878125L4.916015625,5.1795078125Q4.916015625,5.2287578125,4.925622625,5.2770578125Q4.935230625,5.3253478125,4.954075625,5.3708478125Q4.972921625,5.4163478125,5.000280625,5.457287812500001Q5.027640625,5.4982378125,5.062462625,5.5330578125Q5.097284625,5.5678778125,5.138230625,5.595237812500001Q5.179176625,5.6225978125000005,5.224673625,5.6414478125Q5.270170625,5.6602878125,5.318470525,5.6698978125Q5.366769925,5.6795078125,5.416015625,5.6795078125Q5.465261325,5.6795078125,5.513560725,5.6698978125Q5.561860625,5.6602878125,5.607357625,5.6414478125Q5.652854625,5.6225978125000005,5.693800625,5.595237812500001Q5.734746625,5.5678778125,5.769568625,5.5330578125Q5.804390625,5.4982378125,5.831750625,5.457287812500001Q5.859109625,5.4163478125,5.877955625,5.3708478125Q5.896800625,5.3253478125,5.906408625,5.2770578125Q5.916015625,5.2287578125,5.916015625,5.1795078125L5.916015625,3.2548878125Q5.916015625,2.5830078125,6.587895625,2.5830078125L16.744115625,2.5830078125Q17.022415625,2.5830078125,17.219215625,2.7797958124999997Q17.416015625,2.9765828125000002,17.416015625,3.2548878125L17.416015625,13.4111078125Q17.416015625,14.0830078125,16.744115625,14.0830078125Z" fill-rule="evenodd" fill="#F6FEFD" fill-opacity="1"/></g><g><path d="M15.083984375,16.7450921875L15.083984375,6.5888721875Q15.083984375,5.8963541875,14.594284375,5.4066732875Q14.104584375,4.9169921875,13.412084375,4.9169921875L3.255864375,4.9169921875Q2.563346375,4.9169921875,2.073665375,5.4066729875Q1.583984375,5.8963541875,1.583984375,6.5888721875L1.583984375,16.7450921875Q1.583984375,17.4375921875,2.073665475,17.9272921875Q2.563345375,18.4169921875,3.255864375,18.4169921875L13.412084375,18.4169921875Q14.104584375,18.4169921875,14.594284375,17.9272921875Q15.083984375,17.4375921875,15.083984375,16.7450921875ZM13.412084375,5.9169921875Q14.083984375,5.9169921875,14.083984375,6.5888721875L14.083984375,16.7450921875Q14.083984375,17.4169921875,13.412084375,17.4169921875L3.255864375,17.4169921875Q2.583984375,17.4169921875,2.583984375,16.7450921875L2.583984375,6.5888721875Q2.583984375,6.3105671875,2.7807723749999997,6.1137801875Q2.9775593750000002,5.9169921875,3.255864375,5.9169921875L13.412084375,5.9169921875Z" fill-rule="evenodd" fill="#F6FEFD" fill-opacity="1"/></g></g></svg>