<svg xmlns="http://www.w3.org/2000/svg" xmlns:xlink="http://www.w3.org/1999/xlink" fill="none" version="1.1" width="24" height="24" viewBox="0 0 24 24"><defs><clipPath id="master_svg0_4114_39258"><rect x="0" y="0" width="24" height="24" rx="0"/></clipPath></defs><g clip-path="url(#master_svg0_4114_39258)"><g><path d="M16.922301430511475,21.6087Q18.658301430511475,21.3684,19.479301430511477,20.415399999999998L19.479301430511477,20.415399999999998Q20.307401430511476,19.4541,20.244901430511476,17.732100000000003Q20.208301430511476,16.72549,19.672601430511474,13.80976L19.002301430511473,10.16128Q18.740401430511476,8.73574,18.581901430511472,8.23805Q18.297901430511473,7.346624,17.730401430511474,6.884779Q17.168001430511474,6.427157,16.227601430511477,6.313712Q15.699401430511475,6.25,14.213201430511475,6.25L9.786851430511476,6.25Q8.300611430511474,6.25,7.772441430511474,6.313711Q6.831981430511474,6.427156,6.269601430511475,6.884774Q5.702061430511474,7.34661,5.418150430511474,8.23802Q5.259677430511474,8.73559,4.997748430511475,10.16115L4.997727430511475,10.16127L4.327406430511474,13.80977Q3.791680430511475,16.72552,3.7551144305114748,17.732100000000003Q3.6925644305114744,19.4541,4.520640530511475,20.415399999999998Q5.341673430511475,21.3684,7.077751430511475,21.6087Q8.099261430511476,21.75,11.142301430511473,21.75L12.857701430511474,21.75Q15.900801430511475,21.75,16.922301430511475,21.6087ZM18.745901430511474,17.7866Q18.787101430511477,18.9207,18.342901430511475,19.4364L18.342801430511475,19.4364Q17.891601430511475,19.9602,16.716701430511474,20.122799999999998Q15.797501430511474,20.25,12.857701430511474,20.25L11.142301430511473,20.25Q8.202531430511474,20.25,7.2833414305114745,20.122799999999998Q6.108391430511475,19.9602,5.657141430511475,19.4364Q5.212927430511474,18.9207,5.254125430511475,17.7866Q5.286725430511474,16.889139999999998,5.802711430511475,14.08082L6.473031430511474,10.43233L6.473051430511474,10.432220000000001Q6.857411430511474,8.34034,7.216351430511475,8.04825Q7.582871430511474,7.75,9.786851430511476,7.75L14.213201430511475,7.75Q16.417101430511472,7.75,16.783601430511474,8.04824Q17.142601430511476,8.34039,17.526901430511472,10.43232L18.197201430511477,14.08084Q18.713201430511475,16.889139999999998,18.745901430511474,17.7866Z" fill-rule="evenodd" fill="#99A0AF" fill-opacity="1" style="mix-blend-mode:passthrough"/></g><g><path d="M11.25,10.5Q11.25,10.4261315,11.26441,10.353682Q11.27882,10.281233,11.30709,10.212987Q11.33536,10.144742,11.3764,10.083322Q11.41744,10.021903,11.46967,9.96967Q11.5219,9.917437,11.58332,9.876398Q11.64474,9.835359,11.71299,9.80709Q11.78123,9.778822,11.85368,9.764410999999999Q11.92613,9.75,12,9.75Q12.07387,9.75,12.14632,9.764410999999999Q12.21877,9.778822,12.28701,9.80709Q12.35526,9.835359,12.41668,9.876398Q12.4781,9.917437,12.53033,9.96967Q12.58256,10.021903,12.6236,10.083322Q12.66464,10.144742,12.69291,10.212987Q12.72118,10.281233,12.73559,10.353682Q12.75,10.4261315,12.75,10.5L12.75,15.68934L13.96967,14.46967Q14.07516,14.364180000000001,14.21299,14.30709Q14.350819999999999,14.25,14.5,14.25Q14.57387,14.25,14.64632,14.26441Q14.71877,14.27882,14.78701,14.30709Q14.855260000000001,14.33536,14.91668,14.3764Q14.978100000000001,14.41744,15.03033,14.46967Q15.08256,14.521899999999999,15.1236,14.58332Q15.16464,14.644739999999999,15.192910000000001,14.71299Q15.22118,14.78123,15.23559,14.85368Q15.25,14.92613,15.25,15Q15.25,15.149180000000001,15.192910000000001,15.28701Q15.135819999999999,15.42484,15.03033,15.53033L12.53033,18.03033Q12.4781,18.08256,12.41668,18.1236Q12.35526,18.16464,12.28701,18.19291Q12.21877,18.22118,12.14632,18.235590000000002Q12.07387,18.25,12,18.25Q11.92613,18.25,11.85368,18.235590000000002Q11.78123,18.22118,11.71299,18.19291Q11.64474,18.16464,11.58332,18.1236Q11.5219,18.08256,11.46967,18.03033L8.96967,15.53033Q8.864181,15.42484,8.80709,15.28701Q8.75,15.149180000000001,8.75,15Q8.75,14.92613,8.764410999999999,14.85368Q8.778822,14.78123,8.80709,14.71299Q8.835359,14.644739999999999,8.876398,14.58332Q8.917437,14.521899999999999,8.96967,14.46967Q9.021903,14.41744,9.083322,14.3764Q9.144742,14.33536,9.212987,14.30709Q9.281233,14.27882,9.353682,14.26441Q9.4261315,14.25,9.5,14.25Q9.649184,14.25,9.787012,14.30709Q9.924841,14.364180000000001,10.03033,14.46967L11.25,15.68934L11.25,10.5Z" fill-rule="evenodd" fill="#99A0AF" fill-opacity="1" style="mix-blend-mode:passthrough"/></g><g><path d="M2.6617889999999997,11.66941L2.662167,11.6696Q2.821517,11.75,3,11.75Q3.0738700000000003,11.75,3.1463200000000002,11.73559Q3.21877,11.72118,3.28701,11.69291Q3.35526,11.66464,3.41668,11.6236Q3.4781,11.58256,3.53033,11.53033Q3.58256,11.4781,3.6235999999999997,11.41668Q3.66464,11.35526,3.69291,11.28701Q3.72118,11.21877,3.73559,11.14632Q3.75,11.07387,3.75,11Q3.75,10.89588,3.72164,10.7957Q3.6932799999999997,10.69552,3.6387,10.606860000000001Q3.58412,10.51819,3.50746,10.44774Q3.43079,10.3773,3.3378300000000003,10.330400000000001Q3.2165,10.26918,3.1259300000000003,10.17517Q2.895025,9.935500000000001,2.81701,9.33322Q2.75,8.815909999999999,2.75,7.15176Q2.75,5.48762,2.81701,4.9703Q2.895026,4.36801,3.1258999999999997,4.12838Q3.34883,3.8969899999999997,3.90911,3.818804Q4.40216,3.75,6,3.75L18,3.75Q19.5978,3.75,20.0909,3.818804Q20.6512,3.896991,20.8741,4.12838Q21.105,4.36801,21.183,4.9703Q21.25,5.48762,21.25,7.15176Q21.25,8.8159,21.183,9.33322Q21.105,9.935500000000001,20.8741,10.17512Q20.7841,10.268519999999999,20.664,10.32949L20.6622,10.33038Q20.5692,10.377279999999999,20.4926,10.44772Q20.4159,10.51817,20.3613,10.60684Q20.3067,10.695509999999999,20.2784,10.79569Q20.25,10.89588,20.25,11Q20.25,11.07387,20.2644,11.14632Q20.2788,11.21877,20.3071,11.28701Q20.3354,11.35526,20.3764,11.41668Q20.4174,11.4781,20.4697,11.53033Q20.5219,11.58256,20.5833,11.6236Q20.6447,11.66464,20.713,11.69291Q20.7812,11.72118,20.8537,11.73559Q20.9261,11.75,21,11.75Q21.1785,11.75,21.3378,11.66962L21.3379,11.66958L21.3385,11.66925Q21.687,11.49329,21.9543,11.21588Q22.5289,10.6195,22.6706,9.52592Q22.75,8.91265,22.75,7.15176Q22.75,5.39087,22.6706,4.77761Q22.5289,3.684021,21.9543,3.0876364Q21.3718,2.483016,20.2982,2.333199Q19.702,2.25,18,2.25L6,2.25Q4.298,2.25,3.7018,2.333199Q2.628201,2.4830170000000003,2.0456824,3.0876411Q1.471093,3.6840260000000002,1.3294380000000001,4.77761Q1.25,5.39087,1.25,7.15176Q1.25,8.91265,1.3294380000000001,9.52591Q1.471093,10.619489999999999,2.045648,11.21583Q2.312667,11.49302,2.660931,11.66898L2.6617889999999997,11.66941Z" fill-rule="evenodd" fill="#99A0AF" fill-opacity="1" style="mix-blend-mode:passthrough"/></g></g></svg>