<svg xmlns="http://www.w3.org/2000/svg" xmlns:xlink="http://www.w3.org/1999/xlink" fill="none" version="1.1" width="1440" height="916" viewBox="0 0 1440 916"><defs><linearGradient x1="0.5" y1="-0.23036853969097137" x2="0.5" y2="1" id="master_svg0_4139_42242"><stop offset="0%" stop-color="#FFFFFF" stop-opacity="0"/><stop offset="100%" stop-color="#FFFFFF" stop-opacity="1"/></linearGradient><mask id="master_svg1_4139_42255" style="mask-type:alpha" maskUnits="objectBoundingBox"><g><rect x="0" y="0" width="1440" height="916" rx="0" fill="url(#master_svg0_4139_42242)" fill-opacity="1"/></g></mask></defs><g mask="url(#master_svg1_4139_42255)"><g><g transform="matrix(0.9925758838653564,-0.12151630967855453,0.21204085648059845,0.9773012399673462,-56.36652964172663,30.586013149099017)"><path d="M885.126375,771.8528725585937C886.444375,736.0988725585937,887.648375,703.4268725585937,956.754375,687.3198725585937C1119.6643749999998,662.1538725585938,1173.1933749999998,639.1688725585938,1173.1933749999998,508.8388725585937C1173.1933749999998,378.50987255859377,1114.947375,272.85687255859375,975.280375,272.85687255859375C875.027375,272.85687255859375,848.550375,391.18887255859374,693.397375,391.1898725585937C607.384375,391.1898725585937,556.2123750000001,354.82247255859374,510.604375,322.41007255859375C473.944375,296.35577255859374,440.879375,272.85687255859375,396.203375,272.85687255859375C256.537175,272.85687255859375,200.734375,378.50987255859377,200.734375,508.8388725585937C200.734375,639.1688725585938,287.832575,730.5198725585938,427.498375,730.5198725585938C540.014375,719.3638725585938,561.8273750000001,765.4908725585938,581.738375,807.5948725585938C584.951375,814.3878725585937,588.114375,821.0768725585938,591.600375,827.4028725585938C622.7893750000001,883.9968725585937,693.6933750000001,919.7778725585938,784.844375,904.1448725585938C854.472375,892.2028725585938,876.739375,842.9548725585937,883.238375,797.7968725585938C884.490375,789.0958725585938,884.811375,780.3868725585937,885.126375,771.8528725585937ZM333.857375,712.3408725585937Q376.25537499999996,728.5038725585937,427.400375,728.5198725585938Q502.793375,721.0648725585938,540.492375,747.4468725585937Q555.450375,757.9138725585938,566.734375,775.1238725585938Q573.413375,785.3108725585937,583.546375,806.7398725585938Q589.8953750000001,820.1648725585937,593.3523749999999,826.4368725585938Q604.994375,847.5628725585938,623.463375,863.9728725585937Q642.282375,880.6938725585937,666.5203750000001,891.0188725585938Q719.057375,913.3988725585938,784.506375,902.1738725585938Q868.263375,887.8078725585938,881.258375,797.5118725585937Q882.496375,788.9138725585938,883.127375,771.7788725585938Q883.783375,753.9698725585938,885.182375,745.4998725585938Q887.530375,731.2868725585938,893.821375,721.1628725585938Q909.247375,696.3398725585937,956.300375,685.3718725585937L956.374375,685.3548725585938L956.449375,685.3438725585938Q1023.436375,674.9948725585937,1058.767375,665.2158725585937Q1101.425375,653.4078725585937,1124.869375,635.9128725585938Q1149.524375,617.5128725585937,1160.4033749999999,587.4898725585938Q1171.192375,557.7108725585938,1171.1933749999998,508.8388725585937Q1171.192375,458.92887255859375,1159.979375,417.5068725585937Q1148.244375,374.15987255859375,1125.011375,343.17427255859377Q1100.455375,310.4228725585938,1064.267375,293.20757255859377Q1025.692375,274.85687255859375,975.280375,274.8568625585938Q945.863375,274.85685255859374,917.951375,289.6307725585938Q906.544375,295.6685725585937,893.089375,305.30187255859374Q884.930375,311.1438725585937,868.523375,323.98497255859377Q847.452375,340.4758725585938,835.881375,348.47577255859375Q816.392375,361.94987255859377,797.930375,370.7593725585938Q750.920375,393.1898725585937,693.397375,393.1898725585937Q635.896375,393.1898725585937,586.0293750000001,370.77867255859377Q566.450375,361.97977255859377,545.239375,348.51947255859375Q532.6413749999999,340.52427255859374,509.446375,324.04027255859376Q491.371375,311.19497255859375,482.449375,305.34857255859373Q467.728375,295.70217255859376,455.522375,289.65527255859377Q425.64937499999996,274.85687255859375,396.203375,274.85689255859376Q297.941575,274.85687255859375,247.705175,343.15947255859373Q224.974075,374.0648725585937,213.570275,417.49187255859374Q202.734375,458.7568725585937,202.734355,508.8388725585937Q202.734375,557.0488725585938,218.392275,597.7408725585938Q233.848375,637.9078725585937,263.154075,667.1368725585937Q292.773775,696.6788725585938,333.857375,712.3408725585937Z" fill-rule="evenodd" fill="#78E8D9" fill-opacity="1"/></g><g transform="matrix(0.9925759434700012,-0.12151633203029633,0.21204085648059845,0.9773011803627014,-41.76324297839437,16.212946054078202)"><path d="M1243.1529296875,506.74276318359375C1243.1529296875,660.4847631835937,1196.6829296875,701.7347631835937,1006.0309296875,728.2707631835938C925.0209296875,751.2067631835937,923.4239296875,787.6477631835937,921.6109296875,829.0317631835937C921.1889296875,838.6557631835938,920.7559296875,848.5467631835937,919.3099296875,858.5967631835938C911.6429296875,911.8667631835938,865.3589296875,967.4737631835937,783.2229296875,981.5607631835937C675.6979296875,1000.0027631835937,592.0569296875,957.7947631835938,555.2659296874999,891.0337631835938C551.1529296875,883.5707631835937,547.4219296875,875.6807631835937,543.6319296875,867.6667631835937C520.1449296875,817.9997631835937,494.4129296875,763.5857631835937,361.6859296875,776.7457631835938C196.9309296875,776.7457631835938,96.0029296875,660.4847631835937,96.0029296875,506.74276318359375C96.0029296875,353.0007631835938,167.81942968750002,200.31976318359375,332.5749296875,200.31976318359375C385.2759296875,200.31976318359375,424.2819296875,228.03886318359375,467.5299296875,258.77236318359377C521.3319296875,297.00586318359376,581.6979296874999,339.9047631835938,683.1619296875,339.90376318359375C866.1869296875,339.90376318359375,897.4169296875,200.32479500359375,1015.6799296875,200.32479500359375C1180.4329296875,200.32479500359375,1243.1529296875,353.0007631835938,1243.1529296875,506.74276318359375ZM251.4219296875,754.3257631835937Q301.4749296875,774.7287631835937,361.5879296875,774.7457631835938Q450.4059296875,765.9597631835937,494.7709296875,797.0077631835937Q512.3589296875,809.3167631835937,525.6319296875,829.5597631835938Q533.4959296874999,841.5547631835938,545.4399296875,866.8117631835937Q552.9349296875,882.6597631835938,557.0169296875,890.0677631835938Q570.7799296875,915.0417631835937,592.6129296875,934.4417631835937Q614.8539296875,954.2027631835938,643.5029296875,966.4077631835937Q705.5709296875,992.8487631835937,782.8849296875,979.5897631835937Q840.6849296875,969.6767631835937,877.7929296875,933.3427631835938Q894.3439296875,917.1367631835938,904.5869296875,897.3817631835938Q914.4429296875,878.3707631835938,917.3299296875,858.3117631835937Q918.7619296875,848.3627631835938,919.6129296875,828.9447631835938Q920.5119296875,808.4317631835937,922.2039296875,798.7117631835938Q925.0319296875,782.4677631835938,932.4279296875,770.6707631835937Q950.4459296875,741.9287631835938,1005.4869296875,726.3467631835938L1005.6189296875,726.3087631835938L1005.7559296875,726.2897631835938Q1079.9269296875,715.9657631835937,1122.9029296875,702.1777631835937Q1169.3229296875,687.2827631835937,1194.7229296875,663.7417631835938Q1220.1529296875,640.1757631835937,1230.9829296875,601.9397631835938Q1241.1529296875,566.0507631835937,1241.1529296875,506.74276318359375Q1241.1529296875,446.8327631835938,1228.8329296875,394.4627631835938Q1215.6029296875,338.22876318359374,1189.5029296875,296.9491631835938Q1161.2129296875,252.18756318359374,1119.7329296875,228.31616318359374Q1074.5629296875,202.32479318359375,1015.6799296875,202.32478318359375Q980.8879296875,202.32476318359375,947.8849296875,219.79306318359374Q934.4079296875,226.92566318359374,918.5159296875,238.30326318359374Q908.8879296875,245.19606318359376,889.5239296875,260.35016318359374Q864.6769296875,279.79506318359375,851.0369296875,289.22586318359373Q828.0719296875,305.10276318359377,806.3179296875,315.4817631835938Q750.9389296875,341.9047631835938,683.1619296875,341.90376318359375Q615.4089296875,341.90376318359375,556.6529296875,315.49976318359376Q533.5789296875,305.1307631835938,508.5799296875,289.26766318359375Q493.7259296875,279.84216318359375,466.3709296875,260.40266318359375Q445.0409296875,245.24496318359374,434.5129296875,238.34636318359375Q417.1289296875,226.95616318359376,402.7089296875,219.81316318359376Q367.3939296875,202.31976318359375,332.5749296875,202.31976318359375Q273.59592968749996,202.31976318359375,227.0799296875,228.32416318359375Q184.1837296875,252.30496318359374,154.1658296875,296.99326318359374Q126.2126296875,338.60776318359376,111.7346296875,394.5057631835938Q98.0029296875,447.5227631835937,98.0029296875,506.74276318359375Q98.0028896875,563.8687631835937,116.2228296875,613.0957631835938Q134.3227296875,661.9977631835937,168.51182968749998,698.0207631835938Q203.3549296875,734.7307631835937,251.4219296875,754.3257631835937Z" fill-rule="evenodd" fill="#78E8D9" fill-opacity="1"/></g><g transform="matrix(0.9925759434700012,-0.12151627242565155,0.21204087138175964,0.9773012399673462,-28.209463083259834,5.403306308078754)"><path d="M1288.4773046875,506.69115380859375C1288.4773046875,676.7631538085938,1261.6573046875,742.9041538085937,1050.7573046875,772.2591538085937C960.5193046875,797.8071538085937,958.1453046875,844.1791538085937,955.6753046875,892.4301538085938C955.1213046875,903.2391538085938,954.5633046875,914.1441538085937,953.0103046875,924.9291538085937C944.5303046875,983.8571538085937,885.2483046875,1044.3641538085938,774.2473046875,1057.444153808594C654.0233046875,1071.6101538085936,562.7803046875,1031.1531538085937,522.0813046875,957.3011538085938C517.5313046875,949.0451538085938,513.4043046874999,940.3171538085937,509.2123046875,931.4531538085937C483.2293046875,876.5091538085937,454.7643046875,816.3151538085938,307.9393046875,830.8731538085938C125.6853046875,830.8731538085938,19.4873046875,676.7631538085938,19.4873046875,506.69115380859375C19.4873046875,336.6201538085937,106.1973046875,133.72015380859375,288.4513046875,133.72015380859375C346.7493046875,133.72015380859375,389.8983046875,164.38335380859374,437.7393046875,198.38105380859375C497.2553046875,240.67515380859373,564.0333046875,288.1301538085937,676.2743046875,288.1301538085937C878.7373046875,288.1301538085937,913.2863046875,133.72854017859376,1044.1073046875,133.72854017859376C1226.3673046875,133.72854017859376,1288.4773046875,336.6201538085937,1288.4773046875,506.69115380859375ZM186.8473046875,802.3331538085938Q242.0193046875,828.8541538085938,307.8413046875,828.8731538085938Q360.3503046875,823.6761538085938,398.0453046875,830.7551538085937Q431.5953046875,837.0551538085938,455.0383046875,853.4611538085937Q474.4603046875,867.0541538085937,489.1213046875,889.4141538085937Q497.8133046875,902.6711538085938,511.0203046875,930.5981538085938Q519.3133046875,948.1331538085938,523.8323046875,956.3351538085938Q554.5683046875,1012.1051538085937,619.1003046875,1038.5281538085937Q685.8283046875,1065.8501538085939,774.0133046875,1055.4581538085938Q852.2033046875,1046.243153808594,900.8143046875,1006.8261538085937Q922.3983046875,989.3241538085938,935.3953046875,967.6271538085938Q947.8333046875,946.8631538085938,951.0313046875,924.6441538085937Q952.5703046875,913.9531538085937,953.6773046875,892.3271538085937Q954.9133046875,868.1981538085937,956.9133046875,856.5511538085938Q960.2653046875,837.0241538085937,968.5773046875,822.8211538085937Q989.1803046875,787.6131538085938,1050.2173046875,770.3351538085938L1050.3473046875,770.2971538085937L1050.4873046875,770.2781538085937Q1129.4373046875,759.2891538085937,1176.1273046875,740.4421538085937Q1222.6973046875,721.6411538085938,1247.1373046875,690.9971538085938Q1270.1473046875,662.1461538085938,1279.0273046875,615.4341538085937Q1286.4773046875,576.2251538085937,1286.4773046875,506.69215380859373Q1286.4773046875,439.02315380859375,1273.9573046875,377.0631538085937Q1260.1373046875,308.6011538085937,1232.8673046875,257.37315380859377Q1202.5573046875,200.41595380859377,1158.0473046875,169.73445380859374Q1108.7073046875,135.72854380859374,1044.1073046875,135.72854380859374Q1005.5693046875,135.72853380859374,969.0133046875,155.07645380859375Q954.0923046875,162.97365380859375,936.5013046875,175.56745380859374Q925.8453046875,183.19665380859374,904.4233046875,199.96095380859373Q876.9403046875,221.46865380859376,861.8573046875,231.89545380859374Q836.4643046875,249.45015380859377,812.4183046875,260.92215380859375Q751.2013046875,290.1301538085937,676.2743046875,290.1301538085937Q601.3703046875,290.1301538085937,536.4153046875,260.9401538085938Q510.9023046875,249.47515380859375,483.2633046875,231.93595380859375Q466.8373046875,221.51215380859375,436.5813046875,200.01135380859375Q412.9793046875,183.23895380859375,401.3323046875,175.60785380859375Q382.0913046875,163.00065380859374,366.1293046875,155.09365380859376Q327.0193046875,135.72015380859375,288.4513046875,135.72019380859376Q223.6293046875,135.72023380859375,170.6183046875,169.76355380859374Q122.3623046875,200.75275380859375,87.3257046875,257.48015380859374Q55.0627046875,309.71715380859376,37.8211046875,377.1611538085938Q21.4873046875,441.05515380859373,21.4873046875,506.69215380859373Q21.4873046875,570.5171538085938,40.825604687500004,628.4611538085937Q60.3584046875,686.9881538085938,96.9109046875,731.2861538085938Q134.9513046875,777.3881538085938,186.8473046875,802.3331538085938Z" fill-rule="evenodd" fill="#78E8D9" fill-opacity="1"/></g><g transform="matrix(0.9925759434700012,-0.12151633948087692,0.21204085648059845,0.9773011803627014,-12.531120121532695,-8.874513930048124)"><path d="M1354.6455859375,504.8092788085938C1354.6455859375,701.6312788085937,1323.4555859375,795.4432788085937,1084.4455859375,829.4152788085937C982.1755859375,858.9812788085937,979.4855859375,912.6352788085937,976.6855859375,968.4712788085938C976.0655859374999,980.9812788085937,975.4355859375,993.6002788085938,973.6755859375,1006.0832788085937C964.0555859374999,1074.2832788085939,895.8455859375,1135.5532788085939,770.0445859375,1150.6932788085937C633.7935859375,1167.0832788085938,528.5695859375,1128.7632788085937,482.44358593749996,1043.2942788085938C477.2875859375,1033.7412788085937,472.6105859375,1023.6412788085937,467.8595859375,1013.3822788085937C438.4125859375,949.7962788085938,406.1515859375,880.1342788085938,239.7515859375,896.9812788085937C33.1985859375,896.9812788085937,-83.5244140625,701.6312788085937,-83.5244140625,504.8092788085938C-83.5244140625,307.98827880859375,18.379585937499996,56.17327880859375,224.93158593750002,56.17327880859375C291.0025859375,56.17327880859375,339.9035859375,91.65907880859375,394.1235859375,131.00397880859373C461.57458593750005,179.95027880859374,537.2555859375,234.86827880859374,664.4605859375,234.86827880859374C893.9175859375,234.86827880859374,933.0655859375,56.17998790859375,1081.3355859375,56.17998790859375C1287.8855859375,56.17998790859375,1354.6455859375,307.98827880859375,1354.6455859375,504.8092788085938ZM103.04358593750001,861.6182788085938Q165.3765859375,894.9582788085937,239.6505859375,894.9812788085937Q299.1305859375,888.9692788085938,341.8285859375,897.1552788085937Q379.7995859375,904.4362788085938,406.3255859375,923.3922788085938Q428.2935859375,939.0912788085938,444.87758593750004,964.9192788085937Q454.71858593750005,980.2462788085937,469.67458593749996,1012.5412788085938Q479.0755859375,1032.8432788085938,484.20358593749995,1042.3452788085938Q518.3215859375,1105.5632788085939,593.1425859375,1133.3132788085939Q667.7335859375,1160.9932788085937,769.8065859375,1148.7132788085937Q859.8475859375,1137.8732788085938,914.2215859375,1096.6932788085937Q939.0655859375,1077.8732788085938,953.7955859374999,1054.2622788085937Q968.0955859374999,1031.3382788085937,971.6955859375,1005.8042788085937Q973.4355859375,993.4072788085938,974.6955859375,968.3712788085937Q976.0955859374999,940.4772788085937,978.3555859375001,927.0142788085938Q982.1455859375001,904.4812788085937,991.5355859375,888.0972788085937Q1002.7755859375,868.4722788085937,1023.7255859375,854.1142788085938Q1047.0155859375,838.1572788085938,1083.8955859375,827.4942788085938L1084.0255859375,827.4552788085938L1084.1655859375,827.4352788085937Q1172.5755859375,814.8712788085937,1226.6655859375,790.2212788085938Q1279.2955859375,766.2432788085938,1307.5555859375,727.0122788085938Q1333.7855859375,690.5952788085938,1344.0655859375,633.4322788085938Q1352.6455859375,585.7692788085938,1352.6455859375,504.8092788085938Q1352.6455859375,425.70127880859377,1339.0255859375,352.04127880859374Q1323.7755859375,269.60527880859377,1293.6455859375,207.56027880859375Q1259.8055859375,137.85947880859374,1209.9755859375,100.19587880859375Q1154.3755859375,58.17998880859375,1081.3355859375,58.17994880859375Q1037.5955859375,58.17998880859375,996.1155859375001,80.59957880859375Q979.1955859375,89.74677880859375,959.2455859375,104.33247880859375Q947.1655859375,113.16017880859374,922.8755859375,132.57017880859377Q891.7385859375,157.45527880859373,874.6505859375,169.51827880859375Q845.8935859375,189.81927880859374,818.6555859375,203.09027880859375Q749.3275859375,236.86827880859374,664.4605859375,236.86827880859374Q579.6185859375,236.86827880859374,506.05058593750005,203.10927880859376Q477.1535859375,189.84827880859376,445.84358593750005,169.56027880859375Q427.2335859375,157.50127880859375,392.9495859375,132.62267880859375Q366.2005859375,113.21247880859374,352.9925859375,104.37527880859375Q331.1745859375,89.77707880859376,313.0695859375,80.61897880859375Q268.6945859375,58.17327880859375,224.93158593750002,58.17327880859375Q151.5875859375,58.17327880859375,90.73358593750001,100.23987880859374Q35.593585937499995,138.35617880859377,-5.0279140625000025,207.69427880859374Q-42.2771140625,271.27627880859376,-62.4339140625,352.15927880859374Q-81.5244140625,428.76427880859376,-81.5244340625,504.8092788085938Q-81.5244940625,579.1502788085937,-60.1477140625,648.5312788085937Q-38.3483140625,719.2822788085938,2.2571859374999974,773.5042788085938Q44.994585937500005,830.5692788085937,103.04358593750001,861.6182788085938Z" fill-rule="evenodd" fill="#78E8D9" fill-opacity="1"/></g><g transform="matrix(0.9925759434700012,-0.12151633948087692,0.21204088628292084,0.9773011803627014,7.2818555291078155,-26.906788201446034)"><path d="M1455.30671875,505.4401381835937C1455.30671875,731.4961381835938,1416.10671875,838.9341381835937,1138.74671875,877.9521381835938C1020.0667187500001,911.9111381835937,1016.94671875,973.5391381835938,1013.69671875,1037.6691381835938C1012.9667187499999,1052.0391381835936,1012.2367187499999,1066.5291381835937,1010.18671875,1080.8691381835938C999.0367187500001,1159.1891381835937,922.88671875,1229.8791381835938,776.90571875,1247.2591381835937C618.79371875,1266.0891381835938,496.68671874999995,1222.0691381835939,443.16071875,1123.9091381835938C437.17771875000005,1112.9391381835937,431.74971875000006,1101.3391381835938,426.23671875,1089.5491381835936C392.06471875,1016.5191381835937,354.62771875,936.5131381835937,161.53071875,955.8621381835937C-78.16228125,955.8621381835937,-213.61328125,731.4961381835938,-213.61328125,505.4401381835937C-213.61328125,279.38413818359373,-77.95828125,-7.669261816406248,161.73471875,-7.669261816406248C238.40571875,-7.669261816406248,292.77971875,27.59353818359375,353.06671874999995,66.69113818359375C428.06571875,115.32913818359376,512.21471875,169.90313818359374,659.82971875,169.90213818359376C926.09671875,169.90213818359376,919.32671875,-41.82086181640625,1091.37671875,-41.82086181640625C1331.06671875,-41.82086181640625,1455.30671875,279.38413818359373,1455.30671875,505.4401381835937ZM2.7297187499999893,915.5051381835938Q75.14571875000001,953.8391381835937,161.43071874999998,953.8621381835937Q230.42071875,946.9591381835937,279.92071875,956.3531381835937Q323.90971875,964.6991381835937,354.63571875,986.4291381835938Q380.07971875,1004.4291381835938,399.29271874999995,1034.0391381835936Q406.89571875,1045.7691381835937,414.75271875,1061.1391381835938Q419.43971875,1070.3091381835939,428.04771874999994,1088.7091381835937Q438.96171875000005,1112.0291381835937,444.91671875,1122.9491381835937Q484.56371875,1195.6591381835938,571.50271875,1227.5791381835938Q658.14171875,1259.3891381835938,776.66971875,1245.2691381835937Q880.84671875,1232.8691381835938,942.89671875,1185.3291381835938Q971.12671875,1163.6991381835937,987.85671875,1136.4191381835938Q1004.0067187499999,1110.0891381835938,1008.2067187499999,1080.5891381835938Q1010.2367187499999,1066.3491381835938,1011.69671875,1037.5691381835939Q1013.3167187500001,1005.5391381835936,1015.94671875,990.0991381835938Q1020.33671875,964.2691381835938,1031.20671875,945.4951381835938Q1044.21671875,923.0141381835938,1068.47671875,906.5611381835937Q1095.44671875,888.2611381835937,1138.19671875,876.0301381835937L1138.32671875,875.9911381835938L1138.46671875,875.9721381835938Q1241.20671875,861.5181381835938,1304.40671875,833.2501381835938Q1366.04671875,805.6731381835938,1399.42671875,760.6441381835938Q1430.52671875,718.6951381835937,1442.87671875,653.1551381835937Q1453.30671875,597.8801381835938,1453.30671875,505.4401381835937Q1453.30671875,417.94113818359375,1430.20671875,325.04613818359377Q1405.78671875,226.84413818359377,1361.47671875,148.01913818359375Q1312.83671875,61.47913818359375,1248.16671875,13.505838183593752Q1176.28671875,-39.82086181640625,1091.37671875,-39.82086181640625Q1040.62671875,-39.82086181640625,999.08671875,-13.28596181640625Q982.14671875,-2.464361816406253,963.2767187500001,14.79643818359375Q951.84671875,25.252838183593752,929.33671875,48.239738183593744Q900.4667187499999,77.73213818359375,884.14671875,92.03913818359376Q856.68671875,116.11713818359374,828.92671875,131.85913818359376Q758.30371875,171.90313818359374,659.82971875,171.90313818359374Q561.49571875,171.90213818359376,478.46871875,138.39113818359374Q445.84471874999997,125.22313818359376,410.88171875,105.07013818359374Q390.09271875,93.08713818359374,351.97871875,68.36913818359375Q322.23671875,49.080538183593745,307.49571875000004,40.29603818359375Q283.14071875,25.78233818359375,262.72971875,16.675838183593747Q212.64671875,-5.669261816406248,161.73471875,-5.669261816406248Q76.34671874999998,-5.669161816406252,3.0627187499999877,42.38753818359375Q-63.65328124999999,86.13713818359375,-114.13838125,165.19113818359375Q-160.96578125,238.51613818359374,-186.74618125,330.43913818359374Q-211.61327125,419.10613818359377,-211.61328125,505.4401381835937Q-211.61328125,590.8641381835937,-186.79428125,670.5911381835938Q-161.48278125000002,751.9001381835938,-114.33138125,814.2151381835937Q-64.69728125,879.8121381835938,2.7297187499999893,915.5051381835938Z" fill-rule="evenodd" fill="#78E8D9" fill-opacity="1"/></g><g transform="matrix(0.9925758838653564,-0.12151633948087692,0.21204088628292084,0.9773011803627014,31.83371584503675,-49.60362159800934)"><path d="M1561.64859375,506.8179350585938C1561.64859375,774.3879350585937,1518.30859375,901.7159350585937,1196.00859375,947.8959350585938C1058.09859375,988.0959350585938,1054.46859375,1061.0459350585938,1050.69859375,1136.9559350585937C1049.84859375,1153.9559350585937,1048.99859375,1171.1159350585938,1046.62859375,1188.0859350585938C1033.66859375,1280.7859350585939,942.9685937500001,1364.2859350585939,773.32859375,1384.8659350585938C589.59359375,1407.1559350585937,428.48359374999995,1361.3859350585938,366.28459375,1245.1959350585937C359.33259375,1232.2059350585937,353.02459375,1218.4759350585937,346.61859374999995,1204.5359350585939C306.90959375,1118.0859350585938,263.40659374999996,1023.3859350585938,39.01959375000001,1046.2959350585938C-239.51140625,1046.2959350585938,-377.69140625,774.3879350585937,-377.69140625,506.8179350585938C-377.69140625,239.24793505859373,-220.05540625,-100.52106494140625,58.47559374999997,-100.52106494140625C147.57059374999994,-100.52106494140625,209.74659375,-62.374064941406246,278.68559374999995,-20.07806494140624C364.44659375000003,32.539935058593755,460.67259375000003,91.57693505859376,632.20859375,91.57693505859376C941.61859375,91.57693505859376,898.9485937500001,-163.35406494140625,1098.87859375,-163.35406494140625C1377.40859375,-163.35406494140625,1561.64859375,239.24793505859373,1561.64859375,506.8179350585938ZM-142.60740625,997.8859350585938Q-61.13040625000002,1044.2759350585939,38.91959374999999,1044.2959350585938Q119.05959374999998,1036.1259350585938,176.54059374999997,1047.2359350585937Q227.59259375,1057.1059350585938,263.24259374999997,1082.7859350585939Q292.75559375,1104.0459350585938,315.04559374999997,1139.0459350585938Q323.87259374999996,1152.9059350585937,332.99159375,1171.0759350585938Q338.43259375,1181.9159350585937,348.43559374999995,1203.6959350585937Q361.12859375000005,1231.3259350585938,368.04759375000003,1244.2559350585936Q390.74459375000004,1286.6459350585938,431.49659375,1317.5759350585938Q470.81859375,1347.4259350585937,524.85059375,1365.0559350585938Q577.64459375,1382.2959350585938,641.09859375,1386.7859350585939Q704.06859375,1391.2559350585936,773.08859375,1382.8859350585938Q834.78859375,1375.3959350585938,885.06859375,1356.6059350585938Q932.54859375,1338.8559350585938,967.50859375,1311.9359350585937Q1000.83859375,1286.2759350585939,1020.59859375,1254.0059350585936Q1039.76859375,1222.7159350585937,1044.64859375,1187.8059350585938Q1047.00859375,1170.9359350585937,1048.69859375,1136.8559350585938Q1050.58859375,1098.9459350585937,1053.62859375,1080.7159350585937Q1058.71859375,1050.2059350585937,1071.31859375,1028.0459350585938Q1086.39859375,1001.5059350585936,1114.51859375,982.0759350585938Q1145.81859375,960.4459350585937,1195.44859375,945.9759350585937L1195.58859375,945.9359350585937L1195.72859375,945.9159350585937Q1315.08859375,928.8159350585938,1388.27859375,895.3059350585938Q1459.61859375,862.6459350585938,1498.06859375,809.2109350585938Q1533.78859375,759.5599350585937,1547.86859375,681.7669350585937Q1559.63859375,616.6949350585937,1559.64859375,506.8179350585938Q1559.63859375,404.9999350585938,1526.58859375,289.77393505859374Q1492.55859375,171.18093505859378,1432.99859375,72.42593505859375Q1368.52859375,-34.466064941406245,1287.49859375,-94.66116494140626Q1197.71859375,-161.35406494140625,1098.87859375,-161.35406494140625Q1067.26859375,-161.35406494140625,1040.88859375,-152.66726494140624Q1017.2185937500001,-144.86896494140626,995.9685937500001,-129.40816494140626Q978.06859375,-116.38106494140625,958.9885937500001,-95.60656494140625Q947.4085937499999,-83.00626494140624,925.05859375,-55.34206494140625Q896.35859375,-19.831064941406254,879.7385937500001,-2.6000649414062593Q851.76859375,26.400935058593745,822.08859375,45.35993505859375Q786.1485937499999,68.31993505859376,742.6785937499999,80.17393505859374Q693.51859375,93.57793505859377,632.20859375,93.57693505859373Q518.01959375,93.57693505859373,422.57159375000003,57.35093505859376Q385.05459375,43.11193505859376,345.02559375,21.322935058593742Q321.21059375000004,8.359935058593749,277.63959375,-18.373064941406255Q243.62959375000003,-39.239064941406255,226.74159375,-48.748064941406255Q198.83959374999995,-64.45756494140625,175.36459375000004,-74.31636494140625Q117.72959374999999,-98.52106494140625,58.47559374999997,-98.52106494140625Q-40.83440624999997,-98.52076494140626,-126.06940624999999,-41.588064941406245Q-203.65540625,10.235935058593753,-262.36240625,103.87193505859375Q-316.80810625,190.71093505859375,-346.78050625,299.57093505859376Q-375.69140625,404.5759350585937,-375.69140625,506.8179350585938Q-375.69140625,609.1099350585938,-349.81980625,703.4629350585938Q-322.94950625,801.4579350585938,-272.13440625,875.7659350585936Q-217.94540625,954.9959350585937,-142.60740625,997.8859350585938Z" fill-rule="evenodd" fill="#78E8D9" fill-opacity="1"/></g></g></g></svg>