<svg xmlns="http://www.w3.org/2000/svg" xmlns:xlink="http://www.w3.org/1999/xlink" fill="none" version="1.1" width="1440" height="916" viewBox="0 0 1440 916"><defs><linearGradient x1="0.5" y1="-0.23036853969097137" x2="0.5" y2="1" id="master_svg0_4139_42242"><stop offset="0%" stop-color="#FFFFFF" stop-opacity="0"/><stop offset="100%" stop-color="#FFFFFF" stop-opacity="1"/></linearGradient><mask id="master_svg1_4139_42255" style="mask-type:alpha" maskUnits="objectBoundingBox"><g><rect x="0" y="0" width="1440" height="916" rx="0" fill="url(#master_svg0_4139_42242)" fill-opacity="1"/></g></mask></defs><g mask="url(#master_svg1_4139_42255)"><g><g transform="matrix(0.9893216490745544,-0.14574870467185974,0.17745359241962433,0.9841291308403015,-24.02991431960254,12.740909232437843)"><path d="M662.2912421875,776.612765625C522.0772421875,776.612765625,494.6232421875,911.760765625,374.1392421875,911.760765625C206.2892421875,911.760765625,72.1982421875,768.405765625,72.1982421875,544.740765625C72.1982421875,321.07576562500003,139.2618421875,139.759765625,307.1122421875,139.759765625C367.0802421875,139.759765625,425.8822421875,190.451265625,484.7312421875,241.182765625C544.1182421875001,292.377765625,603.5522421875,343.614765625,664.2782421875,342.836765625C785.1802421875,341.287765625,882.5602421875,139.759765625,1003.0442421875,139.759765625C1170.8982421875,139.759765625,1240.8982421875,321.07576562500003,1240.8982421875,544.740765625C1240.8982421875,768.405765625,1145.1982421875,949.721765625,977.3512421875,949.721765625C856.8672421875,949.721765625,802.5052421875,776.612765625,662.2912421875,776.612765625ZM662.2912421875,774.612765625Q711.2982421875,774.612765625,757.8152421875,803.835765625Q776.2422421875,815.411765625,797.2522421875,833.348765625Q809.7982421875,844.060765625,833.8292421875,866.626765625Q855.8322421875,887.290765625,866.9332421875,896.866765625Q885.3362421875,912.742765625,900.8622421875,922.817765625Q939.2452421875,947.721765625,977.3512421875,947.721765625Q1038.1772421875,947.723765625,1088.2782421875,916.203765625Q1135.9582421875,886.207765625,1170.3582421875,830.060765625Q1203.7482421875,775.569765625,1221.3782421875,701.912765625Q1238.8982421875,628.693765625,1238.8982421875,544.740765625Q1238.8982421875,458.829765625,1225.3682421875,387.476765625Q1211.2082421875,312.749765625,1183.1382421875,259.305765625Q1153.5082421875,202.865965625,1109.8982421875,173.239565625Q1063.5572421875,141.759765625,1003.0442421875,141.759785625Q963.3882421875,141.759765625,917.1882421875,173.076465625Q898.5952421875,185.678965625,875.7742421875,205.397665625Q862.0472421875,217.25766562500002,834.7512421875,242.579765625Q807.5312421875,267.831765625,793.8142421875,279.692765625Q770.9022421875,299.505765625,752.1792421875,312.254765625Q705.0992421875,344.313765625,664.3042421875,344.835765625Q623.2212421875,345.362765625,572.9242421875,313.184765625Q552.9172421875,300.383765625,528.0442421875,280.330765625Q513.1412421875,268.314765625,483.4252421875,242.697765625Q454.0342421875,217.36046562500002,439.3282421875,205.489265625Q414.8712421875,185.747565625,395.2592421875,173.128865625Q346.5032421875,141.759765625,307.1122421875,141.759765625Q246.6352421875,141.759845625,200.7262421875,173.234765625Q157.57694218749998,202.817365625,128.4893421875,259.291765625Q101.0346421875,312.595765625,87.2666421875,387.465765625Q74.1982421875,458.530765625,74.1982621875,544.740765625Q74.1982421875,626.462765625,97.6670421875,695.805765625Q120.09574218750001,762.074765625,161.7455421875,810.825765625Q202.5232421875,858.556765625,256.9972421875,884.055765625Q311.91124218749997,909.762765625,374.1392421875,909.760765625Q412.3132421875,909.759765625,446.8132421875,890.322765625Q460.7472421875,882.472765625,476.6552421875,870.099765625Q486.2542421875,862.633765625,505.0382421875,846.508765625Q525.5802421875001,828.873765625,536.4652421875,820.508765625Q554.7172421875,806.482765625,571.3702421875,797.430765625Q613.3502421875,774.612765625,662.2912421875,774.612765625Z" fill-rule="evenodd" fill="#A7E8DF" fill-opacity="1"/></g><g transform="matrix(0.9893216490745544,-0.14574868977069855,0.17745360732078552,0.9841291904449463,-12.481909841211746,-8.657153921107238)"><path d="M652.82839453125,885.866078125C588.97139453125,882.224078125,539.99239453125,915.606078125,487.28439453125,951.528078125C429.46239453125,990.937078125,367.15239453125,1033.404078125,275.78839453125,1033.404078125C156.50739453125,1015.737078125,-66.62060546875,909.965078125,-66.62060546875,585.745078125C-66.62060546875,261.525078125,51.363394531249995,90.072578125,175.83339453125,66.336172565C432.70639453125,74.404158125,533.49339453125,279.347078125,646.90039453125,279.884078125C697.58839453125,280.124078125,744.89739453125,241.692078125,797.31639453125,199.110078125C862.17739453125,146.420078125,934.85939453125,87.375378125,1031.44939453125,87.375378125C1274.75939453125,87.375378125,1327.17939453125,402.484078125,1345.14939453125,542.319078125C1345.14939453125,866.539078125,1183.42939453125,1035.578078125,1035.93939453125,1066.064078125C861.29539453125,1066.064078125,786.73939453125,893.504078125,652.82839453125,885.866078125ZM393.28839453125,1005.423078125Q336.15039453125,1031.3740781249999,275.93639453125,1031.404078125Q224.57539453125003,1023.775078125,172.80639453125,999.783078125Q109.75039453125001,970.564078125,61.252394531250005,923.103078125Q3.5811945312500058,866.666078125,-28.041505468750003,789.231078125Q-64.62060546875,699.661078125,-64.62064546875,585.745078125Q-64.62060546875,468.564078125,-44.28320546875,371.555078125Q-25.42990546875,281.624078125,9.703494531250001,214.284078125Q42.57439453124999,151.279978125,86.74139453125,113.432778125Q128.77839453125,77.409678125,175.99239453125,68.342178125Q276.66139453125,71.550998125,367.60039453125,117.23617812500001Q402.85239453125,134.94607812499999,440.84739453125,161.095478125Q463.31839453124996,176.561078125,503.49239453125006,207.349078125Q529.32139453125,227.144078125,541.56639453125,235.983078125Q561.78139453125,250.575078125,577.41739453125,259.627078125Q615.60839453125,281.736078125,646.89139453125,281.884078125Q681.39139453125,282.047078125,722.49139453125,257.268078125Q739.09639453125,247.257078125,760.03839453125,231.320078125Q772.67139453125,221.708078125,798.57739453125,200.662078125Q831.46039453125,173.949078125,848.87139453125,161.02897812499998Q878.06939453125,139.363278125,903.45739453125,125.231578125Q967.87939453125,89.375278125,1031.44939453125,89.375478125Q1188.30939453125,89.375278125,1270.99939453125,263.268078125Q1301.18939453125,326.776078125,1320.81939453125,412.687078125Q1333.73939453125,469.234078125,1343.14939453125,542.447078125Q1343.13939453125,658.673078125,1315.64939453125,756.104078125Q1290.57939453125,844.986078125,1244.19939453125,913.217078125Q1201.67939453125,975.770078125,1145.32939453125,1015.324078125Q1092.74939453125,1052.234078125,1035.73939453125,1064.064078125Q973.31939453125,1064.013078125,913.63639453125,1032.925078125Q889.90139453125,1020.563078125,862.85839453125,1001.441078125Q846.66939453125,989.994078125,815.81039453125,965.983078125Q790.12639453125,945.998078125,777.29539453125,936.706078125Q755.95139453125,921.249078125,738.28539453125,911.208078125Q694.33939453125,886.230078125,652.94239453125,883.870078125Q609.73739453125,881.406078125,565.03739453125,902.045078125Q547.01739453125,910.365078125,525.34739453125,923.905078125Q512.30839453125,932.053078125,486.15839453125,949.876078125Q457.00139453124996,969.748078125,441.64139453125,979.246078125Q415.95139453125,995.129078125,393.28839453125,1005.423078125Z" fill-rule="evenodd" fill="#A7E8DF" fill-opacity="1"/></g><g transform="matrix(0.9893216490745544,-0.14574870467185974,0.17745360732078552,0.9841291904449463,9.674012349569239,-33.60564348072512)"><path d="M634.126171875,1002.4346875000001C759.977171875,1021.0746875,831.7461718750001,1208.9646875,1057.806171875,1208.9646875C1248.716171875,1168.9846875,1471.056171875,909.4426875,1490.406171875,549.0436875C1467.146171875,365.6466875,1325.286171875,-26.658212499999998,1062.686171875,-37.0965125C937.6461718749999,-37.0965125,861.286171875,39.3816875,793.176171875,107.6076875C738.156171875,162.7176875,688.512171875,212.44268749999998,622.923171875,212.12768749999998C476.133171875,211.42368750000003,345.678171875,-57.3639125,13.192171875000014,-67.9453125C-147.916828125,-36.8143125,-223.174097584,197.74068749999998,-223.174097584,622.9636875C-162.467228125,1017.0646875,88.670171875,1130.1646875,243.06317187500002,1153.3346875C367.56017187500004,1153.3346875,435.36817187500003,1101.9146875,492.19017187500003,1058.8246875C538.543171875,1023.6746874999999,577.585171875,994.0646875,634.126171875,1002.4346875000001ZM634.419171875,1000.4546875000001Q668.869171875,1005.5646875,706.509171875,1029.7846875Q721.758171875,1039.6046875,740.570171875,1054.4146875Q751.916171875,1063.3546875,775.071171875,1082.7146875Q810.326171875,1112.1746875,829.626171875,1126.5546875Q862.046171875,1150.7046875,892.1461718749999,1166.5446875Q968.856171875,1206.9146875,1057.596171875,1206.9646875Q1129.466171875,1191.8546875,1202.026171875,1138.0646875Q1276.246171875,1083.0246875,1336.806171875,998.0046875Q1401.016171875,907.8666875,1439.606171875,797.9146875Q1481.416171875,678.8296875,1488.406171875,549.1166875Q1478.736171875,473.02368750000005,1448.796171875,382.1826875Q1414.316171875,277.5806875,1364.576171875,192.1196875Q1306.246171875,91.9246875,1235.776171875,34.653687500000004Q1154.456171875,-31.434112499999998,1062.646171875,-35.0965125Q980.286171875,-35.0854125,907.6561718749999,11.355787500000005Q879.046171875,29.6565875,847.776171875,57.7036875Q829.126171875,74.42568750000001,794.586171875,109.02068750000001Q767.384171875,136.2716875,753.943171875,148.7006875Q731.636171875,169.3306875,713.161171875,182.2896875Q667.467171875,214.3406875,622.913171875,214.12768749999998Q582.572171875,213.9346875,533.272171875,185.0156875Q513.055171875,173.1556875,486.917171875,154.0386875Q471.06017187500004,142.4396875,437.649171875,116.4946875Q385.64217187500003,76.1076875,356.54017187500006,55.8136875Q307.325171875,21.492887499999995,261.662171875,-1.7501125000000002Q143.811171875,-61.7390525,13.353171874999987,-65.9391525Q-105.173828125,-42.886812500000005,-163.511328125,130.3626875Q-221.160378125,301.5656875,-221.174098125,622.8106875Q-199.725528125,761.9196875,-144.650528125,867.9166875Q-96.489828125,960.6046875,-23.851828124999997,1025.7646875Q37.84817187499999,1081.1046875,114.41117187499998,1114.2746875Q176.956171875,1141.3746875,243.213171875,1151.3346875Q325.09317187500005,1151.3046875,392.168171875,1120.4246875Q418.33417187500004,1108.3746875,445.68917187500006,1090.1046875Q461.92917187499995,1079.2646875,490.98217187499995,1057.2246875Q513.738171875,1039.9746875,524.841171875,1032.3546875Q543.203171875,1019.7546875,558.479171875,1012.5046875Q595.848171875,994.7446875,634.419171875,1000.4546875000001Z" fill-rule="evenodd" fill="#A7E8DF" fill-opacity="1"/></g><g transform="matrix(0.9893216490745544,-0.14574867486953735,0.17745362222194672,0.9841292500495911,-42.69711700342623,33.048586360257104)"><path d="M678.55762890625,673.5736398925781C564.4976289062499,673.5736398925781,521.19462890625,802.1856398925781,423.18462890625,802.1856398925781C286.64332890625,802.1856398925781,199.24462890625,679.1566398925781,199.24462890625,527.3926398925781C199.24462890625,375.6286398925781,253.79882890625,252.59963989257812,390.33962890625,252.59963989257812C434.01562890624996,252.59963989257812,466.34062890625,279.96323989257814,502.18162890625,310.30243989257815C546.76862890625,348.0455398925781,596.7956289062499,390.3936398925781,680.88362890625,390.3936398925781C832.56562890625,390.3936398925781,858.44962890625,252.59963989257812,956.45962890625,252.59963989257812C1093.0006289062499,252.59963989257812,1149.94362890625,375.6286398925781,1149.94362890625,527.3926398925781C1149.94362890625,679.1566398925781,1072.09962890625,802.1856398925781,935.55862890625,802.1856398925781C837.54862890625,802.1856398925781,792.61762890625,673.5736398925781,678.55762890625,673.5736398925781ZM678.55762890625,671.5736398925781Q718.48662890625,671.5746398925781,756.50962890625,693.3216398925781Q771.56862890625,701.9336398925782,788.75362890625,715.2766398925781Q799.00462890625,723.2346398925781,818.65862890625,740.0116398925782Q836.64062890625,755.362639892578,845.69862890625,762.4676398925781Q860.71462890625,774.2476398925781,873.36562890625,781.7206398925781Q904.62462890625,800.1856398925781,935.55862890625,800.1856398925781Q985.01462890625,800.1856398925781,1025.7306289062499,778.8196398925782Q1064.4336289062499,758.5096398925782,1092.34262890625,720.516639892578Q1119.42662890625,683.6456398925782,1133.72462890625,633.8026398925781Q1147.9426289062499,584.2386398925781,1147.94362890625,527.3926398925781Q1147.9426289062499,469.1866398925781,1136.9626289062498,420.8736398925781Q1125.46762890625,370.30063989257815,1102.71162890625,334.1500398925781Q1078.68462890625,295.9799398925781,1043.3086289062499,275.93423989257815Q1005.65862890625,254.59963989257812,956.45962890625,254.59961989257812Q927.79262890625,254.59961989257812,900.56562890625,271.7656398925781Q889.41862890625,278.79293989257815,876.26762890625,290.00873989257815Q868.29262890625,296.8096398925781,852.24962890625,311.76533989257814Q831.65162890625,330.9672398925781,820.33862890625,340.2833398925781Q801.28262890625,355.97663989257813,783.22362890625,366.24063989257814Q737.20862890625,392.3936398925781,680.88362890625,392.3936398925781Q624.58662890625,392.3936398925781,575.77562890625,366.26463989257815Q556.62462890625,356.0136398925781,535.8826289062499,340.33503989257815Q523.56562890625,331.0249398925781,500.88962890625,311.82893989257815Q483.21862890625,296.8705398925781,474.49762890625,290.0636398925781Q460.10962890625,278.83413989257815,448.18262890625,271.79633989257815Q419.03862890625,254.59963989257812,390.33962890625,254.59963989257812Q341.17062890625,254.59963989257812,303.87062890625,275.9303398925781Q268.87362890625,295.94423989257814,245.29102890625,334.13533989257814Q223.02572890625,370.1936398925781,211.85522890625,420.8616398925781Q201.24462890625,468.9896398925781,201.24462890625,527.3926398925781Q201.24462890625,583.7816398925781,216.94222890625,633.7546398925781Q232.51012890625,683.3156398925781,261.58662890625,720.4676398925781Q291.26122890625,758.3846398925782,331.49562890625,778.8076398925781Q373.61262890625,800.1856398925781,423.18462890625,800.1856398925781Q454.11562890625,800.1856398925781,485.13462890625,781.7246398925781Q497.69062890625,774.2516398925782,512.55462890625,762.4746398925781Q521.52262890625,755.3676398925782,539.3086289062501,740.0186398925781Q558.74962890625,723.2426398925782,568.9016289062499,715.2826398925781Q585.9206289062499,701.9386398925781,600.8726289062499,693.3246398925781Q638.62462890625,671.5736398925781,678.55762890625,671.5736398925781Z" fill-rule="evenodd" fill="#A7E8DF" fill-opacity="1"/></g></g></g></svg>